<svg xmlns="http://www.w3.org/2000/svg" viewBox="0 0 48 48"><g fill="none" fill-rule="evenodd" data-darkreader-inline-fill="" ><path d="M45.819 29.1A11.945 11.945 0 0148 36c0 6.627-5.373 12-12 12-5.33 0-9.85-3.476-11.414-8.285A20.04 20.04 0 0027.92 40H28c7.693.015 14.379-4.333 17.724-10.716z" fill="#5182F8" fill-rule="nonzero" data-darkreader-inline-fill="" style="--darkreader-inline-fill:#70aef2;"/><path d="M28.078 1h.002-.082C17.528.979 9.021 9.468 9 19.962 8.979 30.456 17.451 38.979 27.92 39h.082c10.47.021 18.977-8.468 18.998-18.962C47.021 9.544 38.549 1.021 28.078 1z" stroke="#24124D" stroke-width="2"  style="--darkreader-inline-stroke:#e8dfd2;"/><circle fill="#33539F" fill-rule="nonzero" cx="4" cy="44" r="4" data-darkreader-inline-fill="" style="--darkreader-inline-fill:#a2bfdb;"/><circle fill="#33539F" fill-rule="nonzero" cx="6" cy="6" r="2" data-darkreader-inline-fill="" style="--darkreader-inline-fill:#a2bfdb;"/><g stroke="#24124D" stroke-linecap="round" stroke-linejoin="round" stroke-width="2"  style="--darkreader-inline-stroke:#e8dfd2;"><path d="M21 16l7 3 7-3-7-3zM21 20l7 3 7-3M21 24l7 3 7-3"/></g></g></svg>