<svg xmlns="http://www.w3.org/2000/svg" viewBox="0 0 48 48"><g fill="none" fill-rule="evenodd" data-darkreader-inline-fill="" ><path d="M12 0c5.412 0 9.987 3.583 11.483 8.505-7.417 1.704-13.26 7.548-14.972 14.98C3.585 21.99 0 17.414 0 12 0 5.373 5.373 0 12 0z" fill="#009688" fill-rule="nonzero" data-darkreader-inline-fill="" style="--darkreader-inline-fill:#98fff6;"/><path d="M28.078 9h.002-.082C17.528 8.979 9.021 17.468 9 27.962 8.979 38.456 17.451 46.979 27.92 47h.082c10.47.021 18.977-8.468 18.998-18.962C47.021 17.544 38.549 9.021 28.078 9z" stroke="#24124D" stroke-width="2"  style="--darkreader-inline-stroke:#e8dfd2;"/><circle fill="#1EB8C1" fill-rule="nonzero" cx="44" cy="4" r="4" data-darkreader-inline-fill="" style="--darkreader-inline-fill:#8cedea;"/><circle fill="#91BB54" fill-rule="nonzero" cx="2" cy="42" r="2" data-darkreader-inline-fill="" style="--darkreader-inline-fill:#c5db94;"/><g stroke="#24124D" stroke-linecap="round" stroke-linejoin="round" stroke-width="2"  style="--darkreader-inline-stroke:#e8dfd2;"><path d="M31 34v-1a3 3 0 00-3-3h-4a3 3 0 00-3 3v1h0M26 27c1.38 0 2.5-1.237 2.5-2.576S27.38 22 26 22s-2.5 1.085-2.5 2.424C23.5 25.764 24.62 27 26 27zM35 33.996V33c0-1.5-.5-3-2-3M31 22c1 0 2 1 2 2.5S32 27 31 27"/></g></g></svg>