<svg xmlns="http://www.w3.org/2000/svg"><g fill="none" fill-rule="evenodd" data-darkreader-inline-fill="" ><path fill="#FFB300" fill-rule="nonzero" d="M387 329.4l30.4 15-15 30.3-30.3-15z" data-darkreader-inline-fill="" style="--darkreader-inline-fill:#d59f20;"/><path stroke="#24124D" d="M394.7 209.6l43.8-39.4a53.8 53.8 0 0018 3.4c8.6 0 16-2.5 21.3-7.2l11.5 51.4c-8.2 5-15.7 9.8-22.4 14.3l-72.2-22.5zM476.1 342a27.7 27.7 0 01-22.4-43.8c7.4.7 15.6 1 23.4 1.2 8.4.2 16.4.5 23.1 1.3a27.7 27.7 0 01-24 41.4z"  style="--darkreader-inline-stroke:#e8dfd2;"/><path fill="#FFB300" fill-rule="nonzero" d="M357 274.7l-23 105.8-105.8-23.1 6.5-29.8c37.9 4.8 74.9 7.7 76 .7 1.7-10.9-40.4-28-67-41.4l7.7-35.3L357 274.7z" data-darkreader-inline-fill="" style="--darkreader-inline-fill:#d59f20;"/><path stroke="#24124D" d="M104 156c-6.8-8.7-20.9-12-34.5-15.1-14.5-3.3-28.2-6.5-28.5-16 0-6 3.7-14.8 10.5-24.1 7.1-9.9 15.8-18.5 25.7-25.6l54.8 74.3-28 6.4zm101.2-6.7a27.3 27.3 0 01-14.4-50.5c3 13 2.7 26.2 2.7 26.7h1c0-.6.5-16 11.5-16h.2c5 0 12 12.8 17.5 32.6a27.3 27.3 0 01-18.5 7.2zM39.6 330.5c-8.1 0-16-2.5-22.6-7.2 3.7-9.3 8.3-17 13.6-22.8a38.1 38.1 0 0125.8-13.1c7 0 14 4 21.5 12a39.3 39.3 0 01-38.3 31.1z"  style="--darkreader-inline-stroke:#e8dfd2;"/><path fill="#FFF" fill-rule="nonzero" stroke="#24124D" d="M292.1 332a497 497 0 01-56.9-4.8l8.7-39.6 16.8 8.2c23.8 11.3 50.7 24 49.3 32.4-.2 1.4-2.8 3.8-17.9 3.8z" data-darkreader-inline-fill=""  style="--darkreader-inline-fill:#272827; --darkreader-inline-stroke:#e8dfd2;"/><path fill="#FFB300" fill-rule="nonzero" d="M500.6 300.2c-13.4-1.7-31.8-1-47-2.6a28.2 28.2 0 0147 2.6zM224.3 142.3c-5.3-19-12.3-33.3-18.1-33.4-11.9-.1-12.1 16.7-12.1 16.7s.2-14.2-3-27.6a27.8 27.8 0 0133.2 44.3z" data-darkreader-inline-fill="" style="--darkreader-inline-fill:#d59f20;"/><circle cx="227.8" cy="47.5" r="9.8" fill="#FFB300" fill-rule="nonzero" data-darkreader-inline-fill="" style="--darkreader-inline-fill:#ffd352;"/><path fill="#FFB300" fill-rule="nonzero" d="M78.4 299.4c-7.7-8.4-15.8-13.4-24.7-12.2-19.4 2.7-30.8 20-37.4 36.4a39.6 39.6 0 1162.1-24.2zm399.7-133.9c-9.4 8.7-24.7 9.6-39.7 4.1l33.9-30.4 5.8 26.3zm17 76l-28-8.8c6.6-4.6 14.2-9.5 22.8-14.7l5.2 23.5zm-391.3-85l-99.4 23 42-147 30.9 42c-20.7 14.6-37 37.8-36.8 50.3.5 19 49.3 13.3 63.3 31.7z" data-darkreader-inline-fill="" style="--darkreader-inline-fill:#d59f20;"/><path stroke="#A82D85" stroke-width="3" d="M397.3 133.9c17.2 36.9 65.2 51 82.1 27.8 19.9-27.2 3.9-59.3 22.3-66.3 18.5-7 69 74.1-4.8 117.3-57.4 33.5-75 54.4-73.8 68.4 2.1 23.5 55.1 17 80.6 20 43.1 5.1 44.7 51.6 8.6 70.6-55.2 29-119.1-29.1-119.1-29.1m8.5-266.9c-1.9 5.2-3.6 10.5-5 15.9m-48-60.2c20-8.5 39.6-12.8 52.7-6.2 15.7 8 10.7 23 3.7 41.4M172.8 227.8s-10-5.3-24.8-4.2c-21.2 1.5-48.4 35.7-57.2 15.6-8.8-20 26.4-60.8 14-81.1-12.3-20.3-63.8-13.8-64.3-33.3-.4-19.4 39.6-65 73.6-63.4 34 1.6 32 55.7 32 55.7s5.9-45.2 27.4-42.5c21.5 2.8 20.6 51 20.6 51s.2-16.8 12-16.7c11.9.2 28.3 58.7 26 95.6-2.4 36.8-21 57.4-7.8 70.6 13.3 13.3 88.6 38.7 86.3 53.2-2.3 14.5-157.9-13.2-157.9-13.2s30.4 52 1.3 64.5c-36.8 15.8-61.8-98-100.3-92.5-38.4 5.4-45.5 68-45.5 68"  style="--darkreader-inline-stroke:#e896c8;"/><path fill="#FFD166" fill-rule="nonzero" d="M316 77.6l-4.3-19s6.5-5.5 4-10.5-7.4-1.4-7.4-1.4-4.2-6.6-12.1-5.4c-8 1.1-10.2 11-8.2 17.2 2.9 9 8.3 12.2 17 8.1l2.7 10.6" data-darkreader-inline-fill="" style="--darkreader-inline-fill:#9a731a;"/><path fill="#24124D" fill-rule="nonzero" d="M311.9 45.5s.5-8.8-10.7-10.2c-11.2-1.4-12.6 2.6-17 .8-4.3-1.8-7.4 11.5 5 12.4 12.2 1 11.8.2 11.8.2s.4 5.6 3.6 5c3.1-.5 3.8-6.3 3.8-6.3" data-darkreader-inline-fill="" style="--darkreader-inline-fill:#e8dfd2;"/><path stroke="#24124D" d="M289.5 57.3l-.6 4.7"  style="--darkreader-inline-stroke:#e8dfd2;"/><circle cx="291.7" cy="55.6" r="1.3" fill="#24124D" fill-rule="nonzero" data-darkreader-inline-fill="" style="--darkreader-inline-fill:#e8dfd2;"/><path fill="#24124D" fill-rule="nonzero" d="M347.4 168.1l-18.7 54.3 51.4 50.3-36.5 31s-6-9 2.5-19.6c0 0-46.8-29.7-54.3-46.4-10.2-22.5 15-105 41.4-109.1 28-4.3 64 62.2 64 62.2l61.3 7.8.6 55.6s-14.8-4-14.7-21.8c0 0-50.5 5.4-68-8.6-17.4-14-54.7-61-54.7-61" data-darkreader-inline-fill="" style="--darkreader-inline-fill:#322252;"/><path fill="#5182F8" fill-rule="nonzero" d="M337.3 82l-8.2 30.6a10.7 10.7 0 01-18.3 4.5l-19-20.9A10.7 10.7 0 01296 79l27.2-9.7a10.7 10.7 0 0114 12.9z" data-darkreader-inline-fill="" style="--darkreader-inline-fill:#1c3e91;"/><path stroke="#24124D" stroke-linejoin="bevel" d="M346.8 66s40.8-4.3 55.6 4.3c9.2 5.3 31.4 31.3 31.4 31.3s10.4 11.8 8.3 13.2c-2.5 1.7-11.8-9.7-11.8-9.7s13.6 14.5 11 16.5c-2 1.6-14.9-12.9-14.9-12.9s12 12.9 9.6 14.6c-2.6 2-14-12.6-14-12.6s4.3 7.4 2.2 9.2c-1.9 1.7-8.2-6.5-8.2-6.5l-26.3-21.6-35-2.2"  style="--darkreader-inline-stroke:#e8dfd2;"/><path fill="#A82D85" fill-rule="nonzero" d="M382 83.4l21.3 38a15.3 15.3 0 01-5.9 20.8l-1.6.9-.6.3-136.4 76.4a34.7 34.7 0 01-12.6 4.1l-70.3 9a8.6 8.6 0 01-7.7-14l44.3-55.2c2.8-3.5 6.2-6.4 10.1-8.6l137.8-77.2.8-.4a15.3 15.3 0 0120.9 5.9zm-2.3 15.7c-1.6-3-5.2-4-8.2-2.5l-.2.1-.6.4c-3 1.6-4 5.2-2.5 8.2l.1.2 9 16c1.6 2.9 5.2 4 8.2 2.5l.2-.1.6-.4c3-1.6 4-5.3 2.5-8.2l-.1-.2-9-16z" data-darkreader-inline-fill="" style="--darkreader-inline-fill:#8e3971;"/><path stroke="#24124D" d="M310.8 84.6s34.8 34.8 39.3 45.6c4.4 10.8-9.2 44.1-9.2 44.1-10.4 20.5-38.3 21.4-38.3 21.4l11.8-6.5 9-49.3-33.5-33.4"  style="--darkreader-inline-stroke:#e8dfd2;"/><path stroke="#FFF" d="M340.9 174.3c-10.4 20.5-38.3 21.4-38.3 21.4l11.8-6.5"  style="--darkreader-inline-stroke:#ffffff;"/><path fill="#FFB300" fill-rule="nonzero" d="M448 29.9l45-28.6 28.6 45.2L476.5 75zM187.2 277.7a24 24 0 01-46.9-10.9l47 10.9z" data-darkreader-inline-fill="" style="--darkreader-inline-fill:#d59f20;"/><path stroke="#FFF" d="M310.8 84.6l13.6 14"  style="--darkreader-inline-stroke:#ffffff;"/></g></svg>