<svg xmlns="http://www.w3.org/2000/svg" viewBox="0 0 630 471" fill="none"><path d="M20 0.59021H610V470.59H20V0.59021Z" fill="white"/><rect x="40.1172" y="342.217" width="138.221" height="24" rx="5" fill="#E8EAF0"/><path d="M52.1998 355.493C54.3138 355.493 55.7978 354.527 55.7978 352.413C55.7978 350.299 54.3838 349.417 52.1998 349.417H48.6438V359.217H50.2958V355.493H52.1998ZM54.1178 352.413C54.1178 353.617 53.4038 354.149 51.9478 354.149H50.2958V350.775H51.9478C53.4178 350.775 54.1178 351.195 54.1178 352.413ZM63.0508 352.581H61.4688V356.095C61.4688 357.411 60.7268 358.097 59.9568 358.097C59.3408 358.097 58.7528 357.733 58.7528 356.781V352.581H57.1708V357.173C57.1708 358.657 58.2208 359.399 59.4808 359.399C60.5028 359.399 61.1328 358.909 61.5388 358.223V359.217H63.0508V352.581ZM69.3587 352.553C69.0927 352.441 68.7847 352.399 68.5187 352.399C67.6087 352.399 66.9227 352.819 66.5587 353.659V352.581H65.0607V359.217H66.6567V355.871C66.6567 354.443 67.4967 353.771 68.2667 353.771C68.5467 353.771 68.8407 353.855 69.0367 354.023L69.3587 352.553ZM69.7667 355.899C69.7667 358.013 71.0407 359.399 73.0427 359.399C74.5407 359.399 75.3247 358.615 75.8567 357.635L74.3867 357.075C74.1487 357.677 73.7987 358.139 73.0147 358.139C71.8667 358.139 71.4047 357.047 71.4047 355.899C71.4047 354.723 71.8947 353.645 73.0007 353.645C73.7427 353.645 74.2047 354.065 74.3867 354.779L75.8287 354.233C75.3947 353.197 74.6107 352.399 73.0707 352.399C71.0267 352.399 69.7667 353.813 69.7667 355.899ZM77.1467 359.217H78.7427V355.703C78.7427 354.387 79.4847 353.701 80.2827 353.701C80.9127 353.701 81.5147 354.065 81.5147 355.017V359.217H83.1107V354.639C83.1107 353.141 82.0467 352.399 80.7587 352.399C79.7087 352.399 79.0787 352.903 78.7427 353.491V349.417H77.1467V359.217ZM89.0387 359.217H90.5787C90.4947 358.965 90.4247 358.713 90.4247 358.307V354.807C90.4247 353.211 89.3047 352.399 87.7087 352.399C86.2387 352.399 84.9927 353.099 84.8527 354.401L86.3927 354.625C86.4067 354.065 86.8127 353.589 87.6527 353.589C88.4927 353.589 88.8707 354.079 88.8707 354.779V355.199C86.6027 355.199 84.5587 355.731 84.5587 357.509C84.5587 358.671 85.4547 359.399 86.7847 359.399C87.8347 359.399 88.4647 358.979 88.8987 358.363C88.8987 358.727 88.9687 359.091 89.0387 359.217ZM87.2187 358.223C86.5887 358.223 86.1267 357.943 86.1267 357.411C86.1267 356.529 87.2327 356.221 88.8707 356.221V356.767C88.8707 357.691 88.0587 358.223 87.2187 358.223ZM93.5128 354.345C93.5128 353.827 94.0028 353.547 94.6188 353.547C95.3608 353.547 95.7808 353.911 95.8648 354.541L97.4048 354.219C97.2228 353.085 96.1028 352.399 94.6468 352.399C93.2188 352.399 91.9168 353.057 91.9168 354.457C91.9168 355.745 92.9248 356.249 94.4368 356.473C95.5428 356.641 95.9068 356.851 95.9068 357.369C95.9068 357.957 95.4028 358.237 94.6608 358.237C93.8628 358.237 93.3448 357.915 93.2748 357.173L91.7348 357.397C91.8888 358.699 93.0088 359.399 94.6468 359.399C96.3688 359.399 97.5028 358.587 97.5028 357.257C97.5028 355.857 96.2708 355.423 94.8848 355.227C94.0728 355.101 93.5128 354.933 93.5128 354.345ZM103.319 357.215C103.053 357.789 102.661 358.209 101.849 358.209C100.673 358.209 100.239 357.257 100.197 356.263H104.929V355.815C104.929 354.009 103.935 352.399 101.807 352.399C99.8613 352.399 98.5733 353.799 98.5733 355.885C98.5733 357.999 99.8333 359.399 101.863 359.399C103.249 359.399 104.173 358.755 104.691 357.761L103.319 357.215ZM101.793 353.561C102.675 353.561 103.291 354.163 103.333 355.213H100.225C100.309 354.247 100.855 353.561 101.793 353.561ZM116.675 352.217C116.675 350.061 114.883 349.417 113.175 349.417H109.661V359.217H111.299V355.199H112.909L115.177 359.217H117.067L114.617 355.003C115.863 354.625 116.675 353.673 116.675 352.217ZM114.995 352.259C114.995 353.253 114.393 353.869 113.021 353.869H111.299V350.775H112.909C114.267 350.775 114.995 351.195 114.995 352.259ZM122.419 357.215C122.153 357.789 121.761 358.209 120.949 358.209C119.773 358.209 119.339 357.257 119.297 356.263H124.029V355.815C124.029 354.009 123.035 352.399 120.907 352.399C118.961 352.399 117.673 353.799 117.673 355.885C117.673 357.999 118.933 359.399 120.963 359.399C122.349 359.399 123.273 358.755 123.791 357.761L122.419 357.215ZM120.893 353.561C121.775 353.561 122.391 354.163 122.433 355.213H119.325C119.409 354.247 119.955 353.561 120.893 353.561ZM125.097 355.899C125.097 358.013 126.371 359.399 128.373 359.399C129.871 359.399 130.655 358.615 131.187 357.635L129.717 357.075C129.479 357.677 129.129 358.139 128.345 358.139C127.197 358.139 126.735 357.047 126.735 355.899C126.735 354.723 127.225 353.645 128.331 353.645C129.073 353.645 129.535 354.065 129.717 354.779L131.159 354.233C130.725 353.197 129.941 352.399 128.401 352.399C126.357 352.399 125.097 353.813 125.097 355.899ZM135.333 352.399C133.289 352.399 132.015 353.813 132.015 355.899C132.015 357.985 133.289 359.399 135.333 359.399C137.391 359.399 138.665 357.985 138.665 355.899C138.665 353.813 137.391 352.399 135.333 352.399ZM135.333 358.181C134.185 358.181 133.639 357.159 133.639 355.899C133.639 354.639 134.185 353.617 135.333 353.617C136.509 353.617 137.041 354.639 137.041 355.899C137.041 357.159 136.509 358.181 135.333 358.181ZM144.513 352.553C144.247 352.441 143.939 352.399 143.673 352.399C142.763 352.399 142.077 352.819 141.713 353.659V352.581H140.215V359.217H141.811V355.871C141.811 354.443 142.651 353.771 143.421 353.771C143.701 353.771 143.995 353.855 144.191 354.023L144.513 352.553ZM147.959 352.399C146.237 352.399 144.921 353.743 144.921 355.899C144.921 358.055 146.209 359.399 147.903 359.399C149.051 359.399 149.723 358.839 150.087 358.237V359.217H151.599V349.417H150.017V353.421C149.625 352.861 148.939 352.399 147.959 352.399ZM150.017 356.249C150.017 357.649 149.009 358.139 148.239 358.139C147.203 358.139 146.559 357.187 146.559 355.899C146.559 354.625 147.217 353.659 148.281 353.659C149.037 353.659 150.017 354.149 150.017 355.549V356.249ZM157.897 357.215C157.631 357.789 157.239 358.209 156.427 358.209C155.251 358.209 154.817 357.257 154.775 356.263H159.507V355.815C159.507 354.009 158.513 352.399 156.385 352.399C154.439 352.399 153.151 353.799 153.151 355.885C153.151 357.999 154.411 359.399 156.441 359.399C157.827 359.399 158.751 358.755 159.269 357.761L157.897 357.215ZM156.371 353.561C157.253 353.561 157.869 354.163 157.911 355.213H154.803C154.887 354.247 155.433 353.561 156.371 353.561ZM163.613 352.399C161.891 352.399 160.575 353.743 160.575 355.899C160.575 358.055 161.863 359.399 163.557 359.399C164.705 359.399 165.377 358.839 165.741 358.237V359.217H167.253V349.417H165.671V353.421C165.279 352.861 164.593 352.399 163.613 352.399ZM165.671 356.249C165.671 357.649 164.663 358.139 163.893 358.139C162.857 358.139 162.213 357.187 162.213 355.899C162.213 354.625 162.871 353.659 163.935 353.659C164.691 353.659 165.671 354.149 165.671 355.549V356.249Z" fill="#131F52"/><rect x="249.252" y="342.217" width="66.3622" height="24" rx="5" fill="#FDE8E1"/><path d="M257.779 359.217H261.797C263.645 359.217 264.961 358.027 264.961 356.361C264.961 354.891 263.953 354.247 263.015 354.107C263.729 353.841 264.541 353.211 264.541 351.909C264.541 350.411 263.505 349.417 261.615 349.417H257.779V359.217ZM261.181 350.747C262.343 350.747 262.861 351.153 262.861 352.077C262.861 353.099 262.245 353.547 261.055 353.547H259.403V350.747H261.181ZM259.403 354.849H261.195C262.483 354.849 263.281 355.227 263.281 356.361C263.281 357.243 262.819 357.887 261.223 357.887H259.403V354.849ZM266.608 359.217H268.204V349.417H266.608V359.217ZM273.073 352.399C271.029 352.399 269.755 353.813 269.755 355.899C269.755 357.985 271.029 359.399 273.073 359.399C275.131 359.399 276.405 357.985 276.405 355.899C276.405 353.813 275.131 352.399 273.073 352.399ZM273.073 358.181C271.925 358.181 271.379 357.159 271.379 355.899C271.379 354.639 271.925 353.617 273.073 353.617C274.249 353.617 274.781 354.639 274.781 355.899C274.781 357.159 274.249 358.181 273.073 358.181ZM277.575 355.899C277.575 358.013 278.849 359.399 280.851 359.399C282.349 359.399 283.133 358.615 283.665 357.635L282.195 357.075C281.957 357.677 281.607 358.139 280.823 358.139C279.675 358.139 279.213 357.047 279.213 355.899C279.213 354.723 279.703 353.645 280.809 353.645C281.551 353.645 282.013 354.065 282.195 354.779L283.637 354.233C283.203 353.197 282.419 352.399 280.879 352.399C278.835 352.399 277.575 353.813 277.575 355.899ZM289.477 359.217H291.353L288.371 355.017L290.989 352.581H289.127L286.551 354.961V349.417H284.955V359.217H286.551V356.613L287.223 355.997L289.477 359.217ZM296.335 357.215C296.069 357.789 295.677 358.209 294.865 358.209C293.689 358.209 293.255 357.257 293.213 356.263H297.945V355.815C297.945 354.009 296.951 352.399 294.823 352.399C292.877 352.399 291.589 353.799 291.589 355.885C291.589 357.999 292.849 359.399 294.879 359.399C296.265 359.399 297.189 358.755 297.707 357.761L296.335 357.215ZM294.809 353.561C295.691 353.561 296.307 354.163 296.349 355.213H293.241C293.325 354.247 293.871 353.561 294.809 353.561ZM302.051 352.399C300.329 352.399 299.013 353.743 299.013 355.899C299.013 358.055 300.301 359.399 301.995 359.399C303.143 359.399 303.815 358.839 304.179 358.237V359.217H305.691V349.417H304.109V353.421C303.717 352.861 303.031 352.399 302.051 352.399ZM304.109 356.249C304.109 357.649 303.101 358.139 302.331 358.139C301.295 358.139 300.651 357.187 300.651 355.899C300.651 354.625 301.309 353.659 302.373 353.659C303.129 353.659 304.109 354.149 304.109 355.549V356.249Z" fill="#262E4F"/><rect x="459.583" y="280.752" width="125.754" height="24" rx="5" fill="#E0FBD9"/><path d="M467.648 292.852C467.648 296.002 469.496 297.934 472.212 297.934C474.942 297.934 476.79 296.002 476.79 292.852C476.79 289.702 474.942 287.77 472.212 287.77C469.496 287.77 467.648 289.702 467.648 292.852ZM469.356 292.852C469.356 290.71 470.294 289.128 472.212 289.128C474.144 289.128 475.082 290.71 475.082 292.852C475.082 294.994 474.144 296.576 472.212 296.576C470.294 296.576 469.356 294.994 469.356 292.852ZM482.768 291.088C482.502 290.976 482.194 290.934 481.928 290.934C481.018 290.934 480.332 291.354 479.968 292.194V291.116H478.47V297.752H480.066V294.406C480.066 292.978 480.906 292.306 481.676 292.306C481.956 292.306 482.25 292.39 482.446 292.558L482.768 291.088ZM486.214 290.934C484.492 290.934 483.176 292.278 483.176 294.434C483.176 296.59 484.464 297.934 486.158 297.934C487.306 297.934 487.978 297.374 488.342 296.772V297.752H489.854V287.952H488.272V291.956C487.88 291.396 487.194 290.934 486.214 290.934ZM488.272 294.784C488.272 296.184 487.264 296.674 486.494 296.674C485.458 296.674 484.814 295.722 484.814 294.434C484.814 293.16 485.472 292.194 486.536 292.194C487.292 292.194 488.272 292.684 488.272 294.084V294.784ZM496.153 295.75C495.887 296.324 495.495 296.744 494.683 296.744C493.507 296.744 493.073 295.792 493.031 294.798H497.763V294.35C497.763 292.544 496.769 290.934 494.641 290.934C492.695 290.934 491.407 292.334 491.407 294.42C491.407 296.534 492.667 297.934 494.697 297.934C496.083 297.934 497.007 297.29 497.525 296.296L496.153 295.75ZM494.627 292.096C495.509 292.096 496.125 292.698 496.167 293.748H493.059C493.143 292.782 493.689 292.096 494.627 292.096ZM503.522 291.088C503.256 290.976 502.948 290.934 502.682 290.934C501.772 290.934 501.086 291.354 500.722 292.194V291.116H499.224V297.752H500.82V294.406C500.82 292.978 501.66 292.306 502.43 292.306C502.71 292.306 503.004 292.39 503.2 292.558L503.522 291.088ZM507.406 292.852C507.406 295.96 509.142 297.934 511.97 297.934C513.972 297.934 515.246 296.94 515.904 295.344L514.336 294.77C513.93 295.89 513.174 296.562 511.956 296.562C510.108 296.562 509.114 295.036 509.114 292.852C509.114 290.64 510.122 289.142 511.956 289.142C513.244 289.142 513.972 289.884 514.35 290.976L515.932 290.416C515.302 288.736 514 287.77 511.998 287.77C509.156 287.77 507.406 289.744 507.406 292.852ZM520.141 290.934C518.097 290.934 516.823 292.348 516.823 294.434C516.823 296.52 518.097 297.934 520.141 297.934C522.199 297.934 523.473 296.52 523.473 294.434C523.473 292.348 522.199 290.934 520.141 290.934ZM520.141 296.716C518.993 296.716 518.447 295.694 518.447 294.434C518.447 293.174 518.993 292.152 520.141 292.152C521.317 292.152 521.849 293.174 521.849 294.434C521.849 295.694 521.317 296.716 520.141 296.716ZM525.023 297.752H526.619V294.238C526.619 292.922 527.305 292.236 528.033 292.236C528.607 292.236 529.153 292.6 529.153 293.552V297.752H530.749V294.238C530.749 292.922 531.435 292.236 532.177 292.236C532.751 292.236 533.283 292.6 533.283 293.552V297.752H534.879V293.16C534.879 291.676 533.871 290.934 532.667 290.934C531.673 290.934 530.917 291.536 530.539 292.124C530.189 291.368 529.447 290.934 528.523 290.934C527.557 290.934 526.927 291.438 526.549 292.124V291.116H525.023V297.752ZM540.504 297.934C542.212 297.934 543.5 296.59 543.5 294.434C543.5 292.278 542.212 290.934 540.504 290.934C539.454 290.934 538.726 291.452 538.348 292.096V291.116H536.822V300.552H538.418V296.926C538.796 297.444 539.426 297.934 540.504 297.934ZM538.404 294.112C538.404 292.726 539.384 292.194 540.168 292.194C541.218 292.194 541.876 293.16 541.876 294.434C541.876 295.722 541.218 296.674 540.168 296.674C539.384 296.674 538.404 296.142 538.404 294.756V294.112ZM545.052 297.752H546.648V287.952H545.052V297.752ZM552.946 295.75C552.68 296.324 552.288 296.744 551.476 296.744C550.3 296.744 549.866 295.792 549.824 294.798H554.556V294.35C554.556 292.544 553.562 290.934 551.434 290.934C549.488 290.934 548.2 292.334 548.2 294.42C548.2 296.534 549.46 297.934 551.49 297.934C552.876 297.934 553.8 297.29 554.318 296.296L552.946 295.75ZM551.42 292.096C552.302 292.096 552.918 292.698 552.96 293.748H549.852C549.936 292.782 550.482 292.096 551.42 292.096ZM559.142 296.408C558.932 296.52 558.722 296.632 558.442 296.632C558.064 296.632 557.812 296.422 557.812 295.848V292.292H559.31V291.116H557.812V288.498L556.23 289.226V291.116H555.11V292.292H556.23V296.044C556.23 297.262 556.986 297.934 558.218 297.934C558.736 297.934 559.24 297.822 559.576 297.654L559.142 296.408ZM565.045 295.75C564.779 296.324 564.387 296.744 563.575 296.744C562.399 296.744 561.965 295.792 561.923 294.798H566.655V294.35C566.655 292.544 565.661 290.934 563.533 290.934C561.587 290.934 560.299 292.334 560.299 294.42C560.299 296.534 561.559 297.934 563.589 297.934C564.975 297.934 565.899 297.29 566.417 296.296L565.045 295.75ZM563.519 292.096C564.401 292.096 565.017 292.698 565.059 293.748H561.951C562.035 292.782 562.581 292.096 563.519 292.096ZM570.761 290.934C569.039 290.934 567.723 292.278 567.723 294.434C567.723 296.59 569.011 297.934 570.705 297.934C571.853 297.934 572.525 297.374 572.889 296.772V297.752H574.401V287.952H572.819V291.956C572.427 291.396 571.741 290.934 570.761 290.934ZM572.819 294.784C572.819 296.184 571.811 296.674 571.041 296.674C570.005 296.674 569.361 295.722 569.361 294.434C569.361 293.16 570.019 292.194 571.083 292.194C571.839 292.194 572.819 292.684 572.819 294.084V294.784Z" fill="#262E4F"/><rect x="40.1172" y="280.753" width="126.389" height="24" rx="5" fill="#E8EAF0"/><path d="M48.1818 292.853C48.1818 296.003 50.0298 297.935 52.7458 297.935C55.4758 297.935 57.3238 296.003 57.3238 292.853C57.3238 289.703 55.4758 287.771 52.7458 287.771C50.0298 287.771 48.1818 289.703 48.1818 292.853ZM49.8898 292.853C49.8898 290.711 50.8278 289.129 52.7458 289.129C54.6778 289.129 55.6158 290.711 55.6158 292.853C55.6158 294.995 54.6778 296.577 52.7458 296.577C50.8278 296.577 49.8898 294.995 49.8898 292.853ZM63.3021 291.089C63.0361 290.977 62.7281 290.935 62.4621 290.935C61.5521 290.935 60.8661 291.355 60.5021 292.195V291.117H59.0041V297.753H60.6001V294.407C60.6001 292.979 61.4401 292.307 62.2101 292.307C62.4901 292.307 62.7841 292.391 62.9801 292.559L63.3021 291.089ZM66.7481 290.935C65.0261 290.935 63.7101 292.279 63.7101 294.435C63.7101 296.591 64.9981 297.935 66.6921 297.935C67.8401 297.935 68.5121 297.375 68.8761 296.773V297.753H70.3881V287.953H68.8061V291.957C68.4141 291.397 67.7281 290.935 66.7481 290.935ZM68.8061 294.785C68.8061 296.185 67.7981 296.675 67.0281 296.675C65.9921 296.675 65.3481 295.723 65.3481 294.435C65.3481 293.161 66.0061 292.195 67.0701 292.195C67.8261 292.195 68.8061 292.685 68.8061 294.085V294.785ZM76.6865 295.751C76.4205 296.325 76.0285 296.745 75.2165 296.745C74.0405 296.745 73.6065 295.793 73.5645 294.799H78.2965V294.351C78.2965 292.545 77.3025 290.935 75.1745 290.935C73.2285 290.935 71.9405 292.335 71.9405 294.421C71.9405 296.535 73.2005 297.935 75.2305 297.935C76.6165 297.935 77.5405 297.291 78.0585 296.297L76.6865 295.751ZM75.1605 292.097C76.0425 292.097 76.6585 292.699 76.7005 293.749H73.5925C73.6765 292.783 74.2225 292.097 75.1605 292.097ZM84.056 291.089C83.79 290.977 83.482 290.935 83.216 290.935C82.306 290.935 81.62 291.355 81.256 292.195V291.117H79.758V297.753H81.354V294.407C81.354 292.979 82.194 292.307 82.964 292.307C83.244 292.307 83.538 292.391 83.734 292.559L84.056 291.089ZM87.9396 292.853C87.9396 295.961 89.6756 297.935 92.5036 297.935C94.5056 297.935 95.7796 296.941 96.4376 295.345L94.8696 294.771C94.4636 295.891 93.7076 296.563 92.4896 296.563C90.6416 296.563 89.6476 295.037 89.6476 292.853C89.6476 290.641 90.6556 289.143 92.4896 289.143C93.7776 289.143 94.5056 289.885 94.8836 290.977L96.4656 290.417C95.8356 288.737 94.5336 287.771 92.5316 287.771C89.6896 287.771 87.9396 289.745 87.9396 292.853ZM100.675 290.935C98.6305 290.935 97.3565 292.349 97.3565 294.435C97.3565 296.521 98.6305 297.935 100.675 297.935C102.733 297.935 104.007 296.521 104.007 294.435C104.007 292.349 102.733 290.935 100.675 290.935ZM100.675 296.717C99.5265 296.717 98.9805 295.695 98.9805 294.435C98.9805 293.175 99.5265 292.153 100.675 292.153C101.851 292.153 102.383 293.175 102.383 294.435C102.383 295.695 101.851 296.717 100.675 296.717ZM105.557 297.753H107.153V294.239C107.153 292.923 107.839 292.237 108.567 292.237C109.141 292.237 109.687 292.601 109.687 293.553V297.753H111.283V294.239C111.283 292.923 111.969 292.237 112.711 292.237C113.285 292.237 113.817 292.601 113.817 293.553V297.753H115.413V293.161C115.413 291.677 114.405 290.935 113.201 290.935C112.207 290.935 111.451 291.537 111.073 292.125C110.723 291.369 109.981 290.935 109.057 290.935C108.091 290.935 107.461 291.439 107.083 292.125V291.117H105.557V297.753ZM121.038 297.935C122.746 297.935 124.034 296.591 124.034 294.435C124.034 292.279 122.746 290.935 121.038 290.935C119.988 290.935 119.26 291.453 118.882 292.097V291.117H117.356V300.553H118.952V296.927C119.33 297.445 119.96 297.935 121.038 297.935ZM118.938 294.113C118.938 292.727 119.918 292.195 120.702 292.195C121.752 292.195 122.41 293.161 122.41 294.435C122.41 295.723 121.752 296.675 120.702 296.675C119.918 296.675 118.938 296.143 118.938 294.757V294.113ZM125.586 297.753H127.182V287.953H125.586V297.753ZM133.48 295.751C133.214 296.325 132.822 296.745 132.01 296.745C130.834 296.745 130.4 295.793 130.358 294.799H135.09V294.351C135.09 292.545 134.096 290.935 131.968 290.935C130.022 290.935 128.734 292.335 128.734 294.421C128.734 296.535 129.994 297.935 132.024 297.935C133.41 297.935 134.334 297.291 134.852 296.297L133.48 295.751ZM131.954 292.097C132.836 292.097 133.452 292.699 133.494 293.749H130.386C130.47 292.783 131.016 292.097 131.954 292.097ZM139.676 296.409C139.466 296.521 139.256 296.633 138.976 296.633C138.598 296.633 138.346 296.423 138.346 295.849V292.293H139.844V291.117H138.346V288.499L136.764 289.227V291.117H135.644V292.293H136.764V296.045C136.764 297.263 137.52 297.935 138.752 297.935C139.27 297.935 139.774 297.823 140.11 297.655L139.676 296.409ZM145.579 295.751C145.313 296.325 144.921 296.745 144.109 296.745C142.933 296.745 142.499 295.793 142.457 294.799H147.189V294.351C147.189 292.545 146.195 290.935 144.067 290.935C142.121 290.935 140.833 292.335 140.833 294.421C140.833 296.535 142.093 297.935 144.123 297.935C145.509 297.935 146.433 297.291 146.951 296.297L145.579 295.751ZM144.053 292.097C144.935 292.097 145.551 292.699 145.593 293.749H142.485C142.569 292.783 143.115 292.097 144.053 292.097ZM151.295 290.935C149.573 290.935 148.257 292.279 148.257 294.435C148.257 296.591 149.545 297.935 151.239 297.935C152.387 297.935 153.059 297.375 153.423 296.773V297.753H154.935V287.953H153.353V291.957C152.961 291.397 152.275 290.935 151.295 290.935ZM153.353 294.785C153.353 296.185 152.345 296.675 151.575 296.675C150.539 296.675 149.895 295.723 149.895 294.435C149.895 293.161 150.553 292.195 151.617 292.195C152.373 292.195 153.353 292.685 153.353 294.085V294.785Z" fill="#131F52"/><rect x="249.252" y="280.973" width="66.3622" height="24" rx="5" fill="#E0FBD9"/><path d="M261.335 294.249C263.449 294.249 264.933 293.283 264.933 291.169C264.933 289.055 263.519 288.173 261.335 288.173H257.779V297.973H259.431V294.249H261.335ZM263.253 291.169C263.253 292.373 262.539 292.905 261.083 292.905H259.431V289.531H261.083C262.553 289.531 263.253 289.951 263.253 291.169ZM266.362 297.973H267.958V288.173H266.362V297.973ZM273.947 297.973H275.487C275.403 297.721 275.333 297.469 275.333 297.063V293.563C275.333 291.967 274.213 291.155 272.617 291.155C271.147 291.155 269.901 291.855 269.761 293.157L271.301 293.381C271.315 292.821 271.721 292.345 272.561 292.345C273.401 292.345 273.779 292.835 273.779 293.535V293.955C271.511 293.955 269.467 294.487 269.467 296.265C269.467 297.427 270.363 298.155 271.693 298.155C272.743 298.155 273.373 297.735 273.807 297.119C273.807 297.483 273.877 297.847 273.947 297.973ZM272.127 296.979C271.497 296.979 271.035 296.699 271.035 296.167C271.035 295.285 272.141 294.977 273.779 294.977V295.523C273.779 296.447 272.967 296.979 272.127 296.979ZM277.217 297.973H278.813V294.459C278.813 293.143 279.555 292.457 280.353 292.457C280.969 292.457 281.585 292.821 281.585 293.773V297.973H283.181V293.395C283.181 291.897 282.117 291.155 280.829 291.155C279.793 291.155 279.135 291.659 278.743 292.345V291.337H277.217V297.973ZM285.133 297.973H286.729V294.459C286.729 293.143 287.471 292.457 288.269 292.457C288.885 292.457 289.501 292.821 289.501 293.773V297.973H291.097V293.395C291.097 291.897 290.033 291.155 288.745 291.155C287.709 291.155 287.051 291.659 286.659 292.345V291.337H285.133V297.973ZM297.333 295.971C297.067 296.545 296.675 296.965 295.863 296.965C294.687 296.965 294.253 296.013 294.211 295.019H298.943V294.571C298.943 292.765 297.949 291.155 295.821 291.155C293.875 291.155 292.587 292.555 292.587 294.641C292.587 296.755 293.847 298.155 295.877 298.155C297.263 298.155 298.187 297.511 298.705 296.517L297.333 295.971ZM295.807 292.317C296.689 292.317 297.305 292.919 297.347 293.969H294.239C294.323 293.003 294.869 292.317 295.807 292.317ZM303.049 291.155C301.327 291.155 300.011 292.499 300.011 294.655C300.011 296.811 301.299 298.155 302.993 298.155C304.141 298.155 304.813 297.595 305.177 296.993V297.973H306.689V288.173H305.107V292.177C304.715 291.617 304.029 291.155 303.049 291.155ZM305.107 295.005C305.107 296.405 304.099 296.895 303.329 296.895C302.293 296.895 301.649 295.943 301.649 294.655C301.649 293.381 302.307 292.415 303.371 292.415C304.127 292.415 305.107 292.905 305.107 294.305V295.005Z" fill="#262E4F"/><rect x="40.1172" y="219.51" width="84.2246" height="24" rx="5" fill="#E8EAF0"/><path d="M48.1818 231.61C48.1818 234.718 49.9178 236.692 52.7458 236.692C54.7478 236.692 56.0218 235.698 56.6798 234.102L55.1118 233.528C54.7058 234.648 53.9498 235.32 52.7318 235.32C50.8838 235.32 49.8898 233.794 49.8898 231.61C49.8898 229.398 50.8978 227.9 52.7318 227.9C54.0198 227.9 54.7478 228.642 55.1258 229.734L56.7078 229.174C56.0778 227.494 54.7758 226.528 52.7738 226.528C49.9318 226.528 48.1818 228.502 48.1818 231.61ZM58.0607 236.51H59.6567V226.71H58.0607V236.51ZM61.6701 236.51H63.2661V229.874H61.6701V236.51ZM63.4481 227.564C63.4481 226.99 63.0421 226.598 62.4681 226.598C61.8941 226.598 61.4881 226.99 61.4881 227.564C61.4881 228.138 61.8941 228.53 62.4681 228.53C63.0421 228.53 63.4481 228.138 63.4481 227.564ZM64.8175 233.192C64.8175 235.306 66.0915 236.692 68.0935 236.692C69.5915 236.692 70.3755 235.908 70.9075 234.928L69.4375 234.368C69.1995 234.97 68.8495 235.432 68.0655 235.432C66.9175 235.432 66.4555 234.34 66.4555 233.192C66.4555 232.016 66.9455 230.938 68.0515 230.938C68.7935 230.938 69.2555 231.358 69.4375 232.072L70.8795 231.526C70.4455 230.49 69.6615 229.692 68.1215 229.692C66.0775 229.692 64.8175 231.106 64.8175 233.192ZM76.7195 236.51H78.5955L75.6135 232.31L78.2315 229.874H76.3695L73.7935 232.254V226.71H72.1975V236.51H73.7935V233.906L74.4655 233.29L76.7195 236.51ZM83.5772 234.508C83.3112 235.082 82.9192 235.502 82.1072 235.502C80.9312 235.502 80.4972 234.55 80.4552 233.556H85.1872V233.108C85.1872 231.302 84.1932 229.692 82.0652 229.692C80.1192 229.692 78.8312 231.092 78.8312 233.178C78.8312 235.292 80.0912 236.692 82.1212 236.692C83.5072 236.692 84.4312 236.048 84.9492 235.054L83.5772 234.508ZM82.0512 230.854C82.9332 230.854 83.5492 231.456 83.5912 232.506H80.4832C80.5672 231.54 81.1132 230.854 82.0512 230.854ZM89.293 229.692C87.571 229.692 86.255 231.036 86.255 233.192C86.255 235.348 87.543 236.692 89.237 236.692C90.385 236.692 91.057 236.132 91.421 235.53V236.51H92.933V226.71H91.351V230.714C90.959 230.154 90.273 229.692 89.293 229.692ZM91.351 233.542C91.351 234.942 90.343 235.432 89.573 235.432C88.537 235.432 87.893 234.48 87.893 233.192C87.893 231.918 88.551 230.952 89.615 230.952C90.371 230.952 91.351 231.442 91.351 232.842V233.542ZM102.558 226.71H100.878L97.322 236.51H98.946L99.814 234.046H103.51L104.378 236.51H106.1L102.558 226.71ZM101.662 228.642C101.886 229.356 103.062 232.744 103.062 232.744H100.262C100.262 232.744 101.424 229.356 101.634 228.642H101.662ZM109.828 229.692C108.106 229.692 106.79 231.036 106.79 233.192C106.79 235.348 108.078 236.692 109.772 236.692C110.92 236.692 111.592 236.132 111.956 235.53V236.51H113.468V226.71H111.886V230.714C111.494 230.154 110.808 229.692 109.828 229.692ZM111.886 233.542C111.886 234.942 110.878 235.432 110.108 235.432C109.072 235.432 108.428 234.48 108.428 233.192C108.428 231.918 109.086 230.952 110.15 230.952C110.906 230.952 111.886 231.442 111.886 232.842V233.542Z" fill="#131F52"/><rect x="249.252" y="219.73" width="95.0859" height="24" rx="5" fill="#D9F7FB"/><path d="M256.939 228.288H259.809V236.73H261.461V228.288H264.331V226.93H256.939V228.288ZM268.814 230.066C268.548 229.954 268.24 229.912 267.974 229.912C267.064 229.912 266.378 230.332 266.014 231.172V230.094H264.516V236.73H266.112V233.384C266.112 231.956 266.952 231.284 267.722 231.284C268.002 231.284 268.296 231.368 268.492 231.536L268.814 230.066ZM273.797 236.73H275.337C275.253 236.478 275.183 236.226 275.183 235.82V232.32C275.183 230.724 274.063 229.912 272.467 229.912C270.997 229.912 269.751 230.612 269.611 231.914L271.151 232.138C271.165 231.578 271.571 231.102 272.41 231.102C273.251 231.102 273.629 231.592 273.629 232.292V232.712C271.361 232.712 269.317 233.244 269.317 235.022C269.317 236.184 270.213 236.912 271.543 236.912C272.593 236.912 273.223 236.492 273.657 235.876C273.657 236.24 273.727 236.604 273.797 236.73ZM271.977 235.736C271.347 235.736 270.885 235.456 270.885 234.924C270.885 234.042 271.991 233.734 273.629 233.734V234.28C273.629 235.204 272.817 235.736 271.977 235.736ZM277.067 236.73H278.663V233.216C278.663 231.9 279.405 231.214 280.203 231.214C280.819 231.214 281.435 231.578 281.435 232.53V236.73H283.031V232.152C283.031 230.654 281.967 229.912 280.679 229.912C279.643 229.912 278.985 230.416 278.593 231.102V230.094H277.067V236.73ZM286.187 231.858C286.187 231.34 286.677 231.06 287.293 231.06C288.035 231.06 288.455 231.424 288.539 232.054L290.079 231.732C289.897 230.598 288.777 229.912 287.321 229.912C285.893 229.912 284.591 230.57 284.591 231.97C284.591 233.258 285.599 233.762 287.111 233.986C288.217 234.154 288.581 234.364 288.581 234.882C288.581 235.47 288.077 235.75 287.335 235.75C286.537 235.75 286.019 235.428 285.949 234.686L284.409 234.91C284.563 236.212 285.683 236.912 287.321 236.912C289.043 236.912 290.177 236.1 290.177 234.77C290.177 233.37 288.945 232.936 287.559 232.74C286.747 232.614 286.187 232.446 286.187 231.858ZM290.898 231.27H292.018V236.73H293.6V231.27H295.098V230.094H293.6V229.212C293.6 228.4 293.978 228.064 294.538 228.064C294.958 228.064 295.294 228.26 295.49 228.442L296.148 227.238C295.784 226.944 295.07 226.748 294.384 226.748C293.25 226.748 292.018 227.364 292.018 229.226V230.094H290.898V231.27ZM299.077 229.912C297.033 229.912 295.759 231.326 295.759 233.412C295.759 235.498 297.033 236.912 299.077 236.912C301.135 236.912 302.409 235.498 302.409 233.412C302.409 231.326 301.135 229.912 299.077 229.912ZM299.077 235.694C297.929 235.694 297.383 234.672 297.383 233.412C297.383 232.152 297.929 231.13 299.077 231.13C300.253 231.13 300.785 232.152 300.785 233.412C300.785 234.672 300.253 235.694 299.077 235.694ZM308.257 230.066C307.991 229.954 307.683 229.912 307.417 229.912C306.507 229.912 305.821 230.332 305.457 231.172V230.094H303.959V236.73H305.555V233.384C305.555 231.956 306.395 231.284 307.165 231.284C307.445 231.284 307.739 231.368 307.935 231.536L308.257 230.066ZM309.332 236.73H310.928V233.216C310.928 231.9 311.614 231.214 312.342 231.214C312.916 231.214 313.462 231.578 313.462 232.53V236.73H315.058V233.216C315.058 231.9 315.744 231.214 316.486 231.214C317.06 231.214 317.592 231.578 317.592 232.53V236.73H319.188V232.138C319.188 230.654 318.18 229.912 316.976 229.912C315.982 229.912 315.226 230.514 314.848 231.102C314.498 230.346 313.756 229.912 312.832 229.912C311.866 229.912 311.236 230.416 310.858 231.102V230.094H309.332V236.73ZM325.415 234.728C325.149 235.302 324.757 235.722 323.945 235.722C322.769 235.722 322.335 234.77 322.293 233.776H327.025V233.328C327.025 231.522 326.031 229.912 323.903 229.912C321.957 229.912 320.669 231.312 320.669 233.398C320.669 235.512 321.929 236.912 323.959 236.912C325.345 236.912 326.269 236.268 326.787 235.274L325.415 234.728ZM323.889 231.074C324.771 231.074 325.387 231.676 325.429 232.726H322.321C322.405 231.76 322.951 231.074 323.889 231.074ZM331.131 229.912C329.409 229.912 328.093 231.256 328.093 233.412C328.093 235.568 329.381 236.912 331.075 236.912C332.223 236.912 332.895 236.352 333.259 235.75V236.73H334.771V226.93H333.189V230.934C332.797 230.374 332.111 229.912 331.131 229.912ZM333.189 233.762C333.189 235.162 332.181 235.652 331.411 235.652C330.375 235.652 329.731 234.7 329.731 233.412C329.731 232.138 330.389 231.172 331.453 231.172C332.209 231.172 333.189 231.662 333.189 233.062V233.762Z" fill="#262E4F"/><rect x="459.584" y="219.73" width="83.7539" height="24" rx="5" fill="#E0FBD9"/><path d="M472.451 226.93H470.771L467.215 236.73H468.839L469.707 234.266H473.403L474.271 236.73H475.993L472.451 226.93ZM471.555 228.862C471.779 229.576 472.955 232.964 472.955 232.964H470.155C470.155 232.964 471.317 229.576 471.527 228.862H471.555ZM479.721 229.912C477.999 229.912 476.683 231.256 476.683 233.412C476.683 235.568 477.971 236.912 479.665 236.912C480.813 236.912 481.485 236.352 481.849 235.75V236.73H483.361V226.93H481.779V230.934C481.387 230.374 480.701 229.912 479.721 229.912ZM481.779 233.762C481.779 235.162 480.771 235.652 480.001 235.652C478.965 235.652 478.321 234.7 478.321 233.412C478.321 232.138 478.979 231.172 480.043 231.172C480.799 231.172 481.779 231.662 481.779 233.062V233.762ZM488.184 231.83C488.184 234.938 489.92 236.912 492.748 236.912C494.75 236.912 496.024 235.918 496.682 234.322L495.114 233.748C494.708 234.868 493.952 235.54 492.734 235.54C490.886 235.54 489.892 234.014 489.892 231.83C489.892 229.618 490.9 228.12 492.734 228.12C494.022 228.12 494.75 228.862 495.128 229.954L496.71 229.394C496.08 227.714 494.778 226.748 492.776 226.748C489.934 226.748 488.184 228.722 488.184 231.83ZM498.063 236.73H499.659V226.93H498.063V236.73ZM501.672 236.73H503.268V230.094H501.672V236.73ZM503.45 227.784C503.45 227.21 503.044 226.818 502.47 226.818C501.896 226.818 501.49 227.21 501.49 227.784C501.49 228.358 501.896 228.75 502.47 228.75C503.044 228.75 503.45 228.358 503.45 227.784ZM504.819 233.412C504.819 235.526 506.093 236.912 508.095 236.912C509.593 236.912 510.377 236.128 510.909 235.148L509.439 234.588C509.201 235.19 508.851 235.652 508.067 235.652C506.919 235.652 506.457 234.56 506.457 233.412C506.457 232.236 506.947 231.158 508.053 231.158C508.795 231.158 509.257 231.578 509.439 232.292L510.881 231.746C510.447 230.71 509.663 229.912 508.123 229.912C506.079 229.912 504.819 231.326 504.819 233.412ZM516.721 236.73H518.597L515.615 232.53L518.233 230.094H516.371L513.795 232.474V226.93H512.199V236.73H513.795V234.126L514.467 233.51L516.721 236.73ZM523.579 234.728C523.313 235.302 522.921 235.722 522.109 235.722C520.933 235.722 520.499 234.77 520.457 233.776H525.189V233.328C525.189 231.522 524.195 229.912 522.067 229.912C520.121 229.912 518.833 231.312 518.833 233.398C518.833 235.512 520.093 236.912 522.123 236.912C523.509 236.912 524.433 236.268 524.951 235.274L523.579 234.728ZM522.053 231.074C522.935 231.074 523.551 231.676 523.593 232.726H520.485C520.569 231.76 521.115 231.074 522.053 231.074ZM529.295 229.912C527.573 229.912 526.257 231.256 526.257 233.412C526.257 235.568 527.545 236.912 529.239 236.912C530.387 236.912 531.059 236.352 531.423 235.75V236.73H532.935V226.93H531.353V230.934C530.961 230.374 530.275 229.912 529.295 229.912ZM531.353 233.762C531.353 235.162 530.345 235.652 529.575 235.652C528.539 235.652 527.895 234.7 527.895 233.412C527.895 232.138 528.553 231.172 529.617 231.172C530.373 231.172 531.353 231.662 531.353 233.062V233.762Z" fill="#262E4F"/><rect x="40.1133" y="159.51" width="132.725" height="24" rx="5" fill="#E8EAF0"/><path d="M52.2519 165.338H51.2999V166.752C49.3259 166.878 48.3739 167.984 48.3739 169.412C48.3739 170.896 49.1859 171.722 51.2999 172.184V175.446C49.7879 175.264 49.5499 174.088 49.5219 173.696L48.1639 173.92C48.2199 175.362 49.3119 176.51 51.2999 176.65V177.98H52.2519V176.636C54.2399 176.482 55.2899 175.334 55.2899 173.794C55.2899 172.1 54.1699 171.386 52.2519 170.966V167.97C53.3019 168.152 53.7079 168.852 53.8059 169.51L55.2059 169.16C54.9539 167.83 53.9319 166.934 52.2519 166.766V165.338ZM49.8299 169.328C49.8299 168.782 50.1099 168.068 51.2999 167.942V170.77C50.2359 170.504 49.8299 170.042 49.8299 169.328ZM53.8199 173.836C53.8199 174.69 53.2179 175.292 52.2519 175.446V172.38C53.3719 172.66 53.8199 173.038 53.8199 173.836ZM59.8328 169.692C57.7888 169.692 56.5148 171.106 56.5148 173.192C56.5148 175.278 57.7888 176.692 59.8328 176.692C61.8908 176.692 63.1647 175.278 63.1647 173.192C63.1647 171.106 61.8908 169.692 59.8328 169.692ZM59.8328 175.474C58.6848 175.474 58.1388 174.452 58.1388 173.192C58.1388 171.932 58.6848 170.91 59.8328 170.91C61.0088 170.91 61.5408 171.932 61.5408 173.192C61.5408 174.452 61.0088 175.474 59.8328 175.474ZM69.013 169.846C68.747 169.734 68.439 169.692 68.173 169.692C67.263 169.692 66.577 170.112 66.213 170.952V169.874H64.715V176.51H66.311V173.164C66.311 171.736 67.151 171.064 67.921 171.064C68.201 171.064 68.495 171.148 68.691 171.316L69.013 169.846ZM72.459 169.692C70.737 169.692 69.421 171.036 69.421 173.192C69.421 175.348 70.709 176.692 72.403 176.692C73.551 176.692 74.223 176.132 74.587 175.53V176.51H76.099V166.71H74.517V170.714C74.125 170.154 73.439 169.692 72.459 169.692ZM74.517 173.542C74.517 174.942 73.509 175.432 72.739 175.432C71.703 175.432 71.059 174.48 71.059 173.192C71.059 171.918 71.717 170.952 72.781 170.952C73.537 170.952 74.517 171.442 74.517 172.842V173.542ZM82.3975 174.508C82.1315 175.082 81.7395 175.502 80.9275 175.502C79.7515 175.502 79.3175 174.55 79.2755 173.556H84.0075V173.108C84.0075 171.302 83.0135 169.692 80.8855 169.692C78.9395 169.692 77.6515 171.092 77.6515 173.178C77.6515 175.292 78.9115 176.692 80.9415 176.692C82.3275 176.692 83.2515 176.048 83.7695 175.054L82.3975 174.508ZM80.8715 170.854C81.7535 170.854 82.3695 171.456 82.4115 172.506H79.3035C79.3875 171.54 79.9335 170.854 80.8715 170.854ZM89.7669 169.846C89.5009 169.734 89.1929 169.692 88.9269 169.692C88.0169 169.692 87.3309 170.112 86.9669 170.952V169.874H85.4689V176.51H87.0649V173.164C87.0649 171.736 87.9049 171.064 88.6749 171.064C88.9549 171.064 89.2489 171.148 89.4449 171.316L89.7669 169.846ZM89.96 178.344H96.484V177.294H89.96V178.344ZM97.1612 173.192C97.1612 175.306 98.4352 176.692 100.437 176.692C101.935 176.692 102.719 175.908 103.251 174.928L101.781 174.368C101.543 174.97 101.193 175.432 100.409 175.432C99.2612 175.432 98.7992 174.34 98.7992 173.192C98.7992 172.016 99.2892 170.938 100.395 170.938C101.137 170.938 101.599 171.358 101.781 172.072L103.223 171.526C102.789 170.49 102.005 169.692 100.465 169.692C98.4212 169.692 97.1612 171.106 97.1612 173.192ZM107.397 169.692C105.353 169.692 104.079 171.106 104.079 173.192C104.079 175.278 105.353 176.692 107.397 176.692C109.455 176.692 110.729 175.278 110.729 173.192C110.729 171.106 109.455 169.692 107.397 169.692ZM107.397 175.474C106.249 175.474 105.703 174.452 105.703 173.192C105.703 171.932 106.249 170.91 107.397 170.91C108.573 170.91 109.105 171.932 109.105 173.192C109.105 174.452 108.573 175.474 107.397 175.474ZM112.279 176.51H113.875V172.996C113.875 171.68 114.561 170.994 115.289 170.994C115.863 170.994 116.409 171.358 116.409 172.31V176.51H118.005V172.996C118.005 171.68 118.691 170.994 119.433 170.994C120.007 170.994 120.539 171.358 120.539 172.31V176.51H122.135V171.918C122.135 170.434 121.127 169.692 119.923 169.692C118.929 169.692 118.173 170.294 117.795 170.882C117.445 170.126 116.703 169.692 115.779 169.692C114.813 169.692 114.183 170.196 113.805 170.882V169.874H112.279V176.51ZM127.76 176.692C129.468 176.692 130.756 175.348 130.756 173.192C130.756 171.036 129.468 169.692 127.76 169.692C126.71 169.692 125.982 170.21 125.604 170.854V169.874H124.078V179.31H125.674V175.684C126.052 176.202 126.682 176.692 127.76 176.692ZM125.66 172.87C125.66 171.484 126.64 170.952 127.424 170.952C128.474 170.952 129.132 171.918 129.132 173.192C129.132 174.48 128.474 175.432 127.424 175.432C126.64 175.432 125.66 174.9 125.66 173.514V172.87ZM132.309 176.51H133.905V166.71H132.309V176.51ZM140.202 174.508C139.936 175.082 139.544 175.502 138.732 175.502C137.556 175.502 137.122 174.55 137.08 173.556H141.812V173.108C141.812 171.302 140.818 169.692 138.69 169.692C136.744 169.692 135.456 171.092 135.456 173.178C135.456 175.292 136.716 176.692 138.746 176.692C140.132 176.692 141.056 176.048 141.574 175.054L140.202 174.508ZM138.676 170.854C139.558 170.854 140.174 171.456 140.216 172.506H137.108C137.192 171.54 137.738 170.854 138.676 170.854ZM146.399 175.166C146.189 175.278 145.979 175.39 145.699 175.39C145.321 175.39 145.069 175.18 145.069 174.606V171.05H146.567V169.874H145.069V167.256L143.487 167.984V169.874H142.367V171.05H143.487V174.802C143.487 176.02 144.243 176.692 145.475 176.692C145.993 176.692 146.497 176.58 146.833 176.412L146.399 175.166ZM152.302 174.508C152.036 175.082 151.644 175.502 150.832 175.502C149.656 175.502 149.222 174.55 149.18 173.556H153.912V173.108C153.912 171.302 152.918 169.692 150.79 169.692C148.844 169.692 147.556 171.092 147.556 173.178C147.556 175.292 148.816 176.692 150.846 176.692C152.232 176.692 153.156 176.048 153.674 175.054L152.302 174.508ZM150.776 170.854C151.658 170.854 152.274 171.456 152.316 172.506H149.208C149.292 171.54 149.838 170.854 150.776 170.854ZM158.018 169.692C156.296 169.692 154.98 171.036 154.98 173.192C154.98 175.348 156.268 176.692 157.962 176.692C159.11 176.692 159.782 176.132 160.146 175.53V176.51H161.658V166.71H160.076V170.714C159.684 170.154 158.998 169.692 158.018 169.692ZM160.076 173.542C160.076 174.942 159.068 175.432 158.298 175.432C157.262 175.432 156.618 174.48 156.618 173.192C156.618 171.918 157.276 170.952 158.34 170.952C159.096 170.952 160.076 171.442 160.076 172.842V173.542Z" fill="#131F52"/><rect x="249.252" y="159.51" width="95.0859" height="24" rx="5" fill="#D9F7FB"/><path d="M256.939 168.068H259.809V176.51H261.461V168.068H264.331V166.71H256.939V168.068ZM268.814 169.846C268.548 169.734 268.24 169.692 267.974 169.692C267.064 169.692 266.378 170.112 266.014 170.952V169.874H264.516V176.51H266.112V173.164C266.112 171.736 266.952 171.064 267.722 171.064C268.002 171.064 268.296 171.148 268.492 171.316L268.814 169.846ZM273.797 176.51H275.337C275.253 176.258 275.183 176.006 275.183 175.6V172.1C275.183 170.504 274.063 169.692 272.467 169.692C270.997 169.692 269.751 170.392 269.611 171.694L271.151 171.918C271.165 171.358 271.571 170.882 272.41 170.882C273.251 170.882 273.629 171.372 273.629 172.072V172.492C271.361 172.492 269.317 173.024 269.317 174.802C269.317 175.964 270.213 176.692 271.543 176.692C272.593 176.692 273.223 176.272 273.657 175.656C273.657 176.02 273.727 176.384 273.797 176.51ZM271.977 175.516C271.347 175.516 270.885 175.236 270.885 174.704C270.885 173.822 271.991 173.514 273.629 173.514V174.06C273.629 174.984 272.817 175.516 271.977 175.516ZM277.067 176.51H278.663V172.996C278.663 171.68 279.405 170.994 280.203 170.994C280.819 170.994 281.435 171.358 281.435 172.31V176.51H283.031V171.932C283.031 170.434 281.967 169.692 280.679 169.692C279.643 169.692 278.985 170.196 278.593 170.882V169.874H277.067V176.51ZM286.187 171.638C286.187 171.12 286.677 170.84 287.293 170.84C288.035 170.84 288.455 171.204 288.539 171.834L290.079 171.512C289.897 170.378 288.777 169.692 287.321 169.692C285.893 169.692 284.591 170.35 284.591 171.75C284.591 173.038 285.599 173.542 287.111 173.766C288.217 173.934 288.581 174.144 288.581 174.662C288.581 175.25 288.077 175.53 287.335 175.53C286.537 175.53 286.019 175.208 285.949 174.466L284.409 174.69C284.563 175.992 285.683 176.692 287.321 176.692C289.043 176.692 290.177 175.88 290.177 174.55C290.177 173.15 288.945 172.716 287.559 172.52C286.747 172.394 286.187 172.226 286.187 171.638ZM290.898 171.05H292.018V176.51H293.6V171.05H295.098V169.874H293.6V168.992C293.6 168.18 293.978 167.844 294.538 167.844C294.958 167.844 295.294 168.04 295.49 168.222L296.148 167.018C295.784 166.724 295.07 166.528 294.384 166.528C293.25 166.528 292.018 167.144 292.018 169.006V169.874H290.898V171.05ZM299.077 169.692C297.033 169.692 295.759 171.106 295.759 173.192C295.759 175.278 297.033 176.692 299.077 176.692C301.135 176.692 302.409 175.278 302.409 173.192C302.409 171.106 301.135 169.692 299.077 169.692ZM299.077 175.474C297.929 175.474 297.383 174.452 297.383 173.192C297.383 171.932 297.929 170.91 299.077 170.91C300.253 170.91 300.785 171.932 300.785 173.192C300.785 174.452 300.253 175.474 299.077 175.474ZM308.257 169.846C307.991 169.734 307.683 169.692 307.417 169.692C306.507 169.692 305.821 170.112 305.457 170.952V169.874H303.959V176.51H305.555V173.164C305.555 171.736 306.395 171.064 307.165 171.064C307.445 171.064 307.739 171.148 307.935 171.316L308.257 169.846ZM309.332 176.51H310.928V172.996C310.928 171.68 311.614 170.994 312.342 170.994C312.916 170.994 313.462 171.358 313.462 172.31V176.51H315.058V172.996C315.058 171.68 315.744 170.994 316.486 170.994C317.06 170.994 317.592 171.358 317.592 172.31V176.51H319.188V171.918C319.188 170.434 318.18 169.692 316.976 169.692C315.982 169.692 315.226 170.294 314.848 170.882C314.498 170.126 313.756 169.692 312.832 169.692C311.866 169.692 311.236 170.196 310.858 170.882V169.874H309.332V176.51ZM325.415 174.508C325.149 175.082 324.757 175.502 323.945 175.502C322.769 175.502 322.335 174.55 322.293 173.556H327.025V173.108C327.025 171.302 326.031 169.692 323.903 169.692C321.957 169.692 320.669 171.092 320.669 173.178C320.669 175.292 321.929 176.692 323.959 176.692C325.345 176.692 326.269 176.048 326.787 175.054L325.415 174.508ZM323.889 170.854C324.771 170.854 325.387 171.456 325.429 172.506H322.321C322.405 171.54 322.951 170.854 323.889 170.854ZM331.131 169.692C329.409 169.692 328.093 171.036 328.093 173.192C328.093 175.348 329.381 176.692 331.075 176.692C332.223 176.692 332.895 176.132 333.259 175.53V176.51H334.771V166.71H333.189V170.714C332.797 170.154 332.111 169.692 331.131 169.692ZM333.189 173.542C333.189 174.942 332.181 175.432 331.411 175.432C330.375 175.432 329.731 174.48 329.731 173.192C329.731 171.918 330.389 170.952 331.453 170.952C332.209 170.952 333.189 171.442 333.189 172.842V173.542Z" fill="#262E4F"/><rect x="459.584" y="159.51" width="125.754" height="24" rx="5" fill="#E0FBD9"/><path d="M467.649 171.61C467.649 174.76 469.497 176.692 472.213 176.692C474.943 176.692 476.791 174.76 476.791 171.61C476.791 168.46 474.943 166.528 472.213 166.528C469.497 166.528 467.649 168.46 467.649 171.61ZM469.357 171.61C469.357 169.468 470.295 167.886 472.213 167.886C474.145 167.886 475.083 169.468 475.083 171.61C475.083 173.752 474.145 175.334 472.213 175.334C470.295 175.334 469.357 173.752 469.357 171.61ZM482.769 169.846C482.503 169.734 482.195 169.692 481.929 169.692C481.019 169.692 480.333 170.112 479.969 170.952V169.874H478.471V176.51H480.067V173.164C480.067 171.736 480.907 171.064 481.677 171.064C481.957 171.064 482.251 171.148 482.447 171.316L482.769 169.846ZM486.215 169.692C484.493 169.692 483.177 171.036 483.177 173.192C483.177 175.348 484.465 176.692 486.159 176.692C487.307 176.692 487.979 176.132 488.343 175.53V176.51H489.855V166.71H488.273V170.714C487.881 170.154 487.195 169.692 486.215 169.692ZM488.273 173.542C488.273 174.942 487.265 175.432 486.495 175.432C485.459 175.432 484.815 174.48 484.815 173.192C484.815 171.918 485.473 170.952 486.537 170.952C487.293 170.952 488.273 171.442 488.273 172.842V173.542ZM496.153 174.508C495.887 175.082 495.495 175.502 494.683 175.502C493.507 175.502 493.073 174.55 493.031 173.556H497.763V173.108C497.763 171.302 496.769 169.692 494.641 169.692C492.695 169.692 491.407 171.092 491.407 173.178C491.407 175.292 492.667 176.692 494.697 176.692C496.083 176.692 497.007 176.048 497.525 175.054L496.153 174.508ZM494.627 170.854C495.509 170.854 496.125 171.456 496.167 172.506H493.059C493.143 171.54 493.689 170.854 494.627 170.854ZM503.523 169.846C503.257 169.734 502.949 169.692 502.683 169.692C501.773 169.692 501.087 170.112 500.723 170.952V169.874H499.225V176.51H500.821V173.164C500.821 171.736 501.661 171.064 502.431 171.064C502.711 171.064 503.005 171.148 503.201 171.316L503.523 169.846ZM507.406 171.61C507.406 174.718 509.142 176.692 511.97 176.692C513.972 176.692 515.246 175.698 515.904 174.102L514.336 173.528C513.93 174.648 513.174 175.32 511.956 175.32C510.108 175.32 509.114 173.794 509.114 171.61C509.114 169.398 510.122 167.9 511.956 167.9C513.244 167.9 513.972 168.642 514.35 169.734L515.932 169.174C515.302 167.494 514 166.528 511.998 166.528C509.156 166.528 507.406 168.502 507.406 171.61ZM520.141 169.692C518.097 169.692 516.823 171.106 516.823 173.192C516.823 175.278 518.097 176.692 520.141 176.692C522.199 176.692 523.473 175.278 523.473 173.192C523.473 171.106 522.199 169.692 520.141 169.692ZM520.141 175.474C518.993 175.474 518.447 174.452 518.447 173.192C518.447 171.932 518.993 170.91 520.141 170.91C521.317 170.91 521.849 171.932 521.849 173.192C521.849 174.452 521.317 175.474 520.141 175.474ZM525.024 176.51H526.62V172.996C526.62 171.68 527.306 170.994 528.034 170.994C528.608 170.994 529.154 171.358 529.154 172.31V176.51H530.75V172.996C530.75 171.68 531.436 170.994 532.178 170.994C532.752 170.994 533.284 171.358 533.284 172.31V176.51H534.88V171.918C534.88 170.434 533.872 169.692 532.668 169.692C531.674 169.692 530.918 170.294 530.54 170.882C530.19 170.126 529.448 169.692 528.524 169.692C527.558 169.692 526.928 170.196 526.55 170.882V169.874H525.024V176.51ZM540.504 176.692C542.212 176.692 543.5 175.348 543.5 173.192C543.5 171.036 542.212 169.692 540.504 169.692C539.454 169.692 538.726 170.21 538.348 170.854V169.874H536.822V179.31H538.418V175.684C538.796 176.202 539.426 176.692 540.504 176.692ZM538.404 172.87C538.404 171.484 539.384 170.952 540.168 170.952C541.218 170.952 541.876 171.918 541.876 173.192C541.876 174.48 541.218 175.432 540.168 175.432C539.384 175.432 538.404 174.9 538.404 173.514V172.87ZM545.053 176.51H546.649V166.71H545.053V176.51ZM552.946 174.508C552.68 175.082 552.288 175.502 551.476 175.502C550.3 175.502 549.866 174.55 549.824 173.556H554.556V173.108C554.556 171.302 553.562 169.692 551.434 169.692C549.488 169.692 548.2 171.092 548.2 173.178C548.2 175.292 549.46 176.692 551.49 176.692C552.876 176.692 553.8 176.048 554.318 175.054L552.946 174.508ZM551.42 170.854C552.302 170.854 552.918 171.456 552.96 172.506H549.852C549.936 171.54 550.482 170.854 551.42 170.854ZM559.143 175.166C558.933 175.278 558.723 175.39 558.443 175.39C558.065 175.39 557.813 175.18 557.813 174.606V171.05H559.311V169.874H557.813V167.256L556.231 167.984V169.874H555.111V171.05H556.231V174.802C556.231 176.02 556.987 176.692 558.219 176.692C558.737 176.692 559.241 176.58 559.577 176.412L559.143 175.166ZM565.046 174.508C564.78 175.082 564.388 175.502 563.576 175.502C562.4 175.502 561.966 174.55 561.924 173.556H566.656V173.108C566.656 171.302 565.662 169.692 563.534 169.692C561.588 169.692 560.3 171.092 560.3 173.178C560.3 175.292 561.56 176.692 563.59 176.692C564.976 176.692 565.9 176.048 566.418 175.054L565.046 174.508ZM563.52 170.854C564.402 170.854 565.018 171.456 565.06 172.506H561.952C562.036 171.54 562.582 170.854 563.52 170.854ZM570.762 169.692C569.04 169.692 567.724 171.036 567.724 173.192C567.724 175.348 569.012 176.692 570.706 176.692C571.854 176.692 572.526 176.132 572.89 175.53V176.51H574.402V166.71H572.82V170.714C572.428 170.154 571.742 169.692 570.762 169.692ZM572.82 173.542C572.82 174.942 571.812 175.432 571.042 175.432C570.006 175.432 569.362 174.48 569.362 173.192C569.362 171.918 570.02 170.952 571.084 170.952C571.84 170.952 572.82 171.442 572.82 172.842V173.542Z" fill="#262E4F"/><g filter="url(#filter0_d)"><rect x="20" y="105.14" width="590" height="36.102" fill="white"/></g><line x1="229.834" y1="382.691" x2="229.834" y2="105.14" stroke="#F0F0F1"/><line x1="229.834" y1="382.691" x2="229.834" y2="105.14" stroke="#F0F0F1"/><line x1="440.012" y1="382.691" x2="440.012" y2="105.14" stroke="#F0F0F1"/><line x1="440.012" y1="382.691" x2="440.012" y2="105.14" stroke="#F0F0F1"/><line x1="20" y1="201.225" x2="610" y2="201.225" stroke="#F0F0F1"/><line x1="20" y1="140.742" x2="610" y2="140.742" stroke="#F0F0F1"/><line x1="20" y1="322.19" x2="610" y2="322.19" stroke="#F0F0F1"/><line x1="20" y1="382.19" x2="610" y2="382.19" stroke="#F0F0F1"/><line x1="20" y1="261.716" x2="610" y2="261.716" stroke="#F0F0F1"/><rect width="590" height="0.756035" transform="matrix(1 0 0 -1 20 105.14)" fill="#EEEEF1"/><path d="M40.9812 127.453H42.7812V119.053H40.9812V127.453ZM44.5085 127.453H46.2125V121.933H46.2485C47.1365 123.361 49.6565 127.453 49.6565 127.453H51.5285V119.053H49.8245V124.573H49.7885C48.9605 123.229 46.3805 119.053 46.3805 119.053H44.5085V127.453ZM56.4427 124.501C58.3867 124.501 59.7667 123.637 59.7667 121.729C59.7667 119.857 58.4467 119.053 56.4427 119.053H53.2507V127.453H55.0387V124.501H56.4427ZM57.9307 121.729C57.9307 122.641 57.3787 123.013 56.2627 123.013H55.0387V120.541H56.2627C57.3787 120.541 57.9307 120.817 57.9307 121.729ZM64.2737 127.621C66.6137 127.621 67.6337 126.409 67.6337 124.357V119.053H65.8337V124.369C65.8337 125.389 65.3297 126.133 64.2737 126.133C63.2177 126.133 62.7137 125.389 62.7137 124.369V119.053H60.9137V124.357C60.9137 126.409 61.9337 127.621 64.2737 127.621ZM68.6811 120.553H71.1051V127.453H72.9171V120.553H75.3411V119.053H68.6811V120.553Z" fill="#131F52" fill-opacity="0.5"/><path d="M253.545 121.951C253.545 121.387 253.989 121.027 254.889 121.027C255.777 121.027 256.317 121.507 256.449 122.275L258.273 121.879C257.985 120.403 256.677 119.575 254.937 119.575C253.077 119.575 251.721 120.415 251.721 122.095C251.721 123.787 253.053 124.363 254.805 124.639C256.113 124.843 256.569 125.143 256.569 125.767C256.569 126.535 255.873 126.859 255.021 126.859C253.965 126.859 253.425 126.271 253.341 125.467L251.541 125.755C251.613 127.111 252.897 128.311 255.021 128.311C256.977 128.311 258.405 127.291 258.405 125.671C258.405 124.159 257.493 123.463 255.501 123.127C254.133 122.899 253.545 122.671 253.545 121.951ZM258.824 121.243H261.248V128.143H263.06V121.243H265.484V119.743H258.824V121.243ZM269.884 119.743H267.952L264.928 128.143H266.692L267.364 126.199H270.376L271.048 128.143H272.908L269.884 119.743ZM268.876 121.711C269.02 122.251 269.884 124.771 269.884 124.771H267.856C267.856 124.771 268.708 122.251 268.852 121.711H268.876ZM272.359 121.243H274.783V128.143H276.595V121.243H279.019V119.743H272.359V121.243ZM283.42 128.311C285.76 128.311 286.78 127.099 286.78 125.047V119.743H284.98V125.059C284.98 126.079 284.476 126.823 283.42 126.823C282.364 126.823 281.86 126.079 281.86 125.059V119.743H280.06V125.047C280.06 127.099 281.08 128.311 283.42 128.311ZM290.025 121.951C290.025 121.387 290.469 121.027 291.369 121.027C292.257 121.027 292.797 121.507 292.929 122.275L294.753 121.879C294.465 120.403 293.157 119.575 291.417 119.575C289.557 119.575 288.201 120.415 288.201 122.095C288.201 123.787 289.533 124.363 291.285 124.639C292.593 124.843 293.049 125.143 293.049 125.767C293.049 126.535 292.353 126.859 291.501 126.859C290.445 126.859 289.905 126.271 289.821 125.467L288.021 125.755C288.093 127.111 289.377 128.311 291.501 128.311C293.457 128.311 294.885 127.291 294.885 125.671C294.885 124.159 293.973 123.463 291.981 123.127C290.613 122.899 290.025 122.671 290.025 121.951Z" fill="#131F52" fill-opacity="0.5"/><path d="M460.101 123.943C460.101 126.667 461.733 128.311 464.193 128.311C466.653 128.311 468.285 126.667 468.285 123.943C468.285 121.219 466.653 119.575 464.193 119.575C461.733 119.575 460.101 121.219 460.101 123.943ZM461.961 123.943C461.961 122.239 462.681 121.063 464.193 121.063C465.705 121.063 466.425 122.239 466.425 123.943C466.425 125.647 465.705 126.823 464.193 126.823C462.681 126.823 461.961 125.647 461.961 123.943ZM472.972 128.311C475.312 128.311 476.332 127.099 476.332 125.047V119.743H474.532V125.059C474.532 126.079 474.028 126.823 472.972 126.823C471.916 126.823 471.412 126.079 471.412 125.059V119.743H469.612V125.047C469.612 127.099 470.632 128.311 472.972 128.311ZM477.379 121.243H479.803V128.143H481.615V121.243H484.039V119.743H477.379V121.243ZM488.321 125.191C490.265 125.191 491.645 124.327 491.645 122.419C491.645 120.547 490.325 119.743 488.321 119.743H485.129V128.143H486.917V125.191H488.321ZM489.809 122.419C489.809 123.331 489.257 123.703 488.141 123.703H486.917V121.231H488.141C489.257 121.231 489.809 121.507 489.809 122.419ZM496.152 128.311C498.492 128.311 499.512 127.099 499.512 125.047V119.743H497.712V125.059C497.712 126.079 497.208 126.823 496.152 126.823C495.096 126.823 494.592 126.079 494.592 125.059V119.743H492.792V125.047C492.792 127.099 493.812 128.311 496.152 128.311ZM500.559 121.243H502.983V128.143H504.795V121.243H507.219V119.743H500.559V121.243Z" fill="#131F52" fill-opacity="0.5"/><path d="M44.78 59.48V50.22H46.06C49.08 50.22 50.34 51.8 50.34 54.74V54.9C50.34 57.86 48.98 59.48 46.1 59.48H44.78ZM41.54 62H46.2C51.22 62 53.72 59.14 53.72 54.86V54.7C53.72 50.42 51.24 47.7 46.22 47.7H41.54V62ZM58.6117 62.22C60.2517 62.22 61.1717 61.58 61.7717 60.74V62H64.5917V55.18C64.5917 52.34 62.7717 51.3 60.2117 51.3C57.6517 51.3 55.6917 52.4 55.5117 54.88H58.2517C58.3717 53.98 58.8917 53.4 60.0317 53.4C61.3517 53.4 61.7317 54.08 61.7317 55.32V55.74H60.5517C57.3517 55.74 55.1117 56.66 55.1117 59.1C55.1117 61.3 56.7117 62.22 58.6117 62.22ZM59.4717 60.2C58.4117 60.2 57.9517 59.7 57.9517 58.94C57.9517 57.82 58.9317 57.46 60.6117 57.46H61.7317V58.34C61.7317 59.5 60.7517 60.2 59.4717 60.2ZM70.9008 62.2C71.6808 62.2 72.2608 62.06 72.6608 61.92V59.68C72.3208 59.82 72.0008 59.88 71.5608 59.88C70.8208 59.88 70.4008 59.48 70.4008 58.64V53.6H72.6008V51.54H70.4008V49.28H67.5208V51.54H66.1808V53.6H67.5208V58.9C67.5208 61.08 68.7008 62.2 70.9008 62.2ZM77.5375 62.22C79.1775 62.22 80.0975 61.58 80.6975 60.74V62H83.5175V55.18C83.5175 52.34 81.6975 51.3 79.1375 51.3C76.5775 51.3 74.6175 52.4 74.4375 54.88H77.1775C77.2975 53.98 77.8175 53.4 78.9575 53.4C80.2775 53.4 80.6575 54.08 80.6575 55.32V55.74H79.4775C76.2775 55.74 74.0375 56.66 74.0375 59.1C74.0375 61.3 75.6375 62.22 77.5375 62.22ZM78.3975 60.2C77.3375 60.2 76.8775 59.7 76.8775 58.94C76.8775 57.82 77.8575 57.46 79.5375 57.46H80.6575V58.34C80.6575 59.5 79.6775 60.2 78.3975 60.2ZM93.9402 59.48V50.22H95.2202C98.2402 50.22 99.5002 51.8 99.5002 54.74V54.9C99.5002 57.86 98.1402 59.48 95.2602 59.48H93.9402ZM90.7002 62H95.3602C100.38 62 102.88 59.14 102.88 54.86V54.7C102.88 50.42 100.4 47.7 95.3802 47.7H90.7002V62ZM105.032 62H107.912V51.54H105.032V62ZM106.452 50.12C107.392 50.12 108.112 49.44 108.112 48.54C108.112 47.64 107.392 46.96 106.452 46.96C105.532 46.96 104.812 47.64 104.812 48.54C104.812 49.44 105.532 50.12 106.452 50.12ZM115.317 62.22C118.357 62.22 120.157 60.5 120.317 58.02H117.697C117.557 59.36 116.617 60.04 115.457 60.04C113.837 60.04 112.897 58.96 112.897 56.86V56.7C112.897 54.7 113.897 53.58 115.397 53.58C116.577 53.58 117.317 54.14 117.517 55.36H120.257C119.997 52.36 117.757 51.3 115.337 51.3C112.357 51.3 109.937 53.36 109.937 56.74V56.9C109.937 60.32 112.257 62.22 115.317 62.22ZM125.959 62.2C126.739 62.2 127.319 62.06 127.719 61.92V59.68C127.379 59.82 127.059 59.88 126.619 59.88C125.879 59.88 125.459 59.48 125.459 58.64V53.6H127.659V51.54H125.459V49.28H122.579V51.54H121.239V53.6H122.579V58.9C122.579 61.08 123.759 62.2 125.959 62.2ZM129.758 62H132.638V51.54H129.758V62ZM131.178 50.12C132.118 50.12 132.838 49.44 132.838 48.54C132.838 47.64 132.118 46.96 131.178 46.96C130.258 46.96 129.538 47.64 129.538 48.54C129.538 49.44 130.258 50.12 131.178 50.12ZM140.183 60.02C138.543 60.02 137.623 58.82 137.623 56.82V56.66C137.623 54.66 138.583 53.5 140.183 53.5C141.803 53.5 142.743 54.7 142.743 56.7V56.84C142.743 58.82 141.803 60.02 140.183 60.02ZM140.163 62.22C143.303 62.22 145.683 60.12 145.683 56.82V56.66C145.683 53.4 143.323 51.3 140.183 51.3C137.043 51.3 134.663 53.44 134.663 56.72V56.88C134.663 60.14 137.043 62.22 140.163 62.22ZM147.628 62H150.528V55.96C150.528 54.42 151.468 53.66 152.708 53.66C153.988 53.66 154.548 54.34 154.548 55.76V62H157.448V55.34C157.448 52.54 155.988 51.3 153.928 51.3C152.188 51.3 151.048 52.16 150.528 53.2V51.54H147.628V62ZM162.752 62.22C164.392 62.22 165.312 61.58 165.912 60.74V62H168.732V55.18C168.732 52.34 166.912 51.3 164.352 51.3C161.792 51.3 159.832 52.4 159.652 54.88H162.392C162.512 53.98 163.032 53.4 164.172 53.4C165.492 53.4 165.872 54.08 165.872 55.32V55.74H164.692C161.492 55.74 159.252 56.66 159.252 59.1C159.252 61.3 160.852 62.22 162.752 62.22ZM163.612 60.2C162.552 60.2 162.092 59.7 162.092 58.94C162.092 57.82 163.072 57.46 164.752 57.46H165.872V58.34C165.872 59.5 164.892 60.2 163.612 60.2ZM171.221 62H174.121V56.76C174.121 54.76 175.361 54.06 177.501 54.08V51.38C175.801 51.4 174.781 52.14 174.121 53.54V51.54H171.221V62ZM180.823 65.56H183.623L189.283 51.54H186.503L184.163 57.82L181.623 51.54H178.503L182.663 60.94L180.823 65.56Z" fill="#262E4F"/><defs><filter id="filter0_d" x="0" y="105.14" width="630" height="76.102" filterUnits="userSpaceOnUse" color-interpolation-filters="sRGB"><feFlood flood-opacity="0" result="BackgroundImageFix"/><feColorMatrix in="SourceAlpha" type="matrix" values="0 0 0 0 0 0 0 0 0 0 0 0 0 0 0 0 0 0 127 0"/><feOffset dy="20"/><feGaussianBlur stdDeviation="10"/><feColorMatrix type="matrix" values="0 0 0 0 0.14902 0 0 0 0 0.180392 0 0 0 0 0.309804 0 0 0 0.03 0"/><feBlend mode="normal" in2="BackgroundImageFix" result="effect1_dropShadow"/><feBlend mode="normal" in="SourceGraphic" in2="effect1_dropShadow" result="shape"/></filter></defs></svg>