<svg xmlns="http://www.w3.org/2000/svg" viewBox="0 0 596 471" fill="none"><rect x="0.84375" y="0.703003" width="595.156" height="470" rx="10" fill="#ffffff"/><path d="M111.74 441.524H113.994V437.66H114.974L117.368 441.524H119.776L117.13 437.268C118.306 436.918 119.188 436.12 119.188 434.608V434.552C119.188 432.48 117.69 431.514 115.324 431.514H111.74V441.524ZM113.994 436.12V433.25H115.268C116.36 433.25 116.976 433.6 116.976 434.622V434.678C116.976 435.644 116.402 436.12 115.268 436.12H113.994ZM123.195 441.678C124.399 441.678 125.141 441.118 125.519 440.376V441.524H127.535V434.202H125.519V438.5C125.519 439.578 124.847 440.11 123.993 440.11C123.125 440.11 122.719 439.634 122.719 438.64V434.202H120.703V438.92C120.703 440.838 121.767 441.678 123.195 441.678ZM129.331 441.524H131.361V437.296C131.361 436.218 132.019 435.686 132.887 435.686C133.783 435.686 134.175 436.162 134.175 437.156V441.524H136.205V436.862C136.205 434.902 135.183 434.034 133.741 434.034C132.523 434.034 131.725 434.636 131.361 435.364V434.202H129.331V441.524ZM137.945 441.524H139.975V437.296C139.975 436.218 140.633 435.686 141.501 435.686C142.397 435.686 142.789 436.162 142.789 437.156V441.524H144.819V436.862C144.819 434.902 143.797 434.034 142.355 434.034C141.137 434.034 140.339 434.636 139.975 435.364V434.202H137.945V441.524ZM146.614 441.524H148.63V434.202H146.614V441.524ZM147.608 433.208C148.266 433.208 148.77 432.732 148.77 432.102C148.77 431.472 148.266 430.996 147.608 430.996C146.964 430.996 146.46 431.472 146.46 432.102C146.46 432.732 146.964 433.208 147.608 433.208ZM150.495 441.524H152.525V437.296C152.525 436.218 153.183 435.686 154.051 435.686C154.947 435.686 155.339 436.162 155.339 437.156V441.524H157.369V436.862C157.369 434.902 156.347 434.034 154.905 434.034C153.687 434.034 152.889 434.636 152.525 435.364V434.202H150.495V441.524ZM162.357 444.226C164.765 444.226 166.207 443.12 166.221 440.95V434.202H164.205V435.294C163.785 434.552 163.071 434.034 161.881 434.034C160.061 434.034 158.661 435.504 158.661 437.604V437.702C158.661 439.872 160.075 441.202 161.853 441.202C162.931 441.202 163.799 440.558 164.205 439.844V440.95C164.205 442.098 163.589 442.742 162.357 442.742C161.321 442.742 160.859 442.322 160.733 441.678H158.717C158.913 443.19 159.991 444.226 162.357 444.226ZM162.455 439.676C161.447 439.676 160.733 438.92 160.733 437.702V437.59C160.733 436.386 161.363 435.574 162.497 435.574C163.603 435.574 164.261 436.33 164.261 437.576V437.674C164.261 438.92 163.519 439.676 162.455 439.676ZM174.795 441.678C177.161 441.678 178.617 440.264 178.617 438.486C178.617 436.414 177.371 435.756 174.949 435.448C173.409 435.224 173.087 434.888 173.087 434.174C173.087 433.502 173.591 433.04 174.585 433.04C175.579 433.04 176.111 433.46 176.251 434.37H178.337C178.155 432.382 176.839 431.374 174.585 431.374C172.373 431.374 170.945 432.648 170.945 434.356C170.945 436.288 171.995 437.058 174.557 437.394C176.027 437.618 176.447 437.898 176.447 438.696C176.447 439.48 175.789 440.026 174.795 440.026C173.311 440.026 172.933 439.284 172.835 438.388H170.665C170.791 440.39 172.051 441.678 174.795 441.678ZM180.068 441.524H182.098V437.296C182.098 436.218 182.756 435.686 183.624 435.686C184.52 435.686 184.912 436.162 184.912 437.156V441.524H186.942V436.862C186.942 434.902 185.92 434.034 184.478 434.034C183.26 434.034 182.462 434.636 182.098 435.364V430.884H180.068V441.524ZM192.097 440.138C190.949 440.138 190.305 439.298 190.305 437.898V437.786C190.305 436.386 190.977 435.574 192.097 435.574C193.231 435.574 193.889 436.414 193.889 437.814V437.912C193.889 439.298 193.231 440.138 192.097 440.138ZM192.083 441.678C194.281 441.678 195.947 440.208 195.947 437.898V437.786C195.947 435.504 194.295 434.034 192.097 434.034C189.899 434.034 188.233 435.532 188.233 437.828V437.94C188.233 440.222 189.899 441.678 192.083 441.678ZM200.682 441.678C202.684 441.678 203.944 440.796 204.182 439.214H202.264C202.138 439.83 201.676 440.236 200.738 440.236C199.632 440.236 198.974 439.536 198.918 438.318H204.196V437.758C204.196 435.14 202.516 434.034 200.626 434.034C198.498 434.034 196.86 435.532 196.86 437.842V437.954C196.86 440.292 198.47 441.678 200.682 441.678ZM198.946 437.072C199.1 436.036 199.716 435.434 200.626 435.434C201.592 435.434 202.152 435.966 202.222 437.072H198.946ZM208.253 441.678C210.185 441.678 211.333 440.852 211.333 439.27C211.333 437.702 210.325 437.24 208.491 436.974C207.427 436.82 207.077 436.638 207.077 436.176C207.077 435.728 207.455 435.42 208.113 435.42C208.813 435.42 209.149 435.7 209.261 436.302H211.123C210.941 434.622 209.723 434.034 208.099 434.034C206.601 434.034 205.201 434.79 205.201 436.316C205.201 437.744 205.957 438.304 207.903 438.598C208.953 438.752 209.387 438.962 209.387 439.466C209.387 439.97 209.023 440.264 208.239 440.264C207.357 440.264 207.035 439.886 206.951 439.228H205.061C205.131 440.81 206.279 441.678 208.253 441.678Z" fill="#0D1537"/><path d="M111.646 421.844H116.902V420.572H113.242V413.264H111.646V421.844ZM119.779 421.964C120.739 421.964 121.291 421.616 121.699 421.076V421.844H123.127V417.728C123.127 416.012 122.023 415.436 120.619 415.436C119.215 415.436 118.051 416.048 117.931 417.512H119.335C119.407 416.888 119.779 416.528 120.535 416.528C121.387 416.528 121.675 416.948 121.675 417.788V418.112H120.895C119.095 418.112 117.679 418.64 117.679 420.104C117.679 421.412 118.627 421.964 119.779 421.964ZM120.127 420.92C119.407 420.92 119.119 420.572 119.119 420.044C119.119 419.276 119.827 419.024 120.931 419.024H121.675V419.648C121.675 420.452 121.015 420.92 120.127 420.92ZM126.939 421.964C128.547 421.964 129.447 421.232 129.447 419.96C129.447 418.628 128.571 418.268 127.095 418.04C126.099 417.872 125.799 417.692 125.799 417.236C125.799 416.792 126.171 416.492 126.795 416.492C127.467 416.492 127.791 416.756 127.911 417.332H129.255C129.099 415.916 128.079 415.436 126.795 415.436C125.619 415.436 124.443 416.06 124.443 417.32C124.443 418.496 125.055 418.964 126.711 419.228C127.635 419.384 128.055 419.576 128.055 420.092C128.055 420.62 127.707 420.896 126.927 420.896C126.075 420.896 125.751 420.524 125.679 419.888H124.311C124.371 421.22 125.319 421.964 126.939 421.964ZM132.857 421.952C133.301 421.952 133.613 421.88 133.841 421.796V420.644C133.637 420.728 133.421 420.764 133.133 420.764C132.677 420.764 132.413 420.512 132.413 419.96V416.66H133.793V415.568H132.413V414.188H130.961V415.568H130.121V416.66H130.961V420.092C130.961 421.28 131.609 421.952 132.857 421.952ZM138.13 421.844H139.726V418.58H140.926C142.762 418.58 144.07 417.776 144.07 415.964V415.916C144.07 414.116 142.81 413.264 140.89 413.264H138.13V421.844ZM139.726 417.428V414.5H140.89C141.91 414.5 142.51 414.896 142.51 415.916V415.964C142.51 416.912 141.946 417.428 140.89 417.428H139.726ZM145.323 421.844H146.775V418.58C146.775 417.248 147.543 416.84 148.815 416.828V415.472C147.759 415.484 147.171 415.952 146.775 416.744V415.568H145.323V421.844ZM152.783 420.836C151.679 420.836 151.043 420.032 151.043 418.748V418.652C151.043 417.356 151.703 416.576 152.783 416.576C153.863 416.576 154.511 417.368 154.511 418.664V418.748C154.511 420.032 153.863 420.836 152.783 420.836ZM152.771 421.964C154.619 421.964 155.999 420.692 155.999 418.736V418.64C155.999 416.72 154.619 415.436 152.783 415.436C150.935 415.436 149.555 416.732 149.555 418.676V418.772C149.555 420.68 150.923 421.964 152.771 421.964ZM159.663 421.964C160.587 421.964 161.391 421.412 161.727 420.788V421.844H163.179V412.664H161.727V416.528C161.379 415.904 160.743 415.436 159.723 415.436C158.091 415.436 156.903 416.708 156.903 418.712V418.808C156.903 420.848 158.091 421.964 159.663 421.964ZM160.023 420.812C159.087 420.812 158.391 420.152 158.391 418.772V418.676C158.391 417.32 159.015 416.576 160.083 416.576C161.139 416.576 161.775 417.26 161.775 418.64V418.736C161.775 420.14 161.031 420.812 160.023 420.812ZM167.005 421.964C168.025 421.964 168.685 421.472 168.997 420.86V421.844H170.449V415.568H168.997V419.3C168.997 420.296 168.313 420.8 167.533 420.8C166.693 420.8 166.297 420.368 166.297 419.42V415.568H164.845V419.588C164.845 421.256 165.769 421.964 167.005 421.964ZM174.918 421.964C176.622 421.964 177.714 420.944 177.822 419.504H176.49C176.406 420.392 175.746 420.848 174.978 420.848C173.91 420.848 173.238 420.128 173.238 418.76V418.664C173.238 417.368 173.946 416.6 174.942 416.6C175.71 416.6 176.262 416.948 176.382 417.788H177.786C177.618 416.06 176.31 415.436 174.918 415.436C173.166 415.436 171.75 416.696 171.75 418.688V418.784C171.75 420.788 173.118 421.964 174.918 421.964ZM181.209 421.952C181.653 421.952 181.965 421.88 182.193 421.796V420.644C181.989 420.728 181.773 420.764 181.485 420.764C181.029 420.764 180.765 420.512 180.765 419.96V416.66H182.145V415.568H180.765V414.188H179.313V415.568H178.473V416.66H179.313V420.092C179.313 421.28 179.961 421.952 181.209 421.952ZM186.482 421.844H189.782C191.666 421.844 192.722 421.04 192.722 419.444V419.396C192.722 418.256 192.17 417.62 191.006 417.368C191.978 417.068 192.362 416.396 192.362 415.544V415.496C192.362 413.936 191.318 413.264 189.554 413.264H186.482V421.844ZM188.042 420.704V417.956H189.482C190.658 417.956 191.15 418.4 191.15 419.288V419.336C191.15 420.224 190.658 420.704 189.59 420.704H188.042ZM188.042 416.876V414.404H189.338C190.358 414.404 190.826 414.752 190.826 415.568V415.616C190.826 416.492 190.418 416.876 189.362 416.876H188.042ZM196.904 420.836C195.8 420.836 195.164 420.032 195.164 418.748V418.652C195.164 417.356 195.824 416.576 196.904 416.576C197.984 416.576 198.632 417.368 198.632 418.664V418.748C198.632 420.032 197.984 420.836 196.904 420.836ZM196.892 421.964C198.74 421.964 200.12 420.692 200.12 418.736V418.64C200.12 416.72 198.74 415.436 196.904 415.436C195.056 415.436 193.676 416.732 193.676 418.676V418.772C193.676 420.68 195.044 421.964 196.892 421.964ZM203.532 421.964C204.552 421.964 205.212 421.472 205.524 420.86V421.844H206.976V415.568H205.524V419.3C205.524 420.296 204.84 420.8 204.06 420.8C203.22 420.8 202.824 420.368 202.824 419.42V415.568H201.372V419.588C201.372 421.256 202.296 421.964 203.532 421.964ZM211.374 424.148C213.318 424.148 214.554 423.224 214.566 421.376V415.568H213.114V416.528C212.754 415.904 212.13 415.436 211.098 415.436C209.478 415.436 208.278 416.756 208.278 418.52V418.604C208.278 420.416 209.49 421.592 211.062 421.592C211.986 421.592 212.766 421.028 213.114 420.428V421.352C213.114 422.48 212.49 423.044 211.362 423.044C210.414 423.044 209.934 422.684 209.814 422.06H208.35C208.518 423.26 209.406 424.148 211.374 424.148ZM211.422 420.476C210.486 420.476 209.766 419.756 209.766 418.592V418.496C209.766 417.356 210.39 416.576 211.47 416.576C212.514 416.576 213.162 417.284 213.162 418.472V418.556C213.162 419.756 212.43 420.476 211.422 420.476ZM216.291 421.844H217.743V418.148C217.743 417.152 218.403 416.648 219.219 416.648C220.083 416.648 220.467 417.08 220.467 418.028V421.844H221.919V417.896C221.919 416.168 221.031 415.436 219.771 415.436C218.739 415.436 218.043 415.952 217.743 416.564V412.664H216.291V421.844ZM225.728 421.952C226.172 421.952 226.484 421.88 226.712 421.796V420.644C226.508 420.728 226.292 420.764 226.004 420.764C225.548 420.764 225.284 420.512 225.284 419.96V416.66H226.664V415.568H225.284V414.188H223.832V415.568H222.992V416.66H223.832V420.092C223.832 421.28 224.48 421.952 225.728 421.952Z" fill="#737A96"/><rect x="43.3118" y="413.524" width="32" height="32" rx="16" fill="#14B5D0"/><mask id="mask0" mask-type="alpha" maskUnits="userSpaceOnUse" x="43" y="413" width="33" height="33"><rect x="43.3118" y="413.524" width="32" height="32" rx="16" fill="white"/></mask><g mask="url(#mask0)"><path d="M43.3118 413.524H75.3118V445.524H43.3118V413.524Z" fill="#14B5D0"/><path fill-rule="evenodd" clip-rule="evenodd" d="M59.3118 424.024C57.9311 424.024 56.8118 425.143 56.8118 426.524C56.8118 427.904 57.9318 429.524 59.3118 429.524C60.6918 429.524 61.8118 427.904 61.8118 426.524C61.8118 425.143 60.6925 424.024 59.3118 424.024ZM54.8118 434.024C54.8118 434.3 55.0356 434.524 55.3118 434.524H63.3118C63.5879 434.524 63.8118 434.3 63.8118 434.024V432.91C63.8115 432.022 63.2265 431.24 62.3748 430.99C61.5688 430.752 60.4898 430.524 59.3118 430.524C58.2728 430.531 57.24 430.685 56.2448 430.984C55.3946 431.235 54.8113 432.016 54.8118 432.903V434.024Z" fill="white"/><path d="M69.7478 424.689C69.4828 424.894 69.1928 425.069 68.8808 425.203C69.4858 426.543 69.8118 428.01 69.8118 429.524C69.8118 435.314 65.1018 440.024 59.3118 440.024C53.5218 440.024 48.8118 435.314 48.8118 429.524C48.8118 423.734 53.5218 419.024 59.3118 419.024C61.3228 419.024 63.2868 419.614 64.9658 420.687C64.8665 420.955 64.8144 421.238 64.8118 421.524C64.8118 422.902 65.9338 424.024 67.3118 424.024C68.6898 424.024 69.8118 422.902 69.8118 421.524C69.8118 420.146 68.6898 419.024 67.3118 419.024C66.5878 419.024 65.9398 419.339 65.4828 419.832C63.6392 418.656 61.4987 418.028 59.3118 418.024C52.9708 418.024 47.8118 423.183 47.8118 429.524C47.8118 435.865 52.9708 441.024 59.3118 441.024C65.6528 441.024 70.8118 435.865 70.8118 429.524C70.8118 427.829 70.4398 426.184 69.7478 424.689Z" fill="white"/></g><path d="M111.74 376.524H115.856C118.166 376.524 119.37 375.558 119.37 373.724V373.668C119.37 372.324 118.67 371.582 117.368 371.316C118.488 370.994 118.992 370.224 118.992 369.174V369.118C118.992 367.41 117.858 366.514 115.674 366.514H111.74V376.524ZM113.952 374.956V372.086H115.394C116.626 372.086 117.13 372.562 117.13 373.486V373.542C117.13 374.452 116.626 374.956 115.506 374.956H113.952ZM113.952 370.63V368.068H115.296C116.36 368.068 116.836 368.446 116.836 369.286V369.342C116.836 370.238 116.402 370.63 115.31 370.63H113.952ZM120.842 376.524H122.858V365.884H120.842V376.524ZM127.146 376.678C128.35 376.678 129.092 376.118 129.47 375.376V376.524H131.486V369.202H129.47V373.5C129.47 374.578 128.798 375.11 127.944 375.11C127.076 375.11 126.67 374.634 126.67 373.64V369.202H124.654V373.92C124.654 375.838 125.718 376.678 127.146 376.678ZM136.656 376.678C138.658 376.678 139.918 375.796 140.156 374.214H138.238C138.112 374.83 137.65 375.236 136.712 375.236C135.606 375.236 134.948 374.536 134.892 373.318H140.17V372.758C140.17 370.14 138.49 369.034 136.6 369.034C134.472 369.034 132.834 370.532 132.834 372.842V372.954C132.834 375.292 134.444 376.678 136.656 376.678ZM134.92 372.072C135.074 371.036 135.69 370.434 136.6 370.434C137.566 370.434 138.126 370.966 138.196 372.072H134.92Z" fill="#0D1537"/><path d="M111.646 356.844H113.242V353.328H116.17V352.092H113.242V349.536H116.962V348.264H111.646V356.844ZM119.639 356.964C120.599 356.964 121.151 356.616 121.559 356.076V356.844H122.987V352.728C122.987 351.012 121.883 350.436 120.479 350.436C119.075 350.436 117.911 351.048 117.791 352.512H119.195C119.267 351.888 119.639 351.528 120.395 351.528C121.247 351.528 121.535 351.948 121.535 352.788V353.112H120.755C118.955 353.112 117.539 353.64 117.539 355.104C117.539 356.412 118.487 356.964 119.639 356.964ZM119.987 355.92C119.267 355.92 118.979 355.572 118.979 355.044C118.979 354.276 119.687 354.024 120.791 354.024H121.535V354.648C121.535 355.452 120.875 355.92 119.987 355.92ZM126.119 356.844H127.811L130.079 350.568H128.651L127.031 355.356L125.387 350.568H123.827L126.119 356.844ZM133.728 355.836C132.624 355.836 131.988 355.032 131.988 353.748V353.652C131.988 352.356 132.648 351.576 133.728 351.576C134.808 351.576 135.456 352.368 135.456 353.664V353.748C135.456 355.032 134.808 355.836 133.728 355.836ZM133.716 356.964C135.564 356.964 136.944 355.692 136.944 353.736V353.64C136.944 351.72 135.564 350.436 133.728 350.436C131.88 350.436 130.5 351.732 130.5 353.676V353.772C130.5 355.68 131.868 356.964 133.716 356.964ZM138.256 356.844H139.708V353.58C139.708 352.248 140.476 351.84 141.748 351.828V350.472C140.692 350.484 140.104 350.952 139.708 351.744V350.568H138.256V356.844ZM143.062 356.844H144.514V350.568H143.062V356.844ZM143.77 349.536C144.25 349.536 144.634 349.176 144.634 348.708C144.634 348.228 144.25 347.868 143.77 347.868C143.29 347.868 142.906 348.228 142.906 348.708C142.906 349.176 143.29 349.536 143.77 349.536ZM148.42 356.952C148.864 356.952 149.176 356.88 149.404 356.796V355.644C149.2 355.728 148.984 355.764 148.696 355.764C148.24 355.764 147.976 355.512 147.976 354.96V351.66H149.356V350.568H147.976V349.188H146.524V350.568H145.684V351.66H146.524V355.092C146.524 356.28 147.172 356.952 148.42 356.952ZM153.473 356.964C155.081 356.964 156.149 356.244 156.353 354.924H154.949C154.841 355.536 154.385 355.884 153.509 355.884C152.429 355.884 151.829 355.212 151.781 354.024H156.377V353.604C156.377 351.36 154.973 350.436 153.413 350.436C151.625 350.436 150.293 351.732 150.293 353.676V353.772C150.293 355.752 151.625 356.964 153.473 356.964ZM151.805 353.052C151.949 352.08 152.537 351.492 153.413 351.492C154.313 351.492 154.865 351.972 154.937 353.052H151.805ZM160.654 356.844H162.25V353.58H163.45C165.286 353.58 166.594 352.776 166.594 350.964V350.916C166.594 349.116 165.334 348.264 163.414 348.264H160.654V356.844ZM162.25 352.428V349.5H163.414C164.434 349.5 165.034 349.896 165.034 350.916V350.964C165.034 351.912 164.47 352.428 163.414 352.428H162.25ZM167.846 356.844H169.298V353.58C169.298 352.248 170.066 351.84 171.338 351.828V350.472C170.282 350.484 169.694 350.952 169.298 351.744V350.568H167.846V356.844ZM175.307 355.836C174.203 355.836 173.567 355.032 173.567 353.748V353.652C173.567 352.356 174.227 351.576 175.307 351.576C176.387 351.576 177.035 352.368 177.035 353.664V353.748C177.035 355.032 176.387 355.836 175.307 355.836ZM175.295 356.964C177.143 356.964 178.523 355.692 178.523 353.736V353.64C178.523 351.72 177.143 350.436 175.307 350.436C173.459 350.436 172.079 351.732 172.079 353.676V353.772C172.079 355.68 173.447 356.964 175.295 356.964ZM182.186 356.964C183.11 356.964 183.914 356.412 184.25 355.788V356.844H185.702V347.664H184.25V351.528C183.902 350.904 183.266 350.436 182.246 350.436C180.614 350.436 179.426 351.708 179.426 353.712V353.808C179.426 355.848 180.614 356.964 182.186 356.964ZM182.546 355.812C181.61 355.812 180.914 355.152 180.914 353.772V353.676C180.914 352.32 181.538 351.576 182.606 351.576C183.662 351.576 184.298 352.26 184.298 353.64V353.736C184.298 355.14 183.554 355.812 182.546 355.812ZM189.528 356.964C190.548 356.964 191.208 356.472 191.52 355.86V356.844H192.972V350.568H191.52V354.3C191.52 355.296 190.836 355.8 190.056 355.8C189.216 355.8 188.82 355.368 188.82 354.42V350.568H187.368V354.588C187.368 356.256 188.292 356.964 189.528 356.964ZM197.442 356.964C199.146 356.964 200.238 355.944 200.346 354.504H199.014C198.93 355.392 198.27 355.848 197.502 355.848C196.434 355.848 195.762 355.128 195.762 353.76V353.664C195.762 352.368 196.47 351.6 197.466 351.6C198.234 351.6 198.786 351.948 198.906 352.788H200.31C200.142 351.06 198.834 350.436 197.442 350.436C195.69 350.436 194.274 351.696 194.274 353.688V353.784C194.274 355.788 195.642 356.964 197.442 356.964ZM203.732 356.952C204.176 356.952 204.488 356.88 204.716 356.796V355.644C204.512 355.728 204.296 355.764 204.008 355.764C203.552 355.764 203.288 355.512 203.288 354.96V351.66H204.668V350.568H203.288V349.188H201.836V350.568H200.996V351.66H201.836V355.092C201.836 356.28 202.484 356.952 203.732 356.952ZM212.761 356.964C214.801 356.964 216.265 355.92 216.517 353.856H214.957C214.789 355.068 213.949 355.668 212.761 355.668C211.177 355.668 210.253 354.528 210.253 352.596V352.5C210.253 350.58 211.237 349.404 212.749 349.404C213.985 349.404 214.621 349.992 214.801 351.132H216.421C216.229 349.116 214.705 348.132 212.737 348.132C210.349 348.132 208.573 349.932 208.573 352.512V352.608C208.573 355.248 210.073 356.964 212.761 356.964ZM220.588 355.836C219.484 355.836 218.848 355.032 218.848 353.748V353.652C218.848 352.356 219.508 351.576 220.588 351.576C221.668 351.576 222.316 352.368 222.316 353.664V353.748C222.316 355.032 221.668 355.836 220.588 355.836ZM220.576 356.964C222.424 356.964 223.804 355.692 223.804 353.736V353.64C223.804 351.72 222.424 350.436 220.588 350.436C218.74 350.436 217.36 351.732 217.36 353.676V353.772C217.36 355.68 218.728 356.964 220.576 356.964ZM225.152 356.844H226.604V347.664H225.152V356.844ZM231.182 355.836C230.078 355.836 229.442 355.032 229.442 353.748V353.652C229.442 352.356 230.102 351.576 231.182 351.576C232.262 351.576 232.91 352.368 232.91 353.664V353.748C232.91 355.032 232.262 355.836 231.182 355.836ZM231.17 356.964C233.018 356.964 234.398 355.692 234.398 353.736V353.64C234.398 351.72 233.018 350.436 231.182 350.436C229.334 350.436 227.954 351.732 227.954 353.676V353.772C227.954 355.68 229.322 356.964 231.17 356.964ZM235.709 356.844H237.161V353.58C237.161 352.248 237.929 351.84 239.201 351.828V350.472C238.145 350.484 237.557 350.952 237.161 351.744V350.568H235.709V356.844Z" fill="#737A96"/><line x1="43.7605" y1="396.524" x2="548.312" y2="396.524" stroke="#F0F0F1"/><rect x="43.7605" y="348.524" width="32" height="32" rx="16" fill="#14B5D0"/><mask id="mask1" mask-type="alpha" maskUnits="userSpaceOnUse" x="43" y="348" width="33" height="33"><rect x="43.7605" y="348.524" width="32" height="32" rx="16" fill="white"/></mask><g mask="url(#mask1)"><path d="M43.7605 348.524H75.7605V380.524H43.7605V348.524Z" fill="#14B5D0"/><path fill-rule="evenodd" clip-rule="evenodd" d="M59.7605 359.024C58.3798 359.024 57.2605 360.143 57.2605 361.524C57.2605 362.904 58.3805 364.524 59.7605 364.524C61.1405 364.524 62.2605 362.904 62.2605 361.524C62.2605 360.143 61.1412 359.024 59.7605 359.024ZM55.2605 369.024C55.2605 369.3 55.4844 369.524 55.7605 369.524H63.7605C64.0366 369.524 64.2605 369.3 64.2605 369.024V367.91C64.2602 367.022 63.6752 366.24 62.8235 365.99C62.0175 365.752 60.9385 365.524 59.7605 365.524C58.7215 365.531 57.6887 365.685 56.6935 365.984C55.8433 366.235 55.26 367.016 55.2605 367.903V369.024Z" fill="white"/><path d="M70.1965 359.689C69.9315 359.894 69.6415 360.069 69.3295 360.203C69.9345 361.543 70.2605 363.01 70.2605 364.524C70.2605 370.314 65.5505 375.024 59.7605 375.024C53.9705 375.024 49.2605 370.314 49.2605 364.524C49.2605 358.734 53.9705 354.024 59.7605 354.024C61.7715 354.024 63.7355 354.614 65.4145 355.687C65.3152 355.955 65.2631 356.238 65.2605 356.524C65.2605 357.902 66.3825 359.024 67.7605 359.024C69.1385 359.024 70.2605 357.902 70.2605 356.524C70.2605 355.146 69.1385 354.024 67.7605 354.024C67.0365 354.024 66.3885 354.339 65.9315 354.832C64.0879 353.656 61.9474 353.028 59.7605 353.024C53.4195 353.024 48.2605 358.183 48.2605 364.524C48.2605 370.865 53.4195 376.024 59.7605 376.024C66.1015 376.024 71.2605 370.865 71.2605 364.524C71.2605 362.829 70.8885 361.184 70.1965 359.689Z" fill="white"/></g><path d="M112.398 311.524H114.708L118.292 301.766V301.514H111.04V303.348H115.45L112.398 311.524ZM122.558 311.678C124.868 311.678 126.394 310.32 126.394 308.192C126.394 306.064 125.148 304.818 123.328 304.818C122.194 304.818 121.494 305.266 121.102 305.742L121.144 303.236H125.792V301.514H119.45L119.31 307.212H120.57C120.976 306.75 121.55 306.414 122.488 306.414C123.496 306.414 124.112 307.086 124.112 308.164C124.112 309.228 123.566 309.942 122.544 309.942C121.396 309.942 121.06 309.382 120.934 308.542H118.848C118.946 310.334 120.094 311.678 122.558 311.678ZM129.516 305.07C128.914 305.07 128.536 304.65 128.536 303.852C128.536 303.096 128.914 302.648 129.516 302.648C130.118 302.648 130.468 303.11 130.468 303.852C130.468 304.622 130.118 305.07 129.516 305.07ZM129.502 306.33C130.972 306.33 132.022 305.266 132.022 303.838C132.022 302.424 130.916 301.416 129.516 301.416C128.102 301.416 126.982 302.466 126.982 303.866C126.982 305.28 128.018 306.33 129.502 306.33ZM128.326 311.524H129.586L136.236 301.514H134.976L128.326 311.524ZM135.032 310.404C134.444 310.404 134.066 309.984 134.066 309.2C134.066 308.43 134.444 307.996 135.032 307.996C135.648 307.996 135.998 308.444 135.998 309.2C135.998 309.956 135.648 310.404 135.032 310.404ZM135.032 311.678C136.502 311.678 137.552 310.6 137.552 309.172C137.552 307.758 136.446 306.75 135.032 306.75C133.632 306.75 132.512 307.8 132.512 309.214C132.512 310.614 133.548 311.678 135.032 311.678Z" fill="#0D1537"/><path d="M111.646 291.844H113.242V288.58H114.442C116.278 288.58 117.586 287.776 117.586 285.964V285.916C117.586 284.116 116.326 283.264 114.406 283.264H111.646V291.844ZM113.242 287.428V284.5H114.406C115.426 284.5 116.026 284.896 116.026 285.916V285.964C116.026 286.912 115.462 287.428 114.406 287.428H113.242ZM118.838 291.844H120.29V288.58C120.29 287.248 121.058 286.84 122.33 286.828V285.472C121.274 285.484 120.686 285.952 120.29 286.744V285.568H118.838V291.844ZM126.299 290.836C125.195 290.836 124.559 290.032 124.559 288.748V288.652C124.559 287.356 125.219 286.576 126.299 286.576C127.379 286.576 128.027 287.368 128.027 288.664V288.748C128.027 290.032 127.379 290.836 126.299 290.836ZM126.287 291.964C128.135 291.964 129.515 290.692 129.515 288.736V288.64C129.515 286.72 128.135 285.436 126.299 285.436C124.451 285.436 123.071 286.732 123.071 288.676V288.772C123.071 290.68 124.439 291.964 126.287 291.964ZM130.827 293.992H132.279V290.86C132.615 291.472 133.335 291.964 134.331 291.964C135.951 291.964 137.115 290.74 137.115 288.724V288.628C137.115 286.6 135.903 285.436 134.331 285.436C133.407 285.436 132.627 285.976 132.279 286.576V285.568H130.827V293.992ZM133.971 290.812C132.915 290.812 132.231 290.152 132.231 288.748V288.652C132.231 287.26 132.951 286.576 133.959 286.576C134.907 286.576 135.627 287.26 135.627 288.652V288.748C135.627 290.092 135.039 290.812 133.971 290.812ZM141.18 291.964C142.788 291.964 143.856 291.244 144.06 289.924H142.656C142.548 290.536 142.092 290.884 141.216 290.884C140.136 290.884 139.536 290.212 139.488 289.024H144.084V288.604C144.084 286.36 142.68 285.436 141.12 285.436C139.332 285.436 138 286.732 138 288.676V288.772C138 290.752 139.332 291.964 141.18 291.964ZM139.512 288.052C139.656 287.08 140.244 286.492 141.12 286.492C142.02 286.492 142.572 286.972 142.644 288.052H139.512ZM145.381 291.844H146.833V288.148C146.833 287.152 147.493 286.648 148.309 286.648C149.173 286.648 149.557 287.08 149.557 288.028V291.844H151.009V287.896C151.009 286.168 150.121 285.436 148.861 285.436C147.829 285.436 147.133 285.952 146.833 286.564V285.568H145.381V291.844ZM154.83 291.964C156.438 291.964 157.338 291.232 157.338 289.96C157.338 288.628 156.462 288.268 154.986 288.04C153.99 287.872 153.69 287.692 153.69 287.236C153.69 286.792 154.062 286.492 154.686 286.492C155.358 286.492 155.682 286.756 155.802 287.332H157.146C156.99 285.916 155.97 285.436 154.686 285.436C153.51 285.436 152.334 286.06 152.334 287.32C152.334 288.496 152.946 288.964 154.602 289.228C155.526 289.384 155.946 289.576 155.946 290.092C155.946 290.62 155.598 290.896 154.818 290.896C153.966 290.896 153.642 290.524 153.57 289.888H152.202C152.262 291.22 153.21 291.964 154.83 291.964ZM158.648 291.844H160.1V285.568H158.648V291.844ZM159.356 284.536C159.836 284.536 160.22 284.176 160.22 283.708C160.22 283.228 159.836 282.868 159.356 282.868C158.876 282.868 158.492 283.228 158.492 283.708C158.492 284.176 158.876 284.536 159.356 284.536ZM164.006 291.952C164.45 291.952 164.762 291.88 164.99 291.796V290.644C164.786 290.728 164.57 290.764 164.282 290.764C163.826 290.764 163.562 290.512 163.562 289.96V286.66H164.942V285.568H163.562V284.188H162.11V285.568H161.27V286.66H162.11V290.092C162.11 291.28 162.758 291.952 164.006 291.952ZM166.995 293.992H168.423L171.843 285.568H170.427L168.891 289.612L167.223 285.568H165.651L168.135 291.208L166.995 293.992ZM177.927 291.952C178.371 291.952 178.683 291.88 178.911 291.796V290.644C178.707 290.728 178.491 290.764 178.203 290.764C177.747 290.764 177.483 290.512 177.483 289.96V286.66H178.863V285.568H177.483V284.188H176.031V285.568H175.191V286.66H176.031V290.092C176.031 291.28 176.679 291.952 177.927 291.952ZM183.029 290.836C181.925 290.836 181.289 290.032 181.289 288.748V288.652C181.289 287.356 181.949 286.576 183.029 286.576C184.109 286.576 184.757 287.368 184.757 288.664V288.748C184.757 290.032 184.109 290.836 183.029 290.836ZM183.017 291.964C184.865 291.964 186.245 290.692 186.245 288.736V288.64C186.245 286.72 184.865 285.436 183.029 285.436C181.181 285.436 179.801 286.732 179.801 288.676V288.772C179.801 290.68 181.169 291.964 183.017 291.964ZM190.536 291.844H193.836C195.72 291.844 196.776 291.04 196.776 289.444V289.396C196.776 288.256 196.224 287.62 195.06 287.368C196.032 287.068 196.416 286.396 196.416 285.544V285.496C196.416 283.936 195.372 283.264 193.608 283.264H190.536V291.844ZM192.096 290.704V287.956H193.536C194.712 287.956 195.204 288.4 195.204 289.288V289.336C195.204 290.224 194.712 290.704 193.644 290.704H192.096ZM192.096 286.876V284.404H193.392C194.412 284.404 194.88 284.752 194.88 285.568V285.616C194.88 286.492 194.472 286.876 193.416 286.876H192.096ZM200.251 291.964C201.271 291.964 201.931 291.472 202.243 290.86V291.844H203.695V285.568H202.243V289.3C202.243 290.296 201.559 290.8 200.779 290.8C199.939 290.8 199.543 290.368 199.543 289.42V285.568H198.091V289.588C198.091 291.256 199.015 291.964 200.251 291.964ZM206.112 293.992H207.54L210.96 285.568H209.544L208.008 289.612L206.34 285.568H204.768L207.252 291.208L206.112 293.992ZM216.241 291.844H217.849V283.264H216.421L214.429 284.68V286.084L216.241 284.848V291.844ZM223.516 291.844H225.064V290.104H226.216V288.916H225.064V283.264H223.06L219.268 289.54V290.104H223.516V291.844ZM220.972 288.916L223.54 284.476V288.916H220.972ZM232.023 290.584V284.524H232.947C234.963 284.524 235.803 285.64 235.803 287.488V287.584C235.803 289.48 234.879 290.584 232.959 290.584H232.023ZM230.427 291.844H233.007C236.019 291.844 237.471 290.068 237.471 287.572V287.464C237.471 284.968 236.019 283.264 233.031 283.264H230.427V291.844ZM240.518 291.964C241.478 291.964 242.03 291.616 242.438 291.076V291.844H243.866V287.728C243.866 286.012 242.762 285.436 241.358 285.436C239.954 285.436 238.79 286.048 238.67 287.512H240.074C240.146 286.888 240.518 286.528 241.274 286.528C242.126 286.528 242.414 286.948 242.414 287.788V288.112H241.634C239.834 288.112 238.418 288.64 238.418 290.104C238.418 291.412 239.366 291.964 240.518 291.964ZM240.866 290.92C240.146 290.92 239.858 290.572 239.858 290.044C239.858 289.276 240.566 289.024 241.67 289.024H242.414V289.648C242.414 290.452 241.754 290.92 240.866 290.92ZM246.05 293.992H247.478L250.898 285.568H249.482L247.946 289.612L246.278 285.568H244.706L247.19 291.208L246.05 293.992ZM254.135 291.964C255.743 291.964 256.643 291.232 256.643 289.96C256.643 288.628 255.767 288.268 254.291 288.04C253.295 287.872 252.995 287.692 252.995 287.236C252.995 286.792 253.367 286.492 253.991 286.492C254.663 286.492 254.987 286.756 255.107 287.332H256.451C256.295 285.916 255.275 285.436 253.991 285.436C252.815 285.436 251.639 286.06 251.639 287.32C251.639 288.496 252.251 288.964 253.907 289.228C254.831 289.384 255.251 289.576 255.251 290.092C255.251 290.62 254.903 290.896 254.123 290.896C253.271 290.896 252.947 290.524 252.875 289.888H251.507C251.567 291.22 252.515 291.964 254.135 291.964Z" fill="#737A96"/><line x1="43.7605" y1="331.524" x2="548.312" y2="331.524" stroke="#F0F0F1"/><rect x="43.7605" y="283.524" width="32" height="32" rx="16" fill="#14B5D0"/><mask id="mask2" mask-type="alpha" maskUnits="userSpaceOnUse" x="43" y="283" width="33" height="33"><rect x="43.7605" y="283.524" width="32" height="32" rx="16" fill="white"/></mask><g mask="url(#mask2)"><path d="M43.7605 283.524H75.7605V315.524H43.7605V283.524Z" fill="#14B5D0"/><path fill-rule="evenodd" clip-rule="evenodd" d="M59.7605 294.024C58.3798 294.024 57.2605 295.143 57.2605 296.524C57.2605 297.904 58.3805 299.524 59.7605 299.524C61.1405 299.524 62.2605 297.904 62.2605 296.524C62.2605 295.143 61.1412 294.024 59.7605 294.024ZM55.2605 304.024C55.2605 304.3 55.4844 304.524 55.7605 304.524H63.7605C64.0366 304.524 64.2605 304.3 64.2605 304.024V302.91C64.2602 302.022 63.6752 301.24 62.8235 300.99C62.0175 300.752 60.9385 300.524 59.7605 300.524C58.7215 300.531 57.6887 300.685 56.6935 300.984C55.8433 301.235 55.26 302.016 55.2605 302.903V304.024Z" fill="white"/><path d="M70.1965 294.689C69.9315 294.894 69.6415 295.069 69.3295 295.203C69.9345 296.543 70.2605 298.01 70.2605 299.524C70.2605 305.314 65.5505 310.024 59.7605 310.024C53.9705 310.024 49.2605 305.314 49.2605 299.524C49.2605 293.734 53.9705 289.024 59.7605 289.024C61.7715 289.024 63.7355 289.614 65.4145 290.687C65.3152 290.955 65.2631 291.238 65.2605 291.524C65.2605 292.902 66.3825 294.024 67.7605 294.024C69.1385 294.024 70.2605 292.902 70.2605 291.524C70.2605 290.146 69.1385 289.024 67.7605 289.024C67.0365 289.024 66.3885 289.339 65.9315 289.832C64.0879 288.656 61.9474 288.028 59.7605 288.024C53.4195 288.024 48.2605 293.183 48.2605 299.524C48.2605 305.865 53.4195 311.024 59.7605 311.024C66.1015 311.024 71.2605 305.865 71.2605 299.524C71.2605 297.829 70.8885 296.184 70.1965 294.689Z" fill="white"/></g><path d="M115.044 246.678C117.48 246.678 118.922 245.488 118.922 243.612C118.922 242.338 118.138 241.512 116.976 241.26C117.97 240.91 118.628 240.21 118.628 239.09C118.628 237.522 117.34 236.374 115.142 236.374C112.86 236.374 111.558 237.718 111.446 239.552H113.448C113.56 238.614 114.148 238.04 115.1 238.04C116.024 238.04 116.486 238.572 116.486 239.286C116.486 240.14 116.01 240.616 114.96 240.616H114.232V242.128H115.016C116.094 242.128 116.626 242.618 116.626 243.57C116.626 244.466 116.094 245.012 114.96 245.012C113.756 245.012 113.238 244.312 113.154 243.346H111.11C111.194 245.376 112.496 246.678 115.044 246.678Z" fill="#0D1537"/><path d="M111.646 226.845H117.214V225.585H113.242V223.077H116.266V221.877H113.242V219.525H117.01V218.265H111.646V226.845ZM118.534 226.845H119.986V223.089C119.986 222.129 120.646 221.649 121.366 221.649C122.074 221.649 122.482 222.045 122.482 222.969V226.845H123.934V223.089C123.934 222.129 124.594 221.649 125.314 221.649C126.034 221.649 126.43 222.045 126.43 222.969V226.845H127.882V222.873C127.882 221.145 126.946 220.437 125.794 220.437C125.014 220.437 124.15 220.785 123.67 221.565C123.358 220.785 122.71 220.437 121.894 220.437C120.97 220.437 120.286 220.941 119.986 221.529V220.569H118.534V226.845ZM131.193 226.965C132.153 226.965 132.705 226.617 133.113 226.077V226.845H134.541V222.729C134.541 221.013 133.437 220.437 132.033 220.437C130.629 220.437 129.465 221.049 129.345 222.513H130.749C130.821 221.889 131.193 221.529 131.949 221.529C132.801 221.529 133.089 221.949 133.089 222.789V223.113H132.309C130.509 223.113 129.093 223.641 129.093 225.105C129.093 226.413 130.041 226.965 131.193 226.965ZM131.541 225.921C130.821 225.921 130.533 225.573 130.533 225.045C130.533 224.277 131.241 224.025 132.345 224.025H133.089V224.649C133.089 225.453 132.429 225.921 131.541 225.921ZM136.242 226.845H137.694V220.569H136.242V226.845ZM136.95 219.537C137.43 219.537 137.814 219.177 137.814 218.709C137.814 218.229 137.43 217.869 136.95 217.869C136.47 217.869 136.086 218.229 136.086 218.709C136.086 219.177 136.47 219.537 136.95 219.537ZM139.499 226.845H140.951V217.665H139.499V226.845ZM144.869 226.965C146.477 226.965 147.377 226.233 147.377 224.961C147.377 223.629 146.501 223.269 145.025 223.041C144.029 222.873 143.729 222.693 143.729 222.237C143.729 221.793 144.101 221.493 144.725 221.493C145.397 221.493 145.721 221.757 145.841 222.333H147.185C147.029 220.917 146.009 220.437 144.725 220.437C143.549 220.437 142.373 221.061 142.373 222.321C142.373 223.497 142.985 223.965 144.641 224.229C145.565 224.385 145.985 224.577 145.985 225.093C145.985 225.621 145.637 225.897 144.857 225.897C144.005 225.897 143.681 225.525 143.609 224.889H142.241C142.301 226.221 143.249 226.965 144.869 226.965ZM153.646 226.953C154.09 226.953 154.402 226.881 154.63 226.797V225.645C154.426 225.729 154.21 225.765 153.922 225.765C153.466 225.765 153.202 225.513 153.202 224.961V221.661H154.582V220.569H153.202V219.189H151.75V220.569H150.91V221.661H151.75V225.093C151.75 226.281 152.398 226.953 153.646 226.953ZM158.748 225.837C157.644 225.837 157.008 225.033 157.008 223.749V223.653C157.008 222.357 157.668 221.577 158.748 221.577C159.828 221.577 160.476 222.369 160.476 223.665V223.749C160.476 225.033 159.828 225.837 158.748 225.837ZM158.736 226.965C160.584 226.965 161.964 225.693 161.964 223.737V223.641C161.964 221.721 160.584 220.437 158.748 220.437C156.9 220.437 155.52 221.733 155.52 223.677V223.773C155.52 225.681 156.888 226.965 158.736 226.965ZM165.628 226.965C166.552 226.965 167.356 226.413 167.692 225.789V226.845H169.144V217.665H167.692V221.529C167.344 220.905 166.708 220.437 165.688 220.437C164.056 220.437 162.868 221.709 162.868 223.713V223.809C162.868 225.849 164.056 226.965 165.628 226.965ZM165.988 225.813C165.052 225.813 164.356 225.153 164.356 223.773V223.677C164.356 222.321 164.98 221.577 166.048 221.577C167.104 221.577 167.74 222.261 167.74 223.641V223.737C167.74 225.141 166.996 225.813 165.988 225.813ZM172.514 226.965C173.474 226.965 174.026 226.617 174.434 226.077V226.845H175.862V222.729C175.862 221.013 174.758 220.437 173.354 220.437C171.95 220.437 170.786 221.049 170.666 222.513H172.07C172.142 221.889 172.514 221.529 173.27 221.529C174.122 221.529 174.41 221.949 174.41 222.789V223.113H173.63C171.83 223.113 170.414 223.641 170.414 225.105C170.414 226.413 171.362 226.965 172.514 226.965ZM172.862 225.921C172.142 225.921 171.854 225.573 171.854 225.045C171.854 224.277 172.562 224.025 173.666 224.025H174.41V224.649C174.41 225.453 173.75 225.921 172.862 225.921ZM178.046 228.993H179.474L182.894 220.569H181.478L179.942 224.613L178.274 220.569H176.702L179.186 226.209L178.046 228.993Z" fill="#737A96"/><line x1="43.7605" y1="266.524" x2="548.312" y2="266.524" stroke="#F0F0F1"/><rect x="43.7605" y="218.524" width="32" height="32" rx="16" fill="#14B5D0"/><mask id="mask3" mask-type="alpha" maskUnits="userSpaceOnUse" x="43" y="218" width="33" height="33"><rect x="43.7605" y="218.524" width="32" height="32" rx="16" fill="white"/></mask><g mask="url(#mask3)"><path d="M43.7605 218.524H75.7605V250.524H43.7605V218.524Z" fill="#14B5D0"/><path fill-rule="evenodd" clip-rule="evenodd" d="M59.7605 229.024C58.3798 229.024 57.2605 230.143 57.2605 231.524C57.2605 232.904 58.3805 234.524 59.7605 234.524C61.1405 234.524 62.2605 232.904 62.2605 231.524C62.2605 230.143 61.1412 229.024 59.7605 229.024ZM55.2605 239.024C55.2605 239.3 55.4844 239.524 55.7605 239.524H63.7605C64.0366 239.524 64.2605 239.3 64.2605 239.024V237.91C64.2602 237.022 63.6752 236.241 62.8235 235.99C62.0175 235.752 60.9385 235.524 59.7605 235.524C58.7215 235.531 57.6887 235.686 56.6935 235.984C55.8433 236.235 55.26 237.016 55.2605 237.903V239.024Z" fill="white"/><path d="M70.1965 229.689C69.9315 229.894 69.6415 230.069 69.3295 230.203C69.9345 231.543 70.2605 233.01 70.2605 234.524C70.2605 240.314 65.5505 245.024 59.7605 245.024C53.9705 245.024 49.2605 240.314 49.2605 234.524C49.2605 228.734 53.9705 224.024 59.7605 224.024C61.7715 224.024 63.7355 224.614 65.4145 225.687C65.3152 225.955 65.2631 226.238 65.2605 226.524C65.2605 227.902 66.3825 229.024 67.7605 229.024C69.1385 229.024 70.2605 227.902 70.2605 226.524C70.2605 225.146 69.1385 224.024 67.7605 224.024C67.0365 224.024 66.3885 224.339 65.9315 224.832C64.0879 223.656 61.9474 223.029 59.7605 223.024C53.4195 223.024 48.2605 228.183 48.2605 234.524C48.2605 240.865 53.4195 246.024 59.7605 246.024C66.1015 246.024 71.2605 240.865 71.2605 234.524C71.2605 232.829 70.8885 231.184 70.1965 229.689Z" fill="white"/></g><path d="M232.297 175.788H234.173V165.778H232.297V175.788ZM239.138 175.928C240.216 175.928 241.154 175.284 241.546 174.556V175.788H243.24V165.078H241.546V169.586C241.14 168.858 240.398 168.312 239.208 168.312C237.304 168.312 235.918 169.796 235.918 172.134V172.246C235.918 174.626 237.304 175.928 239.138 175.928ZM239.558 174.584C238.466 174.584 237.654 173.814 237.654 172.204V172.092C237.654 170.51 238.382 169.642 239.628 169.642C240.86 169.642 241.602 170.44 241.602 172.05V172.162C241.602 173.8 240.734 174.584 239.558 174.584ZM248.474 175.928C250.35 175.928 251.596 175.088 251.834 173.548H250.196C250.07 174.262 249.538 174.668 248.516 174.668C247.256 174.668 246.556 173.884 246.5 172.498H251.862V172.008C251.862 169.39 250.224 168.312 248.404 168.312C246.318 168.312 244.764 169.824 244.764 172.092V172.204C244.764 174.514 246.318 175.928 248.474 175.928ZM246.528 171.364C246.696 170.23 247.382 169.544 248.404 169.544C249.454 169.544 250.098 170.104 250.182 171.364H246.528ZM253.375 175.788H255.069V171.476C255.069 170.314 255.839 169.726 256.791 169.726C257.799 169.726 258.247 170.23 258.247 171.336V175.788H259.941V171.182C259.941 169.166 258.905 168.312 257.435 168.312C256.231 168.312 255.419 168.914 255.069 169.628V168.466H253.375V175.788ZM264.384 175.914C264.902 175.914 265.266 175.83 265.532 175.732V174.388C265.294 174.486 265.042 174.528 264.706 174.528C264.174 174.528 263.866 174.234 263.866 173.59V169.74H265.476V168.466H263.866V166.856H262.172V168.466H261.192V169.74H262.172V173.744C262.172 175.13 262.928 175.914 264.384 175.914ZM267.102 175.788H268.796V168.466H267.102V175.788ZM267.928 167.262C268.488 167.262 268.936 166.842 268.936 166.296C268.936 165.736 268.488 165.316 267.928 165.316C267.368 165.316 266.92 165.736 266.92 166.296C266.92 166.842 267.368 167.262 267.928 167.262ZM273.353 175.914C273.871 175.914 274.235 175.83 274.501 175.732V174.388C274.263 174.486 274.011 174.528 273.675 174.528C273.143 174.528 272.835 174.234 272.835 173.59V169.74H274.445V168.466H272.835V166.856H271.141V168.466H270.161V169.74H271.141V173.744C271.141 175.13 271.897 175.914 273.353 175.914ZM276.071 175.788H277.765V168.466H276.071V175.788ZM276.897 167.262C277.457 167.262 277.905 166.842 277.905 166.296C277.905 165.736 277.457 165.316 276.897 165.316C276.337 165.316 275.889 165.736 275.889 166.296C275.889 166.842 276.337 167.262 276.897 167.262ZM283.05 175.928C284.926 175.928 286.172 175.088 286.41 173.548H284.772C284.646 174.262 284.114 174.668 283.092 174.668C281.832 174.668 281.132 173.884 281.076 172.498H286.438V172.008C286.438 169.39 284.8 168.312 282.98 168.312C280.894 168.312 279.34 169.824 279.34 172.092V172.204C279.34 174.514 280.894 175.928 283.05 175.928ZM281.104 171.364C281.272 170.23 281.958 169.544 282.98 169.544C284.03 169.544 284.674 170.104 284.758 171.364H281.104ZM290.525 175.928C292.401 175.928 293.451 175.074 293.451 173.59C293.451 172.036 292.429 171.616 290.707 171.35C289.545 171.154 289.195 170.944 289.195 170.412C289.195 169.894 289.629 169.544 290.357 169.544C291.141 169.544 291.519 169.852 291.659 170.524H293.227C293.045 168.872 291.855 168.312 290.357 168.312C288.985 168.312 287.613 169.04 287.613 170.51C287.613 171.882 288.327 172.428 290.259 172.736C291.337 172.918 291.827 173.142 291.827 173.744C291.827 174.36 291.421 174.682 290.511 174.682C289.517 174.682 289.139 174.248 289.055 173.506H287.459C287.529 175.06 288.635 175.928 290.525 175.928Z" fill="#737A96"/><path d="M122.543 175.788H124.293L125.077 173.31H128.899L129.697 175.788H131.629L128.325 165.778H125.889L122.543 175.788ZM126.995 167.304L128.465 171.952H125.511L126.995 167.304ZM135.262 175.928C136.452 175.928 137.222 175.354 137.586 174.64V175.788H139.28V168.466H137.586V172.82C137.586 173.982 136.788 174.57 135.878 174.57C134.898 174.57 134.436 174.066 134.436 172.96V168.466H132.742V173.156C132.742 175.102 133.82 175.928 135.262 175.928ZM144.032 175.928C145.11 175.928 146.048 175.284 146.44 174.556V175.788H148.134V165.078H146.44V169.586C146.034 168.858 145.292 168.312 144.102 168.312C142.198 168.312 140.812 169.796 140.812 172.134V172.246C140.812 174.626 142.198 175.928 144.032 175.928ZM144.452 174.584C143.36 174.584 142.548 173.814 142.548 172.204V172.092C142.548 170.51 143.276 169.642 144.522 169.642C145.754 169.642 146.496 170.44 146.496 172.05V172.162C146.496 173.8 145.628 174.584 144.452 174.584ZM150.19 175.788H151.884V168.466H150.19V175.788ZM151.016 167.262C151.576 167.262 152.024 166.842 152.024 166.296C152.024 165.736 151.576 165.316 151.016 165.316C150.456 165.316 150.008 165.736 150.008 166.296C150.008 166.842 150.456 167.262 151.016 167.262ZM157.168 175.928C159.044 175.928 160.29 175.088 160.528 173.548H158.89C158.764 174.262 158.232 174.668 157.21 174.668C155.95 174.668 155.25 173.884 155.194 172.498H160.556V172.008C160.556 169.39 158.918 168.312 157.098 168.312C155.012 168.312 153.458 169.824 153.458 172.092V172.204C153.458 174.514 155.012 175.928 157.168 175.928ZM155.222 171.364C155.39 170.23 156.076 169.544 157.098 169.544C158.148 169.544 158.792 170.104 158.876 171.364H155.222ZM162.069 175.788H163.763V171.476C163.763 170.314 164.533 169.726 165.485 169.726C166.493 169.726 166.941 170.23 166.941 171.336V175.788H168.635V171.182C168.635 169.166 167.599 168.312 166.129 168.312C164.925 168.312 164.113 168.914 163.763 169.628V168.466H162.069V175.788ZM173.793 175.928C175.781 175.928 177.055 174.738 177.181 173.058H175.627C175.529 174.094 174.759 174.626 173.863 174.626C172.617 174.626 171.833 173.786 171.833 172.19V172.078C171.833 170.566 172.659 169.67 173.821 169.67C174.717 169.67 175.361 170.076 175.501 171.056H177.139C176.943 169.04 175.417 168.312 173.793 168.312C171.749 168.312 170.097 169.782 170.097 172.106V172.218C170.097 174.556 171.693 175.928 173.793 175.928ZM181.86 175.928C183.736 175.928 184.982 175.088 185.22 173.548H183.582C183.456 174.262 182.924 174.668 181.902 174.668C180.642 174.668 179.942 173.884 179.886 172.498H185.248V172.008C185.248 169.39 183.61 168.312 181.79 168.312C179.704 168.312 178.15 169.824 178.15 172.092V172.204C178.15 174.514 179.704 175.928 181.86 175.928ZM179.914 171.364C180.082 170.23 180.768 169.544 181.79 169.544C182.84 169.544 183.484 170.104 183.568 171.364H179.914ZM189.335 175.928C191.211 175.928 192.261 175.074 192.261 173.59C192.261 172.036 191.239 171.616 189.517 171.35C188.355 171.154 188.005 170.944 188.005 170.412C188.005 169.894 188.439 169.544 189.167 169.544C189.951 169.544 190.329 169.852 190.469 170.524H192.037C191.855 168.872 190.665 168.312 189.167 168.312C187.795 168.312 186.423 169.04 186.423 170.51C186.423 171.882 187.137 172.428 189.069 172.736C190.147 172.918 190.637 173.142 190.637 173.744C190.637 174.36 190.231 174.682 189.321 174.682C188.327 174.682 187.949 174.248 187.865 173.506H186.269C186.339 175.06 187.445 175.928 189.335 175.928Z" fill="#737A96"/><rect x="37.2347" y="156.096" width="59.6772" height="31.1946" rx="5" fill="#ECEEF3"/><path d="M52.134 175.788H54.01V167.248H56.796V165.778H49.348V167.248H52.134V175.788ZM57.6619 175.788H59.3559V171.98C59.3559 170.426 60.2519 169.95 61.7359 169.936V168.354C60.5039 168.368 59.8179 168.914 59.3559 169.838V168.466H57.6619V175.788ZM65.0077 175.928C66.1277 175.928 66.7717 175.522 67.2477 174.892V175.788H68.9137V170.986C68.9137 168.984 67.6257 168.312 65.9877 168.312C64.3497 168.312 62.9917 169.026 62.8517 170.734H64.4897C64.5737 170.006 65.0077 169.586 65.8897 169.586C66.8837 169.586 67.2197 170.076 67.2197 171.056V171.434H66.3097C64.2097 171.434 62.5577 172.05 62.5577 173.758C62.5577 175.284 63.6637 175.928 65.0077 175.928ZM65.4137 174.71C64.5737 174.71 64.2377 174.304 64.2377 173.688C64.2377 172.792 65.0637 172.498 66.3517 172.498H67.2197V173.226C67.2197 174.164 66.4497 174.71 65.4137 174.71ZM70.8973 175.788H72.5913V168.466H70.8973V175.788ZM71.7233 167.262C72.2833 167.262 72.7313 166.842 72.7313 166.296C72.7313 165.736 72.2833 165.316 71.7233 165.316C71.1633 165.316 70.7153 165.736 70.7153 166.296C70.7153 166.842 71.1633 167.262 71.7233 167.262ZM77.1481 175.914C77.6661 175.914 78.0301 175.83 78.2961 175.732V174.388C78.0581 174.486 77.8061 174.528 77.4701 174.528C76.9381 174.528 76.6301 174.234 76.6301 173.59V169.74H78.2401V168.466H76.6301V166.856H74.9361V168.466H73.9561V169.74H74.9361V173.744C74.9361 175.13 75.6921 175.914 77.1481 175.914ZM82.3984 175.928C84.2744 175.928 85.3244 175.074 85.3244 173.59C85.3244 172.036 84.3024 171.616 82.5804 171.35C81.4184 171.154 81.0684 170.944 81.0684 170.412C81.0684 169.894 81.5024 169.544 82.2304 169.544C83.0144 169.544 83.3924 169.852 83.5324 170.524H85.1004C84.9184 168.872 83.7284 168.312 82.2304 168.312C80.8584 168.312 79.4864 169.04 79.4864 170.51C79.4864 171.882 80.2004 172.428 82.1324 172.736C83.2104 172.918 83.7004 173.142 83.7004 173.744C83.7004 174.36 83.2944 174.682 82.3844 174.682C81.3904 174.682 81.0124 174.248 80.9284 173.506H79.3324C79.4024 175.06 80.5084 175.928 82.3984 175.928Z" fill="#0D1537"/><path fill-rule="evenodd" clip-rule="evenodd" d="M500.764 50.6371H517.34C517.792 50.6371 518.094 50.9385 518.094 51.3906V67.967C518.094 68.4191 517.792 68.7205 517.34 68.7205H500.764C500.312 68.7205 500.01 68.4191 500.01 67.967V51.3906C500.01 50.9385 500.312 50.6371 500.764 50.6371ZM502.724 66.0842H505.361H505.436V57.4193H502.724V66.0842ZM504.005 56.2145C503.176 56.2145 502.423 55.5364 502.423 54.6322C502.423 53.8034 503.101 53.0499 504.005 53.0499C504.834 53.0499 505.587 53.7281 505.587 54.6322C505.587 55.5364 504.909 56.2145 504.005 56.2145ZM512.743 66.0836H515.455V61.4121C515.455 59.0763 514.928 57.268 512.215 57.268C510.859 57.268 510.03 57.9461 509.653 58.6242V57.4187H507.092V66.0836H509.804V61.7888C509.804 60.6586 509.955 59.6037 511.386 59.6037C512.743 59.6037 512.743 60.8846 512.743 61.8642V66.0836Z" fill="#0D1537"/><path d="M553.129 54.0295C552.45 54.3686 551.772 54.4816 550.981 54.5947C551.772 54.1426 552.337 53.4644 552.563 52.5603C551.885 53.0124 551.094 53.2384 550.19 53.4644C549.512 52.7863 548.495 52.3342 547.477 52.3342C545.556 52.3342 543.861 54.0295 543.861 56.0639C543.861 56.403 543.861 56.629 543.974 56.8551C540.922 56.7421 538.097 55.2728 536.288 53.0124C535.949 53.5775 535.836 54.1426 535.836 54.9337C535.836 56.1769 536.514 57.3072 537.532 57.9853C536.967 57.9853 536.401 57.7592 535.836 57.5332C535.836 59.3415 537.08 60.8108 538.775 61.1499C538.436 61.2629 538.097 61.2629 537.758 61.2629C537.532 61.2629 537.306 61.2629 537.08 61.1499C537.532 62.6191 538.888 63.7494 540.583 63.7494C539.34 64.7666 537.758 65.3317 535.949 65.3317C535.61 65.3317 535.384 65.3317 535.045 65.3317C536.74 66.3488 538.662 67.027 540.696 67.027C547.477 67.027 551.207 61.3759 551.207 56.516C551.207 56.403 551.207 56.1769 551.207 56.0639C551.998 55.4988 552.676 54.8207 553.129 54.0295Z" fill="#0D1537"/><path d="M538.911 422.229H544.598V421.096H541.254L543.003 419.391C543.938 418.489 544.543 417.598 544.543 416.575C544.543 415.189 543.575 414.254 541.947 414.254C540.286 414.254 539.252 415.244 539.153 416.96H540.495C540.627 415.849 541.122 415.398 541.903 415.398C542.662 415.398 543.08 415.86 543.08 416.597C543.08 417.345 542.629 418.038 541.881 418.83L538.911 421.965V422.229ZM548.053 422.339C548.9 422.339 549.637 421.833 549.945 421.261V422.229H551.276V413.814H549.945V417.356C549.626 416.784 549.043 416.355 548.108 416.355C546.612 416.355 545.523 417.521 545.523 419.358V419.446C545.523 421.316 546.612 422.339 548.053 422.339ZM548.383 421.283C547.525 421.283 546.887 420.678 546.887 419.413V419.325C546.887 418.082 547.459 417.4 548.438 417.4C549.406 417.4 549.989 418.027 549.989 419.292V419.38C549.989 420.667 549.307 421.283 548.383 421.283Z" fill="#737A96"/><path d="M538.531 357.339C540.225 357.339 541.424 356.294 541.424 354.633C541.424 352.983 540.423 351.993 539.004 351.993C538.168 351.993 537.618 352.301 537.31 352.653L537.321 350.519H540.973V349.364H536.199L536.133 353.742H536.881C537.233 353.335 537.717 353.06 538.52 353.06C539.389 353.06 539.939 353.665 539.939 354.611C539.939 355.579 539.422 356.206 538.52 356.206C537.508 356.206 537.211 355.7 537.09 354.974H535.726C535.814 356.327 536.683 357.339 538.531 357.339ZM542.76 357.229H544.091V353.786C544.091 352.906 544.696 352.466 545.356 352.466C546.005 352.466 546.379 352.829 546.379 353.676V357.229H547.71V353.786C547.71 352.906 548.315 352.466 548.975 352.466C549.635 352.466 549.998 352.829 549.998 353.676V357.229H551.329V353.588C551.329 352.004 550.471 351.355 549.415 351.355C548.7 351.355 547.908 351.674 547.468 352.389C547.182 351.674 546.588 351.355 545.84 351.355C544.993 351.355 544.366 351.817 544.091 352.356V351.476H542.76V357.229Z" fill="#737A96"/><path d="M535.774 292.229H541.461V291.096H538.117L539.866 289.391C540.801 288.489 541.406 287.598 541.406 286.575C541.406 285.189 540.438 284.254 538.81 284.254C537.149 284.254 536.115 285.244 536.016 286.96H537.358C537.49 285.849 537.985 285.398 538.766 285.398C539.525 285.398 539.943 285.86 539.943 286.597C539.943 287.345 539.492 288.038 538.744 288.83L535.774 291.965V292.229ZM542.76 292.229H544.091V288.786C544.091 287.906 544.696 287.466 545.356 287.466C546.005 287.466 546.379 287.829 546.379 288.676V292.229H547.71V288.786C547.71 287.906 548.315 287.466 548.975 287.466C549.635 287.466 549.998 287.829 549.998 288.676V292.229H551.329V288.588C551.329 287.004 550.471 286.355 549.415 286.355C548.7 286.355 547.908 286.674 547.468 287.389C547.182 286.674 546.588 286.355 545.84 286.355C544.993 286.355 544.366 286.817 544.091 287.356V286.476H542.76V292.229Z" fill="#737A96"/><path d="M533.669 227.229H539.356V226.096H536.012L537.761 224.391C538.696 223.489 539.301 222.598 539.301 221.575C539.301 220.189 538.333 219.254 536.705 219.254C535.044 219.254 534.01 220.244 533.911 221.96H535.253C535.385 220.849 535.88 220.398 536.661 220.398C537.42 220.398 537.838 220.86 537.838 221.597C537.838 222.345 537.387 223.038 536.639 223.83L533.669 226.965V227.229ZM543.819 227.229H545.238V225.634H546.294V224.545H545.238V219.364H543.401L539.925 225.117V225.634H543.819V227.229ZM541.487 224.545L543.841 220.475V224.545H541.487ZM549.392 227.339C550.866 227.339 551.691 226.668 551.691 225.502C551.691 224.281 550.888 223.951 549.535 223.742C548.622 223.588 548.347 223.423 548.347 223.005C548.347 222.598 548.688 222.323 549.26 222.323C549.876 222.323 550.173 222.565 550.283 223.093H551.515C551.372 221.795 550.437 221.355 549.26 221.355C548.182 221.355 547.104 221.927 547.104 223.082C547.104 224.16 547.665 224.589 549.183 224.831C550.03 224.974 550.415 225.15 550.415 225.623C550.415 226.107 550.096 226.36 549.381 226.36C548.6 226.36 548.303 226.019 548.237 225.436H546.983C547.038 226.657 547.907 227.339 549.392 227.339Z" fill="#737A96"/><path d="M147.733 67.9923C150.673 67.9923 152.433 66.4323 152.433 63.1923V53.5123H149.173V63.1523C149.173 64.7923 148.373 65.4123 147.153 65.4123C146.313 65.4123 145.833 65.2523 145.353 65.0723V67.5523C145.853 67.8123 146.493 67.9923 147.733 67.9923ZM157.796 68.0323C159.436 68.0323 160.356 67.3923 160.956 66.5523V67.8123H163.776V60.9923C163.776 58.1523 161.956 57.1123 159.396 57.1123C156.836 57.1123 154.876 58.2123 154.696 60.6923H157.436C157.556 59.7923 158.076 59.2123 159.216 59.2123C160.536 59.2123 160.916 59.8923 160.916 61.1323V61.5523H159.736C156.536 61.5523 154.296 62.4723 154.296 64.9123C154.296 67.1123 155.896 68.0323 157.796 68.0323ZM158.656 66.0123C157.596 66.0123 157.136 65.5123 157.136 64.7523C157.136 63.6323 158.116 63.2723 159.796 63.2723H160.916V64.1523C160.916 65.3123 159.936 66.0123 158.656 66.0123ZM166.265 67.8123H169.165V61.7723C169.165 60.2323 170.105 59.4723 171.345 59.4723C172.625 59.4723 173.185 60.1523 173.185 61.5723V67.8123H176.085V61.1523C176.085 58.3523 174.625 57.1123 172.565 57.1123C170.825 57.1123 169.685 57.9723 169.165 59.0123V57.3523H166.265V67.8123ZM183.39 68.0323C186.25 68.0323 188.05 66.7723 188.39 64.5123H185.65C185.47 65.3923 184.81 65.9723 183.47 65.9723C181.89 65.9723 180.95 64.9723 180.87 63.2323H188.41V62.4323C188.41 58.6923 186.01 57.1123 183.31 57.1123C180.27 57.1123 177.93 59.2523 177.93 62.5523V62.7123C177.93 66.0523 180.23 68.0323 183.39 68.0323ZM180.91 61.4523C181.13 59.9723 182.01 59.1123 183.31 59.1123C184.69 59.1123 185.49 59.8723 185.59 61.4523H180.91ZM195.002 67.8123H198.242V61.3923L203.182 67.8123H206.962L201.022 60.2723L206.682 53.4923H203.242L198.242 59.6723V53.5123H195.002V67.8123ZM208.435 67.8123H211.315V57.3523H208.435V67.8123ZM209.855 55.9323C210.795 55.9323 211.515 55.2523 211.515 54.3523C211.515 53.4523 210.795 52.7723 209.855 52.7723C208.935 52.7723 208.215 53.4523 208.215 54.3523C208.215 55.2523 208.935 55.9323 209.855 55.9323ZM213.98 67.8123H216.88V61.6323C216.88 60.2123 217.78 59.4923 218.9 59.4923C219.92 59.4923 220.54 60.0923 220.54 61.4323V67.8123H223.42V61.6323C223.42 60.2123 224.32 59.4923 225.44 59.4923C226.48 59.4923 227.08 60.0923 227.08 61.4323V67.8123H229.96V61.1123C229.96 58.3323 228.46 57.1123 226.52 57.1123C225.2 57.1123 223.84 57.6723 223 58.9323C222.5 57.6923 221.46 57.1123 220.08 57.1123C218.52 57.1123 217.4 57.9723 216.88 58.9523V57.3523H213.98V67.8123Z" fill="#0D1537"/><path d="M144.779 96.5001C146.403 96.444 147.019 95.688 147.019 94.288V86.504H145.857V94.386C145.857 95.03 145.605 95.45 144.779 95.52V96.5001ZM146.417 84.978C146.837 84.978 147.187 84.628 147.187 84.208C147.187 83.788 146.837 83.438 146.417 83.438C145.997 83.438 145.647 83.788 145.647 84.208C145.647 84.628 145.997 84.978 146.417 84.978ZM149.648 93.826H150.81V90.032L154.058 93.826H155.472L152.07 89.906L155.206 86.504H153.848L150.81 89.878V83.004H149.648V93.826ZM157.144 93.826H158.306V86.504H157.144V93.826ZM157.704 84.978C158.124 84.978 158.474 84.628 158.474 84.208C158.474 83.788 158.124 83.438 157.704 83.438C157.284 83.438 156.934 83.788 156.934 84.208C156.934 84.628 157.284 84.978 157.704 84.978ZM160.935 93.826H162.097V89.346C162.097 88.03 163.077 87.386 164.029 87.386C165.037 87.386 165.583 87.918 165.583 89.206V93.826H166.745V89.346C166.745 88.03 167.725 87.386 168.677 87.386C169.685 87.386 170.231 87.918 170.231 89.206V93.826H171.393V89.29C171.393 87.162 170.245 86.378 168.929 86.378C168.019 86.378 166.927 86.798 166.423 87.75C166.045 86.77 165.219 86.378 164.281 86.378C163.231 86.378 162.433 86.938 162.097 87.624V86.504H160.935V93.826ZM179.177 95.884C181.193 95.884 182.845 95.044 183.559 93.826H182.481C181.613 94.568 180.703 94.96 179.177 94.96C176.055 94.96 174.459 92.706 174.459 90.158C174.459 87.19 176.531 85.118 179.359 85.118C182.243 85.118 183.923 86.84 183.923 89.346C183.923 91.25 183.111 92.048 182.313 92.048C181.781 92.048 181.543 91.684 181.641 90.942L182.061 87.414H180.899L180.801 88.254C180.605 87.778 180.101 87.302 179.107 87.302C177.581 87.302 176.349 88.674 176.349 90.55C176.349 92.062 177.245 92.986 178.603 92.986C179.471 92.986 180.283 92.412 180.689 91.684C180.801 92.412 181.165 92.888 182.299 92.888C183.419 92.888 184.931 91.95 184.931 89.318C184.931 86.434 182.705 84.194 179.359 84.194C176.125 84.194 173.381 86.756 173.381 90.186C173.381 93.168 175.439 95.884 179.177 95.884ZM178.855 92.09C178.099 92.09 177.539 91.516 177.539 90.536C177.539 89.066 178.309 88.226 179.191 88.226C180.101 88.226 180.647 88.744 180.647 89.808C180.647 91.292 179.723 92.09 178.855 92.09ZM189.983 93.952C191.635 93.952 192.853 93.182 193.105 91.712H191.943C191.789 92.566 191.131 92.986 189.997 92.986C188.499 92.986 187.701 92.062 187.645 90.396H193.161V90.018C193.161 87.4 191.565 86.378 189.871 86.378C187.855 86.378 186.441 87.918 186.441 90.13V90.242C186.441 92.496 187.911 93.952 189.983 93.952ZM187.687 89.458C187.883 88.156 188.681 87.344 189.871 87.344C191.075 87.344 191.859 87.946 191.971 89.458H187.687ZM195.194 93.826H196.356V89.346C196.356 88.03 197.336 87.386 198.288 87.386C199.296 87.386 199.842 87.918 199.842 89.206V93.826H201.004V89.346C201.004 88.03 201.984 87.386 202.936 87.386C203.944 87.386 204.49 87.918 204.49 89.206V93.826H205.652V89.29C205.652 87.162 204.504 86.378 203.188 86.378C202.278 86.378 201.186 86.798 200.682 87.75C200.304 86.77 199.478 86.378 198.54 86.378C197.49 86.378 196.692 86.938 196.356 87.624V86.504H195.194V93.826ZM210.021 93.952C211.099 93.952 211.757 93.588 212.303 92.902V93.826H213.465V88.996C213.465 86.952 212.191 86.378 210.791 86.378C209.377 86.378 208.047 86.994 207.893 88.66H209.055C209.167 87.764 209.727 87.344 210.735 87.344C211.855 87.344 212.303 87.834 212.303 88.996V89.528H211.253C209.377 89.528 207.585 90.102 207.585 91.796C207.585 93.294 208.663 93.952 210.021 93.952ZM210.133 93.028C209.111 93.028 208.747 92.552 208.747 91.796C208.747 90.718 209.825 90.354 211.295 90.354H212.303V91.264C212.303 92.398 211.365 93.028 210.133 93.028ZM216.025 93.826H217.187V86.504H216.025V93.826ZM216.585 84.978C217.005 84.978 217.355 84.628 217.355 84.208C217.355 83.788 217.005 83.438 216.585 83.438C216.165 83.438 215.815 83.788 215.815 84.208C215.815 84.628 216.165 84.978 216.585 84.978ZM219.844 93.826H221.02V83.004H219.844V93.826ZM224.446 93.896C224.936 93.896 225.342 93.504 225.342 93C225.342 92.496 224.936 92.104 224.446 92.104C223.956 92.104 223.55 92.496 223.55 93C223.55 93.504 223.956 93.896 224.446 93.896ZM230.531 93.952C232.295 93.952 233.569 92.776 233.723 91.194H232.645C232.519 92.384 231.581 92.986 230.545 92.986C229.131 92.986 228.151 92.034 228.151 90.242V90.13C228.151 88.408 229.173 87.344 230.503 87.344C231.511 87.344 232.351 87.778 232.533 88.94H233.681C233.457 87.078 232.029 86.378 230.503 86.378C228.543 86.378 226.947 87.89 226.947 90.13V90.242C226.947 92.51 228.487 93.952 230.531 93.952ZM238.78 92.986C237.296 92.986 236.386 91.894 236.386 90.228V90.116C236.386 88.436 237.31 87.344 238.78 87.344C240.236 87.344 241.174 88.436 241.174 90.13V90.228C241.174 91.88 240.25 92.986 238.78 92.986ZM238.766 93.952C240.852 93.952 242.378 92.426 242.378 90.214V90.102C242.378 87.904 240.852 86.378 238.78 86.378C236.708 86.378 235.182 87.918 235.182 90.116V90.228C235.182 92.37 236.68 93.952 238.766 93.952ZM244.427 93.826H245.589V89.346C245.589 88.03 246.569 87.386 247.521 87.386C248.529 87.386 249.075 87.918 249.075 89.206V93.826H250.237V89.346C250.237 88.03 251.217 87.386 252.169 87.386C253.177 87.386 253.723 87.918 253.723 89.206V93.826H254.885V89.29C254.885 87.162 253.737 86.378 252.421 86.378C251.511 86.378 250.419 86.798 249.915 87.75C249.537 86.77 248.711 86.378 247.773 86.378C246.723 86.378 245.925 86.938 245.589 87.624V86.504H244.427V93.826Z" fill="#262E4F" fill-opacity="0.5"/><circle cx="80.7506" cy="81.8261" r="43.8312" fill="#E8E3FF"/><mask id="mask4" mask-type="alpha" maskUnits="userSpaceOnUse" x="36" y="15" width="90" height="111"><path fill-rule="evenodd" clip-rule="evenodd" d="M125.38 15.4333H37.1404V77.397C36.9943 78.8535 36.9194 80.331 36.9194 81.8261C36.9194 106.033 56.5433 125.657 80.7506 125.657C103.923 125.657 122.896 107.675 124.475 84.9041H125.38V15.4333Z" fill="#E8E3FF"/></mask><g mask="url(#mask4)"><path fill-rule="evenodd" clip-rule="evenodd" d="M64.1074 36.9432C62.2887 38.4981 59.3792 41.0846 58.151 42.7233C55.1923 46.671 53.9459 51.1982 53.9209 52.1274C53.8946 53.106 54.1115 54.0741 54.3088 54.9544C54.4021 55.3705 54.4909 55.767 54.5476 56.1357C54.722 57.2702 54.5861 58.1407 54.2343 58.6023C53.3261 59.7938 52.3291 60.7594 51.4426 61.618C50.4939 62.5368 49.6718 63.3331 49.2209 64.1522C48.3486 65.7367 48.57 66.9006 49.5342 67.2355C51.9314 68.0681 51.6633 68.7757 51.3573 69.5833C51.3233 69.673 51.2889 69.7639 51.2576 69.8563C51.1375 70.2106 50.8462 70.643 50.5453 71.0897C50.0606 71.8091 49.5508 72.5657 49.6909 73.0938C49.8472 73.6833 50.2832 73.9437 50.7139 74.201C51.1727 74.475 51.6254 74.7453 51.7276 75.4062C51.7925 75.8261 51.5082 76.3022 51.2354 76.7592C50.9946 77.1625 50.7627 77.551 50.7875 77.8729C50.8774 79.0362 52.3542 79.1062 52.3542 79.1062C52.3542 79.1062 52.9165 80.743 52.6676 81.1103C51.7276 82.4978 52.0748 84.6145 52.3542 84.9644C54.0776 87.1227 57.5243 86.6602 57.5243 86.6602C57.5243 86.6602 63.6344 85.4269 67.3944 84.8103C71.1545 84.1936 75.3846 95.9101 75.3846 95.9101L78.2046 105.314C78.2046 105.314 73.1912 104.081 68.3345 109.322C63.4777 114.564 60.971 134.451 60.971 134.451L120.975 133.68C120.975 133.68 122.385 128.285 118.155 116.568C117.744 115.429 116.8 114.303 115.936 113.272C115.296 112.51 114.7 111.799 114.395 111.172C113.33 108.986 110.523 105.954 107.032 102.693C106.404 102.108 105.715 101.587 105.013 101.057C103.688 100.058 102.318 99.0239 101.235 97.4518C99.1335 94.4016 97.4749 85.4269 97.4749 85.4269C97.4749 85.4269 97.9186 80.9445 98.5007 77.9377L99.85 79.8186C99.85 79.8186 99.6934 76.1187 101.887 72.727C102.701 71.4676 103.17 70.8884 103.542 70.4291C104.171 69.6513 104.523 69.2169 105.803 66.4063C107.84 61.9355 107.997 56.0773 107.997 56.0773C107.997 56.0773 113.01 56.2314 114.264 53.7648C114.831 52.6478 116.482 48.8133 116.144 46.9815C115.805 45.1498 113.01 42.0483 111.914 41.5858C110.817 41.1233 106.9 41.74 106.9 41.74C106.9 41.74 105.362 38.3457 104.393 36.8067C103.785 35.84 105.022 36.7288 106.046 37.4647C106.652 37.9004 107.184 38.2826 107.213 38.1942C107.276 38.0102 106.637 35.6182 105.02 33.8776C102.572 31.2424 98.1329 28.6541 95.62 27.711C92.8521 26.6722 89.1199 26.4661 86.9862 26.3483C85.8739 26.2869 85.196 26.2495 85.3157 26.1306C85.5776 25.8703 88.1887 26.0005 89.8206 26.0818C90.3646 26.1089 90.7998 26.1306 91.0029 26.1306C91.8154 26.1306 86.9406 24.5304 81.9898 25.3305C77.1131 26.1186 72.8751 29.4587 72.0005 30.148C71.9872 30.1585 71.9747 30.1684 71.963 30.1776C71.8646 30.255 71.6609 30.4077 71.3803 30.618C69.6469 31.9173 64.9798 35.4153 64.1074 36.9432Z" fill="#53439A" style="mix-blend-mode:multiply"/><path opacity="0.5" fill-rule="evenodd" clip-rule="evenodd" d="M57.7061 84.7518C57.2361 84.4435 61.3095 69.0271 62.2495 67.9479C63.1895 66.8688 78.8564 56.0772 78.8564 56.2314C78.8564 56.3856 80.7364 62.0897 81.0498 61.473C81.3631 60.8563 82.6165 58.0814 82.6165 58.0814C82.6165 58.0814 86.5743 54.8439 87.6299 54.8439C88.4132 54.8439 89.0399 56.3856 88.5699 56.6939C87.2728 57.5448 86.2198 60.0855 86.2198 60.0855L85.9065 62.5522C85.9065 62.5522 83.2431 65.173 84.4965 65.6354C85.7498 66.0979 85.9065 63.4771 86.3765 62.7063C86.8465 61.9355 87.0032 60.0855 87.0032 60.0855C87.0032 60.0855 89.8232 56.6939 91.7033 57.4647C93.5833 58.2356 93.4432 59.4437 92.9566 61.3188C92.4701 63.194 90.1366 64.7105 89.8232 64.7105C89.5099 64.7105 85.5932 65.4813 85.4365 65.7896C85.2798 66.0979 81.9898 69.0271 81.9898 69.0271L84.9665 69.875C84.9665 69.875 81.6765 79.3561 80.8931 79.6644C80.1098 79.9727 63.8162 84.4435 63.8162 84.4435C63.8162 84.4435 58.1761 85.0602 57.7061 84.7518Z" fill="#382683"/><path fill-rule="evenodd" clip-rule="evenodd" d="M72.7463 108.801C73.2163 109.11 75.4097 116.047 75.4097 116.047L81.0497 110.343C81.0497 110.343 77.2897 111.422 76.898 111.268C76.5063 111.114 72.2763 108.493 72.7463 108.801Z" fill="#14B5D0" style="mix-blend-mode:multiply"/><path fill-rule="evenodd" clip-rule="evenodd" d="M50.5151 71.3373C50.8536 71.2706 56.8117 74.019 56.8117 74.4044C56.8117 74.7898 52.7218 79.0267 52.2077 79.0717C51.6937 79.1167 50.7182 78.805 50.7859 77.7382C50.8536 76.6714 51.8015 76.4047 51.7338 75.4712C51.6661 74.5377 49.7026 73.871 49.7026 72.9375C49.7026 72.004 50.1766 71.4039 50.5151 71.3373Z" fill="#53439A" style="mix-blend-mode:multiply"/><path fill-rule="evenodd" clip-rule="evenodd" d="M61.9362 126.53C61.9362 126.53 72.5392 108.215 74.4697 107.106C76.2672 106.072 77.4464 105.256 77.4464 105.256H78.543C78.543 105.256 74.9364 108.04 74.4697 109.418C73.373 112.656 72.903 116.972 72.903 116.972C72.903 116.972 81.4869 115.834 85.2798 114.66C95.0381 111.638 101.07 108.739 103.14 108.339C107.453 107.506 110.503 106.181 110.503 106.181C110.503 106.181 116.3 113.118 115.83 112.964C115.36 112.81 111.092 109.39 102.357 112.964C93.6211 116.538 92.4866 119.13 87.6298 123.601C82.7731 128.072 81.5198 134.239 81.5198 134.239H60.6828L61.9362 126.53Z" fill="#53439A" style="mix-blend-mode:multiply"/><path fill-rule="evenodd" clip-rule="evenodd" d="M56.7661 49.1398C56.7661 49.294 56.1394 50.9898 56.4527 51.2981C56.5811 51.4244 57.9964 50.4236 59.8995 50.0648C61.8025 49.7061 63.6595 50.3732 63.8162 50.219C63.9729 50.0648 61.4907 48.5232 60.8395 48.369C60.1882 48.2149 56.7661 48.9857 56.7661 49.1398Z" fill="#53439A" style="mix-blend-mode:multiply"/><path fill-rule="evenodd" clip-rule="evenodd" d="M97.97 77.1978L99.85 79.8186C99.85 79.8186 99.6933 76.1187 101.887 72.727C104.08 69.3354 103.767 70.8771 105.803 66.4063C107.84 61.9355 107.997 56.0773 107.997 56.0773C107.997 56.0773 113.01 56.2314 114.264 53.7648C114.831 52.6478 116.482 48.8133 116.144 46.9815C115.805 45.1498 113.01 42.0483 111.913 41.5858C110.817 41.1233 106.9 41.74 106.9 41.74C106.9 41.74 105.362 38.3457 104.393 36.8067C103.425 35.2677 107.133 38.4319 107.213 38.1942C107.276 38.0102 106.637 35.6182 105.02 33.8776C102.572 31.2424 98.1329 28.6541 95.6199 27.711C91.4091 26.1306 84.9664 26.4777 85.3156 26.1306C85.6648 25.7835 90.1904 26.1306 91.0029 26.1306C91.8154 26.1306 86.9406 24.5304 81.9897 25.3305C77.0389 26.1306 72.7463 29.5609 71.9629 30.1776C71.1796 30.7943 63.7068 36.1895 63.9728 37.4233C64.2388 38.6572 73.6863 34.4942 72.5896 35.7275C71.4929 36.9608 69.1153 38.3351 69.6129 39.4275C70.1105 40.5198 75.5663 38.965 75.0963 39.7358C74.6263 40.5066 71.639 42.987 73.843 44.5149C76.0469 46.0429 82.7731 44.5149 81.9897 44.5149C81.2064 44.5149 77.4463 44.9774 78.3864 46.5191C79.3264 48.0607 81.5197 49.1399 81.2064 50.0648C80.8931 50.9898 78.454 52.0044 78.3864 54.5356C78.3187 57.0669 80.8931 61.7814 80.8931 61.7814C80.8931 61.7814 86.6898 54.3815 87.7865 54.9981C88.8832 55.6148 87.7592 57.9085 89.9798 56.8481C92.2005 55.7877 94.106 57.5498 95.6199 59.0064C97.1338 60.463 97.0299 61.6272 97.0299 63.6313C97.0299 65.6355 94.3666 73.4979 94.3666 73.4979C94.3666 73.4979 94.8954 76.4539 95.6199 77.1978C96.3444 77.9417 97.97 77.1978 97.97 77.1978Z" fill="#53439A" style="mix-blend-mode:multiply"/><path fill-rule="evenodd" clip-rule="evenodd" d="M88.5698 68.8729C88.5698 68.8729 91.0765 68.4104 93.1132 66.098C95.1499 63.7855 95.4523 63.3837 95.7766 61.9355C95.9324 61.2397 95.8698 59.7851 95.1499 58.5439C94.871 58.0631 93.8966 57.4648 93.8966 57.4648C93.8966 57.4648 94.3006 58.487 94.3666 59.0064C94.4063 59.319 94.3863 60.6297 93.8966 62.0897C93.5725 63.0558 92.9538 64.0366 92.3299 65.0188C90.7632 67.4855 88.5698 68.8729 88.5698 68.8729Z" fill="#14B5D0" style="mix-blend-mode:multiply"/><path fill-rule="evenodd" clip-rule="evenodd" d="M57.8638 54.2472C57.813 54.5558 57.706 56.5397 58.176 56.848C58.646 57.1563 58.5043 56.2017 60.9417 56.6018C63.3791 57.0019 65.6134 56.848 65.6134 56.848C65.6134 56.848 62.9808 53.1661 62.2281 52.6012C61.4754 52.0363 59.6801 52.1339 59.4305 52.2078C58.2295 52.5638 58.0194 53.3022 57.8638 54.2472Z" fill="#14B5D0" style="mix-blend-mode:multiply"/><path fill-rule="evenodd" clip-rule="evenodd" d="M50.3354 66.583C50.2846 66.8916 51.1188 67.3538 51.5888 67.6621C51.7732 67.7831 52.2669 67.2695 52.9988 67.1996C53.369 67.1643 53.7059 67.5 54.0955 67.508C54.8983 67.5244 55.6022 67.1493 55.7212 66.9593C56.3006 66.0344 55.8188 65.5591 55.8188 65.5591C55.8188 65.5591 55.5858 66.3593 54.9087 66.6198C54.5197 66.7695 54.0609 66.7672 53.4688 66.583C53.1036 66.4694 52.7657 66.1995 52.6854 66.1205C52.0588 65.5039 50.491 65.638 50.3354 66.583Z" fill="#042A75"/><path fill-rule="evenodd" clip-rule="evenodd" d="M59.3727 58.3289C59.5243 58.3289 59.6369 57.8444 59.5293 57.3914C59.4146 56.9079 59.2255 56.6243 59.0593 56.6243C58.9333 56.6243 58.795 56.9723 58.9027 57.4601C59.0114 57.9528 59.2152 58.3289 59.3727 58.3289Z" fill="#53439A" style="mix-blend-mode:multiply"/><g opacity="0.5"><path fill-rule="evenodd" clip-rule="evenodd" d="M90.1365 35.5732C96.4796 36.9053 105.333 40.3523 102.357 40.5065C100.911 40.5814 96.26 40.9693 89.8232 43.2814C87.4261 44.1425 83.2431 46.6731 83.2431 46.6731C83.2431 46.6731 80.82 48.4511 81.3631 48.9855C81.9062 49.52 84.3398 48.6772 84.3398 48.6772C84.3398 48.6772 88.996 47.215 91.8599 46.8272C94.7238 46.4394 101.26 46.6731 101.26 46.6731C101.26 46.6731 104.237 47.4439 103.297 47.5981C102.357 47.7522 83.2431 54.998 84.3398 54.998C84.9347 54.998 90.2704 53.1505 95.6199 52.3772C100.132 51.7249 104.393 51.7605 104.393 52.3772C104.393 52.9938 93.7595 55.1434 94.2099 56.2313C94.4509 56.8133 97.933 57.8026 101.26 57.4646C104.151 57.1709 106.67 55.7883 106.9 56.6938C107.37 58.5437 99.3369 66.0631 99.5367 67.177C99.7364 68.2908 107.213 62.3979 107.213 62.3979C107.213 62.3979 108.072 52.466 107.997 49.2939C107.921 46.1217 106.9 41.7398 106.9 41.7398C106.9 41.7398 105.333 37.1149 103.923 36.0357C102.513 34.9566 88.8788 28.5277 88.2565 28.6358C87.6342 28.7439 101.26 36.4982 101.26 36.4982C101.26 36.4982 92.3206 32.7118 87.6298 32.1816C82.9391 31.6514 78.7968 33.6841 78.073 33.8774C77.3493 34.0707 76.5869 34.9235 76.663 35.1107C76.7391 35.298 83.7934 34.2411 90.1365 35.5732Z" fill="#53439A" style="mix-blend-mode:lighten"/></g><path fill-rule="evenodd" clip-rule="evenodd" d="M88.2335 70.5675C88.2335 70.9024 88.1235 71.4536 87.9512 71.8704C88.1235 72.0674 88.2335 72.3666 88.2335 72.7015C88.2335 73.0486 88.1154 73.6281 87.932 74.0495C88.1154 74.2459 88.2335 74.5546 88.2335 74.9017C88.2335 75.2067 88.1423 75.6912 87.9958 76.09C89.2604 76.3763 90.2116 77.6128 90.2116 79.0947C90.2116 80.7886 88.9688 82.1618 87.4357 82.1618C85.9026 82.1618 84.6598 80.7886 84.6598 79.0947C84.6598 77.5936 85.6357 76.3444 86.9248 76.0794C86.7806 75.6826 86.691 75.204 86.691 74.9017C86.691 74.5546 86.8091 74.2459 86.9925 74.0495C86.8091 73.6281 86.691 73.0486 86.691 72.7015C86.691 72.3666 86.8009 72.0674 86.9733 71.8704C86.8009 71.4536 86.691 70.9024 86.691 70.5675C86.691 69.974 87.0363 69.493 87.4622 69.493C87.8882 69.493 88.2335 69.974 88.2335 70.5675ZM87.4357 81.0284C88.5575 81.0284 89.4669 80.4918 89.4669 79.283C89.4669 78.0743 88.5575 77.0945 87.4357 77.0945C86.3139 77.0945 85.4045 78.0743 85.4045 79.283C85.4045 80.4918 86.3139 81.0284 87.4357 81.0284Z" fill="#14B5D0" style="mix-blend-mode:multiply"/><path fill-rule="evenodd" clip-rule="evenodd" d="M87.1501 69.5007C87.1501 69.8356 87.0402 70.3868 86.8678 70.8036C87.0402 71.0007 87.1501 71.2998 87.1501 71.6347C87.1501 71.9818 87.032 72.5614 86.8487 72.9827C87.032 73.1791 87.1501 73.4878 87.1501 73.8349C87.1501 74.1399 87.0589 74.6244 86.9124 75.0232C88.1771 75.3095 89.1283 76.546 89.1283 78.028C89.1283 79.7219 87.8855 81.0951 86.3524 81.0951C84.8193 81.0951 83.5765 79.7219 83.5765 78.028C83.5765 76.5269 84.5524 75.2776 85.8415 75.0126C85.6973 74.6158 85.6076 74.1372 85.6076 73.8349C85.6076 73.4878 85.7258 73.1791 85.9091 72.9827C85.7258 72.5614 85.6076 71.9818 85.6076 71.6347C85.6076 71.2998 85.7176 71.0007 85.89 70.8036C85.7176 70.3868 85.6076 69.8356 85.6076 69.5007C85.6076 68.9073 85.9529 68.4262 86.3789 68.4262C86.8048 68.4262 87.1501 68.9073 87.1501 69.5007ZM86.3524 79.9616C87.4741 79.9616 88.3835 79.4249 88.3835 78.2162C88.3835 77.0075 87.4741 76.0276 86.3524 76.0276C85.2306 76.0276 84.3212 77.0075 84.3212 78.2162C84.3212 79.4249 85.2306 79.9616 86.3524 79.9616Z" fill="#53439A" style="mix-blend-mode:multiply"/><path fill-rule="evenodd" clip-rule="evenodd" d="M79.123 103.401C80.1447 104.284 81.5034 105.07 83.1899 105.231C87.3837 105.631 101.271 96.6962 101.271 96.6962C101.271 96.6962 102.945 96.6688 105.807 98.2964C108.67 99.924 108.719 100.83 108.719 100.83L108.324 100.981C109.237 101.894 110.105 102.85 110.929 103.765C112.467 105.471 112.978 108.086 112.284 107.924L106.32 109.151C100.382 108.785 93.0857 108.961 87.8412 109.088C83.8658 109.183 81.0691 109.251 80.936 109.032C80.9238 109.012 80.9348 108.984 80.9676 108.949C80.7969 108.931 80.6255 108.911 80.4539 108.889C80.7435 109.169 81.0825 109.44 81.4777 109.699C82.0194 110.055 86.1488 110.401 91.2631 110.829C92.8203 110.96 94.4689 111.098 96.1353 111.246L87.7743 112.966C82.9603 113.292 76.4469 113.223 73.4375 111.177C68.9236 108.108 70.3811 104.159 71.0006 104.124C71.2728 104.108 72.5453 103.98 74.8181 103.738C75.492 103.087 76.8295 100.563 76.8295 100.563C76.8295 100.563 77.5604 102.003 78.9951 103.288C79.0458 103.283 79.0968 103.277 79.148 103.272C79.1395 103.315 79.1311 103.358 79.123 103.401ZM96.1353 111.246L106.32 109.151C109.623 109.355 112.506 109.726 114.382 110.366C122.187 113.03 122.033 121.701 122.033 121.701C122.033 121.701 116.618 116.434 112.827 113.966C110.92 112.726 103.36 111.89 96.1353 111.246Z" fill="#F36331" style="mix-blend-mode:hard-light"/></g></svg>