<svg xmlns="http://www.w3.org/2000/svg" xmlns:xlink="http://www.w3.org/1999/xlink" version="1.1" id="Warstwa_1" x="0px" y="0px" viewBox="0 0 539.3 453.9" style="enable-background:new 0 0 539.3 453.9;" xml:space="preserve"><style type="text/css">
	.st0{fill:url(#SVGID_1_);}
	.st1{fill:#FFFFFF;}
	.st2{opacity:0.48;fill:#E2E3F4;enable-background:new    ;}
	.st3{fill:url(#SVGID_2_);}
	.st4{fill:#B1B5D3;}
	.st5{fill:#E2E3F4;}
	.st6{clip-path:url(#SVGID_4_);}
	.st7{clip-path:url(#SVGID_6_);}
	.st8{clip-path:url(#SVGID_8_);}
	.st9{fill:#737A96;}
	.st10{fill:#FF8200;}
	.st11{fill:#43B02A;}
	.st12{fill:url(#SVGID_9_);}
	.st13{opacity:0.65;fill:url(#SVGID_10_);enable-background:new    ;}
	.st14{fill:url(#SVGID_11_);}
	.st15{fill:url(#SVGID_12_);}
	.st16{fill:url(#SVGID_13_);}
	.st17{fill:none;stroke:#FFFFFF;stroke-width:1.75;stroke-linecap:round;stroke-linejoin:round;stroke-dasharray:0,6;}
	.st18{fill:none;stroke:#FFFFFF;stroke-width:1.75;stroke-linecap:round;stroke-linejoin:round;}
	.st19{fill:#F8761F;}
	.st20{fill:#3C8BD9;}
	.st21{fill:#FABC04;}
	.st22{fill:#34A852;}
	.st23{opacity:0.65;}
	.st24{fill:url(#SVGID_14_);}
	.st25{clip-path:url(#SVGID_16_);}
	.st26{fill:#29B5E8;}
	.st27{fill:url(#SVGID_17_);}
	.st28{opacity:0.15;fill:#52BD95;enable-background:new    ;}
	.st29{fill:url(#SVGID_18_);}
	.st30{fill:url(#SVGID_19_);}
	.st31{fill:url(#SVGID_20_);}
	.st32{fill:#F57C00;}
	.st33{fill:none;}
	.st34{fill:#FFC107;}
	.st35{fill:url(#SVGID_21_);}
	.st36{opacity:0.2;fill:#FFFFFF;enable-background:new    ;}
	.st37{opacity:0.2;fill:#BF360C;enable-background:new    ;}
	.st38{fill:url(#SVGID_22_);}
	.st39{fill:url(#SVGID_23_);}
	.st40{fill:url(#SVGID_24_);}
</style><title>img__phone</title><linearGradient id="SVGID_1_" gradientUnits="userSpaceOnUse" x1="314.5433" y1="-2466.4521" x2="333.7333" y2="-2477.0522" gradientTransform="matrix(1 0 0 -1 0 -2086.6399)"><stop offset="0" style="stop-color:#E1E3F3"/><stop offset="1" style="stop-color:#B1B4D3"/></linearGradient><path class="st0" d="M2.9,293.5c-1.9-1.1-2.9-2.6-2.9-4s0-6.8,0-6.8l149.3-62.3c4.4-2.2,9.5-2.2,13.9,0L441,356.9c0,0,0.1,5.9,0,7.4  s-1.1,2.4-2.9,3.5l-146.4,84.5c-4.4,2.2-9.5,2.2-13.9,0L2.9,293.5z"/><path class="st1" d="M2.9,278.9l146.4-84.5c4.4-2.2,9.5-2.2,13.9,0l275,158.8c3.8,2.2,3.8,5.8,0,8l-146.5,84.5  c-4.4,2.2-9.5,2.2-13.9,0L2.8,287C-0.9,284.6-0.9,281,2.9,278.9z"/><path class="st2" d="M246.3,415.9c-3.8-2.2-3.8-5.8,0-8l126.4-73c4.4-2.2,9.5-2.2,13.9,0l18.9,10.6l-140.2,81L246.3,415.9z"/><linearGradient id="SVGID_2_" gradientUnits="userSpaceOnUse" x1="204.5401" y1="-2446.741" x2="229.5401" y2="-2444.241" gradientTransform="matrix(1 0 0 -1 0 -2086.6399)"><stop offset="0.22" style="stop-color:#A9ACC7"/><stop offset="0.68" style="stop-color:#8185A7"/></linearGradient><path class="st3" d="M197.8,388.5c-1-0.6-1.5-1.3-1.4-2.1v-5.1l134.8-73.8c2.2-1.1,4.7-1.1,6.9,0l18.5,6.9v5c-0.1,0.9-0.6,1.6-1.4,2  l-133.3,77c-2.2,1.1-4.7,1.1-6.9,0L197.8,388.5z"/><path class="st4" d="M197.8,379.5l133.3-77c2.2-1.1,4.7-1.1,6.9,0l17.1,9.9c1.9,1.1,1.9,2.9,0,4l-133.3,77c-2.2,1.1-4.7,1.1-6.9,0  l-17.1-9.9C195.9,382.2,195.9,380.5,197.8,379.5z"/><path class="st1" d="M239.9,366.6l74.1-42.8c1.3-0.6,2.7-0.6,4,0l0,0c0.6,0.2,1,0.9,0.8,1.5c-0.1,0.4-0.4,0.7-0.8,0.8L243.9,369  c-1.3,0.6-2.7,0.6-4,0l0,0c-0.6-0.2-1-0.8-0.9-1.5C239.1,367.1,239.5,366.8,239.9,366.6z"/><path class="st5" d="M174.3,370.8l82.6-47.7c1.9-1,4.1-1,6,0l0,0c1.7,1,1.7,2.5,0,3.5l-82.6,47.7c-1.9,1-4.1,1-6,0l0,0  C172.6,373.2,172.6,371.8,174.3,370.8z"/><path class="st5" d="M183.8,378l45.6-26.3c0.9-0.5,2.1-0.5,3,0l0,0c0.8,0.5,0.8,1.3,0,1.7l-45.6,26.3c-0.9,0.5-2.1,0.5-3,0l0,0  C183,379.2,183,378.5,183.8,378z"/><path class="st2" d="M68,304.9l126.4-73c4.4-2.2,9.5-2.2,13.9,0l86.3,49.8c3.8,2.2,3.8,5.8,0,8l-126.4,73c-4.4,2.2-9.5,2.2-13.9,0  L68,312.9C64.2,310.6,64.2,307.1,68,304.9z"/><g><defs><polygon id="SVGID_3_" points="141.2,297.4 181.3,274.1 221.4,297.4 181.3,320.5   "/></defs><clipPath id="SVGID_4_"><use xlink:href="#SVGID_3_" style="overflow:visible;"/></clipPath><g class="st6"><path class="st5" d="M197,283.4c-0.8-0.6-1.8-1-2.8-1.1c-1.1-0.2-2.3,0-3.3,0.4l-7.9,3.1c-0.1,0-0.1,0.1-0.2,0.1l-0.1,0.1v0.1    l0.1,0.1l2.5,1.5c0.1,0.1,0.2,0.1,0.4,0.1c0.1,0,0.3,0,0.4-0.1l6.2-2.4c0.3-0.1,0.6-0.1,0.9-0.1c0.3,0,0.6,0.1,0.8,0.3l16,13.5    c0.2,0.1,0.2,0.3,0.2,0.5c-0.1,0.2-0.3,0.4-0.5,0.4l-23.2,9.2c-0.3,0.1-0.6,0.1-0.9,0.1c-0.3,0-0.6-0.1-0.8-0.3l-0.8-0.6    c-0.1-0.1-0.1-0.1-0.2-0.1h-0.5c-0.1,0-0.2,0-0.2,0.1l-2.5,1.5c-0.1,0.1-0.2,0.1-0.2,0.2s0,0.2,0.1,0.2l1.2,1    c0.8,0.6,1.8,1,2.8,1.1c1.1,0.1,2.2,0,3.3-0.4l25.7-10.1l0.6-0.3c0.6-0.3,1.1-0.9,1.3-1.6c0.1-0.7-0.2-1.3-0.8-1.7L197,283.4z"/></g></g><g><defs><polygon id="SVGID_5_" points="141.2,297.4 181.3,274.1 221.4,297.4 181.3,320.5   "/></defs><clipPath id="SVGID_6_"><use xlink:href="#SVGID_5_" style="overflow:visible;"/></clipPath><g class="st7"><path class="st5" d="M194.7,299.2c1-0.3,1.5-1.4,1.2-2.4c-0.2-0.6-0.6-1-1.2-1.2l-22.1-12.8c-0.9-0.5-2-0.8-3.1-0.8    c-1.1,0-2.1,0.2-3.1,0.7l-22,12.7c-1,0.3-1.5,1.4-1.2,2.4c0.2,0.6,0.6,1,1.2,1.2l22.1,12.8c0.9,0.5,2,0.8,3.1,0.8    c1.1,0,2.1-0.2,3.1-0.7L194.7,299.2z M168.6,285.4c0.5-0.3,1.1-0.3,1.6,0l16.6,9.6c0.1,0,0.1,0,0.1,0.1l0,0v0.2l-0.1,0.1l-20.7,12    c-0.1,0.1-0.3,0.1-0.4,0.1c-0.2,0-0.3,0-0.4-0.1l-16.6-9.6c-0.3-0.2-0.4-0.5-0.2-0.8c0.1-0.1,0.1-0.2,0.2-0.2L168.6,285.4z"/></g></g><g><defs><polygon id="SVGID_7_" points="300.5,299 312.5,292.1 324.5,299 312.5,306   "/></defs><clipPath id="SVGID_8_"><use xlink:href="#SVGID_7_" style="overflow:visible;"/></clipPath><g class="st8"><path class="st9" d="M306.5,295.5c-1,0.5-1.9,1.4-2.3,2.5c-0.3,1-0.1,2,0.5,2.8c0.8,1,1.9,1.8,3.1,2.2c3,1.1,6.4,1.1,9.4,0    c1.2-0.4,2.3-1.2,3.1-2.2c0.6-0.8,0.8-1.8,0.5-2.8c-0.4-1.1-1.2-2-2.3-2.5C314.7,293.7,310.3,293.7,306.5,295.5L306.5,295.5z     M316.6,300.5L316.6,300.5v0.1l0.4,0.2c0.2,0.1,0.3,0.2,0.3,0.4c0,0.2-0.1,0.3-0.3,0.4c-0.2,0.1-0.4,0.1-0.6,0.1    c-0.2,0-0.5-0.1-0.6-0.1l-0.4-0.2H315l-0.6,0.3c-0.2,0.1-0.4,0.1-0.6,0.1c-0.2,0-0.5-0.1-0.6-0.1s-0.3-0.2-0.3-0.4    c0-0.2,0.1-0.3,0.3-0.4l1.8-1c0.1-0.1,0.2-0.2,0.2-0.3c0-0.1,0-0.2-0.1-0.3c-0.1-0.1-0.2-0.2-0.4-0.2h-0.5l-2.6,0.6    c-0.5,0.1-1.1,0.2-1.6,0.1c-0.5-0.1-1-0.3-1.4-0.5c-0.5-0.3-0.6-1-0.3-1.5c0.1-0.1,0.2-0.3,0.3-0.3v-0.1l-0.1-0.1l-0.4-0.2    c-0.2-0.1-0.3-0.2-0.3-0.4c0-0.2,0.1-0.3,0.3-0.4c0.2-0.1,0.4-0.1,0.6-0.1c0.2,0,0.5,0.1,0.6,0.1l0.4,0.2h0.2l0.6-0.3    c0.2-0.1,0.4-0.1,0.6-0.1c0.2,0,0.5,0.1,0.6,0.1s0.3,0.2,0.3,0.4s-0.1,0.3-0.3,0.4l-1.8,1c-0.1,0.1-0.2,0.2-0.2,0.3    c0,0.1,0,0.2,0.1,0.3c0.1,0.1,0.2,0.2,0.4,0.2h0.5l2.6-0.6c0.5-0.1,1.1-0.2,1.6-0.1c0.5,0.1,1,0.3,1.4,0.5    c0.3,0.2,0.5,0.5,0.5,0.9C317.1,299.9,316.9,300.2,316.6,300.5z"/></g></g><path class="st10" d="M73.6,268.1c1.8,0,4,0.4,4.4,1.2c1.2,2-3,9.1-4.4,9.1s-5.6-7.2-4.4-9.1C69.6,268.6,71.8,268.1,73.6,268.1z"/><path class="st11" d="M77,265L77,265c-0.7-0.3-1.5-0.3-2.2,0c-1.1,0.5-0.9,2.5-0.4,2.6s3.5-0.7,3.8-1.5  C78.3,265.6,77.7,265.2,77,265z M68.9,264c1-0.4,2.1-0.4,3.1-0.1c1.6,0.7,1.3,3.5,0.6,3.7s-5-1-5.3-2.1  C67.1,264.9,68,264.3,68.9,264z"/><path class="st11" d="M99.7,256l-0.9,0.4c-0.8,0.3-1.5,0.5-1.9,0.2s-0.2-0.8,0.5-1.2c0.6-0.3,1.2-0.5,1.9-0.6h0.1  c0.2,0,0.3-0.1,0.4-0.1c0.2-0.1,0.4-0.3,0.3-0.6c0,0,0,0,0,0V254c-0.1-0.2-0.3-0.3-0.5-0.4c-0.3-0.1-0.5-0.1-0.8,0  c-1,0.1-1.9,0.5-2.8,0.9c-1.9,1.1-2.2,2.3-0.7,3.2c1.2,0.7,2.8,0.6,4.7-0.2l0.8-0.4c0.9-0.4,1.5-0.5,1.9-0.3s0.6,0.6-0.6,1.3  c-0.7,0.4-1.6,0.7-2.4,0.8c-0.2,0-0.3,0.1-0.5,0.2c-0.2,0.1-0.3,0.3-0.3,0.5v0.1c0.1,0.2,0.3,0.4,0.5,0.4c0.3,0.1,0.5,0.1,0.8,0.1  c1.2-0.2,2.3-0.6,3.4-1.1c2-1.1,2.3-2.3,0.8-3.2C103.2,255,101.6,255.1,99.7,256z"/><path class="st11" d="M125.2,244.2c-0.3,0-0.6,0.1-0.8,0.2l-0.3,0.3c-0.2,0.4-0.5,0.8-0.9,1c-1.4,0.7-3,0.6-4.3-0.1  c-1.3-0.7-1.4-1.8-0.2-2.5c0.5-0.3,1-0.4,1.6-0.5c0.5-0.1,0.9-0.3,0.9-0.6v0c0-0.2-0.2-0.4-0.4-0.5c-0.3-0.1-0.6-0.2-0.9-0.1  c-1,0.1-1.9,0.4-2.7,0.9c-2.3,1.3-2.3,3.1,0,4.5c2.4,1.3,5.3,1.3,7.7,0c0.7-0.3,1.2-0.9,1.5-1.6c0.1-0.2,0-0.4-0.2-0.5c0,0,0,0,0,0  c-0.2-0.2-0.5-0.2-0.9-0.3L125.2,244.2z"/><path class="st11" d="M80,260.5c-0.3,0.1-0.5,0.5-0.4,0.8c0.1,0.2,0.2,0.3,0.4,0.4c0.7,0.3,1.4,0.3,2.1,0c0.3-0.1,0.5-0.4,0.4-0.8  c-0.1-0.2-0.2-0.4-0.4-0.4C81.4,260.2,80.7,260.2,80,260.5z"/><path class="st11" d="M83,262l-0.6,0.4c-0.3,0.2-0.3,0.5,0,0.6l6.4,3.7c0.3,0.2,0.8,0.2,1.1,0l0.6-0.4c0.3-0.2,0.3-0.5,0-0.6  l-6.4-3.7C83.8,261.8,83.3,261.8,83,262z"/><path class="st11" d="M109.4,253.6c-0.9,0.5-2.1,0.5-3,0l-2.9-1.7l1.5-0.9c0.3-0.2,0.3-0.5,0-0.6l-0.5-0.3c-0.3-0.2-0.8-0.2-1.1,0  l-1.5,0.9l-1.7-1c-0.3-0.2-0.8-0.2-1.1,0l-0.7,0.4c-0.3,0.2-0.3,0.5,0,0.6l6,3.5c2,1,4.4,1.1,6.4,0.1l0,0c0.2-0.1,0.3-0.2,0.3-0.4  c0-0.2-0.1-0.3-0.3-0.4l-0.4-0.2C110.1,253.4,109.7,253.4,109.4,253.6z"/><path class="st11" d="M88.3,258.9c-2.2,1.3-1.7,3-0.2,3.9l3.7,2.1c0.3,0.2,0.8,0.2,1.1,0l0.6-0.4c0.3-0.2,0.3-0.5,0-0.6l-3.4-2  c-1.1-0.7-1.2-1.5-0.2-2.1c1.1-0.6,2.5-0.5,3.6,0.1l3.4,2c0.3,0.2,0.8,0.2,1.1,0l0.6-0.4c0.3-0.2,0.3-0.5,0-0.6l-3.7-2.1  C92.8,257.7,90.3,257.7,88.3,258.9z"/><path class="st11" d="M133.8,232.6c-0.4,0.2-0.8,0.4-1.2,0.6h-0.1c-1.7,1-1.9,2.7,0,3.8l0,0l3.6,2.1c0.3,0.2,0.8,0.2,1.1,0l0.6-0.4  c0.3-0.2,0.3-0.5,0-0.6l-3.6-2.1c-1-0.6-1-1.4-0.1-2l0.6-0.3c0.1,0,0.1,0,0.2-0.1c0.3-0.1,0.4-0.5,0.2-0.7c0,0,0-0.1,0-0.1l-0.3-0.3  c-0.1-0.1-0.3-0.2-0.5-0.2C134.2,232.6,134,232.6,133.8,232.6z"/><path class="st11" d="M140,230.9c0.3-0.2,0.3-0.5,0-0.6l-0.5-0.3c-0.3-0.2-0.8-0.2-1.1,0l-1.5,0.9l-1.7-1c-0.3-0.2-0.8-0.2-1.1,0  l-0.7,0.4c-0.3,0.2-0.3,0.5,0,0.6l6,3.5c2,1,4.4,1.1,6.4,0.1l0,0c0.2-0.1,0.3-0.2,0.3-0.4c0-0.2-0.1-0.3-0.3-0.4l-0.4-0.2  c-0.3-0.2-0.8-0.2-1.1,0c-0.9,0.5-2.1,0.5-3,0l-2.9-1.7L140,230.9z"/><path class="st11" d="M126.9,237.1L126.9,237.1c-1,0.1-1.9,0.4-2.7,0.9l0,0c-0.6,0.3-1.2,0.9-1.5,1.5l0,0c-0.4,1,0.1,2,1.6,2.9  c1.6,0.9,3.4,1.2,5.2,0.9c0.8-0.1,1.6-0.4,2.3-0.8c1.2-0.7,1.3-1.6,1.2-1.9l0.3,0.2c0.3,0.2,0.8,0.2,1.1,0l0.6-0.4  c0.3-0.2,0.3-0.5,0-0.6l-3.1-1.8C130.4,237.2,128.6,236.9,126.9,237.1z M130.9,241.1c-0.1,0.2-0.3,0.3-0.5,0.4l0,0  c-0.2,0.1-0.5,0.2-0.7,0.3c-1.2,0.3-2.4,0.2-3.5-0.4c-1.2-0.7-1.3-1.6-0.4-2.3h0.4c1.3-0.6,2.8-0.5,4,0.2  C131.1,239.8,131.4,240.4,130.9,241.1z"/><path class="st11" d="M111.2,246.2L111.2,246.2c-1,0.1-1.9,0.4-2.7,0.9l0,0c-0.6,0.3-1.2,0.9-1.5,1.5l0,0c-0.4,1,0.1,2,1.6,2.9  c1.6,0.9,3.4,1.2,5.2,0.9c0.8-0.1,1.6-0.4,2.3-0.8c1.2-0.7,1.3-1.6,1.2-1.9l0.3,0.2c0.3,0.2,0.8,0.2,1.1,0l0.6-0.4  c0.3-0.2,0.3-0.5,0-0.6l-3.1-1.8C114.7,246.4,112.9,246,111.2,246.2z M115.2,250.1c-0.1,0.2-0.3,0.3-0.5,0.4l0,0  c-0.2,0.1-0.5,0.2-0.7,0.3c-1.2,0.3-2.4,0.2-3.5-0.4c-1.2-0.7-1.3-1.6-0.4-2.3h0.4c1.3-0.6,2.8-0.5,4,0.2  C115.4,248.8,115.7,249.6,115.2,250.1z"/><linearGradient id="SVGID_9_" gradientUnits="userSpaceOnUse" x1="439.0311" y1="512.1782" x2="535.6611" y2="517.1483" gradientTransform="matrix(1 0 0 1 0 -344.1)"><stop offset="0" style="stop-color:#E1E3F3"/><stop offset="1" style="stop-color:#B1B4D3"/></linearGradient><path class="st12" d="M437,174.6c-2-1.1-2.9-2.6-2.9-4.1s-0.1-7.4-0.1-7.4l45.6-21.3c4.5-2.3,9.7-2.3,14.2,0l45.6,21.7  c0,0,0,5.5,0,7s-1,3-2.9,4.1l-42.6,24.6c-4.5,2.3-9.7,2.3-14.2,0L437,174.6z"/><linearGradient id="SVGID_10_" gradientUnits="userSpaceOnUse" x1="221" y1="211.43" x2="221" y2="71.43" gradientTransform="matrix(1 0 0 -1 0 456)"><stop offset="0" style="stop-color:#6152BD"/><stop offset="1" style="stop-color:#52BD95"/></linearGradient><path class="st13" d="M221,245.4c-4.4,0-8,3.6-8,8l0,0v126l0,0c0,4.4,3.6,6,8,6s8-1.6,8-6l0,0v-126l0,0  C229,249,225.4,245.4,221,245.4z"/><linearGradient id="SVGID_11_" gradientUnits="userSpaceOnUse" x1="366.5612" y1="471.0976" x2="463.0012" y2="476.0576" gradientTransform="matrix(1 0 0 1 0 -344.1)"><stop offset="0" style="stop-color:#E1E3F3"/><stop offset="1" style="stop-color:#B1B4D3"/></linearGradient><path class="st14" d="M366.1,133.6c-2-1.1-2.9-2.6-2.9-4.1s0-7.1,0-7.1l45.5-21.6c4.5-2.3,9.7-2.3,14.2,0l45.8,21.7  c0,0-0.2,5.5-0.2,7s-1,3-2.9,4.1l-42.6,24.6c-4.5,2.3-9.7,2.3-14.2,0L366.1,133.6z"/><linearGradient id="SVGID_12_" gradientUnits="userSpaceOnUse" x1="298.6705" y1="430.2608" x2="395.1104" y2="435.2208" gradientTransform="matrix(1 0 0 1 0 -344.1)"><stop offset="0" style="stop-color:#E1E3F3"/><stop offset="1" style="stop-color:#B1B4D3"/></linearGradient><path class="st15" d="M295.4,92.7c-2-1.1-2.9-2.6-2.9-4.1s0-7.2,0-7.2L338,59.8c4.5-2.3,9.7-2.3,14.2,0L398,81.5  c0,0-0.2,5.6-0.2,7.1s-1,3-2.9,4.1l-42.6,24.6c-4.5,2.3-9.7,2.3-14.2,0L295.4,92.7z"/><linearGradient id="SVGID_13_" gradientUnits="userSpaceOnUse" x1="222.8602" y1="389.1759" x2="319.9002" y2="394.1759" gradientTransform="matrix(1 0 0 1 0 -344.1)"><stop offset="0" style="stop-color:#E1E3F3"/><stop offset="1" style="stop-color:#B1B4D3"/></linearGradient><path class="st16" d="M225.8,51.7c-2-1.1-2.9-2.6-2.9-4.1s-0.1-17.2-0.1-17.2l45.5-11.5c4.5-2.3,9.7-2.3,14.2,0l45.6,11.4  c0,0-0.1,15.8-0.1,17.3s0.2,2.3-2.9,4.1l-42.6,24.6c-6.3,3.5-10.3,2.3-14.2,0L225.8,51.7z"/><line class="st17" x1="220.8" y1="251" x2="220.8" y2="380"/><line class="st18" x1="220.8" y1="337.6" x2="220.8" y2="380"/><path class="st1" d="M225.7,26.5l42.9-24.8c4.4-2.2,9.5-2.2,13.9,0l42.9,24.8c3.8,2.2,3.8,5.8,0,8l-42.9,24.8  c-4.4,2.2-9.5,2.2-13.9,0l-42.9-24.8C221.9,32.2,221.9,28.6,225.7,26.5z"/><path class="st19" d="M290.1,19.9c-1.9-0.1-3.8,0-5.7,0.3c-1.4,0.3-2.8,0.7-4.1,1.3l-3.4-1.9c0.8-0.9,0.6-1.8-0.5-2.4  c-1.8-0.8-4-0.7-5.7,0.3c-1.7,1-2,2.4-0.5,3.3c1.3,0.6,2.8,0.7,4.2,0.3l3.3,1.9c-0.8,0.5-1.5,1.2-2,2c-2.9,0.4-12.4,1.6-18,2.3  c-0.2-0.1-0.4-0.3-0.6-0.5c-2.1-0.9-4.4-0.8-6.4,0.3c-1.9,1.1-2.2,2.7-0.6,3.7c2.1,0.9,4.4,0.8,6.4-0.3c0.5-0.3,1-0.7,1.3-1.2  l1.2-0.1l15.9-2.3c-0.1,0.5-0.1,1.1-0.1,1.6c0.3,1.2,1.1,2.1,2.2,2.7l0.2,0.1c1,0.5,2,0.9,3.1,1.1c1,0.2,2.1,0.3,3.1,0.3l-0.6,3.4  c-1,0.2-1.9,0.9-2.3,1.9c0,0.6,0.3,1.1,0.8,1.4c0.8,0.3,1.6,0.5,2.4,0.5c0.9,0,1.8-0.3,2.6-0.7c0.6-0.3,1.1-0.9,1.3-1.5  c0-0.6-0.3-1.1-0.8-1.4c-0.2-0.1-0.5-0.2-0.7-0.3l0.6-3.6c0.7-0.1,1.4-0.3,2.3-0.5c1.5-0.4,2.9-0.9,4.2-1.7l0.2-0.1  c1.3-0.6,2.4-1.6,3.2-2.9c0.7-0.9,1-2.2,0.7-3.3c-0.4-1.2-1.2-2.2-2.3-2.8h-0.1C293.4,20.4,291.8,20,290.1,19.9z M291.8,25.7  c-0.1,1.1-0.8,2.1-1.8,2.6l-0.2,0.1c-0.8,0.4-1.6,0.7-2.5,0.9c-1,0.3-2.1,0.3-3.1,0.2c-0.9,0-1.8-0.2-2.6-0.6l-0.2-0.1  c-0.5-0.4-1-0.8-1.4-1.3c-0.3-0.6-0.2-1.3,0.1-1.8c0.4-0.7,1-1.3,1.8-1.7l0.1-0.1c0.8-0.4,1.6-0.7,2.5-1c1-0.2,1.9-0.3,2.9-0.2  c0.9,0.1,1.7,0.3,2.5,0.6l0.4,0.2C291.5,24,291.9,24.6,291.8,25.7L291.8,25.7z"/><path class="st1" d="M295.4,77.4l42.9-24.8c4.4-2.2,9.5-2.2,13.9,0l42.9,24.8c3.8,2.2,3.8,5.8,0,8l-42.9,24.8  c-4.4,2.2-9.5,2.2-13.9,0l-42.9-24.8C291.6,83.2,291.6,79.7,295.4,77.4z"/><path class="st20" d="M330.7,78.7c-0.5-0.5-0.8-1.2-0.7-1.9c0.1-2.7,4.5-4.6,9-3.8c3.4,0.6,6.8,1.1,10.2,1.6  c5.6,0.9,11.3,1.7,16.9,2.6c4.7,0.7,6.7,4,3.8,6.3c-2.2,1.5-5,2-7.6,1.5c-5-0.8-9.9-1.5-14.9-2.3h-0.3c-0.3,0-0.7-0.1-1-0.1  c-2.2-0.4-4.4-0.7-6.7-1c-1.4-0.2-2.9-0.4-4.3-0.7c-1.2-0.2-2.3-0.5-3.3-1.1C331.4,79.4,331,79,330.7,78.7z"/><path class="st21" d="M330.7,78.7c0.3,0.3,0.7,0.6,1.1,0.9c1.1,0.6,2.3,1,3.5,1.2c3.6,0.5,7.2,1.1,10.8,1.7c0.3,0,0.6,0.1,0.9,0.2  c0.5,1.1,1,2.3,1.6,3.4c0.7,1.6,1.5,3.2,2.2,4.8h-0.1c-0.1,0-0.2-0.1-0.2-0.2c-1.3-1.3-3.3-2-5.9-2.1c-1.5-0.1-2.9,0.2-4.3,0.8  c-1.3,0.5-2.3,1.5-2.8,2.8c0,0.2,0,0.4-0.1,0.6h-0.1c-0.4-0.9-0.8-1.8-1.3-2.7c-1.7-3.7-3.5-7.5-5.2-11.2L330.7,78.7z"/><path class="st22" d="M337.3,92.7c0-0.2,0-0.5,0.1-0.7c0.6-3,6.7-4.6,10.9-2.8c0.9,0.3,1.7,0.9,2.4,1.6c0.1,0,0.1,0.1,0.2,0.1  c0.1,0.2,0.2,0.3,0.3,0.5c0.7,1.6,0,3-2.2,4.2c-2.8,1.3-6,1.3-8.8,0.1c-1.1-0.4-2-1.2-2.5-2.2c-0.1-0.2-0.1-0.4-0.2-0.6  S337.2,92.8,337.3,92.7z"/><g class="st23"><linearGradient id="SVGID_14_" gradientUnits="userSpaceOnUse" x1="130.5816" y1="348.2994" x2="250.2417" y2="348.2994" gradientTransform="matrix(1 0 0 -1 0 456)"><stop offset="0" style="stop-color:#6152BD"/><stop offset="1" style="stop-color:#52BD95"/></linearGradient><path class="st24" d="M190,166.4c-1.5,0-3-0.4-4.3-1.2l-50.3-32c-4.9-3.1-6.3-9.5-3.2-14.4c0.8-1.3,1.9-2.4,3.2-3.2l103.5-65.4   c3.7-2.4,7.1-0.6,9.5,3.1s2.8,8-0.9,10.4l-96,60.8l42.9,27.2c3.7,2.4,4.8,7.3,2.5,11C195.4,165,192.8,166.4,190,166.4L190,166.4z"/></g><path class="st17" d="M243.2,56.8l-101.5,64.2c-1.8,1.1-2.3,3.5-1.2,5.3c0.3,0.5,0.7,0.9,1.2,1.2l31.3,19.9"/><path class="st1" d="M366.1,118.4L409,93.7c4.4-2.2,9.5-2.2,13.9,0l42.9,24.8c3.8,2.2,3.8,5.8,0,8l-42.9,24.8  c-4.4,2.2-9.5,2.2-13.9,0l-42.9-24.8C362.3,124.2,362.3,120.7,366.1,118.4z"/><path class="st1" d="M436.8,159.4l42.9-24.8c4.4-2.2,9.5-2.2,13.9,0l42.9,24.8c3.8,2.2,3.8,5.8,0,8l-42.9,24.8  c-4.4,2.2-9.5,2.2-13.9,0l-42.9-24.8C433,165.1,433,161.6,436.8,159.4z"/><g><defs><polygon id="SVGID_15_" points="448.6,163.6 487.7,141 526,163.1 486.9,185.7   "/></defs><clipPath id="SVGID_16_"><use xlink:href="#SVGID_15_" style="overflow:visible;"/></clipPath><g class="st25"><path class="st26" d="M507,161.6l-10.6,1.6c-1.5,0.2-2.4,1.1-2,2c0.2,0.3,0.5,0.6,0.9,0.8l7.6,4.4c1.1,0.6,2.8,0.6,3.9,0    c1.1-0.6,1.1-1.6,0-2.3l-4.3-2.5l5.9-0.9c1.5-0.2,2.4-1.1,2-2C510,161.9,508.5,161.4,507,161.6z"/><path class="st26" d="M482,166.4c-0.7-0.4-1.7-0.6-2.7-0.4l-10.6,1.6c-0.5,0.1-0.9,0.2-1.2,0.4c-0.7,0.4-1,1-0.7,1.5    c0.4,0.8,1.9,1.3,3.3,1.1l6.1-0.9l-1.6,3.5c-0.2,0.4-0.1,0.8,0.3,1.2c0.4,0.4,0.9,0.6,1.7,0.7c0.9,0.1,1.9,0,2.6-0.4    c0.3-0.2,0.6-0.4,0.7-0.7l2.8-6.1C483,167.4,482.7,166.8,482,166.4z"/><path class="st26" d="M467.6,165.2l10.6-1.6c1.2-0.2,2-0.8,2.1-1.5c0-0.4-0.2-0.9-0.8-1.2l-7.7-4.5c-1.1-0.6-2.8-0.6-3.9,0    c-1.1,0.6-1.1,1.6,0,2.3l4.4,2.5l-6,0.9c-1.5,0.2-2.4,1.1-2,2C464.6,164.9,466.1,165.4,467.6,165.2z"/><path class="st26" d="M491.3,161.5c0.1,0.1,0.3,0.3,0.3,0.4v3.1c0,0.1-0.1,0.3-0.3,0.4l-0.7,0.4c-0.1,0.1-0.4,0.2-0.7,0.2l-5.3,0    c-0.2,0-0.5-0.1-0.7-0.2l-0.7-0.4c-0.2-0.1-0.3-0.3-0.3-0.4v-3.1c0-0.1,0.1-0.3,0.3-0.4l0.7-0.4c0.1-0.1,0.4-0.2,0.7-0.2l5.3,0    c0.2,0,0.5,0.1,0.7,0.2L491.3,161.5z M488.6,162.6L488.6,162.6c-0.1-0.1-0.4-0.1-0.5-0.1l-1.6,0c-0.2,0-0.4,0-0.5,0.1l0,0    c-0.1,0.1-0.2,0.2-0.2,0.3v0.9c0,0.1,0.1,0.2,0.2,0.3l0,0c0.1,0.1,0.3,0.1,0.5,0.1l1.6,0c0.2,0,0.4-0.1,0.5-0.1l0,0    c0.1-0.1,0.2-0.2,0.2-0.3v-0.9C488.8,162.8,488.7,162.7,488.6,162.6z"/><path class="st26" d="M487.6,158.1l2.8-6.1c0.4-0.9-0.5-1.7-2-2c-1.5-0.2-3,0.3-3.4,1.1l-1.6,3.4l-4.4-2.5c-1.1-0.6-2.8-0.6-3.9,0    c-1.1,0.6-1.1,1.6,0,2.3l7.6,4.4c0.4,0.2,0.8,0.4,1.4,0.5C485.6,159.5,487.2,159,487.6,158.1z"/><path class="st26" d="M488.1,167.8c-0.5,0.2-0.9,0.5-1.1,0.9l-2.8,6.1c-0.4,0.9,0.5,1.7,2,2c1.5,0.2,3-0.3,3.4-1.1l1.6-3.5    l4.4,2.5c1.1,0.6,2.8,0.6,3.9,0c1.1-0.6,1.1-1.6,0-2.3l-7.7-4.5C490.7,167.4,489.2,167.3,488.1,167.8z"/><path class="st26" d="M498,151.6c-1.5-0.2-3,0.3-3.4,1.1l-2.8,6.1c-0.3,0.6,0.1,1.2,0.8,1.6c0.7,0.4,1.7,0.6,2.7,0.4l10.6-1.6    c1.5-0.2,2.4-1.1,2-2c-0.4-0.9-1.9-1.4-3.4-1.1l-6,0.9l1.6-3.5C500.4,152.7,499.5,151.8,498,151.6z"/></g></g><linearGradient id="SVGID_17_" gradientUnits="userSpaceOnUse" x1="225.7601" y1="-2267.0801" x2="240.0501" y2="-2245.5601" gradientTransform="matrix(1 0 0 -1 0 -2086.6399)"><stop offset="5.000000e-02" style="stop-color:#A2A5E1"/><stop offset="0.63" style="stop-color:#ECEDFF;stop-opacity:0.2"/><stop offset="1" style="stop-color:#A2A5E1"/></linearGradient><path class="st27" d="M230.3,176.2c4.2-2.6,6.9-7,7.4-11.9c0.1-2.3-0.5-3.8-1.7-4.6l-10.7,16.9C226.5,177.4,228.3,177.2,230.3,176.2  z"/><path class="st18" d="M193.1,88.6l-51.4,32.5c-1.8,1.2-2.4,3.6-1.2,5.4c0.3,0.5,0.7,0.9,1.2,1.2l31.3,19.9"/><path class="st28" d="M240.6,303.8c-34.9,0-68.3-8.2-94-23.1c-32.7-18.8-50.6-46.3-50.6-77.4s18-58.5,50.7-77.4  c25.7-14.9,59.1-23,93.9-23s68.3,8.2,94,23.1c32.7,18.9,50.7,46.4,50.7,77.4s-18,58.5-50.7,77.4  C308.8,295.6,275.4,303.8,240.6,303.8z"/><path class="st28" d="M240.6,283.8c-31.4,0-61.2-7.2-84-20.4c-26.2-15.1-40.7-36.5-40.7-60.1s14.4-44.9,40.7-60.1  c22.7-13.1,52.5-20.4,84-20.4s61.3,7.2,84,20.4c26.2,15.1,40.7,36.5,40.7,60.1s-14.5,44.9-40.7,60.1  C301.8,276.5,272,283.8,240.6,283.8z"/><linearGradient id="SVGID_18_" gradientUnits="userSpaceOnUse" x1="146.4403" y1="507.6892" x2="312.7303" y2="577.8392" gradientTransform="matrix(1 0 0 1 0 -344.1)"><stop offset="1.000000e-02" style="stop-color:#70C8A8"/><stop offset="0.45" style="stop-color:#52BD95"/><stop offset="0.97" style="stop-color:#39B386"/></linearGradient><path class="st29" d="M314.6,160.6c40.9,23.6,40.9,61.9,0,85.5s-107.2,23.6-148,0s-40.9-61.9,0-85.5S273.7,137,314.6,160.6z"/><linearGradient id="SVGID_19_" gradientUnits="userSpaceOnUse" x1="-151.8116" y1="242.1075" x2="-139.9216" y2="221.5275" gradientTransform="matrix(1 0 0 1 564 -110.1)"><stop offset="0" style="stop-color:#FFFFFF;stop-opacity:0.1"/><stop offset="1" style="stop-color:#FFFFFF;stop-opacity:1.000000e-02"/></linearGradient><path class="st30" d="M413.4,107.5l-4.3,2.5c-1,0.6-1.1,1.6-0.2,2.1l5.1,2.9l-6.3,3.6c-1,0.6-1.1,1.5-0.1,2.1l5.7,3.3l-5.6,3.3  c-1,0.6-1.1,1.5-0.2,2l4,2.3c1.1,0.5,2.5,0.5,3.6-0.1l13.8-8l1.9-1.1l4.3-2.5c1-0.6,1.1-1.6,0.2-2.1L417,107.4  C415.8,106.8,414.5,106.9,413.4,107.5z"/><linearGradient id="SVGID_20_" gradientUnits="userSpaceOnUse" x1="-151.8116" y1="242.1075" x2="-139.9216" y2="221.5275" gradientTransform="matrix(1 0 0 1 564 -110.1)"><stop offset="0" style="stop-color:#FFFFFF;stop-opacity:0.1"/><stop offset="1" style="stop-color:#FFFFFF;stop-opacity:1.000000e-02"/></linearGradient><path class="st31" d="M413.4,107.5l-4.3,2.5c-1,0.6-1.1,1.6-0.2,2.1l5.1,2.9l-6.3,3.6c-1,0.6-1.1,1.5-0.1,2.1l5.7,3.3l-5.6,3.3  c-1,0.6-1.1,1.5-0.2,2l4,2.3c1.1,0.5,2.5,0.5,3.6-0.1l13.8-8l1.9-1.1l4.3-2.5c1-0.6,1.1-1.6,0.2-2.1L417,107.4  C415.8,106.8,414.5,106.9,413.4,107.5z"/><g><path class="st32" d="M413.4,107.5l-4.3,2.5c-1,0.6-1.1,1.6-0.2,2.1l5.1,3l14.8,8.6l1.9-1.1l4.3-2.5c1-0.6,1.1-1.6,0.2-2.1   L417,107.4C415.8,106.8,414.5,106.9,413.4,107.5z"/><polygon class="st33" points="395.7,124.1 415.2,112.8 433.6,123.4 414.1,134.7  "/><path class="st34" d="M407.6,120.7l5.7,3.3l-5.6,3.2c-1,0.6-1.1,1.5-0.2,2.1l4,2.3c1.1,0.5,2.5,0.5,3.6-0.1l13.7-7.9L414,115   l-6.2,3.6C406.7,119.2,406.7,120.1,407.6,120.7z"/></g><g><linearGradient id="SVGID_21_" gradientUnits="userSpaceOnUse" x1="-145.9182" y1="234.0018" x2="-134.4381" y2="222.6517" gradientTransform="matrix(1 0 0 1 564 -110.1)"><stop offset="0" style="stop-color:#BF360C;stop-opacity:0.2"/><stop offset="1" style="stop-color:#BF360C;stop-opacity:2.000000e-02"/></linearGradient><path class="st35" d="M414,115l14.8,8.6l1.9-1.1l4.3-2.5c1-0.6,1.1-1.6,0.2-2.1l-5.7-3.3L414,115z"/></g><g><path class="st36" d="M407.9,118.7l6.2-3.6L414,115l-6.2,3.6c-1,0.6-1.1,1.5-0.2,2.1l0.1,0.1C406.8,120.2,406.9,119.3,407.9,118.7z   "/></g><g><path class="st36" d="M407.8,127.3l5.6-3.2l-0.1-0.1l-5.6,3.2c-1,0.6-1.1,1.5-0.2,2.1l0.1,0.1C406.7,128.8,406.8,127.9,407.8,127.3   z"/></g><g><path class="st36" d="M413.4,107.5l-4.3,2.5c-1,0.6-1.1,1.6-0.2,2.1l0.1,0.1c-1-0.6-0.9-1.5,0.2-2.1l4.3-2.5   c1.1-0.6,2.5-0.6,3.6-0.1l-0.1-0.1C415.9,106.8,414.5,106.8,413.4,107.5z"/></g><g><path class="st37" d="M434.9,119.9l-4.3,2.5l-1.9,1.1l-13.7,7.9c-1.1,0.6-2.4,0.6-3.6,0.1l0.1,0.1c1.1,0.5,2.5,0.5,3.6-0.1   l13.7-7.9l1.9-1.1l4.2-2.5c1-0.6,1.1-1.6,0.2-2.1l-0.1-0.1C436,118.3,436,119.3,434.9,119.9z"/></g><linearGradient id="SVGID_22_" gradientUnits="userSpaceOnUse" x1="-157.1619" y1="229.0236" x2="-128.0319" y2="231.3236" gradientTransform="matrix(1 0 0 1 564 -110.1)"><stop offset="0" style="stop-color:#FFFFFF;stop-opacity:0.1"/><stop offset="1" style="stop-color:#FFFFFF;stop-opacity:1.000000e-02"/></linearGradient><path class="st38" d="M413.4,107.5l-4.3,2.5c-1,0.6-1.1,1.6-0.2,2.1l5.1,3l-6.2,3.6c-1,0.6-1.1,1.5-0.2,2.1l5.7,3.3l-5.6,3.3  c-1,0.6-1.1,1.5-0.2,2.1l4,2.3c1.1,0.5,2.5,0.5,3.6-0.1l20-11.5c1-0.6,1.1-1.6,0.2-2.1L417,107.4  C415.8,106.8,414.5,106.9,413.4,107.5z"/><circle class="st1" cx="220.8" cy="337.6" r="5.7"/><path class="st17" d="M269.3,146.6l3.5-10.6c0.1-0.5,0.4-0.9,0.9-1.1l49.2-30.4"/><path class="st17" d="M334.9,180.9l57.6-35.2"/><linearGradient id="SVGID_23_" gradientUnits="userSpaceOnUse" x1="145.0319" y1="508.0155" x2="312.6118" y2="578.7056" gradientTransform="matrix(1 0 0 1 0 -344.1)"><stop offset="0.21" style="stop-color:#98D3BD"/><stop offset="1" style="stop-color:#28966E"/></linearGradient><path class="st39" d="M343,191.9c-4-11.1-13.5-21.7-28.4-30.3c-40.9-23.6-107.2-23.6-148,0c-14.9,8.6-24.4,19.2-28.4,30.3l-2.3,1.3  l0.1,11.1c0,15.5,10.2,30.9,30.7,42.7c40.9,23.6,107.2,23.6,148,0c20.4-11.8,30.7-27.3,30.7-42.7l-0.1-12.4H343z"/><linearGradient id="SVGID_24_" gradientUnits="userSpaceOnUse" x1="146.4403" y1="497.6892" x2="312.7303" y2="567.8392" gradientTransform="matrix(1 0 0 1 0 -344.1)"><stop offset="1.000000e-02" style="stop-color:#70C8A8"/><stop offset="0.45" style="stop-color:#52BD95"/><stop offset="0.97" style="stop-color:#39B386"/></linearGradient><path class="st40" d="M314.6,150.6c40.9,23.6,40.9,61.9,0,85.5s-107.2,23.6-148,0s-40.9-61.9,0-85.5S273.7,127,314.6,150.6z"/><path class="st1" d="M195.2,209c-0.2,0-0.5-0.1-0.7-0.2c-0.2-0.1-0.3-0.2-0.5-0.3c-5.8-5.7-8.2-12.3-6.9-19c1-5.2,4.4-10.2,9.7-14.5  s12.4-7.8,20.6-10.2c0.3-0.1,0.5-0.1,0.8-0.1c0.3,0,0.5,0,0.8,0.1c0.4,0.1,0.8,0.3,1.1,0.6l2.9,3.9c0.2,0.3,0.2,0.6,0.1,0.9  c-0.3,0.3-0.6,0.6-1,0.7c-5.9,1.5-11.3,4.3-16.1,8c-4.2,3.4-6.7,7.3-7.5,11.4c-1,5.2,1,10.4,5.5,14.8c0.2,0.2,0.3,0.4,0.2,0.7  c-0.1,0.3-0.3,0.5-0.6,0.7l-0.3,0.2L197,209c-0.2,0.1-0.5,0.1-0.8,0.2C195.9,209.2,195.5,209.1,195.2,209"/><path class="st1" d="M281.5,173h-0.8c-0.2,0-0.5,0.1-0.7,0.2l-5.8,2.7c-0.4,0.2-0.7,0.5-0.7,0.8c-0.1,0.3,0.1,0.7,0.4,0.8  c6,4.5,8.9,10.1,8.3,15.9c-0.4,4.5-3,8.8-7.4,12.5s-10.6,6.7-17.7,8.6c-0.2,0.1-0.4,0.2-0.6,0.3c-0.2,0.1-0.3,0.2-0.4,0.4  c-0.1,0.1-0.1,0.3-0.1,0.4c0,0.2,0.1,0.3,0.2,0.4l2.8,4c0.1,0.1,0.2,0.3,0.4,0.4c0.2,0.1,0.5,0.2,0.7,0.2c0.3,0.1,0.5,0.1,0.8,0.1  c0.3,0,0.5,0,0.8-0.1c5.7-1.4,11.2-3.6,16.3-6.5c9.5-5.5,15.2-12.8,15.9-20.4c0.7-7.4-3.1-14.6-10.8-20.3l-0.6-0.3  C282,173.1,281.8,173,281.5,173"/><path class="st1" d="M259.6,193.6l-5.2-3c-0.4-0.2-0.9-0.3-1.4-0.3c-0.5,0-1,0.1-1.4,0.3l-42.9,24.8c-0.4,0.1-0.7,0.6-0.6,1  c0.1,0.3,0.3,0.5,0.6,0.6l5.2,3l0.6,0.3c0.3,0.1,0.5,0.1,0.8,0.1c0.3,0,0.5,0,0.8-0.1c0.2-0.1,0.5-0.1,0.7-0.3l42.9-24.8  c0.2-0.1,0.3-0.2,0.4-0.4c0.1-0.1,0.2-0.2,0.2-0.4c0-0.2,0-0.3-0.1-0.4C260,194,259.8,193.8,259.6,193.6z"/><path class="st1" d="M219.1,189.4l5.2,3c0.4,0.2,0.9,0.3,1.4,0.3c0.5,0,1-0.1,1.4-0.3l42.9-24.8c0.2-0.1,0.3-0.2,0.4-0.4  c0.1-0.1,0.2-0.2,0.2-0.4c0-0.2,0-0.3-0.1-0.4s-0.2-0.3-0.4-0.4l-5.2-3c-0.9-0.4-1.9-0.4-2.8,0l-42.9,24.8c-0.3,0.1-0.6,0.4-0.6,0.8  C218.5,188.9,218.7,189.2,219.1,189.4"/><path class="st1" d="M233.2,161.4c-0.8,0.4-1.4,1-1.8,1.8c-0.3,0.7-0.2,1.4,0.2,2c0.6,0.7,1.3,1.3,2.2,1.6c2.2,0.8,4.6,0.8,6.8,0  c0.9-0.3,1.7-0.9,2.3-1.6c0.5-0.5,0.7-1.3,0.5-2c-0.3-0.8-0.8-1.4-1.6-1.8h-0.1c-1.3-0.7-2.7-1-4.2-1  C236,160.3,234.5,160.6,233.2,161.4"/><path class="st1" d="M236.8,218.6c-0.8,0.4-1.4,1-1.8,1.8c-0.3,0.7-0.2,1.4,0.2,2c0.6,0.7,1.3,1.3,2.2,1.6c2.2,0.8,4.6,0.8,6.8,0  c0.9-0.3,1.7-0.9,2.3-1.6c0.5-0.5,0.7-1.3,0.5-2c-0.3-0.8-0.8-1.4-1.6-1.8h-0.1c-1.3-0.7-2.7-1-4.2-1  C239.6,217.5,238.1,217.9,236.8,218.6z"/><path class="st17" d="M334.9,224.6l24.7,15.7c0.6,0.4,1.4,0.4,2,0l98.5-55.5"/><circle class="st1" cx="195" cy="87.1" r="5.7"/></svg>