<svg xmlns="http://www.w3.org/2000/svg" viewBox="0 0 586 579" fill="none"><mask id="mask0" mask-type="alpha" maskUnits="userSpaceOnUse" x="0" y="0" width="586" height="579"><rect x="0.568359" width="585.39" height="578.55" fill="url(#paint0_linear)"/></mask><g mask="url(#mask0)"><g opacity="0.25"><g filter="url(#filter0_d)"><path d="M315.183 435.325C313.418 434.306 312.537 432.97 312.538 431.635C312.539 430.302 312.538 429.684 312.538 428.532L336.172 415.834C339.699 413.798 345.418 413.798 348.945 415.834L372.579 428.442C372.579 429.561 372.585 430.312 372.579 431.651C372.573 432.981 371.691 434.31 369.933 435.324L348.944 447.441C345.417 449.478 339.699 449.478 336.172 447.441L315.183 435.325Z" fill="url(#paint1_linear)"/></g><path d="M306.817 433.427C304.514 432.097 303.363 430.354 303.365 428.611C303.367 426.871 303.365 426.066 303.365 424.562L334.207 407.992C338.81 405.334 346.273 405.334 350.876 407.992L381.717 424.444C381.717 425.905 381.725 426.886 381.717 428.633C381.709 430.368 380.558 432.102 378.265 433.426L350.875 449.238C346.272 451.896 338.809 451.896 334.206 449.238L306.817 433.427Z" fill="url(#paint2_linear)"/><path d="M306.818 429.454C302.215 426.796 302.215 422.488 306.818 419.831L334.207 404.019C338.81 401.362 346.272 401.362 350.875 404.019L378.264 419.831C382.867 422.488 382.867 426.796 378.264 429.454L350.875 445.265C346.272 447.923 338.81 447.923 334.207 445.265L306.818 429.454Z" fill="url(#paint3_radial)"/><path fill-rule="evenodd" clip-rule="evenodd" d="M330.222 416.855C322.776 421.154 322.25 427.829 329.05 431.754C335.849 435.679 347.411 435.376 354.858 431.077C362.305 426.778 362.83 420.103 356.031 416.178C349.231 412.253 337.669 412.556 330.222 416.855ZM353.068 430.044C349.506 432.1 344.827 433.085 340.39 432.963C342.854 432.195 344.52 430.664 344.665 428.827C344.679 428.638 344.669 428.445 344.642 428.243C346.909 428.669 349.14 428.253 350.596 427.412C353.088 425.974 352.835 423.409 350.206 421.579C347.577 419.75 343.436 419.457 341.053 420.833C340.126 421.368 339.53 421.968 339.214 422.596C337.797 421.404 336.477 420.289 336.034 419.909C335.665 419.594 335.257 419.555 334.936 419.524L334.915 419.522C334.378 419.472 334.049 419.5 333.752 419.672L330.317 421.655C330.119 421.769 330.098 421.923 330.25 422.073C330.417 422.242 330.907 422.66 331.177 422.837C331.414 422.984 331.684 422.932 331.9 422.808L334.409 421.359L335.582 422.334C337.478 423.91 339.981 425.99 340.702 426.601C341.242 427.048 341.944 428.046 341.853 429.104C341.733 430.623 339.519 432.243 336.62 432.324C335.622 432.35 333.605 432.12 331.002 430.617C325.196 427.266 325.646 421.554 332.004 417.884C338.363 414.213 348.264 413.958 354.07 417.31C359.876 420.662 359.426 426.373 353.068 430.044ZM342.63 421.952C341.083 422.845 341.313 424.504 343.026 425.752C345.036 427.266 347.549 427.19 348.835 426.448C350.283 425.612 349.983 423.974 348.27 422.725C346.557 421.477 344.006 421.157 342.63 421.952Z" fill="#212124"/></g><g opacity="0.5"><g filter="url(#filter1_d)"><path d="M216.628 378.295C214.863 377.276 213.981 375.941 213.983 374.605C213.984 373.272 213.983 372.654 213.983 371.502L237.617 358.804C241.144 356.768 246.863 356.768 250.39 358.804L274.023 371.412C274.023 372.531 274.03 373.283 274.023 374.622C274.017 375.951 273.136 377.28 271.378 378.295L250.389 390.412C246.862 392.448 241.143 392.448 237.616 390.412L216.628 378.295Z" fill="url(#paint4_linear)"/></g><path d="M208.262 376.397C205.959 375.067 204.808 373.324 204.81 371.582C204.811 369.842 204.81 369.036 204.81 367.533L235.652 350.962C240.255 348.305 247.717 348.305 252.32 350.962L283.162 367.414C283.162 368.875 283.17 369.856 283.162 371.603C283.154 373.338 282.003 375.072 279.709 376.396L252.319 392.209C247.717 394.866 240.254 394.866 235.651 392.209L208.262 376.397Z" fill="url(#paint5_linear)"/><path d="M208.262 372.424C203.659 369.767 203.659 365.458 208.262 362.801L235.652 346.989C240.254 344.332 247.717 344.332 252.32 346.989L279.709 362.801C284.312 365.458 284.312 369.767 279.709 372.424L252.32 388.236C247.717 390.893 240.254 390.893 235.652 388.236L208.262 372.424Z" fill="url(#paint6_radial)"/><path d="M229.981 363.136C229.981 364.593 230.653 365.952 231.915 367.165C230.653 368.379 229.981 369.738 229.981 371.194C229.981 373.427 231.494 375.466 234.017 376.922L234.017 368.767C234.605 369.107 235.362 369.447 236.035 369.738L236.035 377.893C237.212 378.378 238.557 378.767 239.987 379.009L239.987 373.767C238.725 373.136 237.969 372.214 238.053 371.194C238.053 370.903 238.053 370.709 238.137 370.466C239.987 370.952 241.92 371.194 244.023 371.243C246.04 371.243 248.143 371 249.908 370.466C249.992 370.709 250.076 370.952 249.992 371.194C249.992 372.262 249.152 373.136 248.058 373.767L248.058 379.009C249.488 378.767 250.833 378.378 252.01 377.893L252.01 369.738C252.683 369.447 253.44 369.107 254.028 368.767V376.922C256.551 375.466 258.064 373.427 257.98 371.243C257.98 369.787 257.223 368.379 256.13 367.165C257.308 366 258.064 364.593 257.98 363.088C257.98 358.622 251.674 354.982 243.938 354.982C236.203 354.982 229.897 358.622 229.981 363.136V363.136ZM250.076 363.088C250.076 365.03 247.386 366.583 244.107 366.534C240.827 366.486 238.053 364.981 238.137 363.088C238.137 361.146 240.827 359.593 244.107 359.642C247.386 359.69 249.992 361.195 250.076 363.088V363.088Z" fill="#0037FF"/><path d="M244.023 374.738C243.35 374.738 242.677 374.641 242.005 374.544V379.301C242.593 379.349 243.35 379.398 244.023 379.398C244.695 379.398 245.368 379.398 246.041 379.301L246.041 374.544C245.368 374.641 244.779 374.689 244.023 374.738V374.738Z" fill="#0037FF"/></g><g opacity="0.5"><g filter="url(#filter2_d)"><path d="M413.738 378.295C411.974 377.276 411.092 375.941 411.093 374.605C411.094 373.272 411.093 372.654 411.093 371.502L434.727 358.804C438.255 356.768 443.973 356.768 447.5 358.804L471.134 371.412C471.134 372.531 471.14 373.283 471.134 374.622C471.128 375.951 470.246 377.28 468.489 378.295L447.5 390.412C443.973 392.448 438.254 392.448 434.727 390.412L413.738 378.295Z" fill="url(#paint7_linear)"/></g><path d="M405.372 376.397C403.069 375.067 401.918 373.324 401.92 371.582C401.922 369.842 401.92 369.036 401.92 367.533L432.762 350.962C437.365 348.305 444.828 348.305 449.431 350.962L480.272 367.414C480.272 368.875 480.28 369.856 480.272 371.603C480.264 373.338 479.113 375.072 476.82 376.396L449.43 392.209C444.827 394.866 437.364 394.866 432.761 392.209L405.372 376.397Z" fill="url(#paint8_linear)"/><path d="M405.373 372.424C400.77 369.767 400.77 365.458 405.373 362.801L432.762 346.989C437.365 344.332 444.828 344.332 449.43 346.989L476.82 362.801C481.422 365.458 481.422 369.767 476.82 372.424L449.43 388.236C444.828 390.893 437.365 390.893 432.762 388.236L405.373 372.424Z" fill="url(#paint9_radial)"/><path d="M424.248 371.553L431.942 372.876L451.626 361.512L449.293 357.094L424.248 371.553Z" fill="#2E2E2E"/><path d="M433.65 373.91L441.385 375.256L455.78 366.946L453.376 362.522L433.65 373.91Z" fill="#2E2E2E"/></g><g opacity="0.5"><g filter="url(#filter3_d)"><path d="M315.183 321.265C313.418 320.247 312.537 318.911 312.538 317.575C312.539 316.242 312.538 315.625 312.538 314.473L336.172 301.775C339.699 299.738 345.418 299.738 348.945 301.775L372.579 314.382C372.579 315.501 372.585 316.253 372.579 317.592C372.573 318.922 371.691 320.25 369.933 321.265L348.944 333.382C345.417 335.418 339.699 335.418 336.172 333.382L315.183 321.265Z" fill="url(#paint10_linear)"/></g><path d="M306.817 319.367C304.514 318.038 303.363 316.295 303.365 314.552C303.367 312.812 303.365 312.006 303.365 310.503L334.207 293.932C338.81 291.275 346.273 291.275 350.876 293.932L381.717 310.385C381.717 311.845 381.725 312.826 381.717 314.573C381.709 316.309 380.558 318.043 378.265 319.367L350.875 335.179C346.272 337.836 338.809 337.836 334.206 335.179L306.817 319.367Z" fill="url(#paint11_linear)"/><path d="M306.818 315.394C302.215 312.737 302.215 308.429 306.818 305.772L334.207 289.96C338.81 287.303 346.272 287.303 350.875 289.96L378.264 305.772C382.867 308.429 382.867 312.737 378.264 315.394L350.875 331.206C346.272 333.863 338.81 333.863 334.207 331.206L306.818 315.394Z" fill="url(#paint12_radial)"/><g clip-path="url(#clip0)"><path opacity="0.2" d="M344.252 295.129L315.093 311.963L343.459 328.339L372.619 311.505L344.252 295.129Z" fill="black"/><path opacity="0.2" d="M344.831 294.795L315.672 311.629L344.039 328.004L373.198 311.171L344.831 294.795Z" fill="black"/><path d="M344.252 295.129L315.672 311.629L343.461 327.671L372.041 311.172L344.252 295.129Z" fill="url(#paint13_radial)"/><path fill-rule="evenodd" clip-rule="evenodd" d="M332.735 305.618C326.947 308.959 326.934 314.368 332.706 317.7C338.478 321.032 347.848 321.025 353.636 317.684C359.425 314.342 359.437 308.933 353.665 305.601C347.894 302.269 338.523 302.276 332.735 305.618ZM333.504 306.061C338.857 302.971 347.557 302.963 352.895 306.045C358.234 309.127 358.222 314.149 352.868 317.24C347.514 320.331 338.815 320.338 333.476 317.256C328.138 314.174 328.15 309.152 333.504 306.061Z" fill="#80C242"/><path d="M340.863 313.266L339.791 313.884L346.832 317.949C347.326 317.855 347.862 317.711 348.331 317.577L340.863 313.266ZM342.412 311.823L350.723 316.621C350.929 316.565 351.207 316.472 351.36 316.384C351.55 316.274 351.758 316.182 351.89 316.061L343.484 311.204L342.413 311.823L342.412 311.823ZM354.52 311.663C354.5 311.208 354.403 310.699 354.223 310.253L348.846 307.149L347.774 307.768L354.52 311.663ZM337.69 315.602L337.325 312.513L340.569 311.653L342.014 306.658L346.954 306.572L347.214 305.246L346.616 305.121L346.383 306.25L341.585 306.352L340.11 311.422L336.806 312.265L337.136 315.521L335.863 316.704L336.246 316.924L337.69 315.602ZM339.904 316.287L338.832 316.906L340.912 318.106C341.667 318.197 342.482 318.216 343.249 318.218L339.904 316.287ZM344.443 308.182L343.371 308.801L353.415 314.6C353.642 314.324 353.883 314.012 354.039 313.722L344.443 308.182Z" fill="#1E311E"/></g></g><g opacity="0.5"><g filter="url(#filter4_d)"><path d="M512.294 321.265C510.529 320.247 509.647 318.911 509.648 317.575C509.65 316.242 509.648 315.625 509.648 314.473L533.283 301.775C536.81 299.738 542.528 299.738 546.056 301.775L569.689 314.382C569.689 315.501 569.695 316.253 569.689 317.592C569.683 318.922 568.801 320.25 567.044 321.265L546.055 333.382C542.528 335.418 536.809 335.418 533.282 333.382L512.294 321.265Z" fill="url(#paint14_linear)"/></g><path d="M503.927 319.367C501.624 318.038 500.474 316.295 500.475 314.552C500.477 312.812 500.475 312.006 500.475 310.503L531.318 293.932C535.92 291.275 543.383 291.275 547.986 293.932L578.827 310.385C578.827 311.845 578.835 312.826 578.827 314.573C578.819 316.309 577.669 318.043 575.375 319.367L547.985 335.179C543.382 337.836 535.919 337.836 531.317 335.179L503.927 319.367Z" fill="url(#paint15_linear)"/><path d="M503.928 315.394C499.325 312.737 499.325 308.429 503.928 305.772L531.317 289.96C535.92 287.303 543.383 287.303 547.986 289.96L575.375 305.772C579.978 308.429 579.978 312.737 575.375 315.394L547.986 331.206C543.383 333.863 535.92 333.863 531.317 331.206L503.928 315.394Z" fill="url(#paint16_radial)"/></g><g opacity="0.25"><g filter="url(#filter5_d)"><path d="M225.38 496.738C223.615 495.719 222.733 494.384 222.734 493.048C222.736 491.715 222.734 491.098 222.734 489.946L246.369 477.248C249.896 475.211 255.615 475.211 259.142 477.248L282.775 489.855C282.775 490.974 282.781 491.726 282.775 493.065C282.769 494.395 281.887 495.723 280.13 496.738L259.141 508.855C255.614 510.891 249.895 510.891 246.368 508.855L225.38 496.738Z" fill="url(#paint17_linear)"/></g><path d="M217.014 494.84C214.71 493.511 213.56 491.768 213.561 490.025C213.563 488.285 213.561 487.479 213.561 485.976L244.404 469.405C249.007 466.748 256.469 466.748 261.072 469.405L291.913 485.858C291.913 487.318 291.921 488.299 291.913 490.046C291.905 491.782 290.755 493.516 288.461 494.84L261.071 510.652C256.468 513.309 249.006 513.309 244.403 510.652L217.014 494.84Z" fill="url(#paint18_linear)"/><path d="M217.014 490.867C212.411 488.21 212.411 483.902 217.014 481.244L244.403 465.433C249.006 462.775 256.469 462.775 261.072 465.433L288.461 481.244C293.064 483.902 293.064 488.21 288.461 490.867L261.072 506.679C256.469 509.336 249.006 509.336 244.403 506.679L217.014 490.867Z" fill="url(#paint19_radial)"/><path fill-rule="evenodd" clip-rule="evenodd" d="M233.193 487.918L238.436 486.133L253.78 494.991L250.179 497.724L233.193 487.918Z" fill="#5391CC"/><path fill-rule="evenodd" clip-rule="evenodd" d="M233.193 487.918L231.838 489.746L247.466 498.767L250.179 497.724L233.193 487.918Z" fill="#1D5D9A"/><path fill-rule="evenodd" clip-rule="evenodd" d="M256.078 474.706L252.986 477.733L268.33 486.591L273.064 484.512L256.078 474.706Z" fill="#1D5D9A"/><path fill-rule="evenodd" clip-rule="evenodd" d="M256.078 474.706L259.244 473.924L274.871 482.946L273.064 484.512L256.078 474.706Z" fill="#5391CC"/><path d="M243.617 477.136L237.401 480.724L261.952 494.897L268.168 491.309L243.617 477.136Z" fill="#2572B8"/><path fill-rule="evenodd" clip-rule="evenodd" d="M234.963 484.128L237.401 480.724L261.952 494.897L256.171 496.372L234.963 484.128Z" fill="#1D5D9A"/><path fill-rule="evenodd" clip-rule="evenodd" d="M243.617 477.136L249.686 475.828L270.318 487.739L268.168 491.309L243.617 477.136Z" fill="#5391CC"/></g><g opacity="0.5"><g filter="url(#filter6_d)"><path d="M413.738 264.236C411.974 263.217 411.092 261.881 411.093 260.546C411.094 259.212 411.093 258.595 411.093 257.443L434.727 244.745C438.255 242.709 443.973 242.709 447.5 244.745L471.134 257.352C471.134 258.472 471.14 259.223 471.134 260.562C471.128 261.892 470.246 263.221 468.489 264.235L447.5 276.352C443.973 278.388 438.254 278.389 434.727 276.352L413.738 264.236Z" fill="url(#paint20_linear)"/></g><path d="M405.372 262.338C403.069 261.008 401.918 259.265 401.92 257.522C401.922 255.782 401.92 254.977 401.92 253.473L432.762 236.903C437.365 234.245 444.828 234.245 449.431 236.903L480.272 253.355C480.272 254.816 480.28 255.796 480.272 257.544C480.264 259.279 479.113 261.013 476.82 262.337L449.43 278.149C444.827 280.807 437.364 280.807 432.761 278.149L405.372 262.338Z" fill="url(#paint21_linear)"/><path d="M405.373 258.365C400.77 255.707 400.77 251.399 405.373 248.742L432.762 232.93C437.365 230.273 444.828 230.273 449.43 232.93L476.82 248.742C481.422 251.399 481.422 255.707 476.82 258.365L449.43 274.176C444.828 276.834 437.365 276.834 432.762 274.176L405.373 258.365Z" fill="url(#paint22_radial)"/><g clip-path="url(#clip1)"><path d="M456.011 247.403L442.375 254.665L429.839 262.512L448.942 258.456L456.011 247.403Z" fill="#FBBF93"/><path d="M427.988 261.443L443.727 252.358L429.181 243.961L425.229 244.716L418.688 256.075L427.988 261.443Z" fill="#9D5025"/><path d="M460.727 250.075L445.724 256.548L434.512 265.209L457.007 263.011L460.727 250.075Z" fill="#FBBF93"/><path d="M441.096 253.876L448.023 249.878L438.106 244.152L435.296 244.859L431.796 248.507L441.096 253.876Z" fill="#9D5025"/><path d="M446.006 251.042L451.355 247.954L444.919 244.239L442.944 244.871L439.747 247.429L446.006 251.042Z" fill="#9D5025"/><path d="M449.82 248.84L454.16 246.334L446.755 242.009L444.911 242.463L442.415 244.565L449.82 248.84Z" fill="#9D5025"/><path d="M429.181 243.961L425.229 244.716L441.096 253.876L443.727 252.358L429.181 243.961Z" fill="#F58536"/><path d="M438.106 244.152L435.296 244.859L446.006 251.042L448.023 249.878L438.106 244.152Z" fill="#F58536"/><path d="M444.919 244.239L442.944 244.87L449.82 248.84L451.354 247.954L444.919 244.239Z" fill="#F58536"/><path d="M444.911 242.463L446.755 242.009L454.204 246.309L452.889 247.068L444.911 242.463Z" fill="#F58536"/><path d="M458.788 249.006L448.942 258.456L444.226 255.734L456.011 247.403L458.788 249.006Z" fill="#F58536"/><path d="M460.727 250.075L452.248 260.365L456.92 263.062L463.46 251.653L460.727 250.075Z" fill="#F58536"/><path d="M434.512 265.209L452.204 260.339L456.92 263.062L437.288 266.812L434.512 265.209Z" fill="#9D5025"/><path d="M429.839 262.512L444.226 255.734L448.942 258.456L432.616 264.115L429.839 262.512Z" fill="#9D5025"/></g></g><g opacity="0.5"><g filter="url(#filter7_d)"><path d="M315.183 207.206C313.418 206.187 312.537 204.851 312.538 203.516C312.539 202.183 312.538 201.565 312.538 200.413L336.172 187.715C339.699 185.679 345.418 185.679 348.945 187.715L372.579 200.323C372.579 201.442 372.585 202.193 372.579 203.532C372.573 204.862 371.691 206.191 369.933 207.205L348.944 219.322C345.417 221.359 339.699 221.359 336.172 219.322L315.183 207.206Z" fill="url(#paint23_linear)"/></g><path d="M306.817 205.308C304.514 203.978 303.363 202.235 303.365 200.492C303.367 198.752 303.365 197.947 303.365 196.443L334.207 179.873C338.81 177.215 346.273 177.215 350.876 179.873L381.717 196.325C381.717 197.786 381.725 198.767 381.717 200.514C381.709 202.249 380.558 203.983 378.265 205.307L350.875 221.119C346.272 223.777 338.809 223.777 334.206 221.119L306.817 205.308Z" fill="url(#paint24_linear)"/><path d="M306.818 201.335C302.215 198.677 302.215 194.369 306.818 191.712L334.207 175.9C338.81 173.243 346.272 173.243 350.875 175.9L378.264 191.712C382.867 194.369 382.867 198.677 378.264 201.335L350.875 217.146C346.272 219.804 338.81 219.804 334.207 217.146L306.818 201.335Z" fill="url(#paint25_radial)"/><path fill-rule="evenodd" clip-rule="evenodd" d="M322.949 197.748L328.192 195.963L343.536 204.822L339.935 207.554L322.949 197.748Z" fill="#5391CC"/><path fill-rule="evenodd" clip-rule="evenodd" d="M322.949 197.748L321.594 199.576L337.221 208.598L339.935 207.554L322.949 197.748Z" fill="#1D5D9A"/><path fill-rule="evenodd" clip-rule="evenodd" d="M345.833 184.537L342.742 187.563L358.086 196.422L362.82 194.343L345.833 184.537Z" fill="#1D5D9A"/><path fill-rule="evenodd" clip-rule="evenodd" d="M345.833 184.537L349 183.755L364.627 192.776L362.82 194.343L345.833 184.537Z" fill="#5391CC"/><path d="M333.373 186.966L327.157 190.554L351.708 204.728L357.923 201.139L333.373 186.966Z" fill="#2572B8"/><path fill-rule="evenodd" clip-rule="evenodd" d="M324.719 193.958L327.157 190.555L351.708 204.728L345.927 206.202L324.719 193.958Z" fill="#1D5D9A"/><path fill-rule="evenodd" clip-rule="evenodd" d="M333.373 186.966L339.442 185.658L360.074 197.569L357.923 201.139L333.373 186.966Z" fill="#5391CC"/></g><g opacity="0.5"><g filter="url(#filter8_d)"><path d="M512.294 207.206C510.529 206.187 509.647 204.851 509.648 203.516C509.65 202.183 509.648 201.565 509.648 200.413L533.283 187.715C536.81 185.679 542.528 185.679 546.056 187.715L569.689 200.323C569.689 201.442 569.695 202.193 569.689 203.532C569.683 204.862 568.801 206.191 567.044 207.205L546.055 219.322C542.528 221.359 536.809 221.359 533.282 219.322L512.294 207.206Z" fill="url(#paint26_linear)"/></g><path d="M503.927 205.308C501.624 203.978 500.474 202.235 500.475 200.492C500.477 198.752 500.475 197.947 500.475 196.443L531.318 179.873C535.92 177.215 543.383 177.215 547.986 179.873L578.827 196.325C578.827 197.786 578.835 198.767 578.827 200.514C578.819 202.249 577.669 203.983 575.375 205.307L547.985 221.119C543.382 223.777 535.919 223.777 531.317 221.119L503.927 205.308Z" fill="url(#paint27_linear)"/><path d="M503.928 201.335C499.325 198.677 499.325 194.369 503.928 191.712L531.317 175.9C535.92 173.243 543.383 173.243 547.986 175.9L575.375 191.712C579.978 194.369 579.978 198.677 575.375 201.335L547.986 217.146C543.383 219.804 535.92 219.804 531.317 217.146L503.928 201.335Z" fill="url(#paint28_radial)"/></g><g opacity="0.5"><g filter="url(#filter9_d)"><path d="M216.628 150.176C214.863 149.157 213.981 147.822 213.983 146.486C213.984 145.153 213.983 144.536 213.983 143.384L237.617 130.686C241.144 128.649 246.863 128.649 250.39 130.686L274.023 143.293C274.023 144.412 274.03 145.164 274.023 146.503C274.017 147.833 273.136 149.161 271.378 150.176L250.389 162.293C246.862 164.329 241.143 164.329 237.616 162.293L216.628 150.176Z" fill="url(#paint29_linear)"/></g><path d="M208.262 148.278C205.959 146.949 204.808 145.205 204.81 143.463C204.811 141.723 204.81 140.917 204.81 139.414L235.652 122.843C240.255 120.186 247.717 120.186 252.32 122.843L283.162 139.296C283.162 140.756 283.17 141.737 283.162 143.484C283.154 145.22 282.003 146.954 279.709 148.278L252.319 164.09C247.717 166.747 240.254 166.747 235.651 164.09L208.262 148.278Z" fill="url(#paint30_linear)"/><path d="M208.262 144.305C203.659 141.648 203.659 137.34 208.262 134.682L235.652 118.871C240.254 116.213 247.717 116.213 252.32 118.871L279.709 134.682C284.312 137.34 284.312 141.648 279.709 144.305L252.32 160.117C247.717 162.774 240.254 162.774 235.652 160.117L208.262 144.305Z" fill="url(#paint31_radial)"/><path d="M237.108 128.566L261.743 142.788L264.778 135.245L248.58 125.894L237.108 128.566ZM252.618 141.843L248.351 146.863L229.023 135.705L237.006 132.83L252.618 141.843ZM236.864 150.283L240.8 146.827L228.464 139.705L222.904 142.196L236.864 150.283Z" fill="#5C4C9F"/></g><g opacity="0.5"><g filter="url(#filter10_d)"><path d="M413.738 150.176C411.974 149.157 411.092 147.822 411.093 146.486C411.094 145.153 411.093 144.536 411.093 143.384L434.727 130.686C438.255 128.649 443.973 128.649 447.5 130.686L471.134 143.293C471.134 144.412 471.14 145.164 471.134 146.503C471.128 147.833 470.246 149.161 468.489 150.176L447.5 162.293C443.973 164.329 438.254 164.329 434.727 162.293L413.738 150.176Z" fill="url(#paint32_linear)"/></g><path d="M405.372 148.278C403.069 146.949 401.918 145.205 401.92 143.463C401.922 141.723 401.92 140.917 401.92 139.414L432.762 122.843C437.365 120.186 444.828 120.186 449.431 122.843L480.272 139.296C480.272 140.756 480.28 141.737 480.272 143.484C480.264 145.22 479.113 146.954 476.82 148.278L449.43 164.09C444.827 166.747 437.364 166.747 432.761 164.09L405.372 148.278Z" fill="url(#paint33_linear)"/><path d="M405.373 144.305C400.77 141.648 400.77 137.34 405.373 134.682L432.762 118.871C437.365 116.213 444.828 116.213 449.43 118.871L476.82 134.682C481.422 137.34 481.422 141.648 476.82 144.305L449.43 160.117C444.828 162.774 437.365 162.774 432.762 160.117L405.373 144.305Z" fill="url(#paint34_radial)"/><g clip-path="url(#clip2)"><path d="M443.32 148.914L429.036 147.057C427.918 146.912 427.075 146.425 426.823 145.779L423.605 137.533C423.354 136.888 423.732 136.182 424.598 135.682L435.665 129.294C436.53 128.794 437.752 128.575 438.87 128.721L453.154 130.578C454.272 130.723 455.116 131.211 455.368 131.856L458.585 140.102C458.837 140.747 458.459 141.453 457.593 141.953L446.526 148.341C445.66 148.841 444.438 149.06 443.32 148.914Z" fill="url(#paint35_linear)"/><path opacity="0.07" d="M457.064 134.594L441.496 135.003L437.136 136.531L435.056 138.965L436.732 141.336L440.929 142.631L457.438 142.198L459.195 141.098L457.064 134.594Z" fill="black"/><path d="M436.631 136.24C433.931 137.799 433.741 140.216 436.206 141.64C438.672 143.063 442.859 142.953 445.56 141.395C448.26 139.836 448.45 137.418 445.985 135.995C443.519 134.571 439.331 134.681 436.631 136.24ZM444.483 140.773C442.434 141.956 439.257 142.039 437.386 140.959C435.515 139.879 435.659 138.045 437.708 136.862C439.757 135.679 442.934 135.596 444.805 136.676C446.676 137.756 446.531 139.59 444.483 140.773Z" fill="white"/><path d="M438.602 140.058L439.99 140.859C440.567 140.933 441.181 140.92 441.775 140.823L439.526 139.525L438.602 140.058Z" fill="white"/><path d="M439.263 138.325L442.999 140.482C443.182 140.407 443.359 140.323 443.524 140.228C443.675 140.141 443.807 140.048 443.929 139.952L440.187 137.792L439.263 138.325Z" fill="white"/><path d="M442.926 138.228L444.574 139.179C444.735 138.826 444.744 138.462 444.593 138.123L443.85 137.694L442.926 138.228V138.228Z" fill="white"/><path d="M447.363 138.374L447.32 138.933C447.312 139.032 447.445 139.109 447.616 139.104L451.291 139.007C451.461 139.003 451.607 138.919 451.615 138.82L451.659 138.261C451.666 138.163 451.533 138.086 451.363 138.09L447.687 138.187C447.517 138.191 447.371 138.275 447.363 138.374Z" fill="white"/></g></g><g opacity="0.5"><g filter="url(#filter11_d)"><path d="M118.073 93.1464C116.308 92.1275 115.426 90.7919 115.427 89.4564C115.429 88.1231 115.427 87.5058 115.427 86.3537L139.062 73.6557C142.589 71.6194 148.308 71.6194 151.835 73.6557L175.468 86.2631C175.468 87.3824 175.474 88.1339 175.468 89.473C175.462 90.8027 174.58 92.1314 172.823 93.146L151.834 105.263C148.307 107.299 142.588 107.299 139.061 105.263L118.073 93.1464Z" fill="url(#paint36_linear)"/></g><path d="M109.707 91.2482C107.403 89.9186 106.253 88.1756 106.254 86.4329C106.256 84.6929 106.254 83.8874 106.254 82.3839L137.097 65.8133C141.7 63.156 149.162 63.156 153.765 65.8133L184.606 82.2656C184.606 83.7263 184.614 84.7071 184.606 86.4545C184.598 88.1898 183.448 89.9237 181.154 91.2477L153.764 107.06C149.161 109.717 141.699 109.717 137.096 107.06L109.707 91.2482Z" fill="url(#paint37_linear)"/><path d="M109.707 87.2752C105.104 84.618 105.104 80.3098 109.707 77.6525L137.096 61.8407C141.699 59.1835 149.162 59.1835 153.765 61.8407L181.154 77.6525C185.757 80.3098 185.757 84.618 181.154 87.2752L153.765 103.087C149.162 105.744 141.699 105.744 137.096 103.087L109.707 87.2752Z" fill="url(#paint38_radial)"/><path d="M136.425 79.9247C136.476 78.8358 137.248 77.7346 138.731 76.8785C140.704 75.7392 143.431 75.3249 145.848 75.657C146.322 75.0052 147.021 74.4003 147.953 73.8618C151.518 71.8042 157.065 71.6784 160.341 73.5698C163.617 75.4612 163.399 78.6635 159.835 80.7211C159.405 80.9697 158.93 81.193 158.447 81.3836C158.944 82.6097 158.309 84.0105 156.539 85.0324C155.797 85.4605 154.951 85.7727 154.045 85.9678C154.99 87.4523 154.31 89.2695 152.086 90.5538C149.765 91.8933 146.449 92.2571 143.828 91.614C143.558 91.8452 143.256 92.0574 142.897 92.2646C140.135 93.8595 135.846 93.9523 133.301 92.4833C131.598 91.4998 131.117 90.0624 131.815 88.7391C130.86 88.5466 129.982 88.2335 129.229 87.7985C126.279 86.1095 126.517 83.2362 129.722 81.3857C131.612 80.2948 134.105 79.801 136.425 79.9247" fill="#139CD8"/><path d="M136.146 89.1264C136.166 89.1655 136.212 89.151 136.223 89.1573C136.316 89.1417 136.396 89.133 136.489 89.1174C136.953 89.0262 137.273 88.8794 137.572 88.7068C138.182 88.3546 138.27 87.9634 137.789 87.686L137.778 87.6797C137.33 87.4213 136.747 87.5816 136.22 87.747L136.15 87.762C135.764 87.8842 135.424 87.9919 135.239 87.8847L135.228 87.8784C135.075 87.7902 135.11 87.6311 135.35 87.493C135.613 87.3411 136 87.2057 136.313 87.1513C136.313 87.1513 136.405 87.1357 136.375 87.0904C136.354 87.0646 136.21 86.8574 136.188 86.8448C136.168 86.819 136.122 86.8202 136.099 86.8208C135.741 86.8764 135.33 87.0123 134.995 87.2057L134.936 87.2402C134.373 87.5647 134.285 87.9691 134.732 88.2276L134.743 88.2339C135.213 88.505 135.796 88.3447 136.301 88.1667L136.383 88.1447C136.769 88.0226 137.086 87.9154 137.272 88.0226L137.283 88.0289C137.457 88.1297 137.421 88.3021 137.158 88.454C137.05 88.5161 136.727 88.7025 136.161 88.7899C136.091 88.8049 136.045 88.8061 136.011 88.8136C135.988 88.8142 135.929 88.8355 135.949 88.8745L136.146 89.1264Z" fill="white"/><path d="M145.128 83.9409C145.148 83.98 145.195 83.9655 145.206 83.9718C145.298 83.9562 145.379 83.9475 145.471 83.9319C145.935 83.8407 146.255 83.6939 146.554 83.5212C147.164 83.1691 147.252 82.7779 146.771 82.5005L146.76 82.4942C146.313 82.2357 145.729 82.3961 145.202 82.5615L145.144 82.5828C144.757 82.705 144.418 82.8127 144.232 82.7056L144.221 82.6992C144.068 82.611 144.104 82.4519 144.343 82.3138C144.606 82.1619 144.993 82.0265 145.306 81.9722C145.306 81.9722 145.398 81.9565 145.368 81.9112C145.347 81.8854 145.203 81.6782 145.181 81.6656C145.161 81.6398 145.115 81.641 145.092 81.6416C144.734 81.6972 144.323 81.8331 143.989 82.0265L143.929 82.061C143.367 82.3855 143.278 82.7899 143.725 83.0484L143.736 83.0547C144.206 83.3258 144.789 83.1655 145.294 82.9875L145.376 82.9655C145.762 82.8434 146.079 82.7362 146.265 82.8434L146.276 82.8497C146.45 82.9505 146.414 83.1229 146.151 83.2748C146.043 83.3369 145.72 83.5233 145.154 83.6107C145.084 83.6257 145.039 83.6269 145.004 83.6344C144.981 83.635 144.922 83.6563 144.942 83.6954L145.128 83.9409Z" fill="white"/><path fill-rule="evenodd" clip-rule="evenodd" d="M149.705 79.1677C149.91 79.1755 150.136 79.2092 150.336 79.2698C150.537 79.3304 150.725 79.4112 150.91 79.5184C151.085 79.6193 151.236 79.7339 151.341 79.8498C151.446 79.9657 151.516 80.0891 151.518 80.2143C151.53 80.3458 151.486 80.4722 151.396 80.5997C151.306 80.7273 151.148 80.8567 150.944 80.9741C150.741 81.0915 150.517 81.183 150.296 81.235C150.075 81.2869 149.845 81.3061 149.628 81.3052C149.423 81.2974 149.198 81.2638 148.997 81.2031C148.796 81.1425 148.597 81.0554 148.423 80.9545C148.248 80.8537 148.097 80.739 147.992 80.6231C147.887 80.5072 147.817 80.3838 147.815 80.2587C147.814 80.1335 147.847 80.0008 147.937 79.8732C148.027 79.7456 148.186 79.6162 148.389 79.4988C148.592 79.3815 148.816 79.2899 149.037 79.238C149.258 79.186 149.488 79.1668 149.705 79.1677ZM150.791 80.319C150.746 80.1686 150.598 80.0143 150.325 79.8567C150.052 79.699 149.774 79.6075 149.525 79.5877C149.275 79.5678 149.031 79.6204 148.804 79.7516C148.565 79.8897 148.475 80.0172 148.52 80.1676C148.565 80.3181 148.713 80.4724 148.986 80.63C149.259 80.7876 149.526 80.8729 149.787 80.899C150.036 80.9188 150.28 80.8663 150.507 80.7351C150.735 80.6039 150.837 80.4694 150.791 80.319Z" fill="white"/><path d="M155.823 77.5901C155.767 77.5718 155.731 77.6057 155.731 77.6057C155.681 77.6598 155.63 77.727 155.557 77.7817C155.484 77.8363 155.399 77.8978 155.304 77.9531C155.052 78.0981 154.796 78.1707 154.521 78.1779C154.246 78.1851 153.956 78.1005 153.661 77.9302C153.399 77.7789 153.274 77.624 153.241 77.4667C153.208 77.3094 153.323 77.1548 153.586 77.0029C153.801 76.8786 153.979 76.8015 154.19 76.73C154.19 76.73 154.236 76.7156 154.217 76.6766C154.155 76.5859 154.104 76.5148 154.032 76.4178C154.011 76.392 153.953 76.4001 153.941 76.407C153.848 76.4358 153.648 76.5003 153.518 76.5631C153.399 76.6189 153.257 76.6886 153.113 76.7714C152.898 76.8957 152.739 77.0251 152.637 77.1596C152.536 77.2941 152.491 77.4205 152.492 77.5589C152.493 77.6841 152.552 77.8143 152.645 77.9371C152.738 78.0599 152.889 78.1746 153.063 78.2755C153.457 78.5024 153.882 78.6099 154.327 78.618C154.783 78.6192 155.238 78.4953 155.693 78.2329C155.956 78.081 156.175 77.9038 156.302 77.7423C156.302 77.7423 156.316 77.709 156.271 77.697L155.823 77.5901Z" fill="white"/><path fill-rule="evenodd" clip-rule="evenodd" d="M156.468 75.2006C156.605 75.197 156.866 75.2231 157.066 75.2837C157.535 75.4164 157.792 75.6338 157.767 75.6608C157.811 75.686 157.763 75.7136 157.763 75.7136L156.029 76.7148C156.281 76.8466 156.505 76.9067 156.757 76.9001C156.997 76.8872 157.277 76.8139 157.54 76.662C157.934 76.4349 158.048 76.2908 158.124 76.196C158.128 76.1899 158.133 76.1841 158.138 76.1784C158.138 76.1784 158.164 76.1381 158.219 76.1565L158.634 76.2576C158.712 76.2753 158.711 76.2886 158.698 76.3087C158.645 76.4023 158.48 76.611 157.978 76.901C157.738 77.0523 157.502 77.1507 157.257 77.2165C157.024 77.2753 156.793 77.3077 156.564 77.3137C156.335 77.3198 156.11 77.2861 155.909 77.2255C155.696 77.1717 155.508 77.091 155.323 76.9838C155.148 76.8829 154.997 76.7682 154.892 76.6524C154.788 76.5233 154.729 76.4062 154.716 76.2747C154.703 76.1564 154.748 76.0168 154.838 75.8892C154.928 75.7616 155.099 75.6254 155.314 75.5011C155.505 75.3906 155.706 75.3128 155.904 75.2615C156.067 75.2177 156.251 75.1997 156.468 75.2006ZM155.445 76.1698C155.472 76.2679 155.544 76.3649 155.673 76.467L156.917 75.7489C156.763 75.6738 156.596 75.6189 156.426 75.6036C156.176 75.5838 155.933 75.6231 155.706 75.7543C155.479 75.8855 155.4 76.0194 155.445 76.1698Z" fill="white"/><path fill-rule="evenodd" clip-rule="evenodd" d="M142.582 83.2168C142.719 83.2132 142.98 83.2393 143.18 83.3C143.649 83.4327 143.906 83.65 143.881 83.677C143.925 83.7023 143.877 83.7299 143.877 83.7299L142.143 84.7311C142.395 84.8629 142.619 84.9229 142.871 84.9163C143.111 84.9034 143.391 84.8301 143.654 84.6782C144.048 84.4512 144.162 84.307 144.238 84.2123C144.242 84.2062 144.247 84.2003 144.252 84.1946C144.252 84.1946 144.278 84.1544 144.333 84.1727L144.748 84.2739C144.826 84.2916 144.825 84.3048 144.812 84.3249C144.759 84.4186 144.594 84.6272 144.092 84.9172C143.852 85.0685 143.616 85.167 143.371 85.2327C143.138 85.2916 142.907 85.324 142.678 85.33C142.449 85.336 142.224 85.3024 142.023 85.2417C141.81 85.188 141.622 85.1072 141.437 85C141.262 84.8992 141.111 84.7845 141.006 84.6686C140.902 84.5395 140.843 84.4224 140.83 84.2909C140.817 84.1727 140.862 84.0331 140.952 83.9055C141.042 83.7779 141.213 83.6416 141.428 83.5173C141.619 83.4068 141.82 83.3291 142.018 83.2777C142.181 83.2339 142.365 83.2159 142.582 83.2168ZM141.559 84.186C141.586 84.2842 141.658 84.3811 141.787 84.4832L143.031 83.7651C142.877 83.6901 142.71 83.6351 142.54 83.6198C142.29 83.6 142.047 83.6393 141.82 83.7705C141.593 83.9017 141.514 84.0356 141.559 84.186Z" fill="white"/><path fill-rule="evenodd" clip-rule="evenodd" d="M138.54 86.2636C138.58 86.2431 138.616 86.2249 138.647 86.2068C138.647 86.2068 138.802 86.1303 138.944 86.0606L138.879 86.0228C138.66 85.8967 138.514 85.8676 138.353 85.885C138.192 85.9024 138.016 85.9664 137.824 86.0768C137.824 86.0768 137.406 86.3185 137.235 86.6064C137.234 86.6196 137.222 86.6265 137.222 86.6265C137.222 86.6265 137.196 86.6667 137.14 86.6484L136.715 86.541C136.647 86.5295 136.661 86.4962 136.661 86.4962C136.707 86.3434 137.024 86.0846 137.024 86.0846C137.123 85.9898 137.316 85.8661 137.447 85.7901C137.794 85.5899 138.146 85.4752 138.467 85.4536C138.788 85.432 139.124 85.5155 139.441 85.6983L140.893 86.5368C140.893 86.5368 140.949 86.5551 140.912 86.589C140.912 86.589 140.874 86.6362 140.825 86.677C140.816 86.6847 140.803 86.6962 140.786 86.7106C140.713 86.7726 140.577 86.8879 140.459 86.9766C140.325 87.0922 140.156 87.2021 139.977 87.3056C139.809 87.4023 139.643 87.4857 139.479 87.5428C139.302 87.6067 139.139 87.6506 138.978 87.668C138.817 87.6854 138.645 87.6833 138.499 87.6542C138.341 87.6319 138.197 87.5764 138.055 87.4944C137.924 87.4188 137.84 87.3287 137.791 87.2311C137.741 87.1336 137.737 87.0348 137.78 86.9348C137.81 86.8418 137.887 86.7343 137.986 86.6394C138.096 86.5377 138.218 86.4422 138.361 86.3593C138.429 86.3204 138.488 86.2901 138.54 86.2636ZM138.912 87.2447C138.95 87.2488 138.976 87.2516 139.08 87.2435C139.08 87.2435 139.344 87.2168 139.669 87.0039C139.91 86.8526 140.081 86.7031 140.081 86.7031L139.36 86.287C139.36 86.287 139.112 86.3924 138.861 86.5374C138.491 86.7382 138.468 86.8904 138.468 86.8904C138.426 86.9904 138.476 87.0748 138.618 87.1567C138.717 87.2135 138.806 87.2375 138.886 87.242C138.896 87.2429 138.904 87.2438 138.912 87.2447Z" fill="white"/><path d="M151.822 77.6556C151.801 77.6297 151.755 77.6309 151.743 77.6378C151.709 77.6454 151.52 77.7162 151.413 77.7783C151.187 77.8963 151.1 77.9843 151.036 78.0716C150.972 78.159 150.929 78.2722 150.945 78.3508L150.749 78.2374C150.727 78.2247 150.681 78.2259 150.657 78.2398L150.191 78.509C150.167 78.5228 150.165 78.5493 150.187 78.5619L152.556 79.93C152.578 79.9426 152.624 79.9414 152.648 79.9276L153.102 79.6652C153.126 79.6514 153.128 79.625 153.107 79.6123L151.927 78.9315C151.763 78.8369 151.634 78.7348 151.572 78.6574C151.509 78.5799 151.481 78.5082 151.498 78.4352C151.503 78.3692 151.531 78.3025 151.593 78.2416C151.655 78.1806 151.728 78.126 151.788 78.0915C151.883 78.0362 152.001 77.9936 152.001 77.9936C152.037 77.9729 152.038 77.9597 152.017 77.9339C151.976 77.869 151.842 77.6946 151.822 77.6556" fill="white"/><path d="M146.448 79.497C146.377 79.5252 146.319 79.5465 146.248 79.5747C146.165 79.6099 146.083 79.645 145.987 79.7002C145.676 79.8797 145.501 80.0689 145.498 80.2601C145.494 80.4513 145.615 80.6591 145.872 80.8764L145.957 80.9533L145.562 81.1811C145.562 81.1811 145.514 81.2088 145.546 81.2409L145.814 81.4645C145.847 81.4835 145.88 81.4892 145.928 81.4615L146.311 81.2406L147.893 82.6096C148.021 82.7249 148.128 82.8143 148.178 82.8987C148.241 82.9761 148.281 83.041 148.288 83.1001C148.295 83.1593 148.292 83.1989 148.242 83.2529C148.204 83.3001 148.132 83.3415 148.06 83.3829C148.025 83.4036 147.954 83.4318 147.906 83.4595C147.859 83.4739 147.835 83.4877 147.777 83.4958C147.777 83.4958 147.719 83.5171 147.74 83.5429C147.76 83.5687 147.915 83.7822 147.925 83.8017C147.945 83.8275 147.979 83.8332 148.014 83.8257C148.084 83.8107 148.12 83.79 148.213 83.7612C148.331 83.7186 148.415 83.6702 148.486 83.6288C148.642 83.539 148.775 83.4367 148.851 83.3424C148.927 83.2481 148.969 83.1482 148.967 83.0362C148.964 82.9242 148.927 82.8197 148.845 82.7032C148.762 82.5868 148.625 82.452 148.465 82.3046L146.839 80.9104L147.413 80.5789C147.413 80.5789 147.461 80.5513 147.429 80.5192L147.162 80.2955C147.129 80.2766 147.095 80.2709 147.047 80.2985L146.497 80.6162C146.486 80.6099 146.335 80.4952 146.232 80.3529C146.18 80.2949 146.185 80.2289 146.188 80.1893C146.192 80.1364 146.218 80.0962 146.244 80.056C146.293 80.0151 146.342 79.9743 146.414 79.9329C146.462 79.9053 146.532 79.877 146.568 79.8563C146.627 79.835 146.651 79.8212 146.674 79.8206C146.745 79.7924 146.734 79.7861 146.724 79.7666L146.528 79.5015C146.518 79.482 146.471 79.4964 146.448 79.497" fill="white"/><path d="M142.336 85.8301C142.358 85.8427 142.347 85.874 142.315 85.8928L141.697 86.2493C141.665 86.2681 141.611 86.2742 141.589 86.2616L138.203 84.3072C138.182 84.2946 138.192 84.2632 138.225 84.2445L138.826 83.8973C138.858 83.8786 138.913 83.8724 138.935 83.885L142.32 85.8394L142.336 85.8301Z" fill="white"/></g><g opacity="0.5"><g filter="url(#filter12_d)"><path d="M315.183 93.1464C313.418 92.1275 312.537 90.7919 312.538 89.4564C312.539 88.1231 312.538 87.5058 312.538 86.3537L336.172 73.6557C339.699 71.6194 345.418 71.6194 348.945 73.6557L372.579 86.2631C372.579 87.3824 372.585 88.1339 372.579 89.473C372.573 90.8027 371.691 92.1314 369.933 93.146L348.944 105.263C345.417 107.299 339.699 107.299 336.172 105.263L315.183 93.1464Z" fill="url(#paint39_linear)"/></g><path d="M306.817 91.2482C304.514 89.9186 303.363 88.1756 303.365 86.4329C303.367 84.6929 303.365 83.8874 303.365 82.3839L334.207 65.8133C338.81 63.156 346.273 63.156 350.876 65.8133L381.717 82.2656C381.717 83.7263 381.725 84.7071 381.717 86.4545C381.709 88.1898 380.558 89.9237 378.265 91.2477L350.875 107.06C346.272 109.717 338.809 109.717 334.206 107.06L306.817 91.2482Z" fill="url(#paint40_linear)"/><path d="M306.818 87.2752C302.215 84.618 302.215 80.3098 306.818 77.6525L334.207 61.8407C338.81 59.1835 346.272 59.1835 350.875 61.8407L378.264 77.6525C382.867 80.3098 382.867 84.618 378.264 87.2752L350.875 103.087C346.272 105.744 338.81 105.744 334.207 103.087L306.818 87.2752Z" fill="url(#paint41_radial)"/><path d="M340.341 70.8106L320.105 82.4926C318.243 83.568 318.111 85.2354 319.812 86.2173L338.289 96.884C339.99 97.8659 342.878 97.7901 344.741 96.7147L364.977 85.0327C366.839 83.9573 366.971 82.2899 365.27 81.308L346.793 70.6413C345.093 69.66 342.204 69.7352 340.341 70.8106ZM338.337 77.1822C337.883 76.9202 337.92 76.4751 338.415 76.1889C338.912 75.902 339.682 75.8818 340.136 76.1438L351.107 82.4774C351.561 82.7393 351.525 83.1844 351.029 83.4706C350.532 83.7575 349.762 83.7777 349.308 83.5158L338.337 77.1822ZM333.426 79.5388C332.972 79.2768 333.008 78.8317 333.504 78.5455C334 78.2593 334.771 78.2384 335.224 78.5004L347.132 85.3744C347.585 85.6363 347.549 86.0815 347.053 86.3677C346.558 86.6539 345.787 86.6747 345.333 86.4128L333.426 79.5388ZM329.344 82.3742C328.89 82.1122 328.925 81.6678 329.422 81.3809C329.919 81.094 330.687 81.0745 331.141 81.3364L342.112 87.67C342.566 87.932 342.531 88.3764 342.035 88.6627C341.538 88.9495 340.768 88.9697 340.315 88.7078L329.344 82.3742ZM326.489 85.9183C326.035 85.6564 326.07 85.2119 326.566 84.9257C327.063 84.6388 327.833 84.6186 328.287 84.8806L335.672 89.1443C336.126 89.4062 336.09 89.8513 335.594 90.1375C335.097 90.4244 334.328 90.4439 333.875 90.182L326.489 85.9183ZM358.487 81.909C358.457 82.0516 357.678 85.4491 351.569 88.9757C345.46 92.5024 339.577 92.9522 339.328 92.9693C338.657 93.0166 338.093 92.7433 338.072 92.3573C338.051 91.9738 338.576 91.623 339.248 91.5744C339.341 91.567 344.543 91.1356 349.925 88.0282C355.376 84.8819 356.06 81.8958 356.068 81.8665C356.149 81.4784 356.758 81.1731 357.423 81.186C358.095 81.1963 358.57 81.5209 358.487 81.909ZM353.662 78.7602C354.115 79.0221 354.079 79.4672 353.584 79.7535C353.087 80.0403 352.318 80.0599 351.864 79.7979L344.477 75.5337C344.024 75.2717 344.059 74.8272 344.555 74.541C345.051 74.2542 345.821 74.234 346.275 74.4959L353.662 78.7602Z" fill="#286EFA"/></g><g opacity="0.25"><g filter="url(#filter13_d)"><path d="M216.628 36.1167C214.863 35.0978 213.981 33.7622 213.983 32.4268C213.984 31.0934 213.983 30.4761 213.983 29.324L237.617 16.626C241.144 14.5898 246.863 14.5898 250.39 16.626L274.023 29.2334C274.023 30.3527 274.03 31.1043 274.023 32.4433C274.017 33.7731 273.136 35.1018 271.378 36.1163L250.389 48.2332C246.862 50.2695 241.143 50.2695 237.616 48.2333L216.628 36.1167Z" fill="url(#paint42_linear)"/></g><path d="M208.262 34.2186C205.959 32.8889 204.808 31.1459 204.81 29.4032C204.811 27.6632 204.81 26.8577 204.81 25.3543L235.652 8.78359C240.255 6.12637 247.717 6.12637 252.32 8.78359L283.162 25.236C283.162 26.6966 283.17 27.6774 283.162 29.4248C283.154 31.1601 282.003 32.894 279.709 34.218L252.319 50.0303C247.717 52.6876 240.254 52.6876 235.651 50.0304L208.262 34.2186Z" fill="url(#paint43_linear)"/><path d="M208.262 30.2455C203.659 27.5883 203.659 23.2801 208.262 20.6229L235.652 4.81108C240.254 2.15386 247.717 2.15385 252.32 4.81108L279.709 20.6229C284.312 23.2801 284.312 27.5883 279.709 30.2455L252.32 46.0573C247.717 48.7146 240.254 48.7146 235.652 46.0573L208.262 30.2455Z" fill="url(#paint44_radial)"/><path fill-rule="evenodd" clip-rule="evenodd" d="M240.887 30.4477L239.391 32.4298L242.563 31.623L244.338 29.5742L240.887 30.4477ZM238.379 33.2989L242.657 35.8729L247.735 34.6295L243.202 32.0127L238.379 33.2989ZM243.667 31.5544L245.807 29.0102L249.995 31.428L247.937 34.0195L243.667 31.5544Z" fill="#F7A80D"/><path fill-rule="evenodd" clip-rule="evenodd" d="M236.128 18.9158L234.615 20.9082L237.804 20.091L239.579 18.0422L236.128 18.9158ZM233.972 21.6586L238.341 24.1807L242.256 22.8687L238.389 20.5119L233.972 21.6586ZM239.345 20.1497L241.125 17.8133L245.33 20.2406L243.631 22.6244L239.345 20.1497Z" fill="#F7A80D"/><path fill-rule="evenodd" clip-rule="evenodd" d="M230.579 29.2114L229.084 31.1934L232.271 30.3961L234.046 28.3473L230.579 29.2114ZM228.089 32.0522L232.368 34.6262L237.428 33.3734L232.895 30.7565L228.089 32.0522ZM233.377 30.3076L235.518 27.7635L239.706 30.1813L237.647 32.7728L233.377 30.3076Z" fill="#F7A80D"/><path fill-rule="evenodd" clip-rule="evenodd" d="M238.383 24.5165L236.888 26.4985L240.059 25.6917L241.834 23.6429L238.383 24.5165ZM235.893 27.3572L240.172 29.9312L245.249 28.6879L240.716 26.071L235.893 27.3572ZM241.181 25.6127L243.322 23.0686L247.51 25.4864L245.451 28.0779L241.181 25.6127Z" fill="#F7A80D"/><path fill-rule="evenodd" clip-rule="evenodd" d="M243.916 14.4195L242.403 16.4119L245.575 15.6052L247.35 13.5563L243.916 14.4195ZM241.408 17.2707L245.687 19.8447L250.764 18.6013L246.231 15.9845L241.408 17.2707ZM246.697 15.5262L248.837 12.982L253.025 15.3998L250.967 17.9913L246.697 15.5262Z" fill="#F7A80D"/><path d="M252.636 29.0691L251.109 28.1874C251.645 28.1436 252.149 28.061 252.624 27.9196C253.098 27.7783 253.524 27.6086 253.884 27.4009C254.099 27.2763 254.263 27.163 254.392 27.0505C254.521 26.9381 254.598 26.837 254.64 26.7368C254.682 26.6365 254.688 26.5571 254.66 26.4785C254.632 26.4 254.551 26.3327 254.453 26.2758C254.322 26.1999 254.171 26.1543 253.966 26.1399C253.777 26.1349 253.571 26.1403 253.328 26.1665C253.102 26.2022 252.824 26.2491 252.544 26.316C252.264 26.3828 251.966 26.46 251.65 26.5476C250.826 26.7575 250.132 26.855 249.516 26.8315C248.899 26.808 248.378 26.673 247.918 26.4076C247.557 26.199 247.333 25.9868 247.232 25.7416C247.131 25.4964 247.15 25.2581 247.255 25.0075C247.361 24.7569 247.552 24.514 247.83 24.2589C248.107 24.0038 248.452 23.7668 248.848 23.5384C249.243 23.3099 249.602 23.1221 249.957 22.974C250.312 22.8259 250.647 22.7081 250.981 22.6101L252.41 23.435C252.202 23.4603 251.992 23.5054 251.783 23.5506C251.573 23.5957 251.362 23.6607 251.185 23.7248C250.991 23.7993 250.814 23.8634 250.636 23.9474C250.457 24.0314 250.297 24.105 250.153 24.1881C249.955 24.3023 249.81 24.4052 249.681 24.5176C249.552 24.6301 249.475 24.7312 249.433 24.8314C249.391 24.9317 249.366 25.0215 249.394 25.1001C249.423 25.1786 249.485 25.2563 249.584 25.3132C249.699 25.3795 249.833 25.4157 250.004 25.431C250.174 25.4464 250.346 25.4418 250.554 25.4166C250.762 25.3913 250.988 25.3556 251.25 25.2992C251.512 25.2428 251.792 25.1759 252.09 25.0987C252.511 24.9886 252.896 24.8992 253.261 24.84C253.626 24.7809 253.99 24.7416 254.316 24.743C254.642 24.7443 254.967 24.7656 255.27 24.8369C255.574 24.9083 255.857 25.0098 256.137 25.171C256.514 25.3891 256.771 25.6203 256.872 25.8654C256.973 26.1106 256.97 26.3584 256.848 26.5995C256.743 26.8501 256.534 27.1034 256.24 27.349C255.946 27.5946 255.601 27.8316 255.205 28.0601C254.792 28.2989 254.363 28.5084 253.938 28.6782C253.46 28.8592 253.037 28.9892 252.636 29.0691Z" fill="#201C1D"/><path d="M258.945 25.484L257.631 24.7254C258.463 24.6243 259.203 24.3868 259.887 23.9922C260.3 23.7534 260.56 23.5087 260.63 23.2789C260.699 23.0491 260.595 22.8437 260.299 22.673C259.987 22.4929 259.614 22.4432 259.162 22.5145C258.71 22.5858 258.232 22.7669 257.71 23.068L257.045 23.4522L255.895 22.7885L256.524 22.4251C257.496 21.8644 257.686 21.4133 257.095 21.072C256.536 20.7496 255.879 20.8065 255.142 21.2322C254.638 21.523 254.3 21.8887 254.128 22.3293L252.896 21.6182C253.172 21.1749 253.668 20.7555 254.37 20.3505C255.143 19.904 255.901 19.6561 256.627 19.5974C257.371 19.5284 257.997 19.6408 258.506 19.9347C259.393 20.4467 259.448 21.0598 258.688 21.7637L258.705 21.7732C259.292 21.51 259.888 21.3556 260.489 21.3497C261.091 21.3438 261.598 21.4495 262.025 21.696C262.665 22.0658 262.923 22.5051 262.762 23.0148C262.636 23.5236 262.098 24.0433 261.198 24.5625C260.405 25.0393 259.661 25.3363 258.945 25.484Z" fill="#201C1D"/></g><g opacity="0.25"><g filter="url(#filter14_d)"><path d="M19.5176 36.1167C17.7527 35.0978 16.8709 33.7622 16.8723 32.4268C16.8736 31.0934 16.8722 30.4761 16.8722 29.324L40.5066 16.626C44.0337 14.5898 49.7524 14.5898 53.2795 16.626L76.9131 29.2334C76.9131 30.3527 76.9192 31.1043 76.9131 32.4433C76.907 33.7731 76.0252 35.1018 74.2678 36.1163L53.2788 48.2332C49.7517 50.2695 44.0331 50.2695 40.5059 48.2333L19.5176 36.1167Z" fill="url(#paint45_linear)"/></g><path d="M11.1514 34.2186C8.84824 32.8889 7.69753 31.1459 7.69929 29.4032C7.70104 27.6632 7.69919 26.8577 7.69919 25.3543L38.5415 8.78359C43.1443 6.12637 50.6071 6.12637 55.2099 8.78359L86.0512 25.236C86.0512 26.6966 86.0592 27.6774 86.0512 29.4248C86.0433 31.1601 84.8926 32.894 82.5991 34.218L55.209 50.0303C50.6062 52.6876 43.1435 52.6876 38.5406 50.0304L11.1514 34.2186Z" fill="url(#paint46_linear)"/><path d="M11.152 30.2455C6.5491 27.5883 6.5491 23.2801 11.1519 20.6229L38.5411 4.81108C43.144 2.15386 50.6067 2.15385 55.2096 4.81108L82.5988 20.6229C87.2016 23.2801 87.2016 27.5883 82.5988 30.2455L55.2096 46.0573C50.6067 48.7146 43.144 48.7146 38.5412 46.0573L11.152 30.2455Z" fill="url(#paint47_radial)"/><path d="M38.504 21.7709C38.3391 21.7633 38.203 21.7848 38.1108 21.838C38.0454 21.8815 38.0001 21.9304 37.9752 21.9848C37.7691 22.6978 38.97 24.5234 41.0419 26.6515L41.762 26.2415C43.1855 25.4369 44.6523 24.6072 46.1132 23.7867C44.4181 23.2459 42.9326 22.8012 41.687 22.4637C39.874 21.9738 38.9608 21.8157 38.504 21.7709Z" fill="#00A7CF"/><path fill-rule="evenodd" clip-rule="evenodd" d="M33.3842 32.5459C26.5822 28.6191 27.1073 21.9474 34.5568 17.6468C42.0063 13.3462 53.563 13.0431 60.3651 16.9699C67.1671 20.8967 66.642 27.5684 59.1925 31.869C51.743 36.1696 40.1863 36.4727 33.3842 32.5459ZM56.7761 19.3331L56.7951 19.2878C56.8312 19.1585 56.7897 19.0282 56.6792 18.9206C56.4093 18.6709 55.8083 18.618 55.3544 18.8001L55.349 18.8032L55.3382 18.8095L55.3273 18.8158C55.3225 18.8179 55.3177 18.82 55.313 18.8221C55.276 18.8385 55.2427 18.8532 55.2091 18.8726L55.1017 18.9232C52.6886 20.1449 50.3104 21.4493 48.0874 22.6869L48.0672 22.6815C43.3693 21.1954 38.3268 19.817 36.5389 20.8491C34.8752 21.8153 35.8182 24.0925 39.3317 27.6159C38.4062 28.1388 37.5566 28.6179 36.7562 29.0628L36.637 29.1316C36.5345 29.1851 36.4419 29.2442 36.3543 29.3062C35.9842 29.6056 36.0153 29.9988 36.4314 30.2327C36.8518 30.4755 37.5543 30.4869 38.0737 30.2613L38.0944 30.2608L40.5866 28.822C41.3134 29.5106 42.0677 30.1775 42.8149 30.8028L43.1447 31.0807L43.1645 31.0921C43.3574 31.2035 43.6439 31.2438 43.9265 31.2005C44.3819 31.1319 44.6874 30.8641 44.6094 30.6064L44.6405 30.6056L42.2928 27.8428L48.1765 24.4461C50.1796 25.0832 52.2434 25.7367 54.3649 26.2483L54.3678 26.249C55.5063 26.5241 58.152 27.1635 59.4502 26.4254L59.4664 26.416C61.4602 25.265 59.297 23.1154 57.8626 21.6931C57.8055 21.6357 57.7497 21.5799 57.6956 21.5258C57.459 21.2891 57.2543 21.0844 57.1118 20.9156L57.0409 20.8309C56.9467 20.7139 56.7017 20.6726 56.4897 20.7379C56.2777 20.8031 56.1834 20.9489 56.2777 21.0659L56.3432 21.1537C56.4744 21.3264 56.6009 21.4933 56.7222 21.6533C56.8434 21.8131 56.9593 21.9661 57.0694 22.111L57.0833 22.1315L57.1138 22.1715C58.4569 23.9321 59.0707 24.7368 58.3018 25.1807L58.2801 25.1932L58.2693 25.1995L58.2476 25.212C57.2627 25.7805 52.7202 24.2212 50.9569 23.6159L50.9218 23.6038C50.7575 23.547 50.5978 23.4929 50.4469 23.4417C50.325 23.4004 50.2089 23.361 50.1008 23.3238L56.4884 19.6362C56.6022 19.5705 56.6913 19.4906 56.7447 19.4026L56.757 19.3784L56.7697 19.3482L56.7761 19.3331Z" fill="#00A7CF"/></g></g><defs><filter id="filter0_d" x="292.538" y="414.307" width="100.044" height="121.662" filterUnits="userSpaceOnUse" color-interpolation-filters="sRGB"><feFlood flood-opacity="0" result="BackgroundImageFix"/><feColorMatrix in="SourceAlpha" type="matrix" values="0 0 0 0 0 0 0 0 0 0 0 0 0 0 0 0 0 0 127 0"/><feOffset dy="67"/><feGaussianBlur stdDeviation="10"/><feColorMatrix type="matrix" values="0 0 0 0 0.14902 0 0 0 0 0.180392 0 0 0 0 0.309804 0 0 0 0.04 0"/><feBlend mode="normal" in2="BackgroundImageFix" result="effect1_dropShadow"/><feBlend mode="normal" in="SourceGraphic" in2="effect1_dropShadow" result="shape"/></filter><filter id="filter1_d" x="193.983" y="357.277" width="100.044" height="121.662" filterUnits="userSpaceOnUse" color-interpolation-filters="sRGB"><feFlood flood-opacity="0" result="BackgroundImageFix"/><feColorMatrix in="SourceAlpha" type="matrix" values="0 0 0 0 0 0 0 0 0 0 0 0 0 0 0 0 0 0 127 0"/><feOffset dy="67"/><feGaussianBlur stdDeviation="10"/><feColorMatrix type="matrix" values="0 0 0 0 0.14902 0 0 0 0 0.180392 0 0 0 0 0.309804 0 0 0 0.04 0"/><feBlend mode="normal" in2="BackgroundImageFix" result="effect1_dropShadow"/><feBlend mode="normal" in="SourceGraphic" in2="effect1_dropShadow" result="shape"/></filter><filter id="filter2_d" x="391.093" y="357.277" width="100.044" height="121.662" filterUnits="userSpaceOnUse" color-interpolation-filters="sRGB"><feFlood flood-opacity="0" result="BackgroundImageFix"/><feColorMatrix in="SourceAlpha" type="matrix" values="0 0 0 0 0 0 0 0 0 0 0 0 0 0 0 0 0 0 127 0"/><feOffset dy="67"/><feGaussianBlur stdDeviation="10"/><feColorMatrix type="matrix" values="0 0 0 0 0.14902 0 0 0 0 0.180392 0 0 0 0 0.309804 0 0 0 0.04 0"/><feBlend mode="normal" in2="BackgroundImageFix" result="effect1_dropShadow"/><feBlend mode="normal" in="SourceGraphic" in2="effect1_dropShadow" result="shape"/></filter><filter id="filter3_d" x="292.538" y="300.248" width="100.044" height="121.662" filterUnits="userSpaceOnUse" color-interpolation-filters="sRGB"><feFlood flood-opacity="0" result="BackgroundImageFix"/><feColorMatrix in="SourceAlpha" type="matrix" values="0 0 0 0 0 0 0 0 0 0 0 0 0 0 0 0 0 0 127 0"/><feOffset dy="67"/><feGaussianBlur stdDeviation="10"/><feColorMatrix type="matrix" values="0 0 0 0 0.14902 0 0 0 0 0.180392 0 0 0 0 0.309804 0 0 0 0.04 0"/><feBlend mode="normal" in2="BackgroundImageFix" result="effect1_dropShadow"/><feBlend mode="normal" in="SourceGraphic" in2="effect1_dropShadow" result="shape"/></filter><filter id="filter4_d" x="489.648" y="300.248" width="100.044" height="121.662" filterUnits="userSpaceOnUse" color-interpolation-filters="sRGB"><feFlood flood-opacity="0" result="BackgroundImageFix"/><feColorMatrix in="SourceAlpha" type="matrix" values="0 0 0 0 0 0 0 0 0 0 0 0 0 0 0 0 0 0 127 0"/><feOffset dy="67"/><feGaussianBlur stdDeviation="10"/><feColorMatrix type="matrix" values="0 0 0 0 0.14902 0 0 0 0 0.180392 0 0 0 0 0.309804 0 0 0 0.04 0"/><feBlend mode="normal" in2="BackgroundImageFix" result="effect1_dropShadow"/><feBlend mode="normal" in="SourceGraphic" in2="effect1_dropShadow" result="shape"/></filter><filter id="filter5_d" x="202.734" y="475.72" width="100.044" height="121.662" filterUnits="userSpaceOnUse" color-interpolation-filters="sRGB"><feFlood flood-opacity="0" result="BackgroundImageFix"/><feColorMatrix in="SourceAlpha" type="matrix" values="0 0 0 0 0 0 0 0 0 0 0 0 0 0 0 0 0 0 127 0"/><feOffset dy="67"/><feGaussianBlur stdDeviation="10"/><feColorMatrix type="matrix" values="0 0 0 0 0.14902 0 0 0 0 0.180392 0 0 0 0 0.309804 0 0 0 0.04 0"/><feBlend mode="normal" in2="BackgroundImageFix" result="effect1_dropShadow"/><feBlend mode="normal" in="SourceGraphic" in2="effect1_dropShadow" result="shape"/></filter><filter id="filter6_d" x="391.093" y="243.218" width="100.044" height="121.662" filterUnits="userSpaceOnUse" color-interpolation-filters="sRGB"><feFlood flood-opacity="0" result="BackgroundImageFix"/><feColorMatrix in="SourceAlpha" type="matrix" values="0 0 0 0 0 0 0 0 0 0 0 0 0 0 0 0 0 0 127 0"/><feOffset dy="67"/><feGaussianBlur stdDeviation="10"/><feColorMatrix type="matrix" values="0 0 0 0 0.14902 0 0 0 0 0.180392 0 0 0 0 0.309804 0 0 0 0.04 0"/><feBlend mode="normal" in2="BackgroundImageFix" result="effect1_dropShadow"/><feBlend mode="normal" in="SourceGraphic" in2="effect1_dropShadow" result="shape"/></filter><filter id="filter7_d" x="292.538" y="186.188" width="100.044" height="121.662" filterUnits="userSpaceOnUse" color-interpolation-filters="sRGB"><feFlood flood-opacity="0" result="BackgroundImageFix"/><feColorMatrix in="SourceAlpha" type="matrix" values="0 0 0 0 0 0 0 0 0 0 0 0 0 0 0 0 0 0 127 0"/><feOffset dy="67"/><feGaussianBlur stdDeviation="10"/><feColorMatrix type="matrix" values="0 0 0 0 0.14902 0 0 0 0 0.180392 0 0 0 0 0.309804 0 0 0 0.04 0"/><feBlend mode="normal" in2="BackgroundImageFix" result="effect1_dropShadow"/><feBlend mode="normal" in="SourceGraphic" in2="effect1_dropShadow" result="shape"/></filter><filter id="filter8_d" x="489.648" y="186.188" width="100.044" height="121.662" filterUnits="userSpaceOnUse" color-interpolation-filters="sRGB"><feFlood flood-opacity="0" result="BackgroundImageFix"/><feColorMatrix in="SourceAlpha" type="matrix" values="0 0 0 0 0 0 0 0 0 0 0 0 0 0 0 0 0 0 127 0"/><feOffset dy="67"/><feGaussianBlur stdDeviation="10"/><feColorMatrix type="matrix" values="0 0 0 0 0.14902 0 0 0 0 0.180392 0 0 0 0 0.309804 0 0 0 0.04 0"/><feBlend mode="normal" in2="BackgroundImageFix" result="effect1_dropShadow"/><feBlend mode="normal" in="SourceGraphic" in2="effect1_dropShadow" result="shape"/></filter><filter id="filter9_d" x="193.983" y="129.158" width="100.044" height="121.662" filterUnits="userSpaceOnUse" color-interpolation-filters="sRGB"><feFlood flood-opacity="0" result="BackgroundImageFix"/><feColorMatrix in="SourceAlpha" type="matrix" values="0 0 0 0 0 0 0 0 0 0 0 0 0 0 0 0 0 0 127 0"/><feOffset dy="67"/><feGaussianBlur stdDeviation="10"/><feColorMatrix type="matrix" values="0 0 0 0 0.14902 0 0 0 0 0.180392 0 0 0 0 0.309804 0 0 0 0.04 0"/><feBlend mode="normal" in2="BackgroundImageFix" result="effect1_dropShadow"/><feBlend mode="normal" in="SourceGraphic" in2="effect1_dropShadow" result="shape"/></filter><filter id="filter10_d" x="391.093" y="129.158" width="100.044" height="121.662" filterUnits="userSpaceOnUse" color-interpolation-filters="sRGB"><feFlood flood-opacity="0" result="BackgroundImageFix"/><feColorMatrix in="SourceAlpha" type="matrix" values="0 0 0 0 0 0 0 0 0 0 0 0 0 0 0 0 0 0 127 0"/><feOffset dy="67"/><feGaussianBlur stdDeviation="10"/><feColorMatrix type="matrix" values="0 0 0 0 0.14902 0 0 0 0 0.180392 0 0 0 0 0.309804 0 0 0 0.04 0"/><feBlend mode="normal" in2="BackgroundImageFix" result="effect1_dropShadow"/><feBlend mode="normal" in="SourceGraphic" in2="effect1_dropShadow" result="shape"/></filter><filter id="filter11_d" x="95.4274" y="72.1285" width="100.044" height="121.662" filterUnits="userSpaceOnUse" color-interpolation-filters="sRGB"><feFlood flood-opacity="0" result="BackgroundImageFix"/><feColorMatrix in="SourceAlpha" type="matrix" values="0 0 0 0 0 0 0 0 0 0 0 0 0 0 0 0 0 0 127 0"/><feOffset dy="67"/><feGaussianBlur stdDeviation="10"/><feColorMatrix type="matrix" values="0 0 0 0 0.14902 0 0 0 0 0.180392 0 0 0 0 0.309804 0 0 0 0.04 0"/><feBlend mode="normal" in2="BackgroundImageFix" result="effect1_dropShadow"/><feBlend mode="normal" in="SourceGraphic" in2="effect1_dropShadow" result="shape"/></filter><filter id="filter12_d" x="292.538" y="72.1285" width="100.044" height="121.662" filterUnits="userSpaceOnUse" color-interpolation-filters="sRGB"><feFlood flood-opacity="0" result="BackgroundImageFix"/><feColorMatrix in="SourceAlpha" type="matrix" values="0 0 0 0 0 0 0 0 0 0 0 0 0 0 0 0 0 0 127 0"/><feOffset dy="67"/><feGaussianBlur stdDeviation="10"/><feColorMatrix type="matrix" values="0 0 0 0 0.14902 0 0 0 0 0.180392 0 0 0 0 0.309804 0 0 0 0.04 0"/><feBlend mode="normal" in2="BackgroundImageFix" result="effect1_dropShadow"/><feBlend mode="normal" in="SourceGraphic" in2="effect1_dropShadow" result="shape"/></filter><filter id="filter13_d" x="193.983" y="15.0989" width="100.044" height="121.662" filterUnits="userSpaceOnUse" color-interpolation-filters="sRGB"><feFlood flood-opacity="0" result="BackgroundImageFix"/><feColorMatrix in="SourceAlpha" type="matrix" values="0 0 0 0 0 0 0 0 0 0 0 0 0 0 0 0 0 0 127 0"/><feOffset dy="67"/><feGaussianBlur stdDeviation="10"/><feColorMatrix type="matrix" values="0 0 0 0 0.14902 0 0 0 0 0.180392 0 0 0 0 0.309804 0 0 0 0.04 0"/><feBlend mode="normal" in2="BackgroundImageFix" result="effect1_dropShadow"/><feBlend mode="normal" in="SourceGraphic" in2="effect1_dropShadow" result="shape"/></filter><filter id="filter14_d" x="-3.12781" y="15.0989" width="100.044" height="121.662" filterUnits="userSpaceOnUse" color-interpolation-filters="sRGB"><feFlood flood-opacity="0" result="BackgroundImageFix"/><feColorMatrix in="SourceAlpha" type="matrix" values="0 0 0 0 0 0 0 0 0 0 0 0 0 0 0 0 0 0 127 0"/><feOffset dy="67"/><feGaussianBlur stdDeviation="10"/><feColorMatrix type="matrix" values="0 0 0 0 0.14902 0 0 0 0 0.180392 0 0 0 0 0.309804 0 0 0 0.04 0"/><feBlend mode="normal" in2="BackgroundImageFix" result="effect1_dropShadow"/><feBlend mode="normal" in="SourceGraphic" in2="effect1_dropShadow" result="shape"/></filter><linearGradient id="paint0_linear" x1="388.323" y1="266.19" x2="569.793" y2="266.19" gradientUnits="userSpaceOnUse"><stop stop-color="#C4C4C4"/><stop offset="1" stop-color="#C4C4C4" stop-opacity="0"/></linearGradient><linearGradient id="paint1_linear" x1="373.415" y1="431.638" x2="315.873" y2="411.459" gradientUnits="userSpaceOnUse"><stop stop-color="#FCFDFF"/><stop offset="0.354167" stop-color="#E6EAF2"/><stop offset="1" stop-color="white"/></linearGradient><linearGradient id="paint2_linear" x1="382.808" y1="428.616" x2="307.717" y2="402.283" gradientUnits="userSpaceOnUse"><stop stop-color="#FCFDFF"/><stop offset="0.354167" stop-color="#E6EAF2"/><stop offset="1" stop-color="white"/></linearGradient><radialGradient id="paint3_radial" cx="0" cy="0" r="1" gradientUnits="userSpaceOnUse" gradientTransform="translate(362.789 428.387) rotate(179.096) scale(235.557 52.0995)"><stop stop-color="#FCFDFF"/><stop offset="1" stop-color="white"/></radialGradient><linearGradient id="paint4_linear" x1="274.86" y1="374.609" x2="217.318" y2="354.43" gradientUnits="userSpaceOnUse"><stop stop-color="#FCFDFF"/><stop offset="0.354167" stop-color="#E6EAF2"/><stop offset="1" stop-color="white"/></linearGradient><linearGradient id="paint5_linear" x1="284.253" y1="371.586" x2="209.162" y2="345.253" gradientUnits="userSpaceOnUse"><stop stop-color="#FCFDFF"/><stop offset="0.354167" stop-color="#E6EAF2"/><stop offset="1" stop-color="white"/></linearGradient><radialGradient id="paint6_radial" cx="0" cy="0" r="1" gradientUnits="userSpaceOnUse" gradientTransform="translate(264.233 371.357) rotate(179.096) scale(235.557 52.0995)"><stop stop-color="#FCFDFF"/><stop offset="1" stop-color="white"/></radialGradient><linearGradient id="paint7_linear" x1="471.97" y1="374.609" x2="414.428" y2="354.43" gradientUnits="userSpaceOnUse"><stop stop-color="#FCFDFF"/><stop offset="0.354167" stop-color="#E6EAF2"/><stop offset="1" stop-color="white"/></linearGradient><linearGradient id="paint8_linear" x1="481.363" y1="371.586" x2="406.272" y2="345.253" gradientUnits="userSpaceOnUse"><stop stop-color="#FCFDFF"/><stop offset="0.354167" stop-color="#E6EAF2"/><stop offset="1" stop-color="white"/></linearGradient><radialGradient id="paint9_radial" cx="0" cy="0" r="1" gradientUnits="userSpaceOnUse" gradientTransform="translate(461.344 371.357) rotate(179.096) scale(235.557 52.0995)"><stop stop-color="#FCFDFF"/><stop offset="1" stop-color="white"/></radialGradient><linearGradient id="paint10_linear" x1="373.415" y1="317.579" x2="315.873" y2="297.4" gradientUnits="userSpaceOnUse"><stop stop-color="#FCFDFF"/><stop offset="0.354167" stop-color="#E6EAF2"/><stop offset="1" stop-color="white"/></linearGradient><linearGradient id="paint11_linear" x1="382.808" y1="314.557" x2="307.717" y2="288.223" gradientUnits="userSpaceOnUse"><stop stop-color="#FCFDFF"/><stop offset="0.354167" stop-color="#E6EAF2"/><stop offset="1" stop-color="white"/></linearGradient><radialGradient id="paint12_radial" cx="0" cy="0" r="1" gradientUnits="userSpaceOnUse" gradientTransform="translate(362.789 314.327) rotate(179.096) scale(235.557 52.0995)"><stop stop-color="#FCFDFF"/><stop offset="1" stop-color="white"/></radialGradient><radialGradient id="paint13_radial" cx="0" cy="0" r="1" gradientUnits="userSpaceOnUse" gradientTransform="translate(328.937 301.679) rotate(-29.9978) scale(47.5861 41.0948)"><stop stop-color="white"/><stop offset="0.22" stop-color="white"/><stop offset="1" stop-color="#D9D9D8"/></radialGradient><linearGradient id="paint14_linear" x1="570.525" y1="317.579" x2="512.983" y2="297.4" gradientUnits="userSpaceOnUse"><stop stop-color="#FCFDFF"/><stop offset="0.354167" stop-color="#E6EAF2"/><stop offset="1" stop-color="white"/></linearGradient><linearGradient id="paint15_linear" x1="579.919" y1="314.557" x2="504.827" y2="288.223" gradientUnits="userSpaceOnUse"><stop stop-color="#FCFDFF"/><stop offset="0.354167" stop-color="#E6EAF2"/><stop offset="1" stop-color="white"/></linearGradient><radialGradient id="paint16_radial" cx="0" cy="0" r="1" gradientUnits="userSpaceOnUse" gradientTransform="translate(559.899 314.327) rotate(179.096) scale(235.557 52.0995)"><stop stop-color="#FCFDFF"/><stop offset="1" stop-color="white"/></radialGradient><linearGradient id="paint17_linear" x1="283.612" y1="493.052" x2="226.069" y2="472.873" gradientUnits="userSpaceOnUse"><stop stop-color="#FCFDFF"/><stop offset="0.354167" stop-color="#E6EAF2"/><stop offset="1" stop-color="white"/></linearGradient><linearGradient id="paint18_linear" x1="293.005" y1="490.029" x2="217.913" y2="463.696" gradientUnits="userSpaceOnUse"><stop stop-color="#FCFDFF"/><stop offset="0.354167" stop-color="#E6EAF2"/><stop offset="1" stop-color="white"/></linearGradient><radialGradient id="paint19_radial" cx="0" cy="0" r="1" gradientUnits="userSpaceOnUse" gradientTransform="translate(272.985 489.8) rotate(179.096) scale(235.557 52.0995)"><stop stop-color="#FCFDFF"/><stop offset="1" stop-color="white"/></radialGradient><linearGradient id="paint20_linear" x1="471.97" y1="260.549" x2="414.428" y2="240.37" gradientUnits="userSpaceOnUse"><stop stop-color="#FCFDFF"/><stop offset="0.354167" stop-color="#E6EAF2"/><stop offset="1" stop-color="white"/></linearGradient><linearGradient id="paint21_linear" x1="481.363" y1="257.527" x2="406.272" y2="231.194" gradientUnits="userSpaceOnUse"><stop stop-color="#FCFDFF"/><stop offset="0.354167" stop-color="#E6EAF2"/><stop offset="1" stop-color="white"/></linearGradient><radialGradient id="paint22_radial" cx="0" cy="0" r="1" gradientUnits="userSpaceOnUse" gradientTransform="translate(461.344 257.297) rotate(179.096) scale(235.557 52.0995)"><stop stop-color="#FCFDFF"/><stop offset="1" stop-color="white"/></radialGradient><linearGradient id="paint23_linear" x1="373.415" y1="203.519" x2="315.873" y2="183.34" gradientUnits="userSpaceOnUse"><stop stop-color="#FCFDFF"/><stop offset="0.354167" stop-color="#E6EAF2"/><stop offset="1" stop-color="white"/></linearGradient><linearGradient id="paint24_linear" x1="382.808" y1="200.497" x2="307.717" y2="174.164" gradientUnits="userSpaceOnUse"><stop stop-color="#FCFDFF"/><stop offset="0.354167" stop-color="#E6EAF2"/><stop offset="1" stop-color="white"/></linearGradient><radialGradient id="paint25_radial" cx="0" cy="0" r="1" gradientUnits="userSpaceOnUse" gradientTransform="translate(362.789 200.268) rotate(179.096) scale(235.557 52.0995)"><stop stop-color="#FCFDFF"/><stop offset="1" stop-color="white"/></radialGradient><linearGradient id="paint26_linear" x1="570.525" y1="203.519" x2="512.983" y2="183.34" gradientUnits="userSpaceOnUse"><stop stop-color="#FCFDFF"/><stop offset="0.354167" stop-color="#E6EAF2"/><stop offset="1" stop-color="white"/></linearGradient><linearGradient id="paint27_linear" x1="579.919" y1="200.497" x2="504.827" y2="174.164" gradientUnits="userSpaceOnUse"><stop stop-color="#FCFDFF"/><stop offset="0.354167" stop-color="#E6EAF2"/><stop offset="1" stop-color="white"/></linearGradient><radialGradient id="paint28_radial" cx="0" cy="0" r="1" gradientUnits="userSpaceOnUse" gradientTransform="translate(559.899 200.268) rotate(179.096) scale(235.557 52.0995)"><stop stop-color="#FCFDFF"/><stop offset="1" stop-color="white"/></radialGradient><linearGradient id="paint29_linear" x1="274.86" y1="146.49" x2="217.318" y2="126.311" gradientUnits="userSpaceOnUse"><stop stop-color="#FCFDFF"/><stop offset="0.354167" stop-color="#E6EAF2"/><stop offset="1" stop-color="white"/></linearGradient><linearGradient id="paint30_linear" x1="284.253" y1="143.467" x2="209.162" y2="117.134" gradientUnits="userSpaceOnUse"><stop stop-color="#FCFDFF"/><stop offset="0.354167" stop-color="#E6EAF2"/><stop offset="1" stop-color="white"/></linearGradient><radialGradient id="paint31_radial" cx="0" cy="0" r="1" gradientUnits="userSpaceOnUse" gradientTransform="translate(264.233 143.238) rotate(179.096) scale(235.557 52.0995)"><stop stop-color="#FCFDFF"/><stop offset="1" stop-color="white"/></radialGradient><linearGradient id="paint32_linear" x1="471.97" y1="146.49" x2="414.428" y2="126.311" gradientUnits="userSpaceOnUse"><stop stop-color="#FCFDFF"/><stop offset="0.354167" stop-color="#E6EAF2"/><stop offset="1" stop-color="white"/></linearGradient><linearGradient id="paint33_linear" x1="481.363" y1="143.467" x2="406.272" y2="117.134" gradientUnits="userSpaceOnUse"><stop stop-color="#FCFDFF"/><stop offset="0.354167" stop-color="#E6EAF2"/><stop offset="1" stop-color="white"/></linearGradient><radialGradient id="paint34_radial" cx="0" cy="0" r="1" gradientUnits="userSpaceOnUse" gradientTransform="translate(461.344 143.238) rotate(179.096) scale(235.557 52.0995)"><stop stop-color="#FCFDFF"/><stop offset="1" stop-color="white"/></radialGradient><linearGradient id="paint35_linear" x1="430.131" y1="132.488" x2="441.077" y2="151.448" gradientUnits="userSpaceOnUse"><stop stop-color="#4387FD"/><stop offset="1" stop-color="#4683EA"/></linearGradient><linearGradient id="paint36_linear" x1="176.305" y1="89.46" x2="118.762" y2="69.2808" gradientUnits="userSpaceOnUse"><stop stop-color="#FCFDFF"/><stop offset="0.354167" stop-color="#E6EAF2"/><stop offset="1" stop-color="white"/></linearGradient><linearGradient id="paint37_linear" x1="185.698" y1="86.4375" x2="110.606" y2="60.1042" gradientUnits="userSpaceOnUse"><stop stop-color="#FCFDFF"/><stop offset="0.354167" stop-color="#E6EAF2"/><stop offset="1" stop-color="white"/></linearGradient><radialGradient id="paint38_radial" cx="0" cy="0" r="1" gradientUnits="userSpaceOnUse" gradientTransform="translate(165.678 86.2081) rotate(179.096) scale(235.557 52.0995)"><stop stop-color="#FCFDFF"/><stop offset="1" stop-color="white"/></radialGradient><linearGradient id="paint39_linear" x1="373.415" y1="89.46" x2="315.873" y2="69.2808" gradientUnits="userSpaceOnUse"><stop stop-color="#FCFDFF"/><stop offset="0.354167" stop-color="#E6EAF2"/><stop offset="1" stop-color="white"/></linearGradient><linearGradient id="paint40_linear" x1="382.808" y1="86.4375" x2="307.717" y2="60.1042" gradientUnits="userSpaceOnUse"><stop stop-color="#FCFDFF"/><stop offset="0.354167" stop-color="#E6EAF2"/><stop offset="1" stop-color="white"/></linearGradient><radialGradient id="paint41_radial" cx="0" cy="0" r="1" gradientUnits="userSpaceOnUse" gradientTransform="translate(362.789 86.2081) rotate(179.096) scale(235.557 52.0995)"><stop stop-color="#FCFDFF"/><stop offset="1" stop-color="white"/></radialGradient><linearGradient id="paint42_linear" x1="274.86" y1="32.4303" x2="217.318" y2="12.2512" gradientUnits="userSpaceOnUse"><stop stop-color="#FCFDFF"/><stop offset="0.354167" stop-color="#E6EAF2"/><stop offset="1" stop-color="white"/></linearGradient><linearGradient id="paint43_linear" x1="284.253" y1="29.4079" x2="209.162" y2="3.07456" gradientUnits="userSpaceOnUse"><stop stop-color="#FCFDFF"/><stop offset="0.354167" stop-color="#E6EAF2"/><stop offset="1" stop-color="white"/></linearGradient><radialGradient id="paint44_radial" cx="0" cy="0" r="1" gradientUnits="userSpaceOnUse" gradientTransform="translate(264.233 29.1785) rotate(179.096) scale(235.557 52.0995)"><stop stop-color="#FCFDFF"/><stop offset="1" stop-color="white"/></radialGradient><linearGradient id="paint45_linear" x1="77.7494" y1="32.4303" x2="20.2072" y2="12.2512" gradientUnits="userSpaceOnUse"><stop stop-color="#FCFDFF"/><stop offset="0.354167" stop-color="#E6EAF2"/><stop offset="1" stop-color="white"/></linearGradient><linearGradient id="paint46_linear" x1="87.1425" y1="29.4079" x2="12.0512" y2="3.07456" gradientUnits="userSpaceOnUse"><stop stop-color="#FCFDFF"/><stop offset="0.354167" stop-color="#E6EAF2"/><stop offset="1" stop-color="white"/></linearGradient><radialGradient id="paint47_radial" cx="0" cy="0" r="1" gradientUnits="userSpaceOnUse" gradientTransform="translate(67.123 29.1785) rotate(179.096) scale(235.557 52.0995)"><stop stop-color="#FCFDFF"/><stop offset="1" stop-color="white"/></radialGradient><clipPath id="clip0"><path d="M315.067 311.978L344.955 294.724L373.27 311.07L343.382 328.324L315.067 311.978Z" fill="white"/></clipPath><clipPath id="clip1"><path d="M412.121 252.283L438.337 237.149L470.072 255.469L443.856 270.604L412.121 252.283Z" fill="white"/></clipPath><clipPath id="clip2"><rect width="30.4354" height="27.79" transform="matrix(0.886494 -0.511773 0.886494 0.511773 415.287 139.494)" fill="white"/></clipPath></defs></svg>