<svg xmlns="http://www.w3.org/2000/svg" viewBox="0 0 120 24" fill="" class="navbar-brand__logo adjustable-element d-block"><title>Segment logo</title><path d="M0.162436 9.37133C0.129955 9.31942 0.108652 9.26158 0.0998316 9.20135C0.0910108 9.14111 0.0948572 9.07975 0.111136 9.02102C0.755167 6.52923 2.196 4.30333 4.22395 2.66725C5.80935 1.39152 7.70488 0.537455 9.72705 0.187717C11.7492 -0.162021 13.8295 0.00442048 15.7666 0.670928C15.8247 0.691277 15.878 0.722851 15.9233 0.763768C15.9687 0.804685 16.0051 0.854107 16.0305 0.909088C16.0776 1.02133 16.0776 1.14716 16.0305 1.2594L15.4399 2.79787C15.4007 2.90743 15.3186 2.99732 15.2117 3.04779C15.1047 3.09825 14.9817 3.10518 14.8695 3.06704C13.3486 2.54864 11.7168 2.42201 10.1313 2.69934C8.54577 2.97667 7.06014 3.64862 5.81765 4.65037C4.24312 5.9385 3.12482 7.67954 2.62216 9.62533C2.59719 9.7212 2.54036 9.80626 2.46059 9.86716C2.38081 9.92805 2.28261 9.96133 2.18138 9.96178H2.07878L0.458764 9.58113C0.399034 9.56729 0.342803 9.54174 0.293487 9.50602C0.244171 9.47029 0.2028 9.42514 0.171886 9.37331" fill="inherit"/><path d="M23.677 13.1944C23.6396 13.1473 23.5927 13.108 23.5394 13.079C23.486 13.05 23.4272 13.0318 23.3665 13.0255L21.7094 12.856C21.5919 12.8451 21.4746 12.879 21.3821 12.9507C21.2896 13.0224 21.2291 13.1263 21.2132 13.2406C20.9181 15.4412 19.8399 17.4701 18.1676 18.9716C16.88 20.1393 15.2828 20.93 13.5578 21.2537C11.8328 21.5773 10.0495 21.421 8.41107 20.8023C8.35625 20.7813 8.29772 20.771 8.23883 20.7721C8.17995 20.7732 8.12186 20.7856 8.06788 20.8086C8.0139 20.8317 7.9651 20.8649 7.92427 20.9064C7.88343 20.9478 7.85136 20.9968 7.82989 21.0504L7.18391 22.5895C7.15954 22.6447 7.14697 22.7042 7.14697 22.7643C7.14697 22.8245 7.15954 22.884 7.18391 22.9392C7.20624 22.9956 7.24061 23.0467 7.28472 23.0891C7.32883 23.1316 7.38167 23.1643 7.43974 23.1853C8.82463 23.7187 10.3002 23.9916 11.7888 23.9895C14.7985 23.9894 17.6971 22.8779 19.9037 20.8775C22.0306 18.9499 23.3947 16.3516 23.7567 13.5388C23.7651 13.4791 23.7611 13.4183 23.7449 13.3601C23.7287 13.3019 23.7005 13.2476 23.6622 13.2004" fill="inherit"/><path d="M14.5274 15.4328V13.775C14.5281 13.6556 14.4804 13.5409 14.3948 13.4558C14.3092 13.3707 14.1925 13.3223 14.0704 13.3211H0.521005C0.399494 13.3231 0.283722 13.372 0.198805 13.4569C0.113887 13.5419 0.0666714 13.6562 0.0674007 13.775V15.4328C0.0668667 15.492 0.0782683 15.5506 0.100953 15.6055C0.123638 15.6603 0.157161 15.7102 0.199605 15.7524C0.242049 15.7945 0.29258 15.8281 0.348308 15.8512C0.404036 15.8742 0.463868 15.8863 0.52438 15.8867H14.0704C14.1309 15.8863 14.1908 15.8742 14.2465 15.8512C14.3022 15.8281 14.3527 15.7945 14.3952 15.7524C14.4376 15.7102 14.4712 15.6603 14.4938 15.6055C14.5165 15.5506 14.5279 15.492 14.5274 15.4328Z" fill="inherit"/><path d="M9.31503 7.75566V9.41354C9.31394 9.53219 9.36086 9.64646 9.44556 9.73147C9.53026 9.81648 9.6459 9.86534 9.76729 9.86742H23.3153C23.3758 9.86691 23.4356 9.85476 23.4912 9.83166C23.5469 9.80857 23.5973 9.775 23.6397 9.73285C23.682 9.6907 23.7155 9.64081 23.7382 9.58602C23.7608 9.53123 23.7722 9.47262 23.7716 9.41354V7.75566C23.7688 7.63892 23.7196 7.52782 23.6345 7.44593C23.5493 7.36403 23.4348 7.31777 23.3153 7.31695H9.76526C9.64387 7.31903 9.52824 7.3679 9.44354 7.4529C9.35883 7.53791 9.31192 7.65218 9.31301 7.77083" fill="inherit"/><path d="M19.2178 2.25954C18.9431 2.25501 18.6731 2.33021 18.4421 2.47562C18.2111 2.62103 18.0294 2.83012 17.92 3.07646C17.8106 3.3228 17.7784 3.59531 17.8275 3.85953C17.8766 4.12375 18.0047 4.36782 18.1957 4.56086C18.3867 4.75391 18.632 4.88726 18.9006 4.94405C19.1691 5.00084 19.4489 4.97852 19.7044 4.87992C19.96 4.78131 20.1799 4.61085 20.3364 4.39009C20.4928 4.16932 20.5787 3.90818 20.5833 3.63968C20.5833 3.63242 20.5833 3.6245 20.5833 3.61724C20.5855 3.26039 20.443 2.91722 20.1869 2.66279C19.9309 2.40836 19.5822 2.26337 19.2171 2.25954" fill="inherit"/><path d="M4.13769 18.6754C3.86297 18.6708 3.59304 18.746 3.36205 18.8915C3.13105 19.0369 2.94936 19.246 2.83996 19.4923C2.73056 19.7386 2.69836 20.0111 2.74743 20.2754C2.7965 20.5396 2.92464 20.7837 3.11564 20.9767C3.30665 21.1697 3.55193 21.3031 3.82048 21.3599C4.08903 21.4167 4.36878 21.3944 4.62435 21.2958C4.87992 21.1972 5.09983 21.0267 5.25627 20.8059C5.41271 20.5852 5.49866 20.324 5.50323 20.0555V20.0324C5.50486 19.6759 5.36225 19.3332 5.10646 19.079C4.85067 18.8248 4.50246 18.6797 4.13769 18.6754Z" fill="inherit"/><path d="M51.0013 10.8254H45.3987C45.475 10.1597 45.8025 9.54567 46.3171 9.10322C46.8317 8.66078 47.4965 8.42167 48.1818 8.43256C49.787 8.43256 50.8616 9.34825 50.9993 10.8254H51.0013ZM48.1602 6.09385C45.4406 6.09385 42.6251 8.35603 42.6251 12.1441C42.595 12.9705 42.7337 13.7945 43.0331 14.5679C43.3324 15.3413 43.7865 16.0487 44.3687 16.6487C44.9038 17.1674 45.5391 17.577 46.2377 17.8537C46.9362 18.1303 47.684 18.2686 48.4376 18.2604C49.5662 18.2929 50.6756 17.9702 51.6025 17.34C52.5293 16.7098 53.2246 15.8054 53.5859 14.7599C53.6043 14.7166 53.6137 14.6702 53.6137 14.6234C53.6137 14.5765 53.6043 14.5301 53.5859 14.4868C53.5663 14.4434 53.5377 14.4046 53.5017 14.3728C53.4658 14.3409 53.4234 14.3169 53.3773 14.3021L51.7789 13.7519C51.6885 13.7223 51.5899 13.7283 51.504 13.7685C51.418 13.8088 51.3515 13.8802 51.3186 13.9676C51.1379 14.5622 50.7562 15.0793 50.2358 15.4343C49.7154 15.7892 49.0872 15.9611 48.4538 15.9217C47.6436 15.9361 46.8603 15.6377 46.2738 15.0911C45.6873 14.5446 45.345 13.7941 45.3211 13.0024H53.3253C53.4162 13.0028 53.5038 12.9697 53.5708 12.9098C53.6378 12.8499 53.6794 12.7676 53.6872 12.6792C53.7079 12.4861 53.7184 12.2921 53.7189 12.098C53.7189 8.39429 51.5899 6.09451 48.1615 6.09451" fill="inherit"/><path d="M64.1417 11.906C64.1417 13.9175 62.9375 15.2705 61.1507 15.2705C59.2776 15.2705 58.1132 13.9821 58.1132 11.906C58.1132 9.82983 59.2938 8.53677 61.1507 8.53677C62.9375 8.53677 64.1417 9.89052 64.1417 11.906ZM66.326 6.44414H64.4414C64.3443 6.44957 64.2528 6.48991 64.1844 6.5574C64.1159 6.62488 64.0755 6.71473 64.0708 6.80962V7.49441C63.3668 6.66712 62.253 6.23633 60.824 6.23633C60.0885 6.22569 59.3591 6.368 58.6841 6.65383C58.0092 6.93965 57.4041 7.36246 56.909 7.89421C55.9238 9.00618 55.3948 10.4353 55.424 11.906C55.424 15.1755 57.6954 17.5525 60.8274 17.5525C61.4331 17.5721 62.0358 17.4613 62.5928 17.2279C63.1498 16.9945 63.6474 16.6443 64.0506 16.2021V17.0986C64.0506 19.4077 63.0279 20.5101 60.8274 20.5101C60.1333 20.5267 59.4579 20.2894 58.9335 19.8447C58.4091 19.4 58.0734 18.78 57.9924 18.106C57.9781 18.0112 57.9258 17.9258 57.847 17.8687C57.7683 17.8115 57.6696 17.7873 57.5725 17.8012C57.5628 17.8024 57.5531 17.8041 57.5435 17.8065L55.7014 18.2294C55.6128 18.2541 55.5359 18.3085 55.4841 18.383C55.4323 18.4575 55.4089 18.5475 55.4179 18.6371C55.7838 21.1256 58.0072 22.8679 60.8247 22.8679C62.8497 22.8679 64.3948 22.2563 65.41 21.049C66.3004 19.8975 66.7538 18.4794 66.6925 17.0373V6.8116C66.6881 6.7174 66.6484 6.62809 66.5809 6.56068C66.5134 6.49328 66.4229 6.4525 66.3267 6.44612" fill="inherit"/><path d="M82.0287 6.09384C81.2898 6.06216 80.5551 6.2189 79.8968 6.54866C79.2386 6.87842 78.6795 7.36986 78.2743 7.9747C77.938 7.38786 77.4435 6.90229 76.8447 6.57071C76.2459 6.23912 75.5656 6.0742 74.8777 6.09384C74.2789 6.08602 73.6853 6.20234 73.1359 6.43511C72.5865 6.66789 72.0938 7.01184 71.6903 7.44429V6.78457C71.6858 6.68973 71.6455 6.59989 71.5772 6.53239C71.5089 6.46489 71.4174 6.42453 71.3204 6.41908H69.506C69.4097 6.42546 69.3192 6.46624 69.2518 6.53365C69.1843 6.60105 69.1446 6.69037 69.1401 6.78457V17.7023C69.1446 17.7965 69.1843 17.8858 69.2518 17.9532C69.3192 18.0206 69.4097 18.0614 69.506 18.0678H71.3913C71.4882 18.0622 71.5796 18.0218 71.6479 17.9543C71.7162 17.8868 71.7565 17.7971 71.7612 17.7023V11.0906C71.7612 9.52109 72.7291 8.46752 74.1656 8.46752C76.0556 8.46752 76.3344 9.93672 76.3344 10.8095V17.7023C76.3389 17.7971 76.3792 17.887 76.4475 17.9545C76.5158 18.022 76.6073 18.0623 76.7043 18.0678H78.6125C78.7095 18.0623 78.801 18.022 78.8693 17.9545C78.9376 17.887 78.9779 17.7971 78.9824 17.7023V11.0675C78.9824 9.52901 79.9625 8.46752 81.3449 8.46752C83.2349 8.46752 83.5131 9.93672 83.5131 10.8095V17.7023C83.5177 17.7971 83.5581 17.8868 83.6263 17.9543C83.6946 18.0218 83.786 18.0622 83.883 18.0678H85.7682C85.8652 18.0623 85.9567 18.022 86.025 17.9545C86.0933 17.887 86.1336 17.7971 86.1382 17.7023V10.5773C86.1382 7.50037 84.072 6.0912 82.0253 6.0912" fill="inherit"/><path d="M90.7026 10.8254C90.7788 10.1592 91.1066 9.54469 91.6218 9.10215C92.137 8.65962 92.8026 8.42085 93.4884 8.43256C95.0942 8.43256 96.1688 9.34825 96.3065 10.8254H90.7026ZM93.4573 6.09385C90.7384 6.09385 87.9223 8.35603 87.9223 12.1442C87.8912 12.9707 88.0294 13.7949 88.3288 14.5684C88.6282 15.342 89.0828 16.0493 89.6658 16.6487C90.2001 17.1665 90.8342 17.5756 91.5314 17.8523C92.2285 18.1289 92.9749 18.2676 93.7273 18.2604C94.8564 18.2936 95.9665 17.9712 96.8939 17.341C97.8213 16.7107 98.5169 15.8059 98.8783 14.7599C98.8939 14.7155 98.9002 14.6684 98.8968 14.6214C98.8935 14.5745 98.8805 14.5288 98.8587 14.4868C98.8393 14.4433 98.8107 14.4044 98.7748 14.3725C98.7388 14.3407 98.6963 14.3167 98.6501 14.3021L97.0524 13.7519C96.962 13.7233 96.8638 13.7298 96.7782 13.7699C96.6925 13.8101 96.6259 13.8808 96.592 13.9676C96.4108 14.5618 96.0289 15.0785 95.5087 15.4334C94.9884 15.7882 94.3605 15.9604 93.7273 15.9217C92.9191 15.9331 92.1387 15.6334 91.5547 15.0872C90.9707 14.541 90.6299 13.7921 90.6061 13.0024H98.611C98.7015 13.0019 98.7887 12.9685 98.8555 12.9088C98.9223 12.8491 98.9641 12.7673 98.9728 12.6792C98.9938 12.4861 99.0044 12.2921 99.0045 12.098C99.0045 8.3943 96.8756 6.09451 93.4479 6.09451" fill="inherit"/><path d="M107.015 6.09385C106.396 6.08015 105.782 6.20362 105.219 6.45499C104.656 6.70636 104.159 7.0791 103.764 7.54523V6.77864C103.76 6.68453 103.72 6.59538 103.652 6.52803C103.585 6.46068 103.495 6.41981 103.399 6.41315H101.537C101.44 6.41888 101.349 6.45934 101.28 6.52678C101.212 6.59422 101.172 6.68389 101.167 6.77864V17.7023C101.172 17.7971 101.212 17.887 101.28 17.9545C101.348 18.022 101.44 18.0623 101.537 18.0678H103.442C103.539 18.0622 103.63 18.0218 103.698 17.9543C103.767 17.8868 103.807 17.7971 103.812 17.7023V11.369C103.785 10.6404 104 9.92285 104.425 9.32384C104.637 9.06012 104.91 8.84889 105.221 8.70724C105.532 8.56558 105.873 8.49747 106.216 8.50842C107.79 8.50842 108.62 9.38519 108.62 11.1084V17.697C108.625 17.7919 108.666 17.8818 108.734 17.9492C108.802 18.0167 108.894 18.0571 108.991 18.0625H110.899C110.995 18.0561 111.086 18.0153 111.153 17.9479C111.221 17.8805 111.261 17.7912 111.265 17.697V10.7403C111.315 9.55865 110.942 8.39699 110.211 7.45485C109.818 7.00665 109.327 6.65153 108.773 6.41632C108.219 6.18111 107.618 6.07197 107.015 6.09714" fill="inherit"/><path d="M119.569 8.85543C119.618 8.855 119.666 8.84522 119.711 8.82666C119.755 8.80809 119.796 8.7811 119.83 8.74722C119.864 8.71334 119.891 8.67324 119.909 8.62921C119.927 8.58518 119.936 8.53808 119.936 8.49061V6.8136C119.936 6.71605 119.898 6.6221 119.83 6.55072C119.762 6.47933 119.669 6.43583 119.569 6.42898H117.5V3.27089C117.5 3.17276 117.462 3.07828 117.393 3.00678C117.324 2.93528 117.23 2.89217 117.13 2.88628H115.41C115.31 2.89201 115.216 2.93507 115.147 3.00661C115.078 3.07814 115.04 3.17272 115.04 3.27089V4.93999C115.04 6.25151 114.095 6.44415 113.529 6.44415H113.064C112.963 6.44989 112.869 6.49295 112.8 6.56448C112.732 6.63602 112.694 6.73059 112.694 6.82877V8.5137C112.699 8.60842 112.739 8.6981 112.807 8.76546C112.875 8.83282 112.967 8.8731 113.064 8.87852H114.855V14.7942C114.855 16.8988 116.141 18.2024 118.215 18.2024C118.707 18.2097 119.198 18.1475 119.671 18.0176C119.748 17.9952 119.815 17.949 119.863 17.8859C119.911 17.8228 119.936 17.7464 119.935 17.668V16.0847C119.934 16.0326 119.923 15.9813 119.901 15.9338C119.88 15.8862 119.848 15.8435 119.809 15.8082C119.768 15.774 119.72 15.749 119.669 15.735C119.617 15.721 119.563 15.7183 119.51 15.7271C119.291 15.7593 119.07 15.7774 118.848 15.7812C117.876 15.7812 117.498 15.3966 117.498 14.4657V8.85543H119.569Z" fill="inherit"/><path d="M41.1902 14.6715C41.1902 12.9252 39.8483 11.6711 37.5026 11.21L35.4014 10.8254C34.264 10.6136 34.0237 10.0291 34.0237 9.57189C34.0237 8.8871 34.779 8.17922 36.0386 8.17922C37.8449 8.17922 38.4011 9.19453 38.5611 9.79883C38.5725 9.8357 38.5917 9.8698 38.6175 9.8989C38.6434 9.92801 38.6752 9.95146 38.7109 9.96772C38.7956 10.0007 38.8901 10.0007 38.9748 9.96772L40.8831 9.3522C40.9152 9.34469 40.9456 9.33104 40.9723 9.31204C40.9991 9.29304 41.0218 9.26905 41.039 9.24147C41.0563 9.21388 41.0678 9.18323 41.0729 9.15129C41.0779 9.11935 41.0765 9.08673 41.0687 9.05532C40.8269 8.31398 40.3656 7.6594 39.743 7.17446C38.8209 6.45536 37.5776 6.09054 36.0386 6.09054C33.4688 6.09054 31.2926 7.76755 31.2926 9.74803C31.2926 11.3749 32.5751 12.6251 34.6339 13.0057L36.8418 13.4253C37.8374 13.6232 38.4159 14.1101 38.4159 14.7718C38.4159 15.4335 37.7666 16.1632 36.3376 16.1632C34.8026 16.1632 33.7361 15.4744 33.4884 14.3206C33.4785 14.2831 33.4604 14.2481 33.4352 14.2183C33.41 14.1884 33.3784 14.1643 33.3426 14.1477C33.2932 14.1213 33.2376 14.1081 33.1813 14.1094C33.1462 14.1035 33.1104 14.1035 33.0753 14.1094L31.1077 14.7118C31.0448 14.7274 30.9899 14.7651 30.9536 14.8176C30.9172 14.8701 30.9019 14.9339 30.9105 14.9968C31.1806 16.1968 32.6224 18.2294 36.3025 18.2294C39.475 18.2294 41.1821 16.3822 41.1821 14.6405" fill="inherit"/></svg>