<svg xmlns="http://www.w3.org/2000/svg" id="Warstwa_1" data-name="Warstwa 1" viewBox="0 0 120 24"><defs><style>.cls-1{fill:#fff;}</style></defs><title>logo__segment</title><path class="cls-1" d="M.16,9.37A.49.49,0,0,1,.1,9.2.55.55,0,0,1,.11,9,12.11,12.11,0,0,1,15.77.67a.46.46,0,0,1,.15.09A.33.33,0,0,1,16,.91a.43.43,0,0,1,0,.35L15.44,2.8a.43.43,0,0,1-.23.25.45.45,0,0,1-.34,0A9.44,9.44,0,0,0,2.62,9.63a.43.43,0,0,1-.16.24.47.47,0,0,1-.28.09h-.1L.46,9.58a.51.51,0,0,1-.17-.07.41.41,0,0,1-.12-.14"/><path class="cls-1" d="M23.68,13.19l-.14-.11a.34.34,0,0,0-.17-.05l-1.66-.17a.47.47,0,0,0-.33.09.48.48,0,0,0-.17.29,9.48,9.48,0,0,1-7.65,8,9.51,9.51,0,0,1-5.15-.45.43.43,0,0,0-.34,0,.36.36,0,0,0-.15.1.42.42,0,0,0-.09.14l-.65,1.54a.47.47,0,0,0,0,.17.57.57,0,0,0,0,.18.56.56,0,0,0,.1.15l.16.1A12.16,12.16,0,0,0,19.9,20.88a12,12,0,0,0,3.86-7.34.55.55,0,0,0,0-.18.51.51,0,0,0-.09-.16"/><path class="cls-1" d="M14.53,15.43V13.77a.43.43,0,0,0-.14-.31.43.43,0,0,0-.32-.14H.52a.43.43,0,0,0-.32.14.42.42,0,0,0-.13.31v1.66a.57.57,0,0,0,0,.18.45.45,0,0,0,.1.14.4.4,0,0,0,.15.1.47.47,0,0,0,.17,0H14.07a.58.58,0,0,0,.18,0,.65.65,0,0,0,.15-.1.42.42,0,0,0,.09-.14A.39.39,0,0,0,14.53,15.43Z"/><path class="cls-1" d="M9.32,7.76V9.41a.39.39,0,0,0,.13.32.43.43,0,0,0,.32.14H23.32a.47.47,0,0,0,.17,0,.4.4,0,0,0,.15-.1.45.45,0,0,0,.1-.14.57.57,0,0,0,0-.18V7.76a.41.41,0,0,0-.14-.31.42.42,0,0,0-.31-.13H9.77a.49.49,0,0,0-.33.13.48.48,0,0,0-.13.32"/><path class="cls-1" d="M19.22,2.26a1.42,1.42,0,0,0-.78.22,1.32,1.32,0,0,0-.52.6,1.33,1.33,0,0,0,.28,1.48,1.34,1.34,0,0,0,.7.38,1.36,1.36,0,0,0,.8-.06,1.42,1.42,0,0,0,.64-.49,1.34,1.34,0,0,0,.24-.75v0a1.34,1.34,0,0,0-.39-1,1.41,1.41,0,0,0-1-.4"/><path class="cls-1" d="M4.14,18.68a1.41,1.41,0,0,0-.78.21,1.43,1.43,0,0,0-.52.6A1.34,1.34,0,0,0,3.12,21a1.42,1.42,0,0,0,.7.38,1.45,1.45,0,0,0,.8-.06,1.42,1.42,0,0,0,.64-.49,1.36,1.36,0,0,0,.24-.75v0a1.36,1.36,0,0,0-.39-1A1.37,1.37,0,0,0,4.14,18.68Z"/><path class="cls-1" d="M51,10.83H45.4a2.69,2.69,0,0,1,.92-1.73,2.8,2.8,0,0,1,1.86-.67A2.59,2.59,0,0,1,51,10.83ZM48.16,6.09a5.74,5.74,0,0,0-5.53,6.05,6.12,6.12,0,0,0,.4,2.43,6.29,6.29,0,0,0,1.34,2.08,5.5,5.5,0,0,0,1.87,1.2,5.69,5.69,0,0,0,2.2.41,5.34,5.34,0,0,0,3.16-.92,5.19,5.19,0,0,0,2-2.58.47.47,0,0,0,0-.27.27.27,0,0,0-.09-.12.47.47,0,0,0-.12-.07l-1.6-.55a.39.39,0,0,0-.28,0,.35.35,0,0,0-.18.2,2.72,2.72,0,0,1-1.08,1.46,2.83,2.83,0,0,1-1.79.49,3.08,3.08,0,0,1-2.18-.83,3,3,0,0,1-1-2.09h8a.36.36,0,0,0,.24-.09.35.35,0,0,0,.12-.23,5.63,5.63,0,0,0,0-.58c0-3.71-2.13-6-5.56-6"/><path class="cls-1" d="M64.14,11.91c0,2-1.2,3.36-3,3.36s-3-1.29-3-3.36,1.18-3.37,3-3.37S64.14,9.89,64.14,11.91Zm2.19-5.47H64.44a.42.42,0,0,0-.26.12.41.41,0,0,0-.11.25v.68a4.1,4.1,0,0,0-3.25-1.25,5.43,5.43,0,0,0-2.14.41,5.25,5.25,0,0,0-1.77,1.24,5.89,5.89,0,0,0-1.49,4,5.35,5.35,0,0,0,5.41,5.64,4.15,4.15,0,0,0,3.22-1.35v.9c0,2.31-1,3.41-3.22,3.41a2.8,2.8,0,0,1-1.9-.67A2.7,2.7,0,0,1,58,18.11a.33.33,0,0,0-.14-.24.4.4,0,0,0-.28-.07h0l-1.84.42a.42.42,0,0,0-.22.15.4.4,0,0,0-.06.26,5.16,5.16,0,0,0,5.4,4.23,5.68,5.68,0,0,0,4.59-1.82,6.13,6.13,0,0,0,1.28-4V6.81a.38.38,0,0,0-.36-.36"/><path class="cls-1" d="M82,6.09a4.36,4.36,0,0,0-2.13.46A4.3,4.3,0,0,0,78.27,8a3.7,3.7,0,0,0-1.43-1.4,3.8,3.8,0,0,0-2-.48,4.33,4.33,0,0,0-1.74.35,4.19,4.19,0,0,0-1.45,1V6.78a.36.36,0,0,0-.11-.25.36.36,0,0,0-.26-.11H69.51a.47.47,0,0,0-.26.11.36.36,0,0,0-.11.25V17.7a.33.33,0,0,0,.11.25.42.42,0,0,0,.26.12h1.88a.42.42,0,0,0,.26-.12.33.33,0,0,0,.11-.25V11.09a2.39,2.39,0,0,1,2.41-2.62,2.05,2.05,0,0,1,2.16,2.34V17.7a.37.37,0,0,0,.12.25.42.42,0,0,0,.25.12h1.91a.42.42,0,0,0,.26-.12A.33.33,0,0,0,79,17.7V11.07a2.38,2.38,0,0,1,2.37-2.6,2.05,2.05,0,0,1,2.16,2.34V17.7a.37.37,0,0,0,.12.25.39.39,0,0,0,.25.12h1.89A.42.42,0,0,0,86,18a.41.41,0,0,0,.11-.25V10.58c0-3.08-2.07-4.49-4.11-4.49"/><path class="cls-1" d="M90.7,10.83a2.72,2.72,0,0,1,.92-1.73,2.82,2.82,0,0,1,1.87-.67,2.59,2.59,0,0,1,2.82,2.4Zm2.76-4.74a5.75,5.75,0,0,0-5.54,6.05,6.14,6.14,0,0,0,1.75,4.51,5.46,5.46,0,0,0,1.86,1.2,5.69,5.69,0,0,0,2.2.41,5.34,5.34,0,0,0,3.16-.92,5.13,5.13,0,0,0,2-2.58.59.59,0,0,0,0-.14.5.5,0,0,0,0-.13.27.27,0,0,0-.09-.12.35.35,0,0,0-.12-.07l-1.6-.55a.36.36,0,0,0-.27,0,.37.37,0,0,0-.19.2,2.72,2.72,0,0,1-1.08,1.46,2.82,2.82,0,0,1-1.78.49,3.17,3.17,0,0,1-2.18-.83A3,3,0,0,1,90.61,13h8a.34.34,0,0,0,.36-.32,5.63,5.63,0,0,0,0-.58c0-3.71-2.12-6-5.55-6"/><path class="cls-1" d="M107,6.09a4.12,4.12,0,0,0-3.26,1.46V6.78a.34.34,0,0,0-.11-.25.39.39,0,0,0-.25-.12h-1.86a.42.42,0,0,0-.26.12.33.33,0,0,0-.11.25V17.7a.33.33,0,0,0,.11.25.42.42,0,0,0,.26.12h1.9a.42.42,0,0,0,.26-.12.33.33,0,0,0,.11-.25V11.37a3.35,3.35,0,0,1,.62-2,2.16,2.16,0,0,1,.79-.61,2.27,2.27,0,0,1,1-.2c1.57,0,2.4.88,2.4,2.6V17.7a.41.41,0,0,0,.11.25.36.36,0,0,0,.26.11h1.91a.33.33,0,0,0,.25-.11.36.36,0,0,0,.11-.25v-7a5,5,0,0,0-1.05-3.29A4.07,4.07,0,0,0,107,6.1"/><path class="cls-1" d="M119.57,8.86a.58.58,0,0,0,.14,0l.12-.08a.83.83,0,0,0,.08-.12.32.32,0,0,0,0-.14V6.81a.38.38,0,0,0-.11-.26.42.42,0,0,0-.26-.12H117.5V3.27a.36.36,0,0,0-.11-.26.37.37,0,0,0-.26-.12h-1.72a.36.36,0,0,0-.26.12.36.36,0,0,0-.11.26V4.94a1.36,1.36,0,0,1-1.51,1.5h-.47a.42.42,0,0,0-.26.12.4.4,0,0,0-.11.27V8.51a.42.42,0,0,0,.12.26.47.47,0,0,0,.25.11h1.79v5.91a3.14,3.14,0,0,0,3.36,3.41,5.08,5.08,0,0,0,1.46-.18.33.33,0,0,0,.19-.13.31.31,0,0,0,.07-.22V16.08a.4.4,0,0,0,0-.15.34.34,0,0,0-.09-.12.39.39,0,0,0-.14-.08h-.16a4.89,4.89,0,0,1-.66,0c-1,0-1.35-.38-1.35-1.31V8.86Z"/><path class="cls-1" d="M41.19,14.67c0-1.74-1.34-3-3.69-3.46l-2.1-.38C34.26,10.61,34,10,34,9.57c0-.68.76-1.39,2-1.39A2.29,2.29,0,0,1,38.56,9.8a.21.21,0,0,0,.06.1.31.31,0,0,0,.09.07A.39.39,0,0,0,39,10l1.91-.62a.19.19,0,0,0,.09,0A.23.23,0,0,0,41,9.24a.16.16,0,0,0,0-.09.14.14,0,0,0,0-.09,3.89,3.89,0,0,0-1.33-1.89A5.92,5.92,0,0,0,36,6.09c-2.57,0-4.75,1.68-4.75,3.66,0,1.62,1.29,2.88,3.34,3.26l2.21.42c1,.19,1.58.68,1.58,1.34s-.65,1.39-2.08,1.39-2.6-.69-2.85-1.84a.31.31,0,0,0-.05-.1.23.23,0,0,0-.1-.07.29.29,0,0,0-.16,0h-.1l-2,.6a.31.31,0,0,0-.16.11.27.27,0,0,0,0,.18c.27,1.2,1.71,3.23,5.39,3.23,3.17,0,4.88-1.85,4.88-3.59"/></svg>