<svg xmlns="http://www.w3.org/2000/svg" viewBox="0 0 1017 369" fill="none"><path opacity="0.08" d="M719.489 368.6C825.528 368.6 911.489 286.22 911.489 184.6C911.489 82.9797 825.528 0.600098 719.489 0.600098C613.451 0.600098 527.489 82.9797 527.489 184.6C527.489 286.22 613.451 368.6 719.489 368.6Z" fill="#52BD95"/><path opacity="0.08" d="M719.489 300.1C786.04 300.1 839.989 248.389 839.989 184.6C839.989 120.811 786.04 69.1001 719.489 69.1001C652.939 69.1001 598.989 120.811 598.989 184.6C598.989 248.389 652.939 300.1 719.489 300.1Z" fill="#52BD95"/><path d="M-88.5107 24.6001H415.489C419.889 24.6001 423.489 28.2001 423.489 32.6001V336.6C423.489 341 419.889 344.6 415.489 344.6H-88.5107C-92.9107 344.6 -96.5107 341 -96.5107 336.6V32.6001C-96.5107 28.2001 -92.9107 24.6001 -88.5107 24.6001Z" fill="white"/><path d="M-96.5107 28.6001C-96.5107 26.4001 -94.7107 24.6001 -92.5107 24.6001H419.489C421.689 24.6001 423.489 26.4001 423.489 28.6001V48.6001H-96.5107V28.6001Z" fill="#E2E3F4"/><path d="M127.489 228.6H303.289C305.489 228.6 307.289 230.4 307.289 232.6V256.1C307.289 258.3 305.489 260.1 303.289 260.1H127.489C125.289 260.1 123.489 258.3 123.489 256.1V232.6C123.489 230.4 125.289 228.6 127.489 228.6Z" fill="#B1B5D3"/><path d="M127.489 189.1H303.289C305.189 189.1 306.789 190.7 306.789 192.6V216.1C306.789 218 305.189 219.6 303.289 219.6H127.489C125.589 219.6 123.989 218 123.989 216.1V192.6C123.989 190.6 125.589 189.1 127.489 189.1Z" stroke="#E2E3F4"/><path d="M156.289 241.7H267.189C268.689 241.7 269.789 242.9 269.789 244.3C269.789 245.8 268.589 246.9 267.189 246.9H156.289C154.789 246.9 153.689 245.7 153.689 244.3C153.689 242.9 154.889 241.7 156.289 241.7Z" fill="white"/><path d="M138.289 202.6H249.189C250.689 202.6 251.789 203.8 251.789 205.2C251.789 206.7 250.589 207.8 249.189 207.8H138.289C136.789 207.8 135.689 206.6 135.689 205.2C135.689 203.7 136.889 202.6 138.289 202.6Z" fill="#E2E3F4"/><path d="M127.389 118.6H235.689C237.889 118.6 239.589 120.4 239.589 122.5C239.589 124.7 237.789 126.4 235.689 126.4H127.389C125.189 126.4 123.489 124.6 123.489 122.5C123.489 120.3 125.289 118.6 127.389 118.6Z" fill="#E2E3F4"/><path d="M125.489 133H185.189C186.289 133 187.189 133.9 187.189 135C187.189 136.1 186.289 137 185.189 137H125.489C124.389 137 123.489 136.1 123.489 135C123.489 133.9 124.389 133 125.489 133Z" fill="#E2E3F4"/><path opacity="0.48" d="M-68.5107 102.6H103.489C105.689 102.6 107.489 104.4 107.489 106.6V278.6C107.489 280.8 105.689 282.6 103.489 282.6H-68.5107C-70.7107 282.6 -72.5107 280.8 -72.5107 278.6V106.6C-72.5107 104.4 -70.7107 102.6 -68.5107 102.6Z" fill="#E2E3F4"/><path opacity="0.48" d="M44.4893 290.6H66.4893C68.6893 290.6 70.4893 292.4 70.4893 294.6V316.6C70.4893 318.8 68.6893 320.6 66.4893 320.6H44.4893C42.2893 320.6 40.4893 318.8 40.4893 316.6V294.6C40.4893 292.4 42.2893 290.6 44.4893 290.6Z" fill="#E2E3F4"/><path opacity="0.48" d="M81.4893 290.6H103.489C105.689 290.6 107.489 292.4 107.489 294.6V316.6C107.489 318.8 105.689 320.6 103.489 320.6H81.4893C79.2893 320.6 77.4893 318.8 77.4893 316.6V294.6C77.4893 292.4 79.2893 290.6 81.4893 290.6Z" fill="#E2E3F4"/><path d="M131.489 148.6C129.889 148.6 128.389 149.1 127.089 149.9C125.789 150.8 124.789 152 124.189 153.5C123.589 155 123.389 156.6 123.689 158.1C123.989 159.7 124.789 161.1 125.889 162.2C126.989 163.3 128.389 164.1 129.989 164.4C131.589 164.7 133.189 164.6 134.589 163.9C136.089 163.3 137.289 162.3 138.189 161C139.089 159.7 139.489 158.1 139.489 156.6C139.489 154.5 138.689 152.4 137.189 150.9C135.689 149.4 133.589 148.6 131.489 148.6ZM132.489 161C132.489 161 132.389 161 132.389 161.1V161.2V161.7C132.389 161.9 132.289 162.1 132.189 162.3C131.989 162.5 131.789 162.5 131.589 162.5C131.389 162.5 131.189 162.4 130.989 162.3C130.789 162.1 130.789 161.9 130.789 161.7V161.2C130.789 161.2 130.789 161.2 130.789 161.1C130.789 161.1 130.789 161.1 130.789 161C130.789 161 130.789 161 130.689 161C130.689 161 130.689 161 130.589 161H129.789C129.589 161 129.389 160.9 129.189 160.8C128.989 160.6 128.989 160.4 128.989 160.2C128.989 160 129.089 159.8 129.189 159.6C129.389 159.4 129.589 159.4 129.789 159.4H132.189C132.389 159.4 132.489 159.3 132.689 159.2C132.789 159.1 132.889 158.9 132.989 158.8C132.989 158.6 132.989 158.5 132.889 158.3C132.789 158.1 132.689 158 132.489 158L130.089 157C129.589 156.8 129.189 156.5 128.889 156C128.589 155.5 128.489 155 128.589 154.5C128.689 154 128.889 153.5 129.289 153.1C129.689 152.7 130.189 152.5 130.689 152.4C130.689 152.4 130.789 152.4 130.789 152.3V152.2V151.6C130.789 151.4 130.889 151.2 130.989 151C131.189 150.8 131.389 150.8 131.589 150.8C131.789 150.8 131.989 150.9 132.189 151C132.389 151.2 132.389 151.4 132.389 151.6V152.1V152.2H132.489H133.289C133.489 152.2 133.689 152.3 133.889 152.4C134.089 152.6 134.089 152.8 134.089 153C134.089 153.2 133.989 153.4 133.889 153.6C133.689 153.8 133.489 153.8 133.289 153.8H130.889C130.689 153.8 130.589 153.9 130.389 154C130.289 154.1 130.189 154.3 130.089 154.4C130.089 154.6 130.089 154.7 130.189 154.9C130.289 155.1 130.389 155.2 130.589 155.2L132.989 156.2C133.489 156.4 133.889 156.7 134.189 157.2C134.489 157.7 134.589 158.2 134.489 158.7C134.389 159.2 134.189 159.7 133.789 160.1C133.489 160.6 132.989 160.9 132.489 161Z" fill="#737A96"/><path d="M155.489 148.6C153.889 148.6 152.389 149.1 151.089 149.9C149.789 150.8 148.789 152 148.189 153.5C147.589 155 147.389 156.6 147.689 158.1C147.989 159.7 148.789 161.1 149.889 162.2C150.989 163.3 152.389 164.1 153.989 164.4C155.589 164.7 157.189 164.6 158.589 163.9C160.089 163.3 161.289 162.3 162.189 161C163.089 159.7 163.489 158.1 163.489 156.6C163.489 154.5 162.689 152.4 161.189 150.9C159.689 149.4 157.589 148.6 155.489 148.6ZM156.489 161C156.489 161 156.389 161 156.389 161.1V161.2V161.7C156.389 161.9 156.289 162.1 156.189 162.3C155.989 162.5 155.789 162.5 155.589 162.5C155.389 162.5 155.189 162.4 154.989 162.3C154.789 162.1 154.789 161.9 154.789 161.7V161.2C154.789 161.2 154.789 161.2 154.789 161.1C154.789 161.1 154.789 161.1 154.789 161C154.789 161 154.789 161 154.689 161C154.689 161 154.689 161 154.589 161H153.789C153.589 161 153.389 160.9 153.189 160.8C152.989 160.6 152.989 160.4 152.989 160.2C152.989 160 153.089 159.8 153.189 159.6C153.389 159.4 153.589 159.4 153.789 159.4H156.189C156.389 159.4 156.489 159.3 156.689 159.2C156.789 159.1 156.889 158.9 156.989 158.8C156.989 158.6 156.989 158.5 156.889 158.3C156.789 158.1 156.689 158 156.489 158L154.089 157C153.589 156.8 153.189 156.5 152.889 156C152.589 155.5 152.489 155 152.589 154.5C152.689 154 152.889 153.5 153.289 153.1C153.689 152.7 154.189 152.5 154.689 152.4C154.689 152.4 154.789 152.4 154.789 152.3V152.2V151.6C154.789 151.4 154.889 151.2 154.989 151C155.189 150.8 155.389 150.8 155.589 150.8C155.789 150.8 155.989 150.9 156.189 151C156.389 151.2 156.389 151.4 156.389 151.6V152.1V152.2H156.489H157.289C157.489 152.2 157.689 152.3 157.889 152.4C158.089 152.6 158.089 152.8 158.089 153C158.089 153.2 157.989 153.4 157.889 153.6C157.689 153.8 157.489 153.8 157.289 153.8H154.889C154.689 153.8 154.589 153.9 154.389 154C154.289 154.1 154.189 154.3 154.089 154.4C154.089 154.6 154.089 154.7 154.189 154.9C154.289 155.1 154.389 155.2 154.589 155.2L156.989 156.2C157.489 156.4 157.889 156.7 158.189 157.2C158.489 157.7 158.589 158.2 158.489 158.7C158.389 159.2 158.189 159.7 157.789 160.1C157.489 160.6 156.989 160.9 156.489 161Z" fill="#737A96"/><path opacity="0.08" d="M213.489 24.6001H181.489V344.6H213.489V24.6001Z" fill="url(#paint0_linear)"/><path d="M221.489 0.600098H415.489C419.889 0.600098 423.489 4.2001 423.489 8.6001V360.6C423.489 365 419.889 368.6 415.489 368.6H221.489C217.089 368.6 213.489 365 213.489 360.6V8.6001C213.489 4.2001 217.089 0.600098 221.489 0.600098Z" fill="white"/><path d="M230.589 249H406.389C408.589 249 410.389 250.8 410.389 253V276.5C410.389 278.7 408.589 280.5 406.389 280.5H230.589C228.389 280.5 226.589 278.7 226.589 276.5V253C226.589 250.8 228.389 249 230.589 249Z" fill="#B1B5D3"/><path d="M259.389 262.1H370.289C371.789 262.1 372.889 263.3 372.889 264.7C372.889 266.2 371.689 267.3 370.289 267.3H259.389C257.889 267.3 256.789 266.1 256.789 264.7C256.789 263.3 257.989 262.1 259.389 262.1Z" fill="white"/><path d="M230.589 217.4H338.889C341.089 217.4 342.789 219.2 342.789 221.3C342.789 223.5 340.989 225.2 338.889 225.2H230.589C228.389 225.2 226.689 223.4 226.689 221.3C226.589 219.2 228.389 217.4 230.589 217.4Z" fill="#E2E3F4"/><path d="M228.589 231.9H288.289C289.389 231.9 290.289 232.8 290.289 233.9C290.289 235 289.389 235.9 288.289 235.9H228.589C227.489 235.9 226.589 235 226.589 233.9C226.589 232.8 227.489 231.9 228.589 231.9Z" fill="#E2E3F4"/><path opacity="0.48" d="M230.589 72.8999H406.389C408.589 72.8999 410.389 74.6999 410.389 76.8999V200.3C410.389 202.5 408.589 204.3 406.389 204.3H230.589C228.389 204.3 226.589 202.5 226.589 200.3V76.8999C226.589 74.5999 228.389 72.8999 230.589 72.8999Z" fill="#E2E3F4"/><path d="M344.689 133C344.889 131.9 344.689 130.8 344.089 129.9C343.489 129 342.489 128.4 341.489 128.2L332.689 126.6C332.589 126.6 332.489 126.6 332.489 126.6C332.389 126.6 332.389 126.7 332.289 126.7C332.189 126.8 332.189 126.8 332.189 126.9C332.189 127 332.089 127.1 332.089 127.1V130.4C332.089 130.5 332.089 130.7 332.189 130.7C332.289 130.8 332.389 130.9 332.489 130.9L339.289 132.2C339.589 132.3 339.789 132.4 339.989 132.7C340.189 132.9 340.189 133.2 340.189 133.5L335.389 159.3C335.289 159.6 335.189 159.8 334.889 160C334.689 160.2 334.389 160.2 334.089 160.2L308.489 155.4C308.189 155.3 307.989 155.2 307.789 154.9C307.589 154.7 307.589 154.4 307.589 154.1L307.789 152.9C307.789 152.8 307.789 152.7 307.789 152.7C307.789 152.6 307.689 152.5 307.689 152.5C307.589 152.4 307.589 152.4 307.489 152.4C307.389 152.4 307.289 152.3 307.289 152.3H303.989C303.889 152.3 303.789 152.3 303.689 152.4C303.589 152.5 303.489 152.6 303.489 152.7L303.089 154.7C302.889 155.8 303.089 156.9 303.689 157.8C304.289 158.7 305.289 159.3 306.289 159.5L334.589 164.8C334.789 164.8 335.089 164.9 335.389 164.9C336.389 164.9 337.289 164.6 337.989 163.9C338.689 163.3 339.189 162.4 339.389 161.5L344.689 133Z" fill="#E2E3F4"/><path d="M325.189 149.5C326.289 149.5 327.289 149.1 328.089 148.3C328.889 147.5 329.289 146.5 329.289 145.4V116.4C329.289 115.3 328.889 114.3 328.089 113.5C327.289 112.7 326.289 112.3 325.189 112.3H296.389C295.289 112.3 294.289 112.7 293.489 113.5C292.689 114.3 292.289 115.3 292.289 116.4V145.4C292.289 146.5 292.689 147.5 293.489 148.3C294.289 149.1 295.289 149.5 296.389 149.5H325.189ZM323.789 116.7C324.089 116.7 324.389 116.8 324.589 117C324.789 117.2 324.889 117.5 324.889 117.8V139.6C324.889 139.7 324.889 139.7 324.889 139.8C324.889 139.9 324.789 139.9 324.789 140C324.689 140.1 324.689 140.1 324.589 140.1C324.489 140.1 324.489 140.1 324.389 140.1H297.189C297.089 140.1 296.889 140 296.789 139.9C296.689 139.8 296.589 139.7 296.589 139.5V117.7C296.589 117.4 296.689 117.1 296.889 116.9C297.089 116.7 297.389 116.6 297.689 116.6L323.789 116.7Z" fill="#E2E3F4"/><path d="M402.489 218.7C400.889 218.7 399.389 219.2 398.089 220C396.789 220.9 395.789 222.1 395.189 223.5C394.589 224.9 394.389 226.5 394.789 228.1C395.089 229.6 395.889 231 396.989 232.1C398.089 233.2 399.489 234 400.989 234.3C402.489 234.6 404.089 234.4 405.589 233.9C406.989 233.3 408.289 232.3 409.089 231C409.889 229.7 410.389 228.2 410.389 226.6C410.389 224.5 409.589 222.5 408.089 221C406.589 219.6 404.589 218.7 402.489 218.7ZM403.489 231C403.489 231 403.389 231 403.389 231.1V231.2V231.7C403.389 231.9 403.289 232.1 403.189 232.3C402.989 232.5 402.789 232.5 402.589 232.5C402.389 232.5 402.189 232.4 401.989 232.3C401.789 232.1 401.789 231.9 401.789 231.7V231.2C401.789 231.2 401.789 231.2 401.789 231.1C401.789 231.1 401.789 231.1 401.789 231C401.789 231 401.789 231 401.689 231C401.689 231 401.689 231 401.589 231H400.789C400.589 231 400.389 230.9 400.189 230.8C399.989 230.6 399.989 230.4 399.989 230.2C399.989 230 400.089 229.8 400.189 229.6C400.389 229.4 400.589 229.4 400.789 229.4H403.189C403.389 229.4 403.489 229.3 403.689 229.2C403.789 229.1 403.889 228.9 403.989 228.8C403.989 228.6 403.989 228.5 403.889 228.3C403.789 228.1 403.689 228 403.489 228L401.089 227C400.589 226.8 400.189 226.5 399.889 226C399.589 225.6 399.489 225 399.589 224.5C399.689 224 399.889 223.5 400.289 223.1C400.689 222.7 401.089 222.5 401.689 222.4C401.689 222.4 401.789 222.4 401.789 222.3V222.2V221.7C401.789 221.5 401.889 221.3 401.989 221.1C402.189 220.9 402.389 220.9 402.589 220.9C402.789 220.9 402.989 221 403.189 221.1C403.389 221.3 403.389 221.5 403.389 221.7V222.2V222.3H403.489H404.289C404.489 222.3 404.689 222.4 404.889 222.5C405.089 222.7 405.089 222.9 405.089 223.1C405.089 223.3 404.989 223.5 404.889 223.7C404.689 223.9 404.489 223.9 404.289 223.9H401.889C401.689 223.9 401.589 224 401.389 224.1C401.289 224.2 401.189 224.4 401.089 224.5C401.089 224.7 401.089 224.8 401.189 225C401.289 225.2 401.389 225.3 401.589 225.3L403.989 226.3C404.489 226.5 404.889 226.8 405.189 227.3C405.489 227.8 405.589 228.3 405.489 228.8C405.389 229.3 405.189 229.8 404.789 230.2C404.489 230.6 403.989 230.9 403.489 231Z" fill="#737A96"/><path d="M280.389 34.5999C281.589 35.7999 282.489 37.6999 281.989 38.8999C280.489 41.9999 269.589 47.3999 268.689 46.4999C267.789 45.5999 273.089 34.4999 276.189 32.9999C277.289 32.3999 279.189 33.3999 280.389 34.5999Z" fill="#FF8200"/><path d="M286.089 33.3C285.889 32.6 285.389 31.9 284.689 31.8C283.389 31.6 281.289 34 281.389 34.6C281.589 35.2 284.489 36.2 285.589 35.4C286.289 34.9 286.289 34 286.089 33.3ZM281.989 26.7C282.989 27 283.989 27.7 284.089 28.7C284.289 30.6 280.989 33.6 280.189 33.3C279.389 33.1 277.989 28.9 279.189 27.3C279.789 26.5 280.989 26.4 281.989 26.7Z" fill="#43B02A"/><path d="M311.589 37.7L310.589 37.5C309.689 37.4 309.089 37.1 309.089 36.5C309.089 35.9 309.789 35.5 310.889 35.5C311.589 35.5 312.189 35.8 312.789 36.1L312.889 36.2C312.989 36.3 313.189 36.3 313.289 36.3C313.589 36.3 313.989 36.1 314.089 35.8L314.189 35.7C314.289 35.5 314.389 35.2 314.289 34.9C314.189 34.6 314.089 34.4 313.789 34.3C312.989 33.9 312.089 33.5 310.889 33.5C308.389 33.5 306.789 34.7 306.789 36.7C306.789 38.3 307.889 39.3 310.089 39.6L311.089 39.7C312.089 39.8 312.689 40.2 312.689 40.7C312.689 41.2 312.489 41.8 310.789 41.8C309.889 41.8 308.989 41.6 308.289 41.1C308.189 41 307.989 41 307.789 41C307.489 41 307.189 41.2 306.989 41.5L306.889 41.6C306.789 41.8 306.689 42.1 306.789 42.4C306.889 42.7 306.989 42.9 307.289 43C308.589 43.7 310.089 44 310.889 44C313.489 44 315.089 42.8 315.089 40.8C314.989 38.9 313.789 38 311.589 37.7Z" fill="#43B02A"/><path d="M341.889 41.2C341.689 41 341.389 40.9 341.189 40.9C340.989 40.9 340.789 41 340.689 41.1C340.189 41.4 339.589 41.6 338.989 41.6C337.389 41.6 336.289 40.3 336.289 38.6C336.289 36.9 337.389 35.6 338.989 35.6C339.589 35.6 340.089 35.8 340.589 36.1C340.989 36.4 341.589 36.3 341.889 35.9L341.989 35.8C342.189 35.6 342.289 35.2 342.289 34.9C342.289 34.6 342.089 34.3 341.789 34.1C340.989 33.6 340.089 33.3 338.989 33.3C335.989 33.3 333.889 35.4 333.889 38.5C333.889 41.5 335.989 43.7 338.989 43.7C339.989 43.7 340.989 43.4 341.789 42.9C342.089 42.7 342.189 42.4 342.289 42.1C342.289 41.9 342.189 41.6 341.889 41.2Z" fill="#43B02A"/><path d="M293.189 29.8999C292.389 29.8999 291.789 30.4999 291.789 31.2999C291.789 32.0999 292.389 32.6999 293.189 32.6999C293.989 32.6999 294.589 32.0999 294.589 31.2999C294.589 30.4999 293.989 29.8999 293.189 29.8999Z" fill="#43B02A"/><path d="M293.589 33.5H292.789C292.389 33.5 292.089 33.8 292.089 34.2V42.7C292.089 43.1 292.389 43.4 292.789 43.4H293.589C293.989 43.4 294.289 43.1 294.289 42.7V34.2C294.389 33.8 293.989 33.5 293.589 33.5Z" fill="#43B02A"/><path d="M320.689 41.5001C319.789 41.5001 318.689 40.8001 318.689 39.5001V35.6001H320.689C321.089 35.6001 321.389 35.3001 321.389 34.9001V34.2001C321.389 33.8001 321.089 33.5001 320.689 33.5001H318.689V31.3001C318.689 30.9001 318.389 30.6001 317.989 30.6001H317.089C316.689 30.6001 316.389 30.9001 316.389 31.3001V39.4001C316.389 41.7001 318.089 43.8001 320.589 43.8001C320.789 43.8001 321.089 43.7001 321.189 43.5001C321.389 43.3001 321.489 43.1001 321.489 42.9001V42.3001C321.389 41.9001 321.089 41.5001 320.689 41.5001Z" fill="#43B02A"/><path d="M300.689 33.3999C297.789 33.3999 296.089 35.7999 296.089 37.7999V42.7999C296.089 43.1999 296.389 43.4999 296.789 43.4999H297.589C297.989 43.4999 298.289 43.1999 298.289 42.7999V38.1999C298.289 36.6999 299.189 35.5999 300.589 35.5999C301.989 35.5999 302.889 36.5999 302.889 38.1999V42.7999C302.889 43.1999 303.189 43.4999 303.589 43.4999H304.389C304.789 43.4999 305.089 43.1999 305.089 42.7999V37.7999C305.289 35.7999 303.589 33.3999 300.689 33.3999Z" fill="#43B02A"/><path d="M360.889 33.4999C360.589 33.3999 359.789 33.3999 359.389 33.3999H359.289C356.989 33.3999 354.889 35.2999 354.889 37.8999V42.7999C354.889 43.1999 355.189 43.4999 355.589 43.4999H356.389C356.789 43.4999 357.089 43.1999 357.089 42.7999V37.9999C357.089 36.5999 358.089 35.6999 359.289 35.6999C359.489 35.6999 359.789 35.6999 359.989 35.7999C360.089 35.7999 360.089 35.7999 360.189 35.7999C360.689 35.7999 361.089 35.4999 361.189 34.9999C361.289 34.6999 361.289 34.5999 361.289 34.3999C361.289 34.1999 361.289 33.9999 361.189 33.8999C361.189 33.6999 361.089 33.5999 360.889 33.4999Z" fill="#43B02A"/><path d="M366.989 35.7C367.389 35.7 367.689 35.4 367.689 35V34.3C367.689 33.9 367.389 33.6 366.989 33.6H364.989V31.4C364.989 31 364.689 30.7 364.289 30.7H363.389C362.989 30.7 362.689 31 362.689 31.4V39.5C362.689 41.8 364.389 43.9 366.889 43.9C367.089 43.9 367.389 43.8 367.489 43.6C367.689 43.4 367.789 43.2 367.789 43V42.4C367.789 42 367.489 41.7 367.089 41.7C366.189 41.7 365.089 41 365.089 39.7V35.8H366.989V35.7Z" fill="#43B02A"/><path d="M351.089 34.1999C350.289 33.6999 349.389 33.3999 348.289 33.3999C348.289 33.3999 348.289 33.3999 348.189 33.3999C348.089 33.3999 348.189 33.3999 348.089 33.3999C347.089 33.3999 346.089 33.6999 345.289 34.1999C343.889 35.0999 343.089 36.5999 343.089 38.5999C343.089 40.5999 343.989 42.1999 345.489 43.0999C346.189 43.4999 346.989 43.7999 347.889 43.7999C349.489 43.7999 350.489 42.8999 350.789 42.3999V42.7999C350.789 43.1999 351.089 43.4999 351.489 43.4999H352.289C352.689 43.4999 352.989 43.1999 352.989 42.7999V38.5999C353.289 36.6999 352.489 35.0999 351.089 34.1999ZM349.189 41.3999C348.889 41.4999 348.689 41.4999 348.389 41.5999C348.389 41.5999 348.389 41.5999 348.289 41.5999C348.289 41.5999 348.289 41.5999 348.189 41.5999C348.189 41.5999 348.189 41.5999 348.089 41.5999C347.789 41.5999 347.589 41.4999 347.289 41.3999C346.189 40.9999 345.489 39.8999 345.489 38.5999C345.489 36.9999 346.489 35.7999 347.889 35.5999H347.989C347.989 35.5999 347.989 35.5999 348.089 35.5999H348.189H348.289C348.289 35.5999 348.289 35.5999 348.389 35.5999H348.489C349.889 35.6999 350.889 36.8999 350.889 38.5999C350.989 39.9999 350.289 40.9999 349.189 41.3999Z" fill="#43B02A"/><path d="M330.289 34.1999C329.489 33.6999 328.589 33.3999 327.489 33.3999C327.489 33.3999 327.489 33.3999 327.389 33.3999C327.289 33.3999 327.389 33.3999 327.289 33.3999C326.289 33.3999 325.289 33.6999 324.489 34.1999C323.089 35.0999 322.289 36.5999 322.289 38.5999C322.289 40.5999 323.189 42.1999 324.689 43.0999C325.389 43.4999 326.189 43.7999 327.089 43.7999C328.689 43.7999 329.689 42.8999 329.989 42.3999V42.7999C329.989 43.1999 330.289 43.4999 330.689 43.4999H331.489C331.889 43.4999 332.189 43.1999 332.189 42.7999V38.5999C332.489 36.6999 331.689 35.0999 330.289 34.1999ZM328.389 41.3999C328.089 41.4999 327.889 41.4999 327.589 41.5999C327.589 41.5999 327.589 41.5999 327.489 41.5999C327.489 41.5999 327.489 41.5999 327.389 41.5999C327.389 41.5999 327.389 41.5999 327.289 41.5999C326.989 41.5999 326.789 41.4999 326.489 41.3999C325.389 40.9999 324.689 39.8999 324.689 38.5999C324.689 36.9999 325.689 35.7999 327.089 35.5999H327.189C327.189 35.5999 327.189 35.5999 327.289 35.5999H327.389H327.489C327.489 35.5999 327.489 35.5999 327.589 35.5999H327.689C329.089 35.6999 330.089 36.8999 330.089 38.5999C330.189 39.9999 329.489 40.9999 328.389 41.3999Z" fill="#43B02A"/><path opacity="0.48" d="M719.489 184.6H646.489C565.689 184.6 541.189 252.6 465.889 252.6H423.489" stroke="url(#paint1_linear)" stroke-width="16"/><path opacity="0.48" d="M719.489 184.6H646.489C565.689 184.6 541.189 116.6 465.889 116.6H423.489" stroke="url(#paint2_linear)" stroke-width="16"/><path opacity="0.48" d="M719.489 184.6H792.489C873.289 184.6 897.789 40.6001 973.089 40.6001H1015.49" stroke="url(#paint3_linear)" stroke-width="16"/><path opacity="0.48" d="M719.489 184.6H792.489C873.289 184.6 897.789 328.6 973.089 328.6H1015.49" stroke="url(#paint4_linear)" stroke-width="16"/><path opacity="0.48" d="M719.489 184.6H792.489C873.289 184.6 897.789 184.6 973.089 184.6H1015.49" stroke="url(#paint5_linear)" stroke-width="16"/><path d="M719.489 184.6H646.489C565.689 184.6 541.189 252.6 465.889 252.6H423.489" stroke="white" stroke-width="2" stroke-miterlimit="10" stroke-linecap="round" stroke-linejoin="round" stroke-dasharray="1 6"/><path d="M719.489 184.6H646.489C565.689 184.6 541.189 116.6 465.889 116.6H423.489" stroke="white" stroke-width="2" stroke-miterlimit="10" stroke-linecap="round" stroke-linejoin="round" stroke-dasharray="1 6"/><path d="M719.489 183.6H792.489C873.289 183.6 897.789 39.6001 973.089 39.6001H1015.49" stroke="white" stroke-width="2" stroke-miterlimit="10" stroke-linecap="round" stroke-linejoin="round" stroke-dasharray="1 6"/><path d="M719.489 184.6H792.489C873.289 184.6 897.789 328.6 973.089 328.6H1015.49" stroke="white" stroke-width="2" stroke-miterlimit="10" stroke-linecap="round" stroke-linejoin="round" stroke-dasharray="1 6"/><path d="M719.489 184.6H792.489C873.289 184.6 897.789 184.6 973.089 184.6H1015.49" stroke="white" stroke-width="2" stroke-miterlimit="10" stroke-linecap="round" stroke-linejoin="round" stroke-dasharray="1 6"/><path opacity="0.64" d="M675.489 176.6H659.489V192.6H675.489V176.6Z" fill="url(#paint6_linear)"/><path opacity="0.64" d="M779.489 176.6H763.489V192.6H779.489V176.6Z" fill="url(#paint7_linear)"/><path d="M465.489 120.6C467.698 120.6 469.489 118.809 469.489 116.6C469.489 114.391 467.698 112.6 465.489 112.6C463.28 112.6 461.489 114.391 461.489 116.6C461.489 118.809 463.28 120.6 465.489 120.6Z" fill="white"/><path d="M857.914 151C860.123 151 861.914 149.209 861.914 147C861.914 144.791 860.123 143 857.914 143C855.705 143 853.914 144.791 853.914 147C853.914 149.209 855.705 151 857.914 151Z" fill="white"/><path d="M965.789 188.6C967.998 188.6 969.789 186.809 969.789 184.6C969.789 182.391 967.998 180.6 965.789 180.6C963.58 180.6 961.789 182.391 961.789 184.6C961.789 186.809 963.58 188.6 965.789 188.6Z" fill="white"/><path d="M922.914 309C925.123 309 926.914 307.209 926.914 305C926.914 302.791 925.123 301 922.914 301C920.705 301 918.914 302.791 918.914 305C918.914 307.209 920.705 309 922.914 309Z" fill="white"/><path d="M566.914 214C569.123 214 570.914 212.209 570.914 210C570.914 207.791 569.123 206 566.914 206C564.705 206 562.914 207.791 562.914 210C562.914 212.209 564.705 214 566.914 214Z" fill="white"/><g opacity="0.2"><path opacity="0.2" d="M718.489 273.5C767.587 273.5 807.389 233.698 807.389 184.6C807.389 135.502 767.587 95.7 718.489 95.7C669.391 95.7 629.589 135.502 629.589 184.6C629.589 233.698 669.391 273.5 718.489 273.5Z" fill="url(#paint8_radial)"/></g><path d="M718.489 256.6C758.254 256.6 790.489 224.365 790.489 184.6C790.489 144.836 758.254 112.6 718.489 112.6C678.725 112.6 646.489 144.836 646.489 184.6C646.489 224.365 678.725 256.6 718.489 256.6Z" fill="#52BD95"/><path d="M683.789 176.7C683.689 176.5 683.589 176.4 683.589 176.2C683.589 176 683.589 175.8 683.589 175.7C685.589 168.2 689.889 161.5 696.089 156.6C700.889 152.8 706.689 150.2 712.789 149.2C718.889 148.2 725.289 148.6 731.089 150.7C731.289 150.8 731.389 150.9 731.589 151C731.689 151.1 731.789 151.3 731.889 151.4C731.989 151.7 731.989 152.1 731.889 152.5L730.089 157.1C729.989 157.4 729.689 157.7 729.389 157.9C729.089 158.1 728.689 158.1 728.389 158C723.789 156.4 718.789 156.1 713.989 156.9C709.189 157.7 704.689 159.8 700.889 162.8C696.089 166.7 692.689 171.9 691.189 177.7C691.089 178 690.989 178.2 690.689 178.4C690.489 178.6 690.189 178.7 689.889 178.7H689.589L684.689 177.6C684.489 177.6 684.289 177.5 684.189 177.4C683.989 177 683.889 176.8 683.789 176.7Z" fill="white"/><path d="M755.189 188.2C755.089 188.1 754.889 187.9 754.789 187.9C754.589 187.8 754.489 187.8 754.289 187.7L749.289 187.2C748.889 187.2 748.589 187.3 748.289 187.5C747.989 187.7 747.789 188 747.789 188.4C746.889 195 743.589 201.1 738.489 205.6C734.589 209.1 729.689 211.5 724.489 212.5C719.289 213.5 713.789 213 708.889 211.1C708.689 211 708.589 211 708.389 211C708.189 211 707.989 211 707.889 211.1C707.689 211.2 707.589 211.3 707.489 211.4C707.389 211.5 707.289 211.7 707.189 211.8L705.189 216.4C705.089 216.6 705.089 216.7 705.089 216.9C705.089 217.1 705.089 217.3 705.189 217.4C705.289 217.6 705.389 217.7 705.489 217.8C705.589 217.9 705.789 218 705.989 218.1C710.189 219.7 714.689 220.5 719.189 220.5C728.289 220.5 737.089 217.2 743.789 211.2C750.289 205.4 754.389 197.6 755.489 189.2C755.489 189 755.489 188.8 755.489 188.7C755.389 188.5 755.289 188.3 755.189 188.2Z" fill="white"/><path d="M727.389 194.9V189.9C727.389 189.5 727.289 189.2 726.989 188.9C726.689 188.6 726.389 188.5 725.989 188.5H684.789C684.389 188.5 684.089 188.7 683.789 188.9C683.489 189.2 683.389 189.5 683.389 189.9V194.9C683.389 195.1 683.389 195.3 683.489 195.4C683.589 195.6 683.689 195.7 683.789 195.8C683.889 195.9 684.089 196 684.289 196.1C684.489 196.2 684.689 196.2 684.789 196.2H725.889C726.089 196.2 726.289 196.2 726.389 196.1C726.589 196 726.689 195.9 726.889 195.8C726.989 195.7 727.089 195.5 727.189 195.4C727.389 195.2 727.389 195.1 727.389 194.9Z" fill="white"/><path d="M711.589 171.8V176.8C711.589 177.2 711.689 177.5 711.989 177.8C712.289 178.1 712.589 178.2 712.989 178.2H754.189C754.389 178.2 754.589 178.2 754.689 178.1C754.889 178 754.989 177.9 755.189 177.8C755.289 177.7 755.389 177.5 755.489 177.4C755.589 177.2 755.589 177.1 755.589 176.9V171.9C755.589 171.6 755.389 171.2 755.189 171C754.889 170.8 754.589 170.6 754.189 170.6H712.989C712.589 170.6 712.289 170.8 711.989 171C711.689 171.2 711.589 171.5 711.589 171.8Z" fill="white"/><path d="M741.689 155.3C740.889 155.3 739.989 155.5 739.289 155.9C738.589 156.3 737.989 157 737.689 157.7C737.389 158.4 737.289 159.3 737.389 160.1C737.589 160.9 737.889 161.6 738.489 162.2C739.089 162.8 739.789 163.2 740.589 163.4C741.389 163.6 742.289 163.5 742.989 163.2C743.789 162.9 744.389 162.4 744.889 161.7C745.389 161 745.589 160.3 745.689 159.4C745.689 159.4 745.689 159.4 745.689 159.3C745.689 158.2 745.289 157.2 744.489 156.4C743.789 155.8 742.789 155.3 741.689 155.3Z" fill="white"/><path d="M695.889 204.6C695.089 204.6 694.189 204.8 693.489 205.2C692.789 205.6 692.189 206.3 691.889 207C691.589 207.7 691.489 208.6 691.589 209.4C691.689 210.2 692.089 210.9 692.689 211.5C693.289 212.1 693.989 212.5 694.789 212.7C695.589 212.9 696.489 212.8 697.189 212.5C697.989 212.2 698.589 211.7 699.089 211C699.589 210.3 699.789 209.6 699.889 208.7V208.6C699.889 207.5 699.489 206.5 698.689 205.7C697.989 205.1 696.989 204.6 695.889 204.6Z" fill="white"/><mask id="mask0" mask-type="alpha" maskUnits="userSpaceOnUse" x="226" y="306" width="185" height="63"><path opacity="0.48" d="M226.589 310.8C226.589 308.6 228.389 306.8 230.589 306.8H406.389C408.589 306.8 410.389 308.6 410.389 310.8V364.6C410.389 366.8 408.589 368.6 406.389 368.6H230.589C228.389 368.6 226.589 366.8 226.589 364.6V310.8Z" fill="#E2E3F4"/></mask><g mask="url(#mask0)"><path d="M344.689 366.9C344.889 365.8 344.689 364.7 344.089 363.8C343.489 362.9 342.489 362.3 341.489 362.1L332.689 360.5C332.589 360.5 332.489 360.5 332.489 360.5C332.389 360.5 332.389 360.6 332.289 360.6C332.189 360.7 332.189 360.7 332.189 360.8C332.189 360.9 332.089 361 332.089 361V364.3C332.089 364.4 332.089 364.6 332.189 364.7C332.289 364.8 332.389 364.9 332.489 364.9L339.289 366.2C339.589 366.3 339.789 366.4 339.989 366.7C340.189 366.9 340.189 367.2 340.189 367.5L335.389 393.3C335.289 393.6 335.189 393.8 334.889 394C334.689 394.2 334.389 394.2 334.089 394.2L308.489 389.4C308.189 389.3 307.989 389.2 307.789 388.9C307.589 388.7 307.589 388.4 307.589 388.1L307.789 386.9C307.789 386.8 307.789 386.7 307.789 386.7C307.789 386.6 307.689 386.5 307.689 386.5C307.589 386.4 307.589 386.4 307.489 386.4C307.389 386.4 307.289 386.3 307.289 386.3H303.989C303.889 386.3 303.789 386.3 303.689 386.4C303.589 386.5 303.489 386.6 303.489 386.7L303.089 388.7C302.889 389.8 303.089 390.9 303.689 391.8C304.289 392.7 305.289 393.3 306.289 393.5L334.589 398.8C334.789 398.8 335.089 398.9 335.389 398.9C336.389 398.9 337.289 398.6 337.989 397.9C338.689 397.3 339.189 396.4 339.389 395.5L344.689 366.9Z" fill="#E2E3F4"/><path d="M325.189 383.5C326.289 383.5 327.289 383.1 328.089 382.3C328.889 381.5 329.289 380.5 329.289 379.4V350.4C329.289 349.3 328.889 348.3 328.089 347.5C327.289 346.7 326.289 346.3 325.189 346.3H296.389C295.289 346.3 294.289 346.7 293.489 347.5C292.689 348.3 292.289 349.3 292.289 350.4V379.4C292.289 380.5 292.689 381.5 293.489 382.3C294.289 383.1 295.289 383.5 296.389 383.5H325.189ZM323.789 350.6C324.089 350.6 324.389 350.7 324.589 350.9C324.789 351.1 324.889 351.4 324.889 351.7V373.5C324.889 373.6 324.889 373.6 324.889 373.7C324.889 373.8 324.789 373.8 324.789 373.9C324.689 374 324.689 374 324.589 374C324.489 374 324.489 374 324.389 374H297.189C297.089 374 296.889 373.9 296.789 373.8C296.689 373.7 296.589 373.6 296.589 373.4V351.6C296.589 351.3 296.689 351 296.889 350.8C297.089 350.6 297.389 350.5 297.689 350.5L323.789 350.6Z" fill="#E2E3F4"/></g><defs><linearGradient id="paint0_linear" x1="213.489" y1="184.599" x2="181.489" y2="184.599" gradientUnits="userSpaceOnUse"><stop stop-color="#212844"/><stop offset="1" stop-color="#212844" stop-opacity="0"/></linearGradient><linearGradient id="paint1_linear" x1="719.489" y1="218.599" x2="423.489" y2="218.599" gradientUnits="userSpaceOnUse"><stop stop-color="#52BD95"/><stop offset="1" stop-color="#BEBED2"/></linearGradient><linearGradient id="paint2_linear" x1="719.489" y1="150.599" x2="423.489" y2="150.599" gradientUnits="userSpaceOnUse"><stop stop-color="#52BD95"/><stop offset="1" stop-color="#BEBED2"/></linearGradient><linearGradient id="paint3_linear" x1="719.489" y1="112.599" x2="1015.49" y2="112.599" gradientUnits="userSpaceOnUse"><stop stop-color="#52BD95"/><stop offset="1" stop-color="#8071E1"/></linearGradient><linearGradient id="paint4_linear" x1="719.489" y1="256.599" x2="1015.49" y2="256.599" gradientUnits="userSpaceOnUse"><stop stop-color="#3C8A6D"/><stop offset="1" stop-color="#52BD95"/></linearGradient><linearGradient id="paint5_linear" x1="-nan" y1="-nan" x2="-nan" y2="-nan" gradientUnits="userSpaceOnUse"><stop stop-color="#52BD95"/><stop offset="1" stop-color="#32ACC0"/></linearGradient><linearGradient id="paint6_linear" x1="675.489" y1="184.599" x2="659.489" y2="184.599" gradientUnits="userSpaceOnUse"><stop stop-color="#4FB290"/><stop offset="1" stop-color="#4FB591" stop-opacity="0"/></linearGradient><linearGradient id="paint7_linear" x1="763.489" y1="184.599" x2="779.489" y2="184.599" gradientUnits="userSpaceOnUse"><stop stop-color="#51B792"/><stop offset="1" stop-color="#4FB591" stop-opacity="0"/></linearGradient><radialGradient id="paint8_radial" cx="0" cy="0" r="1" gradientUnits="userSpaceOnUse" gradientTransform="translate(718.489 184.599) scale(88.9)"><stop offset="0.3108" stop-color="#225A50"/><stop offset="0.5402" stop-color="#1C564C" stop-opacity="0.6673"/><stop offset="0.8428" stop-color="#0C493F" stop-opacity="0.2281"/><stop offset="1" stop-color="#004136" stop-opacity="0"/></radialGradient></defs></svg>