<svg xmlns="http://www.w3.org/2000/svg" xmlns:xlink="http://www.w3.org/1999/xlink" viewBox="0 0 759 343" version="1.1"><!-- Generator: Sketch 60.1 (88133) - https://sketch.com --><title>home-hero-deployments</title><desc>Created with Sketch.</desc><defs><rect id="path-1" x="2.27373675e-13" y="-2.84217094e-14" width="679.853369" height="372.588679" rx="10.8"/><filter x="-9.6%" y="-14.8%" width="119.1%" height="134.9%" filterUnits="objectBoundingBox" id="filter-2"><feOffset dx="0" dy="10" in="SourceAlpha" result="shadowOffsetOuter1"/><feGaussianBlur stdDeviation="20" in="shadowOffsetOuter1" result="shadowBlurOuter1"/><feColorMatrix values="0 0 0 0 0.25869511   0 0 0 0 0.461476445   0 0 0 0 0.570764243  0 0 0 0.100486866 0" type="matrix" in="shadowBlurOuter1" result="shadowMatrixOuter1"/><feOffset dx="0" dy="2" in="SourceAlpha" result="shadowOffsetOuter2"/><feGaussianBlur stdDeviation="2" in="shadowOffsetOuter2" result="shadowBlurOuter2"/><feColorMatrix values="0 0 0 0 0.25869511   0 0 0 0 0.461476445   0 0 0 0 0.570764243  0 0 0 0.0998358243 0" type="matrix" in="shadowBlurOuter2" result="shadowMatrixOuter2"/><feMerge><feMergeNode in="shadowMatrixOuter1"/><feMergeNode in="shadowMatrixOuter2"/></feMerge></filter><rect id="path-3" x="0" y="-2.13162821e-13" width="679.853369" height="63.509434"/><filter x="-0.1%" y="-0.8%" width="100.1%" height="101.6%" filterUnits="objectBoundingBox" id="filter-4"><feOffset dx="0" dy="1" in="SourceAlpha" result="shadowOffsetInner1"/><feComposite in="shadowOffsetInner1" in2="SourceAlpha" operator="arithmetic" k2="-1" k3="1" result="shadowInnerInner1"/><feColorMatrix values="0 0 0 0 0.858823529   0 0 0 0 0.910080989   0 0 0 0 0.984313725  0 0 0 1 0" type="matrix" in="shadowInnerInner1"/></filter><rect id="path-5" x="0" y="1.84741111e-13" width="679.853369" height="63.509434"/><filter x="-0.1%" y="-0.8%" width="100.1%" height="101.6%" filterUnits="objectBoundingBox" id="filter-6"><feOffset dx="0" dy="1" in="SourceAlpha" result="shadowOffsetInner1"/><feComposite in="shadowOffsetInner1" in2="SourceAlpha" operator="arithmetic" k2="-1" k3="1" result="shadowInnerInner1"/><feColorMatrix values="0 0 0 0 0.858823529   0 0 0 0 0.910080989   0 0 0 0 0.984313725  0 0 0 1 0" type="matrix" in="shadowInnerInner1"/></filter><rect id="path-7" x="0" y="-1.13686838e-13" width="679.853369" height="63.509434"/><filter x="-0.1%" y="-0.8%" width="100.1%" height="101.6%" filterUnits="objectBoundingBox" id="filter-8"><feOffset dx="0" dy="1" in="SourceAlpha" result="shadowOffsetInner1"/><feComposite in="shadowOffsetInner1" in2="SourceAlpha" operator="arithmetic" k2="-1" k3="1" result="shadowInnerInner1"/><feColorMatrix values="0 0 0 0 0.858823529   0 0 0 0 0.910080989   0 0 0 0 0.984313725  0 0 0 1 0" type="matrix" in="shadowInnerInner1"/></filter><rect id="path-9" x="0" y="-1.13686838e-13" width="679.853369" height="63.509434"/><filter x="-0.1%" y="-0.8%" width="100.1%" height="101.6%" filterUnits="objectBoundingBox" id="filter-10"><feOffset dx="0" dy="1" in="SourceAlpha" result="shadowOffsetInner1"/><feComposite in="shadowOffsetInner1" in2="SourceAlpha" operator="arithmetic" k2="-1" k3="1" result="shadowInnerInner1"/><feColorMatrix values="0 0 0 0 0.858823529   0 0 0 0 0.910080989   0 0 0 0 0.984313725  0 0 0 1 0" type="matrix" in="shadowInnerInner1"/></filter><rect id="path-11" x="0" y="2.84217094e-14" width="679.853369" height="63.509434"/><filter x="-0.1%" y="-0.8%" width="100.1%" height="101.6%" filterUnits="objectBoundingBox" id="filter-12"><feOffset dx="0" dy="1" in="SourceAlpha" result="shadowOffsetInner1"/><feComposite in="shadowOffsetInner1" in2="SourceAlpha" operator="arithmetic" k2="-1" k3="1" result="shadowInnerInner1"/><feColorMatrix values="0 0 0 0 0.858823529   0 0 0 0 0.910080989   0 0 0 0 0.984313725  0 0 0 1 0" type="matrix" in="shadowInnerInner1"/></filter></defs><g id="Home-Revamp" stroke="none" stroke-width="1" fill="none" fill-rule="evenodd"><g id="1---homepage-copy" transform="translate(-830.000000, -257.000000)"><g id="Hero"><g id="home-hero-deployments" transform="translate(870.000000, 287.000000)"><g id="Rectangle"><use fill="black" fill-opacity="1" filter="url(#filter-2)" xlink:href="#path-1"/><use fill="#FFFFFF" fill-rule="evenodd" xlink:href="#path-1"/></g><g id="Group-Copy" transform="translate(0.000000, 22.379515)"><g id="History-/-Record-/-Default-Copy-6" transform="translate(26.613477, 0.000000)"><g id="History-Item"><rect id="Rectangle" fill="#DBE8FB" x="132.160108" y="3.93153639" width="187.201617" height="12.097035" rx="6.04851752"/><g id="Group-9" transform="translate(79.538005, 6.804582)" fill="#FF943C"><circle id="Oval" opacity="0.781017485" cx="2.26819407" cy="3.1754717" r="2.26819407"/><circle id="Oval-Copy-3" cx="10.4336927" cy="3.1754717" r="3.1754717"/><circle id="Oval-Copy-4" opacity="0.781017485" cx="18.5991914" cy="3.1754717" r="2.26819407"/></g><g id="label/success-copy-2" transform="translate(0.600000, 0.907278)"><g id="label/success"><rect id="Rectangle-20" stroke="#FF943C" stroke-width="0.9" x="0" y="0" width="69.8609255" height="18.1455526" rx="9"/><path d="M16.8719627,12.3218329 C17.9099627,12.3218329 18.7154627,12.0443329 19.2884627,11.4893329 C19.8614627,10.9343329 20.1479627,10.1528329 20.1479627,9.14483288 C20.1479627,8.14283288 19.8614627,7.36433288 19.2884627,6.80933288 C18.7154627,6.25433288 17.9099627,5.97683288 16.8719627,5.97683288 L16.8719627,5.97683288 L15.0899627,5.97683288 C14.9159627,5.97683288 14.7794627,6.02483288 14.6804627,6.12083288 C14.5814627,6.21683288 14.5319627,6.35183288 14.5319627,6.52583288 L14.5319627,6.52583288 L14.5319627,11.7728329 C14.5319627,11.9468329 14.5814627,12.0818329 14.6804627,12.1778329 C14.7794627,12.2738329 14.9159627,12.3218329 15.0899627,12.3218329 L15.0899627,12.3218329 L16.8719627,12.3218329 Z M16.7999627,11.3768329 L15.6929627,11.3768329 L15.6929627,6.92183288 L16.7999627,6.92183288 C18.2579627,6.92183288 18.9869627,7.66283288 18.9869627,9.14483288 C18.9869627,10.6328329 18.2579627,11.3768329 16.7999627,11.3768329 L16.7999627,11.3768329 Z M23.2799627,12.3938329 C23.5139627,12.3938329 23.7599627,12.3593329 24.0179627,12.2903329 C24.2759627,12.2213329 24.5069627,12.1298329 24.7109627,12.0158329 C24.9329627,11.8898329 25.0439627,11.7338329 25.0439627,11.5478329 C25.0439627,11.4158329 25.0124627,11.3108329 24.9494627,11.2328329 C24.8864627,11.1548329 24.8039627,11.1158329 24.7019627,11.1158329 C24.6179627,11.1158329 24.4859627,11.1638329 24.3059627,11.2598329 C24.1199627,11.3438329 23.9534627,11.4098329 23.8064627,11.4578329 C23.6594627,11.5058329 23.4899627,11.5298329 23.2979627,11.5298329 C22.9199627,11.5298329 22.6319627,11.4323329 22.4339627,11.2373329 C22.2359627,11.0423329 22.1189627,10.7378329 22.0829627,10.3238329 L22.0829627,10.3238329 L24.7379627,10.3238329 C24.9659627,10.3238329 25.0799627,10.1948329 25.0799627,9.93683288 C25.0799627,9.50483288 24.9989627,9.12983288 24.8369627,8.81183288 C24.6749627,8.49383288 24.4469627,8.24783288 24.1529627,8.07383288 C23.8589627,7.89983288 23.5139627,7.81283288 23.1179627,7.81283288 C22.7039627,7.81283288 22.3334627,7.90883288 22.0064627,8.10083288 C21.6794627,8.29283288 21.4259627,8.56283288 21.2459627,8.91083288 C21.0659627,9.25883288 20.9759627,9.65783288 20.9759627,10.1078329 C20.9759627,10.8158329 21.1829627,11.3738329 21.5969627,11.7818329 C22.0109627,12.1898329 22.5719627,12.3938329 23.2799627,12.3938329 Z M24.1169627,9.72083288 L22.0829627,9.72083288 C22.1189627,9.36083288 22.2284627,9.08483288 22.4114627,8.89283288 C22.5944627,8.70083288 22.8389627,8.60483288 23.1449627,8.60483288 C23.4449627,8.60483288 23.6789627,8.69933288 23.8469627,8.88833288 C24.0149627,9.07733288 24.1049627,9.35483288 24.1169627,9.72083288 L24.1169627,9.72083288 Z M26.5649627,13.9868329 C26.7329627,13.9868329 26.8679627,13.9418329 26.9699627,13.8518329 C27.0719627,13.7618329 27.1229627,13.6388329 27.1229627,13.4828329 L27.1229627,13.4828329 L27.1229627,11.6468329 C27.2549627,11.8808329 27.4439627,12.0638329 27.6899627,12.1958329 C27.9359627,12.3278329 28.2149627,12.3938329 28.5269627,12.3938329 C28.9109627,12.3938329 29.2499627,12.3008329 29.5439627,12.1148329 C29.8379627,11.9288329 30.0674627,11.6648329 30.2324627,11.3228329 C30.3974627,10.9808329 30.4799627,10.5818329 30.4799627,10.1258329 C30.4799627,9.66983288 30.3974627,9.26633288 30.2324627,8.91533288 C30.0674627,8.56433288 29.8364627,8.29283288 29.5394627,8.10083288 C29.2424627,7.90883288 28.9049627,7.81283288 28.5269627,7.81283288 C28.2089627,7.81283288 27.9254627,7.88033288 27.6764627,8.01533288 C27.4274627,8.15033288 27.2369627,8.34083288 27.1049627,8.58683288 L27.1049627,8.58683288 L27.1049627,8.36183288 C27.1049627,8.19983288 27.0539627,8.07083288 26.9519627,7.97483288 C26.8499627,7.87883288 26.7149627,7.83083288 26.5469627,7.83083288 C26.3789627,7.83083288 26.2454627,7.87883288 26.1464627,7.97483288 C26.0474627,8.07083288 25.9979627,8.19983288 25.9979627,8.36183288 L25.9979627,8.36183288 L25.9979627,13.4648329 C25.9979627,13.6208329 26.0504627,13.7468329 26.1554627,13.8428329 C26.2604627,13.9388329 26.3969627,13.9868329 26.5649627,13.9868329 Z M28.2299627,11.5208329 C27.8699627,11.5208329 27.5924627,11.3978329 27.3974627,11.1518329 C27.2024627,10.9058329 27.1049627,10.5578329 27.1049627,10.1078329 C27.1049627,9.65183288 27.2024627,9.30083288 27.3974627,9.05483288 C27.5924627,8.80883288 27.8699627,8.68583288 28.2299627,8.68583288 C28.5839627,8.68583288 28.8599627,8.81183288 29.0579627,9.06383288 C29.2559627,9.31583288 29.3549627,9.66983288 29.3549627,10.1258329 C29.3549627,10.5698329 29.2559627,10.9133329 29.0579627,11.1563329 C28.8599627,11.3993329 28.5839627,11.5208329 28.2299627,11.5208329 Z M31.9649627,12.3758329 C32.1269627,12.3758329 32.2619627,12.3293329 32.3699627,12.2363329 C32.4779627,12.1433329 32.5319627,12.0098329 32.5319627,11.8358329 L32.5319627,11.8358329 L32.5319627,6.46283288 C32.5319627,6.28883288 32.4779627,6.15683288 32.3699627,6.06683288 C32.2619627,5.97683288 32.1269627,5.93183288 31.9649627,5.93183288 C31.8029627,5.93183288 31.6694627,5.97683288 31.5644627,6.06683288 C31.4594627,6.15683288 31.4069627,6.28883288 31.4069627,6.46283288 L31.4069627,6.46283288 L31.4069627,11.8358329 C31.4069627,12.0098329 31.4594627,12.1433329 31.5644627,12.2363329 C31.6694627,12.3293329 31.8029627,12.3758329 31.9649627,12.3758329 Z M35.6999627,12.3938329 C36.1499627,12.3938329 36.5444627,12.3008329 36.8834627,12.1148329 C37.2224627,11.9288329 37.4834627,11.6618329 37.6664627,11.3138329 C37.8494627,10.9658329 37.9409627,10.5608329 37.9409627,10.0988329 C37.9409627,9.63683288 37.8494627,9.23333288 37.6664627,8.88833288 C37.4834627,8.54333288 37.2224627,8.27783288 36.8834627,8.09183288 C36.5444627,7.90583288 36.1499627,7.81283288 35.6999627,7.81283288 C35.2499627,7.81283288 34.8554627,7.90583288 34.5164627,8.09183288 C34.1774627,8.27783288 33.9149627,8.54333288 33.7289627,8.88833288 C33.5429627,9.23333288 33.4499627,9.63683288 33.4499627,10.0988329 C33.4499627,10.5608329 33.5429627,10.9658329 33.7289627,11.3138329 C33.9149627,11.6618329 34.1774627,11.9288329 34.5164627,12.1148329 C34.8554627,12.3008329 35.2499627,12.3938329 35.6999627,12.3938329 Z M35.6909627,11.5208329 C35.3309627,11.5208329 35.0549627,11.4008329 34.8629627,11.1608329 C34.6709627,10.9208329 34.5749627,10.5668329 34.5749627,10.0988329 C34.5749627,9.63683288 34.6724627,9.28433288 34.8674627,9.04133288 C35.0624627,8.79833288 35.3399627,8.67683288 35.6999627,8.67683288 C36.0599627,8.67683288 36.3359627,8.79833288 36.5279627,9.04133288 C36.7199627,9.28433288 36.8159627,9.63683288 36.8159627,10.0988329 C36.8159627,10.5668329 36.7199627,10.9208329 36.5279627,11.1608329 C36.3359627,11.4008329 36.0569627,11.5208329 35.6909627,11.5208329 Z M39.9479627,13.9868329 C40.1639627,13.9868329 40.3229627,13.8848329 40.4249627,13.6808329 L40.4249627,13.6808329 L42.8819627,8.53283288 C42.9179627,8.46083288 42.9359627,8.39183288 42.9359627,8.32583288 C42.9359627,8.18783288 42.8804627,8.07233288 42.7694627,7.97933288 C42.6584627,7.88633288 42.5339627,7.83983288 42.3959627,7.83983288 C42.2999627,7.83983288 42.2114627,7.86533288 42.1304627,7.91633288 C42.0494627,7.96733288 41.9849627,8.04683288 41.9369627,8.15483288 L41.9369627,8.15483288 L40.6859627,10.9268329 L39.4259627,8.14583288 C39.3779627,8.03783288 39.3119627,7.95833288 39.2279627,7.90733288 C39.1439627,7.85633288 39.0509627,7.83083288 38.9489627,7.83083288 C38.7989627,7.83083288 38.6654627,7.87883288 38.5484627,7.97483288 C38.4314627,8.07083288 38.3729627,8.18783288 38.3729627,8.32583288 C38.3729627,8.40383288 38.3879627,8.47283288 38.4179627,8.53283288 L38.4179627,8.53283288 L40.0919627,12.0158329 L39.4799627,13.3028329 C39.4439627,13.3868329 39.4259627,13.4618329 39.4259627,13.5278329 C39.4259627,13.6598329 39.4784627,13.7693329 39.5834627,13.8563329 C39.6884627,13.9433329 39.8099627,13.9868329 39.9479627,13.9868329 Z M44.1599627,7.02983288 C44.3639627,7.02983288 44.5259627,6.97433288 44.6459627,6.86333288 C44.7659627,6.75233288 44.8259627,6.60683288 44.8259627,6.42683288 C44.8259627,6.24683288 44.7644627,6.10283288 44.6414627,5.99483288 C44.5184627,5.88683288 44.3579627,5.83283288 44.1599627,5.83283288 C43.9559627,5.83283288 43.7939627,5.88683288 43.6739627,5.99483288 C43.5539627,6.10283288 43.4939627,6.24683288 43.4939627,6.42683288 C43.4939627,6.60683288 43.5539627,6.75233288 43.6739627,6.86333288 C43.7939627,6.97433288 43.9559627,7.02983288 44.1599627,7.02983288 Z M44.1599627,12.3758329 C44.3219627,12.3758329 44.4569627,12.3293329 44.5649627,12.2363329 C44.6729627,12.1433329 44.7269627,12.0098329 44.7269627,11.8358329 L44.7269627,11.8358329 L44.7269627,8.36183288 C44.7269627,8.18783288 44.6729627,8.05583288 44.5649627,7.96583288 C44.4569627,7.87583288 44.3219627,7.83083288 44.1599627,7.83083288 C43.9979627,7.83083288 43.8644627,7.87583288 43.7594627,7.96583288 C43.6544627,8.05583288 43.6019627,8.18783288 43.6019627,8.36183288 L43.6019627,8.36183288 L43.6019627,11.8358329 C43.6019627,12.0098329 43.6544627,12.1433329 43.7594627,12.2363329 C43.8644627,12.3293329 43.9979627,12.3758329 44.1599627,12.3758329 Z M49.4519627,12.3758329 C49.6259627,12.3758329 49.7624627,12.3278329 49.8614627,12.2318329 C49.9604627,12.1358329 50.0099627,12.0038329 50.0099627,11.8358329 L50.0099627,11.8358329 L50.0099627,9.62183288 C50.0099627,9.01583288 49.8809627,8.56283288 49.6229627,8.26283288 C49.3649627,7.96283288 48.9719627,7.81283288 48.4439627,7.81283288 C48.1259627,7.81283288 47.8409627,7.87883288 47.5889627,8.01083288 C47.3369627,8.14283288 47.1359627,8.33183288 46.9859627,8.57783288 L46.9859627,8.57783288 L46.9859627,8.33483288 C46.9859627,8.18483288 46.9364627,8.06333288 46.8374627,7.97033288 C46.7384627,7.87733288 46.6109627,7.83083288 46.4549627,7.83083288 C46.2809627,7.83083288 46.1429627,7.87883288 46.0409627,7.97483288 C45.9389627,8.07083288 45.8879627,8.19683288 45.8879627,8.35283288 L45.8879627,8.35283288 L45.8879627,11.8358329 C45.8879627,12.0038329 45.9374627,12.1358329 46.0364627,12.2318329 C46.1354627,12.3278329 46.2719627,12.3758329 46.4459627,12.3758329 C46.6199627,12.3758329 46.7579627,12.3278329 46.8599627,12.2318329 C46.9619627,12.1358329 47.0129627,12.0038329 47.0129627,11.8358329 L47.0129627,11.8358329 L47.0129627,9.82883288 C47.0129627,9.48683288 47.1104627,9.21383288 47.3054627,9.00983288 C47.5004627,8.80583288 47.7599627,8.70383288 48.0839627,8.70383288 C48.3599627,8.70383288 48.5624627,8.78183288 48.6914627,8.93783288 C48.8204627,9.09383288 48.8849627,9.34283288 48.8849627,9.68483288 L48.8849627,9.68483288 L48.8849627,11.8358329 C48.8849627,12.0038329 48.9359627,12.1358329 49.0379627,12.2318329 C49.1399627,12.3278329 49.2779627,12.3758329 49.4519627,12.3758329 Z M53.1599627,14.0138329 C53.9099627,14.0138329 54.4769627,13.8368329 54.8609627,13.4828329 C55.2449627,13.1288329 55.4369627,12.6068329 55.4369627,11.9168329 L55.4369627,11.9168329 L55.4369627,8.36183288 C55.4369627,8.19983288 55.3859627,8.07083288 55.2839627,7.97483288 C55.1819627,7.87883288 55.0469627,7.83083288 54.8789627,7.83083288 C54.7109627,7.83083288 54.5759627,7.87883288 54.4739627,7.97483288 C54.3719627,8.07083288 54.3209627,8.19683288 54.3209627,8.35283288 L54.3209627,8.35283288 L54.3209627,8.58683288 C54.1889627,8.34083288 53.9969627,8.15033288 53.7449627,8.01533288 C53.4929627,7.88033288 53.2049627,7.81283288 52.8809627,7.81283288 C52.4969627,7.81283288 52.1549627,7.90433288 51.8549627,8.08733288 C51.5549627,8.27033288 51.3224627,8.52833288 51.1574627,8.86133288 C50.9924627,9.19433288 50.9099627,9.57683288 50.9099627,10.0088329 C50.9099627,10.4408329 50.9939627,10.8218329 51.1619627,11.1518329 C51.3299627,11.4818329 51.5624627,11.7383329 51.8594627,11.9213329 C52.1564627,12.1043329 52.4969627,12.1958329 52.8809627,12.1958329 C53.2049627,12.1958329 53.4929627,12.1283329 53.7449627,11.9933329 C53.9969627,11.8583329 54.1889627,11.6678329 54.3209627,11.4218329 L54.3209627,11.4218329 L54.3209627,11.9978329 C54.3209627,12.7658329 53.9279627,13.1498329 53.1419627,13.1498329 C52.9199627,13.1498329 52.7234627,13.1258329 52.5524627,13.0778329 C52.3814627,13.0298329 52.1879627,12.9608329 51.9719627,12.8708329 C51.8879627,12.8348329 51.8069627,12.8033329 51.7289627,12.7763329 C51.6509627,12.7493329 51.5849627,12.7358329 51.5309627,12.7358329 C51.4289627,12.7358329 51.3464627,12.7748329 51.2834627,12.8528329 C51.2204627,12.9308329 51.1889627,13.0358329 51.1889627,13.1678329 C51.1889627,13.3538329 51.2999627,13.5128329 51.5219627,13.6448329 C51.9599627,13.8908329 52.5059627,14.0138329 53.1599627,14.0138329 Z M53.1779627,11.3228329 C52.8239627,11.3228329 52.5449627,11.2058329 52.3409627,10.9718329 C52.1369627,10.7378329 52.0349627,10.4168329 52.0349627,10.0088329 C52.0349627,9.59483288 52.1369627,9.27083288 52.3409627,9.03683288 C52.5449627,8.80283288 52.8239627,8.68583288 53.1779627,8.68583288 C53.5379627,8.68583288 53.8184627,8.80283288 54.0194627,9.03683288 C54.2204627,9.27083288 54.3209627,9.59483288 54.3209627,10.0088329 C54.3209627,10.4168329 54.2204627,10.7378329 54.0194627,10.9718329 C53.8184627,11.2058329 53.5379627,11.3228329 53.1779627,11.3228329 Z" id="Deploying" fill="#FF943C" fill-rule="nonzero"/></g></g><g id="icon/breadcrumbs/more-actions-copy" transform="translate(610.900270, 3.629111)" stroke="#DBE8FB" stroke-linecap="round" stroke-linejoin="round" stroke-width="1.8"><polyline id="icon/gray/path-chevron" points="0.378032345 0 7.18261456 6.80458221 0.378032345 13.6091644"/></g></g></g><g id="History-/-Record-/-Default-Copy-9" transform="translate(0.000000, 41.734771)"><g id="History-Item"><g id="Rectangle-12-Copy"><use fill="#FFFFFF" fill-rule="evenodd" xlink:href="#path-3"/><use fill="black" fill-opacity="1" filter="url(#filter-4)" xlink:href="#path-3"/></g><rect id="Rectangle-Copy-5" fill="#DBE8FB" x="158.773585" y="25.7061995" width="187.201617" height="12.097035" rx="6.04851752"/><g id="label/success-copy-2" opacity="0.5" transform="translate(27.000000, 22.681941)"><g id="label/success"><rect id="Rectangle-20" stroke="#98B4CD" stroke-width="0.9" x="0" y="0" width="69.8837264" height="18.1455526" rx="9"/><path d="M18.2873632,12.3218329 C19.3253632,12.3218329 20.1308632,12.0443329 20.7038632,11.4893329 C21.2768632,10.9343329 21.5633632,10.1528329 21.5633632,9.14483288 C21.5633632,8.14283288 21.2768632,7.36433288 20.7038632,6.80933288 C20.1308632,6.25433288 19.3253632,5.97683288 18.2873632,5.97683288 L18.2873632,5.97683288 L16.5053632,5.97683288 C16.3313632,5.97683288 16.1948632,6.02483288 16.0958632,6.12083288 C15.9968632,6.21683288 15.9473632,6.35183288 15.9473632,6.52583288 L15.9473632,6.52583288 L15.9473632,11.7728329 C15.9473632,11.9468329 15.9968632,12.0818329 16.0958632,12.1778329 C16.1948632,12.2738329 16.3313632,12.3218329 16.5053632,12.3218329 L16.5053632,12.3218329 L18.2873632,12.3218329 Z M18.2153632,11.3768329 L17.1083632,11.3768329 L17.1083632,6.92183288 L18.2153632,6.92183288 C19.6733632,6.92183288 20.4023632,7.66283288 20.4023632,9.14483288 C20.4023632,10.6328329 19.6733632,11.3768329 18.2153632,11.3768329 L18.2153632,11.3768329 Z M24.6953632,12.3938329 C24.9293632,12.3938329 25.1753632,12.3593329 25.4333632,12.2903329 C25.6913632,12.2213329 25.9223632,12.1298329 26.1263632,12.0158329 C26.3483632,11.8898329 26.4593632,11.7338329 26.4593632,11.5478329 C26.4593632,11.4158329 26.4278632,11.3108329 26.3648632,11.2328329 C26.3018632,11.1548329 26.2193632,11.1158329 26.1173632,11.1158329 C26.0333632,11.1158329 25.9013632,11.1638329 25.7213632,11.2598329 C25.5353632,11.3438329 25.3688632,11.4098329 25.2218632,11.4578329 C25.0748632,11.5058329 24.9053632,11.5298329 24.7133632,11.5298329 C24.3353632,11.5298329 24.0473632,11.4323329 23.8493632,11.2373329 C23.6513632,11.0423329 23.5343632,10.7378329 23.4983632,10.3238329 L23.4983632,10.3238329 L26.1533632,10.3238329 C26.3813632,10.3238329 26.4953632,10.1948329 26.4953632,9.93683288 C26.4953632,9.50483288 26.4143632,9.12983288 26.2523632,8.81183288 C26.0903632,8.49383288 25.8623632,8.24783288 25.5683632,8.07383288 C25.2743632,7.89983288 24.9293632,7.81283288 24.5333632,7.81283288 C24.1193632,7.81283288 23.7488632,7.90883288 23.4218632,8.10083288 C23.0948632,8.29283288 22.8413632,8.56283288 22.6613632,8.91083288 C22.4813632,9.25883288 22.3913632,9.65783288 22.3913632,10.1078329 C22.3913632,10.8158329 22.5983632,11.3738329 23.0123632,11.7818329 C23.4263632,12.1898329 23.9873632,12.3938329 24.6953632,12.3938329 Z M25.5323632,9.72083288 L23.4983632,9.72083288 C23.5343632,9.36083288 23.6438632,9.08483288 23.8268632,8.89283288 C24.0098632,8.70083288 24.2543632,8.60483288 24.5603632,8.60483288 C24.8603632,8.60483288 25.0943632,8.69933288 25.2623632,8.88833288 C25.4303632,9.07733288 25.5203632,9.35483288 25.5323632,9.72083288 L25.5323632,9.72083288 Z M27.9803632,13.9868329 C28.1483632,13.9868329 28.2833632,13.9418329 28.3853632,13.8518329 C28.4873632,13.7618329 28.5383632,13.6388329 28.5383632,13.4828329 L28.5383632,13.4828329 L28.5383632,11.6468329 C28.6703632,11.8808329 28.8593632,12.0638329 29.1053632,12.1958329 C29.3513632,12.3278329 29.6303632,12.3938329 29.9423632,12.3938329 C30.3263632,12.3938329 30.6653632,12.3008329 30.9593632,12.1148329 C31.2533632,11.9288329 31.4828632,11.6648329 31.6478632,11.3228329 C31.8128632,10.9808329 31.8953632,10.5818329 31.8953632,10.1258329 C31.8953632,9.66983288 31.8128632,9.26633288 31.6478632,8.91533288 C31.4828632,8.56433288 31.2518632,8.29283288 30.9548632,8.10083288 C30.6578632,7.90883288 30.3203632,7.81283288 29.9423632,7.81283288 C29.6243632,7.81283288 29.3408632,7.88033288 29.0918632,8.01533288 C28.8428632,8.15033288 28.6523632,8.34083288 28.5203632,8.58683288 L28.5203632,8.58683288 L28.5203632,8.36183288 C28.5203632,8.19983288 28.4693632,8.07083288 28.3673632,7.97483288 C28.2653632,7.87883288 28.1303632,7.83083288 27.9623632,7.83083288 C27.7943632,7.83083288 27.6608632,7.87883288 27.5618632,7.97483288 C27.4628632,8.07083288 27.4133632,8.19983288 27.4133632,8.36183288 L27.4133632,8.36183288 L27.4133632,13.4648329 C27.4133632,13.6208329 27.4658632,13.7468329 27.5708632,13.8428329 C27.6758632,13.9388329 27.8123632,13.9868329 27.9803632,13.9868329 Z M29.6453632,11.5208329 C29.2853632,11.5208329 29.0078632,11.3978329 28.8128632,11.1518329 C28.6178632,10.9058329 28.5203632,10.5578329 28.5203632,10.1078329 C28.5203632,9.65183288 28.6178632,9.30083288 28.8128632,9.05483288 C29.0078632,8.80883288 29.2853632,8.68583288 29.6453632,8.68583288 C29.9993632,8.68583288 30.2753632,8.81183288 30.4733632,9.06383288 C30.6713632,9.31583288 30.7703632,9.66983288 30.7703632,10.1258329 C30.7703632,10.5698329 30.6713632,10.9133329 30.4733632,11.1563329 C30.2753632,11.3993329 29.9993632,11.5208329 29.6453632,11.5208329 Z M33.3803632,12.3758329 C33.5423632,12.3758329 33.6773632,12.3293329 33.7853632,12.2363329 C33.8933632,12.1433329 33.9473632,12.0098329 33.9473632,11.8358329 L33.9473632,11.8358329 L33.9473632,6.46283288 C33.9473632,6.28883288 33.8933632,6.15683288 33.7853632,6.06683288 C33.6773632,5.97683288 33.5423632,5.93183288 33.3803632,5.93183288 C33.2183632,5.93183288 33.0848632,5.97683288 32.9798632,6.06683288 C32.8748632,6.15683288 32.8223632,6.28883288 32.8223632,6.46283288 L32.8223632,6.46283288 L32.8223632,11.8358329 C32.8223632,12.0098329 32.8748632,12.1433329 32.9798632,12.2363329 C33.0848632,12.3293329 33.2183632,12.3758329 33.3803632,12.3758329 Z M37.1153632,12.3938329 C37.5653632,12.3938329 37.9598632,12.3008329 38.2988632,12.1148329 C38.6378632,11.9288329 38.8988632,11.6618329 39.0818632,11.3138329 C39.2648632,10.9658329 39.3563632,10.5608329 39.3563632,10.0988329 C39.3563632,9.63683288 39.2648632,9.23333288 39.0818632,8.88833288 C38.8988632,8.54333288 38.6378632,8.27783288 38.2988632,8.09183288 C37.9598632,7.90583288 37.5653632,7.81283288 37.1153632,7.81283288 C36.6653632,7.81283288 36.2708632,7.90583288 35.9318632,8.09183288 C35.5928632,8.27783288 35.3303632,8.54333288 35.1443632,8.88833288 C34.9583632,9.23333288 34.8653632,9.63683288 34.8653632,10.0988329 C34.8653632,10.5608329 34.9583632,10.9658329 35.1443632,11.3138329 C35.3303632,11.6618329 35.5928632,11.9288329 35.9318632,12.1148329 C36.2708632,12.3008329 36.6653632,12.3938329 37.1153632,12.3938329 Z M37.1063632,11.5208329 C36.7463632,11.5208329 36.4703632,11.4008329 36.2783632,11.1608329 C36.0863632,10.9208329 35.9903632,10.5668329 35.9903632,10.0988329 C35.9903632,9.63683288 36.0878632,9.28433288 36.2828632,9.04133288 C36.4778632,8.79833288 36.7553632,8.67683288 37.1153632,8.67683288 C37.4753632,8.67683288 37.7513632,8.79833288 37.9433632,9.04133288 C38.1353632,9.28433288 38.2313632,9.63683288 38.2313632,10.0988329 C38.2313632,10.5668329 38.1353632,10.9208329 37.9433632,11.1608329 C37.7513632,11.4008329 37.4723632,11.5208329 37.1063632,11.5208329 Z M41.3633632,13.9868329 C41.5793632,13.9868329 41.7383632,13.8848329 41.8403632,13.6808329 L41.8403632,13.6808329 L44.2973632,8.53283288 C44.3333632,8.46083288 44.3513632,8.39183288 44.3513632,8.32583288 C44.3513632,8.18783288 44.2958632,8.07233288 44.1848632,7.97933288 C44.0738632,7.88633288 43.9493632,7.83983288 43.8113632,7.83983288 C43.7153632,7.83983288 43.6268632,7.86533288 43.5458632,7.91633288 C43.4648632,7.96733288 43.4003632,8.04683288 43.3523632,8.15483288 L43.3523632,8.15483288 L42.1013632,10.9268329 L40.8413632,8.14583288 C40.7933632,8.03783288 40.7273632,7.95833288 40.6433632,7.90733288 C40.5593632,7.85633288 40.4663632,7.83083288 40.3643632,7.83083288 C40.2143632,7.83083288 40.0808632,7.87883288 39.9638632,7.97483288 C39.8468632,8.07083288 39.7883632,8.18783288 39.7883632,8.32583288 C39.7883632,8.40383288 39.8033632,8.47283288 39.8333632,8.53283288 L39.8333632,8.53283288 L41.5073632,12.0158329 L40.8953632,13.3028329 C40.8593632,13.3868329 40.8413632,13.4618329 40.8413632,13.5278329 C40.8413632,13.6598329 40.8938632,13.7693329 40.9988632,13.8563329 C41.1038632,13.9433329 41.2253632,13.9868329 41.3633632,13.9868329 Z M47.0783632,12.3938329 C47.3123632,12.3938329 47.5583632,12.3593329 47.8163632,12.2903329 C48.0743632,12.2213329 48.3053632,12.1298329 48.5093632,12.0158329 C48.7313632,11.8898329 48.8423632,11.7338329 48.8423632,11.5478329 C48.8423632,11.4158329 48.8108632,11.3108329 48.7478632,11.2328329 C48.6848632,11.1548329 48.6023632,11.1158329 48.5003632,11.1158329 C48.4163632,11.1158329 48.2843632,11.1638329 48.1043632,11.2598329 C47.9183632,11.3438329 47.7518632,11.4098329 47.6048632,11.4578329 C47.4578632,11.5058329 47.2883632,11.5298329 47.0963632,11.5298329 C46.7183632,11.5298329 46.4303632,11.4323329 46.2323632,11.2373329 C46.0343632,11.0423329 45.9173632,10.7378329 45.8813632,10.3238329 L45.8813632,10.3238329 L48.5363632,10.3238329 C48.7643632,10.3238329 48.8783632,10.1948329 48.8783632,9.93683288 C48.8783632,9.50483288 48.7973632,9.12983288 48.6353632,8.81183288 C48.4733632,8.49383288 48.2453632,8.24783288 47.9513632,8.07383288 C47.6573632,7.89983288 47.3123632,7.81283288 46.9163632,7.81283288 C46.5023632,7.81283288 46.1318632,7.90883288 45.8048632,8.10083288 C45.4778632,8.29283288 45.2243632,8.56283288 45.0443632,8.91083288 C44.8643632,9.25883288 44.7743632,9.65783288 44.7743632,10.1078329 C44.7743632,10.8158329 44.9813632,11.3738329 45.3953632,11.7818329 C45.8093632,12.1898329 46.3703632,12.3938329 47.0783632,12.3938329 Z M47.9153632,9.72083288 L45.8813632,9.72083288 C45.9173632,9.36083288 46.0268632,9.08483288 46.2098632,8.89283288 C46.3928632,8.70083288 46.6373632,8.60483288 46.9433632,8.60483288 C47.2433632,8.60483288 47.4773632,8.69933288 47.6453632,8.88833288 C47.8133632,9.07733288 47.9033632,9.35483288 47.9153632,9.72083288 L47.9153632,9.72083288 Z M51.5063632,12.3938329 C51.8243632,12.3938329 52.1078632,12.3248329 52.3568632,12.1868329 C52.6058632,12.0488329 52.7963632,11.8568329 52.9283632,11.6108329 L52.9283632,11.6108329 L52.9283632,11.8358329 C52.9283632,11.9978329 52.9793632,12.1268329 53.0813632,12.2228329 C53.1833632,12.3188329 53.3183632,12.3668329 53.4863632,12.3668329 C53.6543632,12.3668329 53.7893632,12.3188329 53.8913632,12.2228329 C53.9933632,12.1268329 54.0443632,11.9978329 54.0443632,11.8358329 L54.0443632,11.8358329 L54.0443632,6.45383288 C54.0443632,6.29783288 53.9903632,6.17183288 53.8823632,6.07583288 C53.7743632,5.97983288 53.6363632,5.93183288 53.4683632,5.93183288 C53.3003632,5.93183288 53.1668632,5.97833288 53.0678632,6.07133288 C52.9688632,6.16433288 52.9193632,6.28583288 52.9193632,6.43583288 L52.9193632,6.43583288 L52.9193632,8.56883288 C52.7873632,8.32883288 52.5983632,8.14283288 52.3523632,8.01083288 C52.1063632,7.87883288 51.8243632,7.81283288 51.5063632,7.81283288 C51.1223632,7.81283288 50.7833632,7.90583288 50.4893632,8.09183288 C50.1953632,8.27783288 49.9658632,8.54183288 49.8008632,8.88383288 C49.6358632,9.22583288 49.5533632,9.62483288 49.5533632,10.0808329 C49.5533632,10.5368329 49.6358632,10.9403329 49.8008632,11.2913329 C49.9658632,11.6423329 50.1968632,11.9138329 50.4938632,12.1058329 C50.7908632,12.2978329 51.1283632,12.3938329 51.5063632,12.3938329 Z M51.8033632,11.5208329 C51.4493632,11.5208329 51.1733632,11.3948329 50.9753632,11.1428329 C50.7773632,10.8908329 50.6783632,10.5368329 50.6783632,10.0808329 C50.6783632,9.63083288 50.7773632,9.28583288 50.9753632,9.04583288 C51.1733632,8.80583288 51.4523632,8.68583288 51.8123632,8.68583288 C52.1663632,8.68583288 52.4408632,8.80733288 52.6358632,9.05033288 C52.8308632,9.29333288 52.9283632,9.64283288 52.9283632,10.0988329 C52.9283632,10.5548329 52.8308632,10.9058329 52.6358632,11.1518329 C52.4408632,11.3978329 52.1633632,11.5208329 51.8033632,11.5208329 Z" id="Deployed" fill="#98B4CD" fill-rule="nonzero"/></g></g><g id="icon/breadcrumbs/more-actions-copy" transform="translate(637.790036, 25.403774)" stroke="#DBE8FB" stroke-linecap="round" stroke-linejoin="round" stroke-width="1.8"><polyline id="icon/gray/path-chevron" points="0.378196179 0 7.1857274 6.80458221 0.378196179 13.6091644"/></g></g></g><g id="History-/-Record-/-Default-Copy-10" transform="translate(0.000000, 105.244205)"><g id="History-Item"><g id="Rectangle-12-Copy"><use fill="#FFFFFF" fill-rule="evenodd" xlink:href="#path-5"/><use fill="black" fill-opacity="1" filter="url(#filter-6)" xlink:href="#path-5"/></g><rect id="Rectangle-Copy-6" fill="#DBE8FB" x="158.773585" y="25.7061995" width="187.201617" height="12.097035" rx="6.04851752"/><g id="label/success-copy-2" opacity="0.5" transform="translate(27.000000, 22.681941)"><g id="label/success"><rect id="Rectangle-20" stroke="#98B4CD" stroke-width="0.9" x="0" y="0" width="69.8837264" height="18.1455526" rx="9"/><path d="M18.2873632,12.3218329 C19.3253632,12.3218329 20.1308632,12.0443329 20.7038632,11.4893329 C21.2768632,10.9343329 21.5633632,10.1528329 21.5633632,9.14483288 C21.5633632,8.14283288 21.2768632,7.36433288 20.7038632,6.80933288 C20.1308632,6.25433288 19.3253632,5.97683288 18.2873632,5.97683288 L18.2873632,5.97683288 L16.5053632,5.97683288 C16.3313632,5.97683288 16.1948632,6.02483288 16.0958632,6.12083288 C15.9968632,6.21683288 15.9473632,6.35183288 15.9473632,6.52583288 L15.9473632,6.52583288 L15.9473632,11.7728329 C15.9473632,11.9468329 15.9968632,12.0818329 16.0958632,12.1778329 C16.1948632,12.2738329 16.3313632,12.3218329 16.5053632,12.3218329 L16.5053632,12.3218329 L18.2873632,12.3218329 Z M18.2153632,11.3768329 L17.1083632,11.3768329 L17.1083632,6.92183288 L18.2153632,6.92183288 C19.6733632,6.92183288 20.4023632,7.66283288 20.4023632,9.14483288 C20.4023632,10.6328329 19.6733632,11.3768329 18.2153632,11.3768329 L18.2153632,11.3768329 Z M24.6953632,12.3938329 C24.9293632,12.3938329 25.1753632,12.3593329 25.4333632,12.2903329 C25.6913632,12.2213329 25.9223632,12.1298329 26.1263632,12.0158329 C26.3483632,11.8898329 26.4593632,11.7338329 26.4593632,11.5478329 C26.4593632,11.4158329 26.4278632,11.3108329 26.3648632,11.2328329 C26.3018632,11.1548329 26.2193632,11.1158329 26.1173632,11.1158329 C26.0333632,11.1158329 25.9013632,11.1638329 25.7213632,11.2598329 C25.5353632,11.3438329 25.3688632,11.4098329 25.2218632,11.4578329 C25.0748632,11.5058329 24.9053632,11.5298329 24.7133632,11.5298329 C24.3353632,11.5298329 24.0473632,11.4323329 23.8493632,11.2373329 C23.6513632,11.0423329 23.5343632,10.7378329 23.4983632,10.3238329 L23.4983632,10.3238329 L26.1533632,10.3238329 C26.3813632,10.3238329 26.4953632,10.1948329 26.4953632,9.93683288 C26.4953632,9.50483288 26.4143632,9.12983288 26.2523632,8.81183288 C26.0903632,8.49383288 25.8623632,8.24783288 25.5683632,8.07383288 C25.2743632,7.89983288 24.9293632,7.81283288 24.5333632,7.81283288 C24.1193632,7.81283288 23.7488632,7.90883288 23.4218632,8.10083288 C23.0948632,8.29283288 22.8413632,8.56283288 22.6613632,8.91083288 C22.4813632,9.25883288 22.3913632,9.65783288 22.3913632,10.1078329 C22.3913632,10.8158329 22.5983632,11.3738329 23.0123632,11.7818329 C23.4263632,12.1898329 23.9873632,12.3938329 24.6953632,12.3938329 Z M25.5323632,9.72083288 L23.4983632,9.72083288 C23.5343632,9.36083288 23.6438632,9.08483288 23.8268632,8.89283288 C24.0098632,8.70083288 24.2543632,8.60483288 24.5603632,8.60483288 C24.8603632,8.60483288 25.0943632,8.69933288 25.2623632,8.88833288 C25.4303632,9.07733288 25.5203632,9.35483288 25.5323632,9.72083288 L25.5323632,9.72083288 Z M27.9803632,13.9868329 C28.1483632,13.9868329 28.2833632,13.9418329 28.3853632,13.8518329 C28.4873632,13.7618329 28.5383632,13.6388329 28.5383632,13.4828329 L28.5383632,13.4828329 L28.5383632,11.6468329 C28.6703632,11.8808329 28.8593632,12.0638329 29.1053632,12.1958329 C29.3513632,12.3278329 29.6303632,12.3938329 29.9423632,12.3938329 C30.3263632,12.3938329 30.6653632,12.3008329 30.9593632,12.1148329 C31.2533632,11.9288329 31.4828632,11.6648329 31.6478632,11.3228329 C31.8128632,10.9808329 31.8953632,10.5818329 31.8953632,10.1258329 C31.8953632,9.66983288 31.8128632,9.26633288 31.6478632,8.91533288 C31.4828632,8.56433288 31.2518632,8.29283288 30.9548632,8.10083288 C30.6578632,7.90883288 30.3203632,7.81283288 29.9423632,7.81283288 C29.6243632,7.81283288 29.3408632,7.88033288 29.0918632,8.01533288 C28.8428632,8.15033288 28.6523632,8.34083288 28.5203632,8.58683288 L28.5203632,8.58683288 L28.5203632,8.36183288 C28.5203632,8.19983288 28.4693632,8.07083288 28.3673632,7.97483288 C28.2653632,7.87883288 28.1303632,7.83083288 27.9623632,7.83083288 C27.7943632,7.83083288 27.6608632,7.87883288 27.5618632,7.97483288 C27.4628632,8.07083288 27.4133632,8.19983288 27.4133632,8.36183288 L27.4133632,8.36183288 L27.4133632,13.4648329 C27.4133632,13.6208329 27.4658632,13.7468329 27.5708632,13.8428329 C27.6758632,13.9388329 27.8123632,13.9868329 27.9803632,13.9868329 Z M29.6453632,11.5208329 C29.2853632,11.5208329 29.0078632,11.3978329 28.8128632,11.1518329 C28.6178632,10.9058329 28.5203632,10.5578329 28.5203632,10.1078329 C28.5203632,9.65183288 28.6178632,9.30083288 28.8128632,9.05483288 C29.0078632,8.80883288 29.2853632,8.68583288 29.6453632,8.68583288 C29.9993632,8.68583288 30.2753632,8.81183288 30.4733632,9.06383288 C30.6713632,9.31583288 30.7703632,9.66983288 30.7703632,10.1258329 C30.7703632,10.5698329 30.6713632,10.9133329 30.4733632,11.1563329 C30.2753632,11.3993329 29.9993632,11.5208329 29.6453632,11.5208329 Z M33.3803632,12.3758329 C33.5423632,12.3758329 33.6773632,12.3293329 33.7853632,12.2363329 C33.8933632,12.1433329 33.9473632,12.0098329 33.9473632,11.8358329 L33.9473632,11.8358329 L33.9473632,6.46283288 C33.9473632,6.28883288 33.8933632,6.15683288 33.7853632,6.06683288 C33.6773632,5.97683288 33.5423632,5.93183288 33.3803632,5.93183288 C33.2183632,5.93183288 33.0848632,5.97683288 32.9798632,6.06683288 C32.8748632,6.15683288 32.8223632,6.28883288 32.8223632,6.46283288 L32.8223632,6.46283288 L32.8223632,11.8358329 C32.8223632,12.0098329 32.8748632,12.1433329 32.9798632,12.2363329 C33.0848632,12.3293329 33.2183632,12.3758329 33.3803632,12.3758329 Z M37.1153632,12.3938329 C37.5653632,12.3938329 37.9598632,12.3008329 38.2988632,12.1148329 C38.6378632,11.9288329 38.8988632,11.6618329 39.0818632,11.3138329 C39.2648632,10.9658329 39.3563632,10.5608329 39.3563632,10.0988329 C39.3563632,9.63683288 39.2648632,9.23333288 39.0818632,8.88833288 C38.8988632,8.54333288 38.6378632,8.27783288 38.2988632,8.09183288 C37.9598632,7.90583288 37.5653632,7.81283288 37.1153632,7.81283288 C36.6653632,7.81283288 36.2708632,7.90583288 35.9318632,8.09183288 C35.5928632,8.27783288 35.3303632,8.54333288 35.1443632,8.88833288 C34.9583632,9.23333288 34.8653632,9.63683288 34.8653632,10.0988329 C34.8653632,10.5608329 34.9583632,10.9658329 35.1443632,11.3138329 C35.3303632,11.6618329 35.5928632,11.9288329 35.9318632,12.1148329 C36.2708632,12.3008329 36.6653632,12.3938329 37.1153632,12.3938329 Z M37.1063632,11.5208329 C36.7463632,11.5208329 36.4703632,11.4008329 36.2783632,11.1608329 C36.0863632,10.9208329 35.9903632,10.5668329 35.9903632,10.0988329 C35.9903632,9.63683288 36.0878632,9.28433288 36.2828632,9.04133288 C36.4778632,8.79833288 36.7553632,8.67683288 37.1153632,8.67683288 C37.4753632,8.67683288 37.7513632,8.79833288 37.9433632,9.04133288 C38.1353632,9.28433288 38.2313632,9.63683288 38.2313632,10.0988329 C38.2313632,10.5668329 38.1353632,10.9208329 37.9433632,11.1608329 C37.7513632,11.4008329 37.4723632,11.5208329 37.1063632,11.5208329 Z M41.3633632,13.9868329 C41.5793632,13.9868329 41.7383632,13.8848329 41.8403632,13.6808329 L41.8403632,13.6808329 L44.2973632,8.53283288 C44.3333632,8.46083288 44.3513632,8.39183288 44.3513632,8.32583288 C44.3513632,8.18783288 44.2958632,8.07233288 44.1848632,7.97933288 C44.0738632,7.88633288 43.9493632,7.83983288 43.8113632,7.83983288 C43.7153632,7.83983288 43.6268632,7.86533288 43.5458632,7.91633288 C43.4648632,7.96733288 43.4003632,8.04683288 43.3523632,8.15483288 L43.3523632,8.15483288 L42.1013632,10.9268329 L40.8413632,8.14583288 C40.7933632,8.03783288 40.7273632,7.95833288 40.6433632,7.90733288 C40.5593632,7.85633288 40.4663632,7.83083288 40.3643632,7.83083288 C40.2143632,7.83083288 40.0808632,7.87883288 39.9638632,7.97483288 C39.8468632,8.07083288 39.7883632,8.18783288 39.7883632,8.32583288 C39.7883632,8.40383288 39.8033632,8.47283288 39.8333632,8.53283288 L39.8333632,8.53283288 L41.5073632,12.0158329 L40.8953632,13.3028329 C40.8593632,13.3868329 40.8413632,13.4618329 40.8413632,13.5278329 C40.8413632,13.6598329 40.8938632,13.7693329 40.9988632,13.8563329 C41.1038632,13.9433329 41.2253632,13.9868329 41.3633632,13.9868329 Z M47.0783632,12.3938329 C47.3123632,12.3938329 47.5583632,12.3593329 47.8163632,12.2903329 C48.0743632,12.2213329 48.3053632,12.1298329 48.5093632,12.0158329 C48.7313632,11.8898329 48.8423632,11.7338329 48.8423632,11.5478329 C48.8423632,11.4158329 48.8108632,11.3108329 48.7478632,11.2328329 C48.6848632,11.1548329 48.6023632,11.1158329 48.5003632,11.1158329 C48.4163632,11.1158329 48.2843632,11.1638329 48.1043632,11.2598329 C47.9183632,11.3438329 47.7518632,11.4098329 47.6048632,11.4578329 C47.4578632,11.5058329 47.2883632,11.5298329 47.0963632,11.5298329 C46.7183632,11.5298329 46.4303632,11.4323329 46.2323632,11.2373329 C46.0343632,11.0423329 45.9173632,10.7378329 45.8813632,10.3238329 L45.8813632,10.3238329 L48.5363632,10.3238329 C48.7643632,10.3238329 48.8783632,10.1948329 48.8783632,9.93683288 C48.8783632,9.50483288 48.7973632,9.12983288 48.6353632,8.81183288 C48.4733632,8.49383288 48.2453632,8.24783288 47.9513632,8.07383288 C47.6573632,7.89983288 47.3123632,7.81283288 46.9163632,7.81283288 C46.5023632,7.81283288 46.1318632,7.90883288 45.8048632,8.10083288 C45.4778632,8.29283288 45.2243632,8.56283288 45.0443632,8.91083288 C44.8643632,9.25883288 44.7743632,9.65783288 44.7743632,10.1078329 C44.7743632,10.8158329 44.9813632,11.3738329 45.3953632,11.7818329 C45.8093632,12.1898329 46.3703632,12.3938329 47.0783632,12.3938329 Z M47.9153632,9.72083288 L45.8813632,9.72083288 C45.9173632,9.36083288 46.0268632,9.08483288 46.2098632,8.89283288 C46.3928632,8.70083288 46.6373632,8.60483288 46.9433632,8.60483288 C47.2433632,8.60483288 47.4773632,8.69933288 47.6453632,8.88833288 C47.8133632,9.07733288 47.9033632,9.35483288 47.9153632,9.72083288 L47.9153632,9.72083288 Z M51.5063632,12.3938329 C51.8243632,12.3938329 52.1078632,12.3248329 52.3568632,12.1868329 C52.6058632,12.0488329 52.7963632,11.8568329 52.9283632,11.6108329 L52.9283632,11.6108329 L52.9283632,11.8358329 C52.9283632,11.9978329 52.9793632,12.1268329 53.0813632,12.2228329 C53.1833632,12.3188329 53.3183632,12.3668329 53.4863632,12.3668329 C53.6543632,12.3668329 53.7893632,12.3188329 53.8913632,12.2228329 C53.9933632,12.1268329 54.0443632,11.9978329 54.0443632,11.8358329 L54.0443632,11.8358329 L54.0443632,6.45383288 C54.0443632,6.29783288 53.9903632,6.17183288 53.8823632,6.07583288 C53.7743632,5.97983288 53.6363632,5.93183288 53.4683632,5.93183288 C53.3003632,5.93183288 53.1668632,5.97833288 53.0678632,6.07133288 C52.9688632,6.16433288 52.9193632,6.28583288 52.9193632,6.43583288 L52.9193632,6.43583288 L52.9193632,8.56883288 C52.7873632,8.32883288 52.5983632,8.14283288 52.3523632,8.01083288 C52.1063632,7.87883288 51.8243632,7.81283288 51.5063632,7.81283288 C51.1223632,7.81283288 50.7833632,7.90583288 50.4893632,8.09183288 C50.1953632,8.27783288 49.9658632,8.54183288 49.8008632,8.88383288 C49.6358632,9.22583288 49.5533632,9.62483288 49.5533632,10.0808329 C49.5533632,10.5368329 49.6358632,10.9403329 49.8008632,11.2913329 C49.9658632,11.6423329 50.1968632,11.9138329 50.4938632,12.1058329 C50.7908632,12.2978329 51.1283632,12.3938329 51.5063632,12.3938329 Z M51.8033632,11.5208329 C51.4493632,11.5208329 51.1733632,11.3948329 50.9753632,11.1428329 C50.7773632,10.8908329 50.6783632,10.5368329 50.6783632,10.0808329 C50.6783632,9.63083288 50.7773632,9.28583288 50.9753632,9.04583288 C51.1733632,8.80583288 51.4523632,8.68583288 51.8123632,8.68583288 C52.1663632,8.68583288 52.4408632,8.80733288 52.6358632,9.05033288 C52.8308632,9.29333288 52.9283632,9.64283288 52.9283632,10.0988329 C52.9283632,10.5548329 52.8308632,10.9058329 52.6358632,11.1518329 C52.4408632,11.3978329 52.1633632,11.5208329 51.8033632,11.5208329 Z" id="Deployed" fill="#98B4CD" fill-rule="nonzero"/></g></g><g id="icon/breadcrumbs/more-actions-copy" transform="translate(637.790036, 25.403774)" stroke="#DBE8FB" stroke-linecap="round" stroke-linejoin="round" stroke-width="1.8"><polyline id="icon/gray/path-chevron" points="0.378196179 0 7.1857274 6.80458221 0.378196179 13.6091644"/></g></g></g><g id="History-/-Record-/-Default-Copy-8" transform="translate(0.000000, 232.263073)"><g id="History-Item"><g id="Rectangle-12-Copy"><use fill="#F5F9FF" fill-rule="evenodd" xlink:href="#path-7"/><use fill="black" fill-opacity="1" filter="url(#filter-8)" xlink:href="#path-7"/></g><g id="label/success-copy-2" transform="translate(27.000000, 22.681941)"><g id="label/success"><rect id="Rectangle-20" stroke="#98B4CD" stroke-width="0.9" x="0" y="0" width="69.8837264" height="18.1455526" rx="9"/><text id="Label" font-family="Nunito-Bold, Nunito" font-size="9" font-weight="bold" line-spacing="12.6" fill="#98B4CD"><tspan x="15.2633632" y="11.7218329">Deployed</tspan></text></g></g><text id="12:00PM-19-Nov-2020" font-family="Nunito-Regular, Nunito" font-size="12.6" font-weight="normal" line-spacing="18.9" fill="#427692"><tspan x="157.5" y="35.7587601">12:00PM 19 Nov 2020</tspan></text><g id="icon/breadcrumbs/more-actions-copy" transform="translate(637.790036, 25.403774)" stroke="#556F7D" stroke-linecap="round" stroke-linejoin="round" stroke-width="1.8"><polyline id="icon/gray/path-chevron" points="0.378196179 0 7.1857274 6.80458221 0.378196179 13.6091644"/></g></g></g><g id="History-/-Record-/-Default-Copy-4" transform="translate(0.000000, 232.263073)"><g id="History-Item"><g id="Rectangle-12-Copy"><use fill="#FFFFFF" fill-rule="evenodd" xlink:href="#path-9"/><use fill="black" fill-opacity="1" filter="url(#filter-10)" xlink:href="#path-9"/></g><rect id="Rectangle-Copy-11" fill="#DBE8FB" opacity="0.269787016" x="158.773585" y="25.7061995" width="187.201617" height="12.097035" rx="6.04851752"/><g id="label/success-copy-2" opacity="0.495929" transform="translate(27.000000, 22.681941)"><g id="label/success"><rect id="Rectangle-20" stroke="#98B4CD" stroke-width="0.9" x="0" y="0" width="69.8837264" height="18.1455526" rx="9"/><path d="M18.2873632,12.3218329 C19.3253632,12.3218329 20.1308632,12.0443329 20.7038632,11.4893329 C21.2768632,10.9343329 21.5633632,10.1528329 21.5633632,9.14483288 C21.5633632,8.14283288 21.2768632,7.36433288 20.7038632,6.80933288 C20.1308632,6.25433288 19.3253632,5.97683288 18.2873632,5.97683288 L18.2873632,5.97683288 L16.5053632,5.97683288 C16.3313632,5.97683288 16.1948632,6.02483288 16.0958632,6.12083288 C15.9968632,6.21683288 15.9473632,6.35183288 15.9473632,6.52583288 L15.9473632,6.52583288 L15.9473632,11.7728329 C15.9473632,11.9468329 15.9968632,12.0818329 16.0958632,12.1778329 C16.1948632,12.2738329 16.3313632,12.3218329 16.5053632,12.3218329 L16.5053632,12.3218329 L18.2873632,12.3218329 Z M18.2153632,11.3768329 L17.1083632,11.3768329 L17.1083632,6.92183288 L18.2153632,6.92183288 C19.6733632,6.92183288 20.4023632,7.66283288 20.4023632,9.14483288 C20.4023632,10.6328329 19.6733632,11.3768329 18.2153632,11.3768329 L18.2153632,11.3768329 Z M24.6953632,12.3938329 C24.9293632,12.3938329 25.1753632,12.3593329 25.4333632,12.2903329 C25.6913632,12.2213329 25.9223632,12.1298329 26.1263632,12.0158329 C26.3483632,11.8898329 26.4593632,11.7338329 26.4593632,11.5478329 C26.4593632,11.4158329 26.4278632,11.3108329 26.3648632,11.2328329 C26.3018632,11.1548329 26.2193632,11.1158329 26.1173632,11.1158329 C26.0333632,11.1158329 25.9013632,11.1638329 25.7213632,11.2598329 C25.5353632,11.3438329 25.3688632,11.4098329 25.2218632,11.4578329 C25.0748632,11.5058329 24.9053632,11.5298329 24.7133632,11.5298329 C24.3353632,11.5298329 24.0473632,11.4323329 23.8493632,11.2373329 C23.6513632,11.0423329 23.5343632,10.7378329 23.4983632,10.3238329 L23.4983632,10.3238329 L26.1533632,10.3238329 C26.3813632,10.3238329 26.4953632,10.1948329 26.4953632,9.93683288 C26.4953632,9.50483288 26.4143632,9.12983288 26.2523632,8.81183288 C26.0903632,8.49383288 25.8623632,8.24783288 25.5683632,8.07383288 C25.2743632,7.89983288 24.9293632,7.81283288 24.5333632,7.81283288 C24.1193632,7.81283288 23.7488632,7.90883288 23.4218632,8.10083288 C23.0948632,8.29283288 22.8413632,8.56283288 22.6613632,8.91083288 C22.4813632,9.25883288 22.3913632,9.65783288 22.3913632,10.1078329 C22.3913632,10.8158329 22.5983632,11.3738329 23.0123632,11.7818329 C23.4263632,12.1898329 23.9873632,12.3938329 24.6953632,12.3938329 Z M25.5323632,9.72083288 L23.4983632,9.72083288 C23.5343632,9.36083288 23.6438632,9.08483288 23.8268632,8.89283288 C24.0098632,8.70083288 24.2543632,8.60483288 24.5603632,8.60483288 C24.8603632,8.60483288 25.0943632,8.69933288 25.2623632,8.88833288 C25.4303632,9.07733288 25.5203632,9.35483288 25.5323632,9.72083288 L25.5323632,9.72083288 Z M27.9803632,13.9868329 C28.1483632,13.9868329 28.2833632,13.9418329 28.3853632,13.8518329 C28.4873632,13.7618329 28.5383632,13.6388329 28.5383632,13.4828329 L28.5383632,13.4828329 L28.5383632,11.6468329 C28.6703632,11.8808329 28.8593632,12.0638329 29.1053632,12.1958329 C29.3513632,12.3278329 29.6303632,12.3938329 29.9423632,12.3938329 C30.3263632,12.3938329 30.6653632,12.3008329 30.9593632,12.1148329 C31.2533632,11.9288329 31.4828632,11.6648329 31.6478632,11.3228329 C31.8128632,10.9808329 31.8953632,10.5818329 31.8953632,10.1258329 C31.8953632,9.66983288 31.8128632,9.26633288 31.6478632,8.91533288 C31.4828632,8.56433288 31.2518632,8.29283288 30.9548632,8.10083288 C30.6578632,7.90883288 30.3203632,7.81283288 29.9423632,7.81283288 C29.6243632,7.81283288 29.3408632,7.88033288 29.0918632,8.01533288 C28.8428632,8.15033288 28.6523632,8.34083288 28.5203632,8.58683288 L28.5203632,8.58683288 L28.5203632,8.36183288 C28.5203632,8.19983288 28.4693632,8.07083288 28.3673632,7.97483288 C28.2653632,7.87883288 28.1303632,7.83083288 27.9623632,7.83083288 C27.7943632,7.83083288 27.6608632,7.87883288 27.5618632,7.97483288 C27.4628632,8.07083288 27.4133632,8.19983288 27.4133632,8.36183288 L27.4133632,8.36183288 L27.4133632,13.4648329 C27.4133632,13.6208329 27.4658632,13.7468329 27.5708632,13.8428329 C27.6758632,13.9388329 27.8123632,13.9868329 27.9803632,13.9868329 Z M29.6453632,11.5208329 C29.2853632,11.5208329 29.0078632,11.3978329 28.8128632,11.1518329 C28.6178632,10.9058329 28.5203632,10.5578329 28.5203632,10.1078329 C28.5203632,9.65183288 28.6178632,9.30083288 28.8128632,9.05483288 C29.0078632,8.80883288 29.2853632,8.68583288 29.6453632,8.68583288 C29.9993632,8.68583288 30.2753632,8.81183288 30.4733632,9.06383288 C30.6713632,9.31583288 30.7703632,9.66983288 30.7703632,10.1258329 C30.7703632,10.5698329 30.6713632,10.9133329 30.4733632,11.1563329 C30.2753632,11.3993329 29.9993632,11.5208329 29.6453632,11.5208329 Z M33.3803632,12.3758329 C33.5423632,12.3758329 33.6773632,12.3293329 33.7853632,12.2363329 C33.8933632,12.1433329 33.9473632,12.0098329 33.9473632,11.8358329 L33.9473632,11.8358329 L33.9473632,6.46283288 C33.9473632,6.28883288 33.8933632,6.15683288 33.7853632,6.06683288 C33.6773632,5.97683288 33.5423632,5.93183288 33.3803632,5.93183288 C33.2183632,5.93183288 33.0848632,5.97683288 32.9798632,6.06683288 C32.8748632,6.15683288 32.8223632,6.28883288 32.8223632,6.46283288 L32.8223632,6.46283288 L32.8223632,11.8358329 C32.8223632,12.0098329 32.8748632,12.1433329 32.9798632,12.2363329 C33.0848632,12.3293329 33.2183632,12.3758329 33.3803632,12.3758329 Z M37.1153632,12.3938329 C37.5653632,12.3938329 37.9598632,12.3008329 38.2988632,12.1148329 C38.6378632,11.9288329 38.8988632,11.6618329 39.0818632,11.3138329 C39.2648632,10.9658329 39.3563632,10.5608329 39.3563632,10.0988329 C39.3563632,9.63683288 39.2648632,9.23333288 39.0818632,8.88833288 C38.8988632,8.54333288 38.6378632,8.27783288 38.2988632,8.09183288 C37.9598632,7.90583288 37.5653632,7.81283288 37.1153632,7.81283288 C36.6653632,7.81283288 36.2708632,7.90583288 35.9318632,8.09183288 C35.5928632,8.27783288 35.3303632,8.54333288 35.1443632,8.88833288 C34.9583632,9.23333288 34.8653632,9.63683288 34.8653632,10.0988329 C34.8653632,10.5608329 34.9583632,10.9658329 35.1443632,11.3138329 C35.3303632,11.6618329 35.5928632,11.9288329 35.9318632,12.1148329 C36.2708632,12.3008329 36.6653632,12.3938329 37.1153632,12.3938329 Z M37.1063632,11.5208329 C36.7463632,11.5208329 36.4703632,11.4008329 36.2783632,11.1608329 C36.0863632,10.9208329 35.9903632,10.5668329 35.9903632,10.0988329 C35.9903632,9.63683288 36.0878632,9.28433288 36.2828632,9.04133288 C36.4778632,8.79833288 36.7553632,8.67683288 37.1153632,8.67683288 C37.4753632,8.67683288 37.7513632,8.79833288 37.9433632,9.04133288 C38.1353632,9.28433288 38.2313632,9.63683288 38.2313632,10.0988329 C38.2313632,10.5668329 38.1353632,10.9208329 37.9433632,11.1608329 C37.7513632,11.4008329 37.4723632,11.5208329 37.1063632,11.5208329 Z M41.3633632,13.9868329 C41.5793632,13.9868329 41.7383632,13.8848329 41.8403632,13.6808329 L41.8403632,13.6808329 L44.2973632,8.53283288 C44.3333632,8.46083288 44.3513632,8.39183288 44.3513632,8.32583288 C44.3513632,8.18783288 44.2958632,8.07233288 44.1848632,7.97933288 C44.0738632,7.88633288 43.9493632,7.83983288 43.8113632,7.83983288 C43.7153632,7.83983288 43.6268632,7.86533288 43.5458632,7.91633288 C43.4648632,7.96733288 43.4003632,8.04683288 43.3523632,8.15483288 L43.3523632,8.15483288 L42.1013632,10.9268329 L40.8413632,8.14583288 C40.7933632,8.03783288 40.7273632,7.95833288 40.6433632,7.90733288 C40.5593632,7.85633288 40.4663632,7.83083288 40.3643632,7.83083288 C40.2143632,7.83083288 40.0808632,7.87883288 39.9638632,7.97483288 C39.8468632,8.07083288 39.7883632,8.18783288 39.7883632,8.32583288 C39.7883632,8.40383288 39.8033632,8.47283288 39.8333632,8.53283288 L39.8333632,8.53283288 L41.5073632,12.0158329 L40.8953632,13.3028329 C40.8593632,13.3868329 40.8413632,13.4618329 40.8413632,13.5278329 C40.8413632,13.6598329 40.8938632,13.7693329 40.9988632,13.8563329 C41.1038632,13.9433329 41.2253632,13.9868329 41.3633632,13.9868329 Z M47.0783632,12.3938329 C47.3123632,12.3938329 47.5583632,12.3593329 47.8163632,12.2903329 C48.0743632,12.2213329 48.3053632,12.1298329 48.5093632,12.0158329 C48.7313632,11.8898329 48.8423632,11.7338329 48.8423632,11.5478329 C48.8423632,11.4158329 48.8108632,11.3108329 48.7478632,11.2328329 C48.6848632,11.1548329 48.6023632,11.1158329 48.5003632,11.1158329 C48.4163632,11.1158329 48.2843632,11.1638329 48.1043632,11.2598329 C47.9183632,11.3438329 47.7518632,11.4098329 47.6048632,11.4578329 C47.4578632,11.5058329 47.2883632,11.5298329 47.0963632,11.5298329 C46.7183632,11.5298329 46.4303632,11.4323329 46.2323632,11.2373329 C46.0343632,11.0423329 45.9173632,10.7378329 45.8813632,10.3238329 L45.8813632,10.3238329 L48.5363632,10.3238329 C48.7643632,10.3238329 48.8783632,10.1948329 48.8783632,9.93683288 C48.8783632,9.50483288 48.7973632,9.12983288 48.6353632,8.81183288 C48.4733632,8.49383288 48.2453632,8.24783288 47.9513632,8.07383288 C47.6573632,7.89983288 47.3123632,7.81283288 46.9163632,7.81283288 C46.5023632,7.81283288 46.1318632,7.90883288 45.8048632,8.10083288 C45.4778632,8.29283288 45.2243632,8.56283288 45.0443632,8.91083288 C44.8643632,9.25883288 44.7743632,9.65783288 44.7743632,10.1078329 C44.7743632,10.8158329 44.9813632,11.3738329 45.3953632,11.7818329 C45.8093632,12.1898329 46.3703632,12.3938329 47.0783632,12.3938329 Z M47.9153632,9.72083288 L45.8813632,9.72083288 C45.9173632,9.36083288 46.0268632,9.08483288 46.2098632,8.89283288 C46.3928632,8.70083288 46.6373632,8.60483288 46.9433632,8.60483288 C47.2433632,8.60483288 47.4773632,8.69933288 47.6453632,8.88833288 C47.8133632,9.07733288 47.9033632,9.35483288 47.9153632,9.72083288 L47.9153632,9.72083288 Z M51.5063632,12.3938329 C51.8243632,12.3938329 52.1078632,12.3248329 52.3568632,12.1868329 C52.6058632,12.0488329 52.7963632,11.8568329 52.9283632,11.6108329 L52.9283632,11.6108329 L52.9283632,11.8358329 C52.9283632,11.9978329 52.9793632,12.1268329 53.0813632,12.2228329 C53.1833632,12.3188329 53.3183632,12.3668329 53.4863632,12.3668329 C53.6543632,12.3668329 53.7893632,12.3188329 53.8913632,12.2228329 C53.9933632,12.1268329 54.0443632,11.9978329 54.0443632,11.8358329 L54.0443632,11.8358329 L54.0443632,6.45383288 C54.0443632,6.29783288 53.9903632,6.17183288 53.8823632,6.07583288 C53.7743632,5.97983288 53.6363632,5.93183288 53.4683632,5.93183288 C53.3003632,5.93183288 53.1668632,5.97833288 53.0678632,6.07133288 C52.9688632,6.16433288 52.9193632,6.28583288 52.9193632,6.43583288 L52.9193632,6.43583288 L52.9193632,8.56883288 C52.7873632,8.32883288 52.5983632,8.14283288 52.3523632,8.01083288 C52.1063632,7.87883288 51.8243632,7.81283288 51.5063632,7.81283288 C51.1223632,7.81283288 50.7833632,7.90583288 50.4893632,8.09183288 C50.1953632,8.27783288 49.9658632,8.54183288 49.8008632,8.88383288 C49.6358632,9.22583288 49.5533632,9.62483288 49.5533632,10.0808329 C49.5533632,10.5368329 49.6358632,10.9403329 49.8008632,11.2913329 C49.9658632,11.6423329 50.1968632,11.9138329 50.4938632,12.1058329 C50.7908632,12.2978329 51.1283632,12.3938329 51.5063632,12.3938329 Z M51.8033632,11.5208329 C51.4493632,11.5208329 51.1733632,11.3948329 50.9753632,11.1428329 C50.7773632,10.8908329 50.6783632,10.5368329 50.6783632,10.0808329 C50.6783632,9.63083288 50.7773632,9.28583288 50.9753632,9.04583288 C51.1733632,8.80583288 51.4523632,8.68583288 51.8123632,8.68583288 C52.1663632,8.68583288 52.4408632,8.80733288 52.6358632,9.05033288 C52.8308632,9.29333288 52.9283632,9.64283288 52.9283632,10.0988329 C52.9283632,10.5548329 52.8308632,10.9058329 52.6358632,11.1518329 C52.4408632,11.3978329 52.1633632,11.5208329 51.8033632,11.5208329 Z" id="Deployed" fill="#98B4CD" fill-rule="nonzero"/></g></g><g id="icon/breadcrumbs/more-actions-copy" transform="translate(637.790036, 25.403774)" stroke="#DBE8FB" stroke-linecap="round" stroke-linejoin="round" stroke-width="1.8"><polyline id="icon/gray/path-chevron" points="0.378196179 0 7.1857274 6.80458221 0.378196179 13.6091644"/></g></g></g><g id="History-/-Record-/-Default-Copy-5" transform="translate(0.000000, 168.753639)"><g id="History-Item"><g id="Rectangle-12-Copy"><use fill="#FFFFFF" fill-rule="evenodd" xlink:href="#path-11"/><use fill="black" fill-opacity="1" filter="url(#filter-12)" xlink:href="#path-11"/></g><rect id="Rectangle-Copy-10" fill="#DBE8FB" opacity="0.269787016" x="158.773585" y="25.7061995" width="187.201617" height="12.097035" rx="6.04851752"/><g id="label/success-copy-2" opacity="0.498349144" transform="translate(27.000000, 22.681941)"><g id="label/success"><rect id="Rectangle-20" stroke="#98B4CD" stroke-width="0.9" x="0" y="0" width="69.8837264" height="18.1455526" rx="9"/><path d="M18.2873632,12.3218329 C19.3253632,12.3218329 20.1308632,12.0443329 20.7038632,11.4893329 C21.2768632,10.9343329 21.5633632,10.1528329 21.5633632,9.14483288 C21.5633632,8.14283288 21.2768632,7.36433288 20.7038632,6.80933288 C20.1308632,6.25433288 19.3253632,5.97683288 18.2873632,5.97683288 L18.2873632,5.97683288 L16.5053632,5.97683288 C16.3313632,5.97683288 16.1948632,6.02483288 16.0958632,6.12083288 C15.9968632,6.21683288 15.9473632,6.35183288 15.9473632,6.52583288 L15.9473632,6.52583288 L15.9473632,11.7728329 C15.9473632,11.9468329 15.9968632,12.0818329 16.0958632,12.1778329 C16.1948632,12.2738329 16.3313632,12.3218329 16.5053632,12.3218329 L16.5053632,12.3218329 L18.2873632,12.3218329 Z M18.2153632,11.3768329 L17.1083632,11.3768329 L17.1083632,6.92183288 L18.2153632,6.92183288 C19.6733632,6.92183288 20.4023632,7.66283288 20.4023632,9.14483288 C20.4023632,10.6328329 19.6733632,11.3768329 18.2153632,11.3768329 L18.2153632,11.3768329 Z M24.6953632,12.3938329 C24.9293632,12.3938329 25.1753632,12.3593329 25.4333632,12.2903329 C25.6913632,12.2213329 25.9223632,12.1298329 26.1263632,12.0158329 C26.3483632,11.8898329 26.4593632,11.7338329 26.4593632,11.5478329 C26.4593632,11.4158329 26.4278632,11.3108329 26.3648632,11.2328329 C26.3018632,11.1548329 26.2193632,11.1158329 26.1173632,11.1158329 C26.0333632,11.1158329 25.9013632,11.1638329 25.7213632,11.2598329 C25.5353632,11.3438329 25.3688632,11.4098329 25.2218632,11.4578329 C25.0748632,11.5058329 24.9053632,11.5298329 24.7133632,11.5298329 C24.3353632,11.5298329 24.0473632,11.4323329 23.8493632,11.2373329 C23.6513632,11.0423329 23.5343632,10.7378329 23.4983632,10.3238329 L23.4983632,10.3238329 L26.1533632,10.3238329 C26.3813632,10.3238329 26.4953632,10.1948329 26.4953632,9.93683288 C26.4953632,9.50483288 26.4143632,9.12983288 26.2523632,8.81183288 C26.0903632,8.49383288 25.8623632,8.24783288 25.5683632,8.07383288 C25.2743632,7.89983288 24.9293632,7.81283288 24.5333632,7.81283288 C24.1193632,7.81283288 23.7488632,7.90883288 23.4218632,8.10083288 C23.0948632,8.29283288 22.8413632,8.56283288 22.6613632,8.91083288 C22.4813632,9.25883288 22.3913632,9.65783288 22.3913632,10.1078329 C22.3913632,10.8158329 22.5983632,11.3738329 23.0123632,11.7818329 C23.4263632,12.1898329 23.9873632,12.3938329 24.6953632,12.3938329 Z M25.5323632,9.72083288 L23.4983632,9.72083288 C23.5343632,9.36083288 23.6438632,9.08483288 23.8268632,8.89283288 C24.0098632,8.70083288 24.2543632,8.60483288 24.5603632,8.60483288 C24.8603632,8.60483288 25.0943632,8.69933288 25.2623632,8.88833288 C25.4303632,9.07733288 25.5203632,9.35483288 25.5323632,9.72083288 L25.5323632,9.72083288 Z M27.9803632,13.9868329 C28.1483632,13.9868329 28.2833632,13.9418329 28.3853632,13.8518329 C28.4873632,13.7618329 28.5383632,13.6388329 28.5383632,13.4828329 L28.5383632,13.4828329 L28.5383632,11.6468329 C28.6703632,11.8808329 28.8593632,12.0638329 29.1053632,12.1958329 C29.3513632,12.3278329 29.6303632,12.3938329 29.9423632,12.3938329 C30.3263632,12.3938329 30.6653632,12.3008329 30.9593632,12.1148329 C31.2533632,11.9288329 31.4828632,11.6648329 31.6478632,11.3228329 C31.8128632,10.9808329 31.8953632,10.5818329 31.8953632,10.1258329 C31.8953632,9.66983288 31.8128632,9.26633288 31.6478632,8.91533288 C31.4828632,8.56433288 31.2518632,8.29283288 30.9548632,8.10083288 C30.6578632,7.90883288 30.3203632,7.81283288 29.9423632,7.81283288 C29.6243632,7.81283288 29.3408632,7.88033288 29.0918632,8.01533288 C28.8428632,8.15033288 28.6523632,8.34083288 28.5203632,8.58683288 L28.5203632,8.58683288 L28.5203632,8.36183288 C28.5203632,8.19983288 28.4693632,8.07083288 28.3673632,7.97483288 C28.2653632,7.87883288 28.1303632,7.83083288 27.9623632,7.83083288 C27.7943632,7.83083288 27.6608632,7.87883288 27.5618632,7.97483288 C27.4628632,8.07083288 27.4133632,8.19983288 27.4133632,8.36183288 L27.4133632,8.36183288 L27.4133632,13.4648329 C27.4133632,13.6208329 27.4658632,13.7468329 27.5708632,13.8428329 C27.6758632,13.9388329 27.8123632,13.9868329 27.9803632,13.9868329 Z M29.6453632,11.5208329 C29.2853632,11.5208329 29.0078632,11.3978329 28.8128632,11.1518329 C28.6178632,10.9058329 28.5203632,10.5578329 28.5203632,10.1078329 C28.5203632,9.65183288 28.6178632,9.30083288 28.8128632,9.05483288 C29.0078632,8.80883288 29.2853632,8.68583288 29.6453632,8.68583288 C29.9993632,8.68583288 30.2753632,8.81183288 30.4733632,9.06383288 C30.6713632,9.31583288 30.7703632,9.66983288 30.7703632,10.1258329 C30.7703632,10.5698329 30.6713632,10.9133329 30.4733632,11.1563329 C30.2753632,11.3993329 29.9993632,11.5208329 29.6453632,11.5208329 Z M33.3803632,12.3758329 C33.5423632,12.3758329 33.6773632,12.3293329 33.7853632,12.2363329 C33.8933632,12.1433329 33.9473632,12.0098329 33.9473632,11.8358329 L33.9473632,11.8358329 L33.9473632,6.46283288 C33.9473632,6.28883288 33.8933632,6.15683288 33.7853632,6.06683288 C33.6773632,5.97683288 33.5423632,5.93183288 33.3803632,5.93183288 C33.2183632,5.93183288 33.0848632,5.97683288 32.9798632,6.06683288 C32.8748632,6.15683288 32.8223632,6.28883288 32.8223632,6.46283288 L32.8223632,6.46283288 L32.8223632,11.8358329 C32.8223632,12.0098329 32.8748632,12.1433329 32.9798632,12.2363329 C33.0848632,12.3293329 33.2183632,12.3758329 33.3803632,12.3758329 Z M37.1153632,12.3938329 C37.5653632,12.3938329 37.9598632,12.3008329 38.2988632,12.1148329 C38.6378632,11.9288329 38.8988632,11.6618329 39.0818632,11.3138329 C39.2648632,10.9658329 39.3563632,10.5608329 39.3563632,10.0988329 C39.3563632,9.63683288 39.2648632,9.23333288 39.0818632,8.88833288 C38.8988632,8.54333288 38.6378632,8.27783288 38.2988632,8.09183288 C37.9598632,7.90583288 37.5653632,7.81283288 37.1153632,7.81283288 C36.6653632,7.81283288 36.2708632,7.90583288 35.9318632,8.09183288 C35.5928632,8.27783288 35.3303632,8.54333288 35.1443632,8.88833288 C34.9583632,9.23333288 34.8653632,9.63683288 34.8653632,10.0988329 C34.8653632,10.5608329 34.9583632,10.9658329 35.1443632,11.3138329 C35.3303632,11.6618329 35.5928632,11.9288329 35.9318632,12.1148329 C36.2708632,12.3008329 36.6653632,12.3938329 37.1153632,12.3938329 Z M37.1063632,11.5208329 C36.7463632,11.5208329 36.4703632,11.4008329 36.2783632,11.1608329 C36.0863632,10.9208329 35.9903632,10.5668329 35.9903632,10.0988329 C35.9903632,9.63683288 36.0878632,9.28433288 36.2828632,9.04133288 C36.4778632,8.79833288 36.7553632,8.67683288 37.1153632,8.67683288 C37.4753632,8.67683288 37.7513632,8.79833288 37.9433632,9.04133288 C38.1353632,9.28433288 38.2313632,9.63683288 38.2313632,10.0988329 C38.2313632,10.5668329 38.1353632,10.9208329 37.9433632,11.1608329 C37.7513632,11.4008329 37.4723632,11.5208329 37.1063632,11.5208329 Z M41.3633632,13.9868329 C41.5793632,13.9868329 41.7383632,13.8848329 41.8403632,13.6808329 L41.8403632,13.6808329 L44.2973632,8.53283288 C44.3333632,8.46083288 44.3513632,8.39183288 44.3513632,8.32583288 C44.3513632,8.18783288 44.2958632,8.07233288 44.1848632,7.97933288 C44.0738632,7.88633288 43.9493632,7.83983288 43.8113632,7.83983288 C43.7153632,7.83983288 43.6268632,7.86533288 43.5458632,7.91633288 C43.4648632,7.96733288 43.4003632,8.04683288 43.3523632,8.15483288 L43.3523632,8.15483288 L42.1013632,10.9268329 L40.8413632,8.14583288 C40.7933632,8.03783288 40.7273632,7.95833288 40.6433632,7.90733288 C40.5593632,7.85633288 40.4663632,7.83083288 40.3643632,7.83083288 C40.2143632,7.83083288 40.0808632,7.87883288 39.9638632,7.97483288 C39.8468632,8.07083288 39.7883632,8.18783288 39.7883632,8.32583288 C39.7883632,8.40383288 39.8033632,8.47283288 39.8333632,8.53283288 L39.8333632,8.53283288 L41.5073632,12.0158329 L40.8953632,13.3028329 C40.8593632,13.3868329 40.8413632,13.4618329 40.8413632,13.5278329 C40.8413632,13.6598329 40.8938632,13.7693329 40.9988632,13.8563329 C41.1038632,13.9433329 41.2253632,13.9868329 41.3633632,13.9868329 Z M47.0783632,12.3938329 C47.3123632,12.3938329 47.5583632,12.3593329 47.8163632,12.2903329 C48.0743632,12.2213329 48.3053632,12.1298329 48.5093632,12.0158329 C48.7313632,11.8898329 48.8423632,11.7338329 48.8423632,11.5478329 C48.8423632,11.4158329 48.8108632,11.3108329 48.7478632,11.2328329 C48.6848632,11.1548329 48.6023632,11.1158329 48.5003632,11.1158329 C48.4163632,11.1158329 48.2843632,11.1638329 48.1043632,11.2598329 C47.9183632,11.3438329 47.7518632,11.4098329 47.6048632,11.4578329 C47.4578632,11.5058329 47.2883632,11.5298329 47.0963632,11.5298329 C46.7183632,11.5298329 46.4303632,11.4323329 46.2323632,11.2373329 C46.0343632,11.0423329 45.9173632,10.7378329 45.8813632,10.3238329 L45.8813632,10.3238329 L48.5363632,10.3238329 C48.7643632,10.3238329 48.8783632,10.1948329 48.8783632,9.93683288 C48.8783632,9.50483288 48.7973632,9.12983288 48.6353632,8.81183288 C48.4733632,8.49383288 48.2453632,8.24783288 47.9513632,8.07383288 C47.6573632,7.89983288 47.3123632,7.81283288 46.9163632,7.81283288 C46.5023632,7.81283288 46.1318632,7.90883288 45.8048632,8.10083288 C45.4778632,8.29283288 45.2243632,8.56283288 45.0443632,8.91083288 C44.8643632,9.25883288 44.7743632,9.65783288 44.7743632,10.1078329 C44.7743632,10.8158329 44.9813632,11.3738329 45.3953632,11.7818329 C45.8093632,12.1898329 46.3703632,12.3938329 47.0783632,12.3938329 Z M47.9153632,9.72083288 L45.8813632,9.72083288 C45.9173632,9.36083288 46.0268632,9.08483288 46.2098632,8.89283288 C46.3928632,8.70083288 46.6373632,8.60483288 46.9433632,8.60483288 C47.2433632,8.60483288 47.4773632,8.69933288 47.6453632,8.88833288 C47.8133632,9.07733288 47.9033632,9.35483288 47.9153632,9.72083288 L47.9153632,9.72083288 Z M51.5063632,12.3938329 C51.8243632,12.3938329 52.1078632,12.3248329 52.3568632,12.1868329 C52.6058632,12.0488329 52.7963632,11.8568329 52.9283632,11.6108329 L52.9283632,11.6108329 L52.9283632,11.8358329 C52.9283632,11.9978329 52.9793632,12.1268329 53.0813632,12.2228329 C53.1833632,12.3188329 53.3183632,12.3668329 53.4863632,12.3668329 C53.6543632,12.3668329 53.7893632,12.3188329 53.8913632,12.2228329 C53.9933632,12.1268329 54.0443632,11.9978329 54.0443632,11.8358329 L54.0443632,11.8358329 L54.0443632,6.45383288 C54.0443632,6.29783288 53.9903632,6.17183288 53.8823632,6.07583288 C53.7743632,5.97983288 53.6363632,5.93183288 53.4683632,5.93183288 C53.3003632,5.93183288 53.1668632,5.97833288 53.0678632,6.07133288 C52.9688632,6.16433288 52.9193632,6.28583288 52.9193632,6.43583288 L52.9193632,6.43583288 L52.9193632,8.56883288 C52.7873632,8.32883288 52.5983632,8.14283288 52.3523632,8.01083288 C52.1063632,7.87883288 51.8243632,7.81283288 51.5063632,7.81283288 C51.1223632,7.81283288 50.7833632,7.90583288 50.4893632,8.09183288 C50.1953632,8.27783288 49.9658632,8.54183288 49.8008632,8.88383288 C49.6358632,9.22583288 49.5533632,9.62483288 49.5533632,10.0808329 C49.5533632,10.5368329 49.6358632,10.9403329 49.8008632,11.2913329 C49.9658632,11.6423329 50.1968632,11.9138329 50.4938632,12.1058329 C50.7908632,12.2978329 51.1283632,12.3938329 51.5063632,12.3938329 Z M51.8033632,11.5208329 C51.4493632,11.5208329 51.1733632,11.3948329 50.9753632,11.1428329 C50.7773632,10.8908329 50.6783632,10.5368329 50.6783632,10.0808329 C50.6783632,9.63083288 50.7773632,9.28583288 50.9753632,9.04583288 C51.1733632,8.80583288 51.4523632,8.68583288 51.8123632,8.68583288 C52.1663632,8.68583288 52.4408632,8.80733288 52.6358632,9.05033288 C52.8308632,9.29333288 52.9283632,9.64283288 52.9283632,10.0988329 C52.9283632,10.5548329 52.8308632,10.9058329 52.6358632,11.1518329 C52.4408632,11.3978329 52.1633632,11.5208329 51.8033632,11.5208329 Z" id="Deployed" fill="#98B4CD" fill-rule="nonzero"/></g></g><g id="icon/breadcrumbs/more-actions-copy" transform="translate(637.790036, 25.403774)" stroke="#DBE8FB" stroke-linecap="round" stroke-linejoin="round" stroke-width="1.8"><polyline id="icon/gray/path-chevron" points="0.378196179 0 7.1857274 6.80458221 0.378196179 13.6091644"/></g></g></g></g></g></g></g></g></svg>