<svg xmlns="http://www.w3.org/2000/svg" xmlns:xlink="http://www.w3.org/1999/xlink" viewBox="0 0 350 296" version="1.1"><!-- Generator: Sketch 60.1 (88133) - https://sketch.com --><title>home-howitworks-combine</title><desc>Created with Sketch.</desc><defs><path d="M9,16.3333333 L263,16.3333333 C267.418278,16.3333333 271,19.9150553 271,24.3333333 L271,71.6666667 C271,76.0849447 267.418278,79.6666667 263,79.6666667 L9,79.6666667 C4.581722,79.6666667 1,76.0849447 1,71.6666667 L1,24.3333333 C1,19.9150553 4.581722,16.3333333 9,16.3333333 Z" id="path-1"/><filter x="-24.1%" y="-86.8%" width="148.1%" height="305.3%" filterUnits="objectBoundingBox" id="filter-2"><feOffset dx="0" dy="10" in="SourceAlpha" result="shadowOffsetOuter1"/><feGaussianBlur stdDeviation="20" in="shadowOffsetOuter1" result="shadowBlurOuter1"/><feColorMatrix values="0 0 0 0 0.25869511   0 0 0 0 0.461476445   0 0 0 0 0.570764243  0 0 0 0.100486866 0" type="matrix" in="shadowBlurOuter1" result="shadowMatrixOuter1"/><feOffset dx="0" dy="2" in="SourceAlpha" result="shadowOffsetOuter2"/><feGaussianBlur stdDeviation="2" in="shadowOffsetOuter2" result="shadowBlurOuter2"/><feColorMatrix values="0 0 0 0 0.25869511   0 0 0 0 0.461476445   0 0 0 0 0.570764243  0 0 0 0.0998358243 0" type="matrix" in="shadowBlurOuter2" result="shadowMatrixOuter2"/><feMerge><feMergeNode in="shadowMatrixOuter1"/><feMergeNode in="shadowMatrixOuter2"/></feMerge></filter><circle id="path-3" cx="53.5" cy="48" r="15"/><filter x="-23.3%" y="-16.7%" width="146.7%" height="146.7%" filterUnits="objectBoundingBox" id="filter-4"><feOffset dx="0" dy="2" in="SourceAlpha" result="shadowOffsetOuter1"/><feGaussianBlur stdDeviation="2" in="shadowOffsetOuter1" result="shadowBlurOuter1"/><feColorMatrix values="0 0 0 0 0.25869511   0 0 0 0 0.461476445   0 0 0 0 0.570764243  0 0 0 0.0998358243 0" type="matrix" in="shadowBlurOuter1"/></filter><path d="M8.375,0.288675135 L11.2721143,1.96132487 C11.5815154,2.13995766 11.7721143,2.47008468 11.7721143,2.82735027 L11.7721143,6.64686584 L11.7721143,6.64686584 L15.1861234,8.70829405 C15.4859673,8.88934415 15.6692286,9.2140781 15.6692286,9.564343 L15.6692286,12.9226497 C15.6692286,13.2799153 15.4786297,13.6100423 15.1692286,13.7886751 L8.375,17.7113249 C8.06559892,17.8899577 7.68440108,17.8899577 7.375,17.7113249 L0.580771366,13.7886751 C0.271370289,13.6100423 0.0807713659,13.2799153 0.0807713659,12.9226497 L0.0807713659,5.07735027 C0.0807713659,4.72008468 0.271370289,4.38995766 0.580771366,4.21132487 L7.375,0.288675135 C7.68440108,0.11004234 8.06559892,0.11004234 8.375,0.288675135 Z" id="path-5"/><circle id="path-7" cx="33" cy="48" r="15"/><filter x="-23.3%" y="-16.7%" width="146.7%" height="146.7%" filterUnits="objectBoundingBox" id="filter-8"><feOffset dx="0" dy="2" in="SourceAlpha" result="shadowOffsetOuter1"/><feGaussianBlur stdDeviation="2" in="shadowOffsetOuter1" result="shadowBlurOuter1"/><feColorMatrix values="0 0 0 0 0.25869511   0 0 0 0 0.461476445   0 0 0 0 0.570764243  0 0 0 0.0998358243 0" type="matrix" in="shadowBlurOuter1"/></filter><polygon id="path-9" points="0 0.159632432 15.6775135 0.159632432 15.6775135 17.8378216 0 17.8378216"/><path d="M8,15.3333333 L262,15.3333333 C266.418278,15.3333333 270,18.9150553 270,23.3333333 L270,70.6666667 C270,75.0849447 266.418278,78.6666667 262,78.6666667 L8,78.6666667 C3.581722,78.6666667 4.46530217e-15,75.0849447 0,70.6666667 L0,23.3333333 C-5.41083001e-16,18.9150553 3.581722,15.3333333 8,15.3333333 Z" id="path-11"/><filter x="-24.1%" y="-86.8%" width="148.1%" height="305.3%" filterUnits="objectBoundingBox" id="filter-12"><feOffset dx="0" dy="10" in="SourceAlpha" result="shadowOffsetOuter1"/><feGaussianBlur stdDeviation="20" in="shadowOffsetOuter1" result="shadowBlurOuter1"/><feColorMatrix values="0 0 0 0 0.25869511   0 0 0 0 0.461476445   0 0 0 0 0.570764243  0 0 0 0.100486866 0" type="matrix" in="shadowBlurOuter1" result="shadowMatrixOuter1"/><feOffset dx="0" dy="2" in="SourceAlpha" result="shadowOffsetOuter2"/><feGaussianBlur stdDeviation="2" in="shadowOffsetOuter2" result="shadowBlurOuter2"/><feColorMatrix values="0 0 0 0 0.25869511   0 0 0 0 0.461476445   0 0 0 0 0.570764243  0 0 0 0.0998358243 0" type="matrix" in="shadowBlurOuter2" result="shadowMatrixOuter2"/><feMerge><feMergeNode in="shadowMatrixOuter1"/><feMergeNode in="shadowMatrixOuter2"/></feMerge></filter><circle id="path-13" cx="52.5" cy="47" r="15"/><filter x="-23.3%" y="-16.7%" width="146.7%" height="146.7%" filterUnits="objectBoundingBox" id="filter-14"><feOffset dx="0" dy="2" in="SourceAlpha" result="shadowOffsetOuter1"/><feGaussianBlur stdDeviation="2" in="shadowOffsetOuter1" result="shadowBlurOuter1"/><feColorMatrix values="0 0 0 0 0.25869511   0 0 0 0 0.461476445   0 0 0 0 0.570764243  0 0 0 0.0998358243 0" type="matrix" in="shadowBlurOuter1"/></filter><circle id="path-15" cx="32" cy="47" r="15"/><filter x="-23.3%" y="-16.7%" width="146.7%" height="146.7%" filterUnits="objectBoundingBox" id="filter-16"><feOffset dx="0" dy="2" in="SourceAlpha" result="shadowOffsetOuter1"/><feGaussianBlur stdDeviation="2" in="shadowOffsetOuter1" result="shadowBlurOuter1"/><feColorMatrix values="0 0 0 0 0.25869511   0 0 0 0 0.461476445   0 0 0 0 0.570764243  0 0 0 0.0998358243 0" type="matrix" in="shadowBlurOuter1"/></filter><path d="M9,16.3333333 L263,16.3333333 C267.418278,16.3333333 271,19.9150553 271,24.3333333 L271,71.6666667 C271,76.0849447 267.418278,79.6666667 263,79.6666667 L9,79.6666667 C4.581722,79.6666667 1,76.0849447 1,71.6666667 L1,24.3333333 C1,19.9150553 4.581722,16.3333333 9,16.3333333 Z" id="path-17"/><filter x="-5.6%" y="-23.7%" width="111.1%" height="147.4%" filterUnits="objectBoundingBox" id="filter-18"><feOffset dx="0" dy="0" in="SourceAlpha" result="shadowOffsetOuter1"/><feGaussianBlur stdDeviation="5" in="shadowOffsetOuter1" result="shadowBlurOuter1"/><feColorMatrix values="0 0 0 0 0.25869511   0 0 0 0 0.461476445   0 0 0 0 0.570764243  0 0 0 0.07 0" type="matrix" in="shadowBlurOuter1" result="shadowMatrixOuter1"/><feOffset dx="0" dy="2" in="SourceAlpha" result="shadowOffsetOuter2"/><feGaussianBlur stdDeviation="2" in="shadowOffsetOuter2" result="shadowBlurOuter2"/><feColorMatrix values="0 0 0 0 0.25869511   0 0 0 0 0.461476445   0 0 0 0 0.570764243  0 0 0 0.0998358243 0" type="matrix" in="shadowBlurOuter2" result="shadowMatrixOuter2"/><feMerge><feMergeNode in="shadowMatrixOuter1"/><feMergeNode in="shadowMatrixOuter2"/></feMerge></filter><circle id="path-19" cx="53.5" cy="48" r="15"/><filter x="-23.3%" y="-16.7%" width="146.7%" height="146.7%" filterUnits="objectBoundingBox" id="filter-20"><feOffset dx="0" dy="2" in="SourceAlpha" result="shadowOffsetOuter1"/><feGaussianBlur stdDeviation="2" in="shadowOffsetOuter1" result="shadowBlurOuter1"/><feColorMatrix values="0 0 0 0 0.25869511   0 0 0 0 0.461476445   0 0 0 0 0.570764243  0 0 0 0.0998358243 0" type="matrix" in="shadowBlurOuter1"/></filter><path d="M0.9,0 L14.4,0 C14.8970563,0 15.3,0.402943725 15.3,0.9 L15.3,11.7 C15.3,12.1970563 14.8970563,12.6 14.4,12.6 L0.9,12.6 C0.402943725,12.6 0,12.1970563 0,11.7 L0,0.9 C0,0.402943725 0.402943725,0 0.9,0 Z" id="path-21"/><circle id="path-23" cx="33" cy="48" r="15"/><filter x="-23.3%" y="-16.7%" width="146.7%" height="146.7%" filterUnits="objectBoundingBox" id="filter-24"><feOffset dx="0" dy="2" in="SourceAlpha" result="shadowOffsetOuter1"/><feGaussianBlur stdDeviation="2" in="shadowOffsetOuter1" result="shadowBlurOuter1"/><feColorMatrix values="0 0 0 0 0.25869511   0 0 0 0 0.461476445   0 0 0 0 0.570764243  0 0 0 0.0998358243 0" type="matrix" in="shadowBlurOuter1"/></filter></defs><g id="Home-Revamp" stroke="none" stroke-width="1" fill="none" fill-rule="evenodd"><g id="1---homepage-part-2" transform="translate(-730.000000, -788.000000)"><g id="home-howitworks-combine" transform="translate(752.255682, 788.400000)"><rect id="Rectangle" fill-opacity="0.0411931818" fill="#4E82EE" x="0" y="0" width="310" height="251" rx="21"/><g id="Group-21" transform="translate(16.744318, 16.600000)"><g id="Group-17"><g id="Rectangle-12-Copy-7"><use fill="black" fill-opacity="1" filter="url(#filter-2)" xlink:href="#path-1"/><use fill="#FFFFFF" fill-rule="evenodd" xlink:href="#path-1"/></g><g id="Oval-Copy-5"><use fill="black" fill-opacity="1" filter="url(#filter-4)" xlink:href="#path-3"/><use fill="#FFFFFF" fill-rule="evenodd" xlink:href="#path-3"/></g><g id="Icons/kintoblock/microservice/small" transform="translate(44.500000, 39.000000)"><g id="illustration/kintoblock/microservice" transform="translate(0.900000, 0.000000)"><mask id="mask-6" fill="white"><use xlink:href="#path-5"/></mask><use id="Polygon" fill="#D6D1F8" xlink:href="#path-5"/><polygon id="Polygon-Copy-4" fill="#B4AAF1" mask="url(#mask-6)" points="11.7721143 2.25 11.7721143 6.6375 7.875 8.775 3.97788568 6.6375"/><path d="M3.97855007,11.25 L7.875,13.5 L7.875,18 L0.305771366,13.6299038 C0.166540881,13.5495191 0.0807713659,13.4009619 0.0807713659,13.2401924 L0.0807713659,4.5 L3.97788568,6.63799438 L3.97855007,11.25 Z" id="Combined-Shape" fill="#9486EC" mask="url(#mask-6)"/><polygon id="Polygon-Copy-6" fill="#F5B9EA" mask="url(#mask-6)" points="7.875 8.78181152 7.875 13.5 3.97788568 11.25 3.97788568 6.64387207"/><path d="M11.7721143,11.249777 L15.669116,9 L15.669116,13.2401924 C15.669116,13.4009619 15.5833464,13.5495191 15.444116,13.6299038 L11.7721143,15.749935 L7.875,18 L7.875,13.5 L11.7721143,11.249777 Z" id="Combined-Shape" fill="#B4AAF1" mask="url(#mask-6)"/><polygon id="Polygon-Copy-6" fill="#F8D4F2" mask="url(#mask-6)" transform="translate(9.823557, 10.071936) scale(-1, 1) translate(-9.823557, -10.071936) " points="11.7721143 8.78181152 11.7721143 13.5 7.875 11.25 7.875 6.64387207"/><polygon id="Polygon-Copy-5" fill="#FDF1FA" mask="url(#mask-6)" points="11.7721143 6.6375 7.875 8.775 3.97788568 6.6375 7.875 4.44375"/></g></g><rect id="Rectangle-Copy-15" fill="#DBE8FB" x="130.997819" y="43.7" width="50" height="9" rx="4.5"/><rect id="Rectangle-Copy-19" fill="#DBE8FB" x="221.866667" y="43.7" width="30" height="9" rx="4.5"/><g id="Group-2" transform="translate(205.997819, 48.000000) rotate(-270.000000) translate(-205.997819, -48.000000) translate(203.497819, 41.500000)" stroke="#4E82EE" stroke-width="1.8"><line x1="2.7" y1="0.475895579" x2="2.7" y2="12.7685785" id="Path-2-Copy" stroke-linecap="round" stroke-linejoin="round"/><ellipse id="Oval-Copy-3" fill="#FFFFFF" cx="2.7" cy="6.62223704" rx="2.25" ry="2.19512195"/></g><g id="Group-6" transform="translate(115.497819, 41.450000)" stroke="#4E82EE"><line x1="1.35" y1="1.79296875" x2="1.35" y2="10.4776343" id="Path-2" stroke-width="1.8" stroke-linecap="round" stroke-linejoin="round"/><path d="M1.35,7.46341463 C5.55131836,7.39964313 7.65197754,5.93765761 7.65197754,3.07745808" id="Line" stroke-width="1.8" stroke-linecap="round" stroke-linejoin="round"/><ellipse id="Oval" stroke-width="0.9" fill="#4E82EE" cx="1.35" cy="1.31707317" rx="1.35" ry="1.31707317"/><ellipse id="Oval-Copy-2" stroke-width="0.9" fill="#4E82EE" cx="1.35" cy="11.5621189" rx="1.35" ry="1.31707317"/><ellipse id="Oval-Copy" stroke-width="0.9" fill="#4E82EE" cx="7.65197754" cy="1.31707317" rx="1.35" ry="1.31707317"/></g><g id="Oval"><use fill="black" fill-opacity="1" filter="url(#filter-8)" xlink:href="#path-7"/><use fill="#FFFFFF" fill-rule="evenodd" xlink:href="#path-7"/></g><g id="Group-6" transform="translate(25.135135, 39.000000)"><g id="Group-3" transform="translate(0.000000, 0.002595)"><mask id="mask-10" fill="white"><use xlink:href="#path-9"/></mask><g id="Clip-2"/><path d="M7.83713514,17.8378216 C7.60054054,17.8378216 7.36475676,17.7758757 7.15783784,17.6560378 L4.99475676,16.3762541 C4.67189189,16.1956054 4.82967568,16.1315514 4.93605405,16.0944162 C5.36708108,15.9449027 5.45416216,15.9103622 5.91405405,15.6496054 C5.96189189,15.6226865 6.02545946,15.6327405 6.07491892,15.6619297 L7.73659459,16.6485243 C7.79675676,16.6817676 7.88172973,16.6817676 7.93718919,16.6485243 L14.4155676,12.909227 C14.4757297,12.8748486 14.5146486,12.8054432 14.5146486,12.7339297 L14.5146486,5.25776757 C14.5146486,5.18463243 14.4757297,5.1162 14.4139459,5.07906486 L7.93832432,1.34317297 C7.87848649,1.30814595 7.79902703,1.30814595 7.7387027,1.34317297 L1.2647027,5.0802 C1.20178378,5.1162 1.16189189,5.18657838 1.16189189,5.25776757 L1.16189189,12.7339297 C1.16189189,12.8054432 1.20178378,12.873227 1.26405405,12.9071189 L3.03875676,13.9324703 C4.00167568,14.4139297 4.59113514,13.8470108 4.59113514,13.277173 L4.59113514,5.89555135 C4.59113514,5.79144324 4.67513514,5.70906486 4.77956757,5.70906486 L5.60091892,5.70906486 C5.70372973,5.70906486 5.7887027,5.79144324 5.7887027,5.89555135 L5.7887027,13.277173 C5.7887027,14.5623081 5.08881081,15.2993351 3.87048649,15.2993351 C3.49605405,15.2993351 3.20124324,15.2993351 2.37827027,14.8937676 L0.679459459,13.9157676 C0.259783784,13.673173 0,13.2196054 0,12.7339297 L0,5.25776757 C0,4.77192973 0.259783784,4.31852432 0.679459459,4.07706486 L7.15783784,0.333551351 C7.56762162,0.101659459 8.11264865,0.101659459 8.51918919,0.333551351 L14.9970811,4.07706486 C15.4165946,4.31965946 15.6776757,4.77192973 15.6776757,5.25776757 L15.6776757,12.7339297 C15.6776757,13.2196054 15.4165946,13.6715514 14.9970811,13.9157676 L8.51918919,17.6560378 C8.31210811,17.7758757 8.07713514,17.8378216 7.83713514,17.8378216" id="Fill-1" fill="#083A45" mask="url(#mask-10)"/></g><path d="M9.8382,12.6897081 C7.00344324,12.6897081 6.40944324,11.3885189 6.40944324,10.2970054 C6.40944324,10.1930595 6.49295676,10.1103568 6.59674054,10.1103568 L7.43430811,10.1103568 C7.52787568,10.1103568 7.60587568,10.1776541 7.62047027,10.2689514 C7.74679459,11.1216 8.12382162,11.5519784 9.8382,11.5519784 C11.2031189,11.5519784 11.7839838,11.2432216 11.7839838,10.5191676 C11.7839838,10.1017622 11.619227,9.79187027 9.49830811,9.5843027 C7.72587568,9.40900541 6.6294973,9.01722162 6.6294973,7.59911351 C6.6294973,6.29208649 7.73122703,5.51257297 9.57841622,5.51257297 C11.6537676,5.51257297 12.6807405,6.2328973 12.8109568,7.7783027 C12.8156595,7.83165405 12.7968486,7.88273514 12.7613351,7.92262703 C12.7259838,7.9596 12.6765243,7.9823027 12.6243081,7.9823027 L11.7834973,7.9823027 C11.6962541,7.9823027 11.619227,7.92035676 11.6015514,7.83587027 C11.3999838,6.93862703 10.9092811,6.65192432 9.57841622,6.65192432 C8.08830811,6.65192432 7.91511892,7.17116757 7.91511892,7.55987027 C7.91511892,8.03111351 8.11960541,8.1683027 10.1315514,8.43473514 C12.1224162,8.69776216 13.0679838,9.07057297 13.0679838,10.4697081 C13.0679838,11.8813297 11.8910108,12.6897081 9.8382,12.6897081" id="Fill-4" fill="#083A45"/></g><path d="M4.528,9.06 C4.816,9.076 5.038,9.034 5.194,8.934 C5.35,8.834 5.428,8.688 5.428,8.496 C5.428,8.16 5.228,7.98 4.828,7.956 L4.828,7.956 L4.504,7.932 C3.96,7.892 3.688,7.576 3.688,6.984 L3.688,6.984 L3.688,4.26 L4.708,4.26 C4.924,4.26 5.09,4.212 5.206,4.116 C5.322,4.02 5.38,3.88 5.38,3.696 C5.38,3.512 5.322,3.372 5.206,3.276 C5.09,3.18 4.924,3.132 4.708,3.132 L4.708,3.132 L3.688,3.132 L3.688,2.028 C3.688,1.812 3.62,1.64 3.484,1.512 C3.348,1.384 3.168,1.32 2.944,1.32 C2.712,1.32 2.528,1.384 2.392,1.512 C2.256,1.64 2.188,1.812 2.188,2.028 L2.188,2.028 L2.188,3.132 L1.588,3.132 C1.372,3.132 1.206,3.18 1.09,3.276 C0.974,3.372 0.916,3.512 0.916,3.696 C0.916,3.88 0.974,4.02 1.09,4.116 C1.206,4.212 1.372,4.26 1.588,4.26 L1.588,4.26 L2.188,4.26 L2.188,6.876 C2.188,8.22 2.86,8.94 4.204,9.036 L4.204,9.036 L4.528,9.06 Z M8.884,9.096 C9.484,9.096 10.01,8.972 10.462,8.724 C10.914,8.476 11.262,8.12 11.506,7.656 C11.75,7.192 11.872,6.652 11.872,6.036 C11.872,5.42 11.75,4.882 11.506,4.422 C11.262,3.962 10.914,3.608 10.462,3.36 C10.01,3.112 9.484,2.988 8.884,2.988 C8.284,2.988 7.758,3.112 7.306,3.36 C6.854,3.608 6.504,3.962 6.256,4.422 C6.008,4.882 5.884,5.42 5.884,6.036 C5.884,6.652 6.008,7.192 6.256,7.656 C6.504,8.12 6.854,8.476 7.306,8.724 C7.758,8.972 8.284,9.096 8.884,9.096 Z M8.872,7.932 C8.392,7.932 8.024,7.772 7.768,7.452 C7.512,7.132 7.384,6.66 7.384,6.036 C7.384,5.42 7.514,4.95 7.774,4.626 C8.034,4.302 8.404,4.14 8.884,4.14 C9.364,4.14 9.732,4.302 9.988,4.626 C10.244,4.95 10.372,5.42 10.372,6.036 C10.372,6.66 10.244,7.132 9.988,7.452 C9.732,7.772 9.36,7.932 8.872,7.932 Z M15.388,9.096 C15.812,9.096 16.19,9.004 16.522,8.82 C16.854,8.636 17.108,8.38 17.284,8.052 L17.284,8.052 L17.284,8.352 C17.284,8.568 17.352,8.74 17.488,8.868 C17.624,8.996 17.804,9.06 18.028,9.06 C18.252,9.06 18.432,8.996 18.568,8.868 C18.704,8.74 18.772,8.568 18.772,8.352 L18.772,8.352 L18.772,1.176 C18.772,0.968 18.7,0.8 18.556,0.672 C18.412,0.544 18.228,0.48 18.004,0.48 C17.78,0.48 17.602,0.542 17.47,0.666 C17.338,0.79 17.272,0.952 17.272,1.152 L17.272,1.152 L17.272,3.996 C17.096,3.676 16.844,3.428 16.516,3.252 C16.188,3.076 15.812,2.988 15.388,2.988 C14.876,2.988 14.424,3.112 14.032,3.36 C13.64,3.608 13.334,3.96 13.114,4.416 C12.894,4.872 12.784,5.404 12.784,6.012 C12.784,6.62 12.894,7.158 13.114,7.626 C13.334,8.094 13.642,8.456 14.038,8.712 C14.434,8.968 14.884,9.096 15.388,9.096 Z M15.784,7.932 C15.312,7.932 14.944,7.764 14.68,7.428 C14.416,7.092 14.284,6.62 14.284,6.012 C14.284,5.412 14.416,4.952 14.68,4.632 C14.944,4.312 15.316,4.152 15.796,4.152 C16.268,4.152 16.634,4.314 16.894,4.638 C17.154,4.962 17.284,5.428 17.284,6.036 C17.284,6.644 17.154,7.112 16.894,7.44 C16.634,7.768 16.264,7.932 15.784,7.932 Z M22.996,9.096 C23.596,9.096 24.122,8.972 24.574,8.724 C25.026,8.476 25.374,8.12 25.618,7.656 C25.862,7.192 25.984,6.652 25.984,6.036 C25.984,5.42 25.862,4.882 25.618,4.422 C25.374,3.962 25.026,3.608 24.574,3.36 C24.122,3.112 23.596,2.988 22.996,2.988 C22.396,2.988 21.87,3.112 21.418,3.36 C20.966,3.608 20.616,3.962 20.368,4.422 C20.12,4.882 19.996,5.42 19.996,6.036 C19.996,6.652 20.12,7.192 20.368,7.656 C20.616,8.12 20.966,8.476 21.418,8.724 C21.87,8.972 22.396,9.096 22.996,9.096 Z M22.984,7.932 C22.504,7.932 22.136,7.772 21.88,7.452 C21.624,7.132 21.496,6.66 21.496,6.036 C21.496,5.42 21.626,4.95 21.886,4.626 C22.146,4.302 22.516,4.14 22.996,4.14 C23.476,4.14 23.844,4.302 24.1,4.626 C24.356,4.95 24.484,5.42 24.484,6.036 C24.484,6.66 24.356,7.132 24.1,7.452 C23.844,7.772 23.472,7.932 22.984,7.932 Z M27.964,9.072 C28.18,9.072 28.36,9.01 28.504,8.886 C28.648,8.762 28.72,8.584 28.72,8.352 L28.72,8.352 L28.72,1.188 C28.72,0.956 28.648,0.78 28.504,0.66 C28.36,0.54 28.18,0.48 27.964,0.48 C27.748,0.48 27.57,0.54 27.43,0.66 C27.29,0.78 27.22,0.956 27.22,1.188 L27.22,1.188 L27.22,8.352 C27.22,8.584 27.29,8.762 27.43,8.886 C27.57,9.01 27.748,9.072 27.964,9.072 Z M31.012,1.944 C31.284,1.944 31.5,1.87 31.66,1.722 C31.82,1.574 31.9,1.38 31.9,1.14 C31.9,0.9 31.818,0.708 31.654,0.564 C31.49,0.42 31.276,0.348 31.012,0.348 C30.74,0.348 30.524,0.42 30.364,0.564 C30.204,0.708 30.124,0.9 30.124,1.14 C30.124,1.38 30.204,1.574 30.364,1.722 C30.524,1.87 30.74,1.944 31.012,1.944 Z M31.012,9.072 C31.228,9.072 31.408,9.01 31.552,8.886 C31.696,8.762 31.768,8.584 31.768,8.352 L31.768,8.352 L31.768,3.72 C31.768,3.488 31.696,3.312 31.552,3.192 C31.408,3.072 31.228,3.012 31.012,3.012 C30.796,3.012 30.618,3.072 30.478,3.192 C30.338,3.312 30.268,3.488 30.268,3.72 L30.268,3.72 L30.268,8.352 C30.268,8.584 30.338,8.762 30.478,8.886 C30.618,9.01 30.796,9.072 31.012,9.072 Z M35.44,9.096 C36.192,9.096 36.794,8.932 37.246,8.604 C37.698,8.276 37.924,7.84 37.924,7.296 C37.924,6.96 37.858,6.684 37.726,6.468 C37.594,6.252 37.376,6.072 37.072,5.928 C36.768,5.784 36.348,5.656 35.812,5.544 C35.308,5.44 34.968,5.336 34.792,5.232 C34.616,5.128 34.528,4.976 34.528,4.776 C34.528,4.568 34.614,4.404 34.786,4.284 C34.958,4.164 35.192,4.104 35.488,4.104 C35.736,4.104 35.944,4.134 36.112,4.194 C36.28,4.254 36.48,4.344 36.712,4.464 C36.84,4.536 36.946,4.59 37.03,4.626 C37.114,4.662 37.2,4.68 37.288,4.68 C37.416,4.68 37.524,4.626 37.612,4.518 C37.7,4.41 37.744,4.276 37.744,4.116 C37.744,3.852 37.616,3.64 37.36,3.48 C37.112,3.32 36.832,3.198 36.52,3.114 C36.208,3.03 35.884,2.988 35.548,2.988 C35.084,2.988 34.67,3.066 34.306,3.222 C33.942,3.378 33.656,3.598 33.448,3.882 C33.24,4.166 33.136,4.484 33.136,4.836 C33.136,5.3 33.29,5.664 33.598,5.928 C33.906,6.192 34.416,6.396 35.128,6.54 C35.528,6.628 35.826,6.706 36.022,6.774 C36.218,6.842 36.354,6.916 36.43,6.996 C36.506,7.076 36.544,7.184 36.544,7.32 C36.544,7.52 36.45,7.676 36.262,7.788 C36.074,7.9 35.812,7.956 35.476,7.956 C35.148,7.956 34.878,7.924 34.666,7.86 C34.454,7.796 34.22,7.704 33.964,7.584 C33.724,7.456 33.536,7.392 33.4,7.392 C33.272,7.392 33.164,7.442 33.076,7.542 C32.988,7.642 32.944,7.772 32.944,7.932 C32.944,8.212 33.072,8.428 33.328,8.58 C33.864,8.924 34.568,9.096 35.44,9.096 Z M41.884,9.06 C42.172,9.076 42.394,9.034 42.55,8.934 C42.706,8.834 42.784,8.688 42.784,8.496 C42.784,8.16 42.584,7.98 42.184,7.956 L42.184,7.956 L41.86,7.932 C41.316,7.892 41.044,7.576 41.044,6.984 L41.044,6.984 L41.044,4.26 L42.064,4.26 C42.28,4.26 42.446,4.212 42.562,4.116 C42.678,4.02 42.736,3.88 42.736,3.696 C42.736,3.512 42.678,3.372 42.562,3.276 C42.446,3.18 42.28,3.132 42.064,3.132 L42.064,3.132 L41.044,3.132 L41.044,2.028 C41.044,1.812 40.976,1.64 40.84,1.512 C40.704,1.384 40.524,1.32 40.3,1.32 C40.068,1.32 39.884,1.384 39.748,1.512 C39.612,1.64 39.544,1.812 39.544,2.028 L39.544,2.028 L39.544,3.132 L38.944,3.132 C38.728,3.132 38.562,3.18 38.446,3.276 C38.33,3.372 38.272,3.512 38.272,3.696 C38.272,3.88 38.33,4.02 38.446,4.116 C38.562,4.212 38.728,4.26 38.944,4.26 L38.944,4.26 L39.544,4.26 L39.544,6.876 C39.544,8.22 40.216,8.94 41.56,9.036 L41.56,9.036 L41.884,9.06 Z M48.688,9.096 C49.072,9.096 49.41,9.008 49.702,8.832 C49.994,8.656 50.208,8.412 50.344,8.1 L50.344,8.1 L50.344,8.364 C50.344,8.572 50.41,8.74 50.542,8.868 C50.674,8.996 50.844,9.06 51.052,9.06 C51.276,9.06 51.452,8.998 51.58,8.874 C51.708,8.75 51.772,8.58 51.772,8.364 L51.772,8.364 L51.772,5.436 C51.772,4.612 51.574,3.998 51.178,3.594 C50.782,3.19 50.176,2.988 49.36,2.988 C48.984,2.988 48.602,3.032 48.214,3.12 C47.826,3.208 47.492,3.328 47.212,3.48 C47.052,3.568 46.938,3.662 46.87,3.762 C46.802,3.862 46.768,3.98 46.768,4.116 C46.768,4.284 46.814,4.42 46.906,4.524 C46.998,4.628 47.116,4.68 47.26,4.68 C47.356,4.68 47.508,4.628 47.716,4.524 C48.044,4.396 48.328,4.298 48.568,4.23 C48.808,4.162 49.044,4.128 49.276,4.128 C49.652,4.128 49.924,4.218 50.092,4.398 C50.26,4.578 50.344,4.864 50.344,5.256 L50.344,5.256 L50.344,5.532 L50.044,5.532 C49.172,5.532 48.488,5.588 47.992,5.7 C47.496,5.812 47.138,5.992 46.918,6.24 C46.698,6.488 46.588,6.828 46.588,7.26 C46.588,7.604 46.68,7.916 46.864,8.196 C47.048,8.476 47.3,8.696 47.62,8.856 C47.94,9.016 48.296,9.096 48.688,9.096 Z M48.988,8.016 C48.724,8.016 48.502,7.934 48.322,7.77 C48.142,7.606 48.052,7.396 48.052,7.14 C48.052,6.932 48.116,6.768 48.244,6.648 C48.372,6.528 48.584,6.444 48.88,6.396 C49.176,6.348 49.592,6.324 50.128,6.324 L50.128,6.324 L50.344,6.324 L50.344,6.576 C50.344,7 50.218,7.346 49.966,7.614 C49.714,7.882 49.388,8.016 48.988,8.016 Z M54.052,11.22 C54.276,11.22 54.456,11.16 54.592,11.04 C54.728,10.92 54.796,10.756 54.796,10.548 L54.796,10.548 L54.796,8.1 C54.972,8.412 55.224,8.656 55.552,8.832 C55.88,9.008 56.252,9.096 56.668,9.096 C57.18,9.096 57.632,8.972 58.024,8.724 C58.416,8.476 58.722,8.124 58.942,7.668 C59.162,7.212 59.272,6.68 59.272,6.072 C59.272,5.464 59.162,4.926 58.942,4.458 C58.722,3.99 58.414,3.628 58.018,3.372 C57.622,3.116 57.172,2.988 56.668,2.988 C56.244,2.988 55.866,3.078 55.534,3.258 C55.202,3.438 54.948,3.692 54.772,4.02 L54.772,4.02 L54.772,3.72 C54.772,3.504 54.704,3.332 54.568,3.204 C54.432,3.076 54.252,3.012 54.028,3.012 C53.804,3.012 53.626,3.076 53.494,3.204 C53.362,3.332 53.296,3.504 53.296,3.72 L53.296,3.72 L53.296,10.524 C53.296,10.732 53.366,10.9 53.506,11.028 C53.646,11.156 53.828,11.22 54.052,11.22 Z M56.272,7.932 C55.792,7.932 55.422,7.768 55.162,7.44 C54.902,7.112 54.772,6.648 54.772,6.048 C54.772,5.44 54.902,4.972 55.162,4.644 C55.422,4.316 55.792,4.152 56.272,4.152 C56.744,4.152 57.112,4.32 57.376,4.656 C57.64,4.992 57.772,5.464 57.772,6.072 C57.772,6.664 57.64,7.122 57.376,7.446 C57.112,7.77 56.744,7.932 56.272,7.932 Z M61.252,1.944 C61.524,1.944 61.74,1.87 61.9,1.722 C62.06,1.574 62.14,1.38 62.14,1.14 C62.14,0.9 62.058,0.708 61.894,0.564 C61.73,0.42 61.516,0.348 61.252,0.348 C60.98,0.348 60.764,0.42 60.604,0.564 C60.444,0.708 60.364,0.9 60.364,1.14 C60.364,1.38 60.444,1.574 60.604,1.722 C60.764,1.87 60.98,1.944 61.252,1.944 Z M61.252,9.072 C61.468,9.072 61.648,9.01 61.792,8.886 C61.936,8.762 62.008,8.584 62.008,8.352 L62.008,8.352 L62.008,3.72 C62.008,3.488 61.936,3.312 61.792,3.192 C61.648,3.072 61.468,3.012 61.252,3.012 C61.036,3.012 60.858,3.072 60.718,3.192 C60.578,3.312 60.508,3.488 60.508,3.72 L60.508,3.72 L60.508,8.352 C60.508,8.584 60.578,8.762 60.718,8.886 C60.858,9.01 61.036,9.072 61.252,9.072 Z" id="todolistapi" fill="#083A45" fill-rule="nonzero"/></g><g id="Group-16" transform="translate(1.000000, 95.000000)"><g id="Rectangle-12-Copy-7"><use fill="black" fill-opacity="1" filter="url(#filter-12)" xlink:href="#path-11"/><use fill="#FFFFFF" fill-rule="evenodd" xlink:href="#path-11"/></g><g id="Oval-Copy-5"><use fill="black" fill-opacity="1" filter="url(#filter-14)" xlink:href="#path-13"/><use fill="#FFFFFF" fill-rule="evenodd" xlink:href="#path-13"/></g><g id="Icons/kintoblock/custom/small" transform="translate(43.500000, 38.000000)"><path d="M9.24529233,9.06738768 L16.7317025,13.2821516 C16.8520168,13.3498872 16.8946403,13.5023318 16.8269047,13.6226462 C16.8044736,13.662489 16.7715454,13.6954173 16.7317025,13.7178484 L9.24529233,17.9326123 C9.09300215,18.01835 8.90699785,18.01835 8.75470767,17.9326123 L1.26829752,13.7178484 C1.14798318,13.6501128 1.1053597,13.4976682 1.17309531,13.3773538 C1.19552639,13.337511 1.22845465,13.3045827 1.26829752,13.2821516 L8.75470767,9.06738768 C8.90699785,8.98165004 9.09300215,8.98165004 9.24529233,9.06738768 Z" id="Polygon" fill="#FF943C"/><path d="M9.24529233,5.91738768 L16.7317025,10.1321516 C16.8520168,10.1998872 16.8946403,10.3523318 16.8269047,10.4726462 C16.8044736,10.512489 16.7715454,10.5454173 16.7317025,10.5678484 L9.24529233,14.7826123 C9.09300215,14.86835 8.90699785,14.86835 8.75470767,14.7826123 L1.26829752,10.5678484 C1.14798318,10.5001128 1.1053597,10.3476682 1.17309531,10.2273538 C1.19552639,10.187511 1.22845465,10.1545827 1.26829752,10.1321516 L8.75470767,5.91738768 C8.90699785,5.83165004 9.09300215,5.83165004 9.24529233,5.91738768 Z" id="Polygon-Copy" fill="#FFB476"/><path d="M9.24529233,3.21738768 L16.7317025,7.43215162 C16.8520168,7.49988722 16.8946403,7.65233183 16.8269047,7.77264617 C16.8044736,7.81248904 16.7715454,7.8454173 16.7317025,7.86784838 L9.24529233,12.0826123 C9.09300215,12.16835 8.90699785,12.16835 8.75470767,12.0826123 L1.26829752,7.86784838 C1.14798318,7.80011278 1.1053597,7.64766817 1.17309531,7.52735383 C1.19552639,7.48751096 1.22845465,7.4545827 1.26829752,7.43215162 L8.75470767,3.21738768 C8.90699785,3.13165004 9.09300215,3.13165004 9.24529233,3.21738768 Z" id="Polygon-Copy-3" fill="#FFD978"/><path d="M9.24529233,0.0673876832 L16.7317025,4.28215162 C16.8520168,4.34988722 16.8946403,4.50233183 16.8269047,4.62264617 C16.8044736,4.66248904 16.7715454,4.6954173 16.7317025,4.71784838 L9.24529233,8.93261232 C9.09300215,9.01834996 8.90699785,9.01834996 8.75470767,8.93261232 L1.26829752,4.71784838 C1.14798318,4.65011278 1.1053597,4.49766817 1.17309531,4.37735383 C1.19552639,4.33751096 1.22845465,4.3045827 1.26829752,4.28215162 L8.75470767,0.0673876832 C8.90699785,-0.0183499631 9.09300215,-0.0183499631 9.24529233,0.0673876832 Z" id="Polygon-Copy-2" fill="#FFF37C"/></g><g id="Oval"><use fill="black" fill-opacity="1" filter="url(#filter-16)" xlink:href="#path-15"/><use fill="#FFFFFF" fill-rule="evenodd" xlink:href="#path-15"/></g><g id="mongo" transform="translate(27.500000, 38.000000)" fill="#083A45" fill-rule="nonzero"><path d="M4.489875,14.614875 C4.501875,14.6085 4.50975,14.604375 4.50975,14.604375 C4.50975,14.602125 4.509375,14.599875 4.509375,14.597625 C4.502625,14.603625 4.496625,14.608875 4.489875,14.614875 Z" id="Path"/><g id="Group"><path d="M8.534625,6.891 C7.6215,2.8665 4.71975,0.047625 4.71975,0.047625 L4.71975,0.053625 C5.8305,4.766625 4.94475,15.4815 4.94475,15.4815 C4.94475,15.4815 9.484125,12.430125 8.534625,6.891 Z" id="Path"/><path d="M4.16325,0.053625 C4.157625,0.03 4.150875,0.011625 4.145625,0 C4.118625,0.355125 0.561,3.51075 0.343125,8.08275 C0.124125,12.65475 4.388625,15.4815 4.388625,15.4815 C4.388625,15.4815 5.274,4.767 4.16325,0.053625 Z" id="Path"/></g><path d="M4.72425,16.038 C4.72425,16.038 4.447875,15.853875 4.040625,15.506625 C4.040625,15.506625 4.0395,15.50625 4.0395,15.50625 C4.67925,16.432875 4.3755,18 4.3755,18 L4.9755,18 C4.9755,18 4.866375,16.700625 4.99875,16.105875 C5.038875,15.925875 5.290875,15.624 5.399625,15.49125 L5.399625,15.49125 C4.999875,15.852375 4.72425,16.038 4.72425,16.038 Z" id="Path"/></g><rect id="Rectangle-Copy-15" fill="#DBE8FB" x="129.997819" y="42.7" width="50" height="9" rx="4.5"/><rect id="Rectangle-Copy-19" fill="#DBE8FB" x="220.866667" y="42.7" width="30" height="9" rx="4.5"/><g id="Group-2" transform="translate(204.997819, 47.000000) rotate(-270.000000) translate(-204.997819, -47.000000) translate(202.497819, 40.500000)" stroke="#4E82EE" stroke-width="1.8"><line x1="2.7" y1="0.475895579" x2="2.7" y2="12.7685785" id="Path-2-Copy" stroke-linecap="round" stroke-linejoin="round"/><ellipse id="Oval-Copy-3" fill="#FFFFFF" cx="2.7" cy="6.62223704" rx="2.25" ry="2.19512195"/></g><g id="Group-6" transform="translate(114.497819, 40.450000)" stroke="#4E82EE"><line x1="1.35" y1="1.79296875" x2="1.35" y2="10.4776343" id="Path-2" stroke-width="1.8" stroke-linecap="round" stroke-linejoin="round"/><path d="M1.35,7.46341463 C5.55131836,7.39964313 7.65197754,5.93765761 7.65197754,3.07745808" id="Line" stroke-width="1.8" stroke-linecap="round" stroke-linejoin="round"/><ellipse id="Oval" stroke-width="0.9" fill="#4E82EE" cx="1.35" cy="1.31707317" rx="1.35" ry="1.31707317"/><ellipse id="Oval-Copy-2" stroke-width="0.9" fill="#4E82EE" cx="1.35" cy="11.5621189" rx="1.35" ry="1.31707317"/><ellipse id="Oval-Copy" stroke-width="0.9" fill="#4E82EE" cx="7.65197754" cy="1.31707317" rx="1.35" ry="1.31707317"/></g><path d="M8.976,9.072 C9.2,9.072 9.382,9.01 9.522,8.886 C9.662,8.762 9.732,8.584 9.732,8.352 L9.732,8.352 L9.732,5.4 C9.732,4.552 9.562,3.938 9.222,3.558 C8.882,3.178 8.392,2.988 7.752,2.988 C7.32,2.988 6.932,3.088 6.588,3.288 C6.244,3.488 5.984,3.756 5.808,4.092 C5.512,3.356 4.924,2.988 4.044,2.988 C3.644,2.988 3.29,3.072 2.982,3.24 C2.674,3.408 2.428,3.652 2.244,3.972 L2.244,3.972 L2.244,3.684 C2.244,3.468 2.178,3.302 2.046,3.186 C1.914,3.07 1.744,3.012 1.536,3.012 C1.32,3.012 1.14,3.072 0.996,3.192 C0.852,3.312 0.78,3.484 0.78,3.708 L0.78,3.708 L0.78,8.352 C0.78,8.584 0.85,8.762 0.99,8.886 C1.13,9.01 1.308,9.072 1.524,9.072 C1.74,9.072 1.92,9.01 2.064,8.886 C2.208,8.762 2.28,8.584 2.28,8.352 L2.28,8.352 L2.28,5.676 C2.28,5.212 2.394,4.846 2.622,4.578 C2.85,4.31 3.16,4.176 3.552,4.176 C3.872,4.176 4.11,4.27 4.266,4.458 C4.422,4.646 4.5,4.96 4.5,5.4 L4.5,5.4 L4.5,8.352 C4.5,8.584 4.572,8.762 4.716,8.886 C4.86,9.01 5.04,9.072 5.256,9.072 C5.472,9.072 5.65,9.01 5.79,8.886 C5.93,8.762 6,8.584 6,8.352 L6,8.352 L6,5.676 C6,5.212 6.116,4.846 6.348,4.578 C6.58,4.31 6.892,4.176 7.284,4.176 C7.604,4.176 7.842,4.27 7.998,4.458 C8.154,4.646 8.232,4.96 8.232,5.4 L8.232,5.4 L8.232,8.352 C8.232,8.584 8.302,8.762 8.442,8.886 C8.582,9.01 8.76,9.072 8.976,9.072 Z M13.932,9.096 C14.532,9.096 15.058,8.972 15.51,8.724 C15.962,8.476 16.31,8.12 16.554,7.656 C16.798,7.192 16.92,6.652 16.92,6.036 C16.92,5.42 16.798,4.882 16.554,4.422 C16.31,3.962 15.962,3.608 15.51,3.36 C15.058,3.112 14.532,2.988 13.932,2.988 C13.332,2.988 12.806,3.112 12.354,3.36 C11.902,3.608 11.552,3.962 11.304,4.422 C11.056,4.882 10.932,5.42 10.932,6.036 C10.932,6.652 11.056,7.192 11.304,7.656 C11.552,8.12 11.902,8.476 12.354,8.724 C12.806,8.972 13.332,9.096 13.932,9.096 Z M13.92,7.932 C13.44,7.932 13.072,7.772 12.816,7.452 C12.56,7.132 12.432,6.66 12.432,6.036 C12.432,5.42 12.562,4.95 12.822,4.626 C13.082,4.302 13.452,4.14 13.932,4.14 C14.412,4.14 14.78,4.302 15.036,4.626 C15.292,4.95 15.42,5.42 15.42,6.036 C15.42,6.66 15.292,7.132 15.036,7.452 C14.78,7.772 14.408,7.932 13.92,7.932 Z M22.908,9.072 C23.14,9.072 23.322,9.008 23.454,8.88 C23.586,8.752 23.652,8.576 23.652,8.352 L23.652,8.352 L23.652,5.4 C23.652,4.592 23.48,3.988 23.136,3.588 C22.792,3.188 22.268,2.988 21.564,2.988 C21.14,2.988 20.76,3.076 20.424,3.252 C20.088,3.428 19.82,3.68 19.62,4.008 L19.62,4.008 L19.62,3.684 C19.62,3.484 19.554,3.322 19.422,3.198 C19.29,3.074 19.12,3.012 18.912,3.012 C18.68,3.012 18.496,3.076 18.36,3.204 C18.224,3.332 18.156,3.5 18.156,3.708 L18.156,3.708 L18.156,8.352 C18.156,8.576 18.222,8.752 18.354,8.88 C18.486,9.008 18.668,9.072 18.9,9.072 C19.132,9.072 19.316,9.008 19.452,8.88 C19.588,8.752 19.656,8.576 19.656,8.352 L19.656,8.352 L19.656,5.676 C19.656,5.22 19.786,4.856 20.046,4.584 C20.306,4.312 20.652,4.176 21.084,4.176 C21.452,4.176 21.722,4.28 21.894,4.488 C22.066,4.696 22.152,5.028 22.152,5.484 L22.152,5.484 L22.152,8.352 C22.152,8.576 22.22,8.752 22.356,8.88 C22.492,9.008 22.676,9.072 22.908,9.072 Z M27.852,11.256 C28.852,11.256 29.608,11.02 30.12,10.548 C30.632,10.076 30.888,9.38 30.888,8.46 L30.888,8.46 L30.888,3.72 C30.888,3.504 30.82,3.332 30.684,3.204 C30.548,3.076 30.368,3.012 30.144,3.012 C29.92,3.012 29.74,3.076 29.604,3.204 C29.468,3.332 29.4,3.5 29.4,3.708 L29.4,3.708 L29.4,4.02 C29.224,3.692 28.968,3.438 28.632,3.258 C28.296,3.078 27.912,2.988 27.48,2.988 C26.968,2.988 26.512,3.11 26.112,3.354 C25.712,3.598 25.402,3.942 25.182,4.386 C24.962,4.83 24.852,5.34 24.852,5.916 C24.852,6.492 24.964,7 25.188,7.44 C25.412,7.88 25.722,8.222 26.118,8.466 C26.514,8.71 26.968,8.832 27.48,8.832 C27.912,8.832 28.296,8.742 28.632,8.562 C28.968,8.382 29.224,8.128 29.4,7.8 L29.4,7.8 L29.4,8.568 C29.4,9.592 28.876,10.104 27.828,10.104 C27.532,10.104 27.27,10.072 27.042,10.008 C26.814,9.944 26.556,9.852 26.268,9.732 C26.156,9.684 26.048,9.642 25.944,9.606 C25.84,9.57 25.752,9.552 25.68,9.552 C25.544,9.552 25.434,9.604 25.35,9.708 C25.266,9.812 25.224,9.952 25.224,10.128 C25.224,10.376 25.372,10.588 25.668,10.764 C26.252,11.092 26.98,11.256 27.852,11.256 Z M27.876,7.668 C27.404,7.668 27.032,7.512 26.76,7.2 C26.488,6.888 26.352,6.46 26.352,5.916 C26.352,5.364 26.488,4.932 26.76,4.62 C27.032,4.308 27.404,4.152 27.876,4.152 C28.356,4.152 28.73,4.308 28.998,4.62 C29.266,4.932 29.4,5.364 29.4,5.916 C29.4,6.46 29.266,6.888 28.998,7.2 C28.73,7.512 28.356,7.668 27.876,7.668 Z M35.112,9.096 C35.712,9.096 36.238,8.972 36.69,8.724 C37.142,8.476 37.49,8.12 37.734,7.656 C37.978,7.192 38.1,6.652 38.1,6.036 C38.1,5.42 37.978,4.882 37.734,4.422 C37.49,3.962 37.142,3.608 36.69,3.36 C36.238,3.112 35.712,2.988 35.112,2.988 C34.512,2.988 33.986,3.112 33.534,3.36 C33.082,3.608 32.732,3.962 32.484,4.422 C32.236,4.882 32.112,5.42 32.112,6.036 C32.112,6.652 32.236,7.192 32.484,7.656 C32.732,8.12 33.082,8.476 33.534,8.724 C33.986,8.972 34.512,9.096 35.112,9.096 Z M35.1,7.932 C34.62,7.932 34.252,7.772 33.996,7.452 C33.74,7.132 33.612,6.66 33.612,6.036 C33.612,5.42 33.742,4.95 34.002,4.626 C34.262,4.302 34.632,4.14 35.112,4.14 C35.592,4.14 35.96,4.302 36.216,4.626 C36.472,4.95 36.6,5.42 36.6,6.036 C36.6,6.66 36.472,7.132 36.216,7.452 C35.96,7.772 35.588,7.932 35.1,7.932 Z M41.616,9.096 C42.04,9.096 42.418,9.004 42.75,8.82 C43.082,8.636 43.336,8.38 43.512,8.052 L43.512,8.052 L43.512,8.352 C43.512,8.568 43.58,8.74 43.716,8.868 C43.852,8.996 44.032,9.06 44.256,9.06 C44.48,9.06 44.66,8.996 44.796,8.868 C44.932,8.74 45,8.568 45,8.352 L45,8.352 L45,1.176 C45,0.968 44.928,0.8 44.784,0.672 C44.64,0.544 44.456,0.48 44.232,0.48 C44.008,0.48 43.83,0.542 43.698,0.666 C43.566,0.79 43.5,0.952 43.5,1.152 L43.5,1.152 L43.5,3.996 C43.324,3.676 43.072,3.428 42.744,3.252 C42.416,3.076 42.04,2.988 41.616,2.988 C41.104,2.988 40.652,3.112 40.26,3.36 C39.868,3.608 39.562,3.96 39.342,4.416 C39.122,4.872 39.012,5.404 39.012,6.012 C39.012,6.62 39.122,7.158 39.342,7.626 C39.562,8.094 39.87,8.456 40.266,8.712 C40.662,8.968 41.112,9.096 41.616,9.096 Z M42.012,7.932 C41.54,7.932 41.172,7.764 40.908,7.428 C40.644,7.092 40.512,6.62 40.512,6.012 C40.512,5.412 40.644,4.952 40.908,4.632 C41.172,4.312 41.544,4.152 42.024,4.152 C42.496,4.152 42.862,4.314 43.122,4.638 C43.382,4.962 43.512,5.428 43.512,6.036 C43.512,6.644 43.382,7.112 43.122,7.44 C42.862,7.768 42.492,7.932 42.012,7.932 Z M49.92,9.096 C50.424,9.096 50.874,8.968 51.27,8.712 C51.666,8.456 51.974,8.094 52.194,7.626 C52.414,7.158 52.524,6.62 52.524,6.012 C52.524,5.404 52.414,4.872 52.194,4.416 C51.974,3.96 51.668,3.608 51.276,3.36 C50.884,3.112 50.432,2.988 49.92,2.988 C49.504,2.988 49.132,3.074 48.804,3.246 C48.476,3.418 48.224,3.664 48.048,3.984 L48.048,3.984 L48.048,1.152 C48.048,0.944 47.98,0.78 47.844,0.66 C47.708,0.54 47.528,0.48 47.304,0.48 C47.08,0.48 46.898,0.544 46.758,0.672 C46.618,0.8 46.548,0.968 46.548,1.176 L46.548,1.176 L46.548,8.352 C46.548,8.568 46.614,8.74 46.746,8.868 C46.878,8.996 47.056,9.06 47.28,9.06 C47.504,9.06 47.684,8.996 47.82,8.868 C47.956,8.74 48.024,8.568 48.024,8.352 L48.024,8.352 L48.024,8.052 C48.2,8.38 48.454,8.636 48.786,8.82 C49.118,9.004 49.496,9.096 49.92,9.096 Z M49.524,7.932 C49.044,7.932 48.674,7.768 48.414,7.44 C48.154,7.112 48.024,6.644 48.024,6.036 C48.024,5.428 48.154,4.962 48.414,4.638 C48.674,4.314 49.044,4.152 49.524,4.152 C50.004,4.152 50.374,4.312 50.634,4.632 C50.894,4.952 51.024,5.412 51.024,6.012 C51.024,6.62 50.892,7.092 50.628,7.428 C50.364,7.764 49.996,7.932 49.524,7.932 Z" id="mongodb" fill="#083A45" fill-rule="nonzero"/></g><g id="Group-18" transform="translate(0.000000, 189.000000)"><g id="Group-15"><path d="M4.528,9.06 C4.816,9.076 5.038,9.034 5.194,8.934 C5.35,8.834 5.428,8.688 5.428,8.496 C5.428,8.16 5.228,7.98 4.828,7.956 L4.828,7.956 L4.504,7.932 C3.96,7.892 3.688,7.576 3.688,6.984 L3.688,6.984 L3.688,4.26 L4.708,4.26 C4.924,4.26 5.09,4.212 5.206,4.116 C5.322,4.02 5.38,3.88 5.38,3.696 C5.38,3.512 5.322,3.372 5.206,3.276 C5.09,3.18 4.924,3.132 4.708,3.132 L4.708,3.132 L3.688,3.132 L3.688,2.028 C3.688,1.812 3.62,1.64 3.484,1.512 C3.348,1.384 3.168,1.32 2.944,1.32 C2.712,1.32 2.528,1.384 2.392,1.512 C2.256,1.64 2.188,1.812 2.188,2.028 L2.188,2.028 L2.188,3.132 L1.588,3.132 C1.372,3.132 1.206,3.18 1.09,3.276 C0.974,3.372 0.916,3.512 0.916,3.696 C0.916,3.88 0.974,4.02 1.09,4.116 C1.206,4.212 1.372,4.26 1.588,4.26 L1.588,4.26 L2.188,4.26 L2.188,6.876 C2.188,8.22 2.86,8.94 4.204,9.036 L4.204,9.036 L4.528,9.06 Z M8.884,9.096 C9.484,9.096 10.01,8.972 10.462,8.724 C10.914,8.476 11.262,8.12 11.506,7.656 C11.75,7.192 11.872,6.652 11.872,6.036 C11.872,5.42 11.75,4.882 11.506,4.422 C11.262,3.962 10.914,3.608 10.462,3.36 C10.01,3.112 9.484,2.988 8.884,2.988 C8.284,2.988 7.758,3.112 7.306,3.36 C6.854,3.608 6.504,3.962 6.256,4.422 C6.008,4.882 5.884,5.42 5.884,6.036 C5.884,6.652 6.008,7.192 6.256,7.656 C6.504,8.12 6.854,8.476 7.306,8.724 C7.758,8.972 8.284,9.096 8.884,9.096 Z M8.872,7.932 C8.392,7.932 8.024,7.772 7.768,7.452 C7.512,7.132 7.384,6.66 7.384,6.036 C7.384,5.42 7.514,4.95 7.774,4.626 C8.034,4.302 8.404,4.14 8.884,4.14 C9.364,4.14 9.732,4.302 9.988,4.626 C10.244,4.95 10.372,5.42 10.372,6.036 C10.372,6.66 10.244,7.132 9.988,7.452 C9.732,7.772 9.36,7.932 8.872,7.932 Z M15.388,9.096 C15.812,9.096 16.19,9.004 16.522,8.82 C16.854,8.636 17.108,8.38 17.284,8.052 L17.284,8.052 L17.284,8.352 C17.284,8.568 17.352,8.74 17.488,8.868 C17.624,8.996 17.804,9.06 18.028,9.06 C18.252,9.06 18.432,8.996 18.568,8.868 C18.704,8.74 18.772,8.568 18.772,8.352 L18.772,8.352 L18.772,1.176 C18.772,0.968 18.7,0.8 18.556,0.672 C18.412,0.544 18.228,0.48 18.004,0.48 C17.78,0.48 17.602,0.542 17.47,0.666 C17.338,0.79 17.272,0.952 17.272,1.152 L17.272,1.152 L17.272,3.996 C17.096,3.676 16.844,3.428 16.516,3.252 C16.188,3.076 15.812,2.988 15.388,2.988 C14.876,2.988 14.424,3.112 14.032,3.36 C13.64,3.608 13.334,3.96 13.114,4.416 C12.894,4.872 12.784,5.404 12.784,6.012 C12.784,6.62 12.894,7.158 13.114,7.626 C13.334,8.094 13.642,8.456 14.038,8.712 C14.434,8.968 14.884,9.096 15.388,9.096 Z M15.784,7.932 C15.312,7.932 14.944,7.764 14.68,7.428 C14.416,7.092 14.284,6.62 14.284,6.012 C14.284,5.412 14.416,4.952 14.68,4.632 C14.944,4.312 15.316,4.152 15.796,4.152 C16.268,4.152 16.634,4.314 16.894,4.638 C17.154,4.962 17.284,5.428 17.284,6.036 C17.284,6.644 17.154,7.112 16.894,7.44 C16.634,7.768 16.264,7.932 15.784,7.932 Z M22.996,9.096 C23.596,9.096 24.122,8.972 24.574,8.724 C25.026,8.476 25.374,8.12 25.618,7.656 C25.862,7.192 25.984,6.652 25.984,6.036 C25.984,5.42 25.862,4.882 25.618,4.422 C25.374,3.962 25.026,3.608 24.574,3.36 C24.122,3.112 23.596,2.988 22.996,2.988 C22.396,2.988 21.87,3.112 21.418,3.36 C20.966,3.608 20.616,3.962 20.368,4.422 C20.12,4.882 19.996,5.42 19.996,6.036 C19.996,6.652 20.12,7.192 20.368,7.656 C20.616,8.12 20.966,8.476 21.418,8.724 C21.87,8.972 22.396,9.096 22.996,9.096 Z M22.984,7.932 C22.504,7.932 22.136,7.772 21.88,7.452 C21.624,7.132 21.496,6.66 21.496,6.036 C21.496,5.42 21.626,4.95 21.886,4.626 C22.146,4.302 22.516,4.14 22.996,4.14 C23.476,4.14 23.844,4.302 24.1,4.626 C24.356,4.95 24.484,5.42 24.484,6.036 C24.484,6.66 24.356,7.132 24.1,7.452 C23.844,7.772 23.472,7.932 22.984,7.932 Z M27.964,9.072 C28.18,9.072 28.36,9.01 28.504,8.886 C28.648,8.762 28.72,8.584 28.72,8.352 L28.72,8.352 L28.72,1.188 C28.72,0.956 28.648,0.78 28.504,0.66 C28.36,0.54 28.18,0.48 27.964,0.48 C27.748,0.48 27.57,0.54 27.43,0.66 C27.29,0.78 27.22,0.956 27.22,1.188 L27.22,1.188 L27.22,8.352 C27.22,8.584 27.29,8.762 27.43,8.886 C27.57,9.01 27.748,9.072 27.964,9.072 Z M31.012,1.944 C31.284,1.944 31.5,1.87 31.66,1.722 C31.82,1.574 31.9,1.38 31.9,1.14 C31.9,0.9 31.818,0.708 31.654,0.564 C31.49,0.42 31.276,0.348 31.012,0.348 C30.74,0.348 30.524,0.42 30.364,0.564 C30.204,0.708 30.124,0.9 30.124,1.14 C30.124,1.38 30.204,1.574 30.364,1.722 C30.524,1.87 30.74,1.944 31.012,1.944 Z M31.012,9.072 C31.228,9.072 31.408,9.01 31.552,8.886 C31.696,8.762 31.768,8.584 31.768,8.352 L31.768,8.352 L31.768,3.72 C31.768,3.488 31.696,3.312 31.552,3.192 C31.408,3.072 31.228,3.012 31.012,3.012 C30.796,3.012 30.618,3.072 30.478,3.192 C30.338,3.312 30.268,3.488 30.268,3.72 L30.268,3.72 L30.268,8.352 C30.268,8.584 30.338,8.762 30.478,8.886 C30.618,9.01 30.796,9.072 31.012,9.072 Z M35.44,9.096 C36.192,9.096 36.794,8.932 37.246,8.604 C37.698,8.276 37.924,7.84 37.924,7.296 C37.924,6.96 37.858,6.684 37.726,6.468 C37.594,6.252 37.376,6.072 37.072,5.928 C36.768,5.784 36.348,5.656 35.812,5.544 C35.308,5.44 34.968,5.336 34.792,5.232 C34.616,5.128 34.528,4.976 34.528,4.776 C34.528,4.568 34.614,4.404 34.786,4.284 C34.958,4.164 35.192,4.104 35.488,4.104 C35.736,4.104 35.944,4.134 36.112,4.194 C36.28,4.254 36.48,4.344 36.712,4.464 C36.84,4.536 36.946,4.59 37.03,4.626 C37.114,4.662 37.2,4.68 37.288,4.68 C37.416,4.68 37.524,4.626 37.612,4.518 C37.7,4.41 37.744,4.276 37.744,4.116 C37.744,3.852 37.616,3.64 37.36,3.48 C37.112,3.32 36.832,3.198 36.52,3.114 C36.208,3.03 35.884,2.988 35.548,2.988 C35.084,2.988 34.67,3.066 34.306,3.222 C33.942,3.378 33.656,3.598 33.448,3.882 C33.24,4.166 33.136,4.484 33.136,4.836 C33.136,5.3 33.29,5.664 33.598,5.928 C33.906,6.192 34.416,6.396 35.128,6.54 C35.528,6.628 35.826,6.706 36.022,6.774 C36.218,6.842 36.354,6.916 36.43,6.996 C36.506,7.076 36.544,7.184 36.544,7.32 C36.544,7.52 36.45,7.676 36.262,7.788 C36.074,7.9 35.812,7.956 35.476,7.956 C35.148,7.956 34.878,7.924 34.666,7.86 C34.454,7.796 34.22,7.704 33.964,7.584 C33.724,7.456 33.536,7.392 33.4,7.392 C33.272,7.392 33.164,7.442 33.076,7.542 C32.988,7.642 32.944,7.772 32.944,7.932 C32.944,8.212 33.072,8.428 33.328,8.58 C33.864,8.924 34.568,9.096 35.44,9.096 Z M41.884,9.06 C42.172,9.076 42.394,9.034 42.55,8.934 C42.706,8.834 42.784,8.688 42.784,8.496 C42.784,8.16 42.584,7.98 42.184,7.956 L42.184,7.956 L41.86,7.932 C41.316,7.892 41.044,7.576 41.044,6.984 L41.044,6.984 L41.044,4.26 L42.064,4.26 C42.28,4.26 42.446,4.212 42.562,4.116 C42.678,4.02 42.736,3.88 42.736,3.696 C42.736,3.512 42.678,3.372 42.562,3.276 C42.446,3.18 42.28,3.132 42.064,3.132 L42.064,3.132 L41.044,3.132 L41.044,2.028 C41.044,1.812 40.976,1.64 40.84,1.512 C40.704,1.384 40.524,1.32 40.3,1.32 C40.068,1.32 39.884,1.384 39.748,1.512 C39.612,1.64 39.544,1.812 39.544,2.028 L39.544,2.028 L39.544,3.132 L38.944,3.132 C38.728,3.132 38.562,3.18 38.446,3.276 C38.33,3.372 38.272,3.512 38.272,3.696 C38.272,3.88 38.33,4.02 38.446,4.116 C38.562,4.212 38.728,4.26 38.944,4.26 L38.944,4.26 L39.544,4.26 L39.544,6.876 C39.544,8.22 40.216,8.94 41.56,9.036 L41.56,9.036 L41.884,9.06 Z M48.94,9.096 C49.692,9.096 50.294,8.932 50.746,8.604 C51.198,8.276 51.424,7.84 51.424,7.296 C51.424,6.96 51.358,6.684 51.226,6.468 C51.094,6.252 50.876,6.072 50.572,5.928 C50.268,5.784 49.848,5.656 49.312,5.544 C48.808,5.44 48.468,5.336 48.292,5.232 C48.116,5.128 48.028,4.976 48.028,4.776 C48.028,4.568 48.114,4.404 48.286,4.284 C48.458,4.164 48.692,4.104 48.988,4.104 C49.236,4.104 49.444,4.134 49.612,4.194 C49.78,4.254 49.98,4.344 50.212,4.464 C50.34,4.536 50.446,4.59 50.53,4.626 C50.614,4.662 50.7,4.68 50.788,4.68 C50.916,4.68 51.024,4.626 51.112,4.518 C51.2,4.41 51.244,4.276 51.244,4.116 C51.244,3.852 51.116,3.64 50.86,3.48 C50.612,3.32 50.332,3.198 50.02,3.114 C49.708,3.03 49.384,2.988 49.048,2.988 C48.584,2.988 48.17,3.066 47.806,3.222 C47.442,3.378 47.156,3.598 46.948,3.882 C46.74,4.166 46.636,4.484 46.636,4.836 C46.636,5.3 46.79,5.664 47.098,5.928 C47.406,6.192 47.916,6.396 48.628,6.54 C49.028,6.628 49.326,6.706 49.522,6.774 C49.718,6.842 49.854,6.916 49.93,6.996 C50.006,7.076 50.044,7.184 50.044,7.32 C50.044,7.52 49.95,7.676 49.762,7.788 C49.574,7.9 49.312,7.956 48.976,7.956 C48.648,7.956 48.378,7.924 48.166,7.86 C47.954,7.796 47.72,7.704 47.464,7.584 C47.224,7.456 47.036,7.392 46.9,7.392 C46.772,7.392 46.664,7.442 46.576,7.542 C46.488,7.642 46.444,7.772 46.444,7.932 C46.444,8.212 46.572,8.428 46.828,8.58 C47.364,8.924 48.068,9.096 48.94,9.096 Z M53.392,11.22 C53.616,11.22 53.796,11.16 53.932,11.04 C54.068,10.92 54.136,10.756 54.136,10.548 L54.136,10.548 L54.136,8.1 C54.312,8.412 54.564,8.656 54.892,8.832 C55.22,9.008 55.592,9.096 56.008,9.096 C56.52,9.096 56.972,8.972 57.364,8.724 C57.756,8.476 58.062,8.124 58.282,7.668 C58.502,7.212 58.612,6.68 58.612,6.072 C58.612,5.464 58.502,4.926 58.282,4.458 C58.062,3.99 57.754,3.628 57.358,3.372 C56.962,3.116 56.512,2.988 56.008,2.988 C55.584,2.988 55.206,3.078 54.874,3.258 C54.542,3.438 54.288,3.692 54.112,4.02 L54.112,4.02 L54.112,3.72 C54.112,3.504 54.044,3.332 53.908,3.204 C53.772,3.076 53.592,3.012 53.368,3.012 C53.144,3.012 52.966,3.076 52.834,3.204 C52.702,3.332 52.636,3.504 52.636,3.72 L52.636,3.72 L52.636,10.524 C52.636,10.732 52.706,10.9 52.846,11.028 C52.986,11.156 53.168,11.22 53.392,11.22 Z M55.612,7.932 C55.132,7.932 54.762,7.768 54.502,7.44 C54.242,7.112 54.112,6.648 54.112,6.048 C54.112,5.44 54.242,4.972 54.502,4.644 C54.762,4.316 55.132,4.152 55.612,4.152 C56.084,4.152 56.452,4.32 56.716,4.656 C56.98,4.992 57.112,5.464 57.112,6.072 C57.112,6.664 56.98,7.122 56.716,7.446 C56.452,7.77 56.084,7.932 55.612,7.932 Z M61.72,9.096 C62.104,9.096 62.442,9.008 62.734,8.832 C63.026,8.656 63.24,8.412 63.376,8.1 L63.376,8.1 L63.376,8.364 C63.376,8.572 63.442,8.74 63.574,8.868 C63.706,8.996 63.876,9.06 64.084,9.06 C64.308,9.06 64.484,8.998 64.612,8.874 C64.74,8.75 64.804,8.58 64.804,8.364 L64.804,8.364 L64.804,5.436 C64.804,4.612 64.606,3.998 64.21,3.594 C63.814,3.19 63.208,2.988 62.392,2.988 C62.016,2.988 61.634,3.032 61.246,3.12 C60.858,3.208 60.524,3.328 60.244,3.48 C60.084,3.568 59.97,3.662 59.902,3.762 C59.834,3.862 59.8,3.98 59.8,4.116 C59.8,4.284 59.846,4.42 59.938,4.524 C60.03,4.628 60.148,4.68 60.292,4.68 C60.388,4.68 60.54,4.628 60.748,4.524 C61.076,4.396 61.36,4.298 61.6,4.23 C61.84,4.162 62.076,4.128 62.308,4.128 C62.684,4.128 62.956,4.218 63.124,4.398 C63.292,4.578 63.376,4.864 63.376,5.256 L63.376,5.256 L63.376,5.532 L63.076,5.532 C62.204,5.532 61.52,5.588 61.024,5.7 C60.528,5.812 60.17,5.992 59.95,6.24 C59.73,6.488 59.62,6.828 59.62,7.26 C59.62,7.604 59.712,7.916 59.896,8.196 C60.08,8.476 60.332,8.696 60.652,8.856 C60.972,9.016 61.328,9.096 61.72,9.096 Z M62.02,8.016 C61.756,8.016 61.534,7.934 61.354,7.77 C61.174,7.606 61.084,7.396 61.084,7.14 C61.084,6.932 61.148,6.768 61.276,6.648 C61.404,6.528 61.616,6.444 61.912,6.396 C62.208,6.348 62.624,6.324 63.16,6.324 L63.16,6.324 L63.376,6.324 L63.376,6.576 C63.376,7 63.25,7.346 62.998,7.614 C62.746,7.882 62.42,8.016 62.02,8.016 Z" id="todolistspa" fill="#083A45" fill-rule="nonzero"/><g id="Rectangle-12-Copy-7"><use fill="black" fill-opacity="1" filter="url(#filter-18)" xlink:href="#path-17"/><use fill="#FFFFFF" fill-rule="evenodd" xlink:href="#path-17"/></g><g id="Oval-Copy-5"><use fill="black" fill-opacity="1" filter="url(#filter-20)" xlink:href="#path-19"/><use fill="#FFFFFF" fill-rule="evenodd" xlink:href="#path-19"/></g><g id="Icons/kintoblock/website/small" transform="translate(44.500000, 39.000000)"><g id="Group" transform="translate(1.350000, 2.700000)"><mask id="mask-22" fill="white"><use xlink:href="#path-21"/></mask><use id="Mask" fill="#5ED2A2" xlink:href="#path-21"/><path d="M0.9,0 L14.4,0 C14.8970563,0 15.3,0.402943725 15.3,0.9 L15.3,3.6 L0,3.6 L0,0.9 C0,0.402943725 0.402943725,0 0.9,0 Z" id="Rectangle-2" fill="#19BF7B" mask="url(#mask-22)"/><path d="M7.2,0.9 L13.5,0.9 C13.9970563,0.9 14.4,1.30294373 14.4,1.8 C14.4,2.29705627 13.9970563,2.7 13.5,2.7 L7.2,2.7 C6.70294373,2.7 6.3,2.29705627 6.3,1.8 C6.3,1.30294373 6.70294373,0.9 7.2,0.9 Z" id="Rectangle" fill="#118555" mask="url(#mask-22)"/><path d="M1.8,0.9 C2.29705627,0.9 2.7,1.30294373 2.7,1.8 C2.7,2.29705627 2.29705627,2.7 1.8,2.7 C1.30294373,2.7 0.9,2.29705627 0.9,1.8 C0.9,1.30294373 1.30294373,0.9 1.8,0.9 Z" id="Rectangle-Copy" fill="#5ED2A2" mask="url(#mask-22)"/><path d="M4.5,0.9 C4.99705627,0.9 5.4,1.30294373 5.4,1.8 C5.4,2.29705627 4.99705627,2.7 4.5,2.7 C4.00294373,2.7 3.6,2.29705627 3.6,1.8 C3.6,1.30294373 4.00294373,0.9 4.5,0.9 Z" id="Rectangle-Copy-2" fill="#5ED2A2" mask="url(#mask-22)"/><polygon id="Combined-Shape" fill="#118555" points="11.6452985 11.3377825 12.6660278 13.6691444 11.4869472 14.175 10.4492787 11.8049488 9 13.0828955 9 6.975 13.5 11.3377825"/></g></g><g id="Oval"><use fill="black" fill-opacity="1" filter="url(#filter-24)" xlink:href="#path-23"/><use fill="#FFFFFF" fill-rule="evenodd" xlink:href="#path-23"/></g><g id="react" transform="translate(23.000000, 39.000000)" fill="#083A45" fill-rule="nonzero"><circle id="Oval" cx="9.81818182" cy="8.98363636" r="1.75336364"/><path d="M18.6267273,7.236 C18.0200455,6.72995455 17.1617727,6.27709091 16.1451818,5.92731818 C15.9414545,5.85695455 15.7303636,5.79068182 15.5131364,5.72809091 C15.5491364,5.58204545 15.5818636,5.43804545 15.6109091,5.29690909 C16.0981364,2.93195455 15.7520455,1.089 14.7084545,0.486818182 C14.4531818,0.339545455 14.1516818,0.265090909 13.8113182,0.265090909 C12.8319545,0.265090909 11.5907727,0.875863636 10.3164545,1.9845 C10.1536364,2.12604545 9.99040909,2.27618182 9.82759091,2.43327273 C9.71877273,2.32895455 9.61036364,2.22872727 9.50236364,2.13259091 C8.17936364,0.957681818 6.83263636,0.284318182 5.80786364,0.284318182 C5.45686364,0.284318182 5.14636364,0.361227273 4.88454545,0.512590909 C4.37236364,0.809181818 4.02422727,1.41422727 3.87818182,2.26186364 C3.744,3.04036364 3.78245455,4.00990909 3.98863636,5.06495455 C4.03036364,5.27768182 4.07904545,5.4945 4.13386364,5.715 C3.88309091,5.78618182 3.64009091,5.86268182 3.40731818,5.94409091 C1.2735,6.68822727 0,7.82427273 0,8.98363636 C0,9.58909091 0.354681818,10.2129545 1.026,10.7881364 C1.65763636,11.3289545 2.54454545,11.8039091 3.59059091,12.1614545 C3.76118182,12.2199545 3.93872727,12.2751818 4.12118182,12.3275455 C4.06227273,12.5656364 4.01072727,12.7996364 3.96736364,13.0283182 C3.546,15.2476364 3.89372727,16.9183636 4.89804545,17.4976364 C5.16231818,17.6502273 5.47772727,17.7275455 5.83568182,17.7275455 C6.85513636,17.7275455 8.17036364,17.0885455 9.44468182,15.9745909 C9.58090909,15.8555455 9.71754545,15.7295455 9.85418182,15.5974091 C10.0313182,15.7675909 10.2084545,15.9291818 10.3851818,16.0813636 C11.6243182,17.1478636 12.8385,17.7349091 13.8039545,17.7349091 C14.1520909,17.7349091 14.4609545,17.6584091 14.7219545,17.5070455 C15.246,17.2035 15.6080455,16.5841364 15.7692273,15.7148182 C15.921,14.8970455 15.8874545,13.8919091 15.6730909,12.8074091 C15.6391364,12.636 15.5998636,12.4609091 15.5552727,12.2825455 C15.6796364,12.2457273 15.8015455,12.2080909 15.9201818,12.1684091 C18.2127273,11.4091364 19.6363636,10.1884091 19.6363636,8.98363636 C19.6363636,8.39168182 19.287,7.78745455 18.6267273,7.236 Z M13.8109091,1.10413636 C14.0019545,1.10413636 14.1627273,1.14095455 14.2887273,1.21377273 C14.5930909,1.38927273 14.8185,1.83109091 14.9232273,2.45822727 C15.0451364,3.18681818 14.9985,4.10972727 14.7890455,5.12754545 C14.7628636,5.25559091 14.733,5.38568182 14.7006818,5.51781818 C13.8841364,5.32922727 12.9988636,5.18972727 12.0743182,5.103 C11.5335,4.3335 10.9738636,3.63477273 10.4146364,3.03177273 C10.5655909,2.88695455 10.7161364,2.74827273 10.8666818,2.61736364 C11.9556818,1.66990909 13.0565455,1.10413636 13.8109091,1.10413636 Z M12.5582727,10.5811364 C12.2494091,11.1166364 11.9352273,11.6239091 11.6173636,12.1009091 C11.0344091,12.1426364 10.4318182,12.1643182 9.81777273,12.1643182 C9.20372727,12.1643182 8.61054545,12.1455 8.04190909,12.1090909 C7.70645455,11.6202273 7.38368182,11.1096818 7.08013636,10.5856364 C6.77659091,10.0611818 6.49677273,9.53222727 6.24272727,9.00490909 C6.49759091,8.4735 6.777,7.94209091 7.07768182,7.4205 C7.38040909,6.89563636 7.69909091,6.38918182 8.02881818,5.90563636 C8.61627273,5.86063636 9.216,5.83731818 9.81777273,5.83731818 C10.4248636,5.83731818 11.0241818,5.86022727 11.6087727,5.90481818 C11.9335909,6.38427273 12.2506364,6.88990909 12.5554091,7.41559091 C12.8650909,7.95068182 13.1477727,8.47636364 13.4022273,8.98977273 C13.1473636,9.51668182 12.8650909,10.0493182 12.5582727,10.5811364 Z M13.8555,9.95809091 C14.1193636,10.5586364 14.3398636,11.1370909 14.5149545,11.6869091 C13.9459091,11.8165909 13.3310455,11.9213182 12.6830455,11.9990455 C12.8859545,11.6775 13.0868182,11.3440909 13.2852273,11.0000455 C13.4852727,10.6527273 13.6755,10.305 13.8555,9.95809091 Z M9.85213636,14.3946818 C9.4545,13.9651364 9.05809091,13.4901818 8.6715,12.9812727 C9.04540909,12.9955909 9.42790909,13.0029545 9.81818182,13.0029545 C10.2190909,13.0029545 10.6155,12.9939545 11.0053636,12.9763636 C10.6220455,13.4979545 10.2362727,13.9725 9.85213636,14.3946818 Z M6.97172727,12.0158182 C6.32659091,11.9442273 5.72113636,11.8468636 5.16231818,11.7245455 C5.33618182,11.1645 5.55013636,10.5819545 5.79886364,9.99163636 C5.97436364,10.3307727 6.16009091,10.6695 6.35481818,11.0061818 C6.55404545,11.3506364 6.76022727,11.6877273 6.97172727,12.0158182 Z M5.79640909,8.01695455 C5.553,7.43931818 5.34395455,6.87027273 5.17295455,6.31881818 C5.73340909,6.19363636 6.3315,6.09136364 6.95209091,6.01363636 C6.74590909,6.33518182 6.54545455,6.6645 6.35113636,7.00118182 C6.15681818,7.33868182 5.97190909,7.67781818 5.79640909,8.01695455 Z M9.82718182,3.6315 C10.2137727,4.05040909 10.6011818,4.51840909 10.9828636,5.0265 C10.5987273,5.0085 10.2096818,4.99909091 9.81818182,4.99909091 C9.42913636,4.99909091 9.04336364,5.00809091 8.66209091,5.02568182 C9.04254545,4.52372727 9.43322727,4.05654545 9.82718182,3.6315 Z M13.2815455,6.99586364 C13.0872273,6.66 12.8875909,6.33231818 12.6838636,6.01322727 C13.3089545,6.09218182 13.9095,6.19731818 14.4748636,6.32659091 C14.3059091,6.86822727 14.0948182,7.43522727 13.8465,8.01695455 C13.6689545,7.68027273 13.4807727,7.33990909 13.2815455,6.99586364 Z M4.81131818,4.90459091 C4.62436364,3.94854545 4.58713636,3.08413636 4.70413636,2.40463636 C4.80518182,1.81840909 5.01831818,1.40440909 5.30427273,1.23872727 C5.43681818,1.16222727 5.60577273,1.12336364 5.80745455,1.12336364 C6.61786364,1.12336364 7.79072727,1.73536364 8.94518182,2.76013636 C9.04295455,2.84686364 9.14113636,2.93809091 9.23972727,3.03218182 C8.66822727,3.64581818 8.10490909,4.34331818 7.56777273,5.10095455 C6.64445455,5.18604545 5.76122727,5.32309091 4.94631818,5.50840909 C4.89518182,5.30345455 4.85018182,5.10177273 4.81131818,4.90459091 Z M3.86181818,11.3674091 C2.91518182,11.0438182 2.12318182,10.6232727 1.57172727,10.1507727 C1.09922727,9.74618182 0.838636364,9.33136364 0.838636364,8.98363636 C0.838636364,8.11636364 2.26718182,7.23027273 3.68263636,6.73690909 C3.89781818,6.66163636 4.12404545,6.59127273 4.35845455,6.52459091 C4.60472727,7.32518182 4.92709091,8.16013636 5.31490909,9.00286364 C4.92054545,9.85990909 4.59368182,10.7079545 4.34536364,11.5191818 C4.17927273,11.4709091 4.01768182,11.4205909 3.86181818,11.3674091 Z M5.83568182,16.8885 C5.62704545,16.8885 5.45277273,16.8488182 5.31736364,16.7706818 C4.56627273,16.3374545 4.51186364,14.6573182 4.79168182,13.1845909 C4.83177273,12.9730909 4.87963636,12.7558636 4.93527273,12.5333182 C5.73504545,12.7104545 6.62277273,12.8393182 7.58045455,12.9166364 C8.12290909,13.6808182 8.69113636,14.3828182 9.26631818,14.9993182 C9.14113636,15.1195909 9.01677273,15.2345455 8.89281818,15.3429545 C7.78540909,16.3108636 6.64281818,16.8885 5.83568182,16.8885 Z M14.8504091,12.9702273 C15.2766818,15.1236818 14.8647273,16.4548636 14.3018182,16.7809091 C14.1700909,16.857 14.0023636,16.8958636 13.8039545,16.8958636 C13.4472273,16.8958636 12.4535455,16.7543182 10.9321364,15.4452273 C10.7689091,15.3049091 10.6044545,15.1543636 10.4391818,14.9952273 C10.9902273,14.3930455 11.5429091,13.6914545 12.0861818,12.9043636 C13.0369091,12.8196818 13.9340455,12.6814091 14.7444545,12.4944545 C14.7841364,12.6560455 14.8197273,12.8147727 14.8504091,12.9702273 Z M15.6567273,11.3719091 C15.5495455,11.4075 15.4395,11.4418636 15.3274091,11.475 C15.0803182,10.6915909 14.7465,9.85622727 14.3325,8.98568182 C14.7244091,8.1405 15.0467727,7.31454545 15.2877273,6.53604545 C15.4885909,6.59413636 15.6833182,6.6555 15.8719091,6.72054545 C16.7931818,7.03759091 17.5598182,7.43890909 18.0891818,7.88031818 C18.5461364,8.26159091 18.7977273,8.6535 18.7977273,8.98363636 C18.7973182,9.63286364 17.8146818,10.6572273 15.6567273,11.3719091 Z" id="Shape"/></g><rect id="Rectangle-Copy-15" fill="#DBE8FB" x="130.997819" y="43.7" width="50" height="9" rx="4.5"/><rect id="Rectangle-Copy-19" fill="#DBE8FB" x="221.866667" y="43.7" width="30" height="9" rx="4.5"/><g id="Group-2" transform="translate(205.997819, 48.000000) rotate(-270.000000) translate(-205.997819, -48.000000) translate(203.497819, 41.500000)" stroke="#4E82EE" stroke-width="1.8"><line x1="2.7" y1="0.475895579" x2="2.7" y2="12.7685785" id="Path-2-Copy" stroke-linecap="round" stroke-linejoin="round"/><ellipse id="Oval-Copy-3" fill="#FFFFFF" cx="2.7" cy="6.62223704" rx="2.25" ry="2.19512195"/></g><g id="Group-6" transform="translate(115.497819, 41.450000)" stroke="#4E82EE"><line x1="1.35" y1="1.79296875" x2="1.35" y2="10.4776343" id="Path-2" stroke-width="1.8" stroke-linecap="round" stroke-linejoin="round"/><path d="M1.35,7.46341463 C5.55131836,7.39964313 7.65197754,5.93765761 7.65197754,3.07745808" id="Line" stroke-width="1.8" stroke-linecap="round" stroke-linejoin="round"/><ellipse id="Oval" stroke-width="0.9" fill="#4E82EE" cx="1.35" cy="1.31707317" rx="1.35" ry="1.31707317"/><ellipse id="Oval-Copy-2" stroke-width="0.9" fill="#4E82EE" cx="1.35" cy="11.5621189" rx="1.35" ry="1.31707317"/><ellipse id="Oval-Copy" stroke-width="0.9" fill="#4E82EE" cx="7.65197754" cy="1.31707317" rx="1.35" ry="1.31707317"/></g></g></g></g></g></g></g></svg>