<svg xmlns="http://www.w3.org/2000/svg" xmlns:xlink="http://www.w3.org/1999/xlink" viewBox="0 0 343 243" version="1.1"><!-- Generator: Sketch 60.1 (88133) - https://sketch.com --><title>home-howitworks-promote</title><desc>Created with Sketch.</desc><defs><path d="M12,1.42108547e-14 L290,1.42108547e-14 C296.627417,1.2993418e-14 302,5.372583 302,12 L302,57.96 C302,64.587417 296.627417,69.96 290,69.96 L12,69.96 C5.372583,69.96 8.11624501e-16,64.587417 0,57.96 L0,12 C-8.11624501e-16,5.372583 5.372583,1.54282915e-14 12,1.42108547e-14 Z" id="path-1"/><filter x="-4.1%" y="-16.4%" width="108.3%" height="135.7%" filterUnits="objectBoundingBox" id="filter-2"><feOffset dx="0" dy="1" in="SourceAlpha" result="shadowOffsetOuter1"/><feGaussianBlur stdDeviation="4" in="shadowOffsetOuter1" result="shadowBlurOuter1"/><feColorMatrix values="0 0 0 0 0.25869511   0 0 0 0 0.461476445   0 0 0 0 0.570764243  0 0 0 0.100486866 0" type="matrix" in="shadowBlurOuter1" result="shadowMatrixOuter1"/><feOffset dx="0" dy="2" in="SourceAlpha" result="shadowOffsetOuter2"/><feGaussianBlur stdDeviation="2" in="shadowOffsetOuter2" result="shadowBlurOuter2"/><feColorMatrix values="0 0 0 0 0.25869511   0 0 0 0 0.461476445   0 0 0 0 0.570764243  0 0 0 0.0998358243 0" type="matrix" in="shadowBlurOuter2" result="shadowMatrixOuter2"/><feMerge><feMergeNode in="shadowMatrixOuter1"/><feMergeNode in="shadowMatrixOuter2"/></feMerge></filter><path d="M12,0 L290,0 C296.627417,-1.21743675e-15 302,5.372583 302,12 L302,57.96 C302,64.587417 296.627417,69.96 290,69.96 L12,69.96 C5.372583,69.96 8.11624501e-16,64.587417 0,57.96 L0,12 C-8.11624501e-16,5.372583 5.372583,1.21743675e-15 12,0 Z" id="path-3"/><filter x="-11.6%" y="-35.7%" width="123.2%" height="200.1%" filterUnits="objectBoundingBox" id="filter-4"><feOffset dx="0" dy="10" in="SourceAlpha" result="shadowOffsetOuter1"/><feGaussianBlur stdDeviation="10" in="shadowOffsetOuter1" result="shadowBlurOuter1"/><feColorMatrix values="0 0 0 0 0.25869511   0 0 0 0 0.461476445   0 0 0 0 0.570764243  0 0 0 0.100486866 0" type="matrix" in="shadowBlurOuter1" result="shadowMatrixOuter1"/><feOffset dx="0" dy="2" in="SourceAlpha" result="shadowOffsetOuter2"/><feGaussianBlur stdDeviation="2" in="shadowOffsetOuter2" result="shadowBlurOuter2"/><feColorMatrix values="0 0 0 0 0.25869511   0 0 0 0 0.461476445   0 0 0 0 0.570764243  0 0 0 0.0998358243 0" type="matrix" in="shadowBlurOuter2" result="shadowMatrixOuter2"/><feMerge><feMergeNode in="shadowMatrixOuter1"/><feMergeNode in="shadowMatrixOuter2"/></feMerge></filter></defs><g id="Home-Revamp" stroke="none" stroke-width="1" fill="none" fill-rule="evenodd"><g id="1---homepage-part-2" transform="translate(-1150.000000, -781.000000)"><g id="home-howitworks-promote" transform="translate(1153.610985, 788.400000)"><rect id="Rectangle-Copy-4" fill-opacity="0.0411931818" fill="#4E82EE" x="0" y="27.5" width="339" height="200" rx="21"/><g id="Group-2-Copy" transform="translate(16.389015, 0.000000)"><g id="Mask"><use fill="black" fill-opacity="1" filter="url(#filter-2)" xlink:href="#path-1"/><use fill="#FFFFFF" fill-rule="evenodd" xlink:href="#path-1"/></g><g id="icon/status/deploying" transform="translate(256.000000, 25.268099)"><circle id="Combined-Shape-Copy" fill="#FF943C" cx="9.71190068" cy="9.71190068" r="9.71190068"/><path d="M10.6830908,10.6830908 C11.2194642,10.6830908 11.6542808,11.1179074 11.6542808,11.6542808 L11.6542808,13.596661 L13.596661,13.596661 C14.1330344,13.596661 14.567851,14.0314776 14.567851,14.567851 C14.567851,15.1042245 14.1330344,15.5390411 13.596661,15.5390411 L10.6830908,15.5390411 C10.1467173,15.5390411 9.71190068,15.1042245 9.71190068,14.567851 L9.71190068,11.6542808 C9.71190068,11.1179074 10.1467173,10.6830908 10.6830908,10.6830908 Z M8.74071061,3.88476027 C9.27708408,3.88476027 9.71190068,4.31957688 9.71190068,4.85595034 L9.71190068,7.76952055 C9.71190068,8.30589401 9.27708408,8.74071061 8.74071061,8.74071061 C8.20433715,8.74071061 7.76952055,8.30589401 7.76952055,7.76952055 L7.76952055,5.82714041 L5.82714041,5.82714041 C5.29076695,5.82714041 4.85595034,5.39232381 4.85595034,4.85595034 C4.85595034,4.31957688 5.29076695,3.88476027 5.82714041,3.88476027 L8.74071061,3.88476027 Z" id="Combined-Shape" fill="#FFFFFF"/><path d="M11.4957531,14.7480404 C10.9901611,14.9271305 10.4351166,14.6624485 10.2560265,14.1568566 C10.0769363,13.6512646 10.3416184,13.0962201 10.8472103,12.91713 C12.1929527,12.4404428 13.1110659,11.1633219 13.1110659,9.71190068 C13.1110659,8.42184762 12.3866322,7.26154173 11.2583234,6.68383245 C10.7808925,6.43938145 10.5920251,5.8541806 10.8364761,5.37674977 C11.0809271,4.89931893 11.6661279,4.71045146 12.1435588,4.95490247 C13.9146496,5.86172477 15.0534461,7.68570422 15.0534461,9.71190068 C15.0534461,11.9924329 13.6111301,13.9987342 11.4957531,14.7480404 Z" id="Oval-2" fill="#FFFFFF"/><path d="M8.02937006,4.64101752 C8.53847308,4.47216669 9.08806327,4.7479956 9.2569141,5.25709862 C9.42576493,5.76620165 9.14993602,6.31579184 8.640833,6.48464266 C7.26231392,6.94184695 6.31273544,8.23582123 6.31273544,9.71190068 C6.31273544,11.0289929 7.06810236,12.2096063 8.23306095,12.7736259 C8.71582886,13.00736 8.91771065,13.5881996 8.68397653,14.0709675 C8.45024242,14.5537354 7.86940277,14.7556172 7.38663485,14.5218831 C5.55761283,13.6363544 4.37035531,11.7807104 4.37035531,9.71190068 C4.37035531,7.39250687 5.86201309,5.35985045 8.02937006,4.64101752 Z" id="Oval-2-Copy" fill="#FFFFFF"/></g><path d="M21.2438014,29.2018014 C21.5038014,29.2018014 21.7096347,29.125968 21.8613014,28.9743014 C22.012968,28.8226347 22.0888014,28.6168014 22.0888014,28.3568014 L22.0888014,28.3568014 L22.0888014,25.5618014 L24.4158014,25.5618014 C25.3951347,25.5618014 26.1578014,25.3148014 26.7038014,24.8208014 C27.2498014,24.3268014 27.5228014,23.6378014 27.5228014,22.7538014 C27.5228014,21.8698014 27.2498014,21.182968 26.7038014,20.6933014 C26.1578014,20.2036347 25.3951347,19.9588014 24.4158014,19.9588014 L24.4158014,19.9588014 L21.2178014,19.9588014 C20.966468,19.9588014 20.7693014,20.0281347 20.6263014,20.1668014 C20.4833014,20.305468 20.4118014,20.500468 20.4118014,20.7518014 L20.4118014,20.7518014 L20.4118014,28.3568014 C20.4118014,28.6168014 20.4876347,28.8226347 20.6393014,28.9743014 C20.790968,29.125968 20.992468,29.2018014 21.2438014,29.2018014 Z M24.2078014,24.2748014 L22.0888014,24.2748014 L22.0888014,21.2588014 L24.2078014,21.2588014 C25.360468,21.2588014 25.9368014,21.761468 25.9368014,22.7668014 C25.9368014,23.7721347 25.360468,24.2748014 24.2078014,24.2748014 L24.2078014,24.2748014 Z M29.6548014,29.2018014 C29.8888014,29.2018014 30.0838014,29.1346347 30.2398014,29.0003014 C30.3958014,28.865968 30.4738014,28.6731347 30.4738014,28.4218014 L30.4738014,28.4218014 L30.4738014,25.6918014 C30.4738014,25.2498014 30.592968,24.881468 30.8313014,24.5868014 C31.0696347,24.2921347 31.444468,24.1188014 31.9558014,24.0668014 L31.9558014,24.0668014 L32.3458014,24.0278014 C32.640468,23.9931347 32.8441347,23.919468 32.9568014,23.8068014 C33.069468,23.6941347 33.1258014,23.5208014 33.1258014,23.2868014 C33.1258014,23.061468 33.0608014,22.892468 32.9308014,22.7798014 C32.8008014,22.6671347 32.6231347,22.619468 32.3978014,22.6368014 L32.3978014,22.6368014 L32.2158014,22.6498014 C31.8171347,22.6758014 31.4553014,22.7928014 31.1303014,23.0008014 C30.8053014,23.2088014 30.560468,23.503468 30.3958014,23.8848014 L30.3958014,23.8848014 L30.3958014,23.3648014 C30.3958014,23.1308014 30.326468,22.950968 30.1878014,22.8253014 C30.0491347,22.6996347 29.8671347,22.6368014 29.6418014,22.6368014 C29.416468,22.6368014 29.227968,22.7018014 29.0763014,22.8318014 C28.9246347,22.9618014 28.8488014,23.1481347 28.8488014,23.3908014 L28.8488014,23.3908014 L28.8488014,28.4218014 C28.8488014,28.6731347 28.9246347,28.865968 29.0763014,29.0003014 C29.227968,29.1346347 29.4208014,29.2018014 29.6548014,29.2018014 Z M36.7268014,29.2278014 C37.3768014,29.2278014 37.9466347,29.093468 38.4363014,28.8248014 C38.925968,28.5561347 39.302968,28.170468 39.5673014,27.6678014 C39.8316347,27.1651347 39.9638014,26.5801347 39.9638014,25.9128014 C39.9638014,25.245468 39.8316347,24.6626347 39.5673014,24.1643014 C39.302968,23.665968 38.925968,23.282468 38.4363014,23.0138014 C37.9466347,22.7451347 37.3768014,22.6108014 36.7268014,22.6108014 C36.0768014,22.6108014 35.506968,22.7451347 35.0173014,23.0138014 C34.5276347,23.282468 34.148468,23.665968 33.8798014,24.1643014 C33.6111347,24.6626347 33.4768014,25.245468 33.4768014,25.9128014 C33.4768014,26.5801347 33.6111347,27.1651347 33.8798014,27.6678014 C34.148468,28.170468 34.5276347,28.5561347 35.0173014,28.8248014 C35.506968,29.093468 36.0768014,29.2278014 36.7268014,29.2278014 Z M36.7138014,27.9668014 C36.1938014,27.9668014 35.7951347,27.793468 35.5178014,27.4468014 C35.240468,27.1001347 35.1018014,26.5888014 35.1018014,25.9128014 C35.1018014,25.245468 35.2426347,24.7363014 35.5243014,24.3853014 C35.805968,24.0343014 36.2068014,23.8588014 36.7268014,23.8588014 C37.2468014,23.8588014 37.645468,24.0343014 37.9228014,24.3853014 C38.2001347,24.7363014 38.3388014,25.245468 38.3388014,25.9128014 C38.3388014,26.5888014 38.2001347,27.1001347 37.9228014,27.4468014 C37.645468,27.793468 37.242468,27.9668014 36.7138014,27.9668014 Z M43.7728014,29.2278014 C44.2321347,29.2278014 44.6416347,29.1281347 45.0013014,28.9288014 C45.360968,28.729468 45.6361347,28.4521347 45.8268014,28.0968014 L45.8268014,28.0968014 L45.8268014,28.4218014 C45.8268014,28.6558014 45.900468,28.8421347 46.0478014,28.9808014 C46.1951347,29.119468 46.3901347,29.1888014 46.6328014,29.1888014 C46.875468,29.1888014 47.070468,29.119468 47.2178014,28.9808014 C47.3651347,28.8421347 47.4388014,28.6558014 47.4388014,28.4218014 L47.4388014,28.4218014 L47.4388014,20.6478014 C47.4388014,20.422468 47.3608014,20.240468 47.2048014,20.1018014 C47.0488014,19.9631347 46.849468,19.8938014 46.6068014,19.8938014 C46.3641347,19.8938014 46.1713014,19.960968 46.0283014,20.0953014 C45.8853014,20.2296347 45.8138014,20.4051347 45.8138014,20.6218014 L45.8138014,20.6218014 L45.8138014,23.7028014 C45.6231347,23.3561347 45.3501347,23.087468 44.9948014,22.8968014 C44.639468,22.7061347 44.2321347,22.6108014 43.7728014,22.6108014 C43.2181347,22.6108014 42.728468,22.7451347 42.3038014,23.0138014 C41.8791347,23.282468 41.5476347,23.6638014 41.3093014,24.1578014 C41.070968,24.6518014 40.9518014,25.2281347 40.9518014,25.8868014 C40.9518014,26.545468 41.070968,27.1283014 41.3093014,27.6353014 C41.5476347,28.1423014 41.8813014,28.534468 42.3103014,28.8118014 C42.7393014,29.0891347 43.2268014,29.2278014 43.7728014,29.2278014 Z M44.2018014,27.9668014 C43.690468,27.9668014 43.2918014,27.7848014 43.0058014,27.4208014 C42.7198014,27.0568014 42.5768014,26.545468 42.5768014,25.8868014 C42.5768014,25.2368014 42.7198014,24.738468 43.0058014,24.3918014 C43.2918014,24.0451347 43.6948014,23.8718014 44.2148014,23.8718014 C44.7261347,23.8718014 45.1226347,24.0473014 45.4043014,24.3983014 C45.685968,24.7493014 45.8268014,25.2541347 45.8268014,25.9128014 C45.8268014,26.571468 45.685968,27.078468 45.4043014,27.4338014 C45.1226347,27.7891347 44.7218014,27.9668014 44.2018014,27.9668014 Z M51.4168014,29.2278014 C51.841468,29.2278014 52.2228014,29.1346347 52.5608014,28.9483014 C52.8988014,28.761968 53.167468,28.495468 53.3668014,28.1488014 L53.3668014,28.1488014 L53.3668014,28.4738014 C53.3668014,28.6991347 53.4361347,28.8768014 53.5748014,29.0068014 C53.713468,29.1368014 53.8998014,29.2018014 54.1338014,29.2018014 C54.376468,29.2018014 54.5736347,29.132468 54.7253014,28.9938014 C54.876968,28.8551347 54.9528014,28.6731347 54.9528014,28.4478014 L54.9528014,28.4478014 L54.9528014,23.4038014 C54.9528014,23.1698014 54.8791347,22.983468 54.7318014,22.8448014 C54.584468,22.7061347 54.3851347,22.6368014 54.1338014,22.6368014 C53.8911347,22.6368014 53.6961347,22.7061347 53.5488014,22.8448014 C53.401468,22.983468 53.3278014,23.1698014 53.3278014,23.4038014 L53.3278014,23.4038014 L53.3278014,26.3028014 C53.3278014,26.7968014 53.1913014,27.1933014 52.9183014,27.4923014 C52.6453014,27.7913014 52.283468,27.9408014 51.8328014,27.9408014 C51.4428014,27.9408014 51.1568014,27.832468 50.9748014,27.6158014 C50.7928014,27.3991347 50.7018014,27.065468 50.7018014,26.6148014 L50.7018014,26.6148014 L50.7018014,23.4038014 C50.7018014,23.1698014 50.6281347,22.983468 50.4808014,22.8448014 C50.333468,22.7061347 50.1341347,22.6368014 49.8828014,22.6368014 C49.6401347,22.6368014 49.4451347,22.7061347 49.2978014,22.8448014 C49.150468,22.983468 49.0768014,23.1698014 49.0768014,23.4038014 L49.0768014,23.4038014 L49.0768014,26.6018014 C49.0768014,28.352468 49.8568014,29.2278014 51.4168014,29.2278014 Z M59.4638014,29.2278014 C59.836468,29.2278014 60.200468,29.177968 60.5558014,29.0783014 C60.9111347,28.9786347 61.2231347,28.8421347 61.4918014,28.6688014 C61.6391347,28.5821347 61.7453014,28.4846347 61.8103014,28.3763014 C61.8753014,28.267968 61.9078014,28.1401347 61.9078014,27.9928014 C61.9078014,27.8108014 61.8601347,27.6591347 61.7648014,27.5378014 C61.669468,27.416468 61.552468,27.3558014 61.4138014,27.3558014 C61.318468,27.3558014 61.2231347,27.3753014 61.1278014,27.4143014 C61.032468,27.4533014 60.9198014,27.5118014 60.7898014,27.5898014 C60.5818014,27.702468 60.3933014,27.7913014 60.2243014,27.8563014 C60.0553014,27.9213014 59.862468,27.9538014 59.6458014,27.9538014 C59.108468,27.9538014 58.6946347,27.7783014 58.4043014,27.4273014 C58.113968,27.0763014 57.9688014,26.5758014 57.9688014,25.9258014 C57.9688014,25.2671347 58.113968,24.7623014 58.4043014,24.4113014 C58.6946347,24.0603014 59.108468,23.8848014 59.6458014,23.8848014 C59.8711347,23.8848014 60.070468,23.9173014 60.2438014,23.9823014 C60.4171347,24.0473014 60.5991347,24.1361347 60.7898014,24.2488014 C60.8938014,24.309468 60.9978014,24.361468 61.1018014,24.4048014 C61.2058014,24.4481347 61.305468,24.4698014 61.4008014,24.4698014 C61.5481347,24.4698014 61.6673014,24.4113014 61.7583014,24.2943014 C61.8493014,24.1773014 61.8948014,24.023468 61.8948014,23.8328014 C61.8948014,23.555468 61.7561347,23.3258014 61.4788014,23.1438014 C61.2188014,22.9791347 60.9176347,22.8491347 60.5753014,22.7538014 C60.232968,22.658468 59.8928014,22.6108014 59.5548014,22.6108014 C58.913468,22.6108014 58.3458014,22.749468 57.8518014,23.0268014 C57.3578014,23.3041347 56.9743014,23.6963014 56.7013014,24.2033014 C56.4283014,24.7103014 56.2918014,25.2931347 56.2918014,25.9518014 C56.2918014,26.610468 56.4218014,27.1868014 56.6818014,27.6808014 C56.9418014,28.1748014 57.3123014,28.5561347 57.7933014,28.8248014 C58.2743014,29.093468 58.8311347,29.2278014 59.4638014,29.2278014 Z M65.9638014,29.1888014 C66.2758014,29.2061347 66.5163014,29.1606347 66.6853014,29.0523014 C66.8543014,28.943968 66.9388014,28.7858014 66.9388014,28.5778014 C66.9388014,28.2138014 66.7221347,28.0188014 66.2888014,27.9928014 L66.2888014,27.9928014 L65.9378014,27.9668014 C65.348468,27.923468 65.0538014,27.5811347 65.0538014,26.9398014 L65.0538014,26.9398014 L65.0538014,23.9888014 L66.1588014,23.9888014 C66.3928014,23.9888014 66.5726347,23.9368014 66.6983014,23.8328014 C66.823968,23.7288014 66.8868014,23.5771347 66.8868014,23.3778014 C66.8868014,23.178468 66.823968,23.0268014 66.6983014,22.9228014 C66.5726347,22.8188014 66.3928014,22.7668014 66.1588014,22.7668014 L66.1588014,22.7668014 L65.0538014,22.7668014 L65.0538014,21.5708014 C65.0538014,21.3368014 64.9801347,21.150468 64.8328014,21.0118014 C64.685468,20.8731347 64.490468,20.8038014 64.2478014,20.8038014 C63.996468,20.8038014 63.7971347,20.8731347 63.6498014,21.0118014 C63.502468,21.150468 63.4288014,21.3368014 63.4288014,21.5708014 L63.4288014,21.5708014 L63.4288014,22.7668014 L62.7788014,22.7668014 C62.5448014,22.7668014 62.364968,22.8188014 62.2393014,22.9228014 C62.1136347,23.0268014 62.0508014,23.178468 62.0508014,23.3778014 C62.0508014,23.5771347 62.1136347,23.7288014 62.2393014,23.8328014 C62.364968,23.9368014 62.5448014,23.9888014 62.7788014,23.9888014 L62.7788014,23.9888014 L63.4288014,23.9888014 L63.4288014,26.8228014 C63.4288014,28.2788014 64.1568014,29.0588014 65.6128014,29.1628014 L65.6128014,29.1628014 L65.9638014,29.1888014 Z M68.5898014,21.4798014 C68.884468,21.4798014 69.118468,21.3996347 69.2918014,21.2393014 C69.4651347,21.078968 69.5518014,20.8688014 69.5518014,20.6088014 C69.5518014,20.3488014 69.462968,20.1408014 69.2853014,19.9848014 C69.1076347,19.8288014 68.8758014,19.7508014 68.5898014,19.7508014 C68.2951347,19.7508014 68.0611347,19.8288014 67.8878014,19.9848014 C67.714468,20.1408014 67.6278014,20.3488014 67.6278014,20.6088014 C67.6278014,20.8688014 67.714468,21.078968 67.8878014,21.2393014 C68.0611347,21.3996347 68.2951347,21.4798014 68.5898014,21.4798014 Z M68.5898014,29.2018014 C68.8238014,29.2018014 69.0188014,29.1346347 69.1748014,29.0003014 C69.3308014,28.865968 69.4088014,28.6731347 69.4088014,28.4218014 L69.4088014,28.4218014 L69.4088014,23.4038014 C69.4088014,23.152468 69.3308014,22.9618014 69.1748014,22.8318014 C69.0188014,22.7018014 68.8238014,22.6368014 68.5898014,22.6368014 C68.3558014,22.6368014 68.162968,22.7018014 68.0113014,22.8318014 C67.8596347,22.9618014 67.7838014,23.152468 67.7838014,23.4038014 L67.7838014,23.4038014 L67.7838014,28.4218014 C67.7838014,28.6731347 67.8596347,28.865968 68.0113014,29.0003014 C68.162968,29.1346347 68.3558014,29.2018014 68.5898014,29.2018014 Z M73.9848014,29.2278014 C74.6348014,29.2278014 75.2046347,29.093468 75.6943014,28.8248014 C76.183968,28.5561347 76.560968,28.170468 76.8253014,27.6678014 C77.0896347,27.1651347 77.2218014,26.5801347 77.2218014,25.9128014 C77.2218014,25.245468 77.0896347,24.6626347 76.8253014,24.1643014 C76.560968,23.665968 76.183968,23.282468 75.6943014,23.0138014 C75.2046347,22.7451347 74.6348014,22.6108014 73.9848014,22.6108014 C73.3348014,22.6108014 72.764968,22.7451347 72.2753014,23.0138014 C71.7856347,23.282468 71.406468,23.665968 71.1378014,24.1643014 C70.8691347,24.6626347 70.7348014,25.245468 70.7348014,25.9128014 C70.7348014,26.5801347 70.8691347,27.1651347 71.1378014,27.6678014 C71.406468,28.170468 71.7856347,28.5561347 72.2753014,28.8248014 C72.764968,29.093468 73.3348014,29.2278014 73.9848014,29.2278014 Z M73.9718014,27.9668014 C73.4518014,27.9668014 73.0531347,27.793468 72.7758014,27.4468014 C72.498468,27.1001347 72.3598014,26.5888014 72.3598014,25.9128014 C72.3598014,25.245468 72.5006347,24.7363014 72.7823014,24.3853014 C73.063968,24.0343014 73.4648014,23.8588014 73.9848014,23.8588014 C74.5048014,23.8588014 74.903468,24.0343014 75.1808014,24.3853014 C75.4581347,24.7363014 75.5968014,25.245468 75.5968014,25.9128014 C75.5968014,26.5888014 75.4581347,27.1001347 75.1808014,27.4468014 C74.903468,27.793468 74.500468,27.9668014 73.9718014,27.9668014 Z M83.7088014,29.2018014 C83.9601347,29.2018014 84.1573014,29.132468 84.3003014,28.9938014 C84.4433014,28.8551347 84.5148014,28.664468 84.5148014,28.4218014 L84.5148014,28.4218014 L84.5148014,25.2238014 C84.5148014,24.348468 84.328468,23.6941347 83.9558014,23.2608014 C83.5831347,22.827468 83.015468,22.6108014 82.2528014,22.6108014 C81.793468,22.6108014 81.3818014,22.7061347 81.0178014,22.8968014 C80.6538014,23.087468 80.363468,23.360468 80.1468014,23.7158014 L80.1468014,23.7158014 L80.1468014,23.3648014 C80.1468014,23.1481347 80.0753014,22.9726347 79.9323014,22.8383014 C79.7893014,22.703968 79.6051347,22.6368014 79.3798014,22.6368014 C79.128468,22.6368014 78.9291347,22.7061347 78.7818014,22.8448014 C78.634468,22.983468 78.5608014,23.165468 78.5608014,23.3908014 L78.5608014,23.3908014 L78.5608014,28.4218014 C78.5608014,28.664468 78.6323014,28.8551347 78.7753014,28.9938014 C78.9183014,29.132468 79.115468,29.2018014 79.3668014,29.2018014 C79.6181347,29.2018014 79.817468,29.132468 79.9648014,28.9938014 C80.1121347,28.8551347 80.1858014,28.664468 80.1858014,28.4218014 L80.1858014,28.4218014 L80.1858014,25.5228014 C80.1858014,25.0288014 80.3266347,24.634468 80.6083014,24.3398014 C80.889968,24.0451347 81.2648014,23.8978014 81.7328014,23.8978014 C82.131468,23.8978014 82.423968,24.010468 82.6103014,24.2358014 C82.7966347,24.4611347 82.8898014,24.8208014 82.8898014,25.3148014 L82.8898014,25.3148014 L82.8898014,28.4218014 C82.8898014,28.664468 82.963468,28.8551347 83.1108014,28.9938014 C83.2581347,29.132468 83.457468,29.2018014 83.7088014,29.2018014 Z" id="Production" fill="#083A45" fill-rule="nonzero"/><path d="M24.9348014,50.4686027 C25.3748014,50.4686027 25.5948014,50.2742694 25.5948014,49.8856027 C25.5948014,49.5116027 25.3748014,49.3246027 24.9348014,49.3246027 L24.9348014,49.3246027 L23.7798014,49.3246027 L23.7798014,43.3626027 C23.7798014,43.1426027 23.717468,42.9702694 23.5928014,42.8456027 C23.4681347,42.7209361 23.3031347,42.6586027 23.0978014,42.6586027 C22.8998014,42.6586027 22.6908014,42.7246027 22.4708014,42.8566027 L22.4708014,42.8566027 L20.7658014,43.9126027 C20.5751347,44.0299361 20.4798014,44.1949361 20.4798014,44.4076027 C20.4798014,44.5689361 20.532968,44.7156027 20.6393014,44.8476027 C20.7456347,44.9796027 20.8758014,45.0456027 21.0298014,45.0456027 C21.110468,45.0456027 21.2021347,45.0162694 21.3048014,44.9576027 L21.3048014,44.9576027 L22.3608014,44.3086027 L22.3608014,49.3246027 L21.2168014,49.3246027 C20.769468,49.3246027 20.5458014,49.5116027 20.5458014,49.8856027 C20.5458014,50.2742694 20.769468,50.4686027 21.2168014,50.4686027 L21.2168014,50.4686027 L24.9348014,50.4686027 Z M27.3878014,50.5346027 C27.622468,50.5346027 27.8168014,50.4557694 27.9708014,50.2981027 C28.1248014,50.1404361 28.2018014,49.9442694 28.2018014,49.7096027 C28.2018014,49.4749361 28.1248014,49.2787694 27.9708014,49.1211027 C27.8168014,48.9634361 27.622468,48.8846027 27.3878014,48.8846027 C27.1531347,48.8846027 26.9588014,48.9634361 26.8048014,49.1211027 C26.6508014,49.2787694 26.5738014,49.4749361 26.5738014,49.7096027 C26.5738014,49.9442694 26.6508014,50.1404361 26.8048014,50.2981027 C26.9588014,50.4557694 27.1531347,50.5346027 27.3878014,50.5346027 Z M32.0518014,50.5676027 C32.968468,50.5676027 33.6688014,50.2266027 34.1528014,49.5446027 C34.6368014,48.8626027 34.8788014,47.8762694 34.8788014,46.5856027 C34.8788014,45.2949361 34.6368014,44.3104361 34.1528014,43.6321027 C33.6688014,42.9537694 32.968468,42.6146027 32.0518014,42.6146027 C31.1351347,42.6146027 30.4348014,42.9537694 29.9508014,43.6321027 C29.4668014,44.3104361 29.2248014,45.2949361 29.2248014,46.5856027 C29.2248014,47.8836027 29.4668014,48.8717694 29.9508014,49.5501027 C30.4348014,50.2284361 31.1351347,50.5676027 32.0518014,50.5676027 Z M32.0518014,49.4566027 C31.5531347,49.4566027 31.1901347,49.2274361 30.9628014,48.7691027 C30.735468,48.3107694 30.6218014,47.5829361 30.6218014,46.5856027 C30.6218014,45.5882694 30.735468,44.8622694 30.9628014,44.4076027 C31.1901347,43.9529361 31.5531347,43.7256027 32.0518014,43.7256027 C32.550468,43.7256027 32.913468,43.9511027 33.1408014,44.4021027 C33.3681347,44.8531027 33.4818014,45.5809361 33.4818014,46.5856027 C33.4818014,47.5829361 33.3681347,48.3107694 33.1408014,48.7691027 C32.913468,49.2274361 32.550468,49.4566027 32.0518014,49.4566027 Z M36.7158014,50.5346027 C36.950468,50.5346027 37.1448014,50.4557694 37.2988014,50.2981027 C37.4528014,50.1404361 37.5298014,49.9442694 37.5298014,49.7096027 C37.5298014,49.4749361 37.4528014,49.2787694 37.2988014,49.1211027 C37.1448014,48.9634361 36.950468,48.8846027 36.7158014,48.8846027 C36.4811347,48.8846027 36.2868014,48.9634361 36.1328014,49.1211027 C35.9788014,49.2787694 35.9018014,49.4749361 35.9018014,49.7096027 C35.9018014,49.9442694 35.9788014,50.1404361 36.1328014,50.2981027 C36.2868014,50.4557694 36.4811347,50.5346027 36.7158014,50.5346027 Z M43.5578014,50.4686027 C43.9978014,50.4686027 44.2178014,50.2742694 44.2178014,49.8856027 C44.2178014,49.5116027 43.9978014,49.3246027 43.5578014,49.3246027 L43.5578014,49.3246027 L40.6538014,49.3246027 L42.5568014,47.3006027 C43.011468,46.8166027 43.3341347,46.3784361 43.5248014,45.9861027 C43.715468,45.5937694 43.8108014,45.1739361 43.8108014,44.7266027 C43.8108014,44.0812694 43.5853014,43.5679361 43.1343014,43.1866027 C42.6833014,42.8052694 42.0801347,42.6146027 41.3248014,42.6146027 C40.8921347,42.6146027 40.459468,42.6897694 40.0268014,42.8401027 C39.5941347,42.9904361 39.216468,43.1939361 38.8938014,43.4506027 C38.8058014,43.5239361 38.7416347,43.6009361 38.7013014,43.6816027 C38.660968,43.7622694 38.6408014,43.8576027 38.6408014,43.9676027 C38.6408014,44.1289361 38.6866347,44.2682694 38.7783014,44.3856027 C38.869968,44.5029361 38.9781347,44.5616027 39.1028014,44.5616027 C39.1761347,44.5616027 39.249468,44.5451027 39.3228014,44.5121027 C39.3961347,44.4791027 39.469468,44.4369361 39.5428014,44.3856027 C39.8288014,44.1876027 40.112968,44.0317694 40.3953014,43.9181027 C40.6776347,43.8044361 40.9691347,43.7476027 41.2698014,43.7476027 C41.636468,43.7476027 41.9188014,43.8392694 42.1168014,44.0226027 C42.3148014,44.2059361 42.4138014,44.4699361 42.4138014,44.8146027 C42.4138014,45.0932694 42.3423014,45.3737694 42.1993014,45.6561027 C42.0563014,45.9384361 41.8308014,46.2482694 41.5228014,46.5856027 L41.5228014,46.5856027 L39.0148014,49.2806027 C38.8461347,49.4566027 38.7618014,49.6546027 38.7618014,49.8746027 C38.7618014,50.0432694 38.8168014,50.1844361 38.9268014,50.2981027 C39.0368014,50.4117694 39.1871347,50.4686027 39.3778014,50.4686027 L39.3778014,50.4686027 L43.5578014,50.4686027 Z" id="1.0.2" fill="#427692" fill-rule="nonzero"/><g id="icon/secondary/small/open-link-copy" transform="translate(53.271404, 42.544801)" stroke="#4E82EE" stroke-linecap="round" stroke-linejoin="round" stroke-width="1.94238014"><g id="Group-2" transform="translate(4.971190, 4.740711) rotate(-90.000000) translate(-4.971190, -4.740711) translate(0.971190, 0.740711)"><polyline id="Path-5" points="0 3.88476027 3.88476027 7.76952055 7.76952055 3.88476027"/><path d="M3.88476027,7.76952055 L3.88476027,2.35900188e-12 L3.88476027,7.76952055 Z" id="Path-5-Copy"/></g></g><path d="M75.2062055,50.4686027 C75.6462055,50.4686027 75.8662055,50.2742694 75.8662055,49.8856027 C75.8662055,49.5116027 75.6462055,49.3246027 75.2062055,49.3246027 L75.2062055,49.3246027 L74.0512055,49.3246027 L74.0512055,43.3626027 C74.0512055,43.1426027 73.9888721,42.9702694 73.8642055,42.8456027 C73.7395388,42.7209361 73.5745388,42.6586027 73.3692055,42.6586027 C73.1712055,42.6586027 72.9622055,42.7246027 72.7422055,42.8566027 L72.7422055,42.8566027 L71.0372055,43.9126027 C70.8465388,44.0299361 70.7512055,44.1949361 70.7512055,44.4076027 C70.7512055,44.5689361 70.8043721,44.7156027 70.9107055,44.8476027 C71.0170388,44.9796027 71.1472055,45.0456027 71.3012055,45.0456027 C71.3818721,45.0456027 71.4735388,45.0162694 71.5762055,44.9576027 L71.5762055,44.9576027 L72.6322055,44.3086027 L72.6322055,49.3246027 L71.4882055,49.3246027 C71.0408721,49.3246027 70.8172055,49.5116027 70.8172055,49.8856027 C70.8172055,50.2742694 71.0408721,50.4686027 71.4882055,50.4686027 L71.4882055,50.4686027 L75.2062055,50.4686027 Z M77.6592055,50.5346027 C77.8938721,50.5346027 78.0882055,50.4557694 78.2422055,50.2981027 C78.3962055,50.1404361 78.4732055,49.9442694 78.4732055,49.7096027 C78.4732055,49.4749361 78.3962055,49.2787694 78.2422055,49.1211027 C78.0882055,48.9634361 77.8938721,48.8846027 77.6592055,48.8846027 C77.4245388,48.8846027 77.2302055,48.9634361 77.0762055,49.1211027 C76.9222055,49.2787694 76.8452055,49.4749361 76.8452055,49.7096027 C76.8452055,49.9442694 76.9222055,50.1404361 77.0762055,50.2981027 C77.2302055,50.4557694 77.4245388,50.5346027 77.6592055,50.5346027 Z M82.3232055,50.5676027 C83.2398721,50.5676027 83.9402055,50.2266027 84.4242055,49.5446027 C84.9082055,48.8626027 85.1502055,47.8762694 85.1502055,46.5856027 C85.1502055,45.2949361 84.9082055,44.3104361 84.4242055,43.6321027 C83.9402055,42.9537694 83.2398721,42.6146027 82.3232055,42.6146027 C81.4065388,42.6146027 80.7062055,42.9537694 80.2222055,43.6321027 C79.7382055,44.3104361 79.4962055,45.2949361 79.4962055,46.5856027 C79.4962055,47.8836027 79.7382055,48.8717694 80.2222055,49.5501027 C80.7062055,50.2284361 81.4065388,50.5676027 82.3232055,50.5676027 Z M82.3232055,49.4566027 C81.8245388,49.4566027 81.4615388,49.2274361 81.2342055,48.7691027 C81.0068721,48.3107694 80.8932055,47.5829361 80.8932055,46.5856027 C80.8932055,45.5882694 81.0068721,44.8622694 81.2342055,44.4076027 C81.4615388,43.9529361 81.8245388,43.7256027 82.3232055,43.7256027 C82.8218721,43.7256027 83.1848721,43.9511027 83.4122055,44.4021027 C83.6395388,44.8531027 83.7532055,45.5809361 83.7532055,46.5856027 C83.7532055,47.5829361 83.6395388,48.3107694 83.4122055,48.7691027 C83.1848721,49.2274361 82.8218721,49.4566027 82.3232055,49.4566027 Z M86.9872055,50.5346027 C87.2218721,50.5346027 87.4162055,50.4557694 87.5702055,50.2981027 C87.7242055,50.1404361 87.8012055,49.9442694 87.8012055,49.7096027 C87.8012055,49.4749361 87.7242055,49.2787694 87.5702055,49.1211027 C87.4162055,48.9634361 87.2218721,48.8846027 86.9872055,48.8846027 C86.7525388,48.8846027 86.5582055,48.9634361 86.4042055,49.1211027 C86.2502055,49.2787694 86.1732055,49.4749361 86.1732055,49.7096027 C86.1732055,49.9442694 86.2502055,50.1404361 86.4042055,50.2981027 C86.5582055,50.4557694 86.7525388,50.5346027 86.9872055,50.5346027 Z M91.5412055,50.5566027 C92.3772055,50.5566027 93.0408721,50.3586027 93.5322055,49.9626027 C94.0235388,49.5666027 94.2692055,49.0349361 94.2692055,48.3676027 C94.2692055,47.8836027 94.1463721,47.4784361 93.9007055,47.1521027 C93.6550388,46.8257694 93.3012055,46.6039361 92.8392055,46.4866027 C93.2278721,46.3399361 93.5303721,46.1071027 93.7467055,45.7881027 C93.9630388,45.4691027 94.0748721,45.0969361 94.0822055,44.6716027 C94.0822055,44.0482694 93.8567055,43.5496027 93.4057055,43.1756027 C92.9547055,42.8016027 92.3478721,42.6146027 91.5852055,42.6146027 C91.1378721,42.6146027 90.6997055,42.6897694 90.2707055,42.8401027 C89.8417055,42.9904361 89.4732055,43.1939361 89.1652055,43.4506027 C89.0772055,43.5312694 89.0130388,43.6101027 88.9727055,43.6871027 C88.9323721,43.7641027 88.9122055,43.8576027 88.9122055,43.9676027 C88.9122055,44.1289361 88.9580388,44.2664361 89.0497055,44.3801027 C89.1413721,44.4937694 89.2495388,44.5506027 89.3742055,44.5506027 C89.4475388,44.5506027 89.5135388,44.5377694 89.5722055,44.5121027 C89.6308721,44.4864361 89.7115388,44.4442694 89.8142055,44.3856027 C90.4228721,43.9602694 90.9948721,43.7476027 91.5302055,43.7476027 C91.9042055,43.7476027 92.1975388,43.8429361 92.4102055,44.0336027 C92.6228721,44.2242694 92.7292055,44.4956027 92.7292055,44.8476027 C92.7292055,45.6029361 92.2268721,45.9806027 91.2222055,45.9806027 L91.2222055,45.9806027 L90.7822055,45.9806027 C90.6135388,45.9806027 90.4833721,46.0356027 90.3917055,46.1456027 C90.3000388,46.2556027 90.2542055,46.3876027 90.2542055,46.5416027 C90.2542055,46.6882694 90.3000388,46.8184361 90.3917055,46.9321027 C90.4833721,47.0457694 90.6135388,47.1026027 90.7822055,47.1026027 L90.7822055,47.1026027 L91.4092055,47.1026027 C91.9225388,47.1026027 92.3020388,47.1961027 92.5477055,47.3831027 C92.7933721,47.5701027 92.9162055,47.8579361 92.9162055,48.2466027 C92.9162055,48.6426027 92.7988721,48.9377694 92.5642055,49.1321027 C92.3295388,49.3264361 91.9702055,49.4236027 91.4862055,49.4236027 C91.1562055,49.4236027 90.8518721,49.3686027 90.5732055,49.2586027 C90.2945388,49.1486027 90.0012055,48.9909361 89.6932055,48.7856027 C89.5905388,48.7269361 89.5098721,48.6847694 89.4512055,48.6591027 C89.3925388,48.6334361 89.3265388,48.6206027 89.2532055,48.6206027 C89.1285388,48.6206027 89.0203721,48.6774361 88.9287055,48.7911027 C88.8370388,48.9047694 88.7912055,49.0422694 88.7912055,49.2036027 C88.7912055,49.4016027 88.8755388,49.5739361 89.0442055,49.7206027 C89.3522055,49.9846027 89.7262055,50.1899361 90.1662055,50.3366027 C90.6062055,50.4832694 91.0645388,50.5566027 91.5412055,50.5566027 Z" id="1.0.3" fill="#427692" fill-rule="nonzero"/></g><g id="Group-2-Copy-2" transform="translate(16.389015, 136.000000)"><g id="base"><use fill="black" fill-opacity="1" filter="url(#filter-4)" xlink:href="#path-3"/><use fill="#FFFFFF" fill-rule="evenodd" xlink:href="#path-3"/></g><g id="icon/status/success-large-copy" transform="translate(256.000000, 25.268099)"><g id="icon-status-success-large"><circle id="Combined-Shape" fill="#00BC98" cx="9.71190068" cy="9.71190068" r="9.71190068"/><path d="M12.8010311,5.27019948 C13.108621,4.83078521 13.7141876,4.72392052 14.1536019,5.03151051 C14.5930162,5.33910049 14.6998808,5.94466708 14.3922909,6.38408134 L9.293543,13.6680069 C8.94723709,14.1627296 8.23818993,14.2248129 7.81117801,13.797801 L4.89760781,10.8842308 C4.5183345,10.5049575 4.5183345,9.89003395 4.89760781,9.51076063 C5.27688112,9.13148732 5.89180466,9.13148732 6.27107798,9.51076063 L8.36611343,11.6057961 L12.8010311,5.27019948 Z" id="Path-2" fill="#FFFFFF"/></g></g><path d="M23.7918014,29.1238014 C25.2911347,29.1238014 26.4546347,28.722968 27.2823014,27.9213014 C28.109968,27.1196347 28.5238014,25.9908014 28.5238014,24.5348014 C28.5238014,23.087468 28.109968,21.962968 27.2823014,21.1613014 C26.4546347,20.3596347 25.2911347,19.9588014 23.7918014,19.9588014 L23.7918014,19.9588014 L21.2178014,19.9588014 C20.966468,19.9588014 20.7693014,20.0281347 20.6263014,20.1668014 C20.4833014,20.305468 20.4118014,20.500468 20.4118014,20.7518014 L20.4118014,20.7518014 L20.4118014,28.3308014 C20.4118014,28.5821347 20.4833014,28.7771347 20.6263014,28.9158014 C20.7693014,29.054468 20.966468,29.1238014 21.2178014,29.1238014 L21.2178014,29.1238014 L23.7918014,29.1238014 Z M23.6878014,27.7588014 L22.0888014,27.7588014 L22.0888014,21.3238014 L23.6878014,21.3238014 C25.7938014,21.3238014 26.8468014,22.3941347 26.8468014,24.5348014 C26.8468014,26.6841347 25.7938014,27.7588014 23.6878014,27.7588014 L23.6878014,27.7588014 Z M33.0478014,29.2278014 C33.3858014,29.2278014 33.7411347,29.177968 34.1138014,29.0783014 C34.486468,28.9786347 34.8201347,28.846468 35.1148014,28.6818014 C35.435468,28.4998014 35.5958014,28.274468 35.5958014,28.0058014 C35.5958014,27.8151347 35.5503014,27.663468 35.4593014,27.5508014 C35.3683014,27.4381347 35.2491347,27.3818014 35.1018014,27.3818014 C34.980468,27.3818014 34.7898014,27.4511347 34.5298014,27.5898014 C34.2611347,27.7111347 34.0206347,27.806468 33.8083014,27.8758014 C33.595968,27.9451347 33.3511347,27.9798014 33.0738014,27.9798014 C32.5278014,27.9798014 32.1118014,27.838968 31.8258014,27.5573014 C31.5398014,27.2756347 31.3708014,26.8358014 31.3188014,26.2378014 L31.3188014,26.2378014 L35.1538014,26.2378014 C35.4831347,26.2378014 35.6478014,26.051468 35.6478014,25.6788014 C35.6478014,25.0548014 35.5308014,24.5131347 35.2968014,24.0538014 C35.0628014,23.594468 34.733468,23.2391347 34.3088014,22.9878014 C33.8841347,22.736468 33.3858014,22.6108014 32.8138014,22.6108014 C32.2158014,22.6108014 31.6806347,22.749468 31.2083014,23.0268014 C30.735968,23.3041347 30.3698014,23.6941347 30.1098014,24.1968014 C29.8498014,24.699468 29.7198014,25.2758014 29.7198014,25.9258014 C29.7198014,26.948468 30.0188014,27.754468 30.6168014,28.3438014 C31.2148014,28.9331347 32.0251347,29.2278014 33.0478014,29.2278014 Z M34.2568014,25.3668014 L31.3188014,25.3668014 C31.3708014,24.8468014 31.528968,24.4481347 31.7933014,24.1708014 C32.0576347,23.893468 32.4108014,23.7548014 32.8528014,23.7548014 C33.2861347,23.7548014 33.6241347,23.8913014 33.8668014,24.1643014 C34.109468,24.4373014 34.239468,24.8381347 34.2568014,25.3668014 L34.2568014,25.3668014 Z M39.5608014,29.1888014 C39.7341347,29.1888014 39.8923014,29.145468 40.0353014,29.0588014 C40.1783014,28.9721347 40.2888014,28.846468 40.3668014,28.6818014 L40.3668014,28.6818014 L42.7718014,23.6508014 C42.8238014,23.5468014 42.8498014,23.4428014 42.8498014,23.3388014 C42.8498014,23.139468 42.7696347,22.9726347 42.6093014,22.8383014 C42.448968,22.703968 42.2691347,22.6368014 42.0698014,22.6368014 C41.9311347,22.6368014 41.8033014,22.6758014 41.6863014,22.7538014 C41.5693014,22.8318014 41.4761347,22.9488014 41.4068014,23.1048014 L41.4068014,23.1048014 L39.5998014,27.1088014 L37.7798014,23.0918014 C37.632468,22.788468 37.4028014,22.6368014 37.0908014,22.6368014 C36.8741347,22.6368014 36.6813014,22.7061347 36.5123014,22.8448014 C36.3433014,22.983468 36.2588014,23.152468 36.2588014,23.3518014 C36.2588014,23.464468 36.280468,23.5641347 36.3238014,23.6508014 L36.3238014,23.6508014 L38.7418014,28.6818014 C38.8198014,28.846468 38.9346347,28.9721347 39.0863014,29.0588014 C39.237968,29.145468 39.3961347,29.1888014 39.5608014,29.1888014 Z M46.7888014,29.2278014 C47.1268014,29.2278014 47.4821347,29.177968 47.8548014,29.0783014 C48.227468,28.9786347 48.5611347,28.846468 48.8558014,28.6818014 C49.176468,28.4998014 49.3368014,28.274468 49.3368014,28.0058014 C49.3368014,27.8151347 49.2913014,27.663468 49.2003014,27.5508014 C49.1093014,27.4381347 48.9901347,27.3818014 48.8428014,27.3818014 C48.721468,27.3818014 48.5308014,27.4511347 48.2708014,27.5898014 C48.0021347,27.7111347 47.7616347,27.806468 47.5493014,27.8758014 C47.336968,27.9451347 47.0921347,27.9798014 46.8148014,27.9798014 C46.2688014,27.9798014 45.8528014,27.838968 45.5668014,27.5573014 C45.2808014,27.2756347 45.1118014,26.8358014 45.0598014,26.2378014 L45.0598014,26.2378014 L48.8948014,26.2378014 C49.2241347,26.2378014 49.3888014,26.051468 49.3888014,25.6788014 C49.3888014,25.0548014 49.2718014,24.5131347 49.0378014,24.0538014 C48.8038014,23.594468 48.474468,23.2391347 48.0498014,22.9878014 C47.6251347,22.736468 47.1268014,22.6108014 46.5548014,22.6108014 C45.9568014,22.6108014 45.4216347,22.749468 44.9493014,23.0268014 C44.476968,23.3041347 44.1108014,23.6941347 43.8508014,24.1968014 C43.5908014,24.699468 43.4608014,25.2758014 43.4608014,25.9258014 C43.4608014,26.948468 43.7598014,27.754468 44.3578014,28.3438014 C44.9558014,28.9331347 45.7661347,29.2278014 46.7888014,29.2278014 Z M47.9978014,25.3668014 L45.0598014,25.3668014 C45.1118014,24.8468014 45.269968,24.4481347 45.5343014,24.1708014 C45.7986347,23.893468 46.1518014,23.7548014 46.5938014,23.7548014 C47.0271347,23.7548014 47.3651347,23.8913014 47.6078014,24.1643014 C47.850468,24.4373014 47.980468,24.8381347 47.9978014,25.3668014 L47.9978014,25.3668014 Z M51.5208014,29.2018014 C51.7548014,29.2018014 51.9498014,29.1346347 52.1058014,29.0003014 C52.2618014,28.865968 52.3398014,28.6731347 52.3398014,28.4218014 L52.3398014,28.4218014 L52.3398014,20.6608014 C52.3398014,20.409468 52.2618014,20.2188014 52.1058014,20.0888014 C51.9498014,19.9588014 51.7548014,19.8938014 51.5208014,19.8938014 C51.2868014,19.8938014 51.093968,19.9588014 50.9423014,20.0888014 C50.7906347,20.2188014 50.7148014,20.409468 50.7148014,20.6608014 L50.7148014,20.6608014 L50.7148014,28.4218014 C50.7148014,28.6731347 50.7906347,28.865968 50.9423014,29.0003014 C51.093968,29.1346347 51.2868014,29.2018014 51.5208014,29.2018014 Z M56.9158014,29.2278014 C57.5658014,29.2278014 58.1356347,29.093468 58.6253014,28.8248014 C59.114968,28.5561347 59.491968,28.170468 59.7563014,27.6678014 C60.0206347,27.1651347 60.1528014,26.5801347 60.1528014,25.9128014 C60.1528014,25.245468 60.0206347,24.6626347 59.7563014,24.1643014 C59.491968,23.665968 59.114968,23.282468 58.6253014,23.0138014 C58.1356347,22.7451347 57.5658014,22.6108014 56.9158014,22.6108014 C56.2658014,22.6108014 55.695968,22.7451347 55.2063014,23.0138014 C54.7166347,23.282468 54.337468,23.665968 54.0688014,24.1643014 C53.8001347,24.6626347 53.6658014,25.245468 53.6658014,25.9128014 C53.6658014,26.5801347 53.8001347,27.1651347 54.0688014,27.6678014 C54.337468,28.170468 54.7166347,28.5561347 55.2063014,28.8248014 C55.695968,29.093468 56.2658014,29.2278014 56.9158014,29.2278014 Z M56.9028014,27.9668014 C56.3828014,27.9668014 55.9841347,27.793468 55.7068014,27.4468014 C55.429468,27.1001347 55.2908014,26.5888014 55.2908014,25.9128014 C55.2908014,25.245468 55.4316347,24.7363014 55.7133014,24.3853014 C55.994968,24.0343014 56.3958014,23.8588014 56.9158014,23.8588014 C57.4358014,23.8588014 57.834468,24.0343014 58.1118014,24.3853014 C58.3891347,24.7363014 58.5278014,25.245468 58.5278014,25.9128014 C58.5278014,26.5888014 58.3891347,27.1001347 58.1118014,27.4468014 C57.834468,27.793468 57.431468,27.9668014 56.9028014,27.9668014 Z M62.3108014,31.5288014 C62.553468,31.5288014 62.748468,31.4638014 62.8958014,31.3338014 C63.0431347,31.2038014 63.1168014,31.0261347 63.1168014,30.8008014 L63.1168014,30.8008014 L63.1168014,28.1488014 C63.307468,28.4868014 63.580468,28.7511347 63.9358014,28.9418014 C64.2911347,29.132468 64.6941347,29.2278014 65.1448014,29.2278014 C65.699468,29.2278014 66.1891347,29.093468 66.6138014,28.8248014 C67.038468,28.5561347 67.369968,28.1748014 67.6083014,27.6808014 C67.8466347,27.1868014 67.9658014,26.610468 67.9658014,25.9518014 C67.9658014,25.2931347 67.8466347,24.7103014 67.6083014,24.2033014 C67.369968,23.6963014 67.0363014,23.3041347 66.6073014,23.0268014 C66.1783014,22.749468 65.6908014,22.6108014 65.1448014,22.6108014 C64.685468,22.6108014 64.275968,22.7083014 63.9163014,22.9033014 C63.5566347,23.0983014 63.281468,23.373468 63.0908014,23.7288014 L63.0908014,23.7288014 L63.0908014,23.4038014 C63.0908014,23.1698014 63.0171347,22.983468 62.8698014,22.8448014 C62.722468,22.7061347 62.527468,22.6368014 62.2848014,22.6368014 C62.0421347,22.6368014 61.8493014,22.7061347 61.7063014,22.8448014 C61.5633014,22.983468 61.4918014,23.1698014 61.4918014,23.4038014 L61.4918014,23.4038014 L61.4918014,30.7748014 C61.4918014,31.0001347 61.5676347,31.1821347 61.7193014,31.3208014 C61.870968,31.459468 62.0681347,31.5288014 62.3108014,31.5288014 Z M64.7158014,27.9668014 C64.1958014,27.9668014 63.794968,27.7891347 63.5133014,27.4338014 C63.2316347,27.078468 63.0908014,26.5758014 63.0908014,25.9258014 C63.0908014,25.2671347 63.2316347,24.7601347 63.5133014,24.4048014 C63.794968,24.049468 64.1958014,23.8718014 64.7158014,23.8718014 C65.2271347,23.8718014 65.6258014,24.0538014 65.9118014,24.4178014 C66.1978014,24.7818014 66.3408014,25.2931347 66.3408014,25.9518014 C66.3408014,26.5931347 66.1978014,27.0893014 65.9118014,27.4403014 C65.6258014,27.7913014 65.2271347,27.9668014 64.7158014,27.9668014 Z M78.1838014,29.2018014 C78.426468,29.2018014 78.6236347,29.1346347 78.7753014,29.0003014 C78.926968,28.865968 79.0028014,28.6731347 79.0028014,28.4218014 L79.0028014,28.4218014 L79.0028014,25.2238014 C79.0028014,24.3051347 78.8186347,23.639968 78.4503014,23.2283014 C78.081968,22.8166347 77.5511347,22.6108014 76.8578014,22.6108014 C76.3898014,22.6108014 75.969468,22.7191347 75.5968014,22.9358014 C75.2241347,23.152468 74.942468,23.4428014 74.7518014,23.8068014 C74.4311347,23.009468 73.7941347,22.6108014 72.8408014,22.6108014 C72.407468,22.6108014 72.023968,22.7018014 71.6903014,22.8838014 C71.3566347,23.0658014 71.0901347,23.3301347 70.8908014,23.6768014 L70.8908014,23.6768014 L70.8908014,23.3648014 C70.8908014,23.1308014 70.8193014,22.950968 70.6763014,22.8253014 C70.5333014,22.6996347 70.3491347,22.6368014 70.1238014,22.6368014 C69.8898014,22.6368014 69.6948014,22.7018014 69.5388014,22.8318014 C69.3828014,22.9618014 69.3048014,23.1481347 69.3048014,23.3908014 L69.3048014,23.3908014 L69.3048014,28.4218014 C69.3048014,28.6731347 69.3806347,28.865968 69.5323014,29.0003014 C69.683968,29.1346347 69.8768014,29.2018014 70.1108014,29.2018014 C70.3448014,29.2018014 70.5398014,29.1346347 70.6958014,29.0003014 C70.8518014,28.865968 70.9298014,28.6731347 70.9298014,28.4218014 L70.9298014,28.4218014 L70.9298014,25.5228014 C70.9298014,25.0201347 71.0533014,24.6236347 71.3003014,24.3333014 C71.5473014,24.042968 71.8831347,23.8978014 72.3078014,23.8978014 C72.654468,23.8978014 72.9123014,23.9996347 73.0813014,24.2033014 C73.2503014,24.406968 73.3348014,24.7471347 73.3348014,25.2238014 L73.3348014,25.2238014 L73.3348014,28.4218014 C73.3348014,28.6731347 73.4128014,28.865968 73.5688014,29.0003014 C73.7248014,29.1346347 73.9198014,29.2018014 74.1538014,29.2018014 C74.3878014,29.2018014 74.5806347,29.1346347 74.7323014,29.0003014 C74.883968,28.865968 74.9598014,28.6731347 74.9598014,28.4218014 L74.9598014,28.4218014 L74.9598014,25.5228014 C74.9598014,25.0201347 75.085468,24.6236347 75.3368014,24.3333014 C75.5881347,24.042968 75.9261347,23.8978014 76.3508014,23.8978014 C76.697468,23.8978014 76.9553014,23.9996347 77.1243014,24.2033014 C77.2933014,24.406968 77.3778014,24.7471347 77.3778014,25.2238014 L77.3778014,25.2238014 L77.3778014,28.4218014 C77.3778014,28.6731347 77.4536347,28.865968 77.6053014,29.0003014 C77.756968,29.1346347 77.9498014,29.2018014 78.1838014,29.2018014 Z M83.6308014,29.2278014 C83.9688014,29.2278014 84.3241347,29.177968 84.6968014,29.0783014 C85.069468,28.9786347 85.4031347,28.846468 85.6978014,28.6818014 C86.018468,28.4998014 86.1788014,28.274468 86.1788014,28.0058014 C86.1788014,27.8151347 86.1333014,27.663468 86.0423014,27.5508014 C85.9513014,27.4381347 85.8321347,27.3818014 85.6848014,27.3818014 C85.563468,27.3818014 85.3728014,27.4511347 85.1128014,27.5898014 C84.8441347,27.7111347 84.6036347,27.806468 84.3913014,27.8758014 C84.178968,27.9451347 83.9341347,27.9798014 83.6568014,27.9798014 C83.1108014,27.9798014 82.6948014,27.838968 82.4088014,27.5573014 C82.1228014,27.2756347 81.9538014,26.8358014 81.9018014,26.2378014 L81.9018014,26.2378014 L85.7368014,26.2378014 C86.0661347,26.2378014 86.2308014,26.051468 86.2308014,25.6788014 C86.2308014,25.0548014 86.1138014,24.5131347 85.8798014,24.0538014 C85.6458014,23.594468 85.316468,23.2391347 84.8918014,22.9878014 C84.4671347,22.736468 83.9688014,22.6108014 83.3968014,22.6108014 C82.7988014,22.6108014 82.2636347,22.749468 81.7913014,23.0268014 C81.318968,23.3041347 80.9528014,23.6941347 80.6928014,24.1968014 C80.4328014,24.699468 80.3028014,25.2758014 80.3028014,25.9258014 C80.3028014,26.948468 80.6018014,27.754468 81.1998014,28.3438014 C81.7978014,28.9331347 82.6081347,29.2278014 83.6308014,29.2278014 Z M84.8398014,25.3668014 L81.9018014,25.3668014 C81.9538014,24.8468014 82.111968,24.4481347 82.3763014,24.1708014 C82.6406347,23.893468 82.9938014,23.7548014 83.4358014,23.7548014 C83.8691347,23.7548014 84.2071347,23.8913014 84.4498014,24.1643014 C84.692468,24.4373014 84.822468,24.8381347 84.8398014,25.3668014 L84.8398014,25.3668014 Z M92.7048014,29.2018014 C92.9561347,29.2018014 93.1533014,29.132468 93.2963014,28.9938014 C93.4393014,28.8551347 93.5108014,28.664468 93.5108014,28.4218014 L93.5108014,28.4218014 L93.5108014,25.2238014 C93.5108014,24.348468 93.324468,23.6941347 92.9518014,23.2608014 C92.5791347,22.827468 92.011468,22.6108014 91.2488014,22.6108014 C90.789468,22.6108014 90.3778014,22.7061347 90.0138014,22.8968014 C89.6498014,23.087468 89.359468,23.360468 89.1428014,23.7158014 L89.1428014,23.7158014 L89.1428014,23.3648014 C89.1428014,23.1481347 89.0713014,22.9726347 88.9283014,22.8383014 C88.7853014,22.703968 88.6011347,22.6368014 88.3758014,22.6368014 C88.124468,22.6368014 87.9251347,22.7061347 87.7778014,22.8448014 C87.630468,22.983468 87.5568014,23.165468 87.5568014,23.3908014 L87.5568014,23.3908014 L87.5568014,28.4218014 C87.5568014,28.664468 87.6283014,28.8551347 87.7713014,28.9938014 C87.9143014,29.132468 88.111468,29.2018014 88.3628014,29.2018014 C88.6141347,29.2018014 88.813468,29.132468 88.9608014,28.9938014 C89.1081347,28.8551347 89.1818014,28.664468 89.1818014,28.4218014 L89.1818014,28.4218014 L89.1818014,25.5228014 C89.1818014,25.0288014 89.3226347,24.634468 89.6043014,24.3398014 C89.885968,24.0451347 90.2608014,23.8978014 90.7288014,23.8978014 C91.127468,23.8978014 91.419968,24.010468 91.6063014,24.2358014 C91.7926347,24.4611347 91.8858014,24.8208014 91.8858014,25.3148014 L91.8858014,25.3148014 L91.8858014,28.4218014 C91.8858014,28.664468 91.959468,28.8551347 92.1068014,28.9938014 C92.2541347,29.132468 92.453468,29.2018014 92.7048014,29.2018014 Z M98.1388014,29.1888014 C98.4508014,29.2061347 98.6913014,29.1606347 98.8603014,29.0523014 C99.0293014,28.943968 99.1138014,28.7858014 99.1138014,28.5778014 C99.1138014,28.2138014 98.8971347,28.0188014 98.4638014,27.9928014 L98.4638014,27.9928014 L98.1128014,27.9668014 C97.523468,27.923468 97.2288014,27.5811347 97.2288014,26.9398014 L97.2288014,26.9398014 L97.2288014,23.9888014 L98.3338014,23.9888014 C98.5678014,23.9888014 98.7476347,23.9368014 98.8733014,23.8328014 C98.998968,23.7288014 99.0618014,23.5771347 99.0618014,23.3778014 C99.0618014,23.178468 98.998968,23.0268014 98.8733014,22.9228014 C98.7476347,22.8188014 98.5678014,22.7668014 98.3338014,22.7668014 L98.3338014,22.7668014 L97.2288014,22.7668014 L97.2288014,21.5708014 C97.2288014,21.3368014 97.1551347,21.150468 97.0078014,21.0118014 C96.860468,20.8731347 96.665468,20.8038014 96.4228014,20.8038014 C96.171468,20.8038014 95.9721347,20.8731347 95.8248014,21.0118014 C95.677468,21.150468 95.6038014,21.3368014 95.6038014,21.5708014 L95.6038014,21.5708014 L95.6038014,22.7668014 L94.9538014,22.7668014 C94.7198014,22.7668014 94.539968,22.8188014 94.4143014,22.9228014 C94.2886347,23.0268014 94.2258014,23.178468 94.2258014,23.3778014 C94.2258014,23.5771347 94.2886347,23.7288014 94.4143014,23.8328014 C94.539968,23.9368014 94.7198014,23.9888014 94.9538014,23.9888014 L94.9538014,23.9888014 L95.6038014,23.9888014 L95.6038014,26.8228014 C95.6038014,28.2788014 96.3318014,29.0588014 97.7878014,29.1628014 L97.7878014,29.1628014 L98.1388014,29.1888014 Z" id="Development" fill="#083A45" fill-rule="nonzero"/><path d="M24.9348014,49.9714041 C25.3748014,49.9714041 25.5948014,49.7770708 25.5948014,49.3884041 C25.5948014,49.0144041 25.3748014,48.8274041 24.9348014,48.8274041 L24.9348014,48.8274041 L23.7798014,48.8274041 L23.7798014,42.8654041 C23.7798014,42.6454041 23.717468,42.4730708 23.5928014,42.3484041 C23.4681347,42.2237374 23.3031347,42.1614041 23.0978014,42.1614041 C22.8998014,42.1614041 22.6908014,42.2274041 22.4708014,42.3594041 L22.4708014,42.3594041 L20.7658014,43.4154041 C20.5751347,43.5327374 20.4798014,43.6977374 20.4798014,43.9104041 C20.4798014,44.0717374 20.532968,44.2184041 20.6393014,44.3504041 C20.7456347,44.4824041 20.8758014,44.5484041 21.0298014,44.5484041 C21.110468,44.5484041 21.2021347,44.5190708 21.3048014,44.4604041 L21.3048014,44.4604041 L22.3608014,43.8114041 L22.3608014,48.8274041 L21.2168014,48.8274041 C20.769468,48.8274041 20.5458014,49.0144041 20.5458014,49.3884041 C20.5458014,49.7770708 20.769468,49.9714041 21.2168014,49.9714041 L21.2168014,49.9714041 L24.9348014,49.9714041 Z M27.3878014,50.0374041 C27.622468,50.0374041 27.8168014,49.9585708 27.9708014,49.8009041 C28.1248014,49.6432374 28.2018014,49.4470708 28.2018014,49.2124041 C28.2018014,48.9777374 28.1248014,48.7815708 27.9708014,48.6239041 C27.8168014,48.4662374 27.622468,48.3874041 27.3878014,48.3874041 C27.1531347,48.3874041 26.9588014,48.4662374 26.8048014,48.6239041 C26.6508014,48.7815708 26.5738014,48.9777374 26.5738014,49.2124041 C26.5738014,49.4470708 26.6508014,49.6432374 26.8048014,49.8009041 C26.9588014,49.9585708 27.1531347,50.0374041 27.3878014,50.0374041 Z M32.0518014,50.0704041 C32.968468,50.0704041 33.6688014,49.7294041 34.1528014,49.0474041 C34.6368014,48.3654041 34.8788014,47.3790708 34.8788014,46.0884041 C34.8788014,44.7977374 34.6368014,43.8132374 34.1528014,43.1349041 C33.6688014,42.4565708 32.968468,42.1174041 32.0518014,42.1174041 C31.1351347,42.1174041 30.4348014,42.4565708 29.9508014,43.1349041 C29.4668014,43.8132374 29.2248014,44.7977374 29.2248014,46.0884041 C29.2248014,47.3864041 29.4668014,48.3745708 29.9508014,49.0529041 C30.4348014,49.7312374 31.1351347,50.0704041 32.0518014,50.0704041 Z M32.0518014,48.9594041 C31.5531347,48.9594041 31.1901347,48.7302374 30.9628014,48.2719041 C30.735468,47.8135708 30.6218014,47.0857374 30.6218014,46.0884041 C30.6218014,45.0910708 30.735468,44.3650708 30.9628014,43.9104041 C31.1901347,43.4557374 31.5531347,43.2284041 32.0518014,43.2284041 C32.550468,43.2284041 32.913468,43.4539041 33.1408014,43.9049041 C33.3681347,44.3559041 33.4818014,45.0837374 33.4818014,46.0884041 C33.4818014,47.0857374 33.3681347,47.8135708 33.1408014,48.2719041 C32.913468,48.7302374 32.550468,48.9594041 32.0518014,48.9594041 Z M36.7158014,50.0374041 C36.950468,50.0374041 37.1448014,49.9585708 37.2988014,49.8009041 C37.4528014,49.6432374 37.5298014,49.4470708 37.5298014,49.2124041 C37.5298014,48.9777374 37.4528014,48.7815708 37.2988014,48.6239041 C37.1448014,48.4662374 36.950468,48.3874041 36.7158014,48.3874041 C36.4811347,48.3874041 36.2868014,48.4662374 36.1328014,48.6239041 C35.9788014,48.7815708 35.9018014,48.9777374 35.9018014,49.2124041 C35.9018014,49.4470708 35.9788014,49.6432374 36.1328014,49.8009041 C36.2868014,49.9585708 36.4811347,50.0374041 36.7158014,50.0374041 Z M41.2698014,50.0594041 C42.1058014,50.0594041 42.769468,49.8614041 43.2608014,49.4654041 C43.7521347,49.0694041 43.9978014,48.5377374 43.9978014,47.8704041 C43.9978014,47.3864041 43.874968,46.9812374 43.6293014,46.6549041 C43.3836347,46.3285708 43.0298014,46.1067374 42.5678014,45.9894041 C42.956468,45.8427374 43.258968,45.6099041 43.4753014,45.2909041 C43.6916347,44.9719041 43.803468,44.5997374 43.8108014,44.1744041 C43.8108014,43.5510708 43.5853014,43.0524041 43.1343014,42.6784041 C42.6833014,42.3044041 42.076468,42.1174041 41.3138014,42.1174041 C40.866468,42.1174041 40.4283014,42.1925708 39.9993014,42.3429041 C39.5703014,42.4932374 39.2018014,42.6967374 38.8938014,42.9534041 C38.8058014,43.0340708 38.7416347,43.1129041 38.7013014,43.1899041 C38.660968,43.2669041 38.6408014,43.3604041 38.6408014,43.4704041 C38.6408014,43.6317374 38.6866347,43.7692374 38.7783014,43.8829041 C38.869968,43.9965708 38.9781347,44.0534041 39.1028014,44.0534041 C39.1761347,44.0534041 39.2421347,44.0405708 39.3008014,44.0149041 C39.359468,43.9892374 39.4401347,43.9470708 39.5428014,43.8884041 C40.151468,43.4630708 40.723468,43.2504041 41.2588014,43.2504041 C41.6328014,43.2504041 41.9261347,43.3457374 42.1388014,43.5364041 C42.351468,43.7270708 42.4578014,43.9984041 42.4578014,44.3504041 C42.4578014,45.1057374 41.955468,45.4834041 40.9508014,45.4834041 L40.9508014,45.4834041 L40.5108014,45.4834041 C40.3421347,45.4834041 40.211968,45.5384041 40.1203014,45.6484041 C40.0286347,45.7584041 39.9828014,45.8904041 39.9828014,46.0444041 C39.9828014,46.1910708 40.0286347,46.3212374 40.1203014,46.4349041 C40.211968,46.5485708 40.3421347,46.6054041 40.5108014,46.6054041 L40.5108014,46.6054041 L41.1378014,46.6054041 C41.6511347,46.6054041 42.0306347,46.6989041 42.2763014,46.8859041 C42.521968,47.0729041 42.6448014,47.3607374 42.6448014,47.7494041 C42.6448014,48.1454041 42.527468,48.4405708 42.2928014,48.6349041 C42.0581347,48.8292374 41.6988014,48.9264041 41.2148014,48.9264041 C40.8848014,48.9264041 40.580468,48.8714041 40.3018014,48.7614041 C40.0231347,48.6514041 39.7298014,48.4937374 39.4218014,48.2884041 C39.3191347,48.2297374 39.238468,48.1875708 39.1798014,48.1619041 C39.1211347,48.1362374 39.0551347,48.1234041 38.9818014,48.1234041 C38.8571347,48.1234041 38.748968,48.1802374 38.6573014,48.2939041 C38.5656347,48.4075708 38.5198014,48.5450708 38.5198014,48.7064041 C38.5198014,48.9044041 38.6041347,49.0767374 38.7728014,49.2234041 C39.0808014,49.4874041 39.4548014,49.6927374 39.8948014,49.8394041 C40.3348014,49.9860708 40.7931347,50.0594041 41.2698014,50.0594041 Z" id="1.0.3" fill="#427692" fill-rule="nonzero"/></g><g id="promote-copy" transform="translate(105.389015, 85.000000)"><rect id="base" fill="#4E82EE" x="0" y="0" width="123.606009" height="35.3160025" rx="17.6580012"/><path d="M16,18.7949302 L19.3630756,13.8717535 C19.6931298,13.3885901 20.3523728,13.2644706 20.8355362,13.5945248 C20.9443881,13.6688826 21.0384071,13.7629017 21.112765,13.8717535 L24.4758406,18.7949302 L22.3568804,18.7949302 L22.3568804,21.8968573 L18.1189601,21.8968573 L18.1189601,18.7949302 L16,18.7949302 Z" id="Combined-Shape-Copy" fill="#FFFFFF"/><path d="M99.1301681,18.7949302 L102.493244,13.8717535 C102.823298,13.3885901 103.482541,13.2644706 103.965704,13.5945248 C104.074556,13.6688826 104.168575,13.7629017 104.242933,13.8717535 L107.606009,18.7949302 L105.487049,18.7949302 L105.487049,21.8968573 L101.249128,21.8968573 L101.249128,18.7949302 L99.1301681,18.7949302 Z" id="Combined-Shape-Copy-2" fill="#FFFFFF"/><path d="M39.0224169,21.5611655 C39.269629,21.5611655 39.4653385,21.489062 39.6095455,21.344855 C39.7537525,21.2006479 39.825856,21.0049384 39.825856,20.7577264 L39.825856,20.7577264 L39.825856,18.1001972 L42.0384036,18.1001972 C42.9695688,18.1001972 43.6947241,17.8653458 44.2138693,17.395643 C44.7330145,16.9259401 44.9925872,16.2708283 44.9925872,15.4303074 C44.9925872,14.5897866 44.7330145,13.9367348 44.2138693,13.4711522 C43.6947241,13.0055696 42.9695688,12.7727783 42.0384036,12.7727783 L42.0384036,12.7727783 L38.9976957,12.7727783 C38.7587241,12.7727783 38.571255,12.8387015 38.4352884,12.9705479 C38.2993218,13.1023943 38.2313385,13.2878033 38.2313385,13.5267749 L38.2313385,13.5267749 L38.2313385,20.7577264 C38.2313385,21.0049384 38.303442,21.2006479 38.447649,21.344855 C38.591856,21.489062 38.7834453,21.5611655 39.0224169,21.5611655 Z M41.8406339,16.8764977 L39.825856,16.8764977 L39.825856,14.0088383 L41.8406339,14.0088383 C42.9366072,14.0088383 43.4845939,14.4867816 43.4845939,15.442668 C43.4845939,16.3985545 42.9366072,16.8764977 41.8406339,16.8764977 L41.8406339,16.8764977 Z M47.0197257,21.5611655 C47.2422165,21.5611655 47.4276255,21.4973024 47.5759527,21.3695762 C47.72428,21.2418499 47.7984436,21.058501 47.7984436,20.8195294 L47.7984436,20.8195294 L47.7984436,18.2238032 C47.7984436,17.8035428 47.9117491,17.4533258 48.1383601,17.1731522 C48.3649711,16.8929785 48.7213684,16.7281705 49.2075521,16.6787281 L49.2075521,16.6787281 L49.5783701,16.6416463 C49.8585437,16.6086847 50.0521931,16.5386413 50.1593183,16.4315161 C50.2664435,16.3243909 50.3200061,16.1595829 50.3200061,15.9370921 C50.3200061,15.7228417 50.2582031,15.5621538 50.1345971,15.4550286 C50.0109911,15.3479034 49.8420629,15.3025812 49.6278125,15.319062 L49.6278125,15.319062 L49.4547641,15.3314226 C49.0757057,15.3561438 48.7316689,15.4673892 48.4226539,15.6651589 C48.1136389,15.8629285 47.8808476,16.1431021 47.72428,16.5056797 L47.72428,16.5056797 L47.72428,16.0112557 C47.72428,15.7887649 47.6583568,15.6177766 47.5265103,15.4982907 C47.3946639,15.3788049 47.2216155,15.319062 47.0073651,15.319062 C46.7931147,15.319062 46.613886,15.380865 46.469679,15.504471 C46.325472,15.6280771 46.2533685,15.8052457 46.2533685,16.0359769 L46.2533685,16.0359769 L46.2533685,20.8195294 C46.2533685,21.058501 46.325472,21.2418499 46.469679,21.3695762 C46.613886,21.4973024 46.7972349,21.5611655 47.0197257,21.5611655 Z M53.7438926,21.5858867 C54.3619226,21.5858867 54.903729,21.4581605 55.3693116,21.202708 C55.8348942,20.9472556 56.1933517,20.5805578 56.4446839,20.1026146 C56.6960161,19.6246713 56.8216822,19.0684443 56.8216822,18.4339334 C56.8216822,17.7994226 56.6960161,17.2452557 56.4446839,16.7714326 C56.1933517,16.2976096 55.8348942,15.9329719 55.3693116,15.6775195 C54.903729,15.422067 54.3619226,15.2943408 53.7438926,15.2943408 C53.1258625,15.2943408 52.5840562,15.422067 52.1184736,15.6775195 C51.6528909,15.9329719 51.2923734,16.2976096 51.036921,16.7714326 C50.7814686,17.2452557 50.6537424,17.7994226 50.6537424,18.4339334 C50.6537424,19.0684443 50.7814686,19.6246713 51.036921,20.1026146 C51.2923734,20.5805578 51.6528909,20.9472556 52.1184736,21.202708 C52.5840562,21.4581605 53.1258625,21.5858867 53.7438926,21.5858867 Z M53.731532,20.3869084 C53.2371079,20.3869084 52.8580495,20.2221004 52.5943567,19.8924844 C52.3306639,19.5628683 52.1988175,19.0766847 52.1988175,18.4339334 C52.1988175,17.7994226 52.332724,17.3152991 52.600537,16.9815628 C52.86835,16.6478266 53.2494685,16.4809585 53.7438926,16.4809585 C54.2383166,16.4809585 54.617375,16.6478266 54.8810679,16.9815628 C55.1447607,17.3152991 55.2766071,17.7994226 55.2766071,18.4339334 C55.2766071,19.0766847 55.1447607,19.5628683 54.8810679,19.8924844 C54.617375,20.2221004 54.2341964,20.3869084 53.731532,20.3869084 Z M66.5371145,21.5611655 C66.7678457,21.5611655 66.9553148,21.4973024 67.0995218,21.3695762 C67.2437288,21.2418499 67.3158323,21.058501 67.3158323,20.8195294 L67.3158323,20.8195294 L67.3158323,17.7788216 C67.3158323,16.9053391 67.1407238,16.2728884 66.7905068,15.8814694 C66.4402898,15.4900503 65.9355652,15.2943408 65.2763332,15.2943408 C64.8313516,15.2943408 64.4316921,15.3973458 64.0773549,15.6033558 C63.7230177,15.8093659 63.4552047,16.0854193 63.2739159,16.4315161 C62.969021,15.6733993 62.3633516,15.2943408 61.4569075,15.2943408 C61.0448875,15.2943408 60.6802498,15.380865 60.3629943,15.5539134 C60.0457389,15.7269619 59.7923466,15.9782941 59.6028174,16.3079101 L59.6028174,16.3079101 L59.6028174,16.0112557 C59.6028174,15.7887649 59.5348341,15.6177766 59.3988675,15.4982907 C59.2629009,15.3788049 59.0877924,15.319062 58.8735419,15.319062 C58.6510511,15.319062 58.4656421,15.380865 58.3173149,15.504471 C58.1689877,15.6280771 58.0948241,15.8052457 58.0948241,16.0359769 L58.0948241,16.0359769 L58.0948241,20.8195294 C58.0948241,21.058501 58.1669276,21.2418499 58.3111346,21.3695762 C58.4553416,21.4973024 58.6386905,21.5611655 58.8611813,21.5611655 C59.0836722,21.5611655 59.2690812,21.4973024 59.4174084,21.3695762 C59.5657356,21.2418499 59.6398992,21.058501 59.6398992,20.8195294 L59.6398992,20.8195294 L59.6398992,18.0631154 C59.6398992,17.5851722 59.7573249,17.2081739 59.9921763,16.9321204 C60.2270277,16.656067 60.5463433,16.5180403 60.9501229,16.5180403 C61.2797389,16.5180403 61.5248908,16.614865 61.6855786,16.8085144 C61.8462665,17.0021638 61.9266104,17.3255996 61.9266104,17.7788216 L61.9266104,17.7788216 L61.9266104,20.8195294 C61.9266104,21.058501 62.000774,21.2418499 62.1491012,21.3695762 C62.2974284,21.4973024 62.4828374,21.5611655 62.7053282,21.5611655 C62.927819,21.5611655 63.1111679,21.4973024 63.255375,21.3695762 C63.399582,21.2418499 63.4716855,21.058501 63.4716855,20.8195294 L63.4716855,20.8195294 L63.4716855,18.0631154 C63.4716855,17.5851722 63.5911713,17.2081739 63.8301429,16.9321204 C64.0691145,16.656067 64.3904901,16.5180403 64.7942698,16.5180403 C65.1238858,16.5180403 65.3690377,16.614865 65.5297255,16.8085144 C65.6904133,17.0021638 65.7707572,17.3255996 65.7707572,17.7788216 L65.7707572,17.7788216 L65.7707572,20.8195294 C65.7707572,21.058501 65.8428607,21.2418499 65.9870677,21.3695762 C66.1312748,21.4973024 66.3146237,21.5611655 66.5371145,21.5611655 Z M71.6420426,21.5858867 C72.2600727,21.5858867 72.801879,21.4581605 73.2674617,21.202708 C73.7330443,20.9472556 74.0915017,20.5805578 74.3428339,20.1026146 C74.5941661,19.6246713 74.7198323,19.0684443 74.7198323,18.4339334 C74.7198323,17.7994226 74.5941661,17.2452557 74.3428339,16.7714326 C74.0915017,16.2976096 73.7330443,15.9329719 73.2674617,15.6775195 C72.801879,15.422067 72.2600727,15.2943408 71.6420426,15.2943408 C71.0240126,15.2943408 70.4822063,15.422067 70.0166236,15.6775195 C69.551041,15.9329719 69.1905235,16.2976096 68.9350711,16.7714326 C68.6796186,17.2452557 68.5518924,17.7994226 68.5518924,18.4339334 C68.5518924,19.0684443 68.6796186,19.6246713 68.9350711,20.1026146 C69.1905235,20.5805578 69.551041,20.9472556 70.0166236,21.202708 C70.4822063,21.4581605 71.0240126,21.5858867 71.6420426,21.5858867 Z M71.629682,20.3869084 C71.135258,20.3869084 70.7561996,20.2221004 70.4925068,19.8924844 C70.2288139,19.5628683 70.0969675,19.0766847 70.0969675,18.4339334 C70.0969675,17.7994226 70.230874,17.3152991 70.4986871,16.9815628 C70.7665001,16.6478266 71.1476186,16.4809585 71.6420426,16.4809585 C72.1364667,16.4809585 72.5155251,16.6478266 72.7792179,16.9815628 C73.0429107,17.3152991 73.1747571,17.7994226 73.1747571,18.4339334 C73.1747571,19.0766847 73.0429107,19.5628683 72.7792179,19.8924844 C72.5155251,20.2221004 72.1323465,20.3869084 71.629682,20.3869084 Z M78.8235517,21.5488049 C79.1202062,21.5652857 79.3488773,21.5220236 79.5095651,21.4190186 C79.6702529,21.3160136 79.7505968,21.1656262 79.7505968,20.9678566 C79.7505968,20.6217598 79.5445868,20.4363508 79.1325668,20.4116296 L79.1325668,20.4116296 L78.7988305,20.3869084 C78.2384833,20.3457064 77.9583097,20.0202106 77.9583097,19.4104209 L77.9583097,19.4104209 L77.9583097,16.6045645 L79.0089608,16.6045645 C79.2314516,16.6045645 79.4024399,16.5551221 79.5219257,16.4562373 C79.6414115,16.3573525 79.7011544,16.2131455 79.7011544,16.0236163 C79.7011544,15.8340871 79.6414115,15.6898801 79.5219257,15.5909952 C79.4024399,15.4921104 79.2314516,15.442668 79.0089608,15.442668 L79.0089608,15.442668 L77.9583097,15.442668 L77.9583097,14.3054928 C77.9583097,14.0830019 77.8882663,13.9058333 77.7481795,13.7739869 C77.6080927,13.6421405 77.4226836,13.5762173 77.1919524,13.5762173 C76.9529808,13.5762173 76.7634516,13.6421405 76.6233648,13.7739869 C76.483278,13.9058333 76.4132346,14.0830019 76.4132346,14.3054928 L76.4132346,14.3054928 L76.4132346,15.442668 L75.7952045,15.442668 C75.5727137,15.442668 75.4017254,15.4921104 75.2822396,15.5909952 C75.1627538,15.6898801 75.1030109,15.8340871 75.1030109,16.0236163 C75.1030109,16.2131455 75.1627538,16.3573525 75.2822396,16.4562373 C75.4017254,16.5551221 75.5727137,16.6045645 75.7952045,16.6045645 L75.7952045,16.6045645 L76.4132346,16.6045645 L76.4132346,19.2991755 C76.4132346,20.6835628 77.1054282,21.4251989 78.4898155,21.5240837 L78.4898155,21.5240837 L78.8235517,21.5488049 Z M83.3846135,21.5858867 C83.7059891,21.5858867 84.0438455,21.5385044 84.3981827,21.4437398 C84.75252,21.3489752 85.0697754,21.223309 85.349949,21.0667414 C85.6548438,20.893693 85.8072912,20.6794426 85.8072912,20.4239902 C85.8072912,20.2427014 85.7640291,20.0984944 85.6775049,19.9913692 C85.5909807,19.884244 85.4776752,19.8306813 85.3375884,19.8306813 C85.2222228,19.8306813 85.040934,19.8966046 84.793722,20.028451 C84.5382695,20.1438166 84.3095984,20.234461 84.1077086,20.3003842 C83.9058188,20.3663074 83.6730275,20.399269 83.4093347,20.399269 C82.8901894,20.399269 82.4946502,20.2653625 82.222717,19.9975495 C81.9507838,19.7297364 81.790096,19.3115361 81.7406536,18.7429485 L81.7406536,18.7429485 L85.3870308,18.7429485 C85.700166,18.7429485 85.8567336,18.5657799 85.8567336,18.2114426 C85.8567336,17.6181338 85.7454882,17.1031088 85.5229974,16.6663675 C85.3005066,16.2296263 84.9873714,15.8917699 84.5835918,15.6527983 C84.1798121,15.4138266 83.7059891,15.2943408 83.1621227,15.2943408 C82.593535,15.2943408 82.0846903,15.4261872 81.6355884,15.6898801 C81.1864866,15.9535729 80.8383297,16.3243909 80.5911177,16.8023341 C80.3439057,17.2802774 80.2202996,17.828264 80.2202996,18.446294 C80.2202996,19.4186613 80.5045935,20.1850186 81.0731811,20.7453658 C81.6417687,21.3057131 82.4122462,21.5858867 83.3846135,21.5858867 Z M84.5341493,17.9147882 L81.7406536,17.9147882 C81.790096,17.4203642 81.9404833,17.0413058 82.1918155,16.7776129 C82.4431477,16.5139201 82.778944,16.3820737 83.1992045,16.3820737 C83.6112245,16.3820737 83.9326001,16.51186 84.1633313,16.7714326 C84.3940625,17.0310053 84.5176685,17.4121238 84.5341493,17.9147882 L84.5341493,17.9147882 Z" id="Promote" fill="#FFFFFF" fill-rule="nonzero"/></g></g></g></g></svg>