<?xml version="1.0" encoding="UTF-8"?>
<svg width="200px" height="30px" viewBox="0 0 200 30" version="1.1" xmlns="http://www.w3.org/2000/svg" xmlns:xlink="http://www.w3.org/1999/xlink">
    <!-- Generator: Sketch 53.2 (72643) - https://sketchapp.com -->
    <title>logo-full-color-horizontal-white</title>
    <desc>Created with Sketch.</desc>
    <g id="WIP---Latest" stroke="none" stroke-width="1" fill="none" fill-rule="evenodd">
        <g id="0---feature---workflow" transform="translate(-90.000000, -15.000000)" fill="#FFFFFF">
            <g id="main" transform="translate(60.000000, 0.000000)">
                <g id="nav-transparent">
                    <g id="logo-full-color-horizontal-white" transform="translate(30.000000, 15.000000)">
                        <g id="Wordmark" transform="translate(63.484321, 3.815029)" fill-rule="nonzero">
                            <path d="M9.66277417,10.3579447 L20.3654109,21.7970927 C20.5214213,21.953162 20.4194942,22.1849711 20.2114802,22.1849711 L15.2316202,22.1849711 L7.16957959,13.3971293 C7.07720288,13.266392 6.88343152,13.2727854 6.79166516,13.3707774 L4.51567944,15.6242775 L4.51567944,22.1849711 L0.515679443,22.1849711 L0.515679443,0.184971098 L4.51567944,0.184971098 L4.51567944,9.39505411 L14.0984431,0.184971098 L19.149216,0.184971098 C19.35723,0.184971098 19.4397563,0.360261597 19.2837458,0.516330962 L9.66277417,10.3579447 Z" id="Shape"></path>
                            <path d="M22.5156794,9.29440713 L22.5156794,22.1849711 L26.5156794,22.1849711 L26.5156794,7.92485549 L22.9193049,8.76953531 C22.6939565,8.82155843 22.5156794,9.05163257 22.5156794,9.29440713 Z" id="Shape"></path>
                            <path d="M21.7320557,4.47398844 L23.7601916,5.94797688 C23.9508711,6.05202312 24.1762195,6.0867052 24.366899,6 L26.1523519,5.28901734 C26.2563589,5.25433526 26.3256969,5.16763006 26.3603659,5.06358382 L27.1230836,2.53179191 C27.1750871,2.37572254 27.1057491,2.21965318 26.9670732,2.13294798 L24.8695993,0.867052023 C24.7135889,0.797687861 24.5402439,0.76300578 24.366899,0.797687861 L22.616115,1.26589595 C22.4947735,1.30057803 22.408101,1.38728324 22.3734321,1.49132948 L21.5587108,4.04046243 C21.5413763,4.21387283 21.5933798,4.38728324 21.7320557,4.47398844 Z" id="Shape"></path>
                            <path d="M40.4879791,22.1849711 L40.5156794,13.7687861 C40.5156794,11.3930636 39.6039199,9.52023121 37.0904181,9.57225434 C35.0622822,9.60693642 33.5156794,11.4277457 33.5156794,13.6820809 L33.5156794,22.1849711 L29.5325784,22.1849711 L29.5325784,9.01734104 L29.5325784,7.56069364 C29.5325784,7.31791908 29.6885889,7.10982659 29.9312718,7.05780347 L30.9020035,6.8150289 L33.1901568,6.29479769 L33.2594948,8.37572254 C34.8542683,6.8150289 36.0850174,6.01734104 38.0611498,6.01734104 C41.7533972,6.01734104 44.5156794,8.79190751 44.5156794,13.716763 L44.5156794,22.1849711 L40.4879791,22.1849711 Z" id="Shape"></path>
                            <path d="M52.5156794,6.06061429 L58.5801956,5.02685216 C58.3495086,5.63504434 58.1800423,6.21434078 58.0717964,6.76474149 C57.9933347,7.16369839 57.9162783,7.57374106 57.8406275,7.99486949 L57.8405755,7.99486016 C57.7883938,8.28534203 57.5588522,8.51143177 57.2676131,8.55920644 L52.5156794,9.33871038 L52.5156794,14.9679823 C52.5156794,16.4351796 52.82581,18.6916551 54.508758,18.7277267 C54.954811,18.7372551 55.4527226,18.6278491 55.9140178,18.4643356 C56.1855741,18.3682013 56.4439905,18.5181028 56.5559418,18.7767297 C56.6508989,18.9957119 56.9164984,19.5604373 57.1181508,19.9039687 C57.6936749,20.8841987 57.976619,21.2297719 57.976619,21.2297719 C56.8429154,21.8848467 55.6508711,22.1674646 54.2515679,22.1618497 C50.4354142,22.1465363 48.5156794,18.8079113 48.5156794,14.9679823 L48.5156794,10.0208809 L45.5156794,10.5325088 L45.5156794,7.25441274 L48.5156794,6.74278484 L48.5156794,3.11912654 C48.5156794,2.881428 48.8167523,2.67520707 49.055021,2.62126974 L52.5156794,1.8249711 L52.5156794,6.06061429 Z" id="Fill-5-Copy"></path>
                            <path d="M75.1847699,14.132948 C75.1847699,18.6589595 72.0992298,22.3179191 67.0028883,22.3179191 C61.9065469,22.3179191 58.8556758,18.6589595 58.8556758,14.132948 C58.8556758,9.6416185 61.9758848,5.94797688 66.9682193,5.94797688 C71.9778883,5.96531792 75.1847699,9.65895954 75.1847699,14.132948 Z M62.9292821,14.132948 C62.9292821,16.5260116 64.1947002,18.9190751 67.0202228,18.9190751 C69.8457455,18.9190751 71.1111636,16.5260116 71.1111636,14.132948 C71.1111636,11.7745665 69.6377315,9.31213873 67.0202228,9.31213873 C64.2120347,9.31213873 62.9292821,11.7919075 62.9292821,14.132948 Z" id="Shape"></path>
                            <path d="M92.5156794,22.1849711 L92.5156794,12.9364162 L82.6974739,14.1849711 C82.5761324,14.2023121 82.5156794,14.3063584 82.5156794,14.4277457 L82.5156794,22.1849711 L78.5156794,22.1849711 L78.5156794,0.184971098 L82.5156794,0.184971098 L82.5156794,10.3352601 L92.3630916,9.12363077 C92.4670985,9.10628973 92.5156794,8.96531792 92.5156794,8.84393064 L92.5156794,0.184971098 L96.5156794,0.184971098 L96.5156794,22.1849711 L92.5156794,22.1849711 Z" id="Shape"></path>
                            <path d="M103.515679,7.64739884 L103.515679,14.4971098 C103.515679,16.8728324 103.9723,18.6416185 106.780488,18.6936416 C108.565941,18.7283237 110.515679,16.8381503 110.515679,14.583815 L110.515679,8.9132948 L110.515679,7.26589595 C110.515679,7.02312139 110.663415,6.8150289 110.888763,6.76300578 L114.515679,6.29479769 L114.515679,22.1849711 L111.044774,22.1849711 C110.854094,22.1849711 110.698084,21.867052 110.698084,21.6763006 L110.628746,19.8728324 C109.189983,21.4682081 107.855226,22.2312139 105.67108,22.2312139 C101.909495,22.2312139 99.534669,19.4046243 99.534669,14.5317919 L99.534669,9.05202312 L99.534669,8.58381503 C99.534669,8.34104046 99.7080139,8.13294798 99.9333624,8.08092486 L103.515679,7.64739884 Z" id="Shape"></path>
                            <path d="M121.515679,0.184971098 L121.515679,8.23699422 C122.52108,6.86705202 124.912369,5.94797688 126.559146,5.96531792 C130.286063,6 134.411672,8.70520231 134.411672,14.1156069 C134.411672,19.265896 130.927439,22.699422 126.333798,22.3179191 C124.513676,22.1618497 122.624216,21.017341 121.618815,19.8034682 L121.532143,21.6416185 C121.514808,21.8323699 121.376132,22.1849711 121.185453,22.1849711 L117.515679,22.1849711 L117.515679,1.02658487 C117.515679,0.783810301 117.685784,0.579441313 117.993707,0.546909575 L121.515679,0.184971098 Z M121.896167,14.0982659 C121.896167,16.9248555 123.820296,18.8843931 126.26446,18.8843931 C128.968641,18.8843931 130.459408,16.4913295 130.459408,14.0635838 C130.459408,11.583815 128.743293,9.34682081 126.26446,9.34682081 C123.820296,9.34682081 121.896167,11.3757225 121.896167,14.0982659 Z" id="Shape"></path>
                        </g>
                        <g id="Mark">
                            <path d="M37.3295508,29.5708092 C37.4021869,29.5649133 37.4749967,29.5591908 37.547459,29.5531214 C37.6604098,29.5439306 37.7717967,29.5342197 37.8835311,29.5245087 C40.0085705,29.3379191 42.0307377,29.0578613 43.8363869,28.6458382 C43.9230984,28.6257225 44.0106787,28.6059538 44.0961738,28.5853179 C44.1430918,28.5740462 44.1893148,28.5624277 44.236059,28.5509827 C46.2964557,28.0416763 47.9719508,27.3627746 49.3141541,26.4768208 C49.3370918,26.4615607 49.3600295,26.4459538 49.3829672,26.4303468 C49.4307541,26.3982659 49.4783672,26.3658382 49.525459,26.3330636 C49.5529148,26.3141618 49.580023,26.2947399 49.6073049,26.2753179 C49.6707311,26.2302312 49.7339836,26.1849711 49.7958459,26.1386705 C49.7961934,26.1383237 49.796541,26.1381503 49.7968885,26.1378035 C50.0373869,25.9581503 50.2658951,25.7706936 50.4808492,25.5785549 C50.9312623,25.1760694 51.0400426,24.8821387 50.1989934,25.220289 C49.900282,25.340289 49.5271967,25.4347977 49.1760066,25.5230636 C48.6661639,25.6512139 48.0821213,25.7334104 47.4172754,25.7424277 C43.7467213,25.7925434 39.3188754,23.0516185 36.7495049,19.5586127 C34.9645344,17.1319075 33.8901115,13.7838728 32.364059,10.5591329 C32.1845541,10.1800578 31.7124197,10.0413295 31.3582754,10.266763 C28.6415475,11.9953179 26.368977,14.2957803 24.5247508,16.3222543 C18.6504393,22.7771098 15.6125836,24.252659 10.9741279,24.7907514 C7.48777049,25.1953179 5.12761967,24.183815 3.7235541,23.2623121 C3.42588525,23.067052 3.30667869,23.2936994 3.45073443,23.4700578 C3.81460984,23.9157225 4.25737705,24.4002312 4.76044262,24.8793642 C5.44283934,25.5008671 6.1327082,26.0183237 6.7610623,26.4384971 C9.55077377,28.142948 13.4333279,29.8069942 27.4053443,29.8690751 C31.1895443,29.8808671 34.4790197,29.793815 37.3295508,29.5708092" id="Fill-10"></path>
                            <path d="M30.372823,7.08624277 C30.0635115,6.52109827 29.4574,5.7683237 29.1241082,5.38803468 C27.5987508,3.64786127 25.626977,2.19554913 22.9177213,1.29294798 C22.8228426,1.26069364 22.7236197,1.22930636 22.6238754,1.19791908 C22.5637508,1.17919075 22.5044951,1.15959538 22.4436754,1.14138728 C22.2648656,1.08763006 22.0808426,1.03508671 21.8869148,0.983930636 C14.9048164,-0.856820809 9.95114098,0.151213873 5.16967213,4.42387283 C1.82459016,7.41294798 0.63582623,10.8756069 0.326340984,12.2321965 C-0.191321311,14.5017919 0.123029508,16.6742775 0.738003279,18.5328902 C0.926544262,19.1027168 1.36114426,20.0139884 2.60655738,21.2157225 C3.61529508,22.1890751 4.69128197,22.8898266 6.29865902,23.2656069 C6.30387213,23.2668208 6.31047541,23.267341 6.31603607,23.2685549 C7.49871803,23.5701156 8.9552623,23.6283815 10.8135639,23.4128324 C15.9934885,22.8117919 18.1435508,20.1837572 22.8445639,15.0178613 C24.2543639,13.4689595 26.4690689,11.0178035 28.8097574,9.06589595 C29.1409639,8.78965318 29.7665377,8.33583815 30.2272033,8.00757225 C30.5406852,7.78421965 30.5917738,7.48647399 30.372823,7.08624277" id="Fill-11"></path>
                            <path d="M35.9352164,13.0815607 C36.7331705,15.2543931 37.6162721,17.1256647 38.7445639,18.6596532 C40.2289115,20.6776301 42.768741,23.34 46.1298098,24.1508671 C47.9314623,24.5856069 49.1372557,24.5944509 50.0439902,24.3213295 C50.4718131,24.1763584 50.7627049,24.0475145 51.0589836,23.8323121 C51.1747148,23.7480347 51.3696852,23.5834682 51.4795082,23.4603468 C51.5528393,23.3781503 51.6246066,23.2890173 51.6941148,23.1950289 C51.7288689,23.1482081 51.7629279,23.1 51.7966393,23.0509249 C52.1323639,22.5606936 52.4077902,21.9804624 52.559318,21.5930636 C52.5810393,21.5377457 52.6015443,21.4810405 52.6208328,21.4236416 C52.6272623,21.4049133 52.6329967,21.3856647 52.6390787,21.366763 C52.6517639,21.3277457 52.6644492,21.2885549 52.6760918,21.2488439 C52.6825213,21.2268208 52.6886033,21.2044509 52.694859,21.1822543 C52.699377,21.1663006 52.7466426,21.0182081 52.783482,20.8591908 C52.8321377,20.6495376 52.8738426,20.4083237 52.8903508,20.3020231 C52.9216295,20.1003468 52.9435246,19.8501156 52.9463049,19.8072832 C52.9610754,19.6449711 52.961423,19.4406936 52.9610754,19.4323699 C52.7801803,15.350289 50.3307115,10.722659 45.8943508,8.88208092 C41.8081377,7.1866474 38.2267279,7.37930636 35.0863475,8.48445087 C34.7273377,8.61069364 34.519682,8.96080925 34.6451443,9.31942197 C35.0820033,10.5688439 35.527377,11.9705202 35.9352164,13.0815607" id="Fill-12"></path>
                        </g>
                    </g>
                </g>
            </g>
        </g>
    </g>
</svg>