<svg xmlns="http://www.w3.org/2000/svg" xmlns:xlink="http://www.w3.org/1999/xlink" viewBox="0 0 1042 809"><mask id="a" fill="#fff"><path d="m330.924199 15.7170536-19.398698 95.5381384-311.35364843 721.110096 1093.40859743-3.840442v-717.269654h-408.164728l-32.555021-111.2047799z" fill="#fff" fill-rule="evenodd"/></mask><mask id="b" fill="#fff"><path d="m330.924199 15.7170536-19.398698 95.5381384-311.35364843 721.110096 1093.40859743-3.840442v-717.269654h-408.164728l-32.555021-111.2047799z" fill="#fff" fill-rule="evenodd"/></mask><mask id="c" fill="#fff"><path d="m330.924199 15.7170536-19.398698 95.5381384-311.35364843 721.110096 1093.40859743-3.840442v-717.269654h-408.164728l-32.555021-111.2047799z" fill="#fff" fill-rule="evenodd"/></mask><mask id="d" fill="#fff"><path d="m330.924199 15.7170536-19.398698 95.5381384-311.35364843 721.110096 1093.40859743-3.840442v-717.269654h-408.164728l-32.555021-111.2047799z" fill="#fff" fill-rule="evenodd"/></mask><mask id="e" fill="#fff"><path d="m330.924199 15.7170536-19.398698 95.5381384-311.35364843 721.110096 1093.40859743-3.840442v-717.269654h-408.164728l-32.555021-111.2047799z" fill="#fff" fill-rule="evenodd"/></mask><mask id="f" fill="#fff"><path d="m330.924199 15.7170536-19.398698 95.5381384-311.35364843 721.110096 1093.40859743-3.840442v-717.269654h-408.164728l-32.555021-111.2047799z" fill="#fff" fill-rule="evenodd"/></mask><mask id="g" fill="#fff"><path d="m330.924199 15.7170536-19.398698 95.5381384-311.35364843 721.110096 1093.40859743-3.840442v-717.269654h-408.164728l-32.555021-111.2047799" fill="#fff" fill-rule="evenodd"/></mask><mask id="h" fill="#fff"><path d="m330.924199 15.7170536-19.398698 95.5381384-311.35364843 721.110096 1093.40859743-3.840442v-717.269654h-408.164728l-32.555021-111.2047799" fill="#fff" fill-rule="evenodd"/></mask><mask id="i" fill="#fff"><path d="m330.924199 15.7170536-19.398698 95.5381384-311.35364843 721.110096 1093.40859743-3.840442v-717.269654h-408.164728l-32.555021-111.2047799z" fill="#fff" fill-rule="evenodd"/></mask><mask id="j" fill="#fff"><path d="m330.924199 15.7170536-19.398698 95.5381384-311.35364843 721.110096 1093.40859743-3.840442v-717.269654h-408.164728l-32.555021-111.2047799" fill="#fff" fill-rule="evenodd"/></mask><mask id="k" fill="#fff"><path d="m330.924199 15.7170536-19.398698 95.5381384-311.35364843 721.110096 1093.40859743-3.840442v-717.269654h-408.164728l-32.555021-111.2047799z" fill="#fff" fill-rule="evenodd"/></mask><mask id="l" fill="#fff"><path d="m330.924199 15.7170536-19.398698 95.5381384-311.35364843 721.110096 1093.40859743-3.840442v-717.269654h-408.164728l-32.555021-111.2047799z" fill="#fff" fill-rule="evenodd"/></mask><mask id="m" fill="#fff"><path d="m330.924199 15.7170536-19.398698 95.5381384-311.35364843 721.110096 1093.40859743-3.840442v-717.269654h-408.164728l-32.555021-111.2047799" fill="#fff" fill-rule="evenodd"/></mask><mask id="n" fill="#fff"><path d="m330.924199 15.7170536-19.398698 95.5381384-311.35364843 721.110096 1093.40859743-3.840442v-717.269654h-408.164728l-32.555021-111.2047799" fill="#fff" fill-rule="evenodd"/></mask><mask id="o" fill="#fff"><path d="m330.924199 15.7170536-19.398698 95.5381384-311.35364843 721.110096 1093.40859743-3.840442v-717.269654h-408.164728l-32.555021-111.2047799" fill="#fff" fill-rule="evenodd"/></mask><mask id="p" fill="#fff"><path d="m330.924199 15.7170536-19.398698 95.5381384-311.35364843 721.110096 1093.40859743-3.840442v-717.269654h-408.164728l-32.555021-111.2047799" fill="#fff" fill-rule="evenodd"/></mask><mask id="q" fill="#fff"><path d="m330.924199 15.7170536-19.398698 95.5381384-311.35364843 721.110096 1093.40859743-3.840442v-717.269654h-408.164728l-32.555021-111.2047799" fill="#fff" fill-rule="evenodd"/></mask><mask id="r" fill="#fff"><path d="m330.924199 15.7170536-19.398698 95.5381384-311.35364843 721.110096 1093.40859743-3.840442v-717.269654h-408.164728l-32.555021-111.2047799" fill="#fff" fill-rule="evenodd"/></mask><mask id="s" fill="#fff"><path d="m330.924199 15.7170536-19.398698 95.5381384-311.35364843 721.110096 1093.40859743-3.840442v-717.269654h-408.164728l-32.555021-111.2047799z" fill="#fff" fill-rule="evenodd"/></mask><mask id="t" fill="#fff"><path d="m330.924199 15.7170536-19.398698 95.5381384-311.35364843 721.110096 1093.40859743-3.840442v-717.269654h-408.164728l-32.555021-111.2047799" fill="#fff" fill-rule="evenodd"/></mask><mask id="u" fill="#fff"><path d="m330.924199 15.7170536-19.398698 95.5381384-311.35364843 721.110096 1093.40859743-3.840442v-717.269654h-408.164728l-32.555021-111.2047799z" fill="#fff" fill-rule="evenodd"/></mask><mask id="v" fill="#fff"><path d="m330.924199 15.7170536-19.398698 95.5381384-311.35364843 721.110096 1093.40859743-3.840442v-717.269654h-408.164728l-32.555021-111.2047799" fill="#fff" fill-rule="evenodd"/></mask><mask id="w" fill="#fff"><path d="m330.924199 15.7170536-19.398698 95.5381384-311.35364843 721.110096 1093.40859743-3.840442v-717.269654h-408.164728l-32.555021-111.2047799" fill="#fff" fill-rule="evenodd"/></mask><mask id="x" fill="#fff"><path d="m330.924199 15.7170536-19.398698 95.5381384-311.35364843 721.110096 1093.40859743-3.840442v-717.269654h-408.164728l-32.555021-111.2047799" fill="#fff" fill-rule="evenodd"/></mask><mask id="y" fill="#fff"><path d="m330.924199 15.7170536-19.398698 95.5381384-311.35364843 721.110096 1093.40859743-3.840442v-717.269654h-408.164728l-32.555021-111.2047799" fill="#fff" fill-rule="evenodd"/></mask><mask id="z" fill="#fff"><path d="m330.924199 15.7170536-19.398698 95.5381384-311.35364843 721.110096 1093.40859743-3.840442v-717.269654h-408.164728l-32.555021-111.2047799z" fill="#fff" fill-rule="evenodd"/></mask><mask id="A" fill="#fff"><path d="m330.924199 15.7170536-19.398698 95.5381384-311.35364843 721.110096 1093.40859743-3.840442v-717.269654h-408.164728l-32.555021-111.2047799" fill="#fff" fill-rule="evenodd"/></mask><mask id="B" fill="#fff"><path d="m330.924199 15.7170536-19.398698 95.5381384-311.35364843 721.110096 1093.40859743-3.840442v-717.269654h-408.164728l-32.555021-111.2047799" fill="#fff" fill-rule="evenodd"/></mask><mask id="C" fill="#fff"><path d="m330.924199 15.7170536-19.398698 95.5381384-311.35364843 721.110096 1093.40859743-3.840442v-717.269654h-408.164728l-32.555021-111.2047799" fill="#fff" fill-rule="evenodd"/></mask><mask id="D" fill="#fff"><path d="m330.924199 15.7170536-19.398698 95.5381384-311.35364843 721.110096 1093.40859743-3.840442v-717.269654h-408.164728l-32.555021-111.2047799" fill="#fff" fill-rule="evenodd"/></mask><mask id="E" fill="#fff"><path d="m330.924199 15.7170536-19.398698 95.5381384-311.35364843 721.110096 1093.40859743-3.840442v-717.269654h-408.164728l-32.555021-111.2047799" fill="#fff" fill-rule="evenodd"/></mask><mask id="F" fill="#fff"><path d="m330.924199 15.7170536-19.398698 95.5381384-311.35364843 721.110096 1093.40859743-3.840442v-717.269654h-408.164728l-32.555021-111.2047799" fill="#fff" fill-rule="evenodd"/></mask><mask id="G" fill="#fff"><path d="m330.924199 15.7170536-19.398698 95.5381384-311.35364843 721.110096 1093.40859743-3.840442v-717.269654h-408.164728l-32.555021-111.2047799" fill="#fff" fill-rule="evenodd"/></mask><mask id="H" fill="#fff"><path d="m330.924199 15.7170536-19.398698 95.5381384-311.35364843 721.110096 1093.40859743-3.840442v-717.269654h-408.164728l-32.555021-111.2047799" fill="#fff" fill-rule="evenodd"/></mask><mask id="I" fill="#fff"><path d="m330.924199 15.7170536-19.398698 95.5381384-311.35364843 721.110096 1093.40859743-3.840442v-717.269654h-408.164728l-32.555021-111.2047799" fill="#fff" fill-rule="evenodd"/></mask><mask id="J" fill="#fff"><path d="m330.924199 15.7170536-19.398698 95.5381384-311.35364843 721.110096 1093.40859743-3.840442v-717.269654h-408.164728l-32.555021-111.2047799" fill="#fff" fill-rule="evenodd"/></mask><mask id="K" fill="#fff"><path d="m330.924199 15.7170536-19.398698 95.5381384-311.35364843 721.110096 1093.40859743-3.840442v-717.269654h-408.164728l-32.555021-111.2047799" fill="#fff" fill-rule="evenodd"/></mask><mask id="L" fill="#fff"><path d="m330.924199 15.7170536-19.398698 95.5381384-311.35364843 721.110096 1093.40859743-3.840442v-717.269654h-408.164728l-32.555021-111.2047799" fill="#fff" fill-rule="evenodd"/></mask><mask id="M" fill="#fff"><path d="m330.924199 15.7170536-19.398698 95.5381384-311.35364843 721.110096 1093.40859743-3.840442v-717.269654h-408.164728l-32.555021-111.2047799" fill="#fff" fill-rule="evenodd"/></mask><mask id="N" fill="#fff"><path d="m330.924199 15.7170536-19.398698 95.5381384-311.35364843 721.110096 1093.40859743-3.840442v-717.269654h-408.164728l-32.555021-111.2047799" fill="#fff" fill-rule="evenodd"/></mask><mask id="O" fill="#fff"><path d="m330.924199 15.7170536-19.398698 95.5381384-311.35364843 721.110096 1093.40859743-3.840442v-717.269654h-408.164728l-32.555021-111.2047799" fill="#fff" fill-rule="evenodd"/></mask><mask id="P" fill="#fff"><path d="m330.924199 15.7170536-19.398698 95.5381384-311.35364843 721.110096 1093.40859743-3.840442v-717.269654h-408.164728l-32.555021-111.2047799" fill="#fff" fill-rule="evenodd"/></mask><mask id="Q" fill="#fff"><path d="m330.924199 15.7170536-19.398698 95.5381384-311.35364843 721.110096 1093.40859743-3.840442v-717.269654h-408.164728l-32.555021-111.2047799" fill="#fff" fill-rule="evenodd"/></mask><mask id="R" fill="#fff"><path d="m330.924199 15.7170536-19.398698 95.5381384-311.35364843 721.110096 1093.40859743-3.840442v-717.269654h-408.164728l-32.555021-111.2047799" fill="#fff" fill-rule="evenodd"/></mask><mask id="S" fill="#fff"><path d="m330.924199 15.7170536-19.398698 95.5381384-311.35364843 721.110096 1093.40859743-3.840442v-717.269654h-408.164728l-32.555021-111.2047799" fill="#fff" fill-rule="evenodd"/></mask><mask id="T" fill="#fff"><path d="m330.924199 15.7170536-19.398698 95.5381384-311.35364843 721.110096 1093.40859743-3.840442v-717.269654h-408.164728l-32.555021-111.2047799" fill="#fff" fill-rule="evenodd"/></mask><mask id="U" fill="#fff"><path d="m330.924199 15.7170536-19.398698 95.5381384-311.35364843 721.110096 1093.40859743-3.840442v-717.269654h-408.164728l-32.555021-111.2047799" fill="#fff" fill-rule="evenodd"/></mask><mask id="V" fill="#fff"><path d="m330.924199 15.7170536-19.398698 95.5381384-311.35364843 721.110096 1093.40859743-3.840442v-717.269654h-408.164728l-32.555021-111.2047799" fill="#fff" fill-rule="evenodd"/></mask><mask id="W" fill="#fff"><path d="m330.924199 15.7170536-19.398698 95.5381384-311.35364843 721.110096 1093.40859743-3.840442v-717.269654h-408.164728l-32.555021-111.2047799" fill="#fff" fill-rule="evenodd"/></mask><mask id="X" fill="#fff"><path d="m330.924199 15.7170536-19.398698 95.5381384-311.35364843 721.110096 1093.40859743-3.840442v-717.269654h-408.164728l-32.555021-111.2047799" fill="#fff" fill-rule="evenodd"/></mask><mask id="Y" fill="#fff"><path d="m330.924199 15.7170536-19.398698 95.5381384-311.35364843 721.110096 1093.40859743-3.840442v-717.269654h-408.164728l-32.555021-111.2047799" fill="#fff" fill-rule="evenodd"/></mask><mask id="Z" fill="#fff"><path d="m330.924199 15.7170536-19.398698 95.5381384-311.35364843 721.110096 1093.40859743-3.840442v-717.269654h-408.164728l-32.555021-111.2047799" fill="#fff" fill-rule="evenodd"/></mask><mask id="aa" fill="#fff"><path d="m330.924199 15.7170536-19.398698 95.5381384-311.35364843 721.110096 1093.40859743-3.840442v-717.269654h-408.164728l-32.555021-111.2047799" fill="#fff" fill-rule="evenodd"/></mask><mask id="ab" fill="#fff"><path d="m330.924199 15.7170536-19.398698 95.5381384-311.35364843 721.110096 1093.40859743-3.840442v-717.269654h-408.164728l-32.555021-111.2047799z" fill="#fff" fill-rule="evenodd"/></mask><mask id="ac" fill="#fff"><path d="m330.924199 15.7170536-19.398698 95.5381384-311.35364843 721.110096 1093.40859743-3.840442v-717.269654h-408.164728l-32.555021-111.2047799" fill="#fff" fill-rule="evenodd"/></mask><mask id="ad" fill="#fff"><path d="m330.924199 15.7170536-19.398698 95.5381384-311.35364843 721.110096 1093.40859743-3.840442v-717.269654h-408.164728l-32.555021-111.2047799" fill="#fff" fill-rule="evenodd"/></mask><mask id="ae" fill="#fff"><path d="m330.924199 15.7170536-19.398698 95.5381384-311.35364843 721.110096 1093.40859743-3.840442v-717.269654h-408.164728l-32.555021-111.2047799" fill="#fff" fill-rule="evenodd"/></mask><mask id="af" fill="#fff"><path d="m330.924199 15.7170536-19.398698 95.5381384-311.35364843 721.110096 1093.40859743-3.840442v-717.269654h-408.164728l-32.555021-111.2047799z" fill="#fff" fill-rule="evenodd"/></mask><mask id="ag" fill="#fff"><path d="m330.924199 15.7170536-19.398698 95.5381384-311.35364843 721.110096 1093.40859743-3.840442v-717.269654h-408.164728l-32.555021-111.2047799" fill="#fff" fill-rule="evenodd"/></mask><mask id="ah" fill="#fff"><path d="m330.924199 15.7170536-19.398698 95.5381384-311.35364843 721.110096 1093.40859743-3.840442v-717.269654h-408.164728l-32.555021-111.2047799" fill="#fff" fill-rule="evenodd"/></mask><mask id="ai" fill="#fff"><path d="m330.924199 15.7170536-19.398698 95.5381384-311.35364843 721.110096 1093.40859743-3.840442v-717.269654h-408.164728l-32.555021-111.2047799" fill="#fff" fill-rule="evenodd"/></mask><mask id="aj" fill="#fff"><path d="m330.924199 15.7170536-19.398698 95.5381384-311.35364843 721.110096 1093.40859743-3.840442v-717.269654h-408.164728l-32.555021-111.2047799" fill="#fff" fill-rule="evenodd"/></mask><mask id="ak" fill="#fff"><path d="m330.924199 15.7170536-19.398698 95.5381384-311.35364843 721.110096 1093.40859743-3.840442v-717.269654h-408.164728l-32.555021-111.2047799" fill="#fff" fill-rule="evenodd"/></mask><mask id="al" fill="#fff"><path d="m330.924199 15.7170536-19.398698 95.5381384-311.35364843 721.110096 1093.40859743-3.840442v-717.269654h-408.164728l-32.555021-111.2047799" fill="#fff" fill-rule="evenodd"/></mask><mask id="am" fill="#fff"><path d="m330.924199 15.7170536-19.398698 95.5381384-311.35364843 721.110096 1093.40859743-3.840442v-717.269654h-408.164728l-32.555021-111.2047799" fill="#fff" fill-rule="evenodd"/></mask><mask id="an" fill="#fff"><path d="m330.924199 15.7170536-19.398698 95.5381384-311.35364843 721.110096 1093.40859743-3.840442v-717.269654h-408.164728l-32.555021-111.2047799" fill="#fff" fill-rule="evenodd"/></mask><mask id="ao" fill="#fff"><path d="m330.924199 15.7170536-19.398698 95.5381384-311.35364843 721.110096 1093.40859743-3.840442v-717.269654h-408.164728l-32.555021-111.2047799" fill="#fff" fill-rule="evenodd"/></mask><mask id="ap" fill="#fff"><path d="m330.924199 15.7170536-19.398698 95.5381384-311.35364843 721.110096 1093.40859743-3.840442v-717.269654h-408.164728l-32.555021-111.2047799" fill="#fff" fill-rule="evenodd"/></mask><mask id="aq" fill="#fff"><path d="m330.924199 15.7170536-19.398698 95.5381384-311.35364843 721.110096 1093.40859743-3.840442v-717.269654h-408.164728l-32.555021-111.2047799" fill="#fff" fill-rule="evenodd"/></mask><mask id="ar" fill="#fff"><path d="m330.924199 15.7170536-19.398698 95.5381384-311.35364843 721.110096 1093.40859743-3.840442v-717.269654h-408.164728l-32.555021-111.2047799" fill="#fff" fill-rule="evenodd"/></mask><g fill="none" fill-rule="evenodd"><path d="m566.678511 454.326362 93.8051 141.715145c3.890684 5.877571 9.205153 10.684005 15.469131 13.913741 22.630775 11.670642 79.836558 33.504844 137.555019-5.530928 66.025948-44.654561 65.998106-102.354815 62.722826-125.802205-.871263-6.233816-3.221035-12.167561-6.807857-17.339843l-102.584942-147.929757z" fill="#1d8cfc" mask="url(#a)" transform="translate(-52 -23.697527)"/><path d="m744.699337 483.878321c-.54052-.747059-1.040716-1.511403-1.519791-2.284868-2.670915 1.896935-5.434478 3.759782-8.310848 5.575098-67.586062 42.655362-134.70025 20.481238-134.70025 20.481238l12.274018 16.529888s60.408097 24.297674 133.106053-22.463633c2.799565-1.800912 5.487761-3.628711 8.092432-5.474754z" fill="#1170f9" mask="url(#b)" transform="translate(-52 -23.697527)"/><path d="m812.232883 429.37818c9.42597-20.419783 11.578927-37.786032 11.578927-37.786032l-11.286105-14.293512s-1.514511 14.556615-12.280258 36.454192z" fill="#1170f9" mask="url(#c)" transform="translate(-52 -23.697527)"/><path d="m835.716153 461.891922c10.12922-21.274387 11.49252-36.730738 11.49252-36.730738l-11.285145-14.293032s-2.1832 14.544132-11.314908 34.391137z" fill="#1170f9" mask="url(#d)" transform="translate(-52 -23.697527)"/><path d="m766.568584 515.168298c-2.668995 1.895015-5.430157 3.755462-8.302687 5.568857-67.586542 42.655361-134.70025 20.481718-134.70025 20.481718l12.274018 16.529888s60.408097 24.297674 133.105573-22.463633c2.828367-1.819637 5.543445-3.66616 8.172118-5.530928z" fill="#1170f9" mask="url(#e)" transform="translate(-52 -23.697527)"/><path d="m679.579599 227.454083 68.411723 58.680169c10.719184 9.194687 18.091563 21.722815 20.736556 35.596226 5.941395 31.161882 4.661621 86.812043-60.805566 131.467565 0 0-76.151809 45.467397-140.007999 1.986717-9.884402-6.730256-17.609127-16.182285-22.318752-27.175005l-34.951356-81.576386z" fill="#1170f9" mask="url(#f)" transform="translate(-52 -23.697527)"/><path d="m597.799235 64.1479137 94.479549 147.5149373s29.893706 66.617915-72.376813 132.377384c0 0-82.59196 41.304797-126.960164 2.567656l-106.367138-131.840134" fill="#1d8cfc" mask="url(#g)" transform="translate(-52 -23.697527)"/><path d="m678.471822 190.89993-2.150077-.268864c2.173119-17.393136-1.187607-31.468676-9.988571-41.835325-14.583946-17.178524-39.38352-18.32696-39.632178-18.336082l.083526-2.16628c1.054637.04081 26.006382 1.201728 41.200453 19.099465 9.210434 10.849165 12.738212 25.48644 10.486847 43.507086" fill="#1d8cfc" mask="url(#h)" transform="translate(-52 -23.697527)"/><path d="m678.471822 190.89993-2.150077-.268864c2.173119-17.393136-1.187607-31.468676-9.988571-41.835325-14.583946-17.178524-39.38352-18.32696-39.632178-18.336082l.083526-2.16628c1.054637.04081 26.006382 1.201728 41.200453 19.099465 9.210434 10.849165 12.738212 25.48644 10.486847 43.507086z" mask="url(#i)" stroke="#1d8cfc" stroke-width="1.08336" transform="translate(-52 -23.697527)"/><path d="m685.632986 204.11832-1.754529-.433064c2.827887-11.45555 1.673883-21.100106-3.431291-28.664802-8.61903-12.772027-25.785565-15.347845-25.957418-15.372331l.252979-1.78987c.735414.104185 18.115565 2.699688 27.194468 16.139555 5.409516 8.007843 6.652807 18.142116 3.695791 30.120512" fill="#1d8cfc" mask="url(#j)" transform="translate(-52 -23.697527)"/><path d="m685.632986 204.11832-1.754529-.433064c2.827887-11.45555 1.673883-21.100106-3.431291-28.664802-8.61903-12.772027-25.785565-15.347845-25.957418-15.372331l.252979-1.78987c.735414.104185 18.115565 2.699688 27.194468 16.139555 5.409516 8.007843 6.652807 18.142116 3.695791 30.120512z" mask="url(#k)" stroke="#1d8cfc" stroke-width="1.08336" transform="translate(-52 -23.697527)"/><path d="m611.691163 347.281541c.299542 7.798992 1.058477 15.967674 5.355751 22.482358 7.053156 10.691687 21.369723 13.847485 30.651682 22.672483 13.246088 12.594384 13.6834 33.797235 24.290256 48.682729 5.043249 7.076899 12.595161 13.240139 13.426582 21.890376 0 0-60.114316 29.290872-117.501073-7.824439 0 0-16.484405-13.557975-22.318752-27.175485l-31.945856-74.561422z" fill="#1d8cfc" mask="url(#l)" transform="translate(-52 -23.697527)"/><path d="m589.625053 315.667054c-1.760289-12.967433-2.241764-27.185087-10.756147-37.121072-6.039321-7.048092-15.106704-10.616309-22.529007-16.189487-4.695703-3.525487-6.658567-9.365609-7.684402-15.91102-3.240717-20.684807 4.008293-41.60727 18.964747-56.256547 38.692269-37.895979 52.484158-88.969202 30.178847-126.0408223-27.628901-45.9201452-100.173726-52.9639164-162.033929-15.7324173-61.860204 37.2324594-89.609593 104.6406436-61.980693 150.5607886 1.580756 2.627191 3.315603 5.12091 5.179579 7.492679-.00192.001441-.0048.004321-.0048.004321l.201615.24774c.311062.392734.628846.779707.947109 1.16524l112.833691 138.721146c41.613763 36.283752 117.755491 1.525806 117.755491 1.525806l-1.927341-.497879c-12.322021-4.400737-17.383991-19.001522-19.14476-31.968476" fill="#fff" mask="url(#m)" transform="translate(-52 -23.697527)"/><path d="m464.73576 270.946237c3.216716 4.008483 4.199827 8.562376 2.195681 10.171242-2.003667 1.608866-6.236136-.337041-9.452851-4.345523-3.216716-4.008963-4.200308-8.562376-2.196161-10.171242 2.003667-1.608867 6.236136.336561 9.453331 4.345523" fill="#1d8cfc" mask="url(#n)" transform="translate(-52 -23.697527)"/><path d="m481.200388 294.436261c3.217196 4.008482 4.200307 8.562376 2.196161 10.171242-2.004147 1.608866-6.236136-.337041-9.452851-4.345523-3.217196-4.008963-4.200307-8.562376-2.196161-10.171242 2.003667-1.608867 6.236136.33656 9.452851 4.345523" fill="#1d8cfc" mask="url(#o)" transform="translate(-52 -23.697527)"/><path d="m684.895124 463.716745c6.088285-2.190286 2.06079 14.013124 6.221735 18.968394 4.160944 4.95527 9.310281 9.091463 12.890862 14.481717 6.810258 10.251421 7.252371 23.968795 14.966055 33.559097 4.444645 5.525647 10.841113 9.071298 16.163262 13.757703 8.919052 7.854206 14.582506 18.679845 19.815849 29.350407 2.826927 5.764744 5.7417 11.760424 10.735025 15.795313 6.750733 5.45555 16.061014 6.342803 24.737169 6.12387 15.72355-.397535 31.368854-3.702649 45.910077-9.698809 0 0-48.458584 54.298157-121.927956 37.614631 0 0-23.900948-5.740258-38.454652-13.713532 0 0-5.847308-2.378011-14.415454-12.403298l-93.622687-142.367622s43.868968 34.831883 116.980715 8.532129" fill="#fff" mask="url(#p)" transform="translate(-52 -23.697527)"/><path d="m602.848052 508.467809 10.610696 16.134754c7.085318 2.486517 47.3209 14.781789 99.14021-5.852125-2.060791-5.700889-3.592103-11.715293-6.201094-17.149238-48.894455 19.300154-92.382755 9.86877-103.549812 6.866609" fill="#1d8cfc" mask="url(#q)" transform="translate(-52 -23.697527)"/><path d="m740.696372 550.365837c-1.742047-2.083221-3.614664-4.053133-5.667294-5.860287-3.090466-2.722254-6.542879-5.060895-9.765834-7.624711-49.850686 18.031689-93.12825 6.906938-100.64752 4.712811l6.936507 10.547173 4.180146 5.629832s45.460284 18.273187 104.963995-7.404818" fill="#1d8cfc" mask="url(#r)" transform="translate(-52 -23.697527)"/><path d="m379.160623 206.721457s54.70864 39.990722 161.973444-17.933746c.811739-.438345 1.571635.657278.870304 1.256942-15.961167 13.639115-70.848861 53.257267-149.942325 32.538372z" fill="#1d8cfc" mask="url(#s)" transform="translate(-52 -23.697527)"/><path d="m574.455656 610.484815c7.003712-2.556614 12.483313-7.759143 16.784907-13.724095 4.700984-6.518045 8.713597-13.967994 11.262584-21.593185 2.641633-7.901257 3.043422-16.588462 7.188045-23.952951 3.988132-7.086021 10.498848-12.362008 16.686021-17.439707 2.144316-1.759622-.469955-5.201089-2.627713-3.430423-5.941874 4.87653-12.060882 9.9139-16.344715 16.384894-4.524811 6.834921-5.725859 14.613748-7.637358 22.418022-1.956623 7.984317-5.73306 15.588383-10.216107 22.44827-4.179186 6.396095-9.417329 12.219414-16.754666 14.897977-2.610911.953509-.953349 4.945187 1.659002 3.991198" fill="#fff" mask="url(#t)" transform="translate(-52 -23.697527)"/><path d="m615.89291 677.728128-81.91031-129.289282 98.902592 29.058497zm-95.546187-139.798045-559.8452594 352.629305c-2.7741228 1.747619-3.5815419 5.428183-1.7929311 8.176363l102.4894147 157.517659 553.8971448-355.502314c4.542572-2.91526 7.633038-7.623271 8.502381-12.95063l19.061234-116.854296-114.671745-34.066579c-2.579229-.766264-5.363433-.383612-7.640239 1.050492z" fill="#fff" mask="url(#u)" transform="translate(-52 -23.697527)"/><path d="m469.100576 578.303936 47.518674-30.11571c3.857562-2.444267 8.967056-1.298712 11.411395 2.559494l84.738676 133.753874c2.444819 3.858687 1.298975 8.968553-2.558587 11.4133l-47.518675 30.115231c-3.857562 2.444747-8.967055 1.299192-11.411394-2.559495l-84.739157-133.753873c-2.444338-3.858207-1.298495-8.968074 2.559068-11.412821" fill="#1d8cfc" mask="url(#v)" transform="translate(-52 -23.697527)"/><path d="m329.407144 666.931152 119.339607-75.63256c3.858042-2.444747 8.967056-1.298711 11.411875 2.559495l84.738676 133.753874c2.444339 3.858206 1.298495 8.968073-2.559067 11.41282l-119.339607 75.632559c-3.858042 2.445227-8.967055 1.299672-11.411874-2.559495l-84.738677-133.753393c-2.444819-3.858687-1.298975-8.968073 2.559067-11.4133" fill="#1d8cfc" mask="url(#w)" transform="translate(-52 -23.697527)"/><path d="m190.212422 755.582756 119.339606-75.632079c3.858523-2.445227 8.967056-1.299191 11.411875 2.559015l84.738676 133.753874c2.444819 3.858206 1.298975 8.968073-2.559067 11.41282l-119.339607 75.632559c-3.857562 2.445227-8.967055 1.299672-11.411874-2.559495l-84.738677-133.753393c-2.444338-3.858687-1.298495-8.968073 2.559068-11.413301" fill="#1d8cfc" mask="url(#x)" transform="translate(-52 -23.697527)"/><path d="m48.9480274 845.110188 119.3396066-75.632559c3.858522-2.444747 8.967056-1.298712 11.411875 2.559494l84.738676 133.753394c2.444819 3.858686 1.298975 8.968073-2.559067 11.4133l-119.339607 75.632559c-3.857562 2.444747-8.967055 1.299192-11.411394-2.559494l-84.7391568-133.753394c-2.4443387-3.858687-1.2984949-8.968073 2.5590672-11.4133" fill="#1d8cfc" mask="url(#y)" transform="translate(-52 -23.697527)"/><path d="m634.727711 557.572703-1.166485 4.239898 13.975262 20.525888 5.324069 1.145075z" fill="#fff" mask="url(#z)" transform="translate(-52 -23.697527)"/><g stroke="#fff"><path d="m477.383533 585.560543 87.910749 138.916073" mask="url(#A)" stroke-width="1.44" transform="translate(-52 -23.697527)"/><path d="m492.107122 576.665735 87.910268 138.916073" mask="url(#B)" stroke-width="1.44" transform="translate(-52 -23.697527)"/><path d="m506.092369 567.733431 87.557922 138.246792" mask="url(#C)" stroke-width="1.44" transform="translate(-52 -23.697527)"/><path d="m520.424057 558.962877 87.654889 138.398509" mask="url(#D)" stroke-width="1.44" transform="translate(-52 -23.697527)"/><path d="m405.653472 630.922986 87.910748 138.916073" mask="url(#E)" stroke-width="1.44" transform="translate(-52 -23.697527)"/><path d="m420.377061 622.028179 87.910268 138.916073" mask="url(#F)" stroke-width="1.44" transform="translate(-52 -23.697527)"/><path d="m434.718109 613.658041 87.558403 138.246792" mask="url(#G)" stroke-width="1.44" transform="translate(-52 -23.697527)"/><path d="m448.546768 605.128505 87.65489 138.398989" mask="url(#H)" stroke-width="1.44" transform="translate(-52 -23.697527)"/><path d="m346.743708 668.959447 87.910269 138.916073" mask="url(#I)" stroke-width="1.44" transform="translate(-52 -23.697527)"/><path d="m363.689811 658.426005 87.910269 138.916074" mask="url(#J)" stroke-width="1.44" transform="translate(-52 -23.697527)"/><path d="m378.031292 650.055868 87.558403 138.246792" mask="url(#K)" stroke-width="1.44" transform="translate(-52 -23.697527)"/><path d="m391.859951 641.526332 87.65489 138.398989" mask="url(#L)" stroke-width="1.44" transform="translate(-52 -23.697527)"/><path d="m263.815292 725.074792 87.910268 138.916553" mask="url(#M)" stroke-width="1.44" transform="translate(-52 -23.697527)"/><path d="m278.5384 716.180032 87.910269 138.916073" mask="url(#N)" stroke-width="1.44" transform="translate(-52 -23.697527)"/><path d="m292.879929 707.810374 87.558403 138.246313" mask="url(#O)" stroke-width="1.44" transform="translate(-52 -23.697527)"/><path d="m306.708588 699.280358 87.65489 138.398989" mask="url(#P)" stroke-width="1.44" transform="translate(-52 -23.697527)"/><path d="m207.128475 761.472619 87.910268 138.916553" mask="url(#Q)" stroke-width="1.44" transform="translate(-52 -23.697527)"/><path d="m221.851583 752.577811 87.910269 138.916073" mask="url(#R)" stroke-width="1.44" transform="translate(-52 -23.697527)"/><path d="m236.192632 744.208153 87.558403 138.246313" mask="url(#S)" stroke-width="1.44" transform="translate(-52 -23.697527)"/><path d="m250.021339 735.678137 87.65489 138.398989" mask="url(#T)" stroke-width="1.44" transform="translate(-52 -23.697527)"/><path d="m123.567708 813.232214 87.910269 138.916553" mask="url(#U)" stroke-width="1.44" transform="translate(-52 -23.697527)"/><path d="m138.290817 804.337454 87.910268 138.916073" mask="url(#V)" stroke-width="1.44" transform="translate(-52 -23.697527)"/><path d="m152.632345 795.967749 87.558403 138.246312" mask="url(#W)" stroke-width="1.44" transform="translate(-52 -23.697527)"/><path d="m166.461005 787.437733 87.65489 138.398989" mask="url(#X)" stroke-width="1.44" transform="translate(-52 -23.697527)"/><path d="m95.9455281 832.365576 87.5579229 138.246312" mask="url(#Y)" stroke-width="1.44" transform="translate(-52 -23.697527)"/><path d="m109.774187 823.83556 87.65489 138.398989" mask="url(#Z)" stroke-width="1.44" transform="translate(-52 -23.697527)"/></g><path d="m917.982168 370.256017c-7.339256 1.313115-13.632036 5.494919-18.896101 10.630232-5.752741 5.611588-10.987044 12.259264-14.810523 19.331842-3.96173 7.328959-5.852108 15.817878-11.20258 22.358968-5.147896 6.293351-12.469391 10.36953-19.438541 14.306475-2.414577 1.364488-.431072 5.20445 1.998866 3.8318 6.69265-3.780908 13.586434-7.690486 18.920104-13.32704 5.633692-5.953909 8.155316-13.41058 11.381632-20.768826 3.300241-7.527728 8.329089-14.36841 13.925818-20.354487 5.217502-5.58086 11.379713-10.416101 19.068435-11.791631 2.73572-.489718 1.790531-4.707051-.94711-4.217333" fill="#1d8cfc" mask="url(#aa)" transform="translate(-52 -23.697527)"/><path d="m864.450766 432.212012 16.992283-100.230785 81.910789 129.289282zm563.367754-474.0206901-544.788955 349.6559511c-4.625619 2.969033-7.772729 7.763464-8.657914 13.188766l-19.036272 116.70066 110.315427 32.772668c5.348071 1.588702 11.120974.795071 15.841639-2.178763l551.824835-347.577532c5.07013-3.193246 6.54528-9.919181 3.27672-14.942147l-93.97984-144.4393195c-3.21911-4.948068-9.82871-6.3687291-14.79564-3.1802836z" fill="#1d8cfc" mask="url(#ab)" transform="translate(-52 -23.697527)"/><path d="m1031.66845 428.62003-53.068841 33.633035c-2.32529 1.473474-5.404715.783068-6.877943-1.54261l-88.255894-139.304967c-1.473227-2.325198-.782457-5.405138 1.542353-6.878611l53.068841-33.633036c2.32529-1.473473 5.404235-.783068 6.877463 1.542611l88.256371 139.304966c1.47323 2.325679.78294 5.405138-1.54235 6.878612" fill="#1170f9" mask="url(#ac)" transform="translate(-52 -23.697527)"/><path d="m1169.86513 340.941571-121.89675 77.252948c-3.15143 1.997279-7.32534 1.061055-9.32276-2.091382l-86.359279-136.310488c-1.996946-3.152437-1.060878-7.327039 2.091033-9.324799l121.896276-77.252468c3.15191-1.997759 7.32629-1.061535 9.32324 2.090902l86.35879 136.310488c1.99743 3.152437 1.06088 7.327039-2.09055 9.324799" fill="#1170f9" mask="url(#ad)" transform="translate(-52 -23.697527)"/><path d="m1308.05336 252.927607-119.88396 75.977282c-3.70779 2.349684-8.61759 1.24878-10.96688-2.459631l-85.08383-134.297844c-2.34929-3.70793-1.24857-8.61903 2.45922-10.968714l119.88397-75.977282c3.70779-2.349684 8.61759-1.248779 10.96736 2.459631l85.08382 134.297844c2.3493 3.707931 1.2481 8.61903-2.4597 10.968714" fill="#1170f9" mask="url(#ae)" transform="translate(-52 -23.697527)"/><path d="m846.831942 428.646772 4.977004-.937185 13.634917 18.28327-1.797252 6.960711z" fill="#1d8cfc" mask="url(#af)" transform="translate(-52 -23.697527)"/><path d="m898.459669 324.088324 87.910268 138.916074" mask="url(#ag)" stroke="#1d8cfc" stroke-width="1.44" transform="translate(-52 -23.697527)"/><path d="m913.182778 315.193517 87.910272 138.916073" mask="url(#ah)" stroke="#1d8cfc" stroke-width="1.44" transform="translate(-52 -23.697527)"/><path d="m927.167976 306.261212 87.558404 138.246793" mask="url(#ai)" stroke="#1d8cfc" stroke-width="1.44" transform="translate(-52 -23.697527)"/><path d="m941.500144 297.490418 87.654886 138.398989" mask="url(#aj)" stroke="#1d8cfc" stroke-width="1.44" transform="translate(-52 -23.697527)"/><path d="m968.098505 276.809357 87.910265 138.916073" mask="url(#ak)" stroke="#1d8cfc" stroke-width="1.44" transform="translate(-52 -23.697527)"/><path d="m982.821614 267.914597 87.910266 138.916073" mask="url(#al)" stroke="#1d8cfc" stroke-width="1.44" transform="translate(-52 -23.697527)"/><path d="m996.806861 258.982293 87.558399 138.246792" mask="url(#am)" stroke="#1d8cfc" stroke-width="1.44" transform="translate(-52 -23.697527)"/><path d="m1011.1385 250.211499 87.65489 138.398989" mask="url(#an)" stroke="#1d8cfc" stroke-width="1.44" transform="translate(-52 -23.697527)"/><path d="m1025.55458 240.358333 87.91027 138.916073" mask="url(#ao)" stroke="#1d8cfc" stroke-width="1.44" transform="translate(-52 -23.697527)"/><path d="m1040.27769 231.463573 87.91027 138.916074" mask="url(#ap)" stroke="#1d8cfc" stroke-width="1.44" transform="translate(-52 -23.697527)"/><path d="m1054.26293 222.531269 87.55841 138.246792" mask="url(#aq)" stroke="#1d8cfc" stroke-width="1.44" transform="translate(-52 -23.697527)"/><path d="m1068.59505 213.760715 87.65489 138.398509" mask="url(#ar)" stroke="#1d8cfc" stroke-width="1.44" transform="translate(-52 -23.697527)"/></g></svg>