<svg xmlns="http://www.w3.org/2000/svg" xmlns:xlink="http://www.w3.org/1999/xlink" viewBox="0 0 2605 2605"><linearGradient id="a" x1="-.007503%" x2="86.11146%" y1="100.007605%" y2="13.888219%"><stop offset="0" stop-color="#f38e69"/><stop offset="1" stop-color="#fa3f5e"/></linearGradient><linearGradient id="b"><stop offset="0" stop-color="#e2cdc8"/><stop offset="1" stop-color="#fff"/></linearGradient><linearGradient id="c" x1="1.929059%" x2="146.968105%" xlink:href="#b" y1="82.581008%" y2="5.568066%"/><linearGradient id="d" x1="-.000796%" x2="100.000362%" xlink:href="#b" y1="49.998647%" y2="49.998647%"/><linearGradient id="e" x1="-.000421%" x2="99.999425%" xlink:href="#b" y1="50.000139%" y2="50.000139%"/><linearGradient id="f" x1=".000253%" x2="100.00001%" xlink:href="#b" y1="50.000083%" y2="50.000083%"/><linearGradient id="g" x1=".000206%" x2="100.000091%" xlink:href="#b" y1="49.99979%" y2="49.99979%"/><linearGradient id="h" x1="-.000067%" x2="100.00001%" xlink:href="#b" y1="49.999589%" y2="49.999589%"/><linearGradient id="i" x1="46.295301%" x2="58.683932%" y1="13.501441%" y2="134.504143%"><stop offset="0" stop-color="#fff"/><stop offset="1" stop-color="#020b1a"/></linearGradient><linearGradient id="j"><stop offset="0" stop-color="#7e9eb6"/><stop offset="1" stop-color="#e2cdc8"/></linearGradient><linearGradient id="k" x1="157.250895%" x2="19.83989%" xlink:href="#j" y1="86.23093%" y2="38.349574%"/><linearGradient id="l" x1="134.216674%" x2="54.00621%" xlink:href="#j" y1="-41.965897%" y2="45.623361%"/><linearGradient id="m" x1="16.629256%" x2="79.597036%" xlink:href="#j" y1="91.245638%" y2="27.628576%"/><linearGradient id="n" x1="241.276821%" x2="41.863196%" xlink:href="#j" y1="114.299151%" y2="47.332966%"/><linearGradient id="o" x1="-8.707201%" x2="76.134875%" xlink:href="#j" y1="84.09912%" y2="32.197475%"/><linearGradient id="p" x1="112.990796%" x2="41.463617%" xlink:href="#j" y1="105.239001%" y2="55.034198%"/><linearGradient id="q"><stop offset="0" stop-color="#e2cdc8"/><stop offset="1" stop-color="#1c1c1a"/></linearGradient><linearGradient id="r" x1="55.722817%" x2="48.053872%" xlink:href="#q" y1="38.769786%" y2="88.396116%"/><linearGradient id="s" x1="34.876676%" x2="163.073398%" xlink:href="#j" y1="59.490469%" y2="-18.988797%"/><linearGradient id="t" x1="140.110891%" x2="28.154455%" xlink:href="#j" y1="31.265944%" y2="56.129914%"/><linearGradient id="u" x1="25.686543%" x2="125.21382%" xlink:href="#q" y1="37.968661%" y2="89.746408%"/><linearGradient id="v" x1="122.915752%" x2="19.630153%" xlink:href="#j" y1="37.34625%" y2="54.286269%"/><linearGradient id="w" x1="156.070415%" x2="59.01223%" xlink:href="#j" y1="143.009889%" y2="46.269265%"/><linearGradient id="x" x1="137.187704%" x2="34.195084%" xlink:href="#j" y1="99.391203%" y2="57.390985%"/><linearGradient id="y" x1="213.782817%" x2="40.589012%" xlink:href="#j" y1="23.307622%" y2="51.533687%"/><linearGradient id="z" x1="202.084822%" x2="44.054086%" xlink:href="#j" y1="59.922871%" y2="47.841933%"/><linearGradient id="A" x1="-82.18141%" x2="214.106735%" xlink:href="#j" y1="76.930937%" y2="17.527665%"/><linearGradient id="B" x1="110.921357%" x2="43.070334%" xlink:href="#j" y1="40.986291%" y2="51.025913%"/><linearGradient id="C" x1=".000336%" x2="100.000966%" y1="50.000014%" y2="50.000014%"><stop offset="0" stop-color="#1c2f57"/><stop offset="1"/></linearGradient><linearGradient id="D" x1="-33.633798%" x2="61.803796%" xlink:href="#j" y1="-20.403338%" y2="89.923171%"/><linearGradient id="E" x1="59.179353%" x2="35.452422%" xlink:href="#q" y1="18.757598%" y2="94.417342%"/><linearGradient id="F" x1="68.476576%" x2="19.771324%" xlink:href="#q" y1="44.323172%" y2="64.732385%"/><linearGradient id="G" x1="-116.945203%" x2="-2.466576%" y1="36.036103%" y2="46.684485%"><stop offset="0" stop-color="#e2cdc8"/><stop offset="1" stop-color="#f28c1a"/></linearGradient><linearGradient id="H" x1="-9.515081%" x2="88.102076%" xlink:href="#j" y1="-62.97543%" y2="73.384849%"/><linearGradient id="I" x1="52.980595%" x2="45.144611%" xlink:href="#q" y1="18.123982%" y2="84.367222%"/><linearGradient id="J" x1="46.443111%" x2="59.230851%" xlink:href="#q" y1="-14.247244%" y2="94.790673%"/><mask id="K" fill="#fff"><path d="m0 794.654712c0 438.891318 355.875054 794.678158 794.86736 794.678158 438.99231 0 794.86736-355.78684 794.86736-794.678158 0-438.875681-355.87505-794.654712-794.86736-794.654712-438.992306 0-794.86736 355.779031-794.86736 794.654712" fill="#fff" fill-rule="evenodd"/></mask><mask id="L" fill="#fff"><path d="m.33659931 243.16552c49.68064639-59.785603 107.96436169-112.155167 172.94941369-155.2051397 88.075929-13.2741299 172.563549 51.2352377 262.355218 50.9905207 79.977678-.210883 149.522128-50.8149647 221.852413-84.9623711 66.855516-31.5627894 139.926997-49.75921875 213.732681-53.6303308 20.241964 7.04233132 40.111102 14.882107 59.569873 23.4817513-44.244466 42.9968708-88.484878 85.9945686-132.730997 128.9979786-88.608306 86.110511-189.507065 177.672736-312.965631 181.078104-129.592086 3.585009-245.504705-92.585397-375.151416-92.601018-36.0530474-.005232-74.8374035 6.837966-109.61155469 1.850505" fill="#fff" fill-rule="evenodd"/></mask><mask id="M" fill="#fff"><path d="m.66753475 52.6993206c17.18749175-6.5670758 34.66169845-12.5532169 52.39865495-17.9344351 48.9948663 19.7046013 107.6656133 1.7792728 152.2812473-28.1641096 1.176988-.78982639 2.349839-1.58817218 3.519724-2.39271035 24.589459-2.29805037 49.504821-3.47295803 74.694371-3.47295803 5.382144 0 10.751771.05363811 16.108378.16040939-41.685982 39.83454419-92.720135 70.74191749-149.516357 77.13988349-50.7059879 5.7086457-100.9005879-8.3667304-149.48601825-25.3360798" fill="#fff" fill-rule="evenodd"/></mask><mask id="N" fill="#fff"><path d="m17.3639695 588.610225c-7.82599869-34.21809-13.44354845-69.278891-16.69452545-105.024138 1.69105536-1.480014 3.39592175-2.898231 5.10446228-4.247445 89.99732267-71.090964 206.16745567-121.820013 260.30006867-220.474151 5.50144-10.028653-1.139305-22.384828-12.508949-23.56421-73.773926-7.677699-150.162012 10.942479-211.8483755 52.236472-12.1869474 8.153944-25.0332734 17.390631-38.2885655 24.50839 11.1122833-89.791309 37.1999105-174.935773 75.6838872-252.851991 70.5106668-26.0449393 178.6443098-50.73653645 241.1726508-58.02754557 93.906857-5.27988259 197.443185 8.30253726 262.305558 76.47238227 8.880339 9.3178993 17.097385 20.0573054 19.500851 32.7102783 2.551732 13.496505-1.849421 27.266376-6.890457 40.036506-35.131184 89.086303-102.631127 161.20825-172.682802 226.456976-111.355397 103.715327-242.812511 200.026321-394.5118046 211.281219-3.4886629.25965-7.0571564.443264-10.6419989.487257" fill="#fff" fill-rule="evenodd"/></mask><mask id="O" fill="#fff"><path d="m1173.45151.04339395c-23.70182 72.51089985-57.55057 140.42514105-99.86666 202.06172805-126.827251 84.263206-261.807421 156.237656-402.488462 214.439233-55.092439 22.790973-132.221854 36.888884-162.608533-14.449383-10.066466-17.019029-12.228024-38.458789-25.13495-53.431474-24.588707-28.523863-70.691559-17.67511-104.839507-1.819841-85.269378 39.585183-161.697222 95.290897-238.919095 149.474887-48.9371089-18.447692-95.5720086-41.597295-139.35503292-68.898649 136.33234392-95.184451 280.90490092-178.56759 431.54836092-248.899832 47.281174-22.072409 114.500192-37.708984 142.413174 6.404591 16.933512 26.766505 10.565887 66.740528 35.201415 86.641624 24.791598 20.026063 61.264977 4.795633 88.990676-10.903427 125.120704-70.833217 250.241407-141.674246 375.362114-212.5152737 31.40533-17.7820349 65.17737-35.7893267 99.6965-48.10418335" fill="#fff" fill-rule="evenodd"/></mask><mask id="P" fill="#fff"><path d="m291.566425 3.28807258c-82.476038 29.06800692-171.195246 44.87980652-263.6041808 44.87980652-9.3355413 0-18.63342204-.1613736-27.89100976-.4814857 22.32305636-8.5151589 44.68391556-16.855231 67.23606316-23.3717117 62.6227794-18.08906515 128.3747464-22.19737616 193.5336514-23.54858871 10.002001-.21012581 20.913511.12594348 30.725476 2.52197959" fill="#fff" fill-rule="evenodd"/></mask><mask id="Q" fill="#fff"><path d="m120.229058 689.031215c-46.5422949-49.864789-86.739842-105.737883-119.3048717-166.330353.43067695-.270022.86092077-.539194 1.2906867-.807521l349.587276-218.248164c105.853957-66.084447 215.024385-133.488866 337.796246-155.694052 131.847288-23.853198 268.743414 6.55299 400.934055-15.277294 135.21416-22.336239 258.21593-98.06123 389.5026-132.36908765 4.09931 21.96535985 7.29521 44.24899935 9.54763 66.81081675-139.0446 110.6295499-305.034 187.3769709-479.60537 220.4947069-109.716665 20.814922-222.866859 24.923233-329.805496 57.133641-186.611981 56.204194-336.63353 191.700352-496.089465 303.819753-20.42707 14.358966-41.686773 28.573618-63.853307 40.467537" fill="#fff" fill-rule="evenodd"/></mask><mask id="R" fill="#fff"><path d="m1825.92622 708.880655-421.59451 206.871786c-323.85305 143.282639-721.642646 336.120749-818.103697 457.172979-13.491274 16.94043-4.208215 42.06197 17.051472 46.1408 24.921382 4.78208 69.736148 3.19587 149.988931-15.61208 198.40293-46.51587 272.542484-71.59053 272.542484-71.59053l31.24541 40.18665s-810.85057 308.92854-1020.3400806 229.12565c-209.4817024-79.8029 530.8363626-483.54473 1027.6947006-731.970597 144.28949-72.153129 255.24898-126.959501 340.07693-168.411997v-3.797533s97.09345-52.477844 601.89977-284.314894c504.79852-231.844864 1283.09202-556.237016 1213.96486-342.8484752-69.13498 213.3885412-817.81482 652.2145852-817.81482 652.2145852l-11.70337-49.547649s65.98076-42.108859 226.53317-167.708749c64.93457-50.80568 94.25155-84.764689 106.14229-107.190451 10.14969-19.143942-3.59923-42.124487-25.24148-42.210439-155.31362-.640736-557.26459 190.27516-872.34206 353.490944z" fill="#fff" fill-rule="evenodd"/></mask><mask id="S" fill="#fff"><path d="m1.16126016 21.6124043c-.7175759.6891878-.84492036 1.7896651-.29107304 2.6162863 3.28872113 4.9112211 16.66393178 20.7483932 55.91836588 27.9373699 1.3654155.2496032 2.7257777-.4597954 3.2836677-1.7310539l13.7430947-31.3540033s-36.8257934-.7447674-50.3212738-18.90516946z" fill="#fff" fill-rule="evenodd"/></mask><mask id="T" fill="#fff"><path d="m3.83852576 15.654117c3.29377448 8.5865525 9.68626404 15.6259694 17.81407454 19.9318774l21.0017287 11.1260379c-9.4891834-16.5869923-9.2547079-46.30089031-9.2547079-46.30089031l-32.91854204-.37895224c.33251052 5.97531896 1.67063799 11.22304965 3.3574467 15.62192725" fill="#fff" fill-rule="evenodd"/></mask><mask id="U" fill="#fff"><path d="m.80853623 7.55378137c.76305607 2.66378163 4.45099196 10.67533733 4.45099196 10.67533733 13.81788421 10.8612765 34.21725341 1.6694109 34.21725341 1.6694109l-21.077529-19.4538923c-10.27346346 6.37246091-17.59071637 7.10914407-17.59071637 7.10914407" fill="#fff" fill-rule="evenodd"/></mask><mask id="V" fill="#fff"><path d="m.836835 30.1068503c-.67613842 1.901835-.23245417 4.0148727 1.16934553 5.4670177 8.56745207 8.8745562 27.49023187 28.4325341 27.49023187 28.4325341-1.4331304-13.262318 23.5011163-34.2724408 23.5011163-34.2724408l-29.1770406-29.55827497c-14.81743715 10.86733977-20.86629884 23.97201357-22.9836531 29.93116397" fill="#fff" fill-rule="evenodd"/></mask><mask id="W" fill="#fff"><path d="m.186974 16.5110543s7.16363103 1.6471791 16.8509058-4.3948354l-10.23505807-12.01733356s-6.75532023 6.9454367-6.61584773 16.41216896" fill="#fff" fill-rule="evenodd"/></mask><mask id="X" fill="#fff"><path d="m.4184175 81.8929479s66.1726266 13.7059448 96.6918374 8.8967882c30.5182001-4.8091566 44.8656751-6.7908242 69.0136211 14.5517659l-50.158556-76.0491464s-17.5209803-21.31126361-55.9769849-20.64127605c-38.4580259.66897703-46.3554035-8.55623637-46.3554035-8.55623637z" fill="#fff" fill-rule="evenodd"/></mask><mask id="Y" fill="#fff"><path d="m13.6329316.09585372s7.8973776 9.22420286 46.3543928 8.55522583c38.4570153-.66998756 55.9779956 20.64127605 55.9779956 20.64127605l50.158556 76.0491464c-24.147946-21.3425901-38.495421-19.3609225-69.0136211-14.5517659-30.5192108 4.8091566-96.6918374-8.8977987-96.6918374-8.8977987" fill="#fff" fill-rule="evenodd"/></mask><mask id="Z" fill="#fff"><path d="m.05659754.85693734 21.32312176 20.96060646s.9247633-6.7786977-2.2083146-11.89404774c-2.1072475-3.43987582-4.6773821-6.61195873-8.5098438-7.87210125-2.27906151-.74982017-5.0482981-1.36928077-7.97620994-1.36928077-.86513377 0-1.74340625.05456912-2.62875342.1748233" fill="#fff" fill-rule="evenodd"/></mask><mask id="aa" fill="#fff"><path d="m14.2241737 34.6736249c-5.64661494 17.9694101-13.66830504 21.9832723-13.66830504 21.9832723l33.12572944 14.3658269s11.2214723-32.8718334 29.2578943-50.3470897l-25.9439064-20.07032135s-17.1237867 16.09890185-22.7714123 34.06831185" fill="#fff" fill-rule="evenodd"/></mask><mask id="ab" fill="#fff"><path d="m.55687933 56.6568972s8.02067943-4.0138622 13.66729437-21.9832723c5.6476256-17.96941 22.7714123-34.06831185 22.7714123-34.06831185l25.9439064 20.07133185c-18.036422 17.4742458-29.2578943 50.3460792-29.2578943 50.3460792" fill="#fff" fill-rule="evenodd"/></mask><mask id="ac" fill="#fff"><path d="m.68018111 47.2354916 33.76043039 12.5003713c4.7612677-11.0209417 3.2321236-22.5906063 1.3108394-29.9483431-1.2158364-4.6575757-4.1083748-8.6977118-8.1055758-11.3786726l-27.36086608-18.34330966c14.00789028 23.21511966.39517209 47.16995406.39517209 47.16995406" fill="#fff" fill-rule="evenodd"/></mask><mask id="ad" fill="#fff"><path d="m89.8142261 49.1070104 20.2609069-8.8250398-7.248527-10.989615s-17.3845396-21.64474159-55.9769847-20.64127605c0 0-25.7043775 2.47481075-46.35540353-8.55623637z" fill="#fff" fill-rule="evenodd"/></mask><mask id="ae" fill="#fff"><path d="m16.4203602 30.7072581 34.1495385-11.6262548s-36.7611105-1.0832981-50.32127381-18.90516946z" fill="#fff" fill-rule="evenodd"/></mask><mask id="af" fill="#fff"><path d="m14.2241737 34.6736249s-4.99776461 15.9938058-13.66830504 21.9832723l30.88911614-18.49388 5.5506012-37.55770415s-17.6786447 17.21958995-22.7714123 34.06831185" fill="#fff" fill-rule="evenodd"/></mask><mask id="ag" fill="#fff"><path d="m1.49983471 28.3515435c-2.43975808 5.2901733.50634582 7.2223245.50634582 7.2223245l8.90400527 9.215108 12.9103023-44.61328967c-17.50480945 12.12546127-22.32065339 28.17585717-22.32065339 28.17585717" fill="#fff" fill-rule="evenodd"/></mask><mask id="ah" fill="#fff"><path d="m.63470094 3.50758196 10.56049386 37.85076054c4.8744628-11.079553 3.4605351-26.7560494.2870304-32.8758755-3.17249407-6.11982608-7.08176675-8.45114028-7.08176675-8.45114028z" fill="#fff" fill-rule="evenodd"/></mask><mask id="ai" fill="#fff"><path d="m6.07614979 20.4743895c6.22168631 12.7014687 21.96186541 18.4948905 21.96186541 18.4948905l-27.55693614-38.93709025c-.16979261 11.10077435 5.59507073 20.44219975 5.59507073 20.44219975" fill="#fff" fill-rule="evenodd"/></mask><mask id="aj" fill="#fff"><path d="m56.7653076.77508365s9.3780096 4.09167369 25.8842768 16.46976975c16.5072778 12.378096 22.8967356 48.2007042 22.8967356 48.2007042-.990457 13.4209726-8.6341565 16.1635763-8.6341565 16.1635763-.9429554.2465716-1.9253269.3132672-2.9157838.1556231-4.3660956-.6962616-7.1717164-5.2537939-11.4084462-6.5119154-6.0761498-1.8058337-11.8551625 3.8279229-14.5657802 9.5546492-2.7126391 5.7277369-4.2559326 12.4235704-9.1748649 16.4202532-8.1561093 6.628128-20.3296329 2.144365-29.3134812-3.3125477-8.9838482-5.4569123-19.3108772-11.9577117-29.22252075-8.4572035.89444321-5.2638993 7.20304716-7.8953437 12.52321555-7.4244324 5.3201684.4699008 10.2471861 3.0002912 15.5097463 3.9097766 5.2625602.9084749 11.6843592-.4961748 13.846183-5.3791007.8873685-2.002889.9035392-4.2755919.7388-6.4603779-.8924219-11.8778791-6.6522319-23.4111643-4.9957433-35.2071897.1364405-.9691072.3395852-1.9725727.9409341-2.7446247.8257176-1.0620769 2.234592-1.4774085 3.5676661-1.6582951 11.0314662-1.4996403 22.2448531 8.6138372 32.4991139 4.2806446 1.1642921-.4921327 2.341723-1.2682269 2.703543-2.478853.3375639-1.1277618-.1162271-2.3252509-.5831568-3.4045069" fill="#fff" fill-rule="evenodd"/></mask><mask id="ak" fill="#fff"><path d="m18.6852723.06250592c-10.50086428 1.52187221-18.02631527 51.31114418-18.02631527 51.31114418l39.78503597-8.1601049 17.7150289-16.2130928s-27.4811359-26.99655776-38.6156905-26.99655776c-.2981477 0-.5841674.01920025-.8580591.05861128" fill="#fff" fill-rule="evenodd"/></mask><mask id="al" fill="#fff"><path d="m27.3851222 8.89981974 1.6069658 4.57572206c-7.1899085 1.8220023-23.27977952-.7285989-23.27977952-.7285989-6.7765443-6.58669524-5.53544118-11.93143767-5.53544118-11.93143767 5.3717126 2.92349023 27.2082549 8.08431451 27.2082549 8.08431451z" fill="#fff" fill-rule="evenodd"/></mask><mask id="am" fill="#fff"><path d="m20.3609637 19.4639977 1.970807 5.6044511c-7.1141081-2.1029324-21.11593434-11.4059573-21.11593434-11.4059573-2.46401417-9.12213836 1.33105277-13.08446301 1.33105277-13.08446301 3.12701388 5.25581497 17.81407457 18.88596921 17.81407457 18.88596921z" fill="#fff" fill-rule="evenodd"/></mask><mask id="an" fill="#fff"><path d="m1.68984073.79529444c-.30320109 2.32727204.82167494 4.63332275.70241585 6.97777396-.1192591 2.3434407-1.45536522 4.433236-2.10623689 6.6887597" fill="#fff" fill-rule="evenodd"/></mask><mask id="ao" fill="#fff"><path d="m19.3785922 10.3741966-19.11177524 9.1282016c18.63878154 27.8696638 54.11937274 36.8088945 54.11937274 36.8088945l21.5020104-54.12852778c-5.39799-1.26519522-10.7333185-1.78057027-15.8473101-1.78057027-22.4914567 0-40.6622978 9.97200195-40.6622978 9.97200195" fill="#fff" fill-rule="evenodd"/></mask><mask id="ap" fill="#fff"><path d="m6.90287809.16471791s28.91628771 17.92595689 37.80614361 20.56750669c0 0-4.4135972 7.0525538-18.7418699 6.8241719 0 0-19.96174893-14.5487345-25.70033484-24.2226273z" fill="#fff" fill-rule="evenodd"/></mask><mask id="aq" fill="#fff"><path d="m8.14591807 1.33391189s30.36154623 1.18435208 39.35347983-1.0822876c0 0-.1940487 8.31673855-12.6313573 15.43497751 0 0-24.97871628-5.0809917-34.85195435-10.46918732z" fill="#fff" fill-rule="evenodd"/></mask><g fill="none" fill-rule="evenodd"><g transform="translate(-566 134)"><path d="m1589.7269 794.662528c0 438.883502-355.87505 794.670342-794.867358 794.670342-438.992306 0-794.859542-355.78684-794.859542-794.670342 0-438.883497 355.867236-794.662528 794.859542-794.662528 438.992308 0 794.867358 355.779031 794.867358 794.662528" fill="#fb3c5c" mask="url(#K)"/><path d="m0 794.654712c0 438.891318 355.875054 794.678158 794.86736 794.678158 438.99231 0 794.86736-355.78684 794.86736-794.678158 0-438.875681-355.87505-794.654712-794.86736-794.654712-438.992306 0-794.86736 355.779031-794.86736 794.654712" fill="url(#a)" mask="url(#K)"/></g><path d="m167.646949 88.916984c90.114374-17.0112194 176.288001 50.283852 267.994282 50.033917 79.977678-.210883 149.522128-50.8149647 221.852413-84.9623711 91.620443-43.2544227 194.914864-61.40597169 295.774605-51.98653619-51.73695 50.27604169-103.466097 100.55208329-155.203048 150.83593529-88.608306 86.110511-189.507065 177.672736-312.965631 181.078104-129.592086 3.585009-245.504705-92.585397-375.151416-92.601018-53.8204749-.00781-113.72764961 15.246052-157.2943757-16.378571 31.799106-35.490808 63.598212-70.981616 95.4051215-106.464614" fill="url(#c)" mask="url(#L)" opacity=".06981" transform="translate(-378.839517 180.205712)"/><path d="m-26.1032343 43.0991358c56.8170039 20.6899541 116.1779363 41.7001378 176.2567873 34.9362646 67.047342-7.5527315 126.064922-49.2606797 171.153323-99.4898586-16.465304-13.8245446-41.124242-13.4262103-61.163532-5.646975-20.039289 7.7792353-36.941587 21.72093707-54.795907 33.7022091-47.702561 32.015146-111.4724492 50.2916627-162.3041981 23.5251573-11.0653085-5.826616-21.2722363-13.6527141-33.32858446-16.9721669-12.04854472-3.31945284-27.15604634-.4998706-33.05546334 10.5285232" fill="url(#d)" mask="url(#M)" opacity=".06981" transform="translate(-51.774996 136)"/><path d="m320.284623 1.16560643c93.906857-5.27988259 197.443185 8.30253726 262.305558 76.47238227 8.880339 9.3178993 17.097385 20.0573054 19.500851 32.7102783 2.551732 13.496505-1.849421 27.266376-6.890457 40.036506-35.131184 89.086303-102.631127 161.20825-172.682802 226.456976-111.355397 103.715327-242.812511 200.026321-394.5118046 211.281219-19.20431897 1.429317-40.8277111.554544-54.2808789-13.230948-26.5863937-27.258566 2.1693623-71.957927 32.04881683-95.553378 89.99732267-71.090964 206.16745567-121.820013 260.30006867-220.474151 5.50144-10.028653-1.139305-22.384828-12.508949-23.56421-73.773926-7.677699-150.162012 10.942479-211.8483755 52.236472-28.8337907 19.291879-61.3586186 44.644688-94.2580127 33.655346-35.0063288-11.700095-44.7918696-57.899067-37.0508357-94.022524 15.1933397-70.880081 73.773926-126.170449 139.7053731-156.1783024 65.9236438-30.0156639 198.2313348-61.43721366 270.1714478-69.82566617" fill="url(#e)" mask="url(#N)" opacity=".06981" transform="translate(-559 520.204261)"/><path d="m-146.550319 572.285271c32.595059-61.304436 89.8724673-105.129023 146.78311275-144.860921 136.33427725-95.186286 280.90901125-178.57094 431.55483725-248.904287 47.281174-22.072409 114.500192-37.708984 142.413174 6.404591 16.933512 26.766505 10.565887 66.740528 35.201415 86.641624 24.791598 20.026063 61.264977 4.795633 88.990676-10.903427 125.120704-70.833217 250.241407-141.674246 375.362114-212.5152737 72.80629-41.2236987 158.33223-83.6580213 236.39806-53.57206316 3.58959 22.04897716-15.04507 40.86441666-32.19708 55.16540046-182.25765 151.9684544-387.636955 276.1081794-606.859602 366.8034404-55.092439 22.790973-132.221854 36.888884-162.608533-14.449383-10.066466-17.019029-12.228024-38.458789-25.13495-53.431474-24.588707-28.523863-70.691559-17.67511-104.839507-1.819841-159.713448 74.14486-288.408137 204.845385-449.4013533 276.170663-37.1522807 16.456676-85.1903907 27.906835-114.7108857-.039052" fill="url(#f)" mask="url(#O)" opacity=".06981" transform="translate(-187.414111 1177.969459)"/><path d="m-186.547112 87.610789c87.3363425 11.2627081 169.2492789-38.8493136 253.8544096-63.2961073 62.6227794-18.08906515 128.3747464-22.19737616 193.5336514-23.54858871 20.819635-.43738673 45.580019 1.49180114 56.161513 19.44027771 10.667332 18.1203071-.351156 41.7157588-15.435247 56.352593-37.901413 36.7717263-95.373908 42.5280483-148.117505 44.5353413-91.1834486 3.467852-182.561984 1.780789-273.550346-5.06119" fill="url(#g)" mask="url(#P)" opacity=".06981" transform="translate(203.824293 1676.835577)"/><path d="m-97.3182798 648.243431c-1.8650273-56.290109 51.7837712-96.537498 99.5331528-126.35009l349.587276-218.248164c105.853957-66.084447 215.024385-133.488866 337.796246-155.694052 131.847288-23.853198 268.743414 6.55299 400.934055-15.277294 169.83454-28.055234 320.40233-140.33865409 492.32039-148.9848524-154.82068 155.6003264-357.3049 263.0256304-572.87553 303.9212884-109.716665 20.814922-222.866859 24.923233-329.805496 57.133641-186.611981 56.204194-336.63353 191.700352-496.089465 303.819753-50.06701 35.19401-105.1360381 69.521057-166.2995701 70.934754-61.1635321 1.413696-127.3524929-43.590274-126.6735919-104.824415" fill="url(#h)" mask="url(#Q)" opacity=".06981" transform="translate(-468.338728 783.843699)"/><path d="m1825.92622 708.880655c315.07747-163.215784 717.02844-354.13168 872.34206-353.490944 21.64225.085952 35.39117 23.066497 25.24148 42.210439-11.89074 22.425762-41.20772 56.384771-106.14229 107.190451-160.55241 125.59989-226.53317 167.708749-226.53317 167.708749l11.70337 49.547649s748.67984-438.826044 817.81482-652.2145852c69.12716-213.3885408-709.16634 111.0036112-1213.96486 342.8484752-504.80632 231.83705-601.89977 284.314894-601.89977 284.314894v3.797533c-84.82795 41.452496-195.78744 96.258868-340.07693 168.411997-496.858338 248.425867-1237.176403 652.167697-1027.6947006 731.970597 209.4895106 79.80289 1020.3400806-229.12565 1020.3400806-229.12565l-31.24541-40.18665s-74.139554 25.07466-272.542484 71.59053c-80.252783 18.80795-125.067549 20.39416-149.988931 15.61208-21.259687-4.07883-30.542746-29.20037-17.051472-46.1408 96.461051-121.05223 494.250647-313.89034 818.103697-457.172979z" fill="url(#i)" mask="url(#R)" opacity=".158482" transform="translate(-1378.622091 86)"/><path d="m1.16126016 21.6124043c-.7175759.6891878-.84492036 1.7896651-.29107304 2.6162863 3.28872113 4.9112211 16.66393178 20.7483932 55.91836588 27.9373699 1.3654155.2496032 2.7257777-.4597954 3.2836677-1.7310539l13.7430947-31.3540033s-36.8257934-.7447674-50.3212738-18.90516946z" fill="url(#k)" mask="url(#S)" transform="translate(1978.361139 1531.856103)"/><path d="m3.83852576 15.654117c3.29377448 8.5865525 9.68626404 15.6259694 17.81407454 19.9318774l21.0017287 11.1260379c-9.4891834-16.5869923-9.2547079-46.30089031-9.2547079-46.30089031l-32.91854204-.37895224c.33251052 5.97531896 1.67063799 11.22304965 3.3574467 15.62192725" fill="url(#l)" mask="url(#T)" transform="translate(2424.066737 1585.226874)"/><path d="m.80853623 7.55378137c.76305607 2.66378163 4.45099196 10.67533733 4.45099196 10.67533733 13.81788421 10.8612765 34.21725341 1.6694109 34.21725341 1.6694109l-21.077529-19.4538923c-10.27346346 6.37246091-17.59071637 7.10914407-17.59071637 7.10914407" fill="url(#m)" mask="url(#U)" transform="translate(2461.461538 1613.709788)"/><path d="m.836835 30.1068503c-.67613842 1.901835-.23245417 4.0148727 1.16934553 5.4670177 8.56745207 8.8745562 27.49023187 28.4325341 27.49023187 28.4325341-1.4331304-13.262318 23.5011163-34.2724408 23.5011163-34.2724408l-29.1770406-29.55827497c-14.81743715 10.86733977-20.86629884 23.97201357-22.9836531 29.93116397" fill="url(#n)" mask="url(#V)" transform="translate(1940.966338 1853.019792)"/><path d="m.186974 16.5110543s7.16363103 1.6471791 16.8509058-4.3948354l-10.23505807-12.01733356s-6.75532023 6.9454367-6.61584773 16.41216896" fill="url(#o)" mask="url(#W)" transform="translate(1970.275777 1900.51514)"/><path d="m.4184175 81.8929479s66.1726266 13.7059448 96.6918374 8.8967882c30.5182001-4.8091566 44.8656751-6.7908242 69.0136211 14.5517659l-50.158556-76.0491464s-17.5209803-21.31126361-55.9769849-20.64127605c-38.4580259.66897703-46.3554035-8.55623637-46.3554035-8.55623637z" fill="url(#p)" mask="url(#X)" transform="translate(885.826554 2083.422756)"/><path d="m13.6329316.09585372-13.2145141 81.79608368s66.1726266 13.7069553 96.6918374 8.8977987c30.5182001-4.8091566 44.8656751-6.7908242 69.0136211 14.5517659l-50.158556-76.0491464s-17.5209803-21.31126361-55.9779956-20.64127605c-38.4570152.66897703-46.3543928-8.55522583-46.3543928-8.55522583" fill="url(#r)" mask="url(#Y)" transform="translate(885.826554 2083.422756)"/><path d="m.05659754.85693734 21.32312176 20.96060646s.9247633-6.7786977-2.2083146-11.89404774c-2.1072475-3.43987582-4.6773821-6.61195873-8.5098438-7.87210125-2.27906151-.74982017-5.0482981-1.36928077-7.97620994-1.36928077-.86513377 0-1.74340625.05456912-2.62875342.1748233" fill="url(#s)" mask="url(#Z)" transform="translate(2105.705596 1734.974505)"/><path d="m14.2241737 34.6736249c-5.64661494 17.9694101-13.66830504 21.9832723-13.66830504 21.9832723l33.12572944 14.3658269s11.2214723-32.8718334 29.2578943-50.3470897l-25.9439064-20.07032135s-17.1237867 16.09890185-22.7714123 34.06831185" fill="url(#t)" mask="url(#aa)" transform="translate(2271.455523 1578.340912)"/><path d="m.55687933 56.6568972 33.12471877 14.3658269s11.2214723-32.8718334 29.2578943-50.3460792l-25.9439064-20.07133185s-17.1237867 16.09890185-22.7714123 34.06831185c-5.64661494 17.9694101-13.66729437 21.9832723-13.66729437 21.9832723" fill="url(#u)" mask="url(#ab)" transform="translate(2271.455523 1578.340912)"/><path d="m.68018111 47.2354916 33.76043039 12.5003713c4.7612677-11.0209417 3.2321236-22.5906063 1.3108394-29.9483431-1.2158364-4.6575757-4.1083748-8.6977118-8.1055758-11.3786726l-27.36086608-18.34330966c14.00789028 23.21511966.39517209 47.16995406.39517209 47.16995406" fill="url(#v)" mask="url(#ac)" transform="translate(2120.86565 1739.839389)"/><path d="m89.8142261 49.1070104 20.2609069-8.8250398-7.248527-10.989615s-17.3845396-21.64474159-55.9769847-20.64127605c0 0-25.7043775 2.47481075-46.35540353-8.55623637z" fill="url(#w)" mask="url(#ad)" transform="translate(898.965268 2083.422756)"/><g fill="#384a66" transform="translate(1011.149671 1765.290685)"><path d="m492.80819 499.525044-2.62471-18.10078-6.107481-20.144091-6.812928-16.218145-9.77015-24.621791-44.002563 28.816539c-1.032905.697273-.123302 2.278767.998542 1.736107l17.304697-8.374339c1.218868-.589145 2.681308-.003032 3.155312 1.265195.413365 1.10553-.079843 2.345462-1.138014 2.865889l-66.55365 32.7344c.569008 3.922914 5.629434 11.198797 5.914443 13.159243.283998 1.961457 3.691978 6.473515 5.450545 9.973013 1.758566 3.498487.430545 4.692944-.739811 6.364376s1.541272 10.628853 1.541272 10.628853l-5.56475 6.542231-6.584517 7.327421-19.76669 17.522752s-10.431128 2.786057-12.693008 4.771766c-1.735321 1.523894-19.627217 13.348214-27.84902 18.762684-2.631785 1.732064-4.494451 4.404941-5.208995 7.472938-1.499834 6.433093-4.118481 17.664227-5.321179 22.824041-.379001 1.626968.34565 3.309516 1.785855 4.155338l4.542963 2.666813s-9.495248 66.377275-3.658627 84.648836c5.836621 18.272572 28.950651 23.842665 46.772811 14.886255 14.604185-7.338537 14.631473-53.221064 14.166565-69.546326-.107131-3.754154 1.207751-7.40119 3.677829-10.228679l.654915-.751842c2.044586-2.338388 4.458066-4.326118 7.14746-5.881338l6.469301-3.742027c2.658062-1.538041 5.079628-3.448971 7.210121-5.661042 3.214943-3.340843 8.144992-8.161115 10.497833-8.911946 2.089055-.666956 7.432469-4.719219 11.628772-8.070167 4.592486-3.666237 9.399234-7.047501 14.385881-10.157941 8.180365-5.103224 19.487745-11.947606 21.822393-12.286137 3.746555-.54266 30.460592-22.895789 29.826902-27.264351-.477037-3.292337 2.720724-4.94659 4.325668-5.562008.589221-.22535 1.09961-.623503 1.448291-1.149994 3.897145-5.881339 6.022584-12.757048 6.126683-19.811623l.012128-.91858c.041438-2.834563-.142504-5.666094-.549804-8.471351z"/><path d="m802.412885 41.0855979c-1.089503-7.5153808-2.552954-17.609658-3.054246-21.0657025-.834814-5.7540109-6.396532-17.09024088-6.396532-17.09024088l-39.151346-2.54959068s-7.416299 19.09211926-7.633593 20.29870316c-.216283 1.206584-7.484013 13.2279597-8.233931 21.5618774-.749917 8.3339177-11.703562 13.8383253-15.090318 20.204723-3.385745 6.3663977-20.370059 20.6190442-20.370059 20.6190442l-18.433616 16.1767133-30.068452 14.7468001s-35.437132 20.719088-44.594816 22.045926c-9.158694 1.327848-42.900932-2.090806-42.900932-2.090806l-71.28864-18.752578-42.060055-17.7955974s-31.54403 4.5737014-37.649489 5.4579224c-6.105459.885233-44.757534 13.760514-44.757534 13.760514s-41.556741 14.3345-49.69769 15.51481c-8.139939 1.1793-25.275854 11.973881-31.233755 13.876726-5.957901 1.902846-31.49855 26.38114-34.551785 26.823756-3.052224.442616-30.643523 17.946167-33.54819 19.406397-2.905677 1.460229-27.163785 30.946756-27.163785 30.946756l-10.099628 20.16228 30.30697 29.887711 3.141163.378952c2.087034.295078 3.987094-1.248016 5.269635-2.920459.797419-1.036813 1.495792-2.182764 2.330605-3.181177l5.289849-2.817384c2.651999-.349647 5.568793.024253 8.129832-.84279 4.099278-1.38747 6.442012-5.582219 9.707488-8.422845 4.043692-3.517687 9.556898-4.957706 13.667294-8.398592 2.912752-2.43641 4.979573-5.755022 7.37284-8.705796l8.101533-6.280502c2.984509-1.285406 6.173174-2.204997 8.796874-4.111885 3.469631-2.522306 5.676935-6.598821 9.414394-8.703775 2.458961-1.384439 5.33735-1.772486 8.013605-2.666813 4.165983-1.392523 7.891313-4.075505 10.532195-7.585108l-1.276477-2.34142c6.582496-2.151438 27.024313-8.730049 33.817028-9.714314 2.577209-.3739 8.273347-.054569 14.855843.555797-1.859634.523459-3.73948.911506-5.675925.972138-2.570134.080843-5.253464-.401184-7.643699.549734-2.450876.97416-4.180132 3.311537-6.658296 4.210917-2.266933.822579-4.770364.313267-7.180812.390068-4.875474.155623-9.533653 2.707235-14.170609 4.320056l48.196845 3.138735c3.490855.227371 6.90591.949907 10.173407 2.087774l-15.98274 14.70941-40.035682 46.317059-38.315521 30.775975s-12.74051 22.621933-13.440904 22.97259c-.699384.351668-7.229325 10.560136-10.096597 13.22796-2.868282 2.667824-12.748595 19.118393-12.748595 19.118393s-17.583641 18.56765-20.802626 20.53618c-3.219996 1.968531-.926785 9.14437-.785291 10.124594.142504.981233-7.582049 9.859832-14.797224 12.157798-7.216186 2.296956-9.001029 17.073062-10.32905 18.266509-1.329032 1.193447-8.392606 7.723552-8.528036 10.245858-.134419 2.523316-8.661444 12.770185-8.661444 12.770185l-4.22157 8.871525s-2.826845 4.664649-7.97621 5.411438c-5.148355.745778-1.107695 6.167321-6.25706 6.913099-5.147344.746789-20.668207 18.013874-20.668207 18.013874l-15.881673 11.312988s-12.58891 11.585833-14.795203 11.906174c-2.206293.31933-5.446502 9.049379-10.840449 9.830526-5.3939477.782158-20.6641651 19.765139-23.1160512 20.120849-2.4518861.355709-16.724572 10.683421-21.2048734 12.585256-2.2062932.93576-5.8366209 2.927533-8.9545388 4.708103-3.7819282 2.161543-6.8129284 5.424575-8.668519 9.366689l-8.7382554 18.565628c-1.3098287 2.782015.4497483 6.036962 3.4948979 6.466441 0 0-29.31954515 36.036843-34.86408236 65.123196-5.54554789 29.087363 12.27054796 38.017499 20.61059926 38.561169 8.3390406.54266 19.8192444-4.875852 25.203085-10.911803 5.3818193-6.036962 24.0307075-51.79014 31.9250532-62.946494 7.8943456-11.156354 34.7417908-22.806862 37.4392698-23.197941 2.696469-.391078 11.174982-.61845 14.852811-1.152014 3.676819-.532555 4.539931-6.665518 21.769838-10.411587s35.895977-23.47786 40.234784-26.358907c4.338808-2.882059 5.944763-5.617588 14.628442-7.877154 8.68469-2.260577 27.948066-21.32238 28.64846-21.674048.700395-.351667 5.315115-4.774798 8.360265-6.217848 3.045149-1.44204 7.937804-7.407253 10.875823-9.585976 2.939029-2.177712 4.58339-2.916416 7.867057-7.897365 3.282658-4.981958 13.351966-14.950929 14.295932-16.590024.943966-1.638084 6.087267-3.385306 7.277836-3.807712 1.189559-.423416 5.873005-6.107699 7.37284-9.578902 1.498824-3.471202 8.814056-6.534147 8.814056-6.534147s3.600007-4.526206 5.629433-6.072331c2.027405-1.545114 3.00068-5.19013 7.754873-10.385312 4.755204-5.194172 10.701988-9.059485 15.744222-10.540936s12.62024-13.092547 17.27842-13.768598l11.047637 14.140477c1.324988 1.695685 2.256826 3.664215 2.728809 5.764116l2.192144 9.751704c.305223 1.353112.819654 2.651655 1.526112 3.846113l11.448873 19.369007 15.734115-7.739721-7.338477-19.765138c-1.972828-5.310384-.478047-11.285703 3.761715-15.041878l.199102-.175834c3.223028-2.856794 2.296243-8.109578-1.711064-9.690061-2.203262-.869064-3.267498-3.374191-2.362948-5.56403l6.001361-17.545994 61.951056-32.464586s6.380362-7.323378 9.065713-7.713446c1.636275-.236467 20.505489-16.760805 35.022757-29.656298 3.712192-4.004767 11.85011-18.148275 13.934112-23.19794 4.213484-10.216553 4.524771-21.950935 1.052108-32.428207-1.03998-3.139745 1.318924-6.360334 4.626848-6.419956 8.89592-.160676 17.782744-.772052 26.616002-1.832108.818643-.098022 1.632233-.26274 2.3963-.571965 6.324774-2.554643 4.063905-9.666819.421449-13.618028-.464908-.505269-.954073-1.001444-1.451323-1.494587-3.459524-3.42775-1.355308-9.358605 3.493888-9.800211 11.390254-1.035802 22.672366-3.262021 33.631064-6.541221 13.722881-4.106831 26.253172-9.093843 38.459037-16.167618 1.731278-1.097446 3.30287-2.052405 4.487376-2.69814.906571-.495164 1.588774-.810453 1.928359-.859969.393151-.05659 1.034926-.161686 1.82527-.295078 1.240093-.294066 2.395289-.511332 2.793493-.481016 4.031564-.700304 9.431575-1.652232 12.207887-2.054427 4.220559-.612386 11.381158-10.659168 21.740528-12.16083 10.35836-1.501661 8.26223-7.855932 26.339079-15.568368 18.077859-7.713447 13.467181-9.786063 25.956034-15.5138 12.488853-5.726726 10.064255-11.642423 18.610483-14.83977 8.546228-3.197346 8.245048-16.079701 17.820138-25.692962 9.57408-9.61326 11.803619-18.553502 14.539503-21.300148 2.735885-2.746645 13.122543-17.5702466 13.122543-17.5702466s10.180482-8.1348414 11.581271-20.088511c.739811-6.3178918 3.486813-12.3791066 5.912421-16.6910778 2.589338-4.599975 3.545432-9.9325909 2.78844-15.1560687"/></g><path d="m16.4203602 30.7072581 34.1495385-11.6262548s-36.7611105-1.0832981-50.32127381-18.90516946z" fill="url(#x)" mask="url(#ae)" transform="translate(2001.606556 1531.856103)"/><path d="m14.2241737 34.6736249s-4.99776461 15.9938058-13.66830504 21.9832723l30.88911614-18.49388 5.5506012-37.55770415s-17.6786447 17.21958995-22.7714123 34.06831185" fill="url(#y)" mask="url(#af)" transform="translate(2271.455523 1578.340912)"/><path d="m1.49983471 28.3515435c-2.43975808 5.2901733.50634582 7.2223245.50634582 7.2223245l8.90400527 9.215108 12.9103023-44.61328967c-17.50480945 12.12546127-22.32065339 28.17585717-22.32065339 28.17585717" fill="url(#z)" mask="url(#ag)" transform="translate(1940.966338 1853.019792)"/><path d="m.63470094 3.50758196 10.56049386 37.85076054c4.8744628-11.079553 3.4605351-26.7560494.2870304-32.8758755-3.17249407-6.11982608-7.08176675-8.45114028-7.08176675-8.45114028z" fill="url(#A)" mask="url(#ah)" transform="translate(2144.111067 1758.216909)"/><path d="m6.07614979 20.4743895c6.22168631 12.7014687 21.96186541 18.4948905 21.96186541 18.4948905l-27.55693614-38.93709025c-.16979261 11.10077435 5.59507073 20.44219975 5.59507073 20.44219975" fill="url(#B)" mask="url(#ai)" transform="translate(2424.066737 1585.226874)"/><g transform="translate(1011.972441 1735.797232)"><path d="m640.450359 76.9017932c7.107034 49.0141888-26.870691 94.5096788-75.891232 101.6157908-49.021552 7.106113-94.521928-26.867208-101.628962-75.881397-7.107033-49.0151985 26.870691-94.5096784 75.891233-101.61579086 49.021551-7.10712299 94.522939 26.86720876 101.628961 75.88139706" fill="#384a66"/><path d="m467.491523 120.698971s-10.637305-4.614122-15.178247 6.189554l11.178014 21.658889 38.274083 11.660613-19.340186-33.425609z" fill="#759097"/><path d="m601.731985 159.302685 15.873587-8.722976s4.875474 6.57558-3.554527 13.254234c-8.42798 6.679665-42.651297 11.187681-42.651297 11.187681l-38.259935-17.097315z" fill="#384a66"/><path d="m501.468439 76.6857399c7.996423-15.79574 37.079471-61.6156136 104.971248-60.546463 0 0 46.675786 27.5089012 37.162347 88.6384451 0 0-6.189345 31.268108-23.18983 45.395447 0 0-61.394178 21.768028-106.625716-21.875144-3.404948-3.285263-5.752735-7.472938-6.807875-12.039566l-6.761384-29.2773446c-.800451-3.4631182-.367884-7.0970176 1.25121-10.2953745" fill="#030c1a"/><path d="m309.784509 363.621607-22.702687-21.256694-8.39968-57.933208c-.381023-2.626392.382033-5.290174 2.09613-7.316305l146.249044-172.81536c1.637286-1.935182 4.287264-2.68096 6.693669-1.883645l60.517927 20.045058 70.209244 55.288627z" fill="#384a66"/><g fill="#fff"><path d="m427.096244 104.217985-27.299215 32.258436 77.242498-20.954544-43.391108-13.232001c-2.373053-.724557-4.949252.034358-6.552175 1.928109"/><path d="m280.77807 277.115905 35.843421-42.354734 21.166468-6.391661-56.430775 74.515148-2.675245-18.453459c-.381022-2.625381.382034-5.289162 2.096131-7.315294"/><path d="m379.556335 241.316236s-82.32617 70.149619-95.767074 93.123219c-13.440905 22.97259-36.286096 55.317933-36.286096 55.317933s-15.19846 15.808877-20.872363 20.415926c-2.191133 1.779559-1.873782 5.469038-1.359351 7.900396.320382 1.514798-.247614 3.078103-1.445259 4.061357l-12.709179 10.440893s-2.196186.630576-2.762162 1.116646c-3.55857 3.057892-6.3935 12.733805-7.278847 16.034227-.18091.678072-.652893 1.227805-1.291637 1.51884-1.133972.515376-3.057277 1.5724-4.864356 3.418655-1.935433 1.976615-2.472099 4.173527-2.613593 5.418512-.082875.718493-.319372 1.410713-.725661 2.009962l-7.901421 10.703633c-.389108.527501-.69433 1.104519-.911624 1.722969-1.080407 3.088209-5.086704 13.186528-11.365998 13.62106-5.085693.353689-5.149366 3.046776-4.686479 4.70406.222348.796305-.18192 1.632021-.933859 1.979647l-1.358341.363794c-2.409438.643714-4.597539 1.934172-6.327806 3.731922l-12.576782 13.067284c-.693319.719504-1.451322 1.373322-2.264912 1.953372l-14.658762 10.440892-14.795202 11.906174-8.230899 8.793714-5.139258 2.169627-18.450797 17.017483c-1.4179705 1.308648-2.9986588 2.428325-4.7036596 3.331748l-29.4893377 15.620916c-2.5539638 1.353112-4.5985498 3.500509-5.8265142 6.116795l-11.6863806 24.900699c-.3102758.661903-.003032 1.450124.6751277 1.727012 2.3508191.957991 3.1118539 3.909776 1.5079201 5.878307-9.4325858 11.568654-35.51596468 46.813234-31.94829855 78.86653 0 0 15.36724175-40.619638 34.70944975-62.984894 6.8594193-7.930713 17.825192-11.136143 27.8621586-8.097452 2.6772656.809442 5.6031561 1.46124 8.5300573 1.68659 10.0319133.772052-6.5602609-2.315145-6.1751955-18.134128.3860761-15.818982 60.5846307-62.118862 60.5846307-62.118862l41.674989-28.937804 19.154224-17.33277c2.007191-1.815939 3.824376-3.828933 5.427299-6.009677l5.562729-7.566919c3.566656-4.852609 7.483003-9.438437 11.718722-13.720092l23.223182-23.481902c3.102758-3.135703 5.199899-7.125313 6.025617-11.459516 1.160249-6.086478 4.835046-11.401915 10.119841-14.637662l4.159919-2.546559c4.259975-2.607191 7.977221-6.011698 10.947581-10.02556l37.843538-51.123184c5.45762-7.374916 11.668189-14.161698 18.53064-20.252219l13.29941-11.804109c7.092884-6.29465 13.022487-13.79083 17.514916-22.141927l17.44518-32.429217c2.090067-3.885524 4.861324-7.3638 8.182387-10.269101 6.713883-5.873254 15.329847-9.111022 24.251034-9.111022h.265806z"/><path d="m392.168995 501.238569 8.643252 21.193031c2.073895 5.125455 4.863345 9.932591 8.282443 14.279931l7.105012 9.0322c1.313872 1.66739.692309 4.119969-1.240092 4.968822-2.644924 1.16111-4.090183 4.034073-3.067385 6.735244l.610445 1.614842c.548794 1.450124-.8146 2.895195-2.294221 2.431358l-3.251327-1.019634c-1.157217-.363795-2.415502.084885-3.074459 1.102498-2.94105 4.543385-6.835163 8.416782-11.435734 11.332188l-48.209984 30.554667c-4.265028 2.702182-8.110629 6.013719-11.417542 9.829516l-.148568.171791c-4.534878 5.235604-8.419895 11.000731-11.571165 17.170074-6.455151 12.637804-9.615517 26.691375-9.230451 40.877325.793376 29.172249 4.510621 69.334113 18.83283 72.768936 0 0-15.674486-.738704-22.419699-18.483774-4.702649-12.373043-1.068279-48.649384 1.564517-69.475589.456823-3.614699.016171-7.283967-1.274455-10.691505l-2.979456-7.871091c-.927795-2.449547-1.077374-5.125456-.428524-7.661909l4.699617-18.376658c.67816-3.608636 2.758119-6.800929 5.784066-8.880619l27.237564-18.713167c1.418981-1.098456 3.123982-1.764402 4.911858-1.916993l5.598103-.477985c2.167887-.815506 4.141726-2.075648 5.793162-3.699585l29.411516-28.928709-1.71814-4.923347c-1.135993-3.256968-.896464-6.836299.666032-9.91238.163729-1.408692-.081864-2.835574-.707469-4.108853l-4.119492-5.188109c-.393151-.496175-.707469-1.050961-.928806-1.645158l-2.391246-5.110297c-.216284-.460806-.399215-.93576-.549805-1.421829l-2.416512-7.815511"/></g><path d="m56.7653076.77508365c9.683232 8.50368833 15.1752144 20.28960835 20.2962807 32.11594995.4669297 1.079256.9207207 2.2767451.5831568 3.4045069-.36182 1.2106261-1.5392509 1.9867203-2.703543 2.478853-10.2542608 4.3331926-21.4676477-5.7802849-32.4991139-4.2806446-1.3330741.1808866-2.7419485.5962182-3.5676661 1.6582951-.6013489.772052-.8044936 1.7755175-.9409341 2.7446247-1.6564886 11.7960254 4.1033214 23.3293106 4.9957433 35.2071897.1647392 2.184786.1485685 4.4574889-.7388 6.4603779-2.1618238 4.8829259-8.5836228 6.2875756-13.846183 5.3791007-5.2625602-.9094854-10.1895779-3.4398758-15.5097463-3.9097766-5.32016839-.4709113-11.62877234 2.1605331-12.52321555 7.4244324 9.91164355-3.5005082 20.23867255 3.0002912 29.22252075 8.4572035 8.9838483 5.4569127 21.1573719 9.9406757 29.3134812 3.3125477 4.9189323-3.9966828 6.4622258-10.6925163 9.1748649-16.4202532 2.7106177-5.7267263 8.4896304-11.3604829 14.5657802-9.5546492 4.2367298 1.2581215 7.0423506 5.8156538 11.4084462 6.5119154.9904569.1576441 1.9728284.0909485 2.9157838-.1556231 0 0 7.6436995-2.7426037 8.6341565-16.1635763 0 0-6.3894578-35.8226082-22.8967356-48.2007042-16.5062672-12.37809606-25.8842768-16.46976975-25.8842768-16.46976975" fill="url(#C)" mask="url(#aj)" transform="translate(535.843154 15.345903)"/><path d="m617.605673 150.579911s-1.858622 4.118959-7.351615 8.664365c-8.090416 6.693812-24.063049 14.313278-53.592814 11.072479-2.105226-.231414-2.581252 2.883068-.501292 3.275158 15.357135 2.900248 36.577168 2.933595 57.891194-9.757768 40.630967-24.192311 3.554527-13.254234 3.554527-13.254234" fill="#030c1a"/></g><path d="m18.6852723.06250592c-10.50086428 1.52187221-18.02631527 51.31114418-18.02631527 51.31114418l39.78503597-8.1601049 17.7150289-16.2130928s-27.4811359-26.99655776-38.6156905-26.99655776c-.2981477 0-.5841674.01920025-.8580591.05861128" fill="url(#D)" mask="url(#ak)" transform="translate(1724.682896 1681.228109)"/><g transform="translate(1119.291392 1691.521315)"><path d="m27.3851222 8.89981974s-21.8365423-5.16082428-27.2082549-8.08431451c0 0-1.24110312 5.34474243 5.53544118 11.93143767 0 0 16.08987102 2.5506012 23.27977952.7285989z" fill="url(#E)" mask="url(#al)" transform="translate(631.668932 16.168629)"/><path d="m20.3609637 19.4639977s-14.68706069-13.63015424-17.81407457-18.88596921c0 0-3.79506694 3.96232465-1.33105277 13.08446301 0 0 14.00182624 9.3030249 21.11593434 11.4059573z" fill="url(#F)" mask="url(#am)" transform="translate(636.722283)"/><path d="m519.558409 199.8774-17.886842 9.694104c-8.728149 2.249461-28.087538 6.106689-52.724648 4.148264-3.856718-.307204-5.058405 5.111308-1.433131 6.458357 19.185555 7.128344 50.170684 15.136868 89.203782 13.012714 5.257507-.285982 8.490641-5.820706 6.226739-10.573272-2.837962-5.955109-9.224387-14.038413-23.3859-22.740167" fill="#030c1a"/><path d="m629.801415 116.00961s4.575305-1.009529 8.315795 3.975462c0 0-9.660997 1.558251-10.907153 2.493z" fill="#759097"/><path d="m147.104678 246.597664s2.2164 8.26318 10.257293 15.985722c1.677712 1.6108.04548 4.374625-2.158792 3.638952-7.213154-2.407105-15.690656-6.924215-16.225301-14.923645z" fill="#759097"/><path d="m643.562904 77.7412947s-11.777341-28.1839415-10.846514-33.9702896c.762046-4.7485242 7.256613-15.6502223 9.561952-19.4074075.510389-.8336949 1.318925-1.4400185 2.263902-1.6977061l8.370371-2.2868504 9.537695-12.50845565c1.474568-1.93316171 3.959807-2.91237431 6.533984-2.57485418l3.596975.47091132c1.829314.23949782 3.52825 1.08127707 4.826962 2.39194656l4.889623 4.93042135c1.038969 1.0469187 2.249752 1.9230563 3.578783 2.5879911l8.680647 4.3463296 3.939593.949907c1.34116.3233726 2.506462 1.1459516 3.259412 2.2999875l2.551942 3.9077555c2.793493 4.2786234 3.33218 9.4515742 1.450312 13.9019893-2.676255 6.3259761-6.208548 15.4400302-6.75532 20.639255-.894443 8.5319834-10.896037 21.7609536-10.896037 21.7609536z" fill="#384a66"/><g fill="#759097"><path d="m59.3964866 537.120239s.8954539 6.011699 5.2888376 11.776825c.4275136.559839-.2395288 1.295512-.8297603.912517-2.2548054-1.463261-5.5778893-4.280644-8.9990083-9.524333 0 0 1.5796777-.856937 3.6060716-1.185362 0 0 1.2279644-.597229.9338594-1.979647"/><path d="m93.7592765 493.998202s-1.3644049 5.833844-.3688947 9.680967c.2476142.956981-.8075255 1.688611-1.6261685 1.132815-1.7201608-1.169194-3.5737301-3.041724-4.1639616-5.871234z"/><path d="m117.952197 462.349223s1.832345 8.294506 7.746787 18.195771c1.238071 2.073626-1.481642 4.261444-3.219995 2.584959-3.635381-3.506571-7.317253-8.111599-9.565995-13.766577z"/><path d="m281.282074 593.379388 8.275369 1.992784c2.208314.531543 2.223474 3.681394.01516 4.21698-5.079629 1.231848-11.731861 1.594631-14.373753-.227371z"/></g><path d="m655.176718 98.7874938-8.234941 23.6728942c-5.559697 13.748387-14.088744 26.072925-24.879671 36.247034-7.543643 7.114197-16.098967 16.290905-21.443391 25.532287-11.324561 19.579199-60.578567 47.951101-60.578567 47.951101l-33.30765-24.080142 69.174318-35.100072 12.704125-11.14827 20.67124-18.870811s5.42831-6.776677 11.371051-13.653397c5.942741-6.875709 6.556218-6.860551 9.148587-13.329013.36081-.902412.16474-2.037247.400226-3.157936 1.656489-7.846837 7.832695-18.402931 7.832695-18.402931l3.871878-10.2933535c.8146-2.1665962.856037-4.5474269.118248-6.7423183l-9.798448-29.1176797c-.849974-2.5273589-.637733-5.2911839.58922-7.6588775l7.983285-15.409714c.82976-1.6006943 2.330606-2.7476564 4.093215-3.1255981l5.524323-1.1863732c1.614041-.3456044 3.297818-.1192436 4.762279.6396714l16.074711 8.3379599c.476026.2465716.173835.9691072-.337564.8033788l-11.997667-3.9117977c-1.638297-.5345753-3.388778-.6214817-5.071544-.2506138l-1.020777.2243398c-3.083555.6780718-5.641561 2.8194046-6.850323 5.7358211l-2.788439 6.7170548c-.683213 1.645158-.931838 3.4075386-.771142 5.1315187.061651.0171791 23.194884 6.4431986 22.042719 29.8078781-.100056 1.8967823-.333521 3.7854803-.696351 5.6499253l-.103089.5325542z" fill="#fff"/><path d="m222.632574 282.992844c17.539172 5.516534 21.59196 8.256106 37.806144 5.569082 13.05887-2.163564 23.199936 5.749969 33.607819 13.926243 4.159919-12.712585 20.771296-21.729627 34.099005-20.574581 4.891644.424427 9.754989 2.049374 14.614292 1.34806 3.263455-.470912 6.550154-2.598097 7.995413-5.385164 1.079396-2.082722-.042448-4.634334-2.295232-5.287142-7.807428-2.26664-15.614856-4.531258-23.422284-6.796887-4.334765-1.258122-8.782725-2.571823-12.357466-5.328574-1.872772-1.44305-3.51309-3.284253-5.715341-4.145233-1.929369-.755883-4.074011-.666955-6.142854-.540638-11.808671.719504-23.564788 2.300998-35.144038 4.730334-17.669548 3.705648-42.629062 6.57659-53.245142 21.177873" fill="#030d19"/><path d="m279.521284 574.434707s3.352394 1.151004 9.546792 1.211636c.367884.004042.521506.471922.217294.678072-1.488717 1.01155-4.748129 2.741593-9.056616 2.219144z" fill="#759097"/><path d="m202.77452 282.572965c7.953975 2.198934 15.581504-4.943558 23.829584-5.206298 2.410449-.077812 4.913879.430489 7.181823-.39209 2.478164-.89938 4.207421-3.236757 6.657285-4.210917 2.390236-.948896 5.073565-.466869 7.64471-.548723 5.692096-.179876 10.907154-3.152883 16.497172-4.239212 7.740723-1.505704 15.978697.644724 23.516276-1.671432 7.170706-2.203987 13.122543-8.291475 20.619695-8.564321 5.536452-.202108 10.930399 2.889132 16.406211 2.043311 4.446949-.687167 8.059085-3.832976 11.402382-6.846404l-5.430331-10.471209-128.086289 29.71693z" fill="#384a66"/><path d="m1.68984073.79529444c-.30320109 2.32727204.82167494 4.63332275.70241585 6.97777396-.1192591 2.3434407-1.45536522 4.433236-2.10623689 6.6887597" fill="url(#G)" mask="url(#an)" transform="translate(640.764964 20.210786)"/><path d="m81.251221 303.984171-5.2726669 4.893031c-3.2725504 3.038692-7.2960289 5.13253-11.6611139 6.076373-6.2671664 1.354123-16.0747109 4.226076-23.992302 9.926528l-20.5236816 9.001884c-1.1653028.511333-2.05065 1.502672-2.4266194 2.718351l-6.1933875 20.005647-10.29974094 15.025709c-.5851781.855927-.64682898 1.96853-.12835512 2.865889 1.33610612 2.316156 4.67232875 6.237049 11.60047356 5.156782 0 0 2.1961866 7.41837 8.1743013 5.412449 4.542963-1.524904 7.7245531-10.258995 8.9889016-14.362795.1950594-.632598 1.0854599-.631587 1.2855726-.002021l3.9951797 12.55494c.750928 2.36163 3.3736174 3.660173 5.6506576 2.681971 3.3281372-1.430923 7.2283139-4.806125 6.780587-12.762101l-1.7929291-11.910216c-.0687256-.464848.5558686-.682114.7893335-.274867l6.3136573 11.028016c.7014051 1.225784 2.3215096 1.706801 3.4858018.905443 1.9940525-1.371302 3.7940563-5.703484.0414375-18.86879-.3507026-1.229826.2516569-2.539485 1.4250451-3.050818 3.6464984-1.588568 11.2629097-4.135127 15.1337769.208171.7509281.84279 1.1279081 1.94933 1.0985986 3.077092-.0737789 2.767867-.9803501 8.836156-6.8098964 14.913539-7.9034417 8.239938-13.2701009 20.253229-6.0630111 24.842088 7.2091112 4.588859 13.7198492-8.895777 16.264717-10.660179 2.5448678-1.763391 17.3350169-11.619181 20.5115536-22.331908 3.1775473-10.713738 5.8972613-15.223775 5.8972613-15.223775s-5.5900175-25.923365-22.273152-41.846433" fill="#384a66"/><path d="m688.10749 83.4833812s-4.729937 2.3050401-15.405648.5557966c-.662999-.1091382-.998542.7760942-.42347 1.1227092 3.571708 2.1463855 10.503896 5.4649966 17.86764 4.3907933" fill="#030d19"/><path d="m655.17874 21.5542983s10.395754-11.5464222 16.313229-12.47106568c5.916464-.92464347 12.128043 5.16688748 12.128043 5.16688748l-6.211579-6.09153095s-1.232007-1.92103524-4.826961-2.39194656c-3.596976-.47091132-5.162504-.53659637-5.162504-.53659637s-3.270529.41432112-4.968455 2.64053923c-1.696916 2.22722865-9.537696 12.50845565-9.537696 12.50845565l-2.353851 1.7118536z" fill="#fff"/><path d="m642.025169 77.4126673s3.298828 6.5341472 6.216633 10.1680466c.714544.888264-.020213 2.1827649-1.153175 2.057458-1.980913-.2182765-4.536899-.7447675-6.911974-1.9735833 0 0 2.319489-3.4691814 2.240656-5.4761125-.078832-2.0069311-.39214-4.7758088-.39214-4.7758088" fill="#759097"/></g><path d="m19.3785922 10.3741966-19.11177524 9.1282016c18.63878154 27.8696638 54.11937274 36.8088945 54.11937274 36.8088945l21.5020104-54.12852778c-5.39799-1.26519522-10.7333185-1.78057027-15.8473101-1.78057027-22.4914567 0-40.6622978 9.97200195-40.6622978 9.97200195" fill="url(#H)" mask="url(#ao)" transform="translate(1811.600541 1720.826955)"/><g transform="translate(1.49005 1394.245483)"><path d="m1586.55578 345.000976s-61.30018-21.087934-102.35765 42.00913c0 0-20.29022 27.56347-8.71198 67.320108l-65.20643 23.698157-78.03385 24.653118c-1.03493.327414-2.05065.71243-3.04313 1.153025l-24.36928 10.826918c-3.5707 1.586547-6.93623 3.599541-10.02282 5.99553l-25.87215 20.085479c-2.68535 2.084743-5.50916 3.984557-8.45122 5.687316l-18.95108 10.96233c-10.17947 5.888413-12.6445 6.227954-18.31132 14.381996l-19.35737 20.219881c-.63066.658871-1.15722 1.410713-1.55441 2.23127-.20315.420385-.4073.839759-.66199 1.230837l-5.90838 9.065549c-2.88243 2.626391-7.198 6.032919-11.12344 7.029311 0 0-15.31772 2.497043-26.4927 10.6046l-20.52368 9.002894s-1.74543.517396-2.42662 2.71734l-5.71231 18.450427c-.31836 1.03075-.79135 2.007942-1.40079 2.898227l-9.38003 13.683713s-1.06929 1.492566.33049 4.041147c.97227 1.772486 3.0502 2.677929 5.01293 2.191859 5.33836-1.322796 14.82451-10.402491 26.4462-30.827512 1.04403-1.834129 2.96329-3.006354 5.07357-3.05486 2.89254-.065685 7.70939-.564892 14.50918-2.513212 6.82607-1.955393 14.31615-.003031 18.86315 5.449839 1.9324 2.319188 3.18766 4.886968 2.60652 7.370874-1.74644 7.453738-.58214 5.873254-5.12106 12.989472-4.53791 7.117228-8.98183 8.364234-10.98498 18.261456 0 0 2.74498 3.436844 10.75555-7.296094 1.85357-2.482895 4.31658-4.439299 7.13635-5.724705 2.94509-1.343007 7.08985-3.696553 11.35387-7.619466 13.06695-12.023397 15.37835-31.662218 6.34599-46.948646-.06973-.118234-.14048-.236467-.21123-.3547-1.05109-1.753285-.91667-3.971419.36486-5.563019l.08792-.108127c1.40686-1.16111 14.59206-10.26708 15.89482-11.54238 9.34566-9.150434 3.99214-18.582808 16.66595-23.246447l29.19119-10.915845c9.59126-3.528804 18.50335 10.720811 23.92863 2.059479 4.64302-7.412306 10.99609-13.603881 18.5266-18.055306l31.10236-18.384742c9.09604-5.37708 18.92481-9.4061 29.17806-11.961754l56.0073-13.9606 19.5686-6.068289c14.84776-4.605028 30.64049-5.253794 45.8157-1.882635l22.38938 5.399312c1.70096.410279 2.54588-1.977626.96721-2.731488-4.69355-2.240366-9.00608-4.509026-10.18452-5.780285-18.81464-20.299714-32.35156-57.645205-10.79598-75.00728 22.70067-18.283688 15.23383-37.350544 38.71777-53.702081 20.67932-14.398164 47.87545-14.758926 69.69582-2.157501 46.49993 26.856093 46.16136 85.064168 46.16136 85.064168 7.44358-81.606103-67.52693-101.327788-67.52693-101.327788" fill="#fff"/><path d="m6.90287809.16471791s28.91628771 17.92595689 37.80614361 20.56750669c0 0-4.4135972 7.0525538-18.7418699 6.8241719 0 0-19.96174893-14.5487345-25.70033484-24.2226273z" fill="url(#I)" mask="url(#ap)" transform="translate(1810.110491 342.750101)"/><path d="m8.14591807 1.33391189s30.36154623 1.18435208 39.35347983-1.0822876c0 0-.1940487 8.31673855-12.6313573 15.43497751 0 0-24.97871628-5.0809917-34.85195435-10.46918732z" fill="url(#J)" mask="url(#aq)" transform="translate(1816.997283 337.697404)"/><path d="m1348.27055 497.153232s-5.15644 49.195075 23.29292 71.366308l6.34903-2.061501s-24.79174-23.841654-22.98871-70.94087z" fill="#030d19"/><path d="m1348.27055 497.153232 6.65324-1.636063s-.14755 18.77582 2.21034 28.105119l-7.42539 3.706659s-2.90366-15.735108-1.43819-30.175715" fill="#384a66"/><path d="m1362.9095 492.994156s-4.85627 46.747548 24.54312 71.717975l9.10109.021221s-29.65408-27.127928-26.61095-73.961372z" fill="#030d19"/><path d="m1362.9095 492.994156s-1.28658 16.179744 1.45032 27.666545l7.5396-2.4738s-2.97946-13.478574-1.95666-27.414921z" fill="#384a66"/><path d="m1677.9228 478.028068s7.15251 32.414059 49.7745 65.441516l1.49175-.611377c2.01528-.826621 3.85369-2.030173 5.41719-3.545982l.88131-.854916s-36.87532-25.114934-50.82459-63.734715z" fill="#030d19"/><path d="m1677.9228 478.028068 6.74016-3.305474s5.78609 16.00189 14.28987 26.911673l-6.72803 5.202256s-10.70603-14.867054-14.302-28.808455" fill="#384a66"/><path d="m1691.54118 471.187121s13.14377 35.874146 48.93665 61.425633l5.82955-3.983546s-36.57616-27.810042-49.39853-61.150766z" fill="#030d19"/><path d="m1691.54118 471.187121s5.65369 14.412312 13.69862 25.14525l5.10389-4.810167s-9.40328-13.065263-13.43484-24.043762z" fill="#384a66"/><path d="m1104.94178 893.771723s-2.90366 37.478882 44.24916 65.879079l9.1971-3.880471s-45.52564-25.507023-47.47624-66.96743l-1.86872 1.205574c-1.06222.686156-2.03246 1.504693-2.88749 2.437421z" fill="#030d19"/><path d="m1121.5675 880.288299s-3.26446 42.050562 49.74115 73.914888l10.33714-4.355425s-53.36137-25.621213-53.36744-75.134608l-1.68478 1.03075c-1.73027 1.058035-3.27154 2.400031-4.55509 3.969398z" fill="#030d19"/><path d="m1104.94178 893.771723s-.84998 8.639101 4.14779 21.534593l6.59361-5.721674s-4.10433-8.728028-4.77138-20.781741c0 0-3.07951 1.764402-5.97002 4.968822" fill="#384a66"/><path d="m1125.19965 901.634932 6.62393-5.346764s-3.48681-10.308511-3.54543-21.575014c0 0-4.94521 1.447092-6.71085 5.575145 0 0-.55081 11.442337 3.63235 21.346633" fill="#384a66"/><path d="m1371.83868 913.861144c2.2265 2.587991 19.36343 39.183662 51.12778 58.441509l8.42899-5.025412s-31.06295-13.474531-53.38259-57.24301z" fill="#030d19"/><path d="m1383.55022 902.735308c2.22651 2.587991 23.57793 40.051715 55.34229 59.308552l8.42899-5.023391s-34.51136-18.580786-57.59709-58.112073z" fill="#030d19"/><path d="m1372.85137 915.970543 7.85392 12.575152 5.85986-3.713732-8.09243-13.904011s-1.7515 2.37982-3.03909 3.183199-2.58226 1.859392-2.58226 1.859392" fill="#384a66"/><path d="m1401.0801 915.748023-6.03472 3.709689-10.25224-14.824611s.06671-1.061067 1.42707-2.029163c1.36036-.967086 3.8931-2.996249 3.8931-2.996249z" fill="#384a66"/><path d="m1111.20126 974.589706s-33.51989-29.015615-23.4334-66.407591l-29.53583 16.877017s-7.59822.491122-17.83328 31.585417c0 0 4.69153 4.644438 2.22348 7.743762 0 0-64.174534 81.681889-14.41924 101.041809 0 0 23.58299 6.10669 35.48161-22.12576l22.05889-45.963372s-1.73735-8.606763 25.45777-22.751282" fill="#030d19"/><path d="m1087.57583 936.068756s-20.04462 16.458653-4.99776 32.309973c1.02987 1.085319.03638 2.852753-1.42909 2.546559-9.38407-1.958425-34.68519.047496-43.28499 12.014302-12.09772 16.836596-26.87372 59.32169-26.87372 59.32169s-6.47537-29.40164 30.46767-76.978843c1.36642-1.759349 2.05772-4.002747 1.67973-6.198649-.04649-.269814-.10814-.538617-.189-.799336-.99045-3.200378-.86917-6.636212.32443-9.766863 3.0027-7.878164 8.44617-19.844971 14.99531-23.744642 12.12299-7.217272 29.48934-15.620917 29.48934-15.620917s-3.00876 16.940682-.18192 26.916726" fill="#384a66"/><path d="m1353.36837 925.678694s9.23349 41.161287 44.28454 66.40658l-.33049 27.269406-10.75656 69.5059-87.49069 2.69915v-78.2794-62.082487z" fill="#030d19"/><path d="m1359.06522 942.261341-5.69715-16.582951-29.48631 19.762107c-2.30129 1.543094-3.92746 3.905735-4.547 6.605896l-4.86436 21.225367c-.60539 2.638519-.20314 5.408407 1.12387 7.765995l1.60494 2.84871c1.18451 2.103943 1.52915 4.568649 1.01168 6.926237-3.79709 17.295378-9.91063 82.169988 22.97456 95.019998 0 0-9.64281-8.37737-14.71435-45.46113-1.50084-10.98052 1.75958-21.94184 8.38553-30.82751 7.41731-9.948761 9.02125-27.211804 9.08896-39.685901.06165-11.086627 5.588-21.508319 14.93063-27.477575.06368-.039411.12634-.078822.189-.119243" fill="#384a66"/><path d="m.60397657 61.7134587c30.62533113-47.0507105 93.42636173-55.56450419 144.16807443-43.4360113 29.43274 7.0343641 57.174629 19.6620634 83.867442 33.6843069 24.218692 12.7216794 47.635923 26.9652311 70.094027 42.5851372 44.498803 30.9467555 85.121684 67.4363205 120.854943 108.1812655 36.181996 41.259309 65.170042 86.751768 91.754713 134.59272 25.985344 46.762707 54.503427 94.328793 102.662878 121.149517 46.600996 25.953681 102.735645 31.140779 154.56686 21.177872 56.307474-10.822876 107.876926-39.475708 153.245915-73.679432 45.072863-33.979384 84.570871-80.53392 142.551001-91.432587 56.34285-10.591462 114.0875 11.113912 162.86042 37.701201 54.53577 29.731077 105.0612 68.044665 153.25299 107.020156 12.20991 9.87499 24.2571 19.948046 36.16482 30.18683 5.88917 5.063813 14.50514-3.476255 8.57452-8.575437-48.75877-41.922223-100.023-81.662692-154.08174-116.554593-47.9563-30.95282-101.76338-58.240413-159.39988-63.654882-27.6954-2.601129-55.90927.811463-81.68743 11.479726-26.45935 10.950204-48.858832 28.98732-70.484144 47.380146-45.111268 38.367147-92.39851 74.673803-148.495764 95.483839-52.323412 19.41145-110.743187 24.131679-163.953967 5.200235-26.450252-9.411152-49.934187-24.942131-69.165221-45.362099-19.40487-20.603886-34.268798-44.91443-48.175621-69.42304-13.672348-24.098331-26.649354-48.561467-41.672968-71.867535-14.687061-22.78463-30.795124-44.660785-48.106895-65.522359-35.291596-42.527536-75.829582-80.560194-120.315245-113.3370364-45.325531-33.3973137-95.944952-63.7033878-149.516542-81.7051351-50.873099-17.09428303-110.3854089-18.67476652-154.7083545 15.7351077-4.8603134 3.7733538-10.74443586 8.278338-14.85483193 12.7600799" fill="#fff"/><g fill="#030c1a"><path d="m1406.04067 452.765091-11.79149 25.263483 4.96138 3.487371 11.06886-3.487371 11.76016-13.896937z"/><path d="m491.989283 279.141846c-14.806696-23.270112-31.046988-45.611402-48.499775-66.915506-35.579068-43.431764-76.44726-82.273079-121.295287-115.7478606-45.693716-34.1063813-96.725464-65.0578603-150.733427-83.4413319-51.288512-17.45774471-111.285586-19.07286474-155.9685505 16.0696702-4.9009226 3.8535835-10.831956 8.4543535-14.9758338 13.032419v20.6611521c.29650073-.4623475.61643621-.8957982.91905035-1.3509215v1.657433c30.87377455-48.0500788 94.18737735-56.74489428 145.34139395-44.3595553 7.199567 1.7430912 14.297244 3.8288149 21.306277 6.1828652 21.543681 7.3201574 42.230465 17.2172827 62.325267 27.9111317 24.414949 12.993202 48.023947 27.5385705 70.664987 43.4895578 44.861272 31.6057833 85.815052 68.8711953 121.838362 110.4824663 22.470883 25.955443 42.182577 53.557999 60.277272 82.345321 4.142859-1.388075 8.272472-2.804014 12.38884-4.249882-1.190079-1.925759-2.373025-3.855647-3.588576-5.766959"/><path d="m1126.8331 677.071673c10.93545-3.80367 24.39556-18.722262 28.83442-23.905318 1.00966-1.178289 2.34273-2.030174 3.83246-2.461674l27.9036-8.100483s4.56621 4.140179 4.25896 7.830669l-4.63392-3.032629c-1.2593-.822579-2.80764-1.073192-4.26099-.687166l-6.00843 1.59362c-1.57362.418363-3.02898 1.200521-4.24583 2.283819l-3.40798 3.036671c-2.68737 2.392957-6.20349 3.52274-9.68828 3.228673-2.45189-.207161-4.83707.846832-6.51074 2.649634-5.85987 6.309807-18.71661 19.008244-26.07327 17.564184"/></g></g></g></svg>