<svg xmlns="http://www.w3.org/2000/svg" xmlns:xlink="http://www.w3.org/1999/xlink" viewBox="0 0 1234 616"><linearGradient id="a" x1="99.243298%" x2="1.394317%" y1="67.745061%" y2="36.934896%"><stop offset="0" stop-color="#1c2f57"/><stop offset="1"/></linearGradient><mask id="b" fill="#fff"><path d="m0 .029574h65.8188v72.152065h-65.8188z" fill="#fff" fill-rule="evenodd"/></mask><mask id="c" fill="#fff"><path d="m5.0045.26071162-1.952 6.23506092c.356-1.54375304 1.6355-2.6751714 2.846-3.69700081 1.6885-1.42465638 3.7405-2.94489033 5.8905-2.43847928 1.9635.46287571 3.128 2.41896344 4.1895 4.13685783 1.9025 3.08050041 4.699 6.21354342 8.3175 6.20653782 2.5105-.0045037 4.7515-1.55926568 6.563-3.29867754 1.8115-1.73841105 3.412-3.74904305 5.55-5.06461088.807-.49690334 1.7135-.89322503 2.661-.89272462 2.177.00200163 3.7625 1.98461089 5.002 3.77556458 1.4695 2.12272299 2.9395 4.24594639 4.409 6.36967016.7895 1.1399253 1.599 2.3008676 2.7105 3.1295402 1.1115.8286727 2.5995 1.280039 3.9085.8246694-3.3495 1.866515-7.315 3.7800683-10.846 2.2868562-2.3955-1.0128221-4.6895-3.5368708-7.0755-2.5030317-.8085.349784-1.394 1.0598603-1.961 1.7349083-2.6285 3.1300406-5.5675 6.0534134-9.044 8.2006563-1.428.8817157-3.031 1.6488384-4.7065 1.5472559-2.2795-.1381121-4.129-1.8154736-5.774-3.3997595-1.352-1.3020569-2.7035-2.6036133-4.055-3.9046694-.685-.6600357-1.435-1.3520975-2.3755-1.488208-1.2905-.1861511-2.4565.7220861-3.4445 1.5742779-1.69 1.4571827-4.818 6.5908497-5.0695 4.3720487" fill="#fff" fill-rule="evenodd"/></mask><g fill="none" fill-rule="evenodd"><path d="m586.03735 338.452618c-2.822-.917745-5.5535-1.140426-7.6525-.76412l-.0075-.004504-.003.007006c-1.9195.346281-3.309 1.193969-3.73 2.490521-.3545 1.090385.0355 2.327389.968 3.532368l-1.205 2.629134 17.2885 6.038901 2.5415-5.826729c.882-2.714203-2.7895-6.342148-8.2-8.102577" fill="#ff5050"/><path d="m819.20045 312.334218c0-4.474132-3.861-8.338268-4.6735-9.558759-.813-1.21999-5.803-8.593975-5.803-8.593975s-.1875-12.440598-2.1085-19.145541c-1.921-6.705442-7.2615-8.861692-10.6815-10.362411-2.8995-1.272032-8.3575-9.519226-9.9525-12.001241-.292-.454869-.75-.775629-1.2755-.898729l-.1355-.032026c-1.1095-.259711-2.237.417839-2.4985 1.52824-.4335 1.839994.6205 4.074808.9665 4.738847-.27-.434853-1.07-1.350597-2.518-.086571-1.8275 1.593794.6085 4.172887.6085 4.172887s-.6005.31926-.6005 1.42866c0 1.109901 7.67 9.341082 7.67 9.341082l.3695 6.011379-9.333-7.768805c-3.7425-2.122223-5.506-.368299-6.257.996308-.342.621004-.184 1.40464.368 1.850002 3.453 2.787262 6.998 8.621498 6.998 8.621498 2.8645 7.30643 8.4085 11.375733 9.0555 12.299984.647.925251.2775 1.665351-.1845 3.884653-.4625 2.219301.277 4.716328.277 6.011379 0 1.294551-.1845 4.808903-.1845 5.641079 0 .832175 2.2175 2.497027 2.2175 3.237127 0 .739601-1.4785 2.126727-1.4785 2.126727-1.386 8.508406 2.4955 10.173257 3.0495 11.005433.5545.832175.647 3.051977.647 3.051977-3.604 1.849501 0 9.063357 0 9.063357-3.2345-1.295052-.7705 1.2325-4.7605 1.2325-3.9895 0-12.967 4.242444-18.204 4.491646-2.677.127603-8.677 1.755425-13.9035 3.316191.8985-2.820789 1.265-6.219047-1.515-7.448045.7355-3.21511 1.1285-6.575838 1.1285-10.036146 0-23.030694-17.2875-41.701349-38.612-41.701349-21.325 0-38.6125 18.670655-38.6125 41.701349 0 10.186768 3.3845 19.519343 9.0025 26.761722l-.003.0005s-3.4495 3.699003-1.563 8.26621c-1.886.682554-3.3995 1.291548-3.3995 1.291548s-4.125 3.589914-9.147 3.589914-10.9405 3.76956-12.5545 4.307997c-1.6145.538437-8.9675 2.333394-9.8645 3.589914-.8965 1.25652-6.277 1.076874-9.326 1.076874s-6.636 1.077374-8.25 1.794957c-1.6145.718083-7.1745 3.589914-8.0715 3.589914-.8965 0-3.5865-1.615311-5.0215-2.333394-1.435-.717583-7.174-6.640891-10.223-7.538619-3.0485-.897729-5.9185-2.333394-5.9185-2.333394s-6.636-3.410769-7.8915-3.410769-3.2285-6.102953-3.2285-8.615993c0-2.51254.1795-12.026262.1795-12.026262s-6.098-8.256702-8.071-8.795139-9.6845-.718083-10.4025-.718083c-.717 0-2.69 4.487143-2.69 5.205726 0 .717582-1.076.897228-1.435 1.435665-.3585.538437-1.2555 3.410268-1.7935 4.487643-.538 1.076874-1.7935 1.435665-1.9725 2.871831-.1795 1.435665.538 6.821036.538 8.256702 0 1.436165 14.7065 19.385735 14.7065 19.385735l.897 4.307997s4.484 6.282099 5.7395 8.974784c1.255 2.692686 6.815 7.180328 9.505 9.872514 2.6905 2.692685 6.995 4.487142 6.995 4.487142s7.174 4.846934 11.299 5.384871c4.125.538437 1.435 3.590414 9.3265 3.590414s41.6095-8.436348 41.6095-8.436348l3.408 1.974103s-2.6905 17.770424-2.6905 19.924172c0 2.154248 2.1525 4.487642 1.614 5.205725-.538.717583-5.9185 4.128351-6.5595 6.821037-.6405 2.692185-5.816 6.820536-16.756 7.359473-10.9405.538437-35.332 8.795139-44.479 10.231305-9.147 1.435665-12.017 5.205225-16.5005 5.384871-4.484.179145-6.098 3.050976-8.9675 7.179327-2.8695 4.128852-13.9895 53.849709-13.9895 53.849709s-1.7935 13.282282-1.7935 14.359656c0 1.076874-.5385 11.66697-.5385 15.257384 0 3.589914.897 5.384871.897 5.384871s-9.864 17.052341-14.348 20.642255-21.5225 6.640891-30.1315 5.923308c-8.6085-.718083-8.6085 3.948705-8.6085 3.948705h-1.7935l-1.4345 5.38337c11.4785 5.922307 24.7505 9.155932 24.7505 9.155932 13.451-.538437 23.674.359291 23.674.359291l2.6905 3.589914 18.6525 3.050977s2.152-12.564199 2.152-13.820719c0-1.25702 1.2555-3.769559 1.6145-6.64139.3585-2.872332-.359-5.02608 0-7.359474.3585-2.333394 0-4.846434 0-7.011691 0-2.164757 1.9725-4.655779 1.9725-7.52761s4.125-5.744163 4.125-5.744163 5.2015-3.769559 5.919-8.615493c.7175-4.846934 5.201-8.077556 8.25-11.487824 3.049-3.410769 4.484-7.180329 6.4565-15.43703 1.9735-8.256702 10.9405-15.257385 11.12-15.795321.1795-.538938 12.5545-6.462746 17.7555-7.898411 5.202-1.436166 17.218-4.128351 20.0875-4.487143 2.8695-.359291 8.968-3.410768 16.3215-3.410768s21.3425-1.435665 21.3425-1.435665l.7175 10.41095s.897 8.795139.897 13.282782c0 4.487142.8965 12.385052.8965 15.79532 0 3.410269 4.125 7.538619 4.4835 12.923991.359 5.384871-2.3315 12.205907-4.663 12.026261s-6.9945 1.436166-8.9675 1.974603-4.4835 5.923308-4.4835 5.923308c-3.0495 19.745027 6.023 22.078421 6.023 22.078421 10.1485 1.615311 11.553 4.307496 11.553 4.307496l-1.076 4.666788c0 2.692686 9.506 8.615994 9.506 8.615994 14.527 1.974602 16.3205-7.000182 16.3205-7.000182 1.973-10.051659-.8965-20.282964-.8965-22.077921s-1.076-10.41095-1.076-13.282781 1.2555-12.565199 1.4345-14.001365c.1795-1.435665 3.4075-3.948205 6.2775-7.718265 2.8695-3.76956 7.8915-24.59096 8.2505-27.462791.358-2.872332 2.8695-9.693368 3.0485-12.026762.1795-2.333394.7175-4.845933 1.7935-5.923308.404-.403828 1.222-.618502 2.0865-.729092 3.0715-.392819 5.7705-2.297865 7.2415-5.024578 7.249-13.435405 5.2045-43.830577 5.2045-43.830577l-1.6255-7.320942s4.877-6.101453 4.877-11.59241 4.877-7.524607 6.5025-12.405569 7.112-21.761163 7.112-24.811139c0-3.050976.407-10.982414 1.829-11.18608 1.4225-.203165 23.978-9.965088 27.0265-11.591909 3.048-1.62682 4.877-2.237316 8.1285-3.864136 3.251-1.626821 7.5185-5.694122 7.925-10.778749.406-5.084127 3.6575-16.066041 3.6575-18.506522s-3.2515-21.151168-3.2515-25.624799" fill="#384a66"/><path d="m670.8025 436.520018c-.0225-.065553-.049-.131607-.0725-.19716.0275.060549.0545.120598.0815.180647-.003.005504-.006.010508-.009.016513m78.2075-93.106573c-2.9045 1.166947-6.697 2.355412-10.9685 3.520357-.7925.216176-1.363-.758115-.787-1.344591 1.5035-1.529242 2.5725-3.113527 3.8215-4.709823 5.285-6.754983 6.7465-20.264449-1.412-28.193885s1.412-15.568637 1.412-15.568637c-12.322-9.401131-23.2-8.36529-23.2-8.36529-20.8485.148121-30.113 15.602665-30.114 15.603666 0 0-9.743 10.391434-8.437 30.748458 0 0 .0205-.659035.1115-1.787451 1.02 14.229049 8.827 23.899399 8.827 23.899399-3.361 3.144052-2.3565 6.526797-1.811 7.769806l-1.797 1.019328c-.718.40683-1.4105.859698-2.056 1.374115-1.3605 1.08438-4.566 3.223617-8.4455 2.983922-3.8815-.240195-9.007 2.305872-11.3235 3.591916-.8355.463376-1.7245.81366-2.6535 1.03484-2.34.557452-6.896 1.792955-8.442 3.271155 0 0-1.8575 1.251015-10.593 1.057858-5.7325-.126102-10.4245 2.240819-12.973 3.882652-1.4385.927253-3.2405 1.097891-4.806.40633-1.7395-.767623-3.7-1.76193-3.873-2.405453-.3155-1.175954-7.8305-6.318628-7.8305-6.318628s-15.578-7.967468-16.206-5.645583c-1.185 4.384559-3.14 8.604985-6.26 11.917173-.3115.330769-.4955.784637-.408 1.229998.1315.668543.754.801651 1.2985.801151 3.3085-.002502 5.706-3.232124 8.8805-4.161378.3485-.102583.744-.170638 1.059.008507s.4585.551448.56.89923c.7035 2.419964.6805 5.382369 2.7135 6.869576 2.2685 1.659347 5.5065.305748 8.2335.980295 3.1055.767624 4.996 3.988738 7.9205 5.28529 2.506 1.111403 5.4415.655032 8.009-.303746 2.568-.958278 4.9465-2.388439 7.5445-3.262148 3.9245-1.319071 8.287-1.295051 12.196.068556 1.452.50591 2.963 1.202476 4.463.8632.9315-.210671 1.7245-.798147 2.5195-1.328578 3.911-2.611119 8.555-4.109335 13.2535-4.276972 1.1555-.041033 2.3285-.005504 3.449-.290736 2.438-.621004 4.432-2.708198 6.9465-2.806277l.0255-.000501c1.289-.047038 2.2055 1.228998 1.76 2.439981-3.8855 10.557069-7.2495 21.306794-10.0675 32.198135-1.2785 4.942511-2.44 10.212789-.8975 15.079239.475 1.498717 1.2015 2.978418 1.885 4.454116-.3055.231688-4.063 3.092009-5.0295 4.360539-1.007 1.322073-1.518 1.683867-2.41 4.147366 0 0-2.5765 2.981921-6.5265 4.083815-3.9505 1.101895-9.8525 1.471695-12.3385 1.856007-2.485.383811-6.8955.606992-7.9315.930755-1.036.324263-3.278 1.328078-3.6465 1.409144-.3685.081566-21.5455 5.720143-21.5455 5.720143l-7.5765 1.684867s-4.5495.194658-8.4595 2.333394c-3.9095 2.139237-5.9525 2.657157-5.9525 2.657157s-2.494.876712-3.9495.698067c-1.4555-.179146-3.693 1.111902-5.78 4.092322-2.087 2.979918-4.677 4.802398-4.677 6.422713 0 1.619815.177 3.246135.056 3.664474-.121.41834-2.776 9.946073-4.0065 12.084809-1.23 2.138736-.777 3.823604-.777 3.823604s-2.2015 10.823785-3.044 12.314996c-.8415 1.490209-.906 2.462999-.906 3.175577 0 .713079-1.238 7.349466-1.44 8.56195-.2015 1.212484-2.7565 2.717206-2.019 4.749355.7365 2.032149-1.367 10.486512-1.212 13.439409.1555 2.952396-.2015 7.881397-.2015 7.881397s-1.598 11.823097.7155 15.713254l6.9065 5.011068s13.6375-13.479442 11.355-21.763666c-2.2835-8.283223-1.166-6.951642 0-15.210846 1.1655-8.259204 9.4425-20.68479 9.4425-24.826652v-16.929241c1.5445.608994 2.957 1.743916 4.433 2.579594.604.341777 1.2705.646024 1.962.59198.691-.053543 1.389-.584474 1.4005-1.278037.016-.957277-1.158-1.973602-.5065-2.674671.1765-.190154.4415-.266216.6955-.322762 1.507-.33227 3.1425-.25871 4.493-1.006317.3135-.174141.635-.447363.628-.806154-.007-.376806-.368-.638518-.698-.820666-.9575-.52993-1.987-.919747-3.049-1.178457 1.5185-.822668 2.971-1.912552 4.128-3.360728 4.509-5.640578 13.8085-7.89691 17.4725-7.89691s20.009-6.768994 20.854-6.768994c.846 0 2.537-4.513163 7.8915-4.513163s16.0635-9.307055 16.0635-9.307055 2.2785-1.755925 4.0405-4.62075c2.184-.92425 4.494-1.553261 6.8475-1.848501 2.988-.374303 6.2645-.304247 8.643-2.153247.21-.163633.4285-.383311.404-.648527-.0195-.208669-.1855-.3698-.343-.507912-.9935-.872208-2.0805-1.63883-3.2355-2.282353-.638-.355788-1.336-.711077-1.681-1.3556-.2555-.477888-.269-1.029836-.199-1.57678 2.5925-4.857943 4.485-10.689176 8.6985-14.112455 3.9495-3.209104 9.3865-3.826606 13.8405-6.286102s7.788-8.795639 4.2875-12.490138c-.9355-.987302-2.2415-1.620816-2.985-2.760741-1.36-2.087695-.271-4.934005 1.337-6.836549 1.6085-1.903545 3.731-3.432786 4.8135-5.677108 2.139-4.435601-.5265-9.567766-1.0205-14.468244-.024-.235691-.0415-.471382-.054-.707074-.305-5.828231 3.6755-11.016442 9.2945-12.579711 17.6975-4.923996 27.3745-11.830102 31.7185-15.697741.6035-.536936.0005-1.50322-.749-1.202476" fill="#fff"/><path d="m682.30345 314.965754s4.4085-7.316439 17.6025-9.865007c14.365-2.775253 29.1255 2.32839 39.0115 13.122151.48.524425.7465 1.209982.7465 1.92156v10.033644c0 .812659-.2465 1.603301-.7125 2.268841-2.058 2.941388-8.777 11.080494-22.762 15.767799-11.6615 3.908672-24.514 2.074684-34.3545-5.307308-.366-.274723-.7325-.557953-1.1005-.85019 0 0-5.0285-16.513404 1.569-27.09149" fill="#030c1a"/><path d="m320.7473 144.223164c.8985-1.625319 2.388-2.887844 4.204-3.268653 5.5625-1.166947 8.351 6.118466 13.4675 6.524796 4.275.339276 7.905-4.360539 12.121-3.574401 3.346.623506 5.0325 4.270967 6.5205 7.334954 1.4875 3.064487 4.2205 6.417709 7.542 5.670602 1.5775-.354788 2.7885-1.581283 4.183-2.399447 2.482-1.456683 5.68-1.455181 8.2635-.225683 1.758.837179 3.8915.223181 4.9905-1.385125 1.5545-2.275347 3.3395-4.366544 5.6335-5.855252l.02-.013011c1.365-.883717 2.159-2.443984 2.023-4.0653-.0585-.695064-.143-1.388126-.2575-2.078687-1.4-8.405322-6.979-15.544617-9.204-23.770294-1.949-7.202346-1.2665-15.025696-3.997-21.9688318-3.3365-8.4828855-11.6255-15.46155-11.068-24.5609358 0 0-10.9865 1.0063168-13.457 1.9700991-2.4715.9642827-6.6445 2.5705865-6.6445 4.1768903 0 1.6068042-3.622 7.0682372-2.774 8.3532803.848 1.2855434 6.6265 8.3537806 6.6265 10.9238667 0 2.5700862 2.6945 9.3170622 2.792 10.2808452.077.767623.0315 4.383558.0095 5.826729-1.242-1.623317-2.669-3.104019-4.0925-4.574713-.8905-.919747-1.836-1.874021-3.06-2.245823-.1835-.055545-.372-.097079-.5605-.137111-.9125-.803152-1.8815-1.619815-2.884-2.425969-.673-1.435165-2.1215-4.007253-4.205-4.9009785-.137-.0585475-.433-.1736409-.8735-.3382745-.3295-.1516231-.667-.2787263-1.0125-.3753047-12.3475-4.5406856-78.564-27.9511876-78.564-27.9511876-8.845-3.7940796-21.902 1.4751974-22.534 1.4751974s-8.003 5.269277-9.2665 5.479948c-1.264.210671-6.95 4.637264-9.477 5.479948-2.5275.8431844-15.1885 7.2203607-15.1885 7.2203607s-12.1335 4.5236718-13.2035 4.5236718c-1.071 0-6.305 3.6904955-7.97 3.8095922-1.6655.1195971-3.4495 2.5000292-4.0445 2.613121-.5945.1130918-1.5465.2441982-2.379.0145118-.833-.2296864-3.9255 2.3724254-4.758 2.3724254s-7.3095 4.892972-8.6795 4.892972-3.5615 1.234001-4.315 1.165446c-.753-.068556-5.479-2.330392-5.479-2.330392l-6.026-5.483451-4.452-.6170004c-3.082.6170004-3.767 3.0159484-3.767 3.6329484 0 .616501 2.74 2.535559 2.74 2.535559s-3.5615-.616501-4.589-.822168-2.123 1.234002-2.4655 1.781947c-.342.548445-1.6435 3.77006-1.712 4.057293-.0075.032026-.0365.056546-.0815.075561-1.173.494401-2.1785 1.308062-2.584 2.515542-.7 2.085693-1.757 4.973037-2.8135 6.877082-1.8195 3.27666-2.1835 10.559571 1.455 10.924367 3.6385.363796 4.366-2.913865 4.366-2.913865l8.3685 2.549069 4.73 5.462434s4.0025 4.370047 5.0945 4.370047c1.091 0 11.279 1.092387 14.372 1.092387s10.006 2.549069 12.5525 2.549069c2.5475 0 12.0075-5.82673 14.1905-5.82673 2.1835 0 17.829-7.647207 17.829-7.647207l-1.4555 6.190525s-4.002 11.289163-4.002 15.65871c0 4.370047-17.1015 61.904747-17.1015 61.904747s-6.1855 16.751097-6.1855 20.028757c0 3.27716-2.183 8.739594-5.0935 16.022005-2.911 7.283412-17.829 15.294415-17.829 17.114892 0 1.820978-12.3715 11.288663-12.3715 11.288663l-10.551 14.930119-4.3665 5.826229s-4.7305 7.85988-3.6385 10.560572c3.18 7.861381-4.366 4.369546-9.824 4.369546-5.4575 0-5.094 6.919117-6.1855 8.375799s-17.829 12.744845-19.648 15.658209c-1.8195 2.913365-8.7325 12.38105-10.188 17.114892-1.455 4.733843-11.2795 11.652959-11.643 15.293914-.364 3.641956-11.2795 10.924367-14.1905 13.838233-2.911 2.912864-13.8265 12.380549-13.8265 12.380549s-7.641 9.468185-9.824 9.83198c-2.183.364296-13.826 7.647708-15.282 7.647708-1.455 0-3.638 14.929618-3.638 14.929618s19.284 22.21303 23.286 22.21303c4.0025 0 14.918-6.55482 16.01-8.375298 1.091-1.820978 2.183-11.288663 2.183-12.745345 0-1.456683 5.094-9.467685 6.913-9.83148 1.8195-.364796 11.2795-11.652959 11.2795-11.652959s10.5515-8.011503 16.0095-11.652959c5.4575-3.641455 26.561-15.293913 26.561-15.293913s13.463-1.092887 16.3735-1.092887c2.911 0 11.2795-4.733843 17.465-8.011003s9.0965-9.467685 14.5545-12.016754c5.4575-2.549069 8.732-9.103889 10.5515-13.473936 1.8195-4.369547 8.0045-8.739594 11.643-13.473437 3.639-4.733842 9.8245-9.103389 12.0075-12.016253 2.183-2.913865 7.277-11.289163 7.277-11.289163s1.4555-7.646707 5.0935-10.195776c3.6385-2.54957 4.3665-5.098138 5.822-8.739594s8.3685-10.924868 8.3685-10.924868 8.005 5.098639 8.005 10.924868 4.366 12.016754 4.366 17.114392c0 5.098638-3.6385 21.120643-3.6385 26.947372 0 5.82673-.7275 7.647208-3.2745 7.647208-2.5475 0-6.5495 5.098138-7.2775 7.646706-.7275 2.549069-5.0935 5.462434-10.9155 8.375799-5.8215 2.912864-5.108 11.446791-9.838 15.087746-4.73 3.641456-5.8075 4.211919-11.629 7.124783-5.822 2.913866-10.9155 12.38155-12.007 15.294415-1.092 2.913365-14.1905 12.381049-19.6485 19.299665-5.4575 6.919116-15.2815 10.196276-17.101 12.38105-1.819 2.185273-10.5515 3.641956-10.5515 3.641956s-14.554 6.190525-18.5565 10.924367.7275 14.565823 1.8195 20.027756c1.091 5.462434 10.5515 7.647207 12.3705 11.652959.975 2.145742 1.4275 7.950453 1.6375 12.876952.315 7.386996 3.2505 14.465742 8.4405 19.728013 4.89 4.957023 10.3845 8.074054 15.2115 10.029641 8.5865 3.477823 18.2885-1.844998 19.8605-10.981414.4165-2.421465.607-4.715327.687-6.568331.1075-2.47651-.3765-4.948517-1.445-7.185332-7.8395-16.413823-3.2765-25.546736-3.2765-25.546736 2.911-9.467685 40.0235-31.316419 41.479-31.680715 1.456-.364296 10.916-2.185274 15.282-2.185274s17.101-12.380549 20.376-13.837231c3.2745-1.456683 29.108-16.386801 42.5705-34.59408 13.4625-18.207779 12.7345-40.420309 12.7345-43.697469 0-3.27766 1.8195-18.207779.364-44.42606-1.455-26.218781-8.0045-44.790356-8.0045-46.247038 0-1.456182 3.2745-14.930119 3.2745-16.750596 0-1.820978 6.549-15.65871 6.549-20.392553 0-4.733842 5.0945-13.837231 5.458-15.293914.364-1.456682 3.639-5.826729 5.458-10.924367 1.819-5.098138 4.366-13.109641 4.366-13.109641s4.8175-12.055285 5.876-19.834099c-.603-3.577404-1.081-7.29392.7685-10.640637" fill="#384a66"/><path d="m581.49245 359.416384c-4.5195-1.147932-8.6515-.232188-9.229 2.04516l-.4645 1.832488.861.219177c.996 1.696377 3.5305 3.334707 6.7415 4.149368 3.2115.815662 6.22.584975 7.9035-.430849l.861.219178.4645-1.832988c.578-2.277349-2.6185-5.054103-7.138-6.201534" fill="#ff5050"/><path d="m249.4573 67.1322905-21.8275-6.8655727c-2.56-.8051535-5.295.5789699-6.1645 3.1195321l-50.914 148.7332251c-.4285 1.251516.2335 2.614622 1.4815 3.050476l83.233 36.166356c4.1155 1.788451 8.8865-.255207 10.4345-4.469128l51.803-140.980932c1.2815-3.488332-.327-7.377989-3.6975-8.9397567z" fill="#384a66"/><path d="m130.62525 110.829359c1.2405 3.980731 5.0315 6.958648 9.132 7.488078 1.161.149621 1.915 1.270031 1.6265 2.405452-.386 1.518733-.514 3.10402-.3845 4.666788.1375 1.657346 2.345 2.152748 3.134.68956 1.398-2.595106 3.1295-5.010567 5.137-7.168819 1.2405-1.333582 3.2785-1.450177 4.7525-.379808 1.4605 1.060361 3.5685 1.422655 5.362.938261 2.834-.767122 5.01-2.980419 7.028-5.114151 1.204-1.273533 2.454-2.582095 3.8655-3.605926 1.33-.965284 3.226-.334772 3.688 1.243008.882 3.012946 2.6715 5.735656 5.6835 5.051601.736-.167136 1.4155-.531432 2.002-1.006317 3.6715-2.971912 6.812-6.599357 9.2275-10.660653.495-.832676 1.376-1.405141 2.3425-1.365108 2.386.098079 2.1655 3.557888 4.007 4.63226 3.219 1.878024 6.6575-5.523984 9.7245-3.408267 4.3815-7.7943263 10.4485-19.1895757 11.4995-28.0707845-6.7975 5.1206564-17.966 11.2171048-25.802 14.5342974-2.031.8591974-4.7745.5049098-6.8055 1.3646076-2.384 1.0093193-3.829 2.7332185-6.2125 3.7430382-.5995.2527051-1.5075.2186775-2.138.4838928-5.1215 2.1562502-10.982 5.4374135-13.87 7.2789085-.676.430849-1.765 1.016325-2.561 1.570775-.623.433852-1.608.814661-2.074.91174-1.011.210671-3.034.77713-4.315 1.165446-.5795.175642-.9275-.359792-1.5225-.524426-.755-.208669-2.2305-.839682-3.9565-1.805966-1.042-.583473-1.8525-1.689872-2.537-2.307873-1.4815-1.338587-2.4855-2.457495-3.4895-3.175578l-4.4515-.6165001c-1.518.3052481-3.2865 1.2770361-3.7675 3.6324481-.0865.426847 1.447 2.207792 2.74 2.536059-1.1425.132107-4.3045-1.142928-5.206-.830674-.984.340776-1.9075 1.214485-3.51 5.410891" fill="#fff"/><path d="m266.4475 358.338359c-2.2005-3.2031-4.6555-6.006876-6.95-8.321254-7.3945-7.456553-11.611-17.521222-11.671-28.026749-.0005-.108088-.0005-.216176-.0005-.324263 0-10.821284-1.8025-10.220296 0-16.833164 1.8015-6.613368 6.007-6.613368 0-13.827723-6.0075-7.213856-26.869-9.612303-26.869-9.612303l4.751 6.484764c1.8465 2.520045 3 5.46994 3.3975 8.568955.1455 1.133921.394 2.441482.8095 3.846623.833 2.820289 3.7565 5.920305 3.413 9.139418-.65 6.084439-3.523 13.435405-3.523 19.447785 0 4.561203-1.9515 10.917362-2.8925 13.720137-2.1445.128104-4.6355 4.017261-5.9555 5.714138-.968 1.24401-3.859 7.183331-5.336 7.731776-9.383 3.483828-10.482 6.384682-17.4645 12.908477-1.8145 1.695377-2.899 4.924998-4.5455 6.783507-1.5785 1.782947-4.231 2.010131-6.3835 3.025455-4.7095 2.220803-6.5135 7.814343-8.848 12.471123-7.777 15.519097-24.671 23.733764-38.1615 34.648624-1.422 1.150934-2.9165 2.527051-3.097 4.348529 0 0-5.5955 1.777944-9.6745 2.646649s-12.9145 6.557322-12.9145 6.557823l-5.6415 4.366544s24.239.414837 38.2125 31.363958c.485 1.074372 2.103.617501 1.9465-.551448-.008-.057046-.0155-.114093-.0235-.17214-.285-2.091697 1.0405-4.009754 3.0525-4.644269 1.277-.402827 2.64-1.336085 3.914-3.19059 4.145-6.033397-3.014-9.050346 0-17.723886 1.5345-4.415084 3.163-8.466372 4.3925-11.380238 1.152-2.729715 3.2645-4.939509 5.9355-6.219048l.0385-.018515c1.496-.717082 3.005-1.559766 3.9785-2.903857 1.19-1.642333 1.4105-3.787574 2.298-5.610554 2.747-5.645582 10.3415-6.314625 15.857-9.308055 8.897-4.827919 12.5405-16.144604 21.108-21.537482 4.769-3.001936 11.218-4.38606 13.588-9.501212 1.075-2.319883 1.052-5.005563 1.9285-7.408013.6145-1.683866 2.017-3.294674 3.63-3.809592 1.2745-.407831 2.215-1.487707 2.2905-2.825793.0565-1.015825.935-1.891536 1.952-1.878025 3.2835.043035 6.915 2.624631 9.71.509414 1.342-1.016325 1.8795-2.767747 1.5765-4.424592-.5795-3.172074-3.097-5.117153-5.5005-6.925121 5.332.778632 10.6635 1.557264 15.9955 2.335396 1.6035.23369 2.6025-1.651341 1.5385-2.873833-.61-.700068-1.3455-1.326577-2.2835-1.87302 9.2965 5.343837 15.8265 10.061667 12.4215 5.105644" fill="#fff"/><path d="m588.1643 367.453708c-.578 2.276848-4.7105 3.19109-9.2295 2.041657s-7.714-3.927188-7.1355-6.204036c.578-2.277348 4.71-3.19109 9.2295-2.041657 4.5195 1.148933 7.714 3.926687 7.1355 6.204036" fill="#ff5050"/><path d="m587.2888 367.230877c-.5165 2.03315-4.2065 2.849313-8.242 1.82348-4.0355-1.026333-6.8885-3.506846-6.3725-5.540497.517-2.03315 4.207-2.849813 8.2425-1.82298 4.0355 1.025833 6.888 3.506847 6.372 5.539997" fill="#030c1a"/><path d="m183.0847 221.900964c-.107-.948269-.0895-1.906047.066-2.84681-1.442-.941264-6.048 5.349842-5.62 17.254505.124 3.451301-2.165 9.347087-4.063 12.231428-2.479 3.768559-5.924 8.526921-9.488 11.289664-13.4765 10.444978-25.5825 22.658892-35.91 36.229907-2.165 2.844809-4.29 5.825228-5.2835 9.260016-.477 1.651341-.6485 3.435789-.4365 5.143675.229 1.845999-1.243 3.477823-3.0985 3.37524-1.9635-.109088-3.922.157628-5.7525.904734-2.734 1.116407-5.0945 3.390252-5.8105 6.256579-.2465.987301-.317 2.066177-.921 2.885342-.5715.775629-1.512 1.165946-2.3865 1.568773-13.453 6.199532-21.0135 18.371412-28.038 33.669329-1.694 3.688494-4.2265 2.579594-9.0115 7.951955-2.2145 2.486518-3.295 6.156497-5.5945 8.498398-9.4445 9.617806-18.889 19.235613-28.333 28.85392 4.885 2.164757 10.4625-.371301 15.191-2.860822 7.37-3.88065 14.7405-7.760799 22.1105-11.640949 2.349-1.236003 4.7625-2.524549 6.457-4.568708 1.407-1.696877 2.224-3.80659 3.5115-5.596042 3.4915-4.850938 9.7775-6.625378 14.67-10.057664 5.925-4.156374 9.981-10.906353 16.596-13.842236 5.4245-2.406953 12.2215-2.074183 16.4885-6.201033 2.457-2.376929 3.553-5.793703 5.35-8.702564 1.7965-2.909361 5.02-5.548003 8.3315-4.703317.752.153624 1.43-.451867 1.3925-1.21949-.033-.679051-.1585-1.345592-.3575-1.997622-.931-3.05598-1.518-6.206037-1.7375-9.392624l-.4765-6.903603c-.2585-3.749544-.0055-8.424338 3.406-9.996614 1.3015-.599487 2.9075-.620504 3.9475-1.607805 1.8195-1.726902.561-4.719831.592-7.228868.052-4.165881 3.8705-7.15831 7.3165-9.494707 6.3645-4.316003 12.73-8.632006 19.0945-12.948009 1.431-.970288 2.8935-1.971601 3.889-3.386249 1.076-1.529241 1.5105-3.407766 1.8865-5.240253 3.027-14.748972 3.711-29.976332 2.022-44.937476" fill="#fff"/><path d="m364.30445 74.1795106c14.923-3.5323671 29.8485-7.6907424 44.9475-10.3939366 13.567-2.4289716 28.333-2.0076296 38.5075 8.5379301 8.295 8.5974785 11.9235 21.1771893 10.9925 32.9417389-1.112 14.043398-7.977 27.049956-16.6405 37.89726-8.953 11.209099-19.9905 20.490632-30.5685 30.092426-9.4345 8.563951-19.4915 17.714879-24.1625 29.905774-4.281 11.175571-3.1905 24.336254 5.929 32.768598 9.06 8.378801 23.0195 12.113332 35.0485 12.831415 12.294.733596 24.7185-2.60011 33.8595-11.116523 7.707-7.180328 14.096-19.728013 9.9425-30.317608-3.5035-8.932251-14.1225-13.474437-23.2195-11.77706-11.5435 2.153748-20.04 12.283971-24.57 22.538795-9.668 21.883763-4.4085 48.88568 12.213 65.922008 8.232 8.438349 18.8715 14.446226 30.2545 17.425144 5.439 1.422654 11.069 2.159252 16.6915 2.147743 7.104-.015513 14.1365-1.430661 21.245-1.291048 7.0915.140114 13.673 2.300868 18.8315 7.265898 4.477 4.309998 7.5395 9.973595 9.36 15.877387 4.5535 14.767487.7675 29.808195-.0885 44.765336-.357 6.240065 1.359 11.512844 6.2045 15.633689 4.0495 3.444296 9.1915 5.403386 14.4735 5.800709 5.4365.409332 11.0175-.89873 15.6065-3.871142 4.063-2.631637 8.5115-5.873268 10.973-10.140231 2.2975-3.981732 2.0725-8.41433.741-12.680793-.291-.932257-1.76-.534434-1.467.404829 1.7095 5.477446 1.031 10.395938-2.9685 14.630375-3.672 3.888656-8.6285 7.560637-13.77 9.142921-11.63 3.579405-28.008-2.514041-28.3325-16.326252-.168-7.155808 1.439-14.420705 2.0015-21.546989.538-6.816033.6365-13.716133-.5355-20.474619-1.743-10.056663-6.859-20.358025-15.73-25.905527-11.1435-6.969157-24.3395-2.840806-36.5445-2.807279-11.754.032026-23.4845-3.290171-33.5375-9.371607-20.7605-12.560195-32.1355-36.752331-28.142-60.802853 1.9365-11.664468 7.623-23.629179 17.5195-30.555802 9.1315-6.391187 22.9215-6.471252 29.7455 3.476822 7.1385 10.407448-.3085 24.888702-8.504 32.246174-9.7515 8.754606-23.0665 11.379237-35.814 9.867009-12.0715-1.431161-27.1195-5.882274-34.276-16.529917-7.496-11.150551-3.752-25.754905 3.2875-36.081287 7.4515-10.930872 18.2265-19.411756 27.9515-28.206895 9.473-8.566954 18.799-17.475685 26.0325-28.076289 12.536-18.373914 18.4015-43.6159026 4.287-62.9050593-6.557-8.9607734-16.446-13.6630902-27.453-14.1344728-13.325-.5709635-26.6535 3.6604711-39.481 6.6969358-7.0815 1.6758603-14.164 3.352221-21.2455 5.0280812-.952.2256832-.549 1.6938749.4045 1.4681917" fill="#fffbfc"/><g fill="#fff"><path d="m598.26245 158.602986c-.689-.138112-1.1355-.808656-.998-1.498216s.808-1.136923 1.497-.998811 1.136.808657.9975 1.498216c-.1375.68956-.808 1.136423-1.4965.998811"/><path d="m88.20775 228.846552c-.6885-.138112-1.1355-.808656-.9975-1.498216.1375-.68956.808-1.136923 1.497-.998811.6885.138112 1.1355.808657.9975 1.498216-.1375.68956-.808 1.136423-1.497.998811"/><path d="m8.03685 551.895367c-.689-.137612-1.1355-.808656-.998-1.498216.138-.689059.808-1.136422 1.497-.99831.689.137611 1.136.808656.9975 1.498216-.1375.689059-.8075 1.135922-1.4965.99831"/><path d="m428.98315 483.837725c-.689-.137611-1.1355-.808656-.998-1.497715.138-.68956.808-1.136923 1.497-.998811.689.137612 1.136.808656.998 1.498216s-.808 1.136423-1.497.99831"/><path d="m292.7698 471.305553c-.689-.137611-1.1355-.808656-.998-1.498216.138-.68956.808-1.136422 1.497-.99831.689.137612 1.136.808656.998 1.498216-.138.689059-.808 1.135922-1.497.99831"/><path d="m484.67895 389.673894c0 .70307-.5695 1.273033-1.272 1.273033s-1.272-.569963-1.272-1.273033c0-.703071.5695-1.273034 1.272-1.273034s1.272.569963 1.272 1.273034"/></g><path d="m757.032 420.38287c20.2145 50.230772 44.11 101.61548 88.022 135.517998 19.521 15.072234 42.4785 26.099185 67.074 29.334311 23.117 3.039967 47.431-.969788 67.9455-12.216416 9.9855-5.473944 19.102-12.784377 26.3145-21.622051 7.905-9.686862 13.615-20.806888 17.78-32.563431 8.522-24.057027 10.599-49.742375 15.8615-74.578034 4.471-21.098626 12.9375-42.476478 27.7655-58.492478 6.7515-7.291919 14.9515-13.436906 24.4465-16.612984 10.375-3.469316 21.4675-3.30068 31.833.122599 22.7945 7.52761 39.4575 28.049267 51.896 47.601137 13.0525 20.518655 24.554 42.917336 42.844 59.419731 4.3955 3.965719 10.0905 7.716263 15.1655 10.764237v-8.459867c-20.9505-12.582713-31.0765-32.227158-43.5115-52.558661-12.7195-20.797882-26.269-41.718863-46.976-55.444504-9.782-6.484263-21.0205-10.815779-32.802-11.441787-10.68-.568461-21.379 2.087194-30.7 7.290418-18.772 10.480006-31.1285 29.771665-39.097 49.199935-9.1785 22.377163-11.423 46.632851-15.9565 70.193475-4.5945 23.87688-11.602 48.47985-29.209 66.194729-15.991 16.08906-38.3995 24.826652-60.8165 26.404933-23.9125 1.682866-47.349-4.89147-67.9925-16.820653-46.863-27.082483-74.202-75.90361-94.809-124.204816-2.692-6.309121-5.285-12.659776-7.846-19.022941-.753-1.872019-2.504-3.212607-4.613-2.621627-1.779.498904-3.3825 2.719207-2.619 4.616747" fill="#384a66"/><path d="m341.76295 81.074257s3.5865 5.0145703 7.5085 6.6063623c3.921 1.5922925 10.539.3657969 10.784 4.2904826.245 3.9246856-2.451 9.1604351-2.206 11.4482921.152 1.415649.491 4.771874.7275 7.126285.1675 1.665852.673 3.27716 1.4855 4.740347l1.2185 2.196283s-3.8825-4.347529-9.539-5.362853l-.01-5.826729s-2.758-7.9549574-2.792-10.2803449l-1.168-3.0694914s-13.126-8.330762-12.965-10.8142779z" fill="#fffbfc"/><path d="m140.218 425.883935s6.694 15.236868 31.873 32.725563c0 0-8.365 7.716263-6.9005 17.164432 1.465 9.448169 10.375 29.144657 10.375 29.144657l-23.106 24.82515-23.552-16.048527-12.277-26.580074-11.5255-19.558876v-24.072039z" fill="#030c1a"/><path d="m153.3054 472.30001c-.62-1.288545-.208-2.840305.972-3.64696 4.8305-3.30168 2.58-8.581465 2.58-8.581465-3.119-6.983168 0-13.61305 0-13.61305l-16.6395-20.5747c-3.4565 1.723899-3.097 4.34853-3.097 4.34853s-3.1245.944266-11.0315 3.167571c-7.906 2.222804-17.199 10.403444-17.199 10.403444 19.075 2.099704 30.2125 16.740088 35.1475 25.256 1.8575 3.205102 3.9355 6.280097 6.3515 9.087376 8.805 10.228302 16.4095 36.190375 16.4095 36.190375.585-11.66697-9.8555-34.477985-13.4935-42.037121" fill="#384a66"/><path d="m119.2512 313.838389s2.542.423344 3.087-2.563581c.545-2.986924.0115-.811158.0115-.811158l-.05-2.441982 1.5085 2.503532s3.3 9.829478 10.849 17.31055c.6145.608494-.0965 1.600299-.8665 1.20698-4.899-2.504032-12.231-7.420023-14.5395-15.204341" fill="#759097"/><path d="m107.68825 320.999952s1.6725 4.537683 1.202 9.913547c0 0-2.0035-.167636-4.5095-5.459432 0 0 3.0795-1.09739 3.3075-4.454115" fill="#759097"/><path d="m215.62085 356.046449s4.473 3.656468 12.47 5.774687c.699.18515.542 1.225495-.18 1.192468-4.327-.199162-10.6675-1.272533-16.3515-5.254765z" fill="#759097"/><path d="m226.91235 342.600485 5.4955 1.397634c.887.225183 1.6635-.654031 1.3175-1.501218-.755-1.845498-2.286-4.59523-5.184-6.607864z" fill="#759097"/><path d="m167.0852 404.888393s9.9335 23.269888 32.939 34.420439l5.651-3.153059s-26.8625-13.422896-33.9755-35.2341z" fill="#030c1a"/><path d="m171.69945 400.921774s-2.953 2.086693-4.617 4.32501c0 0 5.8745 10.969404 8.7395 13.850743 0 0 3.5755-2.223805 4.9825-2.511539 0 0-6.112-6.243067-9.105-15.664214" fill="#384a66"/><path d="m178.37965 391.235211s14.897 33.74389 42.577 42.735688c0 0 3.7855.347782 7.5845-4.054791 0 0-23.2225-1.178457-46.749-45.618528z" fill="#030c1a"/><path d="m196.1736 406.723833s-12.186-17.497703-14.3815-22.426203c0 0-3.154 4.919993-3.4125 6.937631 0 0 7.0015 14.428712 12.8085 20.444595 0 0 4.2365-3.360728 4.9855-4.956023" fill="#384a66"/><path d="m305.53295 3.40576442c-29.0025-9.61780666-45.031 7.72026648-45.031 7.72026648-22.135 18.4905085-13.5695 44.6467392-13.5695 44.6467392-1.598 5.8272299-.9885 8.8596913.2165 10.4279643l-19.5195-5.9338164c-6.1945-.3152559-6.1645 3.1190316-6.1645 3.1190316l-50.9135 148.7337254c-.7745 2.261336 1.4815 3.050476 1.4815 3.050476l11.052 6.730964s10.189-21.372348 10.189-29.668582 6.9085-25.580263 7.671-39.382967c.763-13.803204 17.198-26.296344 19.1055-35.367707 1.9075-9.070863 10.527-18.583084 18.8165-23.4920686s17.961-2.695688 28.4955-5.3748627c7.135-1.8139724 26.791 1.2845426 38.7355 3.4728188 1.0165.1861511 1.4195-1.2625247.454-1.6313241l-23.6395-9.3610983c.4225.0575467-.432-.0455369 0 0 2.1765.2306873 4.5925.3192592 6.312-1.0368416 1.4045-1.1078992 2.0175-2.9644061 2.156-4.749355.426-5.4709407-2.8275-10.442476-5.402-15.2874086-2.5755-4.845433-4.5245-10.9368773-1.6655-15.6196783 2.3415-3.8351129 7.0595-5.317316 10.834-7.7537936 4.7405-3.0599838 7.9925-8.0750545 9.325-13.5479968 1.208-4.9640292 6.794-8.1906483 11.6775-6.7034411 4.224 1.2860439 18.694 8.10658 21.009 43.8856214 0 0 4.288-42.3418684-31.6255-56.87666608" fill="#fffbfc"/><path d="m177.0315 218.419138 81.145 34.497001c1.375.584474 1.163 2.592604-.3025 2.881839-3.199.631513-7.858 1.781947-14.004 3.875146-16.597 5.653088-11.2895-13.089625-23.969-10.486512-12.679 2.603613-20.47 7.481573-22.968-.663038-2.4975-8.144111-8.297-14.134974-11.2435-14.182012-2.946-.046037-8.658-15.922424-8.658-15.922424" fill="#030c1a"/><path d="m325.56225 140.824406c-1.378-2.884342 4.732-2.429973 4.6755-13.877765-.0505-10.036647-1.6975-12.222421-4.098-13.545995-2.35-1.295552-5.31-.540439-6.775 1.709387-6.828 10.487513-10.0405 21.225229-14.4035 33.513703-12.5335 35.294648-25.066 70.589297-37.5985 105.884946 14.336 1.931067 27.912 9.087876 37.613 19.827093 7.254-34.738196 14.5085-69.476893 21.763-104.21509" fill="#030c1a"/><path d="m275.25905 243.334362-7.229 10.143733c-1.0825 1.518233-3.0575 2.105709-4.7925 1.424156l-5.061-1.986612-14.3065 6.757485c7.743-2.24232 17.1225-.256709 23.481 4.702817 3.228 2.517543 5.8755 5.822726 9.4805 7.7613 5.061 2.721709 11.1555 2.330892 16.882 1.868516 3.542-.285732 7.453-.720084 8.9735-4.975538.468-1.310064.557-2.728215.354-4.103831-1.207-8.185144-9.817-12.27046-17.3575-15.166811-3.471-1.333583-6.942-2.666665-10.413-3.999747" fill="#030c1a"/><path d="m45.8308.029574s5.394 15.6221803 19.988 22.5843314l-13.7875 49.5677336h-31.7965l-20.235-42.9838895 13.4025-16.1906418z" fill="#030c1a" mask="url(#b)" transform="translate(0 390.917303)"/><path d="m48.1936 416.741264c-.201-.741102.1685-1.520234.8705-1.830486 2.874-1.26953 2.2025-4.278473 2.2025-4.278473-3.537-5.385871-.0755-9.788445-.0755-9.788445l-5.3625-9.897033c-1.9945.571464-2.062 1.992617-2.062 1.992617s-1.742.191656-6.1345.589979c-4.393.398324-10.1015 3.80659-10.1015 3.80659 9.867 2.980419 14.3145 11.804081 16.0865 16.785124.667 1.874522 1.3625 3.764556 2.4635 5.421401 6.6175 9.956581 4.435 35.231597 4.435 35.231597 5.571-18.121209-1.1415-33.684341-2.322-38.032871" fill="#384a66"/><path d="m67.3313 367.075451s4.286 15.352461 23.9365 27.167551l4.0555-2.349407s-19.142-11.108016-25.2395-27.467294c0 0-1.3025.657033-2.7525 2.64915" fill="#384a66"/><path d="m74.14185 360.948878s6.1595 16.491886 25.8105 28.306976l3.549-2.001624s-20.5095-12.595724-26.607-28.954502c0 0-1.3025.656533-2.7525 2.64915" fill="#384a66"/><path d="m78.17115 383.941191s6.828 7.050723 13.0965 10.301861l4.056-2.349407s-9.8905-6.586846-14.8405-11.861127z" fill="#030c1a"/><path d="m84.1897 376.292883s7.5095 9.295044 15.7625 12.963021l3.549-2.001624s-10.5305-6.62838-15.968-13.082119z" fill="#030c1a"/><path d="m561.88015 561.707081s3.2225 5.056104 19.1905 9.692868c0 0-.231 2.663161-1.5505 5.502966l2.9785 17.187952-6.3305 21.508458-21.658-3.834613-1.999-3.168071-21.9915-.166635-26.3225-10.337391 2.801-5.871266 8.1945-6.80052 36.652-9.837985z" fill="#030c1a"/><path d="m553.98855 607.119892h3.7555l2.6265 4.193904-3.6915-.60399z" fill="#384a66"/><path d="m568.7864 566.717948-6.9065-5.011067-9.667 15.152799c-5.519 7.918928-8.865 7.608676-8.865 7.608676-9.354 3.866138-24.6705 3.88115-24.6705 3.88115-5.1855-.598986-7.384.597986-7.384.597986l-1.835 1.560767-.804 1.323574c-.6325.148621-.7665.993306-.2065 1.324075 2.9225 1.725901 10.428 5.472942 23.978 8.034021.2125.040032.301-.264215.099-.340276 0 0-9.4375-2.3409-10.711-4.085817-.442-.605491.898-.174141 1.634-.079564 4.958.637017 8.2885-.395321 13.232-1.138424 4.3885-.659536 8.777-1.319071 13.1655-1.979107 1.8535-.278226 3.842-.622505 5.168-1.947581 1.0975-1.09689 1.538-2.669166 2.28-4.032273 2.066-3.798583 6.458-5.934817 8.3875-9.804958 1.8325-3.673982.254-6.666912 3.1055-11.063981" fill="#384a66"/><path d="m574.7146 476.298406s7.7955 3.737033 12.262 6.996679c.506.3698.0335 1.151935-.5295.877212-3.347-1.630824-8.5035-3.914678-11.677-4.209417z" fill="#759097"/><path d="m585.17165 465.783021 7.38 3.778567c.5075.25971 1.0495-.277225.7985-.789641-.8215-1.677362-2.3495-4.076809-4.2295-3.686993-2.849.59098-3.949.698067-3.949.698067" fill="#759097"/><path d="m561.36595 538.112229s12.687 12.355029 30.867 15.266392l2.2285-2.731717s-20.606-4.268465-32.802-16.078051c0 0-.533 2.544566-.2935 3.543376" fill="#384a66"/><path d="m579.9861 549.86592s7.655 2.885342 12.247 3.512851l2.2285-2.731717s-5.1875-.688059-14.1035-4.513164c0 0 .2105 1.939575-.372 3.73203" fill="#030c1a"/><path d="m562.41285 529.510998s15.8925 12.77637 36.9515 16.041521l2.2375-3.062486s-19.595-2.238317-38.8675-16.59497z" fill="#384a66"/><path d="m579.1057 535.572068s-.39 2.545566-.228 3.680487c0 0 12.809 5.662096 20.487 6.299613 0 0 1.433-1.553761 2.237-3.062485 0 0-15.762-2.774252-22.496-6.917615" fill="#030c1a"/><path d="m792.52515 326.217587s3.0415.499906 5.085 1.652842c.452.255207.2935.940763-.224.980796-1.2345.095577-2.9215.342778-3.643.982297 0 0-.144-2.00863-1.218-3.615935" fill="#759097"/><path d="m802.2595 331.017383c0-3.312189.9455-2.247324.603-6.742973-.342-4.495149-2.849-4.258457-2.849-7.334454 0-3.075496.8275-2.484516.9455-5.560013.1185-3.075996-3.9005-4.022264-.8275-8.990797 1.439-2.326389 2.1265-4.263461 2.451-5.666099.2895-1.252017-.5995-2.461498-1.8755-2.603113-4.3815-.486895-6.5055-2.47651-8.182-2.782259-1.9285-.351285-4.218-4.394567-5.975-6.855564-1.7565-2.460998-4.0395-3.691497-5.269-7.734778-1.23-4.043282-2.046-5.640078-2.046-5.640078-4.4075-3.018951-8.095 1.640831-5.8885 2.84681 2.206 1.205479 7.179 9.071363 7.179 9.071363 1.757 6.141986 8.874 11.849619 8.874 11.849619.0575.01301.1135.023519.1705.036029-.1115-.022518-.1705-.036029-.1705-.036029.55 1.037842.1455 2.400948-.1845 3.884653-.3305 1.483204.0685 3.429784.285 4.622252.217 1.193468-.129 5.099639-.129 5.099639-.726 3.200598.9185 3.441794 1.671 4.295987.753.853693-.9955 2.998434-.9955 2.998434-1.5125 7.838862 1.296 9.895031 2.4785 10.441475 1.183.546944 1.218 3.615935 1.218 3.615935-3.831 1.776442 0 9.063357 0 9.063357-1.1215-.766122-1.8585-.318759-1.8585-.318759-1.052 1.63883-2.902 1.551259-2.902 1.551259-3.82.120598-9.7125 2.497027-9.7125 2.497027-.6485 3.327701-4.0755 5.95133-4.0755 5.95133s5.079-2.417462 7.916-2.654654c2.8365-.236692 7.21-3.194093 9.929-3.296676 2.7185-.103084 4.255-.252205 5.6735-2.144741 1.4185-1.893037.946-1.893037 3.428-2.484517 2.4825-.590979.1185-3.667477.1185-6.979665" fill="#fff"/><path d="m789.39965 294.875247s4.5285 1.644334 8.937 1.827984c.2535.010508.2885.372302.0415.43235-1.9425.46738-5.4385 1.056358-8.883.361794 0 0 .1335-1.060861-.0955-2.622128" fill="#759097"/><path d="m670.56715 435.879348s7.566 3.710012 11.405 5.175701c.317.121099.223.592982-.117.581973-3.014-.100082-8.8975-.692062-14.0525-3.554385z" fill="#759097"/><path d="m685.9016 362.830806s5.0305 1.869017 12.116 2.044159c.7745.019015.825 1.147932.055 1.236503-3.612.415338-7.8635.360293-11.62-1.125913 0 0-.7375-1.341589-.551-2.154749" fill="#759097"/><path d="m736.7815 357.633687s53.9715-6.152494 42.489-15.007181l-6.907 1.800461-2.575.121099c-.7905.03703-1.5745.165134-2.3355.381309l-10.413 2.928377s-10.2065 6.47976-20.2585 9.775935" fill="#030c1a"/><path d="m5.0045.26071162s-6.0165 8.21316653-4.256 23.70674248c.2515 2.218801 3.3795-2.914866 5.0695-4.3720487.988-.8521918 2.154-1.760429 3.4445-1.5742779.9405.1361105 1.6905.8281723 2.3755 1.488208 1.3515 1.3010561 2.703 2.6026125 4.055 3.9046694 1.645 1.5842859 3.4945 3.2616474 5.774 3.3997595 1.6755.1015825 3.2785-.6655402 4.7065-1.5472559 3.4765-2.1472429 6.4155-5.0706157 9.044-8.2006563.567-.675048 1.1525-1.3851243 1.961-1.7349083 2.386-1.0338391 4.68 1.4902096 7.0755 2.5030317 3.531 1.4932121 7.4965-.4203412 10.846-2.2868562-1.309.4553696-2.797.0040033-3.9085-.8246694-1.1115-.8286726-1.921-1.9896149-2.7105-3.1295402-1.4695-2.12372377-2.9395-4.24694717-4.409-6.36967016-1.2395-1.79095369-2.825-3.77356295-5.002-3.77556458-.9475-.00050041-1.854.39582128-2.661.89272462-2.138 1.31556783-3.7385 3.32619983-5.55 5.06461088-1.8115 1.73941186-4.0525 3.29417384-6.563 3.29867754-3.6185.0070056-6.415-3.12603741-8.3175-6.20653782-1.0615-1.71789439-2.226-3.67398212-4.1895-4.13685783-2.15-.50641105-4.202 1.0138229-5.8905 2.43847928-1.2105 1.02182941-2.49 2.15324777-2.846 3.69700081" fill="url(#a)" mask="url(#c)" transform="translate(678.5 310.852315)"/><path d="m696.19265 498.01183c1.028-4.280474 2.063-8.658528 1.634-13.040084-.4295-4.381056-2.6025-8.844679-6.5195-10.847805-8.114-4.150369-17.3435 3.935694-26.453 3.700504-4.6645-.120598-10.676-1.874522-13.009 2.170261-.65 1.126915-.7995 2.507035-1.546 3.5724-2.0315 2.898352-7.4215 2.22981-8.7065 5.527987-.32.820165-.2905 1.73691-.537 2.582596-.767 2.631636-17.505 7.669225-19.976 8.851184-9.7295 4.65628.7455 11.074489-10.92 21.102129-2.6525 2.27985 1.439 6.478258 3.166 9.520227 1.496 2.634639 4.8395 3.496839 7.8445 3.86814 15.314 1.891035 30.693-2.475509 45.1645-7.832357 5.283-1.955588 10.6005-4.098827 15.007-7.610178 6.566-5.233247 10.511-12.99855 14.2595-20.515151" fill="#030c1a"/><path d="m692.448 497.088181s3.731-21.922795-6.674-22.288091c-10.404-.365297 2.177 23.653699 2.177 23.653699z" fill="#030c1a"/><path d="m699.44265 549.501374s8.462 5.575025 23.6745 3.230622l-1.435 14.001365s9.497 34.261309 1.435 42.483483c-13.2155 13.47844-30.724-6.458742-30.724-6.458742l-2.2175-5.140673s-13.162-7.389498-13.162-12.851431c0-5.461934 4.3145-23.058717 4.3145-23.058717l12.708-5.856754z" fill="#030c1a"/><path d="m715.73265 553.457685s-.6905 4.001248-3.065 7.002684c-2.3745 3.001937-1.6245 5.127662-1.8745 6.879084-.25 1.750921-2.404 9.044841-2.404 9.044841s-6.701-8.197153-17.7975-15.444035c0 0 9.5035 3.953208 8.851-11.438785 0 0 7.675 1.901543 16.29 3.956211" fill="#384a66"/><path d="m698.90455 595.811413h17.1535l.6215 3.329703s-13.338 1.184461-18.851.281228z" fill="#384a66"/><path d="m701.68825 569.56646s-8.9285-14.096942-22.5775-12.882456c-13.6485 1.213985-3.0555 23.080234-3.0555 23.080234s-13.7725-39.20232 25.633-10.197778" fill="#384a66"/><path d="m715.73265 553.457685c3.032-7.62619-7.107-14.20553-7.219-22.412692-.05-3.712513 2.41-9.380114 3.299-12.984539 1.779-7.213856-2.8115-12.400566-4.618-19.606915-1.3195-5.263272 2.5115-6.780504 2.419-9.224487-.0865-2.272345-2.859-4.999559-1.1-11.004433 2.509-8.561449 5.675-16.555438 13.1945-21.347827 3.1615-2.015136 8.736-1.830987 13.171-2.762743 2.191-.460374 2.2605-3.563893.088-4.106833-5.3645-1.341089-10.8645-2.138736-16.3885-2.373927-1.6395-.069557-3.3335-.081066-4.8555.533933-1.9255.778132-3.3235 2.447987-4.639 4.055792-4.9075 5.998869-9.8155 11.997238-14.7225 17.995607-1.9295 2.357413-3.958 4.984546-3.944 8.031519.0135 2.964907 1.9735 5.564016 2.5455 8.473378.985 5.01407-2.2515 10.025137-1.7945 15.114768.2 2.224306 1.0965 4.322509 1.533 6.512286.5365 2.689683.369 5.461934.332 8.20516-.1565 11.491828 2.045 23.010678 6.4275 33.634301" fill="#fff"/><path d="m716.9973 447.547317c-7.0345-.025819-14.052 2.467205-19.497 6.924823-1.2645 1.03534-2.4515 2.178268-3.4265 3.490333-4.091 5.507971-3.8785 12.992045-3.489 19.844107 4.465.333771 8.34-3.162067 10.6865-6.979165 2.346-3.816598 3.8035-8.201657 6.692-11.626437 2.9045-3.443795 7.239-5.92631 8.668-10.199779" fill="#fff"/><path d="m691.99635 483.75706s4.9055 4.784884 9.3115 6.721456c.7425.326265.618 1.422654-.176 1.587288-2.009.416838-5.0735.564959-8.7385-.85019 0 0 1.181-1.952085-.397-7.458554" fill="#759097"/><path d="m790.75315 378.093194c-13.8365 3.15456-22.094 7.374486-32.379 12.803893-2.232 1.177956-4.758 2.976916-4.5315 5.492458.3805 4.229933 7.7675 4.677797 8.4105 8.876204.2145 1.400137-.4495 2.768247-1.0825 4.035276-4.1995 8.409826-7.899 17.259509-8.8375 26.614102-.936 9.325069.8505 19.053966 1.086 28.415064-1.3985 2.450489-3.385 4.60724-5.5135 6.487766-3.237 2.859321-6.873 5.253765-9.977 8.256702-1.9315 1.868517-3.699 4.921495-2.049 7.043217 1.4675 1.887032 5.056 2.004127 5.3605 4.376553.0815.636016-.1365 1.276536-.4435 1.839493-1.233 2.258333-3.8765 3.615434-4.691 6.056916-1.2415 3.722021 2.348 7.155808 5.531 9.447669.525.378307 1.1425.77713 1.7725.626008.42-.100082.7435-.426847 1.0385-.743103.1515-.162632.299-.329768.449-.494402.6235.733596 1.3785 1.354099 2.288 1.79846 3.7365 1.826483 8.4515-.070557 11.0695-3.303682 2.618-3.232623 3.5995-7.463558 4.3315-11.560383 4.494-25.167428 2.469-51.468276 9.9455-75.915119 3.258-10.654148 8.3455-21.232735 7.422-32.336748z" fill="#030c1a"/><path d="m693.07835 520.663967s8.7195 9.102889 43.703 5.231246l-.788 5.144676s-30.816 3.512851-42.915-5.563516z" fill="#030c1a"/><path d="m692.0071 509.618902s9.468 9.102888 47.4505 5.231246l-.8555 5.144676s-33.4585 3.512851-46.595-5.563016z" fill="#030c1a"/><path d="m712.2981 515.349603c-11.6795-1.029335-17.1895-3.759051-19.2195-5.066612.14 1.57728.113 3.173576.08 4.765868 4.6505 2.775753 11.347 4.235938 18.1825 4.951019.221-.709576.419-1.383123.57-1.993618.2255-.915744.3475-1.79846.387-2.656657" fill="#384a66"/><path d="m693.07835 520.663967c.059 1.685868.1715 3.369735.331 5.049599 3.801 2.706196 9.307 4.25095 15.109 5.091132.0185-1.362106.3445-2.960903.8-4.61975-12.39-1.587288-16.1845-5.463434-16.24-5.520981" fill="#384a66"/><path d="m647.4978 379.04902s7.4525 7.923931 4.6665 33.544227l4.136-.950271s1.755-23.25938-4.565-33.382096z" fill="#030c1a"/><path d="m655.31615 375.899513s6.4115 8.421836 4.8385 34.837277l4.0585-.974291s1.66-23.652198-4.6595-34.725686z" fill="#030c1a"/><path d="m791.69215 379.773258s-8.555-8.9933-9.518-41.198941l-3.97 1.66385s1.6435 29.14816 9.394 41.009287z" fill="#030c1a"/><path d="m784.3855 384.602878s-7.594-9.734402-9.877-42.788231l-3.889 1.684367s1.794 29.626047 9.683 42.670135z" fill="#030c1a"/><path d="m655.57395 376.213718c.6345 1.036341 2.2635 4.145865 3.4525 10.273339 1.285-.502408 2.6095-.903233 3.9575-1.193969-.7255-3.826606-1.804-7.439539-3.3905-10.256325-1.1425.284231-2.6195.687558-4.0195 1.176955" fill="#384a66"/><path d="m647.58425 379.14775c.484.577469 2.901 3.776565 4.2645 11.234619.852-.242197 1.5935-.782635 2.3345-1.277537.349-.232689.7055-.453869 1.0655-.668543-.723-3.864136-1.833-7.484575-3.513-10.175259 0 0-.861.576968-4.1515.88672" fill="#384a66"/><path d="m179.63255 96.8062765s-7.179 20.3900505 4.355 43.5923835l3.6845-1.573277s-10.4465-22.209027-3.564-44.8313892z" fill="#030c1a"/><path d="m189.1614 92.262038s-7.695 21.927298 3.84 45.130132l3.6845-1.573778s-10.447-22.209527-3.564-44.8313889z" fill="#030c1a"/><path d="m189.11595 92.3968975c-.351 1.0633631-2.6615 8.4753795-2.4555 18.8032625 1.5445-1.77444 2.933-3.68399 4.143-5.701628.1355-4.483139.768-9.1929619 2.148-13.9288059-.099.0420341-.203.0885719-.3015.1301056-1.0525.4458619-2.2965.565459-3.534.6970658" fill="#384a66"/><path d="m177.5764 116.944673c.6145.217676 1.3025.267217 2.072.093075.7355-.167636 1.415-.531932 2.0015-1.006317.1125-.091074.219-.187652.3305-.279727-.5385-6.662908-.178-14.188516 2.126-21.7616634-1.48.9457677-2.7265 2.06968-4.4755 2.8097807 0 0-2.89 8.2136667-2.0545 20.1448517" fill="#384a66"/><path d="m345.73315 105.162159s8.158 9.7329-.7365 40.991272l5.097-1.581283s6.3165-25.262005.4335-35.805563c0 0-2.0515-3.639455-4.794-3.604426" fill="#030c1a"/><path d="m355.2859 113.453089s8.158 9.7329-.7365 40.991272l5.064 1.120409s6.3585-28.682281.475-39.225839c0 0-1.9505-1.898541-4.8025-2.885842" fill="#030c1a"/><path d="m586.0613 339.89614c.9705.625007 2.0635 1.837491 1.346 2.742226-.2075.262212-.5245.40683-.8285.544942-1.1665.53043-2.4035 1.193469-2.908 2.371925-.7325 1.71189.382 3.80659-.372 5.508471-.4075.918246-1.3095 1.577781-1.5875 2.542064-.179.619503-.077 1.298554-.289 1.907048-.3245.929254-1.3145 1.477199-2.2855 1.635827-.9705.157628-1.9615.013011-2.945.01151-3.3545-.004004-6.053 1.680364-7.8695 4.502654-1.2485-3.565894-1.6565-8.518414.232-12.276965 1.132-2.252328 3.064-4.096325 3.8045-6.50578.3285-1.069368.4315-2.263337 1.147-3.122034.476-.570964 1.166-.916744 1.8575-1.186463 3.4555-1.348095 7.414-.398324 10.698 1.324575" fill="#fff"/><path d="m580.50855 359.197456s-1.014 1.075874-.2605 1.873021c0 0-7.4035-1.415649-8.34 1.905546 0 0 .406-1.728403.4885-1.889533.0825-.160631 1.422-3.033463 8.112-1.889034" fill="#fffbfc"/><path d="m587.30445 338.91149s-.813.802652-.3475 1.352598c0 0-4.987-3.108523-10.4055-2.062173 0 0 4.415-2.082691 10.753.709575" fill="#fffbfc"/><path d="m688.26345 357.215398s5.525 1.15894 13.052.83818c.4895-.021017.577.686057.096.781134-4.0075.794145-9.805 1.481703-14.6575.242197z" fill="#759097"/><path d="m784.3855 397.988743-30.543-1.599298 7.328 12.91148h16.3315z" fill="#030c1a"/><path d="m12.42015 558.475458c-.689-.137612-1.1355-.808656-.998-1.498216.138-.689059.808-1.136423 1.497-.99831.689.137611 1.136.808656.9975 1.498216-.1375.689559-.8075 1.135922-1.4965.99831" fill="#fff"/></g></svg>