<?xml version="1.0" encoding="UTF-8"?>
<svg width="57px" height="50px" viewBox="0 0 57 50" version="1.1" xmlns="http://www.w3.org/2000/svg" xmlns:xlink="http://www.w3.org/1999/xlink">
    <!-- Generator: Sketch 63 (92445) - https://sketch.com -->
    <title>logo_icon_black</title>
    <desc>Created with Sketch.</desc>
    <g id="Page-1" stroke="none" stroke-width="1" fill="none" fill-rule="evenodd">
        <g id="Artboard" transform="translate(-27.000000, -159.000000)" fill="#000000" fill-rule="nonzero">
            <path d="M66.9,159 L82.1,159 C83.1493542,159 84,160.446442 84,162.230769 L84,183.769231 C84,185.553558 83.1493542,187 82.1,187 L66.9,187 C65.8506458,187 65,185.553558 65,183.769231 L65,162.230769 C65,160.446442 65.8506458,159 66.9,159 Z M55.8,159 L30.2,159 C28.4326667,159 27,160.446442 27,162.230769 L27,183.769231 C27,185.553558 28.4326667,187 30.2,187 L55.8,187 C57.5673333,187 59,185.553558 59,183.769231 L59,162.230769 C59,160.446442 57.5673333,159 55.8,159 Z M27,194.25641 L27,207.076923 C27,208.139022 27.8506458,209 28.9,209 L44.1,209 C45.1493542,209 46,208.139022 46,207.076923 L46,194.25641 C46,193.194311 45.1493542,192.333333 44.1,192.333333 L28.9,192.333333 C27.8506458,192.333333 27,193.194311 27,194.25641 Z M55.2,209 L80.8,209 C82.5673333,209 84,208.139022 84,207.076923 L84,194.25641 C84,193.194311 82.5673333,192.333333 80.8,192.333333 L55.2,192.333333 C53.4326667,192.333333 52,193.194311 52,194.25641 L52,207.076923 C52,208.139022 53.4326667,209 55.2,209 Z" id="logo_icon_black"></path>
        </g>
    </g>
</svg>