<svg xmlns="http://www.w3.org/2000/svg" xmlns:xlink="http://www.w3.org/1999/xlink" viewBox="0 0 119 30" version="1.1"><!-- Generator: Sketch 59.1 (86144) - https://sketch.com --><title>testim_logo@3x</title><desc>Created with Sketch.</desc><defs><linearGradient x1="98.1208147%" y1="47.1334818%" x2="0%" y2="52.8665182%" id="linearGradient-1"><stop stop-color="#3A495F" offset="0%"/><stop stop-color="#1B2331" offset="100%"/></linearGradient><linearGradient x1="40.8975662%" y1="15.016791%" x2="67.8508739%" y2="71.3878231%" id="linearGradient-2"><stop stop-color="#7093FF" offset="0%"/><stop stop-color="#3D59FD" offset="100%"/></linearGradient></defs><g id="Symbols" stroke="none" stroke-width="1" fill="none" fill-rule="evenodd"><g id="Testim" transform="translate(0.000000, -9.000000)"><g id="testim" transform="translate(0.000000, 9.000000)"><path d="M29.919833,5.89734413 L30.2336272,5.90115858 C36.7904085,6.06103752 41.2620509,11.2261075 41.2620509,17.4909513 L41.2620509,17.4909513 L41.2537862,17.9296324 L41.2318025,18.3673594 C41.212546,18.6590839 41.1841621,18.9506962 41.147096,19.2426452 L41.147096,19.2426452 L24.5657893,19.2426452 L24.6149524,19.5051898 C25.1968597,22.3543164 27.1304638,23.9181222 29.9190817,23.9181222 L29.9190817,23.9181222 L30.1744598,23.9130357 C32.1171326,23.8352552 33.7042664,22.8703196 34.5668665,21.3549819 L34.5668665,21.3549819 L40.7932152,21.3549819 L40.6924147,21.6477138 C39.0281005,26.2961067 34.9025925,29.2406349 29.919833,29.2406349 L29.919833,29.2406349 L29.6223921,29.2370615 C23.3013457,29.0848629 18.5558263,24.0882678 18.5558263,17.5697472 C18.5558263,10.9152804 23.4177429,5.89734413 29.919833,5.89734413 L29.919833,5.89734413 Z M53.2414045,5.89658648 L53.5333806,5.89963081 C58.6582129,6.00702663 62.0024379,8.94684158 62.0245607,13.2806732 L62.0245607,13.2806732 L56.4030402,13.2806732 L56.3960556,13.0959101 C56.2922138,11.463681 55.0858082,10.658436 53.094142,10.658436 L53.094142,10.658436 L52.8765369,10.6624956 C51.1650609,10.7272248 50.1624161,11.5606189 50.1624161,12.774561 L50.1624161,12.774561 L50.1683139,12.9149317 C50.2740197,14.1466359 51.7883143,14.5343726 53.7154996,14.8967472 L53.7154996,14.8967472 L54.8086982,15.0967676 L55.0029081,15.1324933 C58.4450088,15.7698543 62.4445594,16.7594092 62.4445594,21.7974513 L62.4445594,21.7974513 L62.4408101,22.0463114 C62.3085355,26.4139189 58.6868472,29.2406069 53.2571826,29.2391202 L53.2571826,29.2391202 L52.9590559,29.2359913 C47.6257603,29.1235206 44.0842862,25.9883196 44.054779,21.3398288 L44.054779,21.3398288 L49.8303241,21.3398288 L49.8385474,21.5397871 C49.963438,23.3732985 51.4272828,24.2893722 53.4780763,24.2893722 L53.4780763,24.2893722 L53.660122,24.2862776 C55.230518,24.2326511 56.595383,23.4823875 56.595383,22.0618722 L56.595383,22.0618722 L56.5893569,21.9172208 C56.481351,20.64506 54.9340914,20.1664948 52.9641603,19.8055814 L52.9641603,19.8055814 L51.8732156,19.6169258 L51.6759297,19.5816936 C48.3113092,18.9726562 44.426692,17.8281943 44.426692,12.9639742 C44.426692,8.7840023 47.9534786,5.89658648 53.2414045,5.89658648 L53.2414045,5.89658648 Z M118.958798,9.34921148 L118.958798,28.6375431 L113.184755,28.6375431 L113.184755,18.0872242 L114.434984,16.1976375 L118.958798,9.34921148 Z M100.088912,6.49437474 L103.759955,12.2790559 L103.540119,12.2503492 C103.392801,12.2348594 103.244036,12.2267778 103.094269,12.2267778 L103.094269,12.2267778 L102.876018,12.2321574 C100.923615,12.3286126 99.3012397,13.7119402 98.8274129,15.5574207 L98.8274129,15.5574207 L98.8240319,15.5751308 L98.8240319,15.5751308 L98.8206509,15.5945457 L98.8206509,17.7568875 L98.8235623,17.764464 L98.8259103,17.7720406 L98.8259103,28.6375431 L93.0518679,28.6375431 L93.0518679,6.49437474 L100.088912,6.49437474 Z M9.78544286,0.757425765 L9.78544286,6.52316556 L15.8307187,6.52316556 L15.8307187,11.324413 L9.88537098,11.324413 L9.88537098,19.9351401 L9.88941552,20.1456093 C9.96751157,22.1506691 11.1737175,23.2976043 13.2596357,23.2976043 L13.2596357,23.2976043 L15.9516844,23.2976043 L15.9516844,28.6163288 L11.743433,28.6163288 L11.467392,28.6130228 C6.81002092,28.5007483 3.96106071,25.5353764 3.96106071,20.7268875 L3.96106071,20.7268875 L3.96106071,11.324413 L-1.17239551e-13,11.324413 L-1.17239551e-13,10.0341298 L8.65242321,0.757425765 L9.78544286,0.757425765 Z M89.3289817,6.52316556 L89.3289817,28.6163288 L83.4054228,28.6163288 L83.4054228,6.52316556 L89.3289817,6.52316556 Z M73.5215545,0.757425765 L73.5215545,6.52316556 L79.5668304,6.52316556 L79.5668304,11.324413 L73.6222339,11.324413 L73.6222339,19.9351401 L73.6262785,20.1456093 C73.7043745,22.1506691 74.9105804,23.2976043 76.9964987,23.2976043 L76.9964987,23.2976043 L79.6885473,23.2976043 L79.6885473,28.6163288 L75.480296,28.6163288 L75.204255,28.6130228 C70.5468839,28.5007483 67.6979237,25.5353764 67.6979237,20.7268875 L67.6979237,20.7268875 L67.6979237,11.324413 L63.7361116,11.324413 L63.7361116,10.0341298 L72.3892862,0.757425765 L73.5215545,0.757425765 Z M29.9190817,10.9971069 L29.7079554,11.0001375 C27.1819527,11.081964 25.3915112,12.6184844 24.7220679,15.1626834 L24.7220679,15.1626834 L35.3392433,15.1626834 L35.2547939,14.9051608 C34.3766424,12.3686876 32.4922976,10.9971069 29.9190817,10.9971069 L29.9190817,10.9971069 Z" id="Combined-Shape" fill="url(#linearGradient-1)"/><path d="M111.922505,6.49437474 L106.020735,15.8422982 L105.460988,14.9603901 L105.449717,14.9687242 C104.923029,14.2284972 104.067253,13.7428416 103.094269,13.7428416 L103.094269,13.7428416 C101.490159,13.7428416 100.189591,15.0535814 100.189591,16.6719283 L100.189591,16.6719283 C100.189591,17.2636554 100.366907,17.8129538 100.66594,18.2728492 L100.66594,18.2728492 L100.665189,18.2736069 L100.668946,18.2789105 C100.68247,18.2993671 100.696745,18.3205814 100.711772,18.341038 L100.711772,18.341038 L103.510511,22.4657013 C103.726896,22.7854309 104.002638,23.0597013 104.321206,23.2741171 L104.321206,23.2741171 C105.701416,24.2037574 107.567743,23.8294768 108.489636,22.4369105 L108.489636,22.4369105 L113.184755,15.3475508 L113.184755,15.3581579 L118.958798,6.61559923 L118.958798,6.49437474 L111.922505,6.49437474 Z" id="Fill-21" fill="url(#linearGradient-2)"/></g></g></g></svg>