<svg xmlns="http://www.w3.org/2000/svg" viewBox="0 0 96 89"><defs><linearGradient id="oo8xa" x1="52" x2="24.19" y1="0" y2="82.72" gradientUnits="userSpaceOnUse"><stop offset="0" stop-color="#eaecee"/><stop offset="1" stop-color="#d1d4d8"/></linearGradient><mask id="oo8xc" width="2" height="2" x="-1" y="-1"><path fill="#fff" d="M8 0h40v40H8z"/><path d="M28 40c11.046 0 20-8.954 20-20S39.046 0 28 0 8 8.954 8 20s8.954 20 20 20z"/></mask><filter id="oo8xb" width="78" height="86" x="-11" y="-19" filterUnits="userSpaceOnUse"><feOffset dy="8" in="SourceGraphic" result="FeOffset1268Out"/><feGaussianBlur in="FeOffset1268Out" result="FeGaussianBlur1269Out" stdDeviation="3.6 3.6"/></filter><linearGradient id="oo8xd" x1="17.09" x2="35.72" y1="4.81" y2="34.44" gradientUnits="userSpaceOnUse"><stop offset="0" stop-color="#7093ff"/><stop offset="1" stop-color="#3d5afe"/></linearGradient></defs><g><g><g><path fill="#3d5afe" d="M43 18h15v4H43z"/></g><g><path fill="url(#oo8xa)" d="M56 69c0-11.046 8.954-20 20-20s20 8.954 20 20-8.954 20-20 20-20-8.954-20-20zM8 69c0-11.046 8.954-20 20-20s20 8.954 20 20-8.954 20-20 20S8 80.046 8 69zm48-49C56 8.954 64.954 0 76 0s20 8.954 20 20-8.954 20-20 20-20-8.954-20-20z"/></g><g><g filter="url(#oo8xb)"><path fill="none" d="M28 40c11.046 0 20-8.954 20-20S39.046 0 28 0 8 8.954 8 20s8.954 20 20 20z" mask="url(&quot;#oo8xc&quot;)"/><path fill-opacity=".3" d="M28 40c11.046 0 20-8.954 20-20S39.046 0 28 0 8 8.954 8 20s8.954 20 20 20z"/></g><path fill="url(#oo8xd)" d="M28 40c11.046 0 20-8.954 20-20S39.046 0 28 0 8 8.954 8 20s8.954 20 20 20z"/></g><g><path fill="#fff" d="M22.614 18.173a2 2 0 0 0-3.228 2.362l4.133 5.646a2 2 0 0 0 3.038.224l9.867-10a2 2 0 0 0-2.848-2.81l-8.216 8.328z"/></g></g></g></svg>