<svg xmlns="http://www.w3.org/2000/svg" viewBox="0 0 94 92"><defs><linearGradient id="j7eha" x1="51.5" x2="24.64" y1="0" y2="81.79" gradientUnits="userSpaceOnUse"><stop offset="0" stop-color="#eaecee"/><stop offset="1" stop-color="#d1d4d8"/></linearGradient><mask id="j7ehc" width="2" height="2" x="-1" y="-1"><path fill="#fff" d="M7 21h67v57H7z"/><path d="M51.111 21c5.152 0 9.9 1.731 13.692 4.644l-15.146 8.745a8.5 8.5 0 0 0 8.5 14.722l15.231-8.794c.147 1.04.223 2.103.223 3.183 0 12.426-10.073 22.5-22.5 22.5a22.47 22.47 0 0 1-7.317-1.217L23.005 76.786a3 3 0 0 1-4.098-1.098L7.602 56.108A3 3 0 0 1 8.7 52.008L28.825 40.39C30.339 29.435 39.74 21 51.11 21z"/></mask><filter id="j7ehb" width="105" height="103" x="-12" y="2" filterUnits="userSpaceOnUse"><feOffset dy="8" in="SourceGraphic" result="FeOffset1306Out"/><feGaussianBlur in="FeOffset1306Out" result="FeGaussianBlur1307Out" stdDeviation="3.6 3.6"/></filter><linearGradient id="j7ehd" x1="23.83" x2="53.84" y1="27.48" y2="67.38" gradientUnits="userSpaceOnUse"><stop offset="0" stop-color="#7093ff"/><stop offset="1" stop-color="#3d5afe"/></linearGradient></defs><g><g><g><path fill="url(#j7eha)" d="M84.271 44c0 1.446-.124 2.891-.312 4.274l9.239 7.292c.811.691 1.06 1.885.499 2.828l-8.739 15.212a2.201 2.201 0 0 1-2.684.943l-10.862-4.4c-2.247 1.76-4.744 3.205-7.365 4.337l-1.623 11.628C62.237 87.183 61.3 88 60.239 88H42.761c-1.061 0-1.998-.817-2.185-1.823L38.953 74.55a32.048 32.048 0 0 1-7.366-4.338l-10.86 4.4c-1 .378-2.123 0-2.685-.942L9.303 58.457c-.562-.943-.312-2.137.5-2.828l9.238-7.292c-.188-1.446-.312-2.891-.312-4.337 0-1.446.124-2.891.312-4.274l-9.239-7.292c-.811-.691-1.06-1.885-.499-2.828l8.739-15.212a2.201 2.201 0 0 1 2.684-.943l10.861 4.4c2.248-1.76 4.745-3.205 7.366-4.337l1.623-11.628C40.763.817 41.7 0 42.761 0h17.478c1.061 0 1.998.817 2.185 1.823l1.623 11.628a32.048 32.048 0 0 1 7.365 4.338l10.862-4.4c.999-.378 2.122 0 2.684.942l8.739 15.212c.562.943.312 2.137-.5 2.828l-9.238 7.292c.188 1.446.312 2.891.312 4.337zM51 21.5c-12.1 0-22 9.675-22 21.5s9.9 21.5 22 21.5S73 54.825 73 43s-9.9-21.5-22-21.5z"/></g><g><g filter="url(#j7ehb)"><path fill="none" d="M51.111 21c5.152 0 9.9 1.731 13.692 4.644l-15.146 8.745a8.5 8.5 0 0 0 8.5 14.722l15.231-8.794c.147 1.04.223 2.103.223 3.183 0 12.426-10.073 22.5-22.5 22.5a22.47 22.47 0 0 1-7.317-1.217L23.005 76.786a3 3 0 0 1-4.098-1.098L7.602 56.108A3 3 0 0 1 8.7 52.008L28.825 40.39C30.339 29.435 39.74 21 51.11 21z" mask="url(&quot;#j7ehc&quot;)"/><path fill-opacity=".3" d="M51.111 21c5.152 0 9.9 1.731 13.692 4.644l-15.146 8.745a8.5 8.5 0 0 0 8.5 14.722l15.231-8.794c.147 1.04.223 2.103.223 3.183 0 12.426-10.073 22.5-22.5 22.5a22.47 22.47 0 0 1-7.317-1.217L23.005 76.786a3 3 0 0 1-4.098-1.098L7.602 56.108A3 3 0 0 1 8.7 52.008L28.825 40.39C30.339 29.435 39.74 21 51.11 21z"/></g><path fill="url(#j7ehd)" d="M51.111 21c5.152 0 9.9 1.731 13.692 4.644l-15.146 8.745a8.5 8.5 0 0 0 8.5 14.722l15.231-8.794c.147 1.04.223 2.103.223 3.183 0 12.426-10.073 22.5-22.5 22.5a22.47 22.47 0 0 1-7.317-1.217L23.005 76.786a3 3 0 0 1-4.098-1.098L7.602 56.108A3 3 0 0 1 8.7 52.008L28.825 40.39C30.339 29.435 39.74 21 51.11 21z"/></g></g></g></svg>