<svg xmlns="http://www.w3.org/2000/svg" viewBox="0 0 98 85"><defs><linearGradient id="veq1a" x1="49" x2="19.92" y1="34" y2="81.4" gradientUnits="userSpaceOnUse"><stop offset="0" stop-color="#eaecee"/><stop offset="1" stop-color="#d1d4d8"/></linearGradient><mask id="veq1c" width="2" height="2" x="-1" y="-1"><path fill="#fff" d="M7 17h84v51H7z"/><path d="M50.478 17.803a3 3 0 0 0-2.9-.005L9.328 38.82a4 4 0 0 0-.024 6.997l38.268 21.368a3 3 0 0 0 2.917.004l38.205-21.192a4 4 0 0 0 0-6.996z"/></mask><filter id="veq1b" width="122" height="97" x="-12" y="-2" filterUnits="userSpaceOnUse"><feOffset dy="8" in="SourceGraphic" result="FeOffset1339Out"/><feGaussianBlur in="FeOffset1339Out" result="FeGaussianBlur1340Out" stdDeviation="3.6 3.6"/></filter><linearGradient id="veq1d" x1="23.9" x2="66.77" y1="23.13" y2="60.91" gradientUnits="userSpaceOnUse"><stop offset="0" stop-color="#7093ff"/><stop offset="1" stop-color="#3d5afe"/></linearGradient><linearGradient id="veq1e" x1="49" x2="19.92" y1="0" y2="47.4" gradientUnits="userSpaceOnUse"><stop offset="0" stop-color="#eaecee"/><stop offset="1" stop-color="#d1d4d8"/></linearGradient></defs><g><g><g><path fill="url(#veq1a)" d="M50.478 34.803a3 3 0 0 0-2.9-.005L9.328 55.82a4 4 0 0 0-.024 6.998l38.268 21.368a3 3 0 0 0 2.917.004l38.205-21.192a4 4 0 0 0 0-6.996z"/></g><g><g filter="url(#veq1b)"><path fill="none" d="M50.478 17.803a3 3 0 0 0-2.9-.005L9.328 38.82a4 4 0 0 0-.024 6.997l38.268 21.368a3 3 0 0 0 2.917.004l38.205-21.192a4 4 0 0 0 0-6.996z" mask="url(&quot;#veq1c&quot;)"/><path fill-opacity=".3" d="M50.478 17.803a3 3 0 0 0-2.9-.005L9.328 38.82a4 4 0 0 0-.024 6.997l38.268 21.368a3 3 0 0 0 2.917.004l38.205-21.192a4 4 0 0 0 0-6.996z"/></g><path fill="url(#veq1d)" d="M50.478 17.803a3 3 0 0 0-2.9-.005L9.328 38.82a4 4 0 0 0-.024 6.997l38.268 21.368a3 3 0 0 0 2.917.004l38.205-21.192a4 4 0 0 0 0-6.996z"/></g><g><path fill="url(#veq1e)" d="M50.478.803a3 3 0 0 0-2.9-.005L9.328 21.82a4 4 0 0 0-.024 6.998l38.268 21.368a3 3 0 0 0 2.917.004l38.205-21.192a4 4 0 0 0 0-6.996z"/></g></g></g></svg>