<?xml version="1.0" encoding="UTF-8"?>
<svg width="280px" height="140px" viewBox="0 0 280 140" version="1.1" xmlns="http://www.w3.org/2000/svg" xmlns:xlink="http://www.w3.org/1999/xlink">
    <!-- Generator: Sketch 63 (92445) - https://sketch.com -->
    <title>banner</title>
    <desc>Created with Sketch.</desc>
    <defs>
        <rect id="path-1" x="0" y="0" width="280" height="140"></rect>
    </defs>
    <g id="Page-1" stroke="none" stroke-width="1" fill="none" fill-rule="evenodd">
        <g id="Artboard" transform="translate(-455.000000, -1453.000000)">
            <g id="banner" transform="translate(455.000000, 1453.000000)">
                <rect id="Rectangle" fill="#323452" x="0" y="0" width="280" height="140"></rect>
                <g id="Clipped">
                    <mask id="mask-2" fill="white">
                        <use xlink:href="#path-1"></use>
                    </mask>
                    <g id="Rectangle"></g>
                    <g id="Group" mask="url(#mask-2)">
                        <g transform="translate(0.000000, -2.000000)">
                            <rect id="Rectangle" fill="#323452" x="0" y="2" width="280" height="140"></rect>
                            <g id="Group" stroke-width="1" fill="none" transform="translate(29.000000, 0.000000)">
                                <path d="M1,1 L221,1 L221,102 C221,104.209 219.209,106 217,106 L5,106 C2.7909,106 1,104.209 1,102 L1,1 Z" id="Path" fill="#323452"></path>
                                <path d="M1,0.5 L0.5,0.5 L0.5,1 L0.5,102 C0.5,104.485 2.5147,106.5 5,106.5 L217,106.5 C219.485,106.5 221.5,104.485 221.5,102 L221.5,1 L221.5,0.5 L221,0.5 L1,0.5 Z" id="Path" stroke-opacity="0.04" stroke="#FFFFFF"></path>
                            </g>
                            <g id="Group-11" stroke-width="1" fill="none" transform="translate(31.000000, 44.000000)">
                                <rect id="Rectangle" fill-opacity="0.610085227" fill="#FFFFFF" x="0" y="0" width="220" height="44" rx="4"></rect>
                                <rect id="Rectangle" fill-opacity="0.354212194" fill="#FFFFFF" x="20" y="11" width="88" height="2" rx="1"></rect>
                                <rect id="Rectangle" fill-opacity="0.162696678" fill="#FFFFFF" x="7" y="10" width="8" height="9" rx="2"></rect>
                                <rect id="Rectangle" fill-opacity="0.354212194" fill="#FFFFFF" x="20" y="23" width="88" height="2" rx="1"></rect>
                                <rect id="Rectangle-Copy" fill-opacity="0.354212194" fill="#FFFFFF" x="20" y="17" width="57" height="2" rx="1"></rect>
                            </g>
                        </g>
                    </g>
                </g>
                <rect id="Rectangle" fill-opacity="0.610085227" fill="#FFFFFF" x="217" y="73" width="30" height="9" rx="3"></rect>
                <rect id="Rectangle" fill-opacity="0.354212194" fill="#FFFFFF" x="225" y="77" width="14" height="1" rx="0.5"></rect>
            </g>
        </g>
    </g>
</svg>