<?xml version="1.0" encoding="UTF-8"?>
<svg width="280px" height="140px" viewBox="0 0 280 140" version="1.1" xmlns="http://www.w3.org/2000/svg" xmlns:xlink="http://www.w3.org/1999/xlink">
    <!-- Generator: Sketch 63 (92445) - https://sketch.com -->
    <title>blogPosts</title>
    <desc>Created with Sketch.</desc>
    <g id="Page-1" stroke="none" stroke-width="1" fill="none" fill-rule="evenodd">
        <g id="Artboard" transform="translate(-463.000000, -298.000000)">
            <g id="blogPosts" transform="translate(463.000000, 298.000000)">
                <rect id="Rectangle" fill="#323452" x="0" y="0" width="280" height="140"></rect>
                <rect id="Rectangle" fill="#323452" x="0" y="0" width="280" height="140"></rect>
                <g id="Group" transform="translate(29.000000, 48.000000)">
                    <rect id="Rectangle" fill="#323452" x="1" y="1" width="68" height="68" rx="4"></rect>
                    <rect id="Rectangle" stroke-opacity="0.04" stroke="#FFFFFF" x="0.5" y="0.5" width="69" height="69" rx="4.5"></rect>
                </g>
                <g id="Group" transform="translate(105.000000, 48.000000)">
                    <rect id="Rectangle" fill="#323452" x="1" y="1" width="68" height="68" rx="4"></rect>
                    <rect id="Rectangle" stroke-opacity="0.04" stroke="#FFFFFF" x="0.5" y="0.5" width="69" height="69" rx="4.5"></rect>
                </g>
                <g id="Group" transform="translate(181.000000, 48.000000)">
                    <rect id="Rectangle" fill="#323452" x="1" y="1" width="68" height="68" rx="4"></rect>
                    <rect id="Rectangle" stroke-opacity="0.04" stroke="#FFFFFF" x="0.5" y="0.5" width="69" height="69" rx="4.5"></rect>
                </g>
                <rect id="Rectangle" fill-opacity="0.651852054" fill="#FFFFFF" x="112" y="89" width="44" height="2" rx="1"></rect>
                <rect id="Rectangle" fill-opacity="0.651852054" fill="#FFFFFF" x="188" y="89" width="44" height="2" rx="1"></rect>
                <rect id="Rectangle" fill-opacity="0.354212194" fill="#FFFFFF" x="112" y="94" width="56" height="2" rx="1"></rect>
                <rect id="Rectangle" fill-opacity="0.354212194" fill="#FFFFFF" x="188" y="94" width="56" height="2" rx="1"></rect>
                <rect id="Rectangle" fill-opacity="0.354212194" fill="#FFFFFF" x="112" y="99" width="52" height="2" rx="1"></rect>
                <rect id="Rectangle" fill-opacity="0.354212194" fill="#FFFFFF" x="188" y="99" width="52" height="2" rx="1"></rect>
                <rect id="Rectangle" fill-opacity="0.354212194" fill="#FFFFFF" x="112" y="104" width="39" height="2" rx="1"></rect>
                <rect id="Rectangle" fill-opacity="0.354212194" fill="#FFFFFF" x="188" y="104" width="39" height="2" rx="1"></rect>
                <rect id="Rectangle" fill-opacity="0.354212194" fill="#FFFFFF" x="112" y="109" width="7" height="2" rx="1"></rect>
                <rect id="Rectangle" fill-opacity="0.354212194" fill="#FFFFFF" x="188" y="109" width="7" height="2" rx="1"></rect>
                <path d="M30,52 C30,50.3431 31.3431,49 33,49 L95,49 C96.6569,49 98,50.3431 98,52 L98,83 L30,83 L30,52 Z" id="Path" fill-opacity="0.370875219" fill="#FFFFFF"></path>
                <path d="M106,52 C106,50.3431 107.343,49 109,49 L171,49 C172.657,49 174,50.3431 174,52 L174,83 L106,83 L106,52 Z" id="Path" fill-opacity="0.370875219" fill="#FFFFFF"></path>
                <path d="M182,52 C182,50.3431 183.343,49 185,49 L247,49 C248.657,49 250,50.3431 250,52 L250,83 L182,83 L182,52 Z" id="Path" fill-opacity="0.370875219" fill="#FFFFFF"></path>
                <rect id="Rectangle" fill-opacity="0.651852054" fill="#FFFFFF" x="36" y="89" width="44" height="2" rx="1"></rect>
                <rect id="Rectangle" fill-opacity="0.354212194" fill="#FFFFFF" x="36" y="94" width="56" height="2" rx="1"></rect>
                <rect id="Rectangle" fill-opacity="0.354212194" fill="#FFFFFF" x="36" y="99" width="52" height="2" rx="1"></rect>
                <rect id="Rectangle" fill-opacity="0.354212194" fill="#FFFFFF" x="36" y="104" width="39" height="2" rx="1"></rect>
                <rect id="Rectangle" fill-opacity="0.354212194" fill="#FFFFFF" x="36" y="109" width="7" height="2" rx="1"></rect>
                <rect id="Rectangle" fill-opacity="0.651852054" fill="#FFFFFF" x="103" y="23" width="76" height="3" rx="1.5"></rect>
                <rect id="Rectangle" fill-opacity="0.354212194" fill="#FFFFFF" x="85" y="30" width="111" height="2" rx="1"></rect>
                <rect id="Rectangle" fill-opacity="0.354212194" fill="#FFFFFF" x="91" y="35" width="100" height="2" rx="1"></rect>
            </g>
        </g>
    </g>
</svg>