<?xml version="1.0" encoding="UTF-8"?>
<svg width="280px" height="140px" viewBox="0 0 280 140" version="1.1" xmlns="http://www.w3.org/2000/svg" xmlns:xlink="http://www.w3.org/1999/xlink">
    <!-- Generator: Sketch 63 (92445) - https://sketch.com -->
    <title>faq</title>
    <desc>Created with Sketch.</desc>
    <g id="Page-1" stroke="none" stroke-width="1" fill="none" fill-rule="evenodd">
        <g id="Artboard" transform="translate(-479.000000, -1017.000000)">
            <g id="faq" transform="translate(479.000000, 1017.000000)">
                <rect id="Rectangle" fill="#323452" x="0" y="0" width="280" height="140"></rect>
                <rect id="Rectangle" fill="#323452" x="0" y="0" width="280" height="140"></rect>
                <rect id="Rectangle" fill-opacity="0.651852054" fill="#FFFFFF" x="30" y="54" width="68" height="3" rx="1.5"></rect>
                <rect id="Rectangle" fill-opacity="0.354212194" fill="#FFFFFF" x="30" y="61" width="98" height="2" rx="1"></rect>
                <rect id="Rectangle" fill-opacity="0.354212194" fill="#FFFFFF" x="30" y="66" width="102" height="2" rx="1"></rect>
                <rect id="Rectangle" fill-opacity="0.354212194" fill="#FFFFFF" x="30" y="71" width="90" height="2" rx="1"></rect>
                <g id="Group-3" transform="translate(140.000000, 54.000000)" fill="#FFFFFF">
                    <rect id="Rectangle" fill-opacity="0.651852054" x="0" y="0" width="52" height="3" rx="1.5"></rect>
                    <rect id="Rectangle" fill-opacity="0.354212194" x="0" y="7" width="98" height="2" rx="1"></rect>
                    <rect id="Rectangle" fill-opacity="0.354212194" x="0" y="12" width="105" height="2" rx="1"></rect>
                    <rect id="Rectangle" fill-opacity="0.354212194" x="0" y="17" width="92" height="2" rx="1"></rect>
                    <rect id="Rectangle" fill-opacity="0.651852054" x="0" y="35" width="52" height="3" rx="1.5"></rect>
                    <rect id="Rectangle" fill-opacity="0.354212194" x="0" y="42" width="98" height="2" rx="1"></rect>
                    <rect id="Rectangle" fill-opacity="0.354212194" x="0" y="47" width="105" height="2" rx="1"></rect>
                    <rect id="Rectangle" fill-opacity="0.354212194" x="0" y="52" width="92" height="2" rx="1"></rect>
                </g>
                <rect id="Rectangle" fill-opacity="0.651852054" fill="#FFFFFF" x="30" y="89" width="68" height="3" rx="1.5"></rect>
                <rect id="Rectangle" fill-opacity="0.354212194" fill="#FFFFFF" x="30" y="96" width="98" height="2" rx="1"></rect>
                <rect id="Rectangle" fill-opacity="0.354212194" fill="#FFFFFF" x="30" y="101" width="102" height="2" rx="1"></rect>
                <rect id="Rectangle" fill-opacity="0.354212194" fill="#FFFFFF" x="30" y="106" width="90" height="2" rx="1"></rect>
                <rect id="Rectangle" fill-opacity="0.370875219" fill="#FFFFFF" x="30" y="45" width="220" height="1"></rect>
                <path d="M30.7891,37 L32.2383,37 L32.2383,33.6016 L35.5625,33.6016 L35.5625,32.3867 L32.2383,32.3867 L32.2383,30.2148 L35.9141,30.2148 L35.9141,29 L30.7891,29 L30.7891,37 Z M37.2627,37 L37.9229,35.0273 L40.9307,35.0273 L41.5947,37 L43.1416,37 L40.3213,29 L38.5322,29 L35.7158,37 L37.2627,37 Z M38.3135,33.8633 L39.3955,30.6406 L39.458,30.6406 L40.54,33.8633 L38.3135,33.8633 Z M50.9678,33 C50.9678,30.4141 49.3896,28.8906 47.292,28.8906 C45.1904,28.8906 43.6162,30.4141 43.6162,33 C43.6162,35.582 45.1904,37.1094 47.292,37.1094 C47.7998,37.1094 48.2764,37.0195 48.71,36.8477 L49.3701,37.6875 L50.7764,37.6875 L49.667,36.2656 C50.4717,35.5625 50.9678,34.4492 50.9678,33 Z M46.7998,34.3125 L47.8818,35.7344 C47.6943,35.7852 47.499,35.8086 47.292,35.8086 C45.9912,35.8086 45.0732,34.8203 45.0732,33 C45.0732,31.1797 45.9912,30.1914 47.292,30.1914 C48.5967,30.1914 49.5107,31.1797 49.5107,33 C49.5107,33.9844 49.2451,34.7227 48.792,35.1953 L48.1123,34.3125 L46.7998,34.3125 Z" id="Shape" fill-opacity="0.610085227" fill="#FFFFFF" fill-rule="nonzero"></path>
            </g>
        </g>
    </g>
</svg>