<?xml version="1.0" encoding="UTF-8"?>
<svg width="280px" height="140px" viewBox="0 0 280 140" version="1.1" xmlns="http://www.w3.org/2000/svg" xmlns:xlink="http://www.w3.org/1999/xlink">
    <!-- Generator: Sketch 52.5 (67469) - http://www.bohemiancoding.com/sketch -->
    <title>featuresGrid</title>
    <desc>Created with Sketch.</desc>
    <g id="Page-1" stroke="none" stroke-width="1" fill="none" fill-rule="evenodd">
        <g id="Artboard" transform="translate(-76.000000, -1269.000000)">
            <g id="featuresGrid" transform="translate(76.000000, 1269.000000)">
                <rect id="Rectangle" fill="#FFFFFF" x="0" y="0" width="280" height="140"></rect>
                <rect id="Rectangle" fill="#FFFFFF" x="0" y="0" width="280" height="140"></rect>
                <g id="Group-2" transform="translate(16.000000, 19.000000)">
                    <rect id="Rectangle" fill="#9FA6B2" x="0" y="20" width="44" height="2" rx="1"></rect>
                    <rect id="Rectangle" fill="#D2D6DC" x="0" y="26" width="64" height="2" rx="1"></rect>
                    <rect id="Rectangle" fill="#D2D6DC" x="0" y="31" width="60" height="2" rx="1"></rect>
                    <rect id="Rectangle" fill="#D2D6DC" x="0" y="36" width="39" height="2" rx="1"></rect>
                    <rect id="Rectangle" fill="#D2D6DC" x="0" y="0" width="12" height="12" rx="3"></rect>
                </g>
                <g id="Group-2-Copy-3" transform="translate(19.000000, 75.000000)">
                    <rect id="Rectangle" fill="#9FA6B2" x="0" y="20" width="44" height="2" rx="1"></rect>
                    <rect id="Rectangle" fill="#D2D6DC" x="0" y="26" width="64" height="2" rx="1"></rect>
                    <rect id="Rectangle" fill="#D2D6DC" x="0" y="31" width="60" height="2" rx="1"></rect>
                    <rect id="Rectangle" fill="#D2D6DC" x="0" y="36" width="39" height="2" rx="1"></rect>
                    <rect id="Rectangle" fill="#D2D6DC" x="0" y="0" width="12" height="12" rx="3"></rect>
                </g>
                <g id="Group-2-Copy" transform="translate(107.000000, 19.000000)">
                    <rect id="Rectangle" fill="#9FA6B2" x="0" y="20" width="44" height="2" rx="1"></rect>
                    <rect id="Rectangle" fill="#D2D6DC" x="0" y="26" width="64" height="2" rx="1"></rect>
                    <rect id="Rectangle" fill="#D2D6DC" x="0" y="31" width="60" height="2" rx="1"></rect>
                    <rect id="Rectangle" fill="#D2D6DC" x="0" y="36" width="39" height="2" rx="1"></rect>
                    <rect id="Rectangle" fill="#D2D6DC" x="0" y="0" width="12" height="12" rx="3"></rect>
                </g>
                <g id="Group-2-Copy-4" transform="translate(110.000000, 75.000000)">
                    <rect id="Rectangle" fill="#9FA6B2" x="0" y="20" width="44" height="2" rx="1"></rect>
                    <rect id="Rectangle" fill="#D2D6DC" x="0" y="26" width="64" height="2" rx="1"></rect>
                    <rect id="Rectangle" fill="#D2D6DC" x="0" y="31" width="60" height="2" rx="1"></rect>
                    <rect id="Rectangle" fill="#D2D6DC" x="0" y="36" width="39" height="2" rx="1"></rect>
                    <rect id="Rectangle" fill="#D2D6DC" x="0" y="0" width="12" height="12" rx="3"></rect>
                </g>
                <g id="Group-2-Copy-2" transform="translate(194.000000, 19.000000)">
                    <rect id="Rectangle" fill="#9FA6B2" x="0" y="20" width="44" height="2" rx="1"></rect>
                    <rect id="Rectangle" fill="#D2D6DC" x="0" y="26" width="64" height="2" rx="1"></rect>
                    <rect id="Rectangle" fill="#D2D6DC" x="0" y="31" width="60" height="2" rx="1"></rect>
                    <rect id="Rectangle" fill="#D2D6DC" x="0" y="36" width="39" height="2" rx="1"></rect>
                    <rect id="Rectangle" fill="#D2D6DC" x="0" y="0" width="12" height="12" rx="3"></rect>
                </g>
                <g id="Group-2-Copy-5" transform="translate(197.000000, 75.000000)">
                    <rect id="Rectangle" fill="#9FA6B2" x="0" y="20" width="44" height="2" rx="1"></rect>
                    <rect id="Rectangle" fill="#D2D6DC" x="0" y="26" width="64" height="2" rx="1"></rect>
                    <rect id="Rectangle" fill="#D2D6DC" x="0" y="31" width="60" height="2" rx="1"></rect>
                    <rect id="Rectangle" fill="#D2D6DC" x="0" y="36" width="39" height="2" rx="1"></rect>
                    <rect id="Rectangle" fill="#D2D6DC" x="0" y="0" width="12" height="12" rx="3"></rect>
                </g>
            </g>
        </g>
    </g>
</svg>