<?xml version="1.0" encoding="UTF-8"?>
<svg width="280px" height="140px" viewBox="0 0 280 140" version="1.1" xmlns="http://www.w3.org/2000/svg" xmlns:xlink="http://www.w3.org/1999/xlink">
    <!-- Generator: Sketch 52.5 (67469) - http://www.bohemiancoding.com/sketch -->
    <title>howItWorks</title>
    <desc>Created with Sketch.</desc>
    <g id="Page-1" stroke="none" stroke-width="1" fill="none" fill-rule="evenodd">
        <g id="Artboard" transform="translate(-87.000000, -1473.000000)">
            <g id="howItWorks" transform="translate(87.000000, 1473.000000)">
                <rect id="Rectangle" fill="#FFFFFF" x="0" y="0" width="280" height="140"></rect>
                <rect id="Rectangle" fill="#F4F5F7" x="0" y="0" width="280" height="140"></rect>
                <g id="Group-4" transform="translate(66.000000, 4.000000)">
                    <rect id="Rectangle" fill="#6B7280" x="10" y="9" width="28" height="2" rx="1"></rect>
                    <rect id="Rectangle" fill="#D2D6DC" x="0" y="14" width="56" height="2" rx="1"></rect>
                    <rect id="Rectangle" fill="#D2D6DC" x="0" y="19" width="52" height="2" rx="1"></rect>
                    <rect id="Rectangle" fill="#D2D6DC" x="0" y="24" width="39" height="2" rx="1"></rect>
                    <rect id="Rectangle" fill="#9FA6B2" x="0" y="29" width="7" height="2" rx="1"></rect>
                    <path d="M79,5 C79,3.3431 80.343,2 82,2 L144,2 C145.657,2 147,3.3431 147,5 L147,36 L79,36 L79,5 Z" id="Path" fill="#E5E7EB"></path>
                    <polygon id="1" fill="#6B7280" points="3.18652344 12 3.18652344 4.37011719 3.07861328 4.37011719 0.780761719 5.99511719 0.780761719 4.54150391 3.19287109 2.84033203 4.60839844 2.84033203 4.60839844 12"></polygon>
                </g>
                <g id="Group-4-Copy" transform="translate(139.500000, 67.000000) scale(-1, 1) translate(-139.500000, -67.000000) translate(66.000000, 50.000000)">
                    <rect id="Rectangle" fill="#6B7280" x="14" y="7" width="28" height="2" rx="1"></rect>
                    <rect id="Rectangle" fill="#D2D6DC" x="0" y="12" width="56" height="2" rx="1"></rect>
                    <rect id="Rectangle" fill="#D2D6DC" x="0" y="17" width="52" height="2" rx="1"></rect>
                    <rect id="Rectangle" fill="#D2D6DC" x="0" y="22" width="39" height="2" rx="1"></rect>
                    <rect id="Rectangle" fill="#9FA6B2" x="0" y="27" width="7" height="2" rx="1"></rect>
                    <path d="M79,3 C79,1.3431 80.343,0 82,0 L144,0 C145.657,0 147,1.3431 147,3 L147,34 L79,34 L79,3 Z" id="Path" fill="#E5E7EB"></path>
                    <path d="M47,2.86914063 C47,2.02701402 47.2877575,1.3383002 47.8632812,0.802978516 C48.438805,0.267656829 49.1772416,0 50.0786133,0 C50.9503624,0 51.6718721,0.247556118 52.2431641,0.742675781 C52.814456,1.23779544 53.1000977,1.8619754 53.1000977,2.61523438 C53.1000977,3.10189045 52.9572768,3.58324957 52.6716309,4.05932617 C52.3859849,4.53540277 51.8601926,5.16064066 51.0942383,5.93505859 L49.0566406,7.99804688 L49.0566406,8.10595703 L53.2460938,8.10595703 L53.2460938,9.38183594 L47.0761719,9.38183594 L47.0761719,8.35351562 L50.1738281,5.12890625 C50.7832062,4.49413745 51.1894521,4.0148942 51.3925781,3.69116211 C51.5957041,3.36743002 51.6972656,3.03629727 51.6972656,2.69775391 C51.6972656,2.2788065 51.5385758,1.9296889 51.2211914,1.65039062 C50.903807,1.37109235 50.5081404,1.23144531 50.0341797,1.23144531 C49.5305964,1.23144531 49.1232926,1.38167167 48.8122559,1.68212891 C48.5012191,1.98258614 48.3457031,2.37825275 48.3457031,2.86914063 L48.3457031,2.88818359 L47,2.88818359 L47,2.86914063 Z" id="2" fill="#6B7280" transform="translate(50.123047, 4.690918) scale(-1, 1) translate(-50.123047, -4.690918) "></path>
                </g>
                <g id="Group-4-Copy-2" transform="translate(66.000000, 97.000000)">
                    <rect id="Rectangle" fill="#6B7280" x="10" y="7" width="28" height="2" rx="1"></rect>
                    <rect id="Rectangle" fill="#D2D6DC" x="0" y="12" width="56" height="2" rx="1"></rect>
                    <rect id="Rectangle" fill="#D2D6DC" x="0" y="17" width="52" height="2" rx="1"></rect>
                    <rect id="Rectangle" fill="#D2D6DC" x="0" y="22" width="39" height="2" rx="1"></rect>
                    <rect id="Rectangle" fill="#9FA6B2" x="0" y="27" width="7" height="2" rx="1"></rect>
                    <path d="M79,3 C79,1.3431 80.343,0 82,0 L144,0 C145.657,0 147,1.3431 147,3 L147,34 L79,34 L79,3 Z" id="Path" fill="#E5E7EB"></path>
                    <path d="M2.98974609,5.88671875 L2.98974609,4.71240234 L4.10058594,4.71240234 C4.59147381,4.71240234 4.99137215,4.57698703 5.30029297,4.30615234 C5.60921378,4.03531766 5.76367188,3.68408419 5.76367188,3.25244141 C5.76367188,2.82503042 5.61344551,2.48331834 5.31298828,2.22729492 C5.01253105,1.97127151 4.61263271,1.84326172 4.11328125,1.84326172 C3.61392979,1.84326172 3.21085765,1.97232944 2.90405273,2.23046875 C2.59724781,2.48860806 2.42480488,2.84407326 2.38671875,3.296875 L1.03466797,3.296875 C1.08121768,2.46744377 1.38378627,1.81364171 1.94238281,1.33544922 C2.50097936,0.857256724 3.23941598,0.618164062 4.15771484,0.618164062 C5.00830503,0.618164062 5.72240922,0.849851199 6.30004883,1.31323242 C6.87768844,1.77661365 7.16650391,2.35318666 7.16650391,3.04296875 C7.16650391,3.58040633 7.01945134,4.03954888 6.7253418,4.42041016 C6.43123225,4.80127144 6.03239184,5.04882755 5.52880859,5.16308594 L5.52880859,5.27099609 C6.15088202,5.34293656 6.64176252,5.57885542 7.00146484,5.97875977 C7.36116716,6.37866411 7.54101562,6.8854136 7.54101562,7.49902344 C7.54101562,8.01107027 7.39502099,8.47444454 7.10302734,8.88916016 C6.8110337,9.30387577 6.40796156,9.62971887 5.89379883,9.86669922 C5.3796361,10.1036796 4.80941068,10.222168 4.18310547,10.222168 C3.22248869,10.222168 2.43856098,9.97461185 1.83129883,9.47949219 C1.22403668,8.98437252 0.899251514,8.3284546 0.856933594,7.51171875 L2.22167969,7.51171875 C2.2682294,7.95605691 2.46817857,8.30940624 2.8215332,8.57177734 C3.17488783,8.83414845 3.62874072,8.96533203 4.18310547,8.96533203 C4.74170201,8.96533203 5.19872869,8.82145326 5.55419922,8.53369141 C5.90966975,8.24592955 6.08740234,7.87565331 6.08740234,7.42285156 C6.08740234,6.94889086 5.91390147,6.57438289 5.56689453,6.29931641 C5.21988759,6.02424993 4.74593399,5.88671875 4.14501953,5.88671875 L2.98974609,5.88671875 Z" id="3" fill="#6B7280"></path>
                </g>
            </g>
        </g>
    </g>
</svg>