<?xml version="1.0" encoding="UTF-8"?>
<svg width="280px" height="140px" viewBox="0 0 280 140" version="1.1" xmlns="http://www.w3.org/2000/svg" xmlns:xlink="http://www.w3.org/1999/xlink">
    <!-- Generator: Sketch 52.5 (67469) - http://www.bohemiancoding.com/sketch -->
    <title>navBar2</title>
    <desc>Created with Sketch.</desc>
    <g id="Page-1" stroke="none" stroke-width="1" fill="none" fill-rule="evenodd">
        <g id="Artboard" transform="translate(-879.000000, -298.000000)">
            <g id="navBar2" transform="translate(879.000000, 298.000000)">
                <rect id="Rectangle" fill="#FFFFFF" x="0" y="0" width="280" height="140"></rect>
                <rect id="Rectangle" fill="#F4F5F7" x="0" y="0" width="280" height="140"></rect>
                <rect id="Rectangle" fill="#E5E7EB" x="226" y="7" width="24" height="10" rx="3"></rect>
                <rect id="Rectangle" fill="#9FA6B2" x="232" y="11" width="12" height="2" rx="1"></rect>
                <rect id="Rectangle" fill="#D2D6DC" x="122" y="11" width="16" height="2" rx="1"></rect>
                <rect id="Rectangle" fill="#D2D6DC" x="148" y="11" width="16" height="2" rx="1"></rect>
                <rect id="Rectangle" fill="#D2D6DC" x="174" y="11" width="16" height="2" rx="1"></rect>
                <rect id="Rectangle" fill="#D2D6DC" x="200" y="11" width="16" height="2" rx="1"></rect>
                <circle id="Oval" fill="#6B7280" cx="34" cy="12" r="4"></circle>
                <g id="Group" transform="translate(121.000000, 16.000000)">
                    <path d="M1,10 C1,7.7909 2.791,6 5,6 L30,6 L35,1 L40,6 L125,6 C127.209,6 129,7.7909 129,10 L129,57 C129,59.2091 127.209,61 125,61 L5,61 C2.791,61 1,59.2091 1,57 L1,10 Z" id="Path" fill="#FFFFFF"></path>
                    <path d="M35.354,0.6464 L35,0.2929 L34.646,0.6464 L29.793,5.5 L5,5.5 C2.515,5.5 0.5,7.5147 0.5,10 L0.5,57 C0.5,59.4853 2.515,61.5 5,61.5 L125,61.5 C127.485,61.5 129.5,59.4853 129.5,57 L129.5,10 C129.5,7.5147 127.485,5.5 125,5.5 L40.207,5.5 L35.354,0.6464 Z" id="Path" stroke-opacity="0.04" stroke="#000000"></path>
                </g>
                <rect id="Rectangle" fill="#6B7280" x="130" y="30" width="31" height="2" rx="1"></rect>
                <rect id="Rectangle" fill="#6B7280" x="186" y="30" width="24" height="2" rx="1"></rect>
                <rect id="Rectangle" fill="#6B7280" x="130" y="46" width="32" height="2" rx="1"></rect>
                <rect id="Rectangle" fill="#6B7280" x="186" y="46" width="22" height="2" rx="1"></rect>
                <rect id="Rectangle" fill="#6B7280" x="130" y="62" width="26" height="2" rx="1"></rect>
                <rect id="Rectangle" fill="#6B7280" x="186" y="62" width="28" height="2" rx="1"></rect>
                <rect id="Rectangle" fill="#D2D6DC" x="130" y="35" width="40" height="2" rx="1"></rect>
                <rect id="Rectangle" fill="#D2D6DC" x="186" y="35" width="38" height="2" rx="1"></rect>
                <rect id="Rectangle" fill="#D2D6DC" x="130" y="51" width="42" height="2" rx="1"></rect>
                <rect id="Rectangle" fill="#D2D6DC" x="186" y="51" width="46" height="2" rx="1"></rect>
                <rect id="Rectangle" fill="#D2D6DC" x="130" y="67" width="40" height="2" rx="1"></rect>
                <rect id="Rectangle" fill="#D2D6DC" x="186" y="67" width="36" height="2" rx="1"></rect>
            </g>
        </g>
    </g>
</svg>