<?xml version="1.0" encoding="UTF-8"?>
<svg width="280px" height="140px" viewBox="0 0 280 140" version="1.1" xmlns="http://www.w3.org/2000/svg" xmlns:xlink="http://www.w3.org/1999/xlink">
    <!-- Generator: Sketch 63 (92445) - https://sketch.com -->
    <title>pricing</title>
    <desc>Created with Sketch.</desc>
    <g id="Page-1" stroke="none" stroke-width="1" fill="none" fill-rule="evenodd">
        <g id="Artboard" transform="translate(-892.000000, -528.000000)">
            <g id="pricing" transform="translate(892.000000, 528.000000)">
                <rect id="Rectangle" fill="#323452" x="0" y="0" width="280" height="140"></rect>
                <rect id="Rectangle" fill="#323452" x="0" y="0" width="280" height="140"></rect>
                <polygon id="Path" fill-opacity="0.163406906" fill="#FFFFFF" points="0 0 280 0 280 90 0 90"></polygon>
                <rect id="Rectangle" fill="#323452" x="62" y="6" width="8" height="8" rx="4"></rect>
                <rect id="Rectangle" fill-opacity="0.354212194" fill="#FFFFFF" x="202" y="10" width="16" height="2" rx="1"></rect>
                <rect id="Rectangle" fill-opacity="0.354212194" fill="#FFFFFF" x="178" y="10" width="16" height="2" rx="1"></rect>
                <rect id="Rectangle" fill-opacity="0.354212194" fill="#FFFFFF" x="154" y="10" width="16" height="2" rx="1"></rect>
                <g id="Group" transform="translate(157.000000, 52.000000)">
                    <path d="M1,1 L57,1 C59.209,1 61,2.7909 61,5 L61,70 C61,72.209 59.209,74 57,74 L1,74 L1,1 Z" id="Path" fill="#323452"></path>
                    <path d="M1,0.5 L0.5,0.5 L0.5,1 L0.5,74 L0.5,74.5 L1,74.5 L57,74.5 C59.485,74.5 61.5,72.485 61.5,70 L61.5,5 C61.5,2.5147 59.485,0.5 57,0.5 L1,0.5 Z" id="Path" stroke-opacity="0.04" stroke="#FFFFFF"></path>
                </g>
                <g id="Group" transform="translate(61.000000, 52.000000)">
                    <path d="M1,5 C1,2.7909 2.7909,1 5,1 L61,1 L61,74 L5,74 C2.7909,74 1,72.209 1,70 L1,5 Z" id="Path" fill="#323452"></path>
                    <path d="M61.5,1 L61.5,0.5 L61,0.5 L5,0.5 C2.5147,0.5 0.5,2.5147 0.5,5 L0.5,70 C0.5,72.485 2.5147,74.5 5,74.5 L61,74.5 L61.5,74.5 L61.5,74 L61.5,1 Z" id="Path" stroke-opacity="0.04" stroke="#FFFFFF"></path>
                </g>
                <g id="Group" transform="translate(107.000000, 46.000000)">
                    <rect id="Rectangle" fill="#323452" x="1" y="1" width="64" height="85" rx="4"></rect>
                    <rect id="Rectangle" stroke-opacity="0.04" stroke="#FFFFFF" x="0.5" y="0.5" width="65" height="86" rx="4.5"></rect>
                </g>
                <rect id="Rectangle" fill="#323452" x="95" y="23" width="92" height="3" rx="1.5"></rect>
                <rect id="Rectangle" fill-opacity="0.354212194" fill="#FFFFFF" x="93" y="31" width="95" height="2" rx="1"></rect>
                <rect id="Rectangle" fill-opacity="0.354212194" fill="#FFFFFF" x="99" y="37" width="84" height="2" rx="1"></rect>
                <rect id="Rectangle" fill-opacity="0.651852054" fill="#FFFFFF" x="129" y="55" width="24" height="2" rx="1"></rect>
                <rect id="Rectangle" fill-opacity="0.651852054" fill="#FFFFFF" x="187" y="61" width="16" height="2" rx="1"></rect>
                <rect id="Rectangle" fill-opacity="0.651852054" fill="#FFFFFF" x="77" y="61" width="16" height="2" rx="1"></rect>
                <path d="M125.667,72 L126.401,72 L126.405,71.1211 C128.057,71 129.002,70.0547 129.002,68.7891 C129.002,67.3477 127.717,66.7891 126.702,66.5391 L126.417,66.4648 L126.424,63.957 C127.155,64.0547 127.655,64.4609 127.729,65.1016 L128.893,65.1016 C128.862,63.9102 127.877,63.0195 126.428,62.9023 L126.432,62 L125.698,62 L125.694,62.9102 C124.292,63.0508 123.264,63.9258 123.264,65.1875 C123.264,66.3008 124.061,66.9531 125.346,67.3008 L125.682,67.3906 L125.674,70.0508 C124.913,69.957 124.323,69.543 124.26,68.7891 L123.049,68.7891 C123.124,70.1367 124.096,71.0039 125.67,71.1211 L125.667,72 Z M126.409,70.0508 L126.417,67.5937 C127.209,67.8125 127.807,68.1016 127.807,68.7773 C127.807,69.4609 127.237,69.9414 126.409,70.0508 Z M125.686,66.2695 C125.104,66.0977 124.463,65.7891 124.467,65.1172 C124.467,64.5312 124.932,64.0742 125.69,63.9609 L125.686,66.2695 Z M130.335,71 L135.601,71 L135.601,69.9648 L132,69.9648 L132,69.9062 L133.589,68.2422 C135.054,66.7617 135.472,66.0547 135.472,65.1602 C135.472,63.875 134.425,62.8906 132.917,62.8906 C131.421,62.8906 130.328,63.8594 130.328,65.3203 L131.48,65.3203 C131.476,64.4609 132.031,63.8984 132.894,63.8984 C133.707,63.8984 134.324,64.3984 134.324,65.1953 C134.324,65.9023 133.902,66.4102 133.042,67.3203 L130.335,70.125 L130.335,71 Z M139.867,71.1328 C141.714,71.1328 142.796,69.625 142.796,67.0039 C142.796,64.4023 141.699,62.8906 139.867,62.8906 C138.031,62.8906 136.937,64.3984 136.933,67.0039 C136.933,69.6211 138.015,71.1289 139.867,71.1328 Z M139.867,70.0898 C138.785,70.0898 138.132,69.0039 138.132,67.0039 C138.136,65.0117 138.789,63.9141 139.867,63.9141 C140.941,63.9141 141.597,65.0117 141.597,67.0039 C141.597,69.0039 140.945,70.0898 139.867,70.0898 Z M146.967,71.1328 C148.815,71.1328 149.897,69.625 149.897,67.0039 C149.897,64.4023 148.799,62.8906 146.967,62.8906 C145.131,62.8906 144.038,64.3984 144.034,67.0039 C144.034,69.6211 145.116,71.1289 146.967,71.1328 Z M146.967,70.0898 C145.885,70.0898 145.233,69.0039 145.233,67.0039 C145.237,65.0117 145.889,63.9141 146.967,63.9141 C148.042,63.9141 148.698,65.0117 148.698,67.0039 C148.698,69.0039 148.045,70.0898 146.967,70.0898 Z" id="Shape" fill-opacity="0.610085227" fill="#FFFFFF" fill-rule="nonzero"></path>
                <rect id="Rectangle" fill-opacity="0.354212194" fill="#FFFFFF" x="153" y="66" width="8" height="2" rx="1"></rect>
                <path d="M182.605,77.8182 L183.206,77.8182 L183.21,77.0991 C184.561,77 185.335,76.2266 185.335,75.1911 C185.335,74.0117 184.283,73.5547 183.452,73.3501 L183.219,73.2894 L183.225,71.2376 C183.823,71.3175 184.232,71.6499 184.293,72.174 L185.245,72.174 C185.22,71.1992 184.414,70.4705 183.229,70.3746 L183.232,69.6364 L182.631,69.6364 L182.628,70.381 C181.48,70.4961 180.64,71.212 180.64,72.2443 C180.64,73.1552 181.292,73.6889 182.343,73.9734 L182.618,74.0469 L182.612,76.2234 C181.989,76.1467 181.506,75.8079 181.455,75.1911 L180.464,75.1911 C180.525,76.2937 181.321,77.0032 182.609,77.0991 L182.605,77.8182 Z M183.213,76.2234 L183.219,74.2131 C183.868,74.392 184.357,74.6286 184.357,75.1815 C184.357,75.7408 183.89,76.1339 183.213,76.2234 Z M182.621,73.1296 C182.145,72.989 181.621,72.7365 181.624,72.1868 C181.624,71.7074 182.005,71.3335 182.625,71.2408 L182.621,73.1296 Z M188.586,77.0895 C189.903,77.0895 190.842,76.1594 190.839008,74.8842 C190.842,73.6186 189.96,72.6982 188.768,72.6982 C188.282,72.6982 187.832,72.8835 187.576,73.1328 L187.538,73.1328 L187.745,71.3015 L190.523,71.3015 L190.523,70.4545 L186.924,70.4545 L186.557,73.7528 L187.461,73.8871 C187.707,73.6665 188.148,73.5163 188.544,73.5163 C189.321,73.5227 189.884,74.1044 189.884,74.9034 C189.884,75.6896 189.337,76.2585 188.586,76.2585 C187.953,76.2585 187.451,75.8558 187.4,75.2933 L186.441,75.2933 C186.48,76.3352 187.384,77.0895 188.586,77.0895 Z M194.285,77.1087 C195.797,77.1087 196.682,75.875 196.682,73.7305 C196.682,71.6019 195.784,70.3651 194.285,70.3651 C192.783,70.3651 191.888,71.5987 191.885,73.7305 C191.885,75.8718 192.77,77.1055 194.285,77.1087 Z M194.285,76.2553 C193.4,76.2553 192.866,75.3668 192.866,73.7305 C192.869,72.1005 193.403,71.2024 194.285,71.2024 C195.164,71.2024 195.701,72.1005 195.701,73.7305 C195.701,75.3668 195.167,76.2553 194.285,76.2553 Z M200.095,77.1087 C201.607,77.1087 202.492,75.875 202.492,73.7305 C202.492,71.6019 201.594,70.3651 200.095,70.3651 C198.593,70.3651 197.698,71.5987 197.695,73.7305 C197.695,75.8718 198.58,77.1055 200.095,77.1087 Z M200.095,76.2553 C199.21,76.2553 198.676,75.3668 198.676,73.7305 C198.679,72.1005 199.213,71.2024 200.095,71.2024 C200.974,71.2024 201.511,72.1005 201.511,73.7305 C201.511,75.3668 200.977,76.2553 200.095,76.2553 Z" id="Shape" fill-opacity="0.610085227" fill="#FFFFFF" fill-rule="nonzero"></path>
                <rect id="Rectangle" fill-opacity="0.354212194" fill="#FFFFFF" x="205" y="73" width="6" height="2" rx="1"></rect>
                <path d="M73.769,77.8182 L74.3699,77.8182 L74.3731,77.0991 C75.725,77 76.4984,76.2266 76.4984,75.1911 C76.4984,74.0117 75.447,73.5547 74.616,73.3501 L74.3827,73.2894 L74.3891,71.2376 C74.9867,71.3175 75.3958,71.6499 75.4565,72.174 L76.409,72.174 C76.3834,71.1992 75.578,70.4705 74.3923,70.3746 L74.3955,69.6364 L73.7946,69.6364 L73.7914,70.381 C72.644,70.4961 71.8035,71.212 71.8035,72.2443 C71.8035,73.1552 72.4555,73.6889 73.507,73.9734 L73.7818,74.0469 L73.7754,76.2234 C73.1522,76.1467 72.6696,75.8079 72.6185,75.1911 L71.6277,75.1911 C71.6884,76.2937 72.4842,77.0032 73.7722,77.0991 L73.769,77.8182 Z M74.3763,76.2234 L74.3827,74.2131 C75.0315,74.392 75.5205,74.6286 75.5205,75.1815 C75.5205,75.7408 75.0538,76.1339 74.3763,76.2234 Z M73.785,73.1296 C73.3088,72.989 72.7847,72.7365 72.7879,72.1868 C72.7879,71.7074 73.1682,71.3335 73.7882,71.2408 L73.785,73.1296 Z M80.0724,70.4545 L79.1104,70.4545 L77.4772,71.522 L77.4772,72.468 L79.0433,71.4453 L79.0816,71.4453 L79.0816,77 L80.0724,77 L80.0724,70.4545 Z M84.1218,77.1087 C85.6335,77.1087 86.5188,75.875 86.5188,73.7305 C86.5188,71.6019 85.6207,70.3651 84.1218,70.3651 C82.6196,70.3651 81.7247,71.5987 81.7215,73.7305 C81.7215,75.8718 82.6068,77.1055 84.1218,77.1087 Z M84.1218,76.2553 C83.2365,76.2553 82.7027,75.3668 82.7027,73.7305 C82.7059,72.1005 83.2397,71.2024 84.1218,71.2024 C85.0007,71.2024 85.5376,72.1005 85.5376,73.7305 C85.5376,75.3668 85.0039,76.2553 84.1218,76.2553 Z M89.9313,77.1087 C91.443,77.1087 92.3283,75.875 92.3283,73.7305 C92.3283,71.6019 91.4303,70.3651 89.9313,70.3651 C88.4292,70.3651 87.5343,71.5987 87.5311,73.7305 C87.5311,75.8718 88.4164,77.1055 89.9313,77.1087 Z M89.9313,76.2553 C89.046,76.2553 88.5123,75.3668 88.5123,73.7305 C88.5155,72.1005 89.0492,71.2024 89.9313,71.2024 C90.8102,71.2024 91.3472,72.1005 91.3472,73.7305 C91.3472,75.3668 90.8134,76.2553 89.9313,76.2553 Z" id="Shape" fill-opacity="0.610085227" fill="#FFFFFF" fill-rule="nonzero"></path>
                <rect id="Rectangle" fill-opacity="0.354212194" fill="#FFFFFF" x="95" y="73" width="6" height="2" rx="1"></rect>
                <rect id="Rectangle" fill-opacity="0.610085227" fill="#FFFFFF" x="117" y="113" width="46" height="10" rx="2"></rect>
                <rect id="Rectangle" fill-opacity="0.370875219" fill="#FFFFFF" x="178" y="108" width="34" height="10" rx="2"></rect>
                <rect id="Rectangle" fill-opacity="0.370875219" fill="#FFFFFF" x="68" y="108" width="34" height="10" rx="2"></rect>
                <rect id="Rectangle" fill-opacity="0.651852054" fill="#FFFFFF" x="131" y="117" width="18" height="2" rx="1"></rect>
                <rect id="Rectangle" fill-opacity="0.354212194" fill="#FFFFFF" x="186" y="112" width="18" height="2" rx="1"></rect>
                <rect id="Rectangle" fill-opacity="0.354212194" fill="#FFFFFF" x="76" y="112" width="18" height="2" rx="1"></rect>
                <rect id="Rectangle" fill-opacity="0.354212194" fill="#FFFFFF" x="123" y="82" width="32" height="2" rx="1"></rect>
                <rect id="Rectangle" fill-opacity="0.354212194" fill="#FFFFFF" x="123" y="89" width="40" height="2" rx="1"></rect>
                <rect id="Rectangle" fill-opacity="0.354212194" fill="#FFFFFF" x="123" y="96" width="35" height="2" rx="1"></rect>
                <rect id="Rectangle" fill-opacity="0.354212194" fill="#FFFFFF" x="123" y="103" width="27" height="2" rx="1"></rect>
                <circle id="Oval" fill-opacity="0.354212194" fill="#FFFFFF" cx="118" cy="97" r="1"></circle>
                <circle id="Oval" fill-opacity="0.354212194" fill="#FFFFFF" cx="118" cy="104" r="1"></circle>
                <circle id="Oval" fill-opacity="0.354212194" fill="#FFFFFF" cx="118" cy="90" r="1"></circle>
                <circle id="Oval" fill-opacity="0.354212194" fill="#FFFFFF" cx="118" cy="83" r="1"></circle>
                <rect id="Rectangle" fill-opacity="0.354212194" fill="#FFFFFF" x="184" y="86" width="24" height="2" rx="1"></rect>
                <rect id="Rectangle" fill-opacity="0.354212194" fill="#FFFFFF" x="184" y="92" width="28" height="2" rx="1"></rect>
                <rect id="Rectangle" fill-opacity="0.354212194" fill="#FFFFFF" x="184" y="98" width="19" height="2" rx="1"></rect>
                <circle id="Oval" fill-opacity="0.354212194" fill="#FFFFFF" cx="179" cy="99" r="1"></circle>
                <circle id="Oval" fill-opacity="0.354212194" fill="#FFFFFF" cx="179" cy="93" r="1"></circle>
                <circle id="Oval" fill-opacity="0.354212194" fill="#FFFFFF" cx="179" cy="87" r="1"></circle>
                <rect id="Rectangle" fill-opacity="0.354212194" fill="#FFFFFF" x="74" y="86" width="24" height="2" rx="1"></rect>
                <rect id="Rectangle" fill-opacity="0.354212194" fill="#FFFFFF" x="74" y="92" width="28" height="2" rx="1"></rect>
                <rect id="Rectangle" fill-opacity="0.354212194" fill="#FFFFFF" x="74" y="98" width="19" height="2" rx="1"></rect>
                <circle id="Oval" fill-opacity="0.354212194" fill="#FFFFFF" cx="69" cy="99" r="1"></circle>
                <circle id="Oval" fill-opacity="0.354212194" fill="#FFFFFF" cx="69" cy="93" r="1"></circle>
                <circle id="Oval" fill-opacity="0.354212194" fill="#FFFFFF" cx="69" cy="87" r="1"></circle>
            </g>
        </g>
    </g>
</svg>