<?xml version="1.0" encoding="UTF-8"?>
<svg width="280px" height="140px" viewBox="0 0 280 140" version="1.1" xmlns="http://www.w3.org/2000/svg" xmlns:xlink="http://www.w3.org/1999/xlink">
    <!-- Generator: Sketch 63 (92445) - https://sketch.com -->
    <title>stats</title>
    <desc>Created with Sketch.</desc>
    <defs>
        <rect id="path-1" x="0" y="0" width="280" height="140"></rect>
    </defs>
    <g id="Page-1" stroke="none" stroke-width="1" fill="none" fill-rule="evenodd">
        <g id="Artboard" transform="translate(-879.000000, -1054.000000)">
            <g id="stats" transform="translate(879.000000, 1054.000000)">
                <rect id="Rectangle" fill="#323452" x="0" y="0" width="280" height="140"></rect>
                <g id="Clipped">
                    <mask id="mask-2" fill="white">
                        <use xlink:href="#path-1"></use>
                    </mask>
                    <g id="Rectangle"></g>
                    <g id="Group" mask="url(#mask-2)">
                        <g transform="translate(0.000000, -1.000000)">
                            <rect id="Rectangle" stroke="none" fill="#323452" fill-rule="evenodd" x="0" y="1" width="280" height="140"></rect>
                            <g id="Group" stroke="none" stroke-width="1" fill="none" fill-rule="evenodd" transform="translate(59.000000, 0.000000)">
                                <rect id="Rectangle" fill="#323452" x="1" y="0.9921875" width="220" height="16.1159"></rect>
                                <rect id="Rectangle" stroke-opacity="0.05" stroke="#FFFFFF" x="0.5" y="0.492188" width="221" height="17.1159"></rect>
                            </g>
                            <rect id="Rectangle" stroke="none" fill-opacity="0.610085227" fill="#FFFFFF" fill-rule="evenodd" x="0" y="1" width="60" height="140"></rect>
                            <rect id="Rectangle" stroke="none" fill-opacity="0.162696678" fill="#FFFFFF" fill-rule="evenodd" x="0" y="1" width="60" height="16"></rect>
                            <circle id="Oval" stroke="none" fill-opacity="0.651852054" fill="#FFFFFF" fill-rule="evenodd" cx="12" cy="9" r="3"></circle>
                            <g id="Group" stroke="none" stroke-width="1" fill="none" fill-rule="evenodd" transform="translate(89.000000, 36.000000)">
                                <path d="M1,5 C1,2.7909 2.7909,1 5,1 L157,1 C159.209,1 161,2.7909 161,5 L161,21 C161,23.2091 159.209,25 157,25 L5,25 C2.7909,25 1,23.2091 1,21 L1,5 Z" id="Path" fill="#323452"></path>
                                <path d="M5,0.5 C2.5147,0.5 0.5,2.5147 0.5,5 L0.5,21 C0.5,23.4853 2.5147,25.5 5,25.5 L157,25.5 C159.485,25.5 161.5,23.4853 161.5,21 L161.5,5 C161.5,2.5147 159.485,0.5 157,0.5 L5,0.5 Z" id="Path" stroke-opacity="0.04" stroke="#FFFFFF"></path>
                            </g>
                            <g id="Group" stroke="none" stroke-width="1" fill="none" fill-rule="evenodd" transform="translate(89.000000, 68.000000)">
                                <path d="M1,5 C1,2.7909 2.7909,1 5,1 L157,1 C159.209,1 161,2.7909 161,5 L161,82 C161,84.209 159.209,86 157,86 L5,86 C2.7909,86 1,84.209 1,82 L1,5 Z" id="Path" fill="#323452"></path>
                                <path d="M5,0.5 C2.5147,0.5 0.5,2.5147 0.5,5 L0.5,82 C0.5,84.485 2.5147,86.5 5,86.5 L157,86.5 C159.485,86.5 161.5,84.485 161.5,82 L161.5,5 C161.5,2.5147 159.485,0.5 157,0.5 L5,0.5 Z" id="Path" stroke-opacity="0.04" stroke="#FFFFFF"></path>
                            </g>
                            <polyline id="Path" stroke-opacity="0.354212194" stroke="#FFFFFF" stroke-width="1" fill="none" stroke-linecap="round" stroke-linejoin="round" points="242 75 244 77 242 79"></polyline>
                            <polyline id="Path" stroke-opacity="0.354212194" stroke="#FFFFFF" stroke-width="1" fill="none" stroke-linecap="round" stroke-linejoin="round" points="242 91 244 93 242 95"></polyline>
                            <polyline id="Path" stroke-opacity="0.354212194" stroke="#FFFFFF" stroke-width="1" fill="none" stroke-linecap="round" stroke-linejoin="round" points="242 107 244 109 242 111"></polyline>
                            <polyline id="Path" stroke-opacity="0.354212194" stroke="#FFFFFF" stroke-width="1" fill="none" stroke-linecap="round" stroke-linejoin="round" points="242 123 244 125 242 127"></polyline>
                            <polyline id="Path" stroke-opacity="0.354212194" stroke="#FFFFFF" stroke-width="1" fill="none" stroke-linecap="round" stroke-linejoin="round" points="242 139 244 141 242 143"></polyline>
                            <rect id="Rectangle" stroke="none" fill-opacity="0.354212194" fill="#FFFFFF" fill-rule="evenodd" x="96" y="74" width="30" height="2" rx="1"></rect>
                            <rect id="Rectangle" stroke="none" fill-opacity="0.354212194" fill="#FFFFFF" fill-rule="evenodd" x="170" y="74" width="35" height="2" rx="1"></rect>
                            <rect id="Rectangle" stroke="none" fill-opacity="0.354212194" fill="#FFFFFF" fill-rule="evenodd" x="96" y="90" width="40" height="2" rx="1"></rect>
                            <rect id="Rectangle" stroke="none" fill-opacity="0.354212194" fill="#FFFFFF" fill-rule="evenodd" x="170" y="90" width="30" height="2" rx="1"></rect>
                            <rect id="Rectangle" stroke="none" fill-opacity="0.354212194" fill="#FFFFFF" fill-rule="evenodd" x="96" y="106" width="35" height="2" rx="1"></rect>
                            <rect id="Rectangle" stroke="none" fill-opacity="0.354212194" fill="#FFFFFF" fill-rule="evenodd" x="96" y="122" width="35" height="2" rx="1"></rect>
                            <rect id="Rectangle" stroke="none" fill-opacity="0.354212194" fill="#FFFFFF" fill-rule="evenodd" x="96" y="138" width="35" height="2" rx="1"></rect>
                            <rect id="Rectangle" stroke="none" fill-opacity="0.354212194" fill="#FFFFFF" fill-rule="evenodd" x="170" y="106" width="37" height="2" rx="1"></rect>
                            <rect id="Rectangle" stroke="none" fill-opacity="0.354212194" fill="#FFFFFF" fill-rule="evenodd" x="170" y="122" width="37" height="2" rx="1"></rect>
                            <rect id="Rectangle" stroke="none" fill-opacity="0.354212194" fill="#FFFFFF" fill-rule="evenodd" x="170" y="138" width="37" height="2" rx="1"></rect>
                            <rect id="Rectangle" stroke="none" fill-opacity="0.354212194" fill="#FFFFFF" fill-rule="evenodd" x="96" y="79" width="24" height="2" rx="1"></rect>
                            <rect id="Rectangle" stroke="none" fill-opacity="0.354212194" fill="#FFFFFF" fill-rule="evenodd" x="170" y="79" width="17" height="2" rx="1"></rect>
                            <rect id="Rectangle" stroke="none" fill-opacity="0.354212194" fill="#FFFFFF" fill-rule="evenodd" x="96" y="95" width="20" height="2" rx="1"></rect>
                            <rect id="Rectangle" stroke="none" fill-opacity="0.354212194" fill="#FFFFFF" fill-rule="evenodd" x="170" y="95" width="24" height="2" rx="1"></rect>
                            <rect id="Rectangle" stroke="none" fill-opacity="0.354212194" fill="#FFFFFF" fill-rule="evenodd" x="96" y="111" width="25" height="2" rx="1"></rect>
                            <rect id="Rectangle" stroke="none" fill-opacity="0.354212194" fill="#FFFFFF" fill-rule="evenodd" x="96" y="127" width="25" height="2" rx="1"></rect>
                            <rect id="Rectangle" stroke="none" fill-opacity="0.354212194" fill="#FFFFFF" fill-rule="evenodd" x="170" y="111" width="22" height="2" rx="1"></rect>
                            <rect id="Rectangle" stroke="none" fill-opacity="0.354212194" fill="#FFFFFF" fill-rule="evenodd" x="170" y="127" width="22" height="2" rx="1"></rect>
                            <rect id="Rectangle" stroke="none" fill-opacity="0.370875219" fill="#FFFFFF" fill-rule="evenodd" x="90" y="85" width="160" height="1"></rect>
                            <rect id="Rectangle" stroke="none" fill-opacity="0.370875219" fill="#FFFFFF" fill-rule="evenodd" x="90" y="101" width="160" height="1"></rect>
                            <rect id="Rectangle" stroke="none" fill-opacity="0.370875219" fill="#FFFFFF" fill-rule="evenodd" x="90" y="117" width="160" height="1"></rect>
                            <rect id="Rectangle" stroke="none" fill-opacity="0.370875219" fill="#FFFFFF" fill-rule="evenodd" x="90" y="133" width="160" height="1"></rect>
                            <rect id="Rectangle" stroke="none" fill-opacity="0.370875219" fill="#FFFFFF" fill-rule="evenodd" x="143" y="37" width="1" height="24"></rect>
                            <rect id="Rectangle" stroke="none" fill-opacity="0.370875219" fill="#FFFFFF" fill-rule="evenodd" x="197" y="37" width="1" height="24"></rect>
                            <rect id="Rectangle" stroke="none" fill-opacity="0.354212194" fill="#FFFFFF" fill-rule="evenodd" x="96" y="43" width="20" height="2" rx="1"></rect>
                            <rect id="Rectangle" stroke="none" fill-opacity="0.354212194" fill="#FFFFFF" fill-rule="evenodd" x="150" y="43" width="20" height="2" rx="1"></rect>
                            <rect id="Rectangle" stroke="none" fill-opacity="0.354212194" fill="#FFFFFF" fill-rule="evenodd" x="204" y="43" width="20" height="2" rx="1"></rect>
                            <rect id="Rectangle" stroke="none" fill="#067F7F" fill-rule="evenodd" x="118" y="51" width="12" height="2" rx="1"></rect>
                            <rect id="Rectangle" stroke="none" fill="#CE3B72" fill-rule="evenodd" x="172" y="51" width="12" height="2" rx="1"></rect>
                            <rect id="Rectangle" stroke="none" fill="#CE3B72" fill-rule="evenodd" x="226" y="51" width="12" height="2" rx="1"></rect>
                            <path d="M96.5817,55 L101.069,55 L101.069,54.0092 L98.218,54.0092 L98.218,53.9645 L99.3462,52.8171 C100.618,51.5962 100.97,51.0018 100.97,50.2635 C100.97,49.1673 100.078,48.3651 98.7614,48.3651 C97.4638,48.3651 96.5433,49.1705 96.5433,50.4137 L97.6715,50.4137 C97.6715,49.7457 98.0934,49.3271 98.7454,49.3271 C99.3686,49.3271 99.832,49.7074 99.832,50.3242 C99.832,50.8707 99.4996,51.2607 98.854,51.9158 L96.5817,54.1435 L96.5817,55 Z M104.447,55.0895 C105.831,55.0895 106.796,54.1499 106.796,52.8491 C106.796,51.5898 105.92,50.6822 104.732,50.6822 C104.201,50.6822 103.731,50.8931 103.488,51.1808 L103.45,51.1808 L103.638,49.4453 L106.454,49.4453 L106.454,48.4545 L102.657,48.4545 L102.315,51.8295 L103.386,52.0053 C103.607,51.7624 104.022,51.5994 104.415,51.6026 C105.134,51.6058 105.652,52.1364 105.649,52.8778 C105.652,53.6097 105.147,54.1307 104.447,54.1307 C103.856,54.1307 103.38,53.7567 103.338,53.2198 L102.188,53.2198 C102.219,54.3065 103.169,55.0895 104.447,55.0895 Z M111.366,53.7727 C111.37,54.5334 111.852,55.1822 112.75,55.1822 C113.645,55.1822 114.137,54.5334 114.134014,53.7727 L114.134014,53.4276 C114.137,52.6605 113.658,52.0181 112.75,52.0181 C111.865,52.0181 111.37,52.6669 111.366,53.4276 L111.366,53.7727 Z M108.039,50.027 C108.043,50.7876 108.525,51.43 109.426,51.43 C110.318,51.43 110.81,50.794 110.807014,50.027 L110.807014,49.6818 C110.81,48.9148 110.331,48.2724 109.426,48.2724 C108.544,48.2724 108.043,48.9148 108.039,49.6818 L108.039,50.027 Z M108.327,55 L109.129,55 L113.629,48.4545 L112.827,48.4545 L108.327,55 Z M112.201,53.4276 C112.204,53.0888 112.348,52.7468 112.75,52.7468 C113.172,52.7468 113.297,53.0888 113.294,53.4276 L113.294,53.7727 C113.297,54.1115 113.159,54.4471 112.75,54.4471 C112.341,54.4471 112.204,54.1083 112.201,53.7727 L112.201,53.4276 Z M108.88,49.6818 C108.883,49.3462 109.021,49.0011 109.426,49.0011 C109.848,49.0011 109.97,49.343 109.967,49.6818 L109.967,50.027 C109.97,50.3658 109.836,50.7013 109.426,50.7013 C109.017,50.7013 108.883,50.3658 108.88,50.027 L108.88,49.6818 Z" id="Shape" stroke="none" fill-opacity="0.651852054" fill="#FFFFFF" fill-rule="nonzero"></path>
                            <path d="M152.931,55.0895 C154.331,55.0895 155.35,54.2873 155.347013,53.1815 C155.35,52.3633 154.839,51.7752 153.922,51.6442 L153.922,51.593 C154.631,51.4396 155.107,50.9123 155.104,50.1772 C155.107,49.18 154.257,48.3651 152.95,48.3651 C151.678,48.3651 150.694,49.1225 150.668,50.2188 L151.809,50.2188 C151.828,49.669 152.339,49.3271 152.944,49.3271 C153.554,49.3271 153.96,49.6978 153.957,50.2475 C153.96,50.8196 153.487,51.1999 152.809,51.1999 L152.231,51.1999 L152.231,52.114 L152.809,52.114 C153.637,52.114 154.129,52.5295 154.126,53.1207 C154.129,53.6992 153.627,54.0955 152.928,54.0955 C152.269,54.0955 151.761,53.7536 151.732,53.2198 L150.531,53.2198 C150.562,54.3256 151.55,55.0895 152.931,55.0895 Z M158.863,55.1246061 C160.442,55.1278 161.385,53.8814 161.385,51.7337 C161.385,49.5987 160.436,48.3651 158.863,48.3651 C157.291,48.3651 156.345,49.5955 156.342,51.7337 C156.342,53.8782 157.285,55.1246061 158.863,55.1246061 Z M158.863,54.1243 C158.048,54.1243 157.537,53.3061 157.539987,51.7337 C157.543,50.174 158.052,49.3526 158.863,49.3526 C159.678,49.3526 160.187,50.174 160.19,51.7337 C160.19,53.3061 159.682,54.1243 158.863,54.1243 Z M165.947,53.7727 C165.95,54.5334 166.432,55.1822 167.33,55.1822 C168.225,55.1822 168.718,54.5334 168.714025,53.7727 L168.714025,53.4276 C168.718,52.6605 168.238,52.0181 167.33,52.0181 C166.445,52.0181 165.95,52.6669 165.947,53.4276 L165.947,53.7727 Z M162.619,50.027 C162.623,50.7876 163.105,51.43 164.007,51.43 C164.898,51.43 165.39,50.794 165.387014,50.027 L165.387014,49.6818 C165.39,48.9148 164.911,48.2724 164.007,48.2724 C163.124,48.2724 162.623,48.9148 162.619,49.6818 L162.619,50.027 Z M162.907,55 L163.709,55 L168.209,48.4545 L167.407,48.4545 L162.907,55 Z M166.781,53.4276 C166.784,53.0888 166.928,52.7468 167.33,52.7468 C167.752,52.7468 167.877,53.0888 167.874,53.4276 L167.874,53.7727 C167.877,54.1115 167.74,54.4471 167.33,54.4471 C166.921,54.4471 166.784,54.1083 166.781,53.7727 L166.781,53.4276 Z M163.46,49.6818 C163.463,49.3462 163.601,49.0011 164.007,49.0011 C164.428,49.0011 164.55,49.343 164.547,49.6818 L164.547,50.027 C164.55,50.3658 164.416,50.7013 164.007,50.7013 C163.597,50.7013 163.463,50.3658 163.46,50.027 L163.46,49.6818 Z" id="Shape" stroke="none" fill-opacity="0.651852054" fill="#FFFFFF" fill-rule="nonzero"></path>
                            <path d="M204.463,53.7855 L207.586,53.7855 L207.586,55 L208.717,55 L208.717,53.7855 L209.555,53.7855 L209.555,52.8107 L208.717,52.8107 L208.717,48.4545 L207.241,48.4545 L204.463,52.8427 L204.463,53.7855 Z M207.599,52.8107 L205.678,52.8107 L205.678,52.7596 L207.548,49.7969 L207.599,49.7969 L207.599,52.8107 Z M212.851,55.0895 C214.235,55.0895 215.2,54.1499 215.2,52.8491 C215.2,51.5898 214.325,50.6822 213.136,50.6822 C212.605,50.6822 212.135,50.8931 211.893,51.1808 L211.854,51.1808 L212.043,49.4453 L214.858,49.4453 L214.858,48.4545 L211.062,48.4545 L210.72,51.8295 L211.79,52.0053 C212.011,51.7624 212.426,51.5994 212.819,51.6026 C213.539,51.6058 214.056,52.1364 214.053,52.8778 C214.056,53.6097 213.551,54.1307 212.851,54.1307 C212.26,54.1307 211.784,53.7567 211.742,53.2198 L210.592,53.2198 C210.624,54.3065 211.573,55.0895 212.851,55.0895 Z M219.771,53.7727 C219.774,54.5334 220.257,55.1822 221.155,55.1822 C222.05,55.1822 222.542,54.5334 222.539014,53.7727 L222.539014,53.4276 C222.542,52.6605 222.062,52.0181 221.155,52.0181 C220.269,52.0181 219.774,52.6669 219.771,53.4276 L219.771,53.7727 Z M216.444,50.027 C216.447,50.7876 216.93,51.43 217.831,51.43 C218.722,51.43 219.215,50.794 219.211025,50.027 L219.211025,49.6818 C219.215,48.9148 218.735,48.2724 217.831,48.2724 C216.949,48.2724 216.447,48.9148 216.444,49.6818 L216.444,50.027 Z M216.731,55 L217.534,55 L222.034,48.4545 L221.231,48.4545 L216.731,55 Z M220.605,53.4276 C220.608,53.0888 220.752,52.7468 221.155,52.7468 C221.577,52.7468 221.701,53.0888 221.698,53.4276 L221.698,53.7727 C221.701,54.1115 221.564,54.4471 221.155,54.4471 C220.746,54.4471 220.608,54.1083 220.605,53.7727 L220.605,53.4276 Z M217.284,49.6818 C217.287,49.3462 217.425,49.0011 217.831,49.0011 C218.253,49.0011 218.374,49.343 218.371,49.6818 L218.371,50.027 C218.374,50.3658 218.24,50.7013 217.831,50.7013 C217.422,50.7013 217.287,50.3658 217.284,50.027 L217.284,49.6818 Z" id="Shape" stroke="none" fill-opacity="0.651852054" fill="#FFFFFF" fill-rule="nonzero"></path>
                            <rect id="Rectangle" stroke="none" fill-opacity="0.651852054" fill="#FFFFFF" fill-rule="evenodd" x="90" y="25" width="30" height="4" rx="2"></rect>
                            <rect id="Rectangle" stroke="none" fill-opacity="0.651852054" fill="#FFFFFF" fill-rule="evenodd" x="9" y="25" width="20" height="2" rx="1"></rect>
                            <rect id="Rectangle" stroke="none" fill-opacity="0.651852054" fill="#FFFFFF" fill-rule="evenodd" x="9" y="33" width="24" height="2" rx="1"></rect>
                            <rect id="Rectangle" stroke="none" fill-opacity="0.651852054" fill="#FFFFFF" fill-rule="evenodd" x="9" y="41" width="19" height="2" rx="1"></rect>
                            <rect id="Rectangle" stroke="none" fill-opacity="0.651852054" fill="#FFFFFF" fill-rule="evenodd" x="9" y="49" width="23" height="2" rx="1"></rect>
                            <rect id="Rectangle" stroke="none" fill-opacity="0.651852054" fill="#FFFFFF" fill-rule="evenodd" x="9" y="57" width="16" height="2" rx="1"></rect>
                        </g>
                    </g>
                </g>
            </g>
        </g>
    </g>
</svg>