<?xml version="1.0" encoding="UTF-8"?>
<svg width="280px" height="140px" viewBox="0 0 280 140" version="1.1" xmlns="http://www.w3.org/2000/svg" xmlns:xlink="http://www.w3.org/1999/xlink">
    <!-- Generator: Sketch 63 (92445) - https://sketch.com -->
    <title>team</title>
    <desc>Created with Sketch.</desc>
    <g id="Page-1" stroke="none" stroke-width="1" fill="none" fill-rule="evenodd">
        <g id="Artboard" transform="translate(-879.000000, -824.000000)">
            <g id="team" transform="translate(879.000000, 824.000000)">
                <rect id="Rectangle" fill="#323452" x="0" y="0" width="280" height="140"></rect>
                <rect id="Rectangle" fill="#323452" x="0" y="0" width="280" height="140"></rect>
                <g id="Group-5" transform="translate(22.000000, 48.000000)">
                    <g id="Group">
                        <rect id="Rectangle" fill="#323452" x="1" y="1" width="68" height="59" rx="3"></rect>
                        <rect id="Rectangle" stroke-opacity="0.394203453" stroke="#FFFFFF" x="0.5" y="0.5" width="69" height="60" rx="3.5"></rect>
                    </g>
                    <rect id="Rectangle" fill-opacity="0.354212194" fill="#FFFFFF" x="17" y="42" width="36" height="2" rx="1"></rect>
                    <rect id="Rectangle" fill-opacity="0.354212194" fill="#FFFFFF" x="11" y="48" width="48" height="2" rx="1"></rect>
                    <ellipse id="Oval" fill-opacity="0.370875219" fill="#FFFFFF" cx="35" cy="23.0001" rx="12" ry="12.0001"></ellipse>
                    <path d="M25.0771,29.7543 C27.722,27.4179 31.1973,26 35.0038,26 C38.8064,26 42.2784,27.4149 44.9223,29.747 C42.7625,32.9179 39.123,35.0001 34.9972,35.0001 C30.8746,35.0001 27.2375,32.9211 25.0771,29.7543 Z" id="Path" fill-opacity="0.354212194" fill="#FFFFFF" opacity="0.8"></path>
                    <ellipse id="Oval" fill-opacity="0.354212194" fill="#FFFFFF" cx="35.001" cy="19.9922" rx="4" ry="4.00003"></ellipse>
                </g>
                <g id="Group-5-Copy" transform="translate(102.000000, 48.000000)">
                    <g id="Group">
                        <rect id="Rectangle" fill="#323452" x="1" y="1" width="68" height="59" rx="3"></rect>
                        <rect id="Rectangle" stroke-opacity="0.394203453" stroke="#FFFFFF" x="0.5" y="0.5" width="69" height="60" rx="3.5"></rect>
                    </g>
                    <rect id="Rectangle" fill-opacity="0.354212194" fill="#FFFFFF" x="17" y="42" width="36" height="2" rx="1"></rect>
                    <rect id="Rectangle" fill-opacity="0.354212194" fill="#FFFFFF" x="11" y="48" width="48" height="2" rx="1"></rect>
                    <ellipse id="Oval" fill-opacity="0.370875219" fill="#FFFFFF" cx="35" cy="23.0001" rx="12" ry="12.0001"></ellipse>
                    <path d="M25.0771,29.7543 C27.722,27.4179 31.1973,26 35.0038,26 C38.8064,26 42.2784,27.4149 44.9223,29.747 C42.7625,32.9179 39.123,35.0001 34.9972,35.0001 C30.8746,35.0001 27.2375,32.9211 25.0771,29.7543 Z" id="Path" fill-opacity="0.354212194" fill="#FFFFFF" opacity="0.8"></path>
                    <ellipse id="Oval" fill-opacity="0.354212194" fill="#FFFFFF" cx="35.001" cy="19.9922" rx="4" ry="4.00003"></ellipse>
                </g>
                <g id="Group-5-Copy-2" transform="translate(184.000000, 48.000000)">
                    <g id="Group">
                        <rect id="Rectangle" fill="#323452" x="1" y="1" width="68" height="59" rx="3"></rect>
                        <rect id="Rectangle" stroke-opacity="0.394203453" stroke="#FFFFFF" x="0.5" y="0.5" width="69" height="60" rx="3.5"></rect>
                    </g>
                    <rect id="Rectangle" fill-opacity="0.354212194" fill="#FFFFFF" x="17" y="42" width="36" height="2" rx="1"></rect>
                    <rect id="Rectangle" fill-opacity="0.354212194" fill="#FFFFFF" x="11" y="48" width="48" height="2" rx="1"></rect>
                    <ellipse id="Oval" fill-opacity="0.370875219" fill="#FFFFFF" cx="35" cy="23.0001" rx="12" ry="12.0001"></ellipse>
                    <path d="M25.0771,29.7543 C27.722,27.4179 31.1973,26 35.0038,26 C38.8064,26 42.2784,27.4149 44.9223,29.747 C42.7625,32.9179 39.123,35.0001 34.9972,35.0001 C30.8746,35.0001 27.2375,32.9211 25.0771,29.7543 Z" id="Path" fill-opacity="0.354212194" fill="#FFFFFF" opacity="0.8"></path>
                    <ellipse id="Oval" fill-opacity="0.354212194" fill="#FFFFFF" cx="35.001" cy="19.9922" rx="4" ry="4.00003"></ellipse>
                </g>
                <rect id="Rectangle" fill-opacity="0.651852054" fill="#FFFFFF" x="102" y="23" width="76" height="3" rx="1.5"></rect>
                <rect id="Rectangle" fill-opacity="0.354212194" fill="#FFFFFF" x="84" y="30" width="111" height="2" rx="1"></rect>
                <rect id="Rectangle" fill-opacity="0.354212194" fill="#FFFFFF" x="90" y="35" width="100" height="2" rx="1"></rect>
            </g>
        </g>
    </g>
</svg>