<?xml version="1.0" encoding="UTF-8"?>
<svg width="280px" height="140px" viewBox="0 0 280 140" version="1.1" xmlns="http://www.w3.org/2000/svg" xmlns:xlink="http://www.w3.org/1999/xlink">
    <!-- Generator: Sketch 52.5 (67469) - http://www.bohemiancoding.com/sketch -->
    <title>topBanner</title>
    <desc>Created with Sketch.</desc>
    <g id="Page-1" stroke="none" stroke-width="1" fill="none" fill-rule="evenodd">
        <g id="Artboard" transform="translate(-65.000000, -53.000000)">
            <g id="topBanner" transform="translate(65.000000, 53.000000)">
                <rect id="Rectangle" fill="#FFFFFF" x="0" y="0" width="280" height="140"></rect>
                <rect id="Rectangle" fill="#F4F5F7" x="0" y="0" width="280" height="140"></rect>
                <rect id="Rectangle" fill="#4B5563" x="30" y="58" width="220" height="24" rx="4"></rect>
                <path d="M242,68 L238,72 M242,72 C239.657,69.6569 238,68 238,68" id="Shape" stroke="#FFFFFF" stroke-linecap="round"></path>
                <rect id="Rectangle" fill="#9FA6B2" x="56" y="69" width="104" height="2" rx="1"></rect>
                <path d="M42.1032,65.152 C42.7168,64.0301 44.2872,64.0301 44.9007,65.152 L49.3785,73.34 C49.9803,74.4403 49.2072,75.8 47.9798,75.8 L39.0242,75.8 C37.7967,75.8 37.0237,74.4403 37.6254,73.34 L42.1032,65.152 Z M44.3041,73.3244 C44.3041,73.7802 43.9449,74.1497 43.5017,74.1497 C43.0585,74.1497 42.6993,73.7802 42.6993,73.3244 C42.6993,72.8686 43.0585,72.499 43.5017,72.499 C43.9449,72.499 44.3041,72.8686 44.3041,73.3244 Z M43.5017,67.5466 C43.0585,67.5466 42.6993,67.9059 42.6993,68.349 L42.6993,70.0456 C42.6993,70.4888 43.0585,70.848 43.5017,70.848 C43.9449,70.848 44.3041,70.4888 44.3041,70.0456 L44.3041,68.349 C44.3041,67.9059 43.9449,67.5466 43.5017,67.5466 Z" id="Shape" fill="#D2D6DC"></path>
            </g>
        </g>
    </g>
</svg>