<?xml version="1.0" encoding="UTF-8"?>
<svg width="458px" height="62px" viewBox="0 0 458 62" version="1.1" xmlns="http://www.w3.org/2000/svg" xmlns:xlink="http://www.w3.org/1999/xlink">
    <!-- Generator: Sketch 63 (92445) - https://sketch.com -->
    <title>logo_white</title>
    <desc>Created with Sketch.</desc>
    <g id="Page-1" stroke="none" stroke-width="1" fill="none" fill-rule="evenodd">
        <g id="Artboard" transform="translate(-40.000000, -299.000000)" fill="#FFFFFF" fill-rule="nonzero">
            <g id="logo_white" transform="translate(40.000000, 299.000000)">
                <path d="M39.9,0 L55.1,0 C56.1493542,0 57,1.44644231 57,3.23076923 L57,24.7692308 C57,26.5535577 56.1493542,28 55.1,28 L39.9,28 C38.8506458,28 38,26.5535577 38,24.7692308 L38,3.23076923 C38,1.44644231 38.8506458,0 39.9,0 Z M28.8,0 L3.2,0 C1.43266667,0 0,1.44644231 0,3.23076923 L0,24.7692308 C0,26.5535577 1.43266667,28 3.2,28 L28.8,28 C30.5673333,28 32,26.5535577 32,24.7692308 L32,3.23076923 C32,1.44644231 30.5673333,0 28.8,0 Z M0,35.2564103 L0,48.0769231 C0,49.1390224 0.850645833,50 1.9,50 L17.1,50 C18.1493542,50 19,49.1390224 19,48.0769231 L19,35.2564103 C19,34.1943109 18.1493542,33.3333333 17.1,33.3333333 L1.9,33.3333333 C0.850645833,33.3333333 0,34.1943109 0,35.2564103 Z M28.2,50 L53.8,50 C55.5673333,50 57,49.1390224 57,48.0769231 L57,35.2564103 C57,34.1943109 55.5673333,33.3333333 53.8,33.3333333 L28.2,33.3333333 C26.4326667,33.3333333 25,34.1943109 25,35.2564103 L25,48.0769231 C25,49.1390224 26.4326667,50 28.2,50 Z" id="Shape"></path>
                <path d="M113.113281,49 L113.113281,43.0820312 L93.7480469,43.0820312 L93.7480469,6.34375 L86.3359375,6.34375 L86.3359375,49 L113.113281,49 Z M125.354357,49.5859375 C128.635607,49.5859375 131.409045,48.4042969 133.67467,46.0410156 C133.909045,47.4082031 134.182482,48.3945312 134.494982,49 L134.494982,49 L141.760607,49 L141.760607,48.5019531 C140.959826,46.8027344 140.559435,44.5273438 140.559435,41.6757812 L140.559435,41.6757812 L140.559435,27.3789062 C140.500842,24 139.368029,21.3779297 137.160998,19.5126953 C134.953967,17.6474609 131.994982,16.7148438 128.284045,16.7148438 C125.842638,16.7148438 123.630724,17.1445312 121.648302,18.0039062 C119.665881,18.8632812 118.098498,20.0498047 116.946154,21.5634766 C115.79381,23.0771484 115.217638,24.703125 115.217638,26.4414062 L115.217638,26.4414062 L122.336779,26.4414062 C122.336779,25.1914062 122.854357,24.1611328 123.889513,23.3505859 C124.92467,22.5400391 126.252795,22.1347656 127.873888,22.1347656 C129.748888,22.1347656 131.145373,22.6279297 132.063342,23.6142578 C132.98131,24.6005859 133.440295,25.9140625 133.440295,27.5546875 L133.440295,27.5546875 L133.440295,29.6347656 L129.07506,29.6347656 C124.407092,29.6347656 120.818224,30.5380859 118.308459,32.3447266 C115.798693,34.1513672 114.54381,36.7441406 114.54381,40.1230469 C114.54381,42.7988281 115.54967,45.0449219 117.561388,46.8613281 C119.573107,48.6777344 122.170763,49.5859375 125.354357,49.5859375 Z M126.672717,43.8730469 C125.149279,43.8730469 123.933459,43.4677734 123.025256,42.6572266 C122.117052,41.8466797 121.662951,40.7578125 121.662951,39.390625 C121.662951,37.7109375 122.327013,36.4121094 123.655138,35.4941406 C124.983263,34.5761719 126.965685,34.1171875 129.602404,34.1171875 L129.602404,34.1171875 L133.440295,34.1171875 L133.440295,40.09375 C132.815295,41.2460938 131.882677,42.1640625 130.642443,42.8476562 C129.402209,43.53125 128.078967,43.8730469 126.672717,43.8730469 Z M152.478246,49 L152.478246,26.4414062 C153.884496,23.84375 156.023167,22.5449219 158.894261,22.5449219 C160.866917,22.5449219 162.287816,23.0283203 163.156956,23.9951172 C164.026097,24.9619141 164.460667,26.4511719 164.460667,28.4628906 L164.460667,28.4628906 L164.460667,49 L171.579808,49 L171.579808,28.0527344 C171.462621,20.4941406 168.103246,16.7148438 161.501683,16.7148438 C157.693089,16.7148438 154.616917,18.1308594 152.273167,20.9628906 L152.273167,20.9628906 L152.068089,17.3007812 L145.359105,17.3007812 L145.359105,49 L152.478246,49 Z M187.395103,49.5859375 C190.94979,49.5859375 193.791587,48.296875 195.920493,45.71875 L195.920493,45.71875 L196.272056,49 L202.717368,49 L202.717368,4 L195.598228,4 L195.598228,20.2304688 C193.527915,17.8867188 190.813071,16.7148438 187.453696,16.7148438 C183.645103,16.7148438 180.607993,18.1943359 178.342368,21.1533203 C176.076743,24.1123047 174.943931,28.0332031 174.943931,32.9160156 C174.943931,38.0527344 176.091392,42.1152344 178.386314,45.1035156 C180.681235,48.0917969 183.684165,49.5859375 187.395103,49.5859375 Z M189.211509,43.7851562 C186.926353,43.7851562 185.163657,42.8818359 183.923423,41.0751953 C182.683189,39.2685547 182.063071,36.7539062 182.063071,33.53125 C182.063071,29.859375 182.688071,27.1103516 183.938071,25.2841797 C185.188071,23.4580078 186.965415,22.5449219 189.270103,22.5449219 C192.180259,22.5449219 194.289634,23.8144531 195.598228,26.3535156 L195.598228,26.3535156 L195.598228,39.8886719 C194.250571,42.4863281 192.121665,43.7851562 189.211509,43.7851562 Z M211.6186,12.8183594 C212.907663,12.8183594 213.903757,12.4619141 214.606882,11.7490234 C215.310007,11.0361328 215.661569,10.1425781 215.661569,9.06835938 C215.661569,7.97460938 215.310007,7.06640625 214.606882,6.34375 C213.903757,5.62109375 212.907663,5.25976562 211.6186,5.25976562 C210.329538,5.25976562 209.338327,5.62109375 208.644968,6.34375 C207.951608,7.06640625 207.604929,7.97460938 207.604929,9.06835938 C207.604929,10.1425781 207.951608,11.0361328 208.644968,11.7490234 C209.338327,12.4619141 210.329538,12.8183594 211.6186,12.8183594 Z M215.163522,49 L215.163522,17.3007812 L208.044382,17.3007812 L208.044382,49 L215.163522,49 Z M227.375301,49 L227.375301,26.4414062 C228.781551,23.84375 230.920223,22.5449219 233.791317,22.5449219 C235.763973,22.5449219 237.184872,23.0283203 238.054012,23.9951172 C238.923153,24.9619141 239.357723,26.4511719 239.357723,28.4628906 L239.357723,28.4628906 L239.357723,49 L246.476864,49 L246.476864,28.0527344 C246.359676,20.4941406 243.000301,16.7148438 236.398739,16.7148438 C232.590145,16.7148438 229.513973,18.1308594 227.170223,20.9628906 L227.170223,20.9628906 L226.965145,17.3007812 L220.256161,17.3007812 L220.256161,49 L227.375301,49 Z M263.522627,61.4804688 C267.917158,61.4804688 271.408369,60.2792969 273.99626,57.8769531 C276.584151,55.4746094 277.878096,52.1933594 277.878096,48.0332031 L277.878096,48.0332031 L277.878096,17.3007812 L271.46208,17.3007812 L271.139815,20.4941406 C269.069502,17.9746094 266.227705,16.7148438 262.614424,16.7148438 C258.786299,16.7148438 255.71501,18.1845703 253.400557,21.1240234 C251.086104,24.0634766 249.928877,27.9941406 249.928877,32.9160156 C249.928877,38.1308594 251.105635,42.2128906 253.459151,45.1621094 C255.812666,48.1113281 258.844893,49.5859375 262.55583,49.5859375 C265.973799,49.5859375 268.708174,48.4433594 270.758955,46.1582031 L270.758955,46.1582031 L270.758955,48.296875 C270.758955,50.7773438 270.075361,52.6572266 268.708174,53.9365234 C267.340986,55.2158203 265.475752,55.8554688 263.112471,55.8554688 C259.909346,55.8554688 257.214033,54.5566406 255.026533,51.9589844 L255.026533,51.9589844 L251.657393,56.2363281 C252.809737,57.7988281 254.494307,59.0634766 256.711104,60.0302734 C258.927901,60.9970703 261.198408,61.4804688 263.522627,61.4804688 Z M264.372237,43.7851562 C262.067549,43.7851562 260.265791,42.8720703 258.966963,41.0458984 C257.668135,39.2197266 257.018721,36.7148438 257.018721,33.53125 C257.018721,29.9179688 257.668135,27.1835938 258.966963,25.328125 C260.265791,23.4726562 262.08708,22.5449219 264.43083,22.5449219 C267.301924,22.5449219 269.411299,23.7460938 270.758955,26.1484375 L270.758955,26.1484375 L270.758955,40.09375 C269.372237,42.5546875 267.24333,43.7851562 264.372237,43.7851562 Z M311.266498,49 C316.051654,49 319.728412,47.9257812 322.296771,45.7773438 C324.86513,43.6289062 326.14931,40.5527344 326.14931,36.5488281 C326.14931,34.1269531 325.519427,32.0517578 324.259662,30.3232422 C322.999896,28.5947266 321.21767,27.4179688 318.912982,26.7929688 C320.944232,25.9335938 322.487201,24.7226562 323.541888,23.1601562 C324.596576,21.5976562 325.12392,19.8398438 325.12392,17.8867188 C325.12392,14.0585938 323.864154,11.1777344 321.344623,9.24414062 C318.825091,7.31054688 315.153216,6.34375 310.328998,6.34375 L310.328998,6.34375 L295.709857,6.34375 L295.709857,49 L311.266498,49 Z M310.387591,24.3027344 L303.121966,24.3027344 L303.121966,12.3203125 L310.328998,12.3203125 C312.86806,12.3203125 314.738177,12.7890625 315.939349,13.7265625 C317.140521,14.6640625 317.741107,16.1875 317.741107,18.296875 C317.741107,20.2109375 317.091693,21.6904297 315.792865,22.7353516 C314.494037,23.7802734 312.692279,24.3027344 310.387591,24.3027344 L310.387591,24.3027344 Z M311.354388,43.0820312 L303.121966,43.0820312 L303.121966,29.7519531 L311.969623,29.7519531 C316.500873,29.8496094 318.766498,32.1152344 318.766498,36.5488281 C318.766498,38.5996094 318.112201,40.2011719 316.803607,41.3535156 C315.495013,42.5058594 313.678607,43.0820312 311.354388,43.0820312 L311.354388,43.0820312 Z M337.892339,49 L337.892339,4 L330.773199,4 L330.773199,49 L337.892339,49 Z M356.520134,49.5859375 C359.449821,49.5859375 362.032829,48.9121094 364.269157,47.5644531 C366.505485,46.2167969 368.224235,44.3125 369.425407,41.8515625 C370.626579,39.390625 371.227165,36.5976562 371.227165,33.4726562 L371.227165,33.4726562 L371.197868,31.8027344 C370.983024,27.2519531 369.542595,23.5996094 366.876579,20.8457031 C364.210563,18.0917969 360.738884,16.7148438 356.46154,16.7148438 C353.570915,16.7148438 351.012321,17.3837891 348.785759,18.7216797 C346.559196,20.0595703 344.830681,21.9736328 343.600212,24.4638672 C342.369743,26.9541016 341.754509,29.7519531 341.754509,32.8574219 L341.754509,32.8574219 L341.754509,33.2089844 C341.754509,38.1699219 343.097282,42.1396484 345.782829,45.1181641 C348.468376,48.0966797 352.047478,49.5859375 356.520134,49.5859375 Z M356.520134,43.9023438 C354.11779,43.9023438 352.24279,42.9794922 350.895134,41.1337891 C349.547478,39.2880859 348.873649,36.734375 348.873649,33.4726562 C348.873649,29.8007812 349.557243,27.0419922 350.924431,25.1962891 C352.291618,23.3505859 354.137321,22.4277344 356.46154,22.4277344 C358.824821,22.4277344 360.694938,23.3652344 362.071892,25.2402344 C363.448845,27.1152344 364.137321,29.6542969 364.137321,32.8574219 C364.137321,36.4707031 363.468376,39.2148438 362.130485,41.0898438 C360.792595,42.9648438 358.922478,43.9023438 356.520134,43.9023438 Z M387.804178,49.5859375 C390.089335,49.5859375 392.218241,49.0878906 394.190897,48.0917969 C396.163553,47.0957031 397.726053,45.7431641 398.878397,44.0341797 C400.030741,42.3251953 400.645975,40.484375 400.7241,38.5117188 L400.7241,38.5117188 L394.015116,38.5117188 C393.936991,40.0351562 393.311991,41.3144531 392.140116,42.3496094 C390.968241,43.3847656 389.493631,43.9023438 387.716288,43.9023438 C385.372538,43.9023438 383.580546,43.0576172 382.340311,41.3681641 C381.100077,39.6787109 380.47996,37.1152344 380.47996,33.6777344 L380.47996,33.6777344 L380.47996,32.5351562 C380.499491,29.1367188 381.134256,26.6025391 382.384256,24.9326172 C383.634256,23.2626953 385.4116,22.4277344 387.716288,22.4277344 C389.513163,22.4277344 390.992655,23.0136719 392.154764,24.1855469 C393.316874,25.3574219 393.936991,26.8515625 394.015116,28.6679688 L394.015116,28.6679688 L400.7241,28.6679688 C400.606913,25.09375 399.361796,22.2080078 396.988749,20.0107422 C394.615702,17.8134766 391.544413,16.7148438 387.774881,16.7148438 C383.321756,16.7148438 379.806131,18.1650391 377.228006,21.0654297 C374.649881,23.9658203 373.360819,27.828125 373.360819,32.6523438 L373.360819,32.6523438 L373.360819,33.3847656 C373.360819,38.4433594 374.659647,42.4082031 377.257303,45.2792969 C379.85496,48.1503906 383.370585,49.5859375 387.804178,49.5859375 Z M410.68002,49 L410.68002,38.6582031 L413.844082,35.40625 L423.248379,49 L431.480801,49 L418.443692,30.5136719 L430.221036,17.3007812 L421.666348,17.3007812 L412.906582,27.1738281 L410.68002,29.9570312 L410.68002,4 L403.560879,4 L403.560879,49 L410.68002,49 Z M444.249221,49.5859375 C448.077346,49.5859375 451.173049,48.7021484 453.53633,46.9345703 C455.899611,45.1669922 457.081252,42.8574219 457.081252,40.0058594 C457.081252,38.3066406 456.69551,36.8613281 455.924025,35.6699219 C455.152541,34.4785156 453.9709,33.4580078 452.379104,32.6083984 C450.787307,31.7587891 448.594924,31.0263672 445.801955,30.4111328 C443.008986,29.7958984 441.153518,29.1855469 440.235549,28.5800781 C439.31758,27.9746094 438.858596,27.125 438.858596,26.03125 C438.858596,24.8203125 439.35176,23.8535156 440.338088,23.1308594 C441.324416,22.4082031 442.59883,22.046875 444.16133,22.046875 C445.841018,22.046875 447.188674,22.5009766 448.204299,23.4091797 C449.219924,24.3173828 449.727736,25.4550781 449.727736,26.8222656 L449.727736,26.8222656 L456.846877,26.8222656 C456.846877,23.8339844 455.679885,21.4023438 453.3459,19.5273438 C451.011916,17.6523438 447.950393,16.7148438 444.16133,16.7148438 C440.606643,16.7148438 437.676955,17.6328125 435.372268,19.46875 C433.06758,21.3046875 431.915236,23.5898438 431.915236,26.3242188 C431.915236,29.5859375 433.69258,32.0761719 437.247268,33.7949219 C438.868361,34.5761719 440.889846,35.2207031 443.311721,35.7285156 C445.733596,36.2363281 447.466994,36.8222656 448.511916,37.4863281 C449.556838,38.1503906 450.079299,39.1171875 450.079299,40.3867188 C450.079299,41.5390625 449.591018,42.4716797 448.614455,43.1845703 C447.637893,43.8974609 446.212111,44.2539062 444.337111,44.2539062 C442.403518,44.2539062 440.850783,43.7998047 439.678908,42.8916016 C438.507033,41.9833984 437.872268,40.6894531 437.774611,39.0097656 L437.774611,39.0097656 L430.860549,39.0097656 C430.860549,40.9042969 431.426955,42.671875 432.559768,44.3125 C433.69258,45.953125 435.274611,47.2421875 437.305861,48.1796875 C439.337111,49.1171875 441.651564,49.5859375 444.249221,49.5859375 Z" id="LandingBlocks"></path>
            </g>
        </g>
    </g>
</svg>