<?xml version="1.0" encoding="UTF-8"?>
<svg width="473px" height="61px" viewBox="0 0 473 61" version="1.1" xmlns="http://www.w3.org/2000/svg" xmlns:xlink="http://www.w3.org/1999/xlink">
    <!-- Generator: Sketch 63 (92445) - https://sketch.com -->
    <title>logo_black</title>
    <desc>Created with Sketch.</desc>
    <g id="Page-1" stroke="none" stroke-width="1" fill="none" fill-rule="evenodd">
        <g id="Artboard" transform="translate(-27.000000, -90.000000)" fill="#000000" fill-rule="nonzero">
            <g id="logo_black" transform="translate(27.000000, 90.000000)">
                <path d="M39.9,0 L55.1,0 C56.1493542,0 57,1.44644231 57,3.23076923 L57,24.7692308 C57,26.5535577 56.1493542,28 55.1,28 L39.9,28 C38.8506458,28 38,26.5535577 38,24.7692308 L38,3.23076923 C38,1.44644231 38.8506458,0 39.9,0 Z M28.8,0 L3.2,0 C1.43266667,0 0,1.44644231 0,3.23076923 L0,24.7692308 C0,26.5535577 1.43266667,28 3.2,28 L28.8,28 C30.5673333,28 32,26.5535577 32,24.7692308 L32,3.23076923 C32,1.44644231 30.5673333,0 28.8,0 Z M0,35.2564103 L0,48.0769231 C0,49.1390224 0.850645833,50 1.9,50 L17.1,50 C18.1493542,50 19,49.1390224 19,48.0769231 L19,35.2564103 C19,34.1943109 18.1493542,33.3333333 17.1,33.3333333 L1.9,33.3333333 C0.850645833,33.3333333 0,34.1943109 0,35.2564103 Z M28.2,50 L53.8,50 C55.5673333,50 57,49.1390224 57,48.0769231 L57,35.2564103 C57,34.1943109 55.5673333,33.3333333 53.8,33.3333333 L28.2,33.3333333 C26.4326667,33.3333333 25,34.1943109 25,35.2564103 L25,48.0769231 C25,49.1390224 26.4326667,50 28.2,50 Z" id="Shape"></path>
                <path d="M130.113281,48 L130.113281,42.0820312 L110.748047,42.0820312 L110.748047,5.34375 L103.335938,5.34375 L103.335938,48 L130.113281,48 Z M142.254357,48.5859375 C145.535607,48.5859375 148.309045,47.4042969 150.57467,45.0410156 C150.809045,46.4082031 151.082482,47.3945312 151.394982,48 L151.394982,48 L158.660607,48 L158.660607,47.5019531 C157.859826,45.8027344 157.459435,43.5273438 157.459435,40.6757812 L157.459435,40.6757812 L157.459435,26.3789062 C157.400842,23 156.268029,20.3779297 154.060998,18.5126953 C151.853967,16.6474609 148.894982,15.7148438 145.184045,15.7148438 C142.742638,15.7148438 140.530724,16.1445312 138.548302,17.0039062 C136.565881,17.8632812 134.998498,19.0498047 133.846154,20.5634766 C132.69381,22.0771484 132.117638,23.703125 132.117638,25.4414062 L132.117638,25.4414062 L139.236779,25.4414062 C139.236779,24.1914062 139.754357,23.1611328 140.789513,22.3505859 C141.82467,21.5400391 143.152795,21.1347656 144.773888,21.1347656 C146.648888,21.1347656 148.045373,21.6279297 148.963342,22.6142578 C149.88131,23.6005859 150.340295,24.9140625 150.340295,26.5546875 L150.340295,26.5546875 L150.340295,28.6347656 L145.97506,28.6347656 C141.307092,28.6347656 137.718224,29.5380859 135.208459,31.3447266 C132.698693,33.1513672 131.44381,35.7441406 131.44381,39.1230469 C131.44381,41.7988281 132.44967,44.0449219 134.461388,45.8613281 C136.473107,47.6777344 139.070763,48.5859375 142.254357,48.5859375 Z M143.572717,42.8730469 C142.049279,42.8730469 140.833459,42.4677734 139.925256,41.6572266 C139.017052,40.8466797 138.562951,39.7578125 138.562951,38.390625 C138.562951,36.7109375 139.227013,35.4121094 140.555138,34.4941406 C141.883263,33.5761719 143.865685,33.1171875 146.502404,33.1171875 L146.502404,33.1171875 L150.340295,33.1171875 L150.340295,39.09375 C149.715295,40.2460938 148.782677,41.1640625 147.542443,41.8476562 C146.302209,42.53125 144.978967,42.8730469 143.572717,42.8730469 Z M169.278246,48 L169.278246,25.4414062 C170.684496,22.84375 172.823167,21.5449219 175.694261,21.5449219 C177.666917,21.5449219 179.087816,22.0283203 179.956956,22.9951172 C180.826097,23.9619141 181.260667,25.4511719 181.260667,27.4628906 L181.260667,27.4628906 L181.260667,48 L188.379808,48 L188.379808,27.0527344 C188.262621,19.4941406 184.903246,15.7148438 178.301683,15.7148438 C174.493089,15.7148438 171.416917,17.1308594 169.073167,19.9628906 L169.073167,19.9628906 L168.868089,16.3007812 L162.159105,16.3007812 L162.159105,48 L169.278246,48 Z M204.095103,48.5859375 C207.64979,48.5859375 210.491587,47.296875 212.620493,44.71875 L212.620493,44.71875 L212.972056,48 L219.417368,48 L219.417368,3 L212.298228,3 L212.298228,19.2304688 C210.227915,16.8867188 207.513071,15.7148437 204.153696,15.7148437 C200.345103,15.7148437 197.307993,17.1943359 195.042368,20.1533203 C192.776743,23.1123047 191.643931,27.0332031 191.643931,31.9160156 C191.643931,37.0527344 192.791392,41.1152344 195.086314,44.1035156 C197.381235,47.0917969 200.384165,48.5859375 204.095103,48.5859375 Z M205.911509,42.7851562 C203.626353,42.7851562 201.863657,41.8818359 200.623423,40.0751953 C199.383189,38.2685547 198.763071,35.7539062 198.763071,32.53125 C198.763071,28.859375 199.388071,26.1103516 200.638071,24.2841797 C201.888071,22.4580078 203.665415,21.5449219 205.970103,21.5449219 C208.880259,21.5449219 210.989634,22.8144531 212.298228,25.3535156 L212.298228,25.3535156 L212.298228,38.8886719 C210.950571,41.4863281 208.821665,42.7851562 205.911509,42.7851562 Z M228.2186,11.8183594 C229.507663,11.8183594 230.503757,11.4619141 231.206882,10.7490234 C231.910007,10.0361328 232.261569,9.14257812 232.261569,8.06835938 C232.261569,6.97460938 231.910007,6.06640625 231.206882,5.34375 C230.503757,4.62109375 229.507663,4.25976562 228.2186,4.25976562 C226.929538,4.25976562 225.938327,4.62109375 225.244968,5.34375 C224.551608,6.06640625 224.204929,6.97460938 224.204929,8.06835938 C224.204929,9.14257812 224.551608,10.0361328 225.244968,10.7490234 C225.938327,11.4619141 226.929538,11.8183594 228.2186,11.8183594 Z M231.763522,48 L231.763522,16.3007812 L224.644382,16.3007812 L224.644382,48 L231.763522,48 Z M243.875301,48 L243.875301,25.4414062 C245.281551,22.84375 247.420223,21.5449219 250.291317,21.5449219 C252.263973,21.5449219 253.684872,22.0283203 254.554012,22.9951172 C255.423153,23.9619141 255.857723,25.4511719 255.857723,27.4628906 L255.857723,27.4628906 L255.857723,48 L262.976864,48 L262.976864,27.0527344 C262.859676,19.4941406 259.500301,15.7148438 252.898739,15.7148438 C249.090145,15.7148438 246.013973,17.1308594 243.670223,19.9628906 L243.670223,19.9628906 L243.465145,16.3007812 L236.756161,16.3007812 L236.756161,48 L243.875301,48 Z M279.922627,60.4804688 C284.317158,60.4804688 287.808369,59.2792969 290.39626,56.8769531 C292.984151,54.4746094 294.278096,51.1933594 294.278096,47.0332031 L294.278096,47.0332031 L294.278096,16.3007812 L287.86208,16.3007812 L287.539815,19.4941406 C285.469502,16.9746094 282.627705,15.7148438 279.014424,15.7148438 C275.186299,15.7148438 272.11501,17.1845703 269.800557,20.1240234 C267.486104,23.0634766 266.328877,26.9941406 266.328877,31.9160156 C266.328877,37.1308594 267.505635,41.2128906 269.859151,44.1621094 C272.212666,47.1113281 275.244893,48.5859375 278.95583,48.5859375 C282.373799,48.5859375 285.108174,47.4433594 287.158955,45.1582031 L287.158955,45.1582031 L287.158955,47.296875 C287.158955,49.7773438 286.475362,51.6572266 285.108174,52.9365234 C283.740987,54.2158203 281.875752,54.8554688 279.512471,54.8554688 C276.309346,54.8554688 273.614033,53.5566406 271.426533,50.9589844 L271.426533,50.9589844 L268.057393,55.2363281 C269.209737,56.7988281 270.894307,58.0634766 273.111104,59.0302734 C275.327901,59.9970703 277.598408,60.4804688 279.922627,60.4804688 Z M280.772237,42.7851562 C278.467549,42.7851562 276.665791,41.8720703 275.366963,40.0458984 C274.068135,38.2197266 273.418721,35.7148438 273.418721,32.53125 C273.418721,28.9179688 274.068135,26.1835938 275.366963,24.328125 C276.665791,22.4726562 278.48708,21.5449219 280.83083,21.5449219 C283.701924,21.5449219 285.811299,22.7460938 287.158955,25.1484375 L287.158955,25.1484375 L287.158955,39.09375 C285.772237,41.5546875 283.64333,42.7851562 280.772237,42.7851562 Z M327.466498,48 C332.251654,48 335.928412,46.9257812 338.496771,44.7773438 C341.06513,42.6289062 342.34931,39.5527344 342.34931,35.5488281 C342.34931,33.1269531 341.719427,31.0517578 340.459662,29.3232422 C339.199896,27.5947266 337.41767,26.4179688 335.112982,25.7929688 C337.144232,24.9335938 338.687201,23.7226562 339.741888,22.1601562 C340.796576,20.5976562 341.32392,18.8398438 341.32392,16.8867188 C341.32392,13.0585938 340.064154,10.1777344 337.544623,8.24414062 C335.025091,6.31054688 331.353216,5.34375 326.528998,5.34375 L326.528998,5.34375 L311.909857,5.34375 L311.909857,48 L327.466498,48 Z M326.587591,23.3027344 L319.321966,23.3027344 L319.321966,11.3203125 L326.528998,11.3203125 C329.06806,11.3203125 330.938177,11.7890625 332.139349,12.7265625 C333.340521,13.6640625 333.941107,15.1875 333.941107,17.296875 C333.941107,19.2109375 333.291693,20.6904297 331.992865,21.7353516 C330.694037,22.7802734 328.892279,23.3027344 326.587591,23.3027344 L326.587591,23.3027344 Z M327.554388,42.0820312 L319.321966,42.0820312 L319.321966,28.7519531 L328.169623,28.7519531 C332.700873,28.8496094 334.966498,31.1152344 334.966498,35.5488281 C334.966498,37.5996094 334.312201,39.2011719 333.003607,40.3535156 C331.695013,41.5058594 329.878607,42.0820312 327.554388,42.0820312 L327.554388,42.0820312 Z M353.992339,48 L353.992339,3 L346.873199,3 L346.873199,48 L353.992339,48 Z M372.520134,48.5859375 C375.449821,48.5859375 378.032829,47.9121094 380.269157,46.5644531 C382.505485,45.2167969 384.224235,43.3125 385.425407,40.8515625 C386.626579,38.390625 387.227165,35.5976562 387.227165,32.4726562 L387.227165,32.4726562 L387.197868,30.8027344 C386.983024,26.2519531 385.542595,22.5996094 382.876579,19.8457031 C380.210563,17.0917969 376.738884,15.7148438 372.46154,15.7148438 C369.570915,15.7148438 367.012321,16.3837891 364.785759,17.7216797 C362.559196,19.0595703 360.830681,20.9736328 359.600212,23.4638672 C358.369743,25.9541016 357.754509,28.7519531 357.754509,31.8574219 L357.754509,31.8574219 L357.754509,32.2089844 C357.754509,37.1699219 359.097282,41.1396484 361.782829,44.1181641 C364.468376,47.0966797 368.047478,48.5859375 372.520134,48.5859375 Z M372.520134,42.9023438 C370.11779,42.9023438 368.24279,41.9794922 366.895134,40.1337891 C365.547478,38.2880859 364.873649,35.734375 364.873649,32.4726562 C364.873649,28.8007812 365.557243,26.0419922 366.924431,24.1962891 C368.291618,22.3505859 370.137321,21.4277344 372.46154,21.4277344 C374.824821,21.4277344 376.694938,22.3652344 378.071892,24.2402344 C379.448845,26.1152344 380.137321,28.6542969 380.137321,31.8574219 C380.137321,35.4707031 379.468376,38.2148438 378.130485,40.0898438 C376.792595,41.9648438 374.922478,42.9023438 372.520134,42.9023438 Z M403.704178,48.5859375 C405.989335,48.5859375 408.118241,48.0878906 410.090897,47.0917969 C412.063553,46.0957031 413.626053,44.7431641 414.778397,43.0341797 C415.930741,41.3251953 416.545975,39.484375 416.6241,37.5117188 L416.6241,37.5117188 L409.915116,37.5117188 C409.836991,39.0351562 409.211991,40.3144531 408.040116,41.3496094 C406.868241,42.3847656 405.393632,42.9023438 403.616288,42.9023438 C401.272538,42.9023438 399.480546,42.0576172 398.240311,40.3681641 C397.000077,38.6787109 396.37996,36.1152344 396.37996,32.6777344 L396.37996,32.6777344 L396.37996,31.5351562 C396.399491,28.1367188 397.034257,25.6025391 398.284257,23.9326172 C399.534257,22.2626953 401.3116,21.4277344 403.616288,21.4277344 C405.413163,21.4277344 406.892655,22.0136719 408.054764,23.1855469 C409.216874,24.3574219 409.836991,25.8515625 409.915116,27.6679688 L409.915116,27.6679688 L416.6241,27.6679688 C416.506913,24.09375 415.261796,21.2080078 412.888749,19.0107422 C410.515702,16.8134766 407.444413,15.7148438 403.674882,15.7148438 C399.221757,15.7148438 395.706132,17.1650391 393.128007,20.0654297 C390.549882,22.9658203 389.260819,26.828125 389.260819,31.6523438 L389.260819,31.6523438 L389.260819,32.3847656 C389.260819,37.4433594 390.559647,41.4082031 393.157303,44.2792969 C395.75496,47.1503906 399.270585,48.5859375 403.704178,48.5859375 Z M426.48002,48 L426.48002,37.6582031 L429.644082,34.40625 L439.048379,48 L447.280801,48 L434.243692,29.5136719 L446.021036,16.3007812 L437.466348,16.3007812 L428.706582,26.1738281 L426.48002,28.9570312 L426.48002,3 L419.360879,3 L419.360879,48 L426.48002,48 Z M459.949221,48.5859375 C463.777346,48.5859375 466.873049,47.7021484 469.23633,45.9345703 C471.599611,44.1669922 472.781252,41.8574219 472.781252,39.0058594 C472.781252,37.3066406 472.39551,35.8613281 471.624025,34.6699219 C470.852541,33.4785156 469.6709,32.4580078 468.079104,31.6083984 C466.487307,30.7587891 464.294924,30.0263672 461.501955,29.4111328 C458.708986,28.7958984 456.853518,28.1855469 455.935549,27.5800781 C455.01758,26.9746094 454.558596,26.125 454.558596,25.03125 C454.558596,23.8203125 455.05176,22.8535156 456.038088,22.1308594 C457.024416,21.4082031 458.29883,21.046875 459.86133,21.046875 C461.541018,21.046875 462.888674,21.5009766 463.904299,22.4091797 C464.919924,23.3173828 465.427736,24.4550781 465.427736,25.8222656 L465.427736,25.8222656 L472.546877,25.8222656 C472.546877,22.8339844 471.379885,20.4023438 469.0459,18.5273438 C466.711916,16.6523438 463.650393,15.7148438 459.86133,15.7148438 C456.306643,15.7148438 453.376955,16.6328125 451.072268,18.46875 C448.76758,20.3046875 447.615236,22.5898438 447.615236,25.3242188 C447.615236,28.5859375 449.39258,31.0761719 452.947268,32.7949219 C454.568361,33.5761719 456.589846,34.2207031 459.011721,34.7285156 C461.433596,35.2363281 463.166994,35.8222656 464.211916,36.4863281 C465.256838,37.1503906 465.779299,38.1171875 465.779299,39.3867188 C465.779299,40.5390625 465.291018,41.4716797 464.314455,42.1845703 C463.337893,42.8974609 461.912111,43.2539062 460.037111,43.2539062 C458.103518,43.2539062 456.550783,42.7998047 455.378908,41.8916016 C454.207033,40.9833984 453.572268,39.6894531 453.474611,38.0097656 L453.474611,38.0097656 L446.560549,38.0097656 C446.560549,39.9042969 447.126955,41.671875 448.259768,43.3125 C449.39258,44.953125 450.974611,46.2421875 453.005861,47.1796875 C455.037111,48.1171875 457.351565,48.5859375 459.949221,48.5859375 Z" id="LandingBlocks"></path>
            </g>
        </g>
    </g>
</svg>