<?xml version="1.0" encoding="UTF-8"?>
<svg width="57px" height="50px" viewBox="0 0 57 50" version="1.1" xmlns="http://www.w3.org/2000/svg" xmlns:xlink="http://www.w3.org/1999/xlink">
    <!-- Generator: Sketch 63 (92445) - https://sketch.com -->
    <title>logo_icon</title>
    <desc>Created with Sketch.</desc>
    <g id="Page-1" stroke="none" stroke-width="1" fill="none" fill-rule="evenodd">
        <g id="Artboard" transform="translate(-40.000000, -235.000000)" fill="#FFFFFF" fill-rule="nonzero">
            <path d="M79.9,235 L95.1,235 C96.1493542,235 97,236.446442 97,238.230769 L97,259.769231 C97,261.553558 96.1493542,263 95.1,263 L79.9,263 C78.8506458,263 78,261.553558 78,259.769231 L78,238.230769 C78,236.446442 78.8506458,235 79.9,235 Z M68.8,235 L43.2,235 C41.4326667,235 40,236.446442 40,238.230769 L40,259.769231 C40,261.553558 41.4326667,263 43.2,263 L68.8,263 C70.5673333,263 72,261.553558 72,259.769231 L72,238.230769 C72,236.446442 70.5673333,235 68.8,235 Z M40,270.25641 L40,283.076923 C40,284.139022 40.8506458,285 41.9,285 L57.1,285 C58.1493542,285 59,284.139022 59,283.076923 L59,270.25641 C59,269.194311 58.1493542,268.333333 57.1,268.333333 L41.9,268.333333 C40.8506458,268.333333 40,269.194311 40,270.25641 Z M68.2,285 L93.8,285 C95.5673333,285 97,284.139022 97,283.076923 L97,270.25641 C97,269.194311 95.5673333,268.333333 93.8,268.333333 L68.2,268.333333 C66.4326667,268.333333 65,269.194311 65,270.25641 L65,283.076923 C65,284.139022 66.4326667,285 68.2,285 Z" id="logo_icon"></path>
        </g>
    </g>
</svg>