<svg xmlns="http://www.w3.org/2000/svg" viewBox="0 0 128 32"><g fill="none" fill-rule="evenodd" data-darkreader-inline-fill="" ><g fill="#24124d" data-darkreader-inline-fill="" style="--darkreader-inline-fill:#322252;"><path d="M47.995 21.031H45v-9.063h2.995c1.258 0 2.295.42 3.086 1.253.792.84 1.187 1.935 1.187 3.283 0 1.34-.395 2.443-1.187 3.275-.791.832-1.828 1.252-3.086 1.252zm0-12.031H42v15h5.995c2.058 0 3.798-.727 5.178-2.163s2.084-3.231 2.084-5.333c0-2.11-.703-3.905-2.084-5.341C51.793 9.727 50.053 9 47.995 9zM62.239 21.445c-.791 0-1.468-.264-1.987-.8-.527-.536-.8-1.222-.8-2.048 0-.818.273-1.504.8-2.04.519-.536 1.196-.8 1.987-.8s1.468.264 1.995.8c.537.536.81 1.222.81 2.04 0 .826-.273 1.512-.81 2.048-.527.536-1.204.8-1.995.8m4.061-6.892c-1.107-1.099-2.47-1.653-4.061-1.653s-2.954.554-4.053 1.653c-1.099 1.099-1.653 2.461-1.653 4.044 0 1.591.554 2.954 1.653 4.053 1.099 1.098 2.462 1.652 4.053 1.652s2.954-.554 4.061-1.652c1.1-1.1 1.662-2.462 1.662-4.053 0-1.583-.563-2.945-1.662-4.044M79.464 13L75.5 24H72l-4-11h3.209l2.514 7.261L76.255 13zM82.524 17.515c.167-.606.466-1.09.906-1.432.466-.361 1.063-.546 1.776-.546.597 0 1.142.176 1.617.52.44.324.747.808.906 1.458zm2.682-4.615c-1.662 0-3.042.545-4.106 1.627-1.064 1.09-1.6 2.452-1.6 4.07 0 1.635.545 3.006 1.618 4.088 1.08 1.072 2.523 1.617 4.299 1.617 2.066 0 3.648-.773 4.703-2.312l.061-.079-2.364-1.362-.044.06c-.52.687-1.302 1.03-2.312 1.03-1.556 0-2.506-.598-2.884-1.82h7.974l.017-.08c.07-.395.106-.782.106-1.142 0-1.6-.52-2.963-1.548-4.053-1.028-1.09-2.347-1.644-3.92-1.644zM96.304 16.029v4.334c0 .342.079.589.246.738.167.158.422.246.756.273.15.008.316.008.492.008.246 0 .519-.008.818-.026h.088v2.655l-.08.009c-.51.061-.993.088-1.424.088-1.169 0-2.048-.211-2.62-.633-.8-.58-1.195-1.627-1.195-3.112v-4.334H91.33v-2.696h2.055v-2.245l2.919-.888v3.133h2.026v2.696zM105.1 21.515c-.826 0-1.512-.28-2.04-.817-.535-.536-.808-1.248-.808-2.101 0-.844.273-1.556.809-2.092.527-.546 1.222-.818 2.04-.818s1.512.272 2.057.818c.536.544.808 1.248.808 2.092 0 .853-.272 1.565-.808 2.101-.545.536-1.231.817-2.058.817zM108 13v1.305c-.826-.932-1.994-1.405-3.41-1.405-1.433 0-2.69.554-3.71 1.653-1.028 1.099-1.547 2.461-1.547 4.044 0 1.591.52 2.954 1.548 4.053 1.02 1.099 2.268 1.652 3.71 1.652 1.415 0 2.583-.575 3.409-1.507V24h3V13zM113.178 10.989a1.679 1.679 0 01-.518-1.23c0-.468.173-.884.518-1.23.346-.356.752-.529 1.219-.529.484 0 .899.173 1.244.528.346.347.519.763.519 1.23 0 .469-.173.884-.519 1.23a1.72 1.72 0 01-1.244.512 1.69 1.69 0 01-1.219-.511M113 24h3V13h-3zM118 24h3V8h-3z"/></g><path d="M30 20l-7 4v-8l-7-4.044L23 8l7 4z" fill="#5182f8" data-darkreader-inline-fill="" style="--darkreader-inline-fill:#70aef2;"/><path d="M15.999 12l-7 4V8L2 4l7-4 6.999 4z" fill="#502da8" data-darkreader-inline-fill="" style="--darkreader-inline-fill:#ae93db;"/><path d="M15.999 28l-7 4L9 24l-7-4 6.999-4 7 4z" fill="#f84f77" data-darkreader-inline-fill="" style="--darkreader-inline-fill:#f96783;"/></g></svg>