<?xml version="1.0" encoding="UTF-8"?>
<svg width="737px" height="379px" viewBox="0 0 737 379" version="1.1" xmlns="http://www.w3.org/2000/svg" xmlns:xlink="http://www.w3.org/1999/xlink">
    <!-- Generator: Sketch 63 (92445) - https://sketch.com -->
    <title>heroIllustration</title>
    <desc>Created with Sketch.</desc>
    <defs>
        <rect id="path-1" x="0" y="0" width="356" height="178"></rect>
    </defs>
    <g id="Page-1" stroke="none" stroke-width="1" fill="none" fill-rule="evenodd">
        <g id="Artboard" transform="translate(-611.000000, -202.000000)">
            <g id="heroIllustration" transform="translate(612.000000, 202.000000)">
                <path d="M160,279.8182 C168,299.397283 191.081093,316.890266 229.243279,332.297147 C286.486559,355.407468 363.407859,311.26593 417.184173,309.186825 C470.959129,307.108364 587.426292,381.853114 631.485245,377.844286 C675.544877,373.835457 536.542995,261.747308 563.830867,240.059328 C579.423161,227.668405 615.72465,247.751823 629.962391,244.589703 C644.199453,241.42694 624.460705,212.923438 636.760267,210.548146 C649.059829,208.173498 735,252.938317 735,252.938317" id="wire2" stroke-opacity="0.370984484" stroke="#FFFFFF" stroke-width="2" transform="translate(447.500000, 294.228452) scale(-1, 1) translate(-447.500000, -294.228452) "></path>
                <g id="featuresGrid" transform="translate(367.000000, 210.000000)">
                    <rect id="Rectangle" fill="#323452" x="0" y="0" width="280" height="140"></rect>
                    <rect id="Rectangle" fill="#323452" x="0" y="0" width="280" height="140"></rect>
                    <g id="Group-2" transform="translate(16.000000, 19.000000)" fill="#FFFFFF" fill-opacity="0.354212194">
                        <rect id="Rectangle" x="0" y="20" width="44" height="2" rx="1"></rect>
                        <rect id="Rectangle" x="0" y="26" width="64" height="2" rx="1"></rect>
                        <rect id="Rectangle" x="0" y="31" width="60" height="2" rx="1"></rect>
                        <rect id="Rectangle" x="0" y="36" width="39" height="2" rx="1"></rect>
                        <rect id="Rectangle" x="0" y="0" width="12" height="12" rx="3"></rect>
                    </g>
                    <g id="Group-2-Copy-3" transform="translate(19.000000, 75.000000)" fill="#FFFFFF" fill-opacity="0.354212194">
                        <rect id="Rectangle" x="0" y="20" width="44" height="2" rx="1"></rect>
                        <rect id="Rectangle" x="0" y="26" width="64" height="2" rx="1"></rect>
                        <rect id="Rectangle" x="0" y="31" width="60" height="2" rx="1"></rect>
                        <rect id="Rectangle" x="0" y="36" width="39" height="2" rx="1"></rect>
                        <rect id="Rectangle" x="0" y="0" width="12" height="12" rx="3"></rect>
                    </g>
                    <g id="Group-2-Copy" transform="translate(107.000000, 19.000000)" fill="#FFFFFF" fill-opacity="0.354212194">
                        <rect id="Rectangle" x="0" y="20" width="44" height="2" rx="1"></rect>
                        <rect id="Rectangle" x="0" y="26" width="64" height="2" rx="1"></rect>
                        <rect id="Rectangle" x="0" y="31" width="60" height="2" rx="1"></rect>
                        <rect id="Rectangle" x="0" y="36" width="39" height="2" rx="1"></rect>
                        <rect id="Rectangle" x="0" y="0" width="12" height="12" rx="3"></rect>
                    </g>
                    <g id="Group-2-Copy-4" transform="translate(110.000000, 75.000000)" fill="#FFFFFF" fill-opacity="0.354212194">
                        <rect id="Rectangle" x="0" y="20" width="44" height="2" rx="1"></rect>
                        <rect id="Rectangle" x="0" y="26" width="64" height="2" rx="1"></rect>
                        <rect id="Rectangle" x="0" y="31" width="60" height="2" rx="1"></rect>
                        <rect id="Rectangle" x="0" y="36" width="39" height="2" rx="1"></rect>
                        <rect id="Rectangle" x="0" y="0" width="12" height="12" rx="3"></rect>
                    </g>
                    <g id="Group-2-Copy-2" transform="translate(194.000000, 19.000000)" fill="#FFFFFF" fill-opacity="0.354212194">
                        <rect id="Rectangle" x="0" y="20" width="44" height="2" rx="1"></rect>
                        <rect id="Rectangle" x="0" y="26" width="64" height="2" rx="1"></rect>
                        <rect id="Rectangle" x="0" y="31" width="60" height="2" rx="1"></rect>
                        <rect id="Rectangle" x="0" y="36" width="39" height="2" rx="1"></rect>
                        <rect id="Rectangle" x="0" y="0" width="12" height="12" rx="3"></rect>
                    </g>
                    <g id="Group-2-Copy-5" transform="translate(197.000000, 75.000000)" fill="#FFFFFF" fill-opacity="0.354212194">
                        <rect id="Rectangle" x="0" y="20" width="44" height="2" rx="1"></rect>
                        <rect id="Rectangle" x="0" y="26" width="64" height="2" rx="1"></rect>
                        <rect id="Rectangle" x="0" y="31" width="60" height="2" rx="1"></rect>
                        <rect id="Rectangle" x="0" y="36" width="39" height="2" rx="1"></rect>
                        <rect id="Rectangle" x="0" y="0" width="12" height="12" rx="3"></rect>
                    </g>
                </g>
                <rect id="Rectangle" fill-opacity="0.101917614" fill="#FFFFFF" x="380" y="150" width="72" height="41" rx="3"></rect>
                <rect id="Rectangle" fill-opacity="0.354212194" fill="#FFFFFF" x="412" y="166" width="12" height="12"></rect>
                <rect id="Rectangle" fill-opacity="0.651852054" fill="#FFFFFF" x="408" y="162" width="12" height="12"></rect>
                <rect id="Rectangle" fill-opacity="0.11956403" fill="#FFFFFF" x="454" y="150" width="72" height="41" rx="3"></rect>
                <polygon id="Path" fill-opacity="0.354212194" fill="#FFFFFF" points="501.434 177 494.794 165.5 488.155 177"></polygon>
                <polygon id="Path" fill-opacity="0.651852054" fill="#FFFFFF" points="486.794 163.5 494.588 177 479 177"></polygon>
                <rect id="Rectangle" fill-opacity="0.120083042" fill="#FFFFFF" x="528" y="150" width="72" height="41" rx="3"></rect>
                <circle id="Oval" fill-opacity="0.354212194" fill="#FFFFFF" cx="566" cy="172" r="7"></circle>
                <circle id="Oval" stroke-opacity="0.651852054" stroke="#FFFFFF" stroke-width="2" cx="562" cy="168" r="6"></circle>
                <rect id="Rectangle" fill-opacity="0.101917614" fill="#FFFFFF" x="124" y="312" width="72" height="41" rx="3"></rect>
                <rect id="Rectangle" fill-opacity="0.354212194" fill="#FFFFFF" x="156" y="328" width="12" height="12"></rect>
                <rect id="Rectangle" fill-opacity="0.651852054" fill="#FFFFFF" x="152" y="324" width="12" height="12"></rect>
                <rect id="Rectangle" fill-opacity="0.11956403" fill="#FFFFFF" x="198" y="312" width="72" height="41" rx="3"></rect>
                <polygon id="Path" fill-opacity="0.354212194" fill="#FFFFFF" points="245.434 339 238.794 327.5 232.155 339"></polygon>
                <polygon id="Path" fill-opacity="0.651852054" fill="#FFFFFF" points="230.794 325.5 238.588 339 223 339"></polygon>
                <rect id="Rectangle" fill-opacity="0.120083042" fill="#FFFFFF" x="272" y="312" width="72" height="41" rx="3"></rect>
                <circle id="Oval" fill-opacity="0.354212194" fill="#FFFFFF" cx="310" cy="334" r="7"></circle>
                <circle id="Oval" stroke-opacity="0.651852054" stroke="#FFFFFF" stroke-width="2" cx="306" cy="330" r="6"></circle>
                <g id="Group" transform="translate(106.000000, 171.000000)">
                    <rect id="Rectangle" fill="#323452" x="1" y="1" width="141" height="30" rx="6"></rect>
                    <rect id="Rectangle" stroke-opacity="0.04" stroke="#FFFFFF" x="0.5" y="0.5" width="142" height="31" rx="6.5"></rect>
                </g>
                <rect id="Rectangle" fill-opacity="0.370875219" fill="#FFFFFF" x="177" y="172" width="1" height="30"></rect>
                <path d="M120.3431,192 L124.4646,192 C126.7963,192 127.9397,190.8118 127.9397,189.2259 C127.9397,187.6847 126.846,186.7798 125.7622,186.7251 L125.7622,186.6257 C126.7565,186.392 127.542,185.696 127.542,184.4581 C127.542,182.9418 126.4482,181.8182 124.2409,181.8182 L120.3431,181.8182 L120.3431,192 Z M122.1876,190.4588 L122.1876,187.4759 L124.221,187.4759 C125.3595,187.4759 126.0654,188.1719 126.0654,189.0817 C126.0654,189.892 125.5086,190.4588 124.1713,190.4588 L122.1876,190.4588 Z M122.1876,186.1484 L122.1876,183.3395 L124.0519,183.3395 C125.1357,183.3395 125.6975,183.9112 125.6975,184.6967 C125.6975,185.5916 124.9717,186.1484 124.0122,186.1484 L122.1876,186.1484 Z M134.3319,188.7884 C134.3319,189.9517 133.5017,190.5284 132.7062,190.5284 C131.8412,190.5284 131.2645,189.9169 131.2645,188.9474 L131.2645,184.3636 L129.4648,184.3636 L129.4648,189.2259 C129.4648,191.0604 130.5088,192.0994 132.0102,192.0994 C133.1537,192.0994 133.9591,191.4979 134.3071,190.6428 L134.3866,190.6428 L134.3866,192 L136.1317,192 L136.1317,184.3636 L134.3319,184.3636 L134.3319,188.7884 Z M141.796,184.3636 L140.289,184.3636 L140.289,182.5341 L138.489,182.5341 L138.489,184.3636 L137.4056,184.3636 L137.4056,185.7557 L138.489,185.7557 L138.489,190.0014 C138.479,191.4382 139.524,192.1442 140.876,192.1044 C141.388,192.0895 141.741,191.9901 141.935,191.9254 L141.631,190.5185 C141.532,190.5433 141.328,190.5881 141.104,190.5881 C140.652,190.5881 140.289,190.429 140.289,189.7031 L140.289,185.7557 L141.796,185.7557 L141.796,184.3636 Z M147.114,184.3636 L145.608,184.3636 L145.608,182.5341 L143.808,182.5341 L143.808,184.3636 L142.724,184.3636 L142.724,185.7557 L143.808,185.7557 L143.808,190.0014 C143.798,191.4382 144.842,192.1442 146.194,192.1044 C146.706,192.0895 147.059,191.9901 147.253,191.9254 L146.95,190.5185 C146.85,190.5433 146.647,190.5881 146.423,190.5881 C145.97,190.5881 145.608,190.429 145.608,189.7031 L145.608,185.7557 L147.114,185.7557 L147.114,184.3636 Z M151.868,192.1491 C154.105,192.1491 155.527,190.5732 155.527,188.2116 C155.527,185.8452 154.105,184.2642 151.868,184.2642 C149.631,184.2642 148.209,185.8452 148.209,188.2116 C148.209,190.5732 149.631,192.1491 151.868,192.1491 Z M151.878,190.7074 C150.64,190.7074 150.033,189.6037 150.033,188.2067 C150.033,186.8097 150.64,185.6911 151.878,185.6911 C153.096,185.6911 153.703,186.8097 153.703,188.2067 C153.703,189.6037 153.096,190.7074 151.878,190.7074 Z M158.854,187.5256 C158.854,186.4219 159.521,185.7855 160.47,185.7855 C161.4,185.7855 161.957,186.397 161.957,187.4162 L161.957,192 L163.756018,192 L163.756018,187.1378 C163.761,185.3082 162.717,184.2642 161.141,184.2642 C159.998,184.2642 159.212,184.8111 158.864,185.6612 L158.775,185.6612 L158.775,184.3636 L157.055,184.3636 L157.055,192 L158.854,192 L158.854,187.5256 Z" id="Shape" fill-opacity="0.651852054" fill="#FFFFFF" fill-rule="nonzero"></path>
                <path d="M191.343,192 L195.465,192 C197.796,192 198.94,190.8118 198.94,189.2259 C198.94,187.6847 197.846,186.7798 196.762,186.7251 L196.762,186.6257 C197.756,186.392 198.542,185.696 198.542,184.4581 C198.542,182.9418 197.448,181.8182 195.241,181.8182 L191.343,181.8182 L191.343,192 Z M193.188,190.4588 L193.188,187.4759 L195.221,187.4759 C196.359,187.4759 197.065,188.1719 197.065,189.0817 C197.065,189.892 196.509,190.4588 195.171,190.4588 L193.188,190.4588 Z M193.188,186.1484 L193.188,183.3395 L195.052,183.3395 C196.136,183.3395 196.698,183.9112 196.698,184.6967 C196.698,185.5916 195.972,186.1484 195.012,186.1484 L193.188,186.1484 Z M205.332,188.7884 C205.332,189.9517 204.502,190.5284 203.706,190.5284 C202.841,190.5284 202.264,189.9169 202.264,188.9474 L202.264,184.3636 L200.465,184.3636 L200.465,189.2259 C200.465,191.0604 201.509,192.0994 203.01,192.0994 C204.154,192.0994 204.959,191.4979 205.307,190.6428 L205.387,190.6428 L205.387,192 L207.132,192 L207.132,184.3636 L205.332,184.3636 L205.332,188.7884 Z M212.796,184.3636 L211.289,184.3636 L211.289,182.5341 L209.489,182.5341 L209.489,184.3636 L208.406,184.3636 L208.406,185.7557 L209.489,185.7557 L209.489,190.0014 C209.479,191.4382 210.524,192.1442 211.876,192.1044 C212.388,192.0895 212.741,191.9901 212.935,191.9254 L212.631,190.5185 C212.532,190.5433 212.328,190.5881 212.104,190.5881 C211.652,190.5881 211.289,190.429 211.289,189.7031 L211.289,185.7557 L212.796,185.7557 L212.796,184.3636 Z M218.114,184.3636 L216.608,184.3636 L216.608,182.5341 L214.808,182.5341 L214.808,184.3636 L213.724,184.3636 L213.724,185.7557 L214.808,185.7557 L214.808,190.0014 C214.798,191.4382 215.842,192.1442 217.194,192.1044 C217.706,192.0895 218.059,191.9901 218.253,191.9254 L217.95,190.5185 C217.85,190.5433 217.647,190.5881 217.423,190.5881 C216.97,190.5881 216.608,190.429 216.608,189.7031 L216.608,185.7557 L218.114,185.7557 L218.114,184.3636 Z M222.868,192.1491 C225.105,192.1491 226.527,190.5732 226.527,188.2116 C226.527,185.8452 225.105,184.2642 222.868,184.2642 C220.631,184.2642 219.209,185.8452 219.209,188.2116 C219.209,190.5732 220.631,192.1491 222.868,192.1491 Z M222.878,190.7074 C221.64,190.7074 221.033,189.6037 221.033,188.2067 C221.033,186.8097 221.64,185.6911 222.878,185.6911 C224.096,185.6911 224.703,186.8097 224.703,188.2067 C224.703,189.6037 224.096,190.7074 222.878,190.7074 Z M229.854,187.5256 C229.854,186.4219 230.521,185.7855 231.47,185.7855 C232.4,185.7855 232.957,186.397 232.957,187.4162 L232.957,192 L234.756018,192 L234.756018,187.1378 C234.761,185.3082 233.717,184.2642 232.141,184.2642 C230.998,184.2642 230.212,184.8111 229.864,185.6612 L229.775,185.6612 L229.775,184.3636 L228.055,184.3636 L228.055,192 L229.854,192 L229.854,187.5256 Z" id="Shape" fill-opacity="0.651852054" fill="#FFFFFF" fill-rule="nonzero"></path>
                <g id="Group" transform="translate(490.000000, 89.000000)">
                    <rect id="Rectangle" fill="#323452" x="1" y="1" width="141" height="30" rx="6"></rect>
                    <rect id="Rectangle" stroke-opacity="0.04" stroke="#FFFFFF" x="0.5" y="0.5" width="142" height="31" rx="6.5"></rect>
                </g>
                <rect id="Rectangle" fill-opacity="0.370875219" fill="#FFFFFF" x="561" y="90" width="1" height="30"></rect>
                <path d="M504.3431,110 L508.4646,110 C510.7963,110 511.9397,108.8118 511.9397,107.2259 C511.9397,105.6847 510.846,104.7798 509.7622,104.7251 L509.7622,104.6257 C510.7565,104.392 511.542,103.696 511.542,102.4581 C511.542,100.9418 510.4482,99.8182 508.2409,99.8182 L504.3431,99.8182 L504.3431,110 Z M506.1876,108.4588 L506.1876,105.4759 L508.221,105.4759 C509.3595,105.4759 510.0654,106.1719 510.0654,107.0817 C510.0654,107.892 509.5086,108.4588 508.1713,108.4588 L506.1876,108.4588 Z M506.1876,104.1484 L506.1876,101.3395 L508.0519,101.3395 C509.1357,101.3395 509.6975,101.9112 509.6975,102.6967 C509.6975,103.5916 508.9717,104.1484 508.0122,104.1484 L506.1876,104.1484 Z M518.3319,106.7884 C518.3319,107.9517 517.5017,108.5284 516.7062,108.5284 C515.8412,108.5284 515.2645,107.9169 515.2645,106.9474 L515.2645,102.3636 L513.4648,102.3636 L513.4648,107.2259 C513.4648,109.0604 514.5088,110.0994 516.0102,110.0994 C517.1537,110.0994 517.9591,109.4979 518.3071,108.6428 L518.3866,108.6428 L518.3866,110 L520.1317,110 L520.1317,102.3636 L518.3319,102.3636 L518.3319,106.7884 Z M525.796,102.3636 L524.289,102.3636 L524.289,100.5341 L522.489,100.5341 L522.489,102.3636 L521.4056,102.3636 L521.4056,103.7557 L522.489,103.7557 L522.489,108.0014 C522.479,109.4382 523.524,110.1442 524.876,110.1044 C525.388,110.0895 525.741,109.9901 525.935,109.9254 L525.631,108.5185 C525.532,108.5433 525.328,108.5881 525.104,108.5881 C524.652,108.5881 524.289,108.429 524.289,107.7031 L524.289,103.7557 L525.796,103.7557 L525.796,102.3636 Z M531.114,102.3636 L529.608,102.3636 L529.608,100.5341 L527.808,100.5341 L527.808,102.3636 L526.724,102.3636 L526.724,103.7557 L527.808,103.7557 L527.808,108.0014 C527.798,109.4382 528.842,110.1442 530.194,110.1044 C530.706,110.0895 531.059,109.9901 531.253,109.9254 L530.95,108.5185 C530.85,108.5433 530.647,108.5881 530.423,108.5881 C529.97,108.5881 529.608,108.429 529.608,107.7031 L529.608,103.7557 L531.114,103.7557 L531.114,102.3636 Z M535.868,110.1491 C538.105,110.1491 539.527,108.5732 539.527,106.2116 C539.527,103.8452 538.105,102.2642 535.868,102.2642 C533.631,102.2642 532.209,103.8452 532.209,106.2116 C532.209,108.5732 533.631,110.1491 535.868,110.1491 Z M535.878,108.7074 C534.64,108.7074 534.033,107.6037 534.033,106.2067 C534.033,104.8097 534.64,103.6911 535.878,103.6911 C537.096,103.6911 537.703,104.8097 537.703,106.2067 C537.703,107.6037 537.096,108.7074 535.878,108.7074 Z M542.854,105.5256 C542.854,104.4219 543.521,103.7855 544.47,103.7855 C545.4,103.7855 545.957,104.397 545.957,105.4162 L545.957,110 L547.756018,110 L547.756018,105.1378 C547.761,103.3082 546.717,102.2642 545.141,102.2642 C543.998,102.2642 543.212,102.8111 542.864,103.6612 L542.775,103.6612 L542.775,102.3636 L541.055,102.3636 L541.055,110 L542.854,110 L542.854,105.5256 Z" id="Shape" fill-opacity="0.651852054" fill="#FFFFFF" fill-rule="nonzero"></path>
                <path d="M575.343,110 L579.465,110 C581.796,110 582.94,108.8118 582.94,107.2259 C582.94,105.6847 581.846,104.7798 580.762,104.7251 L580.762,104.6257 C581.756,104.392 582.542,103.696 582.542,102.4581 C582.542,100.9418 581.448,99.8182 579.241,99.8182 L575.343,99.8182 L575.343,110 Z M577.188,108.4588 L577.188,105.4759 L579.221,105.4759 C580.359,105.4759 581.065,106.1719 581.065,107.0817 C581.065,107.892 580.509,108.4588 579.171,108.4588 L577.188,108.4588 Z M577.188,104.1484 L577.188,101.3395 L579.052,101.3395 C580.136,101.3395 580.698,101.9112 580.698,102.6967 C580.698,103.5916 579.972,104.1484 579.012,104.1484 L577.188,104.1484 Z M589.332,106.7884 C589.332,107.9517 588.502,108.5284 587.706,108.5284 C586.841,108.5284 586.264,107.9169 586.264,106.9474 L586.264,102.3636 L584.465,102.3636 L584.465,107.2259 C584.465,109.0604 585.509,110.0994 587.01,110.0994 C588.154,110.0994 588.959,109.4979 589.307,108.6428 L589.387,108.6428 L589.387,110 L591.132,110 L591.132,102.3636 L589.332,102.3636 L589.332,106.7884 Z M596.796,102.3636 L595.289,102.3636 L595.289,100.5341 L593.489,100.5341 L593.489,102.3636 L592.406,102.3636 L592.406,103.7557 L593.489,103.7557 L593.489,108.0014 C593.479,109.4382 594.524,110.1442 595.876,110.1044 C596.388,110.0895 596.741,109.9901 596.935,109.9254 L596.631,108.5185 C596.532,108.5433 596.328,108.5881 596.104,108.5881 C595.652,108.5881 595.289,108.429 595.289,107.7031 L595.289,103.7557 L596.796,103.7557 L596.796,102.3636 Z M602.114,102.3636 L600.608,102.3636 L600.608,100.5341 L598.808,100.5341 L598.808,102.3636 L597.724,102.3636 L597.724,103.7557 L598.808,103.7557 L598.808,108.0014 C598.798,109.4382 599.842,110.1442 601.194,110.1044 C601.706,110.0895 602.059,109.9901 602.253,109.9254 L601.95,108.5185 C601.85,108.5433 601.647,108.5881 601.423,108.5881 C600.97,108.5881 600.608,108.429 600.608,107.7031 L600.608,103.7557 L602.114,103.7557 L602.114,102.3636 Z M606.868,110.1491 C609.105,110.1491 610.527,108.5732 610.527,106.2116 C610.527,103.8452 609.105,102.2642 606.868,102.2642 C604.631,102.2642 603.209,103.8452 603.209,106.2116 C603.209,108.5732 604.631,110.1491 606.868,110.1491 Z M606.878,108.7074 C605.64,108.7074 605.033,107.6037 605.033,106.2067 C605.033,104.8097 605.64,103.6911 606.878,103.6911 C608.096,103.6911 608.703,104.8097 608.703,106.2067 C608.703,107.6037 608.096,108.7074 606.878,108.7074 Z M613.854,105.5256 C613.854,104.4219 614.521,103.7855 615.47,103.7855 C616.4,103.7855 616.957,104.397 616.957,105.4162 L616.957,110 L618.756018,110 L618.756018,105.1378 C618.761,103.3082 617.717,102.2642 616.141,102.2642 C614.998,102.2642 614.212,102.8111 613.864,103.6612 L613.775,103.6612 L613.775,102.3636 L612.055,102.3636 L612.055,110 L613.854,110 L613.854,105.5256 Z" id="Shape" fill-opacity="0.651852054" fill="#FFFFFF" fill-rule="nonzero"></path>
                <path d="M0,92.3357006 C0,92.3357006 79.5962522,29.156921 114.137391,30.0085327 C128.685499,30.364022 106.494549,53.7364658 114.290569,54.9005955 C122.087233,56.0653763 144.065149,33.090742 171.156528,41.7162402 C213.195053,55.0978725 166.496165,137.749782 255.346852,164.7865 C344.196896,191.823218 382.586808,143.520298 433.58757,141.417963 C484.587045,139.316279 595.042999,214.896165 636.827942,210.842546 C678.613529,206.788926 546.785937,93.4483951 572.665403,71.5180919 C587.452933,58.9887223 621.880797,79.2965359 635.383687,76.0990856 C648.885933,72.9009842 630.165959,44.0790069 641.830705,41.6771755 C653.495451,39.2759951 735,84.5409795 735,84.5409795" id="wire" stroke-opacity="0.370984484" stroke="#FFFFFF" stroke-width="2"></path>
                <g id="page" transform="translate(125.000000, 0.000000)">
                    <g id="Clipped">
                        <mask id="mask-2" fill="white">
                            <use xlink:href="#path-1"></use>
                        </mask>
                        <g id="Rectangle"></g>
                        <g id="Group" mask="url(#mask-2)">
                            <g transform="translate(-1.271429, -1.271429)">
                                <g id="Group" stroke-width="1" fill="none">
                                    <rect id="Rectangle" fill="#323452" x="1.27142857" y="1.27142857" width="356" height="105.528571"></rect>
                                    <rect id="Rectangle" stroke-opacity="0.04" stroke="#FFFFFF" x="0.635714286" y="0.635714286" width="357.271429" height="106.8"></rect>
                                </g>
                                <rect id="Rectangle" fill-opacity="0.354212194" fill="#FFFFFF" x="146.214286" y="142.4" width="10.1714286" height="10.1714286" rx="3"></rect>
                                <rect id="Rectangle" fill-opacity="0.354212194" fill="#FFFFFF" x="80.1" y="142.4" width="10.1714286" height="10.1714286" rx="3"></rect>
                                <rect id="Rectangle" fill-opacity="0.354212194" fill="#FFFFFF" x="146.214286" y="157.657143" width="45.7714286" height="2.54285714" rx="1"></rect>
                                <rect id="Rectangle" fill-opacity="0.354212194" fill="#FFFFFF" x="80.1" y="157.657143" width="45.7714286" height="2.54285714" rx="1"></rect>
                                <rect id="Rectangle" fill-opacity="0.354212194" fill="#FFFFFF" x="212.328571" y="157.657143" width="45.7714286" height="2.54285714" rx="1"></rect>
                                <rect id="Rectangle" fill-opacity="0.354212194" fill="#FFFFFF" x="146.214286" y="165.285714" width="50.8571429" height="2.54285714" rx="1"></rect>
                                <rect id="Rectangle" fill-opacity="0.354212194" fill="#FFFFFF" x="80.1" y="165.285714" width="50.8571429" height="2.54285714" rx="1"></rect>
                                <rect id="Rectangle" fill-opacity="0.354212194" fill="#FFFFFF" x="212.328571" y="165.285714" width="50.8571429" height="2.54285714" rx="1"></rect>
                                <rect id="Rectangle" fill-opacity="0.354212194" fill="#FFFFFF" x="146.214286" y="171.642857" width="55.9428571" height="2.54285714" rx="1"></rect>
                                <rect id="Rectangle" fill-opacity="0.354212194" fill="#FFFFFF" x="80.1" y="171.642857" width="55.9428571" height="2.54285714" rx="1"></rect>
                                <rect id="Rectangle" fill-opacity="0.354212194" fill="#FFFFFF" x="212.328571" y="171.642857" width="55.9428571" height="2.54285714" rx="1"></rect>
                                <rect id="Rectangle" fill-opacity="0.354212194" fill="#FFFFFF" x="212.328571" y="142.4" width="10.1714286" height="10.1714286" rx="3"></rect>
                                <rect id="Rectangle" fill-opacity="0.651852054" fill="#FFFFFF" x="136.042857" y="34.3285714" width="86.4571429" height="3.81428571" rx="1.5"></rect>
                                <rect id="Rectangle" fill-opacity="0.651852054" fill="#FFFFFF" x="120.785714" y="43.2285714" width="116.971429" height="3.81428571" rx="1.5"></rect>
                                <rect id="Rectangle" fill-opacity="0.651852054" fill="#FFFFFF" x="141.128571" y="122.057143" width="76.2857143" height="3.81428571" rx="1.5"></rect>
                                <rect id="Rectangle" fill-opacity="0.354212194" fill="#FFFFFF" x="118.242857" y="53.4" width="120.785714" height="2.54285714" rx="1"></rect>
                                <rect id="Rectangle" fill-opacity="0.354212194" fill="#FFFFFF" x="118.242857" y="129.685714" width="120.785714" height="2.54285714" rx="1"></rect>
                                <rect id="Rectangle" fill-opacity="0.354212194" fill="#FFFFFF" x="125.871429" y="61.0285714" width="106.8" height="2.54285714" rx="1"></rect>
                                <rect id="Rectangle" fill-opacity="0.610085227" fill="#FFFFFF" x="147.485714" y="73.7428571" width="30.5142857" height="12.7142857" rx="3"></rect>
                                <rect id="Rectangle" fill-opacity="0.651852054" fill="#FFFFFF" x="155.114286" y="78.8285714" width="15.2571429" height="2.54285714" rx="1"></rect>
                                <rect id="Rectangle" fill-opacity="0.370875219" fill="#FFFFFF" x="183.085714" y="73.7428571" width="30.5142857" height="12.7142857" rx="3"></rect>
                                <rect id="Rectangle" fill-opacity="0.354212194" fill="#FFFFFF" x="190.714286" y="78.8285714" width="15.2571429" height="2.54285714" rx="1"></rect>
                                <rect id="Rectangle" fill-opacity="0.651852054" fill="#FFFFFF" x="80.1" y="8.9" width="10.1714286" height="10.1714286" rx="4"></rect>
                                <rect id="Rectangle" fill-opacity="0.354212194" fill="#FFFFFF" x="258.1" y="13.9857143" width="20.3428571" height="2.54285714" rx="1"></rect>
                                <rect id="Rectangle" fill-opacity="0.354212194" fill="#FFFFFF" x="227.585714" y="13.9857143" width="20.3428571" height="2.54285714" rx="1"></rect>
                                <rect id="Rectangle" fill-opacity="0.354212194" fill="#FFFFFF" x="197.071429" y="13.9857143" width="20.3428571" height="2.54285714" rx="1"></rect>
                            </g>
                        </g>
                    </g>
                </g>
                <g id="userCard" transform="translate(168.000000, 219.000000)" fill="#FFFFFF">
                    <circle id="Oval" fill-opacity="0.370875219" cx="13" cy="13" r="13"></circle>
                    <path d="M13.0009,14.0827 C15.3941,14.0827 17.3342,12.1426 17.3342,9.7493 C17.3342,7.3561 15.3941,5.416 13.0009,5.416 C10.6077,5.416 8.6676,7.3561 8.6676,9.7493 C8.6676,12.1426 10.6077,14.0827 13.0009,14.0827 Z M13.0037,16.2502 C8.88,16.2502 5.115,17.7862 2.2498,20.3173 C4.5901,23.748 8.5303,26.0002 12.9965,26.0002 C17.4661,26.0002 21.4089,23.7445 23.7486,20.3094 C20.8845,17.783 17.1231,16.2502 13.0037,16.2502 Z" id="Shape" fill-opacity="0.354212194"></path>
                    <rect id="Rectangle" fill-opacity="0.651852054" x="35" y="3" width="76" height="3" rx="1.5"></rect>
                    <rect id="Rectangle" fill-opacity="0.354212194" x="35" y="11" width="160" height="2" rx="1"></rect>
                    <rect id="Rectangle" fill-opacity="0.354212194" x="35" y="16" width="164" height="2" rx="1"></rect>
                    <rect id="Rectangle" fill-opacity="0.354212194" x="35" y="21" width="132" height="2" rx="1"></rect>
                </g>
                <g id="Button-Copy" transform="translate(234.000000, 270.000000)">
                    <g id="Group">
                        <rect id="Rectangle" fill-opacity="0.639231862" fill="#FFFFFF" x="0" y="0" width="69" height="30" rx="6"></rect>
                        <path d="M13.119,20 L17.021,20 C19.388,20 20.457,18.8217 20.457,17.2607 C20.457,15.6847 19.353,14.7947 18.344,14.7401 L18.344,14.6406 C19.278,14.402 20.059,13.7656 20.059,12.4929 C20.059,10.9865 19.015,9.8182 16.847,9.8182 L13.119,9.8182 L13.119,20 Z M14.655,18.6825 L14.655,15.4212 L16.927,15.4212 C18.16,15.4212 18.93,16.2166 18.93,17.1861 C18.93,18.0412 18.349,18.6825 16.872,18.6825 L14.655,18.6825 Z M14.655,14.223 L14.655,11.1257 L16.753,11.1257 C17.971,11.1257 18.553,11.767 18.553,12.6122 C18.553,13.5966 17.747,14.223 16.713,14.223 L14.655,14.223 Z M26.922,16.8331 C26.927,18.1307 25.962,18.7472 25.127,18.7472 C24.207,18.7472 23.571,18.081 23.571,17.0419 L23.571,12.3636 L22.084,12.3636 L22.084,17.2209 C22.084,19.1151 23.124,20.0994 24.59,20.0994 C25.739,20.0994 26.519,19.4929 26.872,18.6776 L26.952,18.6776 L26.952,20 L28.413,20 L28.413,12.3636 L26.922,12.3636 L26.922,16.8331 Z M33.9,12.3636 L32.334,12.3636 L32.334,10.5341 L30.848,10.5341 L30.848,12.3636 L29.729,12.3636 L29.729,13.5568 L30.848,13.5568 L30.848,18.0661 C30.843,19.4531 31.902,20.1243 33.075,20.0994 C33.547,20.0945 33.865,20.005 34.039,19.9403 L33.771,18.7124 C33.672,18.7322 33.488,18.777 33.249,18.777 C32.767,18.777 32.334,18.6179 32.334,17.7578 L32.334,13.5568 L33.9,13.5568 L33.9,12.3636 Z M39.034,12.3636 L37.468,12.3636 L37.468,10.5341 L35.982,10.5341 L35.982,12.3636 L34.863,12.3636 L34.863,13.5568 L35.982,13.5568 L35.982,18.0661 C35.977,19.4531 37.036,20.1243 38.209,20.0994 C38.681,20.0945 38.999,20.005 39.173,19.9403 L38.905,18.7124 C38.806,18.7322 38.622,18.777 38.383,18.777 C37.901,18.777 37.468,18.6179 37.468,17.7578 L37.468,13.5568 L39.034,13.5568 L39.034,12.3636 Z M43.738,20.1541 C45.891,20.1541 47.298,18.5781 47.298,16.2166 C47.298,13.8402 45.891,12.2642 43.738,12.2642 C41.585,12.2642 40.179,13.8402 40.179,16.2166 C40.179,18.5781 41.585,20.1541 43.738,20.1541 Z M43.743,18.9062 C42.336,18.9062 41.68,17.6783 41.68,16.2116 C41.68,14.75 42.336,13.5071 43.743,13.5071 C45.14,13.5071 45.796,14.75 45.796,16.2116 C45.796,17.6783 45.14,18.9062 43.743,18.9062 Z M50.369,15.4659 C50.369,14.2479 51.114,13.5518 52.148,13.5518 C53.158,13.5518 53.769,14.2131 53.769,15.3217 L53.769,20 L55.256,20 L55.256,15.1428 C55.256,13.2536 54.217,12.2642 52.656,12.2642 C51.507,12.2642 50.756,12.7962 50.403,13.6065 L50.309,13.6065 L50.309,12.3636 L48.882,12.3636 L48.882,20 L50.369,20 L50.369,15.4659 Z" id="Shape" fill="#323452" fill-rule="nonzero"></path>
                    </g>
                </g>
            </g>
        </g>
    </g>
</svg>