<?xml version="1.0" encoding="UTF-8"?>
<svg width="513px" height="94px" viewBox="0 0 513 94" version="1.1" xmlns="http://www.w3.org/2000/svg" xmlns:xlink="http://www.w3.org/1999/xlink">
    <!-- Generator: Sketch 63 (92445) - https://sketch.com -->
    <title>logo</title>
    <desc>Created with Sketch.</desc>
    <g id="Page-1" stroke="none" stroke-width="1" fill="none" fill-rule="evenodd">
        <g id="Artboard" transform="translate(-131.000000, -62.000000)" fill="#FFFFFF">
            <g id="logo" transform="translate(131.000000, 62.000000)">
                <text id="Landing" font-family="SFUIText-Medium, SF UI Text" font-size="60" font-weight="400" letter-spacing="-3.153846">
                    <tspan x="143" y="81">Landing Blocks</tspan>
                </text>
                <path d="M9.61620766,-2.84217094e-14 C9.61620766,-2.84217094e-14 14.953162,0.896089378 15.8663163,2.63846214 C18.0909706,6.88290953 17.3901298,20.7900827 19.7858716,23.6313962 C22.0105259,26.2698583 103.260908,55.8666176 103.260908,55.8666176 C103.260908,55.8666176 110.068705,58.2538978 114.605798,63.4088049 L107.967191,63.4093359 L107.967191,72.4965242 L120.353032,72.4968998 C122.144035,76.2626342 122.760176,79.5688536 120.739671,81.3335252 C117.501378,84.1615152 104.88909,79.5154956 104.539373,79.385894 L104.531955,79.3831391 L76.3540315,70.0913215 C76.3540315,70.0913215 32.074033,89.8223084 25.0826306,90.8549806 C18.0909706,91.8873737 13.9596171,87.0691669 13.9596171,87.0691669 C13.9596171,87.0691669 53.0487556,60.2258281 48.3876489,58.8491178 C43.7265422,57.4726866 21.1630753,48.0659106 18.7266229,46.3451623 C16.2901704,44.6244139 4.8494595,36.9383862 1.67145562,32.2351377 C-1.44881697,27.6174028 0.741002358,23.9945919 0.821663647,23.8643798 L0.823927797,23.8607549 L9.61620766,-2.84217094e-14 Z M43.1970466,2.75316939 C45.4790468,2.75316939 51.7220539,7.0424819 51.9811887,7.22120325 L51.9895069,7.22694758 L67.9851677,36.1353518 L48.5994471,29.2526375 C48.5994471,29.2526375 40.8664933,2.75316939 43.1970466,2.75316939 Z" id="Combined-Shape"></path>
            </g>
        </g>
    </g>
</svg>