<?xml version="1.0" encoding="UTF-8"?>
<svg width="444px" height="62px" viewBox="0 0 444 62" version="1.1" xmlns="http://www.w3.org/2000/svg" xmlns:xlink="http://www.w3.org/1999/xlink">
    <!-- Generator: Sketch 63 (92445) - https://sketch.com -->
    <title>logo_white</title>
    <desc>Created with Sketch.</desc>
    <g id="Page-1" stroke="none" stroke-width="1" fill="none" fill-rule="evenodd">
        <g id="Artboard" transform="translate(-40.000000, -299.000000)" fill="#FFFFFF" fill-rule="nonzero">
            <g id="logo_white" transform="translate(40.000000, 292.000000)">
                <path d="M39.9,7 L55.1,7 C56.1493542,7 57,8.44644231 57,10.2307692 L57,31.7692308 C57,33.5535577 56.1493542,35 55.1,35 L39.9,35 C38.8506458,35 38,33.5535577 38,31.7692308 L38,10.2307692 C38,8.44644231 38.8506458,7 39.9,7 Z M28.8,7 L3.2,7 C1.43266667,7 0,8.44644231 0,10.2307692 L0,31.7692308 C0,33.5535577 1.43266667,35 3.2,35 L28.8,35 C30.5673333,35 32,33.5535577 32,31.7692308 L32,10.2307692 C32,8.44644231 30.5673333,7 28.8,7 Z M0,42.2564103 L0,55.0769231 C0,56.1390224 0.850645833,57 1.9,57 L17.1,57 C18.1493542,57 19,56.1390224 19,55.0769231 L19,42.2564103 C19,41.1943109 18.1493542,40.3333333 17.1,40.3333333 L1.9,40.3333333 C0.850645833,40.3333333 0,41.1943109 0,42.2564103 Z M28.2,57 L53.8,57 C55.5673333,57 57,56.1390224 57,55.0769231 L57,42.2564103 C57,41.1943109 55.5673333,40.3333333 53.8,40.3333333 L28.2,40.3333333 C26.4326667,40.3333333 25,41.1943109 25,42.2564103 L25,55.0769231 C25,56.1390224 26.4326667,57 28.2,57 Z" id="Shape"></path>
                <path d="M99.1132812,56 L99.1132812,50.0820312 L79.7480469,50.0820312 L79.7480469,13.34375 L72.3359375,13.34375 L72.3359375,56 L99.1132812,56 Z M111.354357,56.5859375 C114.635607,56.5859375 117.409045,55.4042969 119.67467,53.0410156 C119.909045,54.4082031 120.182482,55.3945312 120.494982,56 L120.494982,56 L127.760607,56 L127.760607,55.5019531 C126.959826,53.8027344 126.559435,51.5273438 126.559435,48.6757812 L126.559435,48.6757812 L126.559435,34.3789062 C126.500842,31 125.368029,28.3779297 123.160998,26.5126953 C120.953967,24.6474609 117.994982,23.7148438 114.284045,23.7148438 C111.842638,23.7148438 109.630724,24.1445312 107.648302,25.0039062 C105.665881,25.8632812 104.098498,27.0498047 102.946154,28.5634766 C101.79381,30.0771484 101.217638,31.703125 101.217638,33.4414062 L101.217638,33.4414062 L108.336779,33.4414062 C108.336779,32.1914062 108.854357,31.1611328 109.889513,30.3505859 C110.92467,29.5400391 112.252795,29.1347656 113.873888,29.1347656 C115.748888,29.1347656 117.145373,29.6279297 118.063342,30.6142578 C118.98131,31.6005859 119.440295,32.9140625 119.440295,34.5546875 L119.440295,34.5546875 L119.440295,36.6347656 L115.07506,36.6347656 C110.407092,36.6347656 106.818224,37.5380859 104.308459,39.3447266 C101.798693,41.1513672 100.54381,43.7441406 100.54381,47.1230469 C100.54381,49.7988281 101.54967,52.0449219 103.561388,53.8613281 C105.573107,55.6777344 108.170763,56.5859375 111.354357,56.5859375 Z M112.672717,50.8730469 C111.149279,50.8730469 109.933459,50.4677734 109.025256,49.6572266 C108.117052,48.8466797 107.662951,47.7578125 107.662951,46.390625 C107.662951,44.7109375 108.327013,43.4121094 109.655138,42.4941406 C110.983263,41.5761719 112.965685,41.1171875 115.602404,41.1171875 L115.602404,41.1171875 L119.440295,41.1171875 L119.440295,47.09375 C118.815295,48.2460938 117.882677,49.1640625 116.642443,49.8476562 C115.402209,50.53125 114.078967,50.8730469 112.672717,50.8730469 Z M138.478246,56 L138.478246,33.4414062 C139.884496,30.84375 142.023167,29.5449219 144.894261,29.5449219 C146.866917,29.5449219 148.287816,30.0283203 149.156956,30.9951172 C150.026097,31.9619141 150.460667,33.4511719 150.460667,35.4628906 L150.460667,35.4628906 L150.460667,56 L157.579808,56 L157.579808,35.0527344 C157.462621,27.4941406 154.103246,23.7148438 147.501683,23.7148438 C143.693089,23.7148438 140.616917,25.1308594 138.273167,27.9628906 L138.273167,27.9628906 L138.068089,24.3007812 L131.359105,24.3007812 L131.359105,56 L138.478246,56 Z M173.395103,56.5859375 C176.94979,56.5859375 179.791587,55.296875 181.920493,52.71875 L181.920493,52.71875 L182.272056,56 L188.717368,56 L188.717368,11 L181.598228,11 L181.598228,27.2304688 C179.527915,24.8867188 176.813071,23.7148438 173.453696,23.7148438 C169.645103,23.7148438 166.607993,25.1943359 164.342368,28.1533203 C162.076743,31.1123047 160.943931,35.0332031 160.943931,39.9160156 C160.943931,45.0527344 162.091392,49.1152344 164.386314,52.1035156 C166.681235,55.0917969 169.684165,56.5859375 173.395103,56.5859375 Z M175.211509,50.7851562 C172.926353,50.7851562 171.163657,49.8818359 169.923423,48.0751953 C168.683189,46.2685547 168.063071,43.7539062 168.063071,40.53125 C168.063071,36.859375 168.688071,34.1103516 169.938071,32.2841797 C171.188071,30.4580078 172.965415,29.5449219 175.270103,29.5449219 C178.180259,29.5449219 180.289634,30.8144531 181.598228,33.3535156 L181.598228,33.3535156 L181.598228,46.8886719 C180.250571,49.4863281 178.121665,50.7851562 175.211509,50.7851562 Z M197.6186,19.8183594 C198.907663,19.8183594 199.903757,19.4619141 200.606882,18.7490234 C201.310007,18.0361328 201.661569,17.1425781 201.661569,16.0683594 C201.661569,14.9746094 201.310007,14.0664062 200.606882,13.34375 C199.903757,12.6210938 198.907663,12.2597656 197.6186,12.2597656 C196.329538,12.2597656 195.338327,12.6210938 194.644968,13.34375 C193.951608,14.0664062 193.604928,14.9746094 193.604928,16.0683594 C193.604928,17.1425781 193.951608,18.0361328 194.644968,18.7490234 C195.338327,19.4619141 196.329538,19.8183594 197.6186,19.8183594 Z M201.163522,56 L201.163522,24.3007812 L194.044382,24.3007812 L194.044382,56 L201.163522,56 Z M213.375301,56 L213.375301,33.4414062 C214.781551,30.84375 216.920223,29.5449219 219.791317,29.5449219 C221.763973,29.5449219 223.184872,30.0283203 224.054012,30.9951172 C224.923153,31.9619141 225.357723,33.4511719 225.357723,35.4628906 L225.357723,35.4628906 L225.357723,56 L232.476864,56 L232.476864,35.0527344 C232.359676,27.4941406 229.000301,23.7148438 222.398739,23.7148438 C218.590145,23.7148438 215.513973,25.1308594 213.170223,27.9628906 L213.170223,27.9628906 L212.965145,24.3007812 L206.256161,24.3007812 L206.256161,56 L213.375301,56 Z M249.522627,68.4804688 C253.917158,68.4804688 257.408369,67.2792969 259.99626,64.8769531 C262.584151,62.4746094 263.878096,59.1933594 263.878096,55.0332031 L263.878096,55.0332031 L263.878096,24.3007812 L257.46208,24.3007812 L257.139815,27.4941406 C255.069502,24.9746094 252.227705,23.7148438 248.614424,23.7148438 C244.786299,23.7148438 241.71501,25.1845703 239.400557,28.1240234 C237.086104,31.0634766 235.928877,34.9941406 235.928877,39.9160156 C235.928877,45.1308594 237.105635,49.2128906 239.459151,52.1621094 C241.812666,55.1113281 244.844893,56.5859375 248.55583,56.5859375 C251.973799,56.5859375 254.708174,55.4433594 256.758955,53.1582031 L256.758955,53.1582031 L256.758955,55.296875 C256.758955,57.7773438 256.075361,59.6572266 254.708174,60.9365234 C253.340986,62.2158203 251.475752,62.8554688 249.112471,62.8554688 C245.909346,62.8554688 243.214033,61.5566406 241.026533,58.9589844 L241.026533,58.9589844 L237.657393,63.2363281 C238.809736,64.7988281 240.494307,66.0634766 242.711104,67.0302734 C244.927901,67.9970703 247.198408,68.4804688 249.522627,68.4804688 Z M250.372236,50.7851562 C248.067549,50.7851562 246.265791,49.8720703 244.966963,48.0458984 C243.668135,46.2197266 243.018721,43.7148438 243.018721,40.53125 C243.018721,36.9179688 243.668135,34.1835938 244.966963,32.328125 C246.265791,30.4726562 248.08708,29.5449219 250.43083,29.5449219 C253.301924,29.5449219 255.411299,30.7460938 256.758955,33.1484375 L256.758955,33.1484375 L256.758955,47.09375 C255.372236,49.5546875 253.24333,50.7851562 250.372236,50.7851562 Z M297.266498,56 C302.051654,56 305.728412,54.9257812 308.296771,52.7773438 C310.86513,50.6289062 312.14931,47.5527344 312.14931,43.5488281 C312.14931,41.1269531 311.519427,39.0517578 310.259662,37.3232422 C308.999896,35.5947266 307.21767,34.4179688 304.912982,33.7929688 C306.944232,32.9335938 308.487201,31.7226562 309.541888,30.1601562 C310.596576,28.5976562 311.12392,26.8398438 311.12392,24.8867188 C311.12392,21.0585938 309.864154,18.1777344 307.344623,16.2441406 C304.825091,14.3105469 301.153216,13.34375 296.328998,13.34375 L296.328998,13.34375 L281.709857,13.34375 L281.709857,56 L297.266498,56 Z M296.387591,31.3027344 L289.121966,31.3027344 L289.121966,19.3203125 L296.328998,19.3203125 C298.86806,19.3203125 300.738177,19.7890625 301.939349,20.7265625 C303.140521,21.6640625 303.741107,23.1875 303.741107,25.296875 C303.741107,27.2109375 303.091693,28.6904297 301.792865,29.7353516 C300.494037,30.7802734 298.692279,31.3027344 296.387591,31.3027344 L296.387591,31.3027344 Z M297.354388,50.0820312 L289.121966,50.0820312 L289.121966,36.7519531 L297.969623,36.7519531 C302.500873,36.8496094 304.766498,39.1152344 304.766498,43.5488281 C304.766498,45.5996094 304.112201,47.2011719 302.803607,48.3535156 C301.495013,49.5058594 299.678607,50.0820312 297.354388,50.0820312 L297.354388,50.0820312 Z M323.892339,56 L323.892339,11 L316.773199,11 L316.773199,56 L323.892339,56 Z M342.520134,56.5859375 C345.449821,56.5859375 348.032829,55.9121094 350.269157,54.5644531 C352.505485,53.2167969 354.224235,51.3125 355.425407,48.8515625 C356.626579,46.390625 357.227165,43.5976562 357.227165,40.4726562 L357.227165,40.4726562 L357.197868,38.8027344 C356.983024,34.2519531 355.542595,30.5996094 352.876579,27.8457031 C350.210563,25.0917969 346.738884,23.7148438 342.46154,23.7148438 C339.570915,23.7148438 337.012321,24.3837891 334.785759,25.7216797 C332.559196,27.0595703 330.830681,28.9736328 329.600212,31.4638672 C328.369743,33.9541016 327.754509,36.7519531 327.754509,39.8574219 L327.754509,39.8574219 L327.754509,40.2089844 C327.754509,45.1699219 329.097282,49.1396484 331.782829,52.1181641 C334.468376,55.0966797 338.047478,56.5859375 342.520134,56.5859375 Z M342.520134,50.9023438 C340.11779,50.9023438 338.24279,49.9794922 336.895134,48.1337891 C335.547478,46.2880859 334.873649,43.734375 334.873649,40.4726562 C334.873649,36.8007812 335.557243,34.0419922 336.924431,32.1962891 C338.291618,30.3505859 340.137321,29.4277344 342.46154,29.4277344 C344.824821,29.4277344 346.694938,30.3652344 348.071892,32.2402344 C349.448845,34.1152344 350.137321,36.6542969 350.137321,39.8574219 C350.137321,43.4707031 349.468376,46.2148438 348.130485,48.0898438 C346.792595,49.9648438 344.922478,50.9023438 342.520134,50.9023438 Z M373.804178,56.5859375 C376.089335,56.5859375 378.218241,56.0878906 380.190897,55.0917969 C382.163553,54.0957031 383.726053,52.7431641 384.878397,51.0341797 C386.030741,49.3251953 386.645975,47.484375 386.7241,45.5117188 L386.7241,45.5117188 L380.015116,45.5117188 C379.936991,47.0351562 379.311991,48.3144531 378.140116,49.3496094 C376.968241,50.3847656 375.493631,50.9023438 373.716288,50.9023438 C371.372538,50.9023438 369.580546,50.0576172 368.340311,48.3681641 C367.100077,46.6787109 366.47996,44.1152344 366.47996,40.6777344 L366.47996,40.6777344 L366.47996,39.5351562 C366.499491,36.1367188 367.134256,33.6025391 368.384256,31.9326172 C369.634256,30.2626953 371.4116,29.4277344 373.716288,29.4277344 C375.513163,29.4277344 376.992655,30.0136719 378.154764,31.1855469 C379.316874,32.3574219 379.936991,33.8515625 380.015116,35.6679688 L380.015116,35.6679688 L386.7241,35.6679688 C386.606913,32.09375 385.361796,29.2080078 382.988749,27.0107422 C380.615702,24.8134766 377.544413,23.7148438 373.774881,23.7148438 C369.321756,23.7148438 365.806131,25.1650391 363.228006,28.0654297 C360.649881,30.9658203 359.360819,34.828125 359.360819,39.6523438 L359.360819,39.6523438 L359.360819,40.3847656 C359.360819,45.4433594 360.659647,49.4082031 363.257303,52.2792969 C365.85496,55.1503906 369.370585,56.5859375 373.804178,56.5859375 Z M396.68002,56 L396.68002,45.6582031 L399.844082,42.40625 L409.248379,56 L417.480801,56 L404.443692,37.5136719 L416.221035,24.3007812 L407.666348,24.3007812 L398.906582,34.1738281 L396.68002,36.9570312 L396.68002,11 L389.560879,11 L389.560879,56 L396.68002,56 Z M430.249221,56.5859375 C434.077346,56.5859375 437.173049,55.7021484 439.53633,53.9345703 C441.899611,52.1669922 443.081252,49.8574219 443.081252,47.0058594 C443.081252,45.3066406 442.69551,43.8613281 441.924025,42.6699219 C441.152541,41.4785156 439.9709,40.4580078 438.379104,39.6083984 C436.787307,38.7587891 434.594924,38.0263672 431.801955,37.4111328 C429.008986,36.7958984 427.153518,36.1855469 426.235549,35.5800781 C425.31758,34.9746094 424.858596,34.125 424.858596,33.03125 C424.858596,31.8203125 425.35176,30.8535156 426.338088,30.1308594 C427.324416,29.4082031 428.59883,29.046875 430.16133,29.046875 C431.841018,29.046875 433.188674,29.5009766 434.204299,30.4091797 C435.219924,31.3173828 435.727736,32.4550781 435.727736,33.8222656 L435.727736,33.8222656 L442.846877,33.8222656 C442.846877,30.8339844 441.679885,28.4023438 439.3459,26.5273438 C437.011916,24.6523438 433.950393,23.7148438 430.16133,23.7148438 C426.606643,23.7148438 423.676955,24.6328125 421.372268,26.46875 C419.06758,28.3046875 417.915236,30.5898438 417.915236,33.3242188 C417.915236,36.5859375 419.69258,39.0761719 423.247268,40.7949219 C424.868361,41.5761719 426.889846,42.2207031 429.311721,42.7285156 C431.733596,43.2363281 433.466994,43.8222656 434.511916,44.4863281 C435.556838,45.1503906 436.079299,46.1171875 436.079299,47.3867188 C436.079299,48.5390625 435.591018,49.4716797 434.614455,50.1845703 C433.637893,50.8974609 432.212111,51.2539062 430.337111,51.2539062 C428.403518,51.2539062 426.850783,50.7998047 425.678908,49.8916016 C424.507033,48.9833984 423.872268,47.6894531 423.774611,46.0097656 L423.774611,46.0097656 L416.860549,46.0097656 C416.860549,47.9042969 417.426955,49.671875 418.559768,51.3125 C419.69258,52.953125 421.274611,54.2421875 423.305861,55.1796875 C425.337111,56.1171875 427.651564,56.5859375 430.249221,56.5859375 Z" id="LandingBlocks"></path>
            </g>
        </g>
    </g>
</svg>