<?xml version="1.0" encoding="UTF-8"?>
<svg width="443px" height="61px" viewBox="0 0 443 61" version="1.1" xmlns="http://www.w3.org/2000/svg" xmlns:xlink="http://www.w3.org/1999/xlink">
    <!-- Generator: Sketch 63 (92445) - https://sketch.com -->
    <title>logo_black</title>
    <desc>Created with Sketch.</desc>
    <g id="Page-1" stroke="none" stroke-width="1" fill="none" fill-rule="evenodd">
        <g id="Artboard" transform="translate(-27.000000, -90.000000)" fill="#000000" fill-rule="nonzero">
            <g id="logo_black" transform="translate(27.000000, 82.000000)">
                <path d="M39.9,8 L55.1,8 C56.1493542,8 57,9.44644231 57,11.2307692 L57,32.7692308 C57,34.5535577 56.1493542,36 55.1,36 L39.9,36 C38.8506458,36 38,34.5535577 38,32.7692308 L38,11.2307692 C38,9.44644231 38.8506458,8 39.9,8 Z M28.8,8 L3.2,8 C1.43266667,8 0,9.44644231 0,11.2307692 L0,32.7692308 C0,34.5535577 1.43266667,36 3.2,36 L28.8,36 C30.5673333,36 32,34.5535577 32,32.7692308 L32,11.2307692 C32,9.44644231 30.5673333,8 28.8,8 Z M0,43.2564103 L0,56.0769231 C0,57.1390224 0.850645833,58 1.9,58 L17.1,58 C18.1493542,58 19,57.1390224 19,56.0769231 L19,43.2564103 C19,42.1943109 18.1493542,41.3333333 17.1,41.3333333 L1.9,41.3333333 C0.850645833,41.3333333 0,42.1943109 0,43.2564103 Z M28.2,58 L53.8,58 C55.5673333,58 57,57.1390224 57,56.0769231 L57,43.2564103 C57,42.1943109 55.5673333,41.3333333 53.8,41.3333333 L28.2,41.3333333 C26.4326667,41.3333333 25,42.1943109 25,43.2564103 L25,56.0769231 C25,57.1390224 26.4326667,58 28.2,58 Z" id="Shape"></path>
                <path d="M100.113281,56 L100.113281,50.0820312 L80.7480469,50.0820312 L80.7480469,13.34375 L73.3359375,13.34375 L73.3359375,56 L100.113281,56 Z M112.254357,56.5859375 C115.535607,56.5859375 118.309045,55.4042969 120.57467,53.0410156 C120.809045,54.4082031 121.082482,55.3945312 121.394982,56 L121.394982,56 L128.660607,56 L128.660607,55.5019531 C127.859826,53.8027344 127.459435,51.5273438 127.459435,48.6757812 L127.459435,48.6757812 L127.459435,34.3789062 C127.400841,31 126.268029,28.3779297 124.060998,26.5126953 C121.853966,24.6474609 118.894982,23.7148438 115.184045,23.7148438 C112.742638,23.7148438 110.530724,24.1445312 108.548302,25.0039062 C106.565881,25.8632812 104.998498,27.0498047 103.846154,28.5634766 C102.69381,30.0771484 102.117638,31.703125 102.117638,33.4414062 L102.117638,33.4414062 L109.236779,33.4414062 C109.236779,32.1914062 109.754357,31.1611328 110.789513,30.3505859 C111.82467,29.5400391 113.152795,29.1347656 114.773888,29.1347656 C116.648888,29.1347656 118.045373,29.6279297 118.963341,30.6142578 C119.88131,31.6005859 120.340295,32.9140625 120.340295,34.5546875 L120.340295,34.5546875 L120.340295,36.6347656 L115.97506,36.6347656 C111.307091,36.6347656 107.718224,37.5380859 105.208459,39.3447266 C102.698693,41.1513672 101.44381,43.7441406 101.44381,47.1230469 C101.44381,49.7988281 102.44967,52.0449219 104.461388,53.8613281 C106.473107,55.6777344 109.070763,56.5859375 112.254357,56.5859375 Z M113.572716,50.8730469 C112.049279,50.8730469 110.833459,50.4677734 109.925256,49.6572266 C109.017052,48.8466797 108.562951,47.7578125 108.562951,46.390625 C108.562951,44.7109375 109.227013,43.4121094 110.555138,42.4941406 C111.883263,41.5761719 113.865685,41.1171875 116.502404,41.1171875 L116.502404,41.1171875 L120.340295,41.1171875 L120.340295,47.09375 C119.715295,48.2460938 118.782677,49.1640625 117.542443,49.8476562 C116.302209,50.53125 114.978966,50.8730469 113.572716,50.8730469 Z M139.278245,56 L139.278245,33.4414062 C140.684495,30.84375 142.823167,29.5449219 145.694261,29.5449219 C147.666917,29.5449219 149.087816,30.0283203 149.956956,30.9951172 C150.826097,31.9619141 151.260667,33.4511719 151.260667,35.4628906 L151.260667,35.4628906 L151.260667,56 L158.379808,56 L158.379808,35.0527344 C158.26262,27.4941406 154.903245,23.7148438 148.301683,23.7148438 C144.493089,23.7148438 141.416917,25.1308594 139.073167,27.9628906 L139.073167,27.9628906 L138.868089,24.3007812 L132.159105,24.3007812 L132.159105,56 L139.278245,56 Z M174.095103,56.5859375 C177.64979,56.5859375 180.491587,55.296875 182.620493,52.71875 L182.620493,52.71875 L182.972056,56 L189.417368,56 L189.417368,11 L182.298228,11 L182.298228,27.2304688 C180.227915,24.8867188 177.513071,23.7148438 174.153696,23.7148438 C170.345103,23.7148438 167.307993,25.1943359 165.042368,28.1533203 C162.776743,31.1123047 161.643931,35.0332031 161.643931,39.9160156 C161.643931,45.0527344 162.791392,49.1152344 165.086314,52.1035156 C167.381235,55.0917969 170.384165,56.5859375 174.095103,56.5859375 Z M175.911509,50.7851562 C173.626353,50.7851562 171.863657,49.8818359 170.623423,48.0751953 C169.383189,46.2685547 168.763071,43.7539062 168.763071,40.53125 C168.763071,36.859375 169.388071,34.1103516 170.638071,32.2841797 C171.888071,30.4580078 173.665415,29.5449219 175.970103,29.5449219 C178.880259,29.5449219 180.989634,30.8144531 182.298228,33.3535156 L182.298228,33.3535156 L182.298228,46.8886719 C180.950571,49.4863281 178.821665,50.7851562 175.911509,50.7851562 Z M198.2186,19.8183594 C199.507663,19.8183594 200.503757,19.4619141 201.206882,18.7490234 C201.910007,18.0361328 202.261569,17.1425781 202.261569,16.0683594 C202.261569,14.9746094 201.910007,14.0664062 201.206882,13.34375 C200.503757,12.6210938 199.507663,12.2597656 198.2186,12.2597656 C196.929538,12.2597656 195.938327,12.6210938 195.244968,13.34375 C194.551608,14.0664062 194.204928,14.9746094 194.204928,16.0683594 C194.204928,17.1425781 194.551608,18.0361328 195.244968,18.7490234 C195.938327,19.4619141 196.929538,19.8183594 198.2186,19.8183594 Z M201.763522,56 L201.763522,24.3007812 L194.644382,24.3007812 L194.644382,56 L201.763522,56 Z M213.875301,56 L213.875301,33.4414062 C215.281551,30.84375 217.420223,29.5449219 220.291317,29.5449219 C222.263973,29.5449219 223.684872,30.0283203 224.554012,30.9951172 C225.423153,31.9619141 225.857723,33.4511719 225.857723,35.4628906 L225.857723,35.4628906 L225.857723,56 L232.976864,56 L232.976864,35.0527344 C232.859676,27.4941406 229.500301,23.7148438 222.898739,23.7148438 C219.090145,23.7148438 216.013973,25.1308594 213.670223,27.9628906 L213.670223,27.9628906 L213.465145,24.3007812 L206.756161,24.3007812 L206.756161,56 L213.875301,56 Z M249.922627,68.4804688 C254.317158,68.4804688 257.808369,67.2792969 260.39626,64.8769531 C262.984151,62.4746094 264.278096,59.1933594 264.278096,55.0332031 L264.278096,55.0332031 L264.278096,24.3007812 L257.86208,24.3007812 L257.539815,27.4941406 C255.469502,24.9746094 252.627705,23.7148438 249.014424,23.7148438 C245.186299,23.7148438 242.11501,25.1845703 239.800557,28.1240234 C237.486104,31.0634766 236.328877,34.9941406 236.328877,39.9160156 C236.328877,45.1308594 237.505635,49.2128906 239.859151,52.1621094 C242.212666,55.1113281 245.244893,56.5859375 248.95583,56.5859375 C252.373799,56.5859375 255.108174,55.4433594 257.158955,53.1582031 L257.158955,53.1582031 L257.158955,55.296875 C257.158955,57.7773438 256.475362,59.6572266 255.108174,60.9365234 C253.740987,62.2158203 251.875752,62.8554688 249.512471,62.8554688 C246.309346,62.8554688 243.614033,61.5566406 241.426533,58.9589844 L241.426533,58.9589844 L238.057393,63.2363281 C239.209737,64.7988281 240.894307,66.0634766 243.111104,67.0302734 C245.327901,67.9970703 247.598408,68.4804688 249.922627,68.4804688 Z M250.772237,50.7851562 C248.467549,50.7851562 246.665791,49.8720703 245.366963,48.0458984 C244.068135,46.2197266 243.418721,43.7148438 243.418721,40.53125 C243.418721,36.9179688 244.068135,34.1835938 245.366963,32.328125 C246.665791,30.4726562 248.48708,29.5449219 250.83083,29.5449219 C253.701924,29.5449219 255.811299,30.7460938 257.158955,33.1484375 L257.158955,33.1484375 L257.158955,47.09375 C255.772237,49.5546875 253.64333,50.7851562 250.772237,50.7851562 Z M297.466498,56 C302.251654,56 305.928412,54.9257812 308.496771,52.7773438 C311.06513,50.6289062 312.34931,47.5527344 312.34931,43.5488281 C312.34931,41.1269531 311.719427,39.0517578 310.459662,37.3232422 C309.199896,35.5947266 307.41767,34.4179688 305.112982,33.7929688 C307.144232,32.9335938 308.687201,31.7226562 309.741888,30.1601562 C310.796576,28.5976562 311.32392,26.8398438 311.32392,24.8867188 C311.32392,21.0585938 310.064154,18.1777344 307.544623,16.2441406 C305.025091,14.3105469 301.353216,13.34375 296.528998,13.34375 L296.528998,13.34375 L281.909857,13.34375 L281.909857,56 L297.466498,56 Z M296.587591,31.3027344 L289.321966,31.3027344 L289.321966,19.3203125 L296.528998,19.3203125 C299.06806,19.3203125 300.938177,19.7890625 302.139349,20.7265625 C303.340521,21.6640625 303.941107,23.1875 303.941107,25.296875 C303.941107,27.2109375 303.291693,28.6904297 301.992865,29.7353516 C300.694037,30.7802734 298.892279,31.3027344 296.587591,31.3027344 L296.587591,31.3027344 Z M297.554388,50.0820312 L289.321966,50.0820312 L289.321966,36.7519531 L298.169623,36.7519531 C302.700873,36.8496094 304.966498,39.1152344 304.966498,43.5488281 C304.966498,45.5996094 304.312201,47.2011719 303.003607,48.3535156 C301.695013,49.5058594 299.878607,50.0820312 297.554388,50.0820312 L297.554388,50.0820312 Z M323.992339,56 L323.992339,11 L316.873199,11 L316.873199,56 L323.992339,56 Z M342.520134,56.5859375 C345.449821,56.5859375 348.032829,55.9121094 350.269157,54.5644531 C352.505485,53.2167969 354.224235,51.3125 355.425407,48.8515625 C356.626579,46.390625 357.227165,43.5976562 357.227165,40.4726562 L357.227165,40.4726562 L357.197868,38.8027344 C356.983024,34.2519531 355.542595,30.5996094 352.876579,27.8457031 C350.210563,25.0917969 346.738884,23.7148438 342.46154,23.7148438 C339.570915,23.7148438 337.012321,24.3837891 334.785759,25.7216797 C332.559196,27.0595703 330.830681,28.9736328 329.600212,31.4638672 C328.369743,33.9541016 327.754509,36.7519531 327.754509,39.8574219 L327.754509,39.8574219 L327.754509,40.2089844 C327.754509,45.1699219 329.097282,49.1396484 331.782829,52.1181641 C334.468376,55.0966797 338.047478,56.5859375 342.520134,56.5859375 Z M342.520134,50.9023438 C340.11779,50.9023438 338.24279,49.9794922 336.895134,48.1337891 C335.547478,46.2880859 334.873649,43.734375 334.873649,40.4726562 C334.873649,36.8007812 335.557243,34.0419922 336.924431,32.1962891 C338.291618,30.3505859 340.137321,29.4277344 342.46154,29.4277344 C344.824821,29.4277344 346.694938,30.3652344 348.071892,32.2402344 C349.448845,34.1152344 350.137321,36.6542969 350.137321,39.8574219 C350.137321,43.4707031 349.468376,46.2148438 348.130485,48.0898438 C346.792595,49.9648438 344.922478,50.9023438 342.520134,50.9023438 Z M373.704178,56.5859375 C375.989335,56.5859375 378.118241,56.0878906 380.090897,55.0917969 C382.063553,54.0957031 383.626053,52.7431641 384.778397,51.0341797 C385.930741,49.3251953 386.545975,47.484375 386.6241,45.5117188 L386.6241,45.5117188 L379.915116,45.5117188 C379.836991,47.0351562 379.211991,48.3144531 378.040116,49.3496094 C376.868241,50.3847656 375.393632,50.9023438 373.616288,50.9023438 C371.272538,50.9023438 369.480546,50.0576172 368.240311,48.3681641 C367.000077,46.6787109 366.37996,44.1152344 366.37996,40.6777344 L366.37996,40.6777344 L366.37996,39.5351562 C366.399491,36.1367188 367.034257,33.6025391 368.284257,31.9326172 C369.534257,30.2626953 371.3116,29.4277344 373.616288,29.4277344 C375.413163,29.4277344 376.892655,30.0136719 378.054764,31.1855469 C379.216874,32.3574219 379.836991,33.8515625 379.915116,35.6679688 L379.915116,35.6679688 L386.6241,35.6679688 C386.506913,32.09375 385.261796,29.2080078 382.888749,27.0107422 C380.515702,24.8134766 377.444413,23.7148438 373.674882,23.7148438 C369.221757,23.7148438 365.706132,25.1650391 363.128007,28.0654297 C360.549882,30.9658203 359.260819,34.828125 359.260819,39.6523438 L359.260819,39.6523438 L359.260819,40.3847656 C359.260819,45.4433594 360.559647,49.4082031 363.157303,52.2792969 C365.75496,55.1503906 369.270585,56.5859375 373.704178,56.5859375 Z M396.48002,56 L396.48002,45.6582031 L399.644082,42.40625 L409.048379,56 L417.280801,56 L404.243692,37.5136719 L416.021036,24.3007812 L407.466348,24.3007812 L398.706582,34.1738281 L396.48002,36.9570312 L396.48002,11 L389.360879,11 L389.360879,56 L396.48002,56 Z M429.949221,56.5859375 C433.777346,56.5859375 436.873049,55.7021484 439.23633,53.9345703 C441.599611,52.1669922 442.781252,49.8574219 442.781252,47.0058594 C442.781252,45.3066406 442.39551,43.8613281 441.624025,42.6699219 C440.852541,41.4785156 439.6709,40.4580078 438.079104,39.6083984 C436.487307,38.7587891 434.294924,38.0263672 431.501955,37.4111328 C428.708986,36.7958984 426.853518,36.1855469 425.935549,35.5800781 C425.01758,34.9746094 424.558596,34.125 424.558596,33.03125 C424.558596,31.8203125 425.05176,30.8535156 426.038088,30.1308594 C427.024416,29.4082031 428.29883,29.046875 429.86133,29.046875 C431.541018,29.046875 432.888674,29.5009766 433.904299,30.4091797 C434.919924,31.3173828 435.427736,32.4550781 435.427736,33.8222656 L435.427736,33.8222656 L442.546877,33.8222656 C442.546877,30.8339844 441.379885,28.4023438 439.0459,26.5273438 C436.711916,24.6523438 433.650393,23.7148438 429.86133,23.7148438 C426.306643,23.7148438 423.376955,24.6328125 421.072268,26.46875 C418.76758,28.3046875 417.615236,30.5898438 417.615236,33.3242188 C417.615236,36.5859375 419.39258,39.0761719 422.947268,40.7949219 C424.568361,41.5761719 426.589846,42.2207031 429.011721,42.7285156 C431.433596,43.2363281 433.166994,43.8222656 434.211916,44.4863281 C435.256838,45.1503906 435.779299,46.1171875 435.779299,47.3867188 C435.779299,48.5390625 435.291018,49.4716797 434.314455,50.1845703 C433.337893,50.8974609 431.912111,51.2539062 430.037111,51.2539062 C428.103518,51.2539062 426.550783,50.7998047 425.378908,49.8916016 C424.207033,48.9833984 423.572268,47.6894531 423.474611,46.0097656 L423.474611,46.0097656 L416.560549,46.0097656 C416.560549,47.9042969 417.126955,49.671875 418.259768,51.3125 C419.39258,52.953125 420.974611,54.2421875 423.005861,55.1796875 C425.037111,56.1171875 427.351565,56.5859375 429.949221,56.5859375 Z" id="LandingBlocks"></path>
            </g>
        </g>
    </g>
</svg>