<svg xmlns="http://www.w3.org/2000/svg" fill="none">
	<g filter="url(#filter0_dd)">
		<rect x="23" y="21.938" width="151" height="79" rx="5" transform="rotate(-6.44 23 21.938)" fill="#fff" />
	</g>
	<rect width="156" height="73" rx="5" fill="url(#paint0_linear)" />
	<path d="M15.008 49v-7.7h1.666v1.33h.126c.084-.467.303-.826.658-1.078.355-.261.812-.392 1.372-.392.775 0 1.39.252 1.848.756.457.504.686 1.185.686 2.044V49h-1.75v-4.83c0-.467-.126-.83-.378-1.092-.252-.27-.597-.406-1.036-.406-.448 0-.803.14-1.064.42-.252.27-.378.644-.378 1.12V49h-1.75zm10.102-7.7v1.33h.127a1.71 1.71 0 01.672-1.078c.364-.261.826-.392 1.386-.392.4 0 .765.07 1.091.21.327.14.602.34.826.602.234.261.411.579.532.952.131.364.197.78.197 1.246v1.918c0 .467-.066.891-.197 1.274a2.771 2.771 0 01-.532.966 2.232 2.232 0 01-.825.602c-.327.14-.691.21-1.093.21-.56 0-1.021-.13-1.386-.392-.354-.261-.578-.625-.672-1.092h-.126c0 .028.005.089.015.182.009.084.018.191.027.322.01.121.014.257.014.406.01.15.014.294.014.434v2.31h-1.764V41.3h1.694zm.07 4.788c0 .457.131.826.393 1.106.27.28.634.42 1.091.42.476 0 .85-.14 1.12-.42.271-.29.407-.672.407-1.148v-1.834c0-.476-.136-.85-.406-1.12-.271-.28-.645-.42-1.12-.42-.448 0-.808.14-1.078.42-.271.28-.407.653-.407 1.12v1.876zm8.815-1.064L31.42 41.3h1.988l1.302 1.946c.084.121.145.243.182.364a.626.626 0 01.056.154h.098a1.28 1.28 0 01.042-.154 2.02 2.02 0 01.07-.154c.037-.065.08-.135.126-.21l1.302-1.946h1.988l-2.576 3.724L38.741 49H36.74l-1.442-2.17a3.964 3.964 0 01-.196-.364 1.274 1.274 0 01-.07-.168h-.084a1.288 1.288 0 01-.07.168 1.401 1.401 0 01-.084.168 1.385 1.385 0 01-.112.182L33.225 49h-1.988l2.758-3.976z" fill="#E2E8F0" />
	<path d="M50.294 41.3v1.33h.126a1.71 1.71 0 01.672-1.078c.364-.261.826-.392 1.386-.392.401 0 .765.07 1.092.21.327.14.602.34.826.602.233.261.41.579.532.952.13.364.196.78.196 1.246v1.918c0 .467-.065.891-.196 1.274a2.771 2.771 0 01-.532.966c-.224.261-.5.462-.826.602-.327.14-.69.21-1.092.21-.56 0-1.022-.13-1.386-.392-.355-.261-.578-.625-.672-1.092h-.126c0 .028.005.089.014.182a6.791 6.791 0 01.042.728c.01.15.014.294.014.434v2.31H48.6V41.3h1.694zm.07 4.788c0 .457.13.826.392 1.106.27.28.635.42 1.092.42.476 0 .85-.14 1.12-.42.27-.29.406-.672.406-1.148v-1.834c0-.476-.135-.85-.406-1.12-.27-.28-.644-.42-1.12-.42-.448 0-.807.14-1.078.42-.27.28-.406.653-.406 1.12v1.876zm6.939-4.788h1.652v1.33h.126c.093-.467.326-.826.7-1.078.373-.261.849-.392 1.428-.392.83 0 1.479.257 1.946.77.466.513.7 1.223.7 2.128v.56H62.02v-.406c0-.495-.136-.877-.406-1.148-.271-.28-.644-.42-1.12-.42-.448 0-.803.14-1.064.42-.252.28-.378.663-.378 1.148V49h-1.75v-7.7zm8.226 6.104h2.758v-4.522H65.88V41.3h4.088v6.104h2.226V49H65.53v-1.596zm2.254-8.19c0-.27.089-.49.266-.658.187-.177.43-.266.728-.266h.364c.299 0 .537.089.714.266.187.168.28.387.28.658 0 .28-.093.504-.28.672-.187.168-.43.252-.728.252h-.35c-.299 0-.541-.084-.728-.252-.177-.168-.266-.392-.266-.672zm8.885 9.926c-.906 0-1.629-.182-2.17-.546-.532-.373-.84-.896-.924-1.568h1.792c.056.243.2.434.434.574.233.13.522.196.868.196h.56c.438 0 .774-.084 1.008-.252a.84.84 0 00.364-.714c0-.513-.397-.826-1.19-.938l-1.092-.126c-.878-.112-1.526-.355-1.946-.728-.42-.373-.63-.91-.63-1.61 0-.728.252-1.288.756-1.68.513-.392 1.246-.588 2.198-.588h.574c.85 0 1.53.182 2.044.546.522.355.83.854.924 1.498h-1.792a.75.75 0 00-.392-.504c-.206-.13-.467-.196-.784-.196h-.574c-.822 0-1.232.29-1.232.868 0 .495.345.784 1.036.868l1.134.154c.914.112 1.591.364 2.03.756.438.383.658.924.658 1.624 0 .756-.266 1.34-.798 1.75-.532.41-1.298.616-2.296.616h-.56zm5.174-7.84h1.33v1.12h.126c.028-.392.154-.7.378-.924.234-.224.542-.336.924-.336.364 0 .668.112.91.336.252.224.425.532.518.924h.056c.028-.392.154-.7.378-.924.234-.224.542-.336.924-.336.467 0 .83.177 1.092.532.27.345.406.821.406 1.428V49h-1.47v-5.74c0-.579-.224-.868-.672-.868-.43 0-.644.299-.644.896V49h-1.47v-5.74c0-.476-.154-.756-.462-.84a1.178 1.178 0 00-.21-.028c-.046 0-.116.01-.21.028-.29.084-.434.373-.434.868V49h-1.47v-7.7zm8.423 5.544c0-.383.07-.723.21-1.022.14-.308.34-.57.602-.784a2.71 2.71 0 01.938-.49 4.017 4.017 0 011.246-.182h1.932v-.658a.998.998 0 00-.406-.84c-.262-.215-.626-.322-1.092-.322-.383 0-.705.07-.966.21-.262.14-.43.331-.504.574h-1.722a2.33 2.33 0 011.036-1.582c.57-.392 1.288-.588 2.156-.588.494 0 .942.06 1.344.182.401.112.742.28 1.022.504.28.215.494.48.644.798.158.308.238.653.238 1.036V49H95.29v-1.512h-.112c-.094.504-.36.905-.798 1.204-.43.299-.966.448-1.61.448-.766 0-1.377-.205-1.834-.616-.448-.42-.672-.98-.672-1.68zm3.108.924c.532 0 .966-.126 1.302-.378.345-.261.518-.588.518-.98v-.896h-1.918c-.392 0-.7.098-.924.294-.224.196-.336.471-.336.826s.116.635.35.84c.242.196.578.294 1.008.294zm14.129-.364h2.758v-4.522h-2.408V41.3h4.088v6.104h2.226V49h-6.664v-1.596zm2.254-8.19c0-.27.089-.49.266-.658.187-.177.429-.266.728-.266h.364c.299 0 .537.089.714.266.187.168.28.387.28.658 0 .28-.093.504-.28.672-.187.168-.429.252-.728.252h-.35c-.299 0-.541-.084-.728-.252-.177-.168-.266-.392-.266-.672zM115.742 49v-7.7h1.666v1.33h.126c.084-.467.304-.826.658-1.078.355-.261.812-.392 1.372-.392.775 0 1.391.252 1.848.756.458.504.686 1.185.686 2.044V49h-1.75v-4.83c0-.467-.126-.83-.378-1.092-.252-.27-.597-.406-1.036-.406-.448 0-.802.14-1.064.42-.252.27-.378.644-.378 1.12V49h-1.75zm8.549-1.596h2.758v-4.522h-2.408V41.3h4.088v6.104h2.226V49h-6.664v-1.596zm2.254-8.19c0-.27.089-.49.266-.658.187-.177.429-.266.728-.266h.364c.299 0 .537.089.714.266.187.168.28.387.28.658 0 .28-.093.504-.28.672-.187.168-.429.252-.728.252h-.35c-.299 0-.541-.084-.728-.252-.177-.168-.266-.392-.266-.672zm5.608 2.086h2.128v-2.38h1.75v2.38h2.926v1.582h-2.926v3.738c0 .243.07.439.21.588.15.14.355.21.616.21h1.96V49h-2.086c-.756 0-1.353-.215-1.792-.644-.438-.43-.658-1.008-.658-1.736v-3.738h-2.128V41.3z" fill="#D6BCFA" />
	<path fill-rule="evenodd" clip-rule="evenodd" d="M23 18.5a4.5 4.5 0 11-9 0 4.5 4.5 0 019 0zm14 0a4.5 4.5 0 11-9 0 4.5 4.5 0 019 0zm9.5 4.5a4.5 4.5 0 100-9 4.5 4.5 0 000 9z" fill="#718096" />
	<defs>
		<linearGradient id="paint0_linear" x1="78" y1="0" x2="162.219" y2="64.934" gradientUnits="userSpaceOnUse">
			<stop stop-color="#1A202C" />
			<stop offset="1" stop-color="#2D3748" />
		</linearGradient>
		<filter id="filter0_dd" x="15" y="1" width="174.908" height="111.439" filterUnits="userSpaceOnUse" color-interpolation-filters="sRGB">
			<feFlood flood-opacity="0" result="BackgroundImageFix" />
			<feColorMatrix in="SourceAlpha" values="0 0 0 0 0 0 0 0 0 0 0 0 0 0 0 0 0 0 127 0" />
			<feOffset dy="4" />
			<feGaussianBlur stdDeviation="4" />
			<feColorMatrix values="0 0 0 0 0.184314 0 0 0 0 0.215686 0 0 0 0 0.278431 0 0 0 0.05 0" />
			<feBlend in2="BackgroundImageFix" result="effect1_dropShadow" />
			<feColorMatrix in="SourceAlpha" values="0 0 0 0 0 0 0 0 0 0 0 0 0 0 0 0 0 0 127 0" />
			<feOffset dy="1" />
			<feGaussianBlur stdDeviation="1.5" />
			<feColorMatrix values="0 0 0 0 0.184314 0 0 0 0 0.215686 0 0 0 0 0.278431 0 0 0 0.1 0" />
			<feBlend in2="effect1_dropShadow" result="effect2_dropShadow" />
			<feBlend in="SourceGraphic" in2="effect2_dropShadow" result="shape" />
		</filter>
	</defs>
</svg>
