<svg xmlns="http://www.w3.org/2000/svg" width="1400" height="637" fill="none">
	<path d="M1022.2-794.969a653.745 653.745 0 00-45.246-26.968c-14-7.538-28.281-14.511-42.838-20.852m88.084 47.82c2.95-2.641 6.02-5.191 9.33-7.38 2.11-1.376 4.3-2.618 6.69-3.475a777.844 777.844 0 00-49.937-19.882 810.214 810.214 0 00-54.167-17.083m88.084 47.82c-19.7-6.996-39.642-13.247-59.792-18.799-21.327-5.8-42.838-10.81-64.522-15.097 6.437-3.589 13.054-6.816 19.949-9.411 5.296-1.963 10.717-3.543 16.281-4.513m-36.234 13.934c-13.987-7.927-28.28-15.262-42.928-21.894m42.928 21.894c6.437-3.589 13.055-6.814 19.949-9.425 5.287-1.954 10.718-3.521 16.281-4.497a842.11 842.11 0 00-57.851-13.695 884.395 884.395 0 00-60.734-9.812m82.355 37.429c-22.615-4.406-45.374-7.995-68.246-10.834a1052.439 1052.439 0 00-70.724-6.086c9.878-4.951 19.999-9.403 30.404-13.127 8.577-3.021 17.307-5.542 26.211-7.382m39.427 15.535c-12.891-5.791-26.038-10.992-39.427-15.535m39.427 15.535c-12.903-5.791-26.038-10.992-39.427-15.535m-126.129-6.552a930.058 930.058 0 00-63.174 3.504 907.767 907.767 0 00-61.73 7.895c8.01 1.547 15.859 3.754 23.561 6.438 9.484 3.345 18.685 7.417 27.664 11.945 12.653-6.621 25.593-12.695 38.851-18.019m34.828-11.763c-11.827 3.276-23.429 7.235-34.828 11.763m34.828-11.763c11.095 2.844 21.987 6.371 32.688 10.443 12.575 4.869 24.839 10.466 36.826 16.609a1064.375 1064.375 0 00-71.798-1.138c-23.836.501-47.65 1.775-71.397 3.868 12.655-6.621 25.595-12.695 38.853-18.019m-174.727 39.988c-5.451-3.289-11.081-6.283-16.981-8.688-4.387-1.769-8.896-3.175-13.549-4.037a823.716 823.716 0 0155.921-15.627 862.86 862.86 0 0159.263-11.999m-84.654 40.351c14.313-8.415 28.95-16.24 43.944-23.362 13.315-6.261 26.882-11.954 40.71-16.989m-84.654 40.351a970.418 970.418 0 0166.344-13.247 1023.17 1023.17 0 0169.533-8.709c-8.978-4.537-18.181-8.619-27.667-11.976-7.699-2.677-15.549-4.877-23.556-6.419m-84.654 40.351c14.313-8.415 28.95-16.24 43.946-23.362 13.315-6.261 26.88-11.954 40.708-16.989m-203.584 78.064c-2.112-2.454-4.285-4.885-6.635-7.136-1.342-1.283-2.742-2.499-4.323-3.49a744.018 744.018 0 0147.453-21.116c17.076-6.866 34.392-13.08 51.908-18.708m-88.403 50.45c14.713-9.973 29.786-19.406 45.237-28.208 14.096-7.969 28.482-15.421 43.166-22.242m-88.403 50.45c18.702-7.542 37.683-14.363 56.892-20.531 20.468-6.484 41.162-12.202 62.039-17.199-5.452-3.287-11.083-6.281-16.982-8.69-4.386-1.756-8.897-3.174-13.546-4.03m-88.403 50.45c14.713-9.973 29.786-19.406 45.239-28.208 14.094-7.969 28.48-15.421 43.164-22.242m-88.408 50.463c3.362 3.952 6.562 8.037 9.704 12.167 4.622 6.106 9.105 12.301 13.524 18.562-20.947 6.327-41.668 13.388-62.094 21.247-18.654 7.238-37.032 15.165-55.062 23.846m93.928-75.822c-15.998 10.946-31.541 22.514-46.657 34.636-16.272 13.144-32.014 26.888-47.271 41.186m93.928-75.822c-17.352 7.083-34.441 14.765-51.207 23.135-15.412 7.749-30.529 16.053-45.301 24.956-.404 3.73-.309 7.505-.007 11.235.484 5.55 1.439 11.057 2.587 16.496m93.928-75.822c-15.998 10.946-31.543 22.514-46.66 34.636-16.269 13.144-32.011 26.888-47.268 41.186m212.858-113.545c7.316 4.464 14.282 9.467 21.042 14.739 8.878 6.955 17.374 14.403 25.642 22.075-24.776 3.791-49.417 8.346-73.885 13.775-23.035 5.182-45.886 11.105-68.503 17.88m95.704-68.469c-16.015 9.489-31.587 19.675-46.763 30.443m46.763-30.443c-20.879 5.003-41.573 10.723-62.039 17.207-19.21 6.147-38.19 12.967-56.893 20.527 3.364 3.948 6.565 8.031 9.706 12.159 4.622 6.102 9.104 12.317 13.522 18.576m0 0c15.835-13.281 32.128-26.001 48.941-38.026m-48.941 38.026c15.833-13.281 32.128-26.001 48.941-38.026m182.645-52.415c11.06 5.665 21.738 12.006 32.131 18.8 12.681 8.373 24.912 17.378 36.811 26.811m-68.942-45.611c-14.657 7.764-28.897 16.272-42.782 25.322-15.939 10.495-31.382 21.711-46.412 33.447m89.194-58.769a1028.417 1028.417 0 00-69.535 8.734 961.427 961.427 0 00-66.344 13.225c7.315 4.469 14.285 9.457 21.045 14.738 8.875 6.973 17.373 14.399 25.64 22.072m89.194-58.769c-14.657 7.764-28.897 16.272-42.784 25.322-15.94 10.495-31.38 21.711-46.41 33.447m158.136-13.158c-26.791.497-53.54 1.851-80.243 4.04a1219.583 1219.583 0 00-77.893 9.118m158.136-13.158c-11.898-9.444-24.13-18.438-36.809-26.798-10.392-6.801-21.071-13.151-32.133-18.822a1075.85 1075.85 0 0171.397-3.864c23.946-.429 47.883-.045 71.8 1.13-11.979 6.078-23.56 12.857-34.849 20.132-13.563 8.79-26.657 18.281-39.406 28.222zm74.254-48.341c14.049 7.272 27.683 15.313 40.98 23.873 15.429 10.028 30.373 20.778 44.919 32.049m-85.899-55.922c-11.978 6.075-23.561 12.851-34.85 20.123-13.562 8.809-26.658 18.272-39.406 28.21 26.931-.429 53.85-.045 80.752 1.197 26.535 1.287 53.01 3.41 79.403 6.392m-85.899-55.922a1058.705 1058.705 0 0170.732 6.098c22.862 2.846 45.621 6.437 68.238 10.841-8.375 4.72-16.396 10.051-24.191 15.697-9.988 7.318-19.561 15.132-28.88 23.286m53.07-38.996c15.786 9.037 31.135 18.772 46.098 29.113 16.73 11.624 32.94 23.966 48.706 36.871m-94.804-65.984c-8.375 4.743-16.392 10.049-24.178 15.714-9.99 7.307-19.572 15.131-28.891 23.269a1192.757 1192.757 0 0176.265 11.286c24.04 4.451 47.924 9.645 71.608 15.715m-94.804-65.984c21.683 4.294 43.204 9.307 64.523 15.107 20.15 5.553 40.102 11.781 59.802 18.795-4.45 4.024-8.64 8.318-12.72 12.702-5.81 6.295-11.36 12.792-16.801 19.38m29.521-32.083c16.12 10.58 31.8 21.806 47.05 33.611 16.54 12.897 32.56 26.417 48.08 40.494m-95.13-74.105c-4.45 4.031-8.64 8.308-12.72 12.696-5.8 6.303-11.361 12.785-16.812 19.4 22.132 5.725 44.042 12.184 65.712 19.49 19.92 6.771 39.61 14.255 58.95 22.519m-95.13-74.105c16.12 10.58 31.8 21.806 47.06 33.611 16.53 12.897 32.55 26.417 48.07 40.494m-95.13-74.105a782.239 782.239 0 0154.36 21.806 704.52 704.52 0 0148.54 24.056c-.53 3.831-1.4 7.595-2.41 11.337-1.54 5.702-3.39 11.315-5.36 16.906m7.77-28.242a798.053 798.053 0 0144.46 36.794c15.21 13.591 29.88 27.754 44.07 42.423m-88.53-79.217c-.52 3.827-1.41 7.61-2.41 11.348-1.54 5.696-3.39 11.326-5.36 16.913 17.58 7.565 34.87 15.79 51.78 24.741 15.2 8.137 30.06 16.846 44.52 26.215m-88.53-79.217a801.937 801.937 0 0144.47 36.794c15.19 13.591 29.87 27.754 44.06 42.423m-88.53-79.217c14.52 7.983 28.75 16.473 42.63 25.555a604.098 604.098 0 0136.91 26.303c2.17 3.629 3.91 7.478 5.3 11.48 1.75 5.147 2.91 10.491 3.69 15.879m83.29 100.163c-12.91-17.936-26.41-35.443-40.53-52.454-13.69-16.388-27.94-32.325-42.76-47.723m83.29 100.177c-1.54-8.775-3.59-17.463-6.31-25.98-2.29-6.989-5.03-13.85-8.3-20.452-9.98-9.42-20.38-18.367-31.13-26.862-12.12-9.528-24.65-18.453-37.55-26.883m83.29 100.177c-12.24-9.097-24.95-17.528-38-25.421-15.01-8.989-30.45-17.248-46.21-24.883 1.19-9.398 2-18.861 2.14-28.345.07-7.205-.24-14.388-1.22-21.528m-.92 49.866c-15.12-18.371-30.85-36.263-47.2-53.566-15.5-16.32-31.55-32.096-48.18-47.26m95.38 100.826c1.19-9.404 2-18.851 2.14-28.343.08-7.2-.24-14.4-1.22-21.513-14.46-9.383-29.32-18.088-44.52-26.205-16.91-8.968-34.2-17.194-51.78-24.765m95.38 100.826c-17.93-8.618-36.24-16.451-54.8-23.608-20.85-7.986-42.01-15.142-63.39-21.601 4.71-10.56 9.31-21.143 13.69-31.834 3.19-7.877 6.29-15.775 9.12-23.783m-22.8 55.6c-16.53-18.148-33.62-35.743-51.34-52.742m51.34 52.742a1128.02 1128.02 0 0013.68-31.835c3.2-7.86 6.29-15.763 9.13-23.777-19.36-8.257-39.03-15.741-58.96-22.519-21.66-7.307-43.58-13.754-65.711-19.494m101.861 97.625c-16.53-18.126-33.62-35.743-51.34-52.742m51.34 52.742c-23.62-7.065-47.46-13.269-71.49-18.766-26.048-5.872-52.268-10.906-78.621-15.189 8.76-12.23 17.642-24.373 26.739-36.361 7.014-9.206 14.15-18.346 21.511-27.309m50.521 44.883c-16.31-15.543-33.12-30.555-50.521-44.883m0 0a1076.006 1076.006 0 00-71.598-15.702 1174.03 1174.03 0 00-76.264-11.3m147.862 27.002c-7.361 8.964-14.497 18.084-21.522 27.315-9.084 11.989-17.966 24.133-26.728 36.367m0 0c-16.546-17.149-33.58-33.832-51.191-49.868-15.664-14.169-31.774-27.826-48.421-40.816m99.612 90.684c-16.546-17.149-33.58-33.832-51.202-49.868-15.653-14.169-31.763-27.826-48.41-40.816m99.612 90.684c-27.997-4.471-56.116-8.097-84.315-10.944a1578.514 1578.514 0 00-88.134-6.206c12.639-14.168 25.581-28.07 38.961-41.549 10.964-11.01 22.202-21.731 33.876-31.985m-160.161-7.561c-26.789.513-53.54 1.85-80.239 4.057a1218.199 1218.199 0 00-77.895 9.116c10.555 9.852 20.719 20.127 30.643 30.603 12.289 13.061 24.194 26.479 35.846 40.098 15.48-16.026 31.38-31.651 47.824-46.696 14.181-12.883 28.746-25.342 43.821-37.178zm0 0c14.273 11.39 28.049 23.381 41.47 35.752 15.753 14.621 30.999 29.8 45.852 45.358a1608.071 1608.071 0 00-89.798-1.159c-29.754.49-59.487 1.805-89.171 3.923 15.483-16.026 31.385-31.651 47.835-46.696 14.172-12.883 28.737-25.342 43.812-37.178zM425.307-691.372a2789.561 2789.561 0 00-23.136-35.023c-5.928-8.794-11.92-17.566-18.035-26.227 22.616-6.774 45.468-12.681 68.5-17.878 24.47-5.419 49.112-9.972 73.887-13.769m-101.216 92.897c16.704-17.478 33.916-34.467 51.733-50.835 16-14.591 32.462-28.671 49.483-42.062m-101.216 92.897c26.998-5.264 54.145-9.683 81.407-13.325 28.678-3.776 57.453-6.707 86.297-8.861-11.652-13.636-23.56-27.028-35.851-40.086-9.922-10.504-20.085-20.765-30.637-30.625m-101.216 92.897c16.704-17.478 33.918-34.467 51.737-50.835 15.996-14.591 32.458-28.671 49.479-42.062M283.298-653.725c-3.673-10.171-7.16-20.429-10.284-30.776-2.276-7.617-4.359-15.277-6.032-23.026 18.031-8.696 36.409-16.621 55.061-23.864 20.426-7.859 41.145-14.903 62.095-21.244m-100.84 98.91c16.265-18.294 33.1-36.059 50.565-53.186 16.219-15.828 32.958-31.106 50.275-45.724m-100.84 98.91c22.134-7.617 44.537-14.375 67.143-20.429a1209.81 1209.81 0 0174.869-17.215c-7.631-11.734-15.327-23.423-23.139-35.047-5.926-8.783-11.919-17.545-18.033-26.219m-100.84 98.91c16.265-18.294 33.102-36.059 50.568-53.186 16.218-15.828 32.955-31.106 50.272-45.724M174.5-606.518c-.356-9.195-.276-18.412.522-27.585.661-7.13 1.756-14.195 3.517-21.129 13.155-9.477 26.731-18.346 40.652-26.65 15.563-9.217 31.522-17.738 47.791-25.65M174.5-606.518c14.574-18.325 29.75-36.171 45.554-53.453 15.085-16.39 30.715-32.28 46.928-47.561M174.5-606.518c16.335-8.847 33.063-16.934 50.078-24.411 19.27-8.369 38.872-15.912 58.719-22.803-3.674-10.173-7.163-20.411-10.289-30.758-2.274-7.609-4.354-15.282-6.026-23.042M174.5-606.518c14.574-18.325 29.75-36.171 45.556-53.453 15.083-16.39 30.713-32.28 46.926-47.561M99.072-555.817c2.117-8.673 4.741-17.197 7.979-25.507 2.765-6.982 5.952-13.792 9.598-20.367a460.765 460.765 0 0127.937-26.599c10.915-9.467 22.256-18.44 33.955-26.942m-79.468 99.415a928.499 928.499 0 0138.497-51.849 893.405 893.405 0 0140.971-47.566m-79.468 99.415c10.82-9.059 22.118-17.497 33.783-25.442 13.474-9.081 27.396-17.455 41.645-25.251-.356-9.209-.276-18.418.52-27.606.662-7.11 1.759-14.177 3.52-21.116m-79.474 99.42c-2.489 10.424-4.239 21.015-5.429 31.668-1.377 12.859-1.941 25.759-1.925 38.7-11.513 6.617-22.722 13.754-33.47 21.577m40.824-91.945a951.408 951.408 0 00-35.205 55.304 952.269 952.269 0 00-31.204 57.78m66.409-113.084c-9.339 7.886-18.294 16.209-26.774 25.01-7.33 7.678-14.283 15.688-20.802 24.073a301.242 301.242 0 00-10.479 29.192c-3.412 11.444-6.165 23.054-8.354 34.809m25.585-21.139c-8.928 6.554-17.505 13.545-25.585 21.139m25.585-21.139c-8.926 6.561-17.506 13.569-25.585 21.128-2.476 13.611-4.187 27.344-5.273 41.117-1.19 15.954-1.547 31.948-1.245 47.922a1090.992 1090.992 0 0130.255-66.524 1118.497 1118.497 0 0135.32-65.22m-33.472 21.577c10.75-7.804 21.957-14.956 33.472-21.577M174.5-606.507c.509 11.763 1.729 23.462 3.381 35.119 2.127 14.613 4.929 29.121 8.158 43.524M174.5-606.507a1077.273 1077.273 0 00-43.117 58.539 1108.689 1108.689 0 00-39.668 62.529M174.5-606.507c-14.254 7.793-28.176 16.176-41.648 25.257-11.666 7.94-22.964 16.387-33.784 25.447-2.488 10.411-4.236 20.991-5.427 31.655-1.377 12.861-1.943 25.764-1.926 38.709M174.5-606.507a1077.326 1077.326 0 00-43.12 58.539 1110.346 1110.346 0 00-39.665 62.529m94.324-42.425c-17.575 6.314-34.933 13.219-51.961 20.885-14.429 6.567-28.596 13.684-42.363 21.54m94.324-42.425c4.002 17.63 8.64 35.114 13.7 52.472 6.086 20.718 12.767 41.248 19.868 61.632m-33.568-114.104c20.39-7.261 41.042-13.749 61.871-19.612 23.689-6.614 47.579-12.456 71.616-17.651m-36.233-88.583c4.823 13.294 9.968 26.459 15.294 39.539 6.725 16.462 13.74 32.796 20.938 49.044-24.036 5.202-47.928 11.025-71.615 17.64-20.832 5.887-41.483 12.352-61.875 19.63m97.258-125.853c-17.215 19.459-33.764 39.496-49.688 60.026a1307.77 1307.77 0 00-47.57 65.827m97.258-125.853c-19.848 6.872-39.45 14.428-58.72 22.799-17.018 7.471-33.745 15.563-50.078 24.425.512 11.753 1.735 23.463 3.387 35.108 2.126 14.621 4.926 29.114 8.153 43.521m97.258-125.853c-17.215 19.459-33.764 39.496-49.69 60.026-16.543 21.429-32.389 43.392-47.568 65.827m239.274-163.51a4470.895 4470.895 0 0128.675 44.726c11.562 18.241 23.029 36.569 34.431 54.918-29.514 3.181-58.949 7.032-88.275 11.62-26.996 4.306-53.883 9.239-80.613 14.973m105.782-126.237c-18.251 19.214-35.868 39.013-52.926 59.288-18.258 21.812-35.856 44.143-52.856 66.949m105.782-126.237c-25.132 4.976-50.107 10.667-74.871 17.245-22.605 6.037-45.011 12.81-67.144 20.405 4.825 13.286 9.969 26.442 15.297 39.533 6.725 16.467 13.741 32.804 20.936 49.054m105.782-126.237c-18.253 19.214-35.868 39.013-52.929 59.288-18.255 21.812-35.855 44.143-52.853 66.949m273.485-148.424c14.013 16.461 27.649 33.227 41.017 50.211 15.62 19.88 30.878 40.065 45.851 60.446a2205.58 2205.58 0 00-97.43 3.462c-31.401 1.873-62.751 4.42-94.035 7.73m104.597-121.849c-17.573 18.29-34.583 37.103-51.141 56.308-18.361 21.404-36.15 43.266-53.456 65.541m104.597-121.849c-28.845 2.155-57.619 5.073-86.296 8.84-27.264 3.658-54.412 8.079-81.409 13.348a4678.81 4678.81 0 0128.679 44.724c11.563 18.247 23.03 36.581 34.429 54.937m104.597-121.849c-17.573 18.29-34.585 37.103-51.143 56.308-18.364 21.404-36.15 43.266-53.454 65.541m283.568-124.629c17.053 17.934 33.57 36.37 49.668 55.176 18.049 21.159 35.56 42.754 52.624 64.698M771.982-716.334c-15.016 16.888-29.582 34.147-43.854 51.645-16.476 20.31-32.524 40.925-48.25 61.801 32.729-.371 65.466-.044 98.184 1.002 32.108 1.112 64.185 2.898 96.212 5.426M771.982-716.334c29.427 1.264 58.815 3.312 88.131 6.21a1461.656 1461.656 0 0184.317 10.94c-10.934 15.275-21.662 30.704-32.282 46.219-12.79 18.719-25.398 37.569-37.874 56.505m70.151-102.717c18.253 19.019 35.885 38.623 52.99 58.683 18.465 21.773 36.305 44.067 53.555 66.815M944.425-699.177c-10.933 15.289-21.662 30.708-32.271 46.214-12.8 18.736-25.407 37.582-37.893 56.514m70.164-102.728c26.353 4.273 52.584 9.304 78.625 15.181 24.02 5.508 47.88 11.71 71.49 18.78-6.13 13.706-12.46 27.324-18.9 40.878-8.07 16.959-16.31 33.831-24.67 50.659m0 0c-28.22-5.139-56.57-9.498-85.013-13.207-30.485-3.925-61.06-7.069-91.696-9.563m0 0a2152.445 2152.445 0 00-96.202-5.422 2239.777 2239.777 0 00-98.184-1.013c17.004 23.208 33.652 46.668 50.006 70.319a3842.333 3842.333 0 0153.1 79.159 7769.764 7769.764 0 0148.026-76.29 5878.877 5878.877 0 0143.254-66.753zm220.279-68.777c17.65 19.459 34.62 39.519 50.99 60.052 17.14 21.607 33.58 43.751 49.37 66.367m-100.36-126.419c-6.13 13.703-12.46 27.32-18.9 40.894a3334.935 3334.935 0 01-24.67 50.645c25.7 4.725 51.27 10.116 76.67 16.259 22.6 5.541 45.05 11.684 67.26 18.621m-100.36-126.419c21.37 6.465 42.54 13.617 63.39 21.585 18.56 7.174 36.87 15.014 54.8 23.626-1.58 12.178-3.8 24.249-6.38 36.255-3.31 15.099-7.2 30.09-11.45 44.953m17.83-81.2a1107.203 1107.203 0 0145.13 59.149 1158.952 1158.952 0 0141.96 63.601m-87.09-122.75c-1.58 12.169-3.8 24.253-6.38 36.252-3.31 15.116-7.2 30.084-11.45 44.945 19.36 6.106 38.51 12.806 57.37 20.289 16.13 6.466 32.02 13.484 47.55 21.264m-87.09-122.75a1112.686 1112.686 0 0145.14 59.149 1164.601 1164.601 0 0141.95 63.601m-87.09-122.75c15.75 7.632 31.19 15.9 46.21 24.889 13.06 7.887 25.76 16.324 38 25.419 1.82 10.749 2.87 21.604 3.38 32.501.56 13.313.3 26.649-.5 39.941m-2.88-72.453a984.168 984.168 0 0137.4 56.325 997.2 997.2 0 0133.48 59.166m-70.88-115.491c1.82 10.76 2.87 21.623 3.38 32.508.56 13.308.31 26.637-.5 39.945 13.08 6.602 25.87 13.747 38.23 21.603 10.31 6.623 20.28 13.705 29.77 21.435m-70.88-115.491c10.58 7.939 20.77 16.338 30.5 25.3 8.38 7.814 16.38 16.024 23.92 24.653 3.73 9.735 6.86 19.68 9.48 29.771 3 11.783 5.28 23.733 6.98 35.767m28.9 60.865c8.67 20.163 16.66 40.608 23.9 61.316-1.19-14.632-3.01-29.225-5.54-43.696-2.28-12.756-5.11-25.391-8.55-37.885-5-6.963-10.47-13.542-16.32-19.799-7.01-7.408-14.52-14.31-22.4-20.789m28.91 60.853a981.623 981.623 0 00-28.91-60.853m28.91 60.853a949.533 949.533 0 0123.91 61.316c-6.67-5.429-13.78-10.293-21.12-14.774-9.38-5.671-19.12-10.677-29.07-15.299 1.02-16.51 1.38-33.08.88-49.63-.48-14.209-1.59-28.378-3.51-42.466m2.63 92.106a1149.138 1149.138 0 00-32.82-68.417 1178.582 1178.582 0 00-37.8-66.74m70.62 135.157c1.02-16.521 1.38-33.084.88-49.626-.47-14.211-1.59-28.401-3.51-42.489-9.49-7.729-19.47-14.825-29.76-21.429-12.37-7.852-25.16-15.009-38.23-21.613m70.62 135.157c-12.52-5.745-25.32-10.816-38.27-15.478-15.97-5.664-32.16-10.694-48.47-15.275 4.25-18.668 7.95-37.459 10.85-56.394 2.4-15.928 4.23-31.938 5.27-48.01m-16.12 104.406a1471.148 1471.148 0 00-42.34-74.632 1446.143 1446.143 0 00-46.46-71.319m88.8 145.951c4.25-18.673 7.94-37.471 10.85-56.414 2.4-15.92 4.23-31.923 5.27-47.988-15.53-7.784-31.42-14.802-47.55-21.261-18.86-7.494-38.02-14.181-57.37-20.288m88.8 145.951c-19.61-5.445-39.4-10.268-59.28-14.637-23.31-5.072-46.73-9.502-70.24-13.498 8.24-21.033 16.12-42.232 23.5-63.597 6.16-17.928 11.96-36.001 17.22-54.219m-40.72 117.816c-16.17-26.731-32.99-53.086-50.47-78.98-16.95-25.016-34.52-49.614-52.73-73.73m103.2 152.71c8.25-21.042 16.12-42.23 23.5-63.607 6.17-17.925 11.96-35.997 17.22-54.215-22.21-6.944-44.66-13.093-67.26-18.615-25.4-6.171-50.97-11.546-76.66-16.273m103.2 152.71c-26.83-4.497-53.75-8.408-80.73-11.838-29.96-3.745-60-6.924-90.091-9.622a6972.569 6972.569 0 0036.871-70.551 5331.985 5331.985 0 0030.75-60.699m-67.619 131.238c-17.725-27.205-35.946-54.093-54.714-80.624m54.714 80.624c12.415-23.457 24.719-46.955 36.869-70.538a5183.276 5183.276 0 0030.75-60.705c-28.22-5.137-56.575-9.496-85.019-13.202-30.483-3.916-61.059-7.075-91.695-9.559m109.095 154.004c-17.735-27.205-35.956-54.093-54.714-80.624m54.714 80.624a3024.519 3024.519 0 00-97.634-6.991 3343.062 3343.062 0 00-102.742-3.958 7358.661 7358.661 0 0148.037-76.308c14.273-22.34 28.668-44.596 43.244-66.747m54.381 73.38c-17.634-24.825-35.733-49.313-54.381-73.38M573.89-451.629a14512.163 14512.163 0 00-45.367-74.889c-13.295-21.77-26.658-43.52-40.112-65.185 31.283-3.311 62.635-5.864 94.036-7.72a2206.912 2206.912 0 0197.428-3.46M573.89-451.629c17.687-26.854 35.73-53.498 54.185-79.846 16.901-24.07 34.148-47.887 51.8-71.408M573.89-451.629c34.694-1.371 69.4-2.194 104.128-2.51 34.991-.296 69.981-.043 104.972.738a3850.736 3850.736 0 00-53.12-79.15c-16.354-23.669-32.991-47.127-49.995-70.332M573.89-451.629c17.687-26.854 35.734-53.498 54.189-79.846 16.897-24.07 34.144-47.887 51.796-71.408m-300.03 165.4c-11.303-22.793-22.423-45.691-33.295-68.716-9.219-19.534-18.254-39.173-27.025-58.938 26.731-5.719 53.616-10.661 80.612-14.95 29.326-4.605 58.762-8.453 88.277-11.628M379.845-437.483a2333.772 2333.772 0 0154.07-80.47c17.632-24.98 35.778-49.581 54.499-73.762M379.845-437.483a2800.383 2800.383 0 0193.77-8.495 3194.555 3194.555 0 01100.278-5.656 14515.392 14515.392 0 00-45.371-74.898 11038.33 11038.33 0 00-40.108-65.183M379.845-437.483a2333.88 2333.88 0 0154.074-80.47c17.63-24.98 35.774-49.581 54.495-73.762M219.606-413.76a1751.326 1751.326 0 0148.522-78.03c16.481-24.891 33.601-49.364 51.397-73.337M219.606-413.76c24.929-4.84 49.97-9.055 75.083-12.81 28.315-4.194 56.706-7.782 85.154-10.891-11.303-22.825-22.424-45.713-33.299-68.725-9.214-19.55-18.251-39.183-27.019-58.941M219.606-413.76a1751.366 1751.366 0 0148.524-78.03c16.481-24.891 33.601-49.364 51.395-73.337M102.029-384.535c-3.275-18.076-5.953-36.235-7.804-54.497-1.511-15.435-2.427-30.912-2.512-46.409 13.769-7.862 27.936-14.96 42.363-21.522 17.029-7.677 34.387-14.589 51.961-20.904m-84.008 143.332a1359.208 1359.208 0 0139.78-73.069 1356.072 1356.072 0 0144.228-70.263m-84.008 143.332c17.603-5.612 35.402-10.544 53.315-15.063 21.293-5.283 42.73-9.967 64.261-14.177-7.101-20.387-13.784-40.899-19.869-61.616-5.058-17.355-9.697-34.833-13.699-52.476m-84.008 143.332a1359.24 1359.24 0 0139.782-73.069 1354.685 1354.685 0 0144.226-70.263m-94.322 42.423c.082 15.505.999 30.969 2.508 46.414 1.853 18.256 4.532 36.43 7.807 54.482-14.443 4.646-28.743 9.699-42.79 15.444-11.259 4.626-22.342 9.699-33.098 15.404a1088.505 1088.505 0 0130.255-66.524 1117.209 1117.209 0 0135.318-65.22zm-107.46 161.188c1.604-14.18 3.797-28.279 6.65-42.257A437.88 437.88 0 01.202-403.34a183.941 183.941 0 0113.547-19.107c5.85-7.181 12.192-13.918 18.91-20.294m-48.406 118.485a901.986 901.986 0 0121.75-59.353 940.525 940.525 0 0126.656-59.132m-48.406 118.485c5.383-5.269 11.226-10.016 17.341-14.401 7.84-5.571 16.084-10.499 24.548-15.044-.304-15.99.052-31.98 1.243-47.929 1.086-13.778 2.798-27.495 5.274-41.111m-48.406 118.485a900.855 900.855 0 0121.752-59.353 939.347 939.347 0 0126.654-59.132m1411.4 341.882c-2.42-20.42-5.67-40.727-9.63-60.903-4.34-21.715-9.5-43.243-15.39-64.584m25.02 125.487c3-19.293 5.29-38.679 6.8-58.141 1.31-17.827 1.96-35.692 1.87-53.576-4.27-2.611-8.81-4.772-13.43-6.688-6.62-2.742-13.41-5.015-20.26-7.082m25.02 125.487c-2.42-20.42-5.67-40.727-9.64-60.902-4.33-21.716-9.49-43.244-15.38-64.585m25.02 125.487a892.58 892.58 0 01-20.05 1.503c-9.48.582-18.96 1.09-28.45 1.54 5.7-22.092 10.67-44.371 14.77-66.82 3.68-20.457 6.62-41.027 8.71-61.71m-23.48 128.529c-5.33-23.463-11.51-46.737-18.42-69.784-7.52-24.765-15.85-49.266-24.93-73.503m43.35 143.287c5.7-22.085 10.67-44.377 14.77-66.821 3.68-20.461 6.62-41.036 8.71-61.705-9.44-2.794-18.99-5.172-28.59-7.324-12.68-2.812-25.44-5.229-38.24-7.437m43.35 143.287c-12.74.604-25.48 1.114-38.23 1.586-16.36.585-32.73 1.095-49.09 1.566 9.18-25.067 17.67-50.361 25.36-75.919 6.94-23.311 13.19-46.812 18.61-70.52m-43.97 146.448c-9.07-26.569-18.92-52.816-29.45-78.816m29.45 78.816c9.17-25.071 17.67-50.37 25.36-75.915 6.94-23.326 13.19-46.823 18.6-70.529-16.27-2.768-32.6-5.177-48.97-7.358-20.1-2.655-40.24-4.987-60.41-7.074m65.42 160.876c-20.22.569-40.45 1.043-60.69 1.498a13197 13197 0 01-72.49 1.384c12.98-27.896 25.4-56.021 37.18-84.448 10.79-26.209 21.03-52.627 30.58-79.31m35.97 82.06c-11.26-27.669-23.28-55.016-35.97-82.06m35.97 82.06c-11.27-27.669-23.28-55.016-35.97-82.06m-67.77 163.766c-13.09-29.246-26.79-58.224-41.03-86.936a2696.2 2696.2 0 00-46.47-89.106m87.5 176.041c12.99-27.893 25.41-56.033 37.18-84.46 10.8-26.198 21.04-52.626 30.59-79.3-23.98-2.476-48-4.608-72.04-6.531-27.72-2.19-55.47-4.094-83.23-5.75m87.5 176.041c-13.09-29.245-26.81-58.223-41.04-86.935a2677.929 2677.929 0 00-46.46-89.106m87.5 176.041c-27.95.457-55.91.876-83.86 1.22-31.36.399-62.72.723-94.065 1.008 16.315-30.216 32.275-60.641 47.815-91.276 14.58-28.807 28.82-57.805 42.61-86.993m-90.428 178.26a4785.984 4785.984 0 00-50.552-92.889 5086.663 5086.663 0 00-53.618-93.462m104.17 186.35a4043.28 4043.28 0 0047.818-91.266c14.58-28.805 28.81-57.802 42.61-86.99-31.06-1.832-62.16-3.379-93.249-4.696a6655.708 6655.708 0 00-101.349-3.398m104.17 186.35a4781.02 4781.02 0 00-50.562-92.888 5028.864 5028.864 0 00-53.608-93.462m104.17 186.35c-34.107.306-68.205.554-102.313.726-35.967.191-71.941.344-107.908.42a14373.556 14373.556 0 0054.309-95.122 13069.915 13069.915 0 0051.742-92.374M567.102-88.596a8629.48 8629.48 0 01-53.098-94.41 7992.013 7992.013 0 01-49.707-91.2 6779.713 6779.713 0 01104.2-2.751 7583.54 7583.54 0 01108.344-1.241M567.102-88.596a11588.57 11588.57 0 0154.489-95.212 11313.405 11313.405 0 0155.25-94.39M567.102-88.596a34801.26 34801.26 0 00219.798.19 22722.885 22722.885 0 00-55.119-95.574 21894.696 21894.696 0 00-54.94-94.218M567.102-88.596a11588.989 11588.989 0 0154.493-95.212 11203.27 11203.27 0 0155.246-94.39M363.809-90.06c-15.505-29.668-30.588-59.546-45.192-89.653-13.608-28.141-26.796-56.493-39.483-85.073 29.304-2.041 58.626-3.778 87.961-5.285m-3.286 180.01a3911.055 3911.055 0 0148.333-91.56 4120.045 4120.045 0 0152.158-92.59M363.809-90.061c32.696.344 65.39.63 98.087.878 35.069.248 70.139.44 105.209.592a8633.435 8633.435 0 01-53.103-94.422 7984.282 7984.282 0 01-49.702-91.198M363.809-90.061a3899.839 3899.839 0 0148.336-91.56 4123.861 4123.861 0 0152.155-92.59m-97.205 4.14c32.391-1.66 64.793-3.014 97.205-4.14m-97.205 4.14a6028.353 6028.353 0 0197.205-4.137 6599.322 6599.322 0 01-45.032-85.483c-13.341-25.824-26.5-51.728-39.425-77.772m-12.748 167.392c-29.336 1.506-58.658 3.253-87.961 5.301M197.387-92.505c-11.95-27.163-23.297-54.572-33.94-82.248-9.713-25.412-18.827-51.072-27.204-76.96 21.864-2.587 43.763-4.831 65.686-6.847 25.711-2.359 51.451-4.413 77.207-6.22a2369.37 2369.37 0 00-43.803 87.383c-13.251 28.018-25.93 56.322-37.946 84.892zm0 0c25.912.494 51.827.932 77.743 1.312 29.559.438 59.12.799 88.681 1.122-15.507-29.654-30.59-59.517-45.197-89.628-13.607-28.151-26.796-56.511-39.48-85.081a2369.238 2369.238 0 00-43.797 87.383c-13.255 28.037-25.932 56.322-37.95 84.892zM77.062-95.503c-8.171-24.264-15.636-48.735-22.262-73.453-5.967-22.502-11.231-45.194-15.634-68.074 14.272-2.804 28.61-5.228 42.986-7.425 17.988-2.728 36.027-5.095 54.092-7.255-11.691 26.291-22.687 52.903-32.899 79.799-9.498 25.21-18.296 50.667-26.283 76.408zm0 0a8612.5 8612.5 0 0054.28 1.534c22.013.55 44.027 1.023 66.046 1.459-11.953-27.143-23.301-54.551-33.945-82.242-9.711-25.419-18.825-51.065-27.201-76.958-11.689 26.291-22.683 52.903-32.895 79.799-9.498 25.21-18.298 50.667-26.285 76.408zM1.307-98.668c-4.871-21.32-9.011-42.773-12.293-64.376-2.932-19.718-5.145-39.511-6.516-59.399 7.837-2.771 15.821-5.09 23.86-7.201 10.855-2.809 21.81-5.203 32.808-7.39M1.307-98.668c4.43-22.621 9.722-45.072 15.751-67.317 6.56-23.921 13.964-47.617 22.108-71.049M1.307-98.668c10.904.603 21.814 1.113 32.726 1.565 14.34.603 28.685 1.112 43.03 1.583-8.172-24.242-15.638-48.711-22.262-73.443-5.97-22.508-11.233-45.205-15.635-68.071M1.307-98.668c4.432-22.621 9.724-45.072 15.753-67.316 6.559-23.922 13.962-47.618 22.106-71.05m-77.612 135.395c-2.413-18.574-4.154-37.204-5.143-55.909-.852-17.166-1.073-34.352-.59-51.537 3.208-2.514 6.72-4.597 10.34-6.454 5.277-2.683 10.77-4.897 16.336-6.885m-20.943 120.785c1.824-19.624 4.436-39.155 7.743-58.573m-7.743 58.573c5.347.582 10.708 1.032 16.072 1.445 7.888.6 15.781 1.088 23.679 1.538-4.871-21.313-9.01-42.776-12.296-64.389-2.928-19.699-5.142-39.511-6.512-59.379m0 0c-5.145 20.581-9.575 41.312-13.2 62.212m13.2-62.212c-5.145 20.581-9.573 41.312-13.2 62.212m-7.744 58.585c2.67 20.02 6.117 39.932 10.262 59.7m-10.262-59.7c-1.618 18.038-2.572 36.13-2.779 54.24m2.78-54.24c5.348.594 10.71 1.045 16.074 1.459 7.888.595 15.782 1.081 23.677 1.532C-2.683-77.931-5.95-57.1-8.353-36.142-10.46-17.22-11.86 1.755-12.418 20.784m-15.767-62.71c4.49 21.101 9.77 42.005 15.767 62.71m-15.767-62.71c4.492 21.101 9.77 42.005 15.767 62.71m0 0c-5.742-2.847-11.338-5.983-16.605-9.623-3.823-2.703-7.447-5.658-10.675-9.046-1.173-16.47-1.661-32.977-1.528-49.502m0 0c.208-18.126 1.162-36.218 2.78-54.254-3.35-.361-6.7-.794-10.022-1.371-1.861-.325-3.726-.685-5.532-1.263a738.729 738.729 0 004.968 51.801 778.86 778.86 0 009.334 54.579c-1.174-16.468-1.66-32.988-1.528-49.491zM1.306-98.648c5.342 23.042 11.53 45.869 18.46 68.48 7.45 24.068 15.73 47.849 24.755 71.341M1.306-98.649c-3.99 20.702-7.253 41.548-9.657 62.503-2.108 18.92-3.508 37.894-4.067 56.922 7.817 3.816 15.876 7.093 24.046 10.063 10.82 3.907 21.812 7.273 32.893 10.333M1.306-98.649C6.648-75.607 12.837-52.78 19.77-30.17c7.45 24.05 15.727 47.83 24.752 71.341M1.306-98.649c10.905.612 21.815 1.116 32.728 1.566 14.34.612 28.683 1.116 43.03 1.584-7.259 23.6-13.823 47.4-19.544 71.414-5.08 21.602-9.472 43.349-12.999 65.257m32.54-136.661c8.872 26.093 18.553 51.916 28.944 77.433 11.026 26.92 22.831 53.48 35.342 79.735M77.062-95.49c-7.257 23.594-13.82 47.385-19.542 71.41-5.08 21.597-9.474 43.356-13 65.259 14.203 3.902 28.538 7.282 42.937 10.357 17.884 3.795 35.86 7.122 53.889 10.143M77.062-95.49c8.871 26.093 18.554 51.916 28.945 77.433 11.026 26.92 22.829 53.48 35.34 79.735M77.062-95.49c18.092.575 36.185 1.079 54.279 1.546 22.014.54 44.028 1.025 66.046 1.457-11.089 26.506-21.604 53.247-31.427 80.238-8.829 24.42-17.085 49.057-24.613 73.927m141.954 18.193a2274.9 2274.9 0 01-45.686-86.75c-14.035-28.239-27.467-56.784-40.226-85.617-11.089 26.498-21.604 53.247-31.424 80.247-8.83 24.431-17.087 49.042-24.616 73.904 21.711 3.593 43.489 6.737 65.31 9.575 25.502 3.27 51.056 6.108 76.642 8.641zm0 0a2273.43 2273.43 0 01-45.684-86.75c-14.035-28.239-27.468-56.784-40.23-85.617 25.913.503 51.828.935 77.746 1.312 29.558.449 59.118.826 88.679 1.132C348.99-60.95 334.552-31.65 320.56-2.153c-12.829 27.161-25.279 54.485-37.259 82.024zm80.51-169.918a3613.989 3613.989 0 0049.85 91.793A3676.008 3676.008 0 00466.796 93M363.811-90.046c-14.82 29.096-29.258 58.389-43.246 87.915-12.833 27.14-25.284 54.458-37.264 82.01 29.037 2.836 58.111 5.26 87.213 7.377 32.07 2.28 64.169 4.183 96.282 5.744M363.811-90.046a3638.65 3638.65 0 0049.854 91.793A3682.163 3682.163 0 00466.796 93M363.811-90.046c32.695.36 65.39.647 98.085.88 35.072.251 70.14.449 105.209.592A10812.877 10812.877 0 00515.02 4.583 10074.605 10074.605 0 00466.796 93M567.104-88.573A8826.42 8826.42 0 00622.047 6.24a8528.462 8528.462 0 0055.112 92.32M567.104-88.573A11147.375 11147.375 0 00515.021 4.59a9537.14 9537.14 0 00-48.223 88.427c34.368 1.633 68.753 2.888 103.147 3.821a5340.37 5340.37 0 00107.214 1.723M567.104-88.573A8970.118 8970.118 0 00622.052 6.24a8463.72 8463.72 0 0055.107 92.32M567.104-88.573c36.479.143 72.952.233 109.436.269 36.787.018 73.576 0 110.363-.09A14222.08 14222.08 0 01731.651 6.6a13097.989 13097.989 0 01-54.492 91.962m319.96-188.077c15.701 29.718 31.081 59.58 46.091 89.64a3687.259 3687.259 0 0140.56 83.987c-30.77 2.548-61.58 4.702-92.407 6.532a4683.118 4683.118 0 01-100.353 4.72m106.109-184.88a4310.216 4310.216 0 01-51.81 92.979 4350.65 4350.65 0 01-54.299 91.9M997.119-89.515c-34.107.305-68.205.538-102.314.736-35.964.179-71.941.323-107.905.394a24708.005 24708.005 0 0153.597 94.037 21065.937 21065.937 0 0150.513 89.712m106.109-184.88a4313.307 4313.307 0 01-51.81 92.96 4306.942 4306.942 0 01-54.299 91.92M1175.06-91.75c12.16 27.263 23.78 54.76 34.77 82.507 9.93 25.197 19.34 50.592 28.07 76.22-23.79 3.43-47.66 6.448-71.55 9.124-27.49 3.035-55.01 5.675-82.57 7.992m91.28-175.843a2436.597 2436.597 0 01-43.15 87.553 2589.357 2589.357 0 01-48.13 88.29m91.28-175.843c-27.96.467-55.92.88-83.87 1.221-31.36.395-62.72.737-94.065 1.006C1012.83-59.818 1028.21-29.95 1043.22.114c13.86 27.82 27.4 55.8 40.56 83.979m91.28-175.843a2420.168 2420.168 0 01-43.16 87.553 2571.769 2571.769 0 01-48.12 88.29m224.46-178.738c8.27 24.395 15.88 49.024 22.66 73.869 6.05 22.364 11.43 44.907 15.97 67.63-16.19 3.848-32.5 7.21-48.85 10.266-19.97 3.703-40.02 6.94-60.12 9.87m70.34-161.635c-9.93 26.894-20.64 53.5-32.04 79.801-12.03 27.614-24.83 54.885-38.3 81.834m70.34-161.635c-20.22.575-40.45 1.06-60.68 1.51-24.17.521-48.33.97-72.5 1.384 12.16 27.254 23.78 54.76 34.78 82.498 9.92 25.205 19.33 50.607 28.06 76.243m157.66-164.78c4.8 21.47 8.88 43.102 12.09 64.896 2.82 19.617 4.93 39.34 6.19 59.137-9.41 3.87-19.02 7.199-28.73 10.222-12.62 3.906-25.39 7.307-38.26 10.384 9.96-24.259 19.17-48.824 27.56-73.696 7.82-23.414 14.91-47.061 21.15-70.943zm0 0c-12.74.594-25.48 1.116-38.23 1.584-16.36.594-32.73 1.098-49.09 1.566 8.27 24.403 15.88 49.005 22.66 73.858 6.05 22.37 11.43 44.92 15.96 67.631 9.95-24.259 19.16-48.824 27.55-73.696 7.82-23.414 14.91-47.061 21.15-70.943zm48.5-3.044c2.16 18.736 3.64 37.544 4.33 56.388.57 17.15.48 34.301-.33 51.434-4.29 3.549-8.94 6.611-13.73 9.368-6.61 3.765-13.49 6.972-20.5 9.89m30.23-127.08c-3.3 20.826-7.4 41.507-12.23 62.045-5.21 21.888-11.24 43.579-18 65.035m30.23-127.08c-6.68.594-13.37 1.063-20.05 1.495-9.49.612-18.97 1.099-28.46 1.567 4.8 21.475 8.89 43.093 12.09 64.892 2.83 19.618 4.94 39.327 6.19 59.126M-15.748-324.244c-1.745 15.955-2.742 31.967-3.09 47.999-.324 17.952.16 35.903 1.335 53.816-5.568 1.997-11.058 4.207-16.336 6.882-3.62 1.861-7.132 3.955-10.34 6.456m28.43-115.153a863.64 863.64 0 00-16.701 58.487m16.702-58.487c-4.229 4.187-8.133 8.685-11.582 13.531-2.773 3.974-5.221 8.142-7.274 12.524a570.054 570.054 0 00-6.325 42.203 609.765 609.765 0 00-3.25 46.895m28.43-115.153a860.335 860.335 0 00-16.701 58.487m-11.73 56.666a810.17 810.17 0 0111.73-56.666m58.59-87.938c.416 18.354 1.7 36.668 3.67 54.904 2.304 20.702 5.482 41.306 9.356 61.772-10.997 2.172-21.953 4.579-32.81 7.377-8.038 2.113-16.02 4.442-23.859 7.22M26.14-353.695a1031.797 1031.797 0 00-24.71 66.371c-7.064 21.405-13.398 43.046-18.934 64.902M26.14-353.695c-8.465 4.54-16.707 9.49-24.55 15.047-6.115 4.383-11.956 9.138-17.338 14.401-1.743 15.947-2.74 31.953-3.087 47.997-.327 17.962.16 35.905 1.332 53.828m119.53-162.113c3.876 21.02 8.555 41.882 13.83 62.586 6.081 23.628 12.935 47.019 20.385 70.252-18.064 2.154-36.1 4.524-54.09 7.251-14.375 2.192-28.714 4.623-42.987 7.428m62.862-147.517c-12.23 24.359-23.723 49.054-34.425 74.104-10.249 24.181-19.752 48.639-28.437 73.413m62.862-147.517c-14.443 4.642-28.741 9.7-42.79 15.429-11.258 4.643-22.34 9.7-33.1 15.41.419 18.353 1.705 36.667 3.673 54.901 2.304 20.704 5.482 41.31 9.355 61.777m62.862-147.517c-12.23 24.359-23.723 49.054-34.427 74.104-10.246 24.161-19.75 48.639-28.435 73.413m180.438-176.736c8.297 23.683 17.157 47.166 26.434 70.49 10.538 26.375 21.609 52.53 33.096 78.505-25.756 1.814-51.494 3.848-77.206 6.2-21.922 2.033-43.822 4.286-65.687 6.858a1692.111 1692.111 0 0139.03-81.316 1773.283 1773.283 0 0144.333-80.737zm0 0c-21.532 4.206-42.971 8.891-64.262 14.194-17.913 4.485-35.71 9.429-53.316 15.031 3.878 21.011 8.555 41.883 13.832 62.596 6.081 23.603 12.933 47.007 20.385 70.232a1690.146 1690.146 0 0139.026-81.316 1773.32 1773.32 0 0144.335-80.737zm160.24-23.709a2461.867 2461.867 0 00-52.095 85.161 2488.688 2488.688 0 00-48.614 87.532m100.709-172.693c-28.45 3.112-56.84 6.707-85.154 10.903-25.115 3.755-50.155 7.972-75.085 12.792 8.3 23.695 17.16 47.169 26.436 70.503 10.541 26.365 21.609 52.51 33.094 78.495m100.709-172.693a2465.086 2465.086 0 00-52.099 85.161 2491.835 2491.835 0 00-48.61 87.532m294.759-186.84a18158.466 18158.466 0 0149.825 83.393 20591.595 20591.595 0 0153.125 90.027 7748.65 7748.65 0 00-108.345 1.23 6895.886 6895.886 0 00-104.2 2.763 4089.333 4089.333 0 0154.465-90.895 3831.48 3831.48 0 0155.13-86.518zm0 0c-33.454 1.372-66.884 3.227-100.279 5.667-31.302 2.299-62.566 5.103-93.771 8.491 12.924 26.036 26.086 51.951 39.428 77.765a6837.895 6837.895 0 0045.029 85.49 4085.305 4085.305 0 0154.46-90.895 3835.134 3835.134 0 0155.133-86.518zm209.102-1.787a4535.662 4535.662 0 0154.877 86.303 4882.414 4882.414 0 0155.081 91.206M782.995-453.397a8986.157 8986.157 0 00-51.831 84.507 10209.63 10209.63 0 00-54.32 90.702c36.412-.141 72.834-.02 109.257.343 35.621.404 71.243 1.049 106.852 1.957M782.995-453.397c34.262.808 68.511 2.119 102.732 3.976 32.584 1.816 65.13 4.116 97.633 6.981a9302.427 9302.427 0 01-42.666 79.523 11253.235 11253.235 0 01-47.741 87.029m90.402-166.539a2737.403 2737.403 0 0153.495 85.874 2794.223 2794.223 0 0150.7 88.77M983.355-442.427a9319.286 9319.286 0 01-42.654 79.539 12200.468 12200.468 0 01-47.751 87 6827.83 6827.83 0 01101.348 3.399c31.092 1.328 62.182 2.856 93.252 4.706M983.355-442.427c30.085 2.695 60.125 5.872 90.095 9.633 26.98 3.439 53.9 7.341 80.73 11.825-9.58 24.375-19.65 48.569-30.07 72.581-11.76 27.07-23.99 53.918-36.56 80.605m66.63-153.185a1924.828 1924.828 0 0146.79 82.215m-46.79-82.215c-9.58 24.375-19.64 48.55-30.07 72.585-11.76 27.053-23.98 53.905-36.56 80.577 27.76 1.678 55.51 3.557 83.23 5.754 24.04 1.918 48.06 4.076 72.04 6.534m-88.64-165.45c23.51 3.996 46.94 8.432 70.24 13.486 19.89 4.376 39.67 9.191 59.28 14.645-5.01 21.758-10.78 43.336-17.09 64.754-7.27 24.394-15.25 48.569-23.79 72.565m-41.85-83.235c14.63 27.392 28.61 55.144 41.85 83.235m-41.85-83.235a1849.202 1849.202 0 0141.85 83.235m40.88-137.323a1424.542 1424.542 0 0137.2 76.078m-37.2-76.078c-5.01 21.768-10.77 43.337-17.09 64.768-7.27 24.402-15.25 48.567-23.79 72.553 20.17 2.099 40.31 4.417 60.41 7.071 16.37 2.179 32.7 4.595 48.97 7.348m-68.5-151.74c13.15 24.996 25.57 50.349 37.2 76.078m-37.2-76.078c16.32 4.575 32.51 9.606 48.47 15.271 12.97 4.655 25.76 9.725 38.28 15.469-1.24 19.074-3.36 38.049-6.14 56.965-3.24 21.49-7.33 42.842-12.11 64.035m-31.3-75.662c11.2 24.917 21.66 50.131 31.3 75.662m18.26-120.999a1108.11 1108.11 0 0127.24 68.547m-27.24-68.547c-1.25 19.069-3.36 38.06-6.14 56.952-3.24 21.502-7.33 42.846-12.12 64.054 12.8 2.197 25.56 4.61 38.25 7.435 9.6 2.138 19.15 4.532 28.59 7.318M1370.46-362.1c9.83 22.542 18.94 45.397 27.24 68.547m-27.24-68.547c9.93 4.611 19.68 9.633 29.07 15.283 7.34 4.473 14.43 9.338 21.1 14.792 1.29 16.558 1.78 33.175 1.6 49.791-.27 18.677-1.38 37.314-3.19 55.893m-21.34-67.212c7.87 22.149 15.02 44.572 21.34 67.212m-21.34-67.212c7.88 22.149 15.02 44.572 21.34 67.212m1.6-105.696a900.92 900.92 0 0118.66 60.614c5.17 19.454 9.67 39.082 13.43 58.846m-32.09-119.46c1.28 16.577 1.77 33.174 1.59 49.79-.27 18.676-1.38 37.313-3.19 55.911 6.85 2.06 13.65 4.333 20.26 7.073 4.62 1.924 9.16 4.082 13.43 6.686m-32.09-119.46c5.19 4.295 10.11 8.94 14.54 14.031 3.52 4.101 6.7 8.454 9.46 13.099a557.495 557.495 0 015.76 43.667c1.44 16.189 2.19 32.416 2.33 48.663m-41.44 338.306c1.89-15.462 3.02-30.994 3.5-46.578.47-17.649.09-35.298-.95-52.912 7.01-2.916 13.88-6.144 20.49-9.892 4.81-2.777 9.46-5.83 13.73-9.371m-36.77 118.753c7.67-19.731 14.68-39.723 20.94-59.94 5.96-19.42 11.27-39.03 15.83-58.813m-36.77 118.753c5.41-5.033 10.5-10.43 15.1-16.226 3.73-4.807 7.13-9.857 10.1-15.167 3-13.606 5.41-27.315 7.32-41.112 2.07-15.358 3.45-30.786 4.25-46.248m-87.6 153.491c-.52-17.735-1.92-35.437-3.95-53.069-2.41-20.304-5.71-40.487-9.65-60.532 12.86-3.085 25.63-6.48 38.25-10.393 9.7-3.034 19.32-6.36 28.73-10.238m-53.38 134.232a1084.99 1084.99 0 0029.52-67.357c8.71-22.01 16.69-44.314 23.86-66.875m-53.38 134.232c10.08-5.36 19.91-11.186 29.3-17.649 7.53-5.24 14.76-10.876 21.53-17.081 1.9-15.461 3.02-31.007 3.5-46.571.46-17.667.1-35.316-.95-52.931m-139.85 169.687c-4.26-20.257-9.27-40.343-14.8-60.293-6.45-23.063-13.61-45.938-21.3-68.642 20.1-2.926 40.15-6.16 60.12-9.855 16.35-3.063 32.66-6.416 48.84-10.265m-72.86 149.055a1387.058 1387.058 0 0039.2-74.22m-39.2 74.22c16.26-5.304 32.38-11.087 48.2-17.605 13-5.39 25.81-11.275 38.26-17.845-.53-17.742-1.91-35.433-3.95-53.056-2.43-20.308-5.7-40.498-9.65-60.55m0 0c-10.45 25.288-21.69 50.233-33.66 74.836m33.66-74.835a1341.027 1341.027 0 01-33.66 74.835m-167.24 106.564c-8.88-22.727-18.2-45.284-27.84-67.689-11.06-25.665-22.55-51.144-34.34-76.47 27.56-2.327 55.08-4.96 82.57-8 23.89-2.684 47.76-5.674 71.57-9.122m-91.96 161.281a1827.121 1827.121 0 0048.17-79.511 1817.254 1817.254 0 0043.79-81.77m-91.96 161.281c23.24-4.587 46.37-9.699 69.33-15.508 19.73-5.028 39.32-10.583 58.71-16.833-4.26-20.264-9.27-40.342-14.8-60.283-6.46-23.084-13.61-45.947-21.28-68.657m-259.955 185.9a13650.875 13650.875 0 00-40.807-74.529 17978.358 17978.358 0 00-46.137-83.003 4631.274 4631.274 0 00100.356-4.727c30.823-1.84 61.633-3.984 92.403-6.533M977.955 252.885c18.557-27.06 36.545-54.508 54.005-82.294a2574.151 2574.151 0 0051.81-86.498M977.955 252.885c29.585-3.089 59.095-6.752 88.515-11.057 26.6-3.933 53.11-8.407 79.49-13.572-8.88-22.722-18.2-45.275-27.85-67.692-11.06-25.659-22.54-51.132-34.34-76.47M781.451 265.428a6477.975 6477.975 0 01-50.664-79.738 7734.332 7734.332 0 01-53.628-87.136c36.037.185 72.074.017 108.101-.504a5281.537 5281.537 0 00105.754-2.707M781.451 265.43c18.507-27.067 36.616-54.386 54.401-81.94m-54.401 81.94c33.601-.924 67.172-2.421 100.722-4.556 31.975-2.068 63.912-4.707 95.786-7.985a12537.938 12537.938 0 00-40.817-74.527 15692.835 15692.835 0 00-46.128-83.017M781.451 265.43a3667.755 3667.755 0 0054.401-81.94m55.162-88.145a4188.802 4188.802 0 01-55.162 88.145m-259.303 79.904c-18.734-27.158-37.02-54.618-54.913-82.364-18.712-29.059-36.984-58.421-54.843-88.018m109.756 170.382a9832.109 9832.109 0 0048.449-78.528 11861.92 11861.92 0 0052.155-86.301 5296.744 5296.744 0 01-107.212-1.716 4904.695 4904.695 0 01-103.148-3.837m109.756 170.382c-18.734-27.158-37.022-54.618-54.918-82.347a3600.603 3600.603 0 01-54.838-88.035m109.756 170.382c-32.817-1.565-65.603-3.702-98.341-6.478-30.75-2.659-61.446-5.856-92.069-9.726a5973.334 5973.334 0 0137.443-72.756c14.241-27.242 28.657-54.365 43.211-81.422M386.14 247.2a2253.962 2253.962 0 01-52.865-81.845 2327.25 2327.25 0 01-49.978-85.48M386.14 247.2c12.31-24.362 24.805-48.607 37.439-72.783a7922.08 7922.08 0 0143.215-81.406c-32.115-1.572-64.213-3.466-96.284-5.765-29.102-2.097-58.175-4.531-87.213-7.372M386.14 247.2a2252.69 2252.69 0 01-52.868-81.845 2327.179 2327.179 0 01-49.975-85.48M386.14 247.2c-28.002-3.601-55.932-7.726-83.752-12.511-24.787-4.328-49.478-9.18-74.022-14.709 7.575-22.063 15.681-43.957 24.164-65.699 9.798-24.988 20.093-49.774 30.767-74.407m-54.929 140.107a1690.552 1690.552 0 01-45.917-78.285 1655.87 1655.87 0 01-41.103-80.038m87.02 158.323c7.574-22.073 15.677-43.959 24.16-65.708 9.798-24.984 20.097-49.762 30.771-74.405-25.587-2.519-51.14-5.378-76.641-8.646-21.823-2.825-43.601-5.973-65.31-9.564m87.02 158.323a1690.59 1690.59 0 01-45.919-78.285 1646.2 1646.2 0 01-41.101-80.038m87.02 158.323c-21.324-4.867-42.525-10.245-63.536-16.321-17.82-5.19-35.488-10.891-52.911-17.307 3.13-19.572 7.05-38.99 11.543-58.272 5.264-22.311 11.287-44.452 17.884-66.423m-29.427 124.694A1303.302 1303.302 0 0175.394 113.9m36.527 72.452c3.129-19.562 7.048-38.986 11.542-58.273 5.262-22.322 11.287-44.455 17.885-66.417-18.031-3-36.008-6.326-53.89-10.132-14.4-3.069-28.734-6.463-42.939-10.355m67.402 145.177A1300.958 1300.958 0 0175.394 113.9m36.527 72.452c-14.452-5.367-28.719-11.23-42.672-17.796-11.355-5.401-22.482-11.246-33.225-17.778m39.37-36.878C64.34 89.984 54.026 65.743 44.52 41.175m0 0c-3.055 19.373-5.432 38.831-6.934 58.393-1.251 17.041-1.837 34.117-1.561 51.21m0 0A1038.729 1038.729 0 019.01 85.431C1.125 64.121-6.039 42.569-12.42 20.775m48.444 130.003c-.276-17.097.309-34.176 1.558-51.22 1.504-19.55 3.88-39.012 6.937-58.388-11.079-3.057-22.073-6.425-32.892-10.327-8.168-2.97-16.23-6.252-24.047-10.068m48.444 130.003c-8.627-5.319-16.98-11.052-24.878-17.39-6.323-5.146-12.319-10.655-17.83-16.665m-5.736-95.948c-.439 17.01-.202 34.003.832 50.979.974 15.058 2.576 30.065 4.904 44.969m0 0a868.036 868.036 0 01-18.957-57.905A828.51 828.51 0 01-39.7 2.112m33.016 114.611c-2.328-14.898-3.93-29.9-4.904-44.972-1.037-16.967-1.271-33.968-.831-50.97-5.74-2.85-11.337-5.98-16.607-9.63-3.82-2.677-7.446-5.65-10.674-9.04m33.016 114.612c-4.452-4.902-8.553-10.117-12.194-15.663a110.88 110.88 0 01-7.957-14.498 536.861 536.861 0 01-7.797-39.826A572.41 572.41 0 01-39.7 2.112M1281.42 354.49c2.07-9.332 3.4-18.79 4.23-28.296.95-11.763 1.13-23.558.76-35.353 13.1-7.138 25.87-14.815 38.19-23.209 10.41-7.153 20.46-14.799 30.01-23.049m-73.19 109.907a952.468 952.468 0 0038.33-53.301 961.749 961.749 0 0034.86-56.606m-73.19 109.907c10.64-8.219 20.92-16.898 30.73-26.102 8.55-8.107 16.74-16.58 24.47-25.45 3.86-8.584 7.18-17.375 10.04-26.34 3.28-10.508 5.9-21.19 7.95-32.015M1197.89 406.25c-1.23-10.507-3.06-20.92-5.23-31.256-2.83-13.349-6.21-26.541-9.92-39.655 19.1-6.558 37.99-13.724 56.54-21.702 16.02-6.963 31.78-14.488 47.14-22.794m-88.53 115.407a1054 1054 0 0045.59-55.221 1113.914 1113.914 0 0042.94-60.186m-88.53 115.407c15.57-7.884 30.82-16.362 45.66-25.589 13.02-8.149 25.66-16.845 37.86-26.182 2.07-9.305 3.42-18.766 4.23-28.289.97-11.756 1.14-23.559.78-35.347M1082.2 452.635a2449.31 2449.31 0 00-17.47-35.297 4320.029 4320.029 0 00-22.97-44.76c25.16-5.062 50.16-10.799 74.97-17.334 22.21-5.936 44.23-12.517 66.02-19.911M1082.2 452.635c17.56-17.84 34.47-36.294 50.8-55.284 17.24-20.141 33.81-40.834 49.75-62.018M1082.2 452.635c20.89-6.627 41.54-13.959 61.9-22.12 18.24-7.394 36.19-15.432 53.79-24.267-1.23-10.492-3.07-20.908-5.23-31.262-2.83-13.33-6.22-26.537-9.91-39.653M936.443 487.359c-10.446-13.237-20.627-26.671-30.657-40.225-12.283-16.623-24.321-33.426-36.189-50.336m66.846 90.561c17.958-17.166 35.307-34.937 52.137-53.191 18.34-20.007 36.05-40.573 53.19-61.608M936.443 487.359c25.571-4.382 51.001-9.535 76.237-15.534 23.39-5.621 46.58-11.983 69.52-19.191-5.71-11.817-11.56-23.573-17.47-35.3-7.55-14.975-15.22-29.889-22.96-44.774m-172.173 24.238c29.835-2.644 59.598-5.999 89.26-10.154 27.763-3.959 55.403-8.614 82.913-14.084m-172.173 24.238a1895.643 1895.643 0 01-93.543 5.761c-31.795 1.138-63.598 1.482-95.412 1.093 15.227 18.867 30.789 37.451 46.818 55.66 13.714 15.516 27.763 30.733 42.269 45.545m99.868-108.059c-16.699 20.035-33.854 39.696-51.557 58.848m51.557-58.848c11.866 16.908 23.907 33.711 36.18 50.334 10.03 13.556 20.221 26.978 30.666 40.219-27.063 4.564-54.268 8.26-81.565 11.162-28.312 2.963-56.705 5.043-85.149 6.344m0 0c16.608-15.905 32.666-32.363 48.311-49.211m-48.311 49.211c16.608-15.905 32.677-32.348 48.311-49.211m-221.121 46.369c-17.158-16.283-33.75-33.15-49.895-50.437-18.071-19.447-35.56-39.433-52.565-59.809 30.422 3.509 60.923 6.222 91.482 8.217a1956.99 1956.99 0 0094.699 3.673c-14.435 18.352-29.164 36.478-44.312 54.275-12.809 14.979-25.902 29.717-39.409 44.081zm0 0c-17.158-16.283-33.752-33.15-49.896-50.437-18.071-19.447-35.559-39.433-52.563-59.809-10.782 16.343-21.665 32.626-32.708 48.788-8.909 13.03-17.919 25.969-27.1 38.803 26.134 5.383 52.428 9.88 78.845 13.629 27.713 3.853 55.53 6.837 83.422 9.026zm-162.267-22.65c-18.012-17.411-35.401-35.445-52.251-53.964-18.194-20.111-35.733-40.799-52.691-61.957m104.942 115.921c9.178-12.831 18.188-25.768 27.093-38.797 11.046-16.168 21.93-32.457 32.713-48.792-28.775-3.398-57.458-7.478-86.015-12.376-26.389-4.596-52.648-9.859-78.733-15.956m104.942 115.921c-18.012-17.411-35.402-35.445-52.256-53.964-18.189-20.111-35.728-40.799-52.686-61.957m104.942 115.921c-24.422-5.096-48.676-10.92-72.708-17.624-22.05-6.218-43.888-13.134-65.439-20.9 4.425-11.466 9.109-22.811 13.932-34.095 6.224-14.53 12.681-28.954 19.273-43.302m-33.202 77.394c-17.191-17.923-33.738-36.448-49.689-55.481a1225.04 1225.04 0 01-48.124-61.738m97.813 117.219c4.421-11.466 9.105-22.809 13.928-34.09 6.223-14.533 12.681-28.958 19.276-43.306-23.573-5.563-46.983-11.79-70.159-18.848-20.518-6.288-40.835-13.223-60.858-20.975m97.813 117.219c-17.191-17.923-33.74-36.448-49.69-55.481a1224.443 1224.443 0 01-48.123-61.738m97.813 117.219c-19.454-7.089-38.647-14.826-57.497-23.394-16.776-7.691-33.25-16.013-49.321-25.09.182-10.141 1.046-20.266 2.31-30.33 1.669-12.899 3.986-25.69 6.695-38.405m-9.006 68.744c-15.205-17.778-29.773-36.088-43.724-54.854m43.724 54.854c.18-10.152 1.043-20.272 2.308-30.33 1.668-12.913 3.989-25.701 6.699-38.41-17.407-6.794-34.566-14.184-51.365-22.374-14.386-7.076-28.478-14.718-42.149-23.096m84.507 114.21c-15.205-17.778-29.775-36.088-43.724-54.854m43.724 54.854c-14.154-8.05-27.966-16.679-41.33-25.999-11.69-8.206-23.01-16.914-33.862-26.219-2.704-9.053-4.714-18.31-6.197-27.646-1.746-11.375-2.71-22.845-3.118-34.346m40.783 59.356a1071.434 1071.434 0 01-40.783-59.356m40.783 59.356a1070.341 1070.341 0 01-40.783-59.356m-26.923 9.493a919.171 919.171 0 0036.24 52.501c-2.705-9.073-4.716-18.321-6.2-27.648-1.744-11.388-2.707-22.856-3.114-34.356-11.58-7.172-22.825-14.838-33.592-23.175-9.078-7.108-17.785-14.663-25.989-22.745m32.655 55.423a934.327 934.327 0 01-32.654-55.423m32.654 55.423a933.456 933.456 0 01-32.654-55.423m32.654 55.423a918.676 918.676 0 0036.241 52.501c-9.467-8.162-18.554-16.755-27.19-25.811a352.516 352.516 0 01-21.483-24.869 269.882 269.882 0 01-10.97-25.986c-3.667-10.238-6.724-20.684-9.252-31.258M-6.68 116.737a907.483 907.483 0 0023.828 58.165 928.182 928.182 0 0028.458 57.315M-6.68 116.737c2.109 13.178 4.78 26.255 8.072 39.183a406.467 406.467 0 0010.326 33.845 223.172 223.172 0 0014.347 20.617c6.067 7.673 12.611 14.929 19.54 21.835M-6.68 116.737a903.519 903.519 0 0023.828 58.149 924.131 924.131 0 0028.458 57.331M-6.68 116.737c5.51 6.005 11.509 11.51 17.83 16.647 7.898 6.339 16.251 12.077 24.877 17.382.295 14.745 1.231 29.458 2.98 44.103 1.558 12.561 3.713 25.021 6.599 37.348m-9.582-81.43a1075.154 1075.154 0 0032.25 64.701 1085.883 1085.883 0 0036.911 62.675m-69.16-127.376c.296 14.742 1.232 29.452 2.983 44.095 1.555 12.552 3.711 25.037 6.596 37.358 8.205 8.087 16.91 15.631 25.987 22.747 10.769 8.335 22.013 16.011 33.595 23.176M36.025 150.787a1074.227 1074.227 0 0032.252 64.701 1084.938 1084.938 0 0036.909 62.675M36.025 150.787c10.744 6.539 21.87 12.387 33.229 17.79 13.953 6.556 28.218 12.419 42.668 17.789-2.595 16.571-4.619 33.207-5.83 49.942-.954 13.935-1.339 27.887-.906 41.855m6.737-91.803a1323.427 1323.427 0 0041.428 70.458 1290.592 1290.592 0 0045.347 66.818M111.923 186.36c-2.594 16.578-4.618 33.205-5.827 49.946-.954 13.93-1.341 27.891-.909 41.853 13.669 8.371 27.761 16.026 42.147 23.096 16.799 8.176 33.957 15.571 51.364 22.381M111.923 186.36a1323.46 1323.46 0 0041.43 70.458 1289.922 1289.922 0 0045.345 66.818M111.923 186.36c17.423 6.42 35.092 12.125 52.912 17.326 21.012 6.078 42.211 11.458 63.536 16.318-6.369 18.659-12.359 37.465-17.779 56.432-4.425 15.604-8.462 31.337-11.894 47.2m29.673-103.64a1651.077 1651.077 0 0049.535 74.507c16.627 23.461 33.881 46.472 51.807 68.954M228.371 219.996c-6.369 18.663-12.355 37.47-17.778 56.438-4.425 15.614-8.462 31.34-11.895 47.194 20.02 7.751 40.336 14.684 60.856 20.99 23.177 7.045 46.585 13.255 70.159 18.839M228.371 219.996a1649.44 1649.44 0 0049.538 74.507c16.626 23.461 33.878 46.456 51.804 68.954M228.371 219.996c24.544 5.537 49.235 10.383 74.021 14.716 27.823 4.782 55.748 8.906 83.752 12.485m-56.431 116.26c8.192-17.812 16.597-35.496 25.136-53.131 10.256-21.134 20.706-42.172 31.295-63.129m0 0c17.512 25.757 35.571 51.118 54.23 76.05 17.487 23.265 35.49 46.132 54.087 68.523M386.144 247.197c-10.586 20.978-21.036 42.003-31.289 63.124-8.543 17.627-16.949 35.317-25.142 53.135 26.085 6.082 52.343 11.354 78.732 15.943 28.557 4.892 57.239 8.989 86.016 12.371M386.144 247.197c17.512 25.757 35.571 51.118 54.232 76.05 17.487 23.265 35.488 46.132 54.085 68.523M386.144 247.197c30.622 3.875 61.32 7.082 92.071 9.734a2712.468 2712.468 0 0098.337 6.479 7467.937 7467.937 0 01-43.733 69.238 5525.625 5525.625 0 01-38.358 59.122m82.09-128.359c17.412 25.186 35.203 50.088 53.444 74.675 16.484 22.156 33.336 44.044 50.644 65.569M576.551 263.411c-14.456 23.15-29.021 46.253-43.728 69.246a5403.007 5403.007 0 01-38.365 59.115c30.422 3.519 60.923 6.233 91.482 8.222a1955.693 1955.693 0 0094.699 3.661M576.551 263.411c17.414 25.186 35.205 50.088 53.447 74.675 16.492 22.156 33.342 44.044 50.641 65.569M576.551 263.411a2857.817 2857.817 0 00102.047 2.888c34.291.331 68.571.047 102.852-.852-17.033 24.87-34.382 49.488-52.137 73.822-15.886 21.73-32.078 43.224-48.674 64.386m297.318-150.75c11.715 21.597 23.373 43.21 34.933 64.886 9.7 18.222 19.34 36.475 28.87 54.792-27.5 5.451-55.155 10.11-82.908 14.071-29.661 4.167-59.425 7.526-89.259 10.157m108.364-143.906c-17.683 25.685-35.875 51.037-54.624 75.962-17.409 23.038-35.295 45.729-53.74 67.944m108.364-143.906c-31.875 3.28-63.81 5.926-95.798 8.002a2810.18 2810.18 0 01-100.71 4.547 5076.097 5076.097 0 0046.554 70.685c13.674 20.361 27.511 40.596 41.59 60.672m276.367-168.525c7.5 19.291 14.68 38.71 21.4 58.274 5.51 16.14 10.69 32.376 15.37 48.788-21.76 7.391-43.79 13.965-66 19.884-24.81 6.558-49.81 12.301-74.98 17.355m104.21-144.301c-16.45 25.514-33.52 50.596-51.27 75.198-17.02 23.498-34.65 46.565-52.94 69.103m104.21-144.301c-26.4 5.15-52.9 9.629-79.49 13.564-29.43 4.303-58.94 7.967-88.517 11.054a10409.312 10409.312 0 0134.927 64.896 6280.96 6280.96 0 0128.87 54.787m232.24-176.664c3.55 17.118 6.58 34.333 8.83 51.661 1.82 14.365 3.11 28.779 3.61 43.24-15.37 8.308-31.13 15.855-47.14 22.786-18.55 7.985-37.43 15.159-56.55 21.718m91.25-139.405a1392.596 1392.596 0 01-43.84 71.775c-15.12 23.013-30.91 45.572-47.41 67.63m91.25-139.405c-19.38 6.251-38.97 11.806-58.7 16.843-22.97 5.797-46.1 10.915-69.33 15.514 7.5 19.272 14.69 38.689 21.41 58.269 5.52 16.13 10.69 32.373 15.37 48.779m177.73-174.845c.39 15.214.14 30.428-.94 45.61-.97 12.9-2.56 25.75-4.92 38.502-9.56 8.239-19.6 15.888-30.02 23.043-12.31 8.371-25.08 16.068-38.16 23.191m74.04-130.346a1128.497 1128.497 0 01-34.75 66.387c-12.39 21.763-25.51 43.082-39.29 63.959m74.04-130.346c-12.48 6.581-25.26 12.457-38.28 17.84-15.84 6.516-31.92 12.309-48.21 17.61 3.57 17.102 6.59 34.335 8.83 51.666 1.83 14.361 3.11 28.771 3.62 43.23m124.84-165.075c-1.73 13.567-4.04 27.066-7.05 40.416a388.173 388.173 0 01-9.66 34.714c-5.25 7.448-10.96 14.547-17.04 21.314-7.17 7.93-14.85 15.378-22.91 22.394m56.66-118.838a951.227 951.227 0 01-25.97 59.984 972.261 972.261 0 01-30.69 58.854m56.66-118.838c-6.75 6.202-13.98 11.838-21.52 17.091-9.41 6.467-19.22 12.286-29.29 17.64.4 15.212.15 30.44-.93 45.603-.98 12.917-2.56 25.769-4.92 38.504M114.502 340.165a899.69 899.69 0 0039.086 48.715 860.21 860.21 0 0041.11 44.215m-80.196-92.93c2.283 7.502 5.035 14.85 8.336 21.969a150.206 150.206 0 009.584 17.316 489.294 489.294 0 0028.304 26.669 525.456 525.456 0 0033.972 26.976m-80.196-92.93a899.241 899.241 0 0039.088 48.715 859.28 859.28 0 0041.108 44.215m-80.196-92.93c10.854 9.293 22.174 18.004 33.862 26.225 13.365 9.309 27.177 17.928 41.329 25.981-.098 7.793.208 15.586 1.199 23.317.796 5.894 1.995 11.728 3.806 17.407m-5.002-40.73a959.519 959.519 0 0045.651 49.496c14.997 15.034 30.503 29.559 46.554 43.484m-92.205-92.98c-.098 7.78.208 15.574 1.201 23.309.796 5.891 1.993 11.737 3.804 17.418 13.039 9.443 26.48 18.302 40.256 26.637 15.289 9.188 30.96 17.702 46.944 25.616m-92.205-92.98a959.11 959.11 0 0045.653 49.496c14.995 15.034 30.504 29.559 46.552 43.484m-92.205-92.98c16.071 9.069 32.546 17.403 49.322 25.078 18.848 8.574 38.042 16.308 57.494 23.399-3.28 8.544-6.419 17.132-9.26 25.811-1.995 6.161-3.846 12.382-5.351 18.692m0 0c17.589 8.639 35.521 16.529 53.73 23.772 19.825 7.817 39.941 14.839 60.291 21.157-16.972-13.032-33.402-26.725-49.347-40.991-17.267-15.545-33.937-31.721-50.064-48.44m-14.61 44.502c1.504-6.302 3.358-12.532 5.354-18.688 2.841-8.683 5.979-17.278 9.256-25.814m0 0c16.127 16.719 32.798 32.895 50.067 48.44 15.942 14.266 32.372 27.959 49.343 40.991 5.82-6.993 11.436-14.134 16.954-21.348 7.418-9.741 14.65-19.614 21.783-29.56-24.422-5.084-48.674-10.931-72.706-17.616-22.051-6.215-43.888-13.135-65.441-20.907zm138.143 38.533c16.362 15.728 33.217 30.936 50.652 45.464 15.569 12.895 31.58 25.24 48.113 36.891m-98.765-82.355c-7.132 9.946-14.365 19.82-21.781 29.563-5.518 7.213-11.134 14.354-16.956 21.336 21.866 6.722 43.964 12.606 66.25 17.767a1064.694 1064.694 0 0071.252 13.689m-98.765-82.355c16.364 15.728 33.219 30.936 50.655 45.464 15.569 12.895 31.577 25.24 48.11 36.891m-98.765-82.355c26.131 5.378 52.425 9.903 78.842 13.632a1403.402 1403.402 0 0083.421 9.021c-11.108 11.752-22.489 23.259-34.284 34.332-9.435 8.804-19.122 17.333-29.214 25.37m63.5-59.704c14.996 14.159 30.408 27.875 46.353 40.961 13.675 11.138 27.713 21.804 42.25 31.797m-88.603-72.758c-11.108 11.754-22.488 23.251-34.281 34.332-9.436 8.79-19.125 17.323-29.219 25.369a1145.838 1145.838 0 0074.964 9.034m-11.464-68.735c14.998 14.159 30.411 27.861 46.353 40.946 13.675 11.153 27.713 21.819 42.25 31.812m-88.603-72.758a1489.719 1489.719 0 0086.115 4.023c28.9.43 57.812.043 86.691-1.174-14.343 13.658-29.072 26.901-44.319 39.543-12.903 10.638-26.15 20.831-39.884 30.366m0 0a1175.535 1175.535 0 01-77.139-4.023m0 0a1136.486 1136.486 0 01-74.966-9.04c14.556 10.184 29.49 19.782 44.874 28.655 13.398 7.659 27.11 14.76 41.183 21.107m-11.091-40.722a1176.915 1176.915 0 0077.139 4.018c-11.421 7.882-23.146 15.29-35.286 22-9.979 5.469-20.212 10.435-30.762 14.704m316.965-124.116c8.243 10.416 16.639 20.702 25.308 30.773 6.578 7.621 13.318 15.098 20.332 22.33-22.849 6.008-45.913 11.18-69.129 15.588-24.353 4.582-48.858 8.284-73.455 11.223m96.944-79.914c-16.159 15.343-32.787 30.182-49.983 44.344m49.983-44.344a1363.579 1363.579 0 01-81.564 11.179c-28.312 2.939-56.704 5.029-85.148 6.325 12.099 12.275 24.514 24.247 37.376 35.729 10.466 9.292 21.206 18.253 32.392 26.681m0 0c16.141-11.208 31.764-23.123 46.961-35.57m-46.961 35.57c16.131-11.208 31.764-23.123 46.961-35.57m195.744-79.073c4.27 8.86 8.5 17.749 12.55 26.711 2.89 6.389 5.7 12.792 8.36 19.283-18.84 8.217-37.98 15.658-57.38 22.427-20.97 7.252-42.21 13.684-63.649 19.401m100.119-87.822c-16.33 16.521-33.2 32.486-50.66 47.807-15.99 13.933-32.455 27.325-49.459 40.015m100.119-87.822c-22.95 7.208-46.14 13.568-69.53 19.211-25.239 5.994-50.658 11.14-76.228 15.511 8.242 10.424 16.637 20.717 25.307 30.775 6.578 7.617 13.318 15.102 20.332 22.325m100.119-87.822c-16.33 16.521-33.2 32.486-50.67 47.807-15.99 13.933-32.445 27.325-49.449 40.015m215.809-134.198c.89 7.929 1.45 15.888 1.36 23.877-.09 5.902-.54 11.804-1.6 17.632-14.26 9.33-28.92 18.034-43.88 26.157-16.56 8.927-33.48 17.125-50.67 24.711m94.79-92.377c-15.14 17.006-30.85 33.49-47.15 49.393-15.36 14.904-31.22 29.257-47.64 42.984m94.79-92.377c-17.59 8.838-35.56 16.872-53.81 24.264-20.33 8.153-40.99 15.486-61.88 22.118 4.27 8.868 8.48 17.751 12.55 26.724 2.89 6.379 5.7 12.788 8.35 19.271m178.31-144.147c-1.72 7.565-3.94 14.993-6.74 22.224-2.37 5.936-5.14 11.721-8.36 17.247-10.07 9.407-20.53 18.372-31.31 26.912-12.07 9.483-24.54 18.434-37.36 26.882m83.77-93.265a920.271 920.271 0 01-40.99 49.076 861.648 861.648 0 01-42.78 44.189m83.77-93.265c-12.19 9.331-24.85 18.023-37.87 26.182-14.81 9.209-30.08 17.703-45.65 25.588.89 7.93 1.44 15.892 1.37 23.868-.1 5.906-.55 11.812-1.62 17.627m-87.31 72.224c-.57-2.798-1.42-5.552-2.32-8.262-1.48-4.425-3.16-8.761-4.92-13.083a712.59 712.59 0 0050.68-24.699c14.97-8.145 29.61-16.847 43.88-26.179m-87.32 72.223c14.96-10.577 29.51-21.726 43.67-33.357m-43.67 33.357a665.718 665.718 0 0041.94-24.948c12.53-8.16 24.76-16.73 36.66-25.755 2.01-2.769 3.65-5.743 5-8.878 1.71-4.072 2.88-8.321 3.72-12.642m-87.32 72.223c14.96-10.577 29.52-21.726 43.67-33.357m43.65-38.866c-14.1 13.463-28.64 26.443-43.65 38.866m-143.89 78.062c-4.26-2.738-8.26-5.878-12.12-9.162-5.542-4.76-10.8-9.85-15.906-15.083 21.436-5.692 42.676-12.13 63.646-19.385 19.4-6.767 38.54-14.223 57.38-22.438m-93 66.068c15.67-9.291 30.94-19.241 45.83-29.736m-45.83 29.736c17.86-6.438 35.47-13.506 52.8-21.249a716.996 716.996 0 0047.43-23.47c-.59-2.811-1.42-5.549-2.31-8.259-1.48-4.416-3.17-8.76-4.92-13.09m0 0c-15.27 12.703-30.98 24.833-47.17 36.332m47.17-36.332c-15.27 12.703-30.97 24.833-47.17 36.332m-165.772 62.736c-7.979-3.365-15.654-7.392-23.105-11.786-9.532-5.688-18.678-11.983-27.571-18.615 24.607-2.929 49.101-6.646 73.455-11.208 23.216-4.422 46.279-9.604 69.129-15.616m-91.908 57.225c15.215-7.646 30.066-16.01 44.562-24.952 16.233-10.082 31.998-20.896 47.346-32.273m-91.908 57.225a895.076 895.076 0 0062.134-14.701c19.481-5.407 38.768-11.49 57.798-18.291-4.27-2.732-8.26-5.872-12.117-9.167-5.543-4.759-10.801-9.842-15.907-15.066m-225.317 73.691c-11.441-4.662-22.556-10.062-33.398-15.977-13.003-7.139-25.59-15.016-37.843-23.379 25.875.445 51.76.041 77.616-1.183 25.51-1.294 50.979-3.382 76.357-6.332m-82.732 46.871c13.461-5.873 26.565-12.484 39.376-19.651 14.871-8.405 29.297-17.534 43.356-27.22m-82.732 46.871a997.219 997.219 0 0067.84-5.943 957.222 957.222 0 0065.567-10.521c-7.979-3.367-15.654-7.389-23.115-11.787-9.531-5.692-18.678-11.968-27.56-18.62m-82.732 46.871c13.461-5.873 26.575-12.484 39.386-19.651 14.861-8.405 29.287-17.534 43.346-27.22m-220.017 44.202c-14.073-6.347-27.785-13.448-41.187-21.107-15.383-8.873-30.315-18.471-44.868-28.655-7.865 6.222-15.961 12.137-24.428 17.508-6.461 4.046-13.124 7.771-20.088 10.91a936.29 936.29 0 0063.821 12.848 967.079 967.079 0 0066.75 8.496zM395.919 530.27c15.459 11.781 31.342 22.997 47.694 33.506 14.732 9.405 29.819 18.217 45.293 26.349 6.963-3.125 13.624-6.845 20.085-10.904 8.468-5.361 16.565-11.287 24.431-17.51-23.901-3.762-47.663-8.302-71.252-13.677-22.285-5.162-44.386-11.06-66.251-17.764zm0 0c15.459 11.781 31.34 22.997 47.693 33.506 14.731 9.405 29.818 18.217 45.295 26.349-20.149-4.879-40.117-10.438-59.865-16.746-18.612-5.996-37.001-12.644-55.125-19.999 3.271-2.701 6.307-5.685 9.252-8.74 4.43-4.625 8.638-9.462 12.75-14.37zm-22.001 23.107c-15.58-9.689-30.753-19.999-45.541-30.857-15.962-11.795-31.446-24.224-46.481-37.187 17.591 8.637 35.526 16.539 53.734 23.777 19.824 7.815 39.94 14.838 60.289 21.153-4.113 4.903-8.322 9.748-12.752 14.376-2.943 3.057-5.982 6.027-9.249 8.738zm0 0c-15.58-9.689-30.754-19.999-45.542-30.857-15.962-11.795-31.445-24.224-46.478-37.187-.993 4.239-1.836 8.507-2.273 12.833-.261 2.754-.363 5.523-.022 8.291m94.315 46.92c-16.901-6.907-33.545-14.405-49.889-22.551-15.101-7.585-29.925-15.689-44.426-24.369m0 0c14.883 9.566 61.775 39.293 83.36 52.961m10.957-6.034c14.307 8.835 28.927 17.138 43.875 24.853m-43.875-24.853c-2.039 1.68-4.164 3.262-6.496 4.494-1.401.728-2.884 1.33-4.461 1.54m10.957-6.034c14.307 8.835 28.928 17.138 43.875 24.853m-43.875-24.853c18.125 7.35 36.514 14.001 55.126 20.008 19.748 6.301 39.715 11.86 59.863 16.732-5.275 2.324-10.701 4.299-16.307 5.657-4.322 1.022-8.714 1.652-13.154 1.778m-41.653-19.322c13.637 6.958 27.521 13.427 41.653 19.322m0 0a778.859 778.859 0 01-50.28-17.894 748.308 748.308 0 01-46.205-20.247m207.405 64.547a473.313 473.313 0 01-39.099-14.052c-14.412-5.951-28.527-12.591-42.36-19.782-5.275 2.328-10.699 4.298-16.305 5.648-4.323 1.019-8.717 1.667-13.157 1.777a811.891 811.891 0 0053.938 14.947 842.838 842.838 0 0056.983 11.462zm0 0a473.16 473.16 0 01-39.098-14.052c-14.412-5.951-28.528-12.591-42.362-19.782 21.118 5.042 42.402 9.312 63.821 12.867a979.816 979.816 0 0066.748 8.486c-8.641 3.43-17.467 6.365-26.491 8.61-7.444 1.805-14.99 3.141-22.618 3.871zm86.388 1.959c-12.679-4.148-25.096-9.006-37.278-14.45-8.641 3.425-17.463 6.372-26.488 8.624-7.448 1.801-14.993 3.124-22.623 3.861a872.783 872.783 0 0059.228 7.546 888.127 888.127 0 0060.538 3.343m-33.377-8.924c10.973 3.548 22.099 6.55 33.377 8.924m-33.377-8.924c-12.679-4.148-25.096-9.006-37.279-14.45a997.618 997.618 0 0068.454 3.766c22.95.409 45.903.055 68.835-1.105-11.542 4.967-23.307 9.36-35.317 13.058-10.292 3.125-20.738 5.704-31.316 7.655m200.033-37.156c6.203 2.581 12.567 4.75 19.114 6.288 5.178 1.181 10.435 1.95 15.734 2.169a831.158 831.158 0 01-55.688 13.099 854.253 854.253 0 01-58.318 9.35m79.158-30.906c-13.501 6.714-27.276 12.865-41.325 18.316m41.325-18.316a962.385 962.385 0 01-65.566 10.531 1001.654 1001.654 0 01-67.84 5.917c9.501 3.817 19.195 7.126 29.102 9.721 8.274 2.114 16.659 3.734 25.146 4.737m0 0c12.8-3.597 25.417-7.826 37.833-12.59m-37.833 12.59c12.8-3.597 25.407-7.826 37.833-12.59M1010.1 564.7c2.88 1.812 5.86 3.456 9.05 4.626 2.16.78 4.39 1.324 6.69 1.435a775.767 775.767 0 01-48.474 19.046 807.256 807.256 0 01-52.35 16.342M1010.1 564.7c-14.289 8.415-28.887 16.287-43.809 23.532a568.571 568.571 0 01-41.275 17.917M1010.1 564.7c-19.04 6.813-38.317 12.888-57.797 18.308-20.536 5.628-41.265 10.504-62.145 14.684 6.211 2.578 12.576 4.751 19.134 6.298 5.167 1.17 10.425 1.936 15.724 2.159M758.917-845.791c-11.988-6.167-24.251-11.764-36.819-16.611-10.708-4.073-21.602-7.6-32.697-10.444a922.894 922.894 0 0163.477 1.024 901.76 901.76 0 0162.653 5.529c-8.905 1.843-17.643 4.346-26.21 7.373-10.406 3.731-20.528 8.168-30.404 13.129zm-408.963 51.81c1.578.98 2.977 2.204 4.322 3.474 2.349 2.249 4.521 4.676 6.636 7.148-17.352 7.081-34.439 14.763-51.208 23.136-15.411 7.749-30.529 16.055-45.301 24.962a753.196 753.196 0 0143.192-31.999c13.802-9.397 27.921-18.326 42.359-26.721zm688.256-11.83a675.895 675.895 0 0142.86 25.602 734.33 734.33 0 0144.04 31.098c-15.87-8.646-32.07-16.644-48.54-24.061-17.85-7.953-35.99-15.191-54.37-21.782 2.95-2.658 6.02-5.205 9.33-7.394 2.11-1.386 4.3-2.637 6.68-3.463zm-773.809 70.549c-.408 3.747-.314 7.493-.011 11.239.486 5.543 1.441 11.041 2.589 16.496-16.27 7.909-32.226 16.409-47.788 25.632-13.923 8.325-27.498 17.198-40.655 26.662 13.689-14.7 27.875-28.94 42.57-42.654a799.786 799.786 0 0143.295-37.375zm940.259 38.021a804.31 804.31 0 0139.54 38.385 830.174 830.174 0 0138.12 42.699 470.318 470.318 0 00-31.13-26.855c-12.11-9.515-24.65-18.466-37.54-26.876-.78-5.397-1.94-10.728-3.7-15.887-1.39-3.988-3.12-7.846-5.29-11.466zm-432.682-19.101c-14.852-15.538-30.098-30.718-45.853-45.342-13.42-12.394-27.195-24.365-41.468-35.756 26.931-.446 53.852-.044 80.754 1.182a1244.603 1244.603 0 0179.402 6.397c-11.673 10.255-22.922 20.955-33.884 31.967-13.369 13.486-26.313 27.396-38.951 41.552zm-655.33 114.667a173.322 173.322 0 00-9.6 20.371c-3.238 8.308-5.861 16.828-7.976 25.495-9.34 7.887-18.296 16.196-26.773 25.01-7.333 7.676-14.284 15.69-20.803 24.083a850.288 850.288 0 0131.096-48.924 840.442 840.442 0 0134.056-46.035zm1165.672-14.477a867.023 867.023 0 0135.95 46.568 877.446 877.446 0 0133.09 49.829c-7.55-8.64-15.56-16.836-23.94-24.65-9.71-8.958-19.92-17.365-30.49-25.306-1.54-8.789-3.59-17.471-6.31-25.963-2.29-7.009-5.03-13.871-8.3-20.478zM51.49-506.722c-4.002 9.535-7.482 19.296-10.482 29.179-3.41 11.463-6.162 23.069-8.352 34.819-6.718 6.356-13.057 13.103-18.908 20.28A187.9 187.9 0 00.2-403.333a847.834 847.834 0 0123.692-52.33 851.299 851.299 0 0127.598-51.059zm1299.87-13.037a878.171 878.171 0 0129.58 52.266 861.53 861.53 0 0125.59 53.872c-4.99-6.958-10.46-13.545-16.31-19.803-7.01-7.411-14.52-14.307-22.4-20.791-1.7-12.043-3.98-23.983-6.98-35.778-2.62-10.087-5.75-20.03-9.48-29.766zm-671.483-83.119c-14.972-20.384-30.219-40.572-45.845-60.476-13.371-16.983-27.009-33.748-41.022-50.186a1621.707 1621.707 0 0189.171-3.946c29.936-.436 59.882-.044 89.799 1.155-15.015 16.874-29.59 34.141-43.854 51.647-16.476 20.297-32.525 40.921-48.249 61.806zM.202-403.33a441.891 441.891 0 00-9.3 36.821c-2.852 13.969-5.044 28.078-6.648 42.246-4.225 4.193-8.134 8.684-11.582 13.532-2.772 3.974-5.22 8.147-7.273 12.539a804.235 804.235 0 0115.276-52.361A832.67 832.67 0 01.202-403.33zm1406.328-10.292a848.197 848.197 0 0121.27 54.501 819.266 819.266 0 0116.83 54.221c-2.76-4.644-5.95-9.01-9.46-13.097-4.44-5.103-9.35-9.728-14.55-14.034-1.19-14.651-3.01-29.223-5.54-43.696-2.28-12.757-5.11-25.396-8.55-37.895zM786.9-88.396a25069.96 25069.96 0 00-55.11-95.598 22280.214 22280.214 0 00-54.948-94.203c36.411-.134 72.834-.019 109.255.363 35.621.401 71.232 1.031 106.853 1.929a13511.71 13511.71 0 01-51.74 92.389 14908.985 14908.985 0 01-54.31 95.12zM-44.18-209.089c-.481 17.185-.26 34.37.593 51.537.988 18.698 2.727 37.34 5.14 55.908-3.35-.374-6.698-.804-10.021-1.383-1.863-.317-3.727-.691-5.532-1.251a711.306 711.306 0 012.785-50.79 758.03 758.03 0 017.036-54.021zm1496.91-3.475c3.48 18.626 6.31 37.346 8.43 56.178 1.91 17.541 3.21 35.139 3.84 52.792-2.58.561-5.19.954-7.81 1.309-4.36.599-8.75 1.029-13.13 1.422 2.99-19.281 5.29-38.655 6.79-58.123 1.32-17.822 1.97-35.7 1.88-53.578zM786.904-88.391a22016.233 22016.233 0 0153.588 94.036 19938.25 19938.25 0 0150.522 89.713 5196.278 5196.278 0 01-105.755 2.691c-36.026.538-72.064.7-108.101.52A12946.233 12946.233 0 00731.65 6.597a13798.418 13798.418 0 0055.254-94.987zM1448.06 6.978c.83-17.13.91-34.28.35-51.428a723.572 723.572 0 00-4.35-56.387c4.38-.415 8.76-.848 13.15-1.425 2.61-.378 5.21-.757 7.79-1.334a743.043 743.043 0 01-6.13 53.844 796.372 796.372 0 01-10.81 56.73zM676.842-278.195a22686.308 22686.308 0 00-53.122-90.023 18156.207 18156.207 0 00-49.831-83.382c34.694-1.373 69.402-2.2 104.13-2.523 34.99-.283 69.982-.041 104.973.726a9064.607 9064.607 0 00-51.832 84.513 10503.018 10503.018 0 00-54.318 90.689zm.316 376.749a7556.002 7556.002 0 0053.618 87.134 6576.39 6576.39 0 0050.675 79.746c-34.27.89-68.562 1.175-102.852.84a2832.086 2832.086 0 01-102.046-2.889 9802.208 9802.208 0 0048.453-78.52 12350.13 12350.13 0 0052.152-86.311zm659.462 204.378a243.912 243.912 0 0010.03-26.332c3.29-10.506 5.91-21.207 7.97-32.021 8.05-7.016 15.73-14.451 22.91-22.388 6.08-6.773 11.79-13.869 17.04-21.321-8.45 17.652-17.52 34.996-27.14 52.034a867.63 867.63 0 01-30.81 50.028zM65.825 289.468a842.748 842.748 0 01-28.859-49.006 838.898 838.898 0 01-25.25-50.694 220.677 220.677 0 0014.346 20.615c6.067 7.678 12.61 14.934 19.542 21.849 2.526 10.568 5.586 21.022 9.25 31.264a272.302 272.302 0 0010.971 25.972zm614.811 114.197c15.227 18.874 30.789 37.45 46.807 55.653 13.724 15.517 27.773 30.751 42.279 45.552a1513.419 1513.419 0 01-86.7 1.178 1481.01 1481.01 0 01-86.108-4.028c13.51-14.354 26.603-29.095 39.412-44.075 15.146-17.785 29.875-35.913 44.31-54.28zm100.816-138.219a5275.93 5275.93 0 0046.544 70.705c13.683 20.341 27.519 40.588 41.599 60.661a1911.762 1911.762 0 01-93.544 5.771 1984.949 1984.949 0 01-95.411 1.072c16.598-21.177 32.799-42.669 48.676-64.382 17.754-24.346 35.112-48.976 52.136-73.827zm613.118-64.57a396.204 396.204 0 009.66-34.712c3.01-13.353 5.31-26.841 7.04-40.413 5.42-5.046 10.51-10.444 15.11-16.247 3.75-4.793 7.13-9.838 10.1-15.153a824.39 824.39 0 01-18.82 53.381 851.31 851.31 0 01-23.09 53.144zm-1382.852-11.1a831.064 831.064 0 01-21.323-51.575 812.65 812.65 0 01-17.228-51.626 112.126 112.126 0 007.96 14.505c3.64 5.548 7.74 10.743 12.192 15.668 2.109 13.172 4.779 26.26 8.071 39.179a405.803 405.803 0 0010.328 33.849zm758.005 315.097c12.101 12.283 24.517 24.252 37.377 35.734 10.457 9.295 21.206 18.26 32.393 26.683a1167.13 1167.13 0 01-76.357 6.32 1190.838 1190.838 0 01-77.616 1.173c13.735-9.538 26.981-19.734 39.883-30.358 15.247-12.641 29.987-25.896 44.32-39.552zm496.597-110.912c3.22-5.532 5.99-11.312 8.35-17.263 2.81-7.225 5.03-14.653 6.76-22.22 10.64-8.204 20.9-16.89 30.72-26.089 8.54-8.111 16.73-16.579 24.47-25.451a863.372 863.372 0 01-33.9 47.236 838.068 838.068 0 01-36.4 43.787zM132.424 379.446a822.323 822.323 0 01-34.584-43.442 838.477 838.477 0 01-32.01-46.534 356.604 356.604 0 0021.489 24.884c8.632 9.044 17.718 17.636 27.185 25.79 2.284 7.514 5.035 14.855 8.335 21.978a151.21 151.21 0 009.585 17.324zm1056.496 89.827c2.01-2.756 3.66-5.737 5.01-8.883 1.71-4.059 2.89-8.314 3.71-12.628 12.81-8.449 25.29-17.406 37.35-26.889a511.927 511.927 0 0031.32-26.903 822.52 822.52 0 01-38.17 39.801 782.18 782.18 0 01-39.22 35.502zm-909.318 37.185a773.118 773.118 0 01-42.624-34.108 819.483 819.483 0 01-42.28-39.267c13.04 9.448 26.48 18.322 40.257 26.65 15.289 9.197 30.959 17.702 46.941 25.603-.991 4.23-1.837 8.504-2.275 12.838-.259 2.742-.362 5.527-.019 8.284zm405.917 68.335c12.251 8.364 24.839 16.242 37.842 23.386 10.842 5.909 21.957 11.304 33.397 15.965a1008.365 1008.365 0 01-68.834 1.109 989.184 989.184 0 01-68.454-3.773c10.551-4.244 20.784-9.223 30.763-14.688 12.14-6.714 23.865-14.12 35.286-21.999zm71.244 39.345c9.501 3.816 19.196 7.114 29.104 9.717 8.274 2.113 16.657 3.735 25.145 4.743a886.012 886.012 0 01-60.065 5.275 887.455 887.455 0 01-60.816.981c10.577-1.949 21.023-4.538 31.317-7.646 12.008-3.707 23.773-8.109 35.315-13.07zm269.077-43.385c-2.29-.113-4.52-.667-6.69-1.434-3.18-1.18-6.17-2.813-9.04-4.632 17.84-6.436 35.47-13.51 52.79-21.239a712.432 712.432 0 0047.42-23.469 702.446 702.446 0 01-42.93 27.944 676.669 676.669 0 01-41.55 22.83z" stroke="#2D3748" stroke-width="2.087" stroke-miterlimit="10" />
</svg>
