<?xml version="1.0" encoding="UTF-8"?>
<svg width="280px" height="140px" viewBox="0 0 280 140" version="1.1" xmlns="http://www.w3.org/2000/svg" xmlns:xlink="http://www.w3.org/1999/xlink">
    <!-- Generator: Sketch 63 (92445) - https://sketch.com -->
    <title>newsletter</title>
    <desc>Created with Sketch.</desc>
    <g id="Page-1" stroke="none" stroke-width="1" fill="none" fill-rule="evenodd">
        <g id="Artboard" transform="translate(-65.000000, -1006.000000)">
            <g id="newsletter" transform="translate(65.000000, 1006.000000)">
                <rect id="Rectangle" fill="#323452" x="0" y="0" width="280" height="140"></rect>
                <rect id="Rectangle" fill="#323452" x="0" y="0" width="280" height="140"></rect>
                <g id="Group" transform="translate(29.000000, 30.000000)">
                    <rect id="Rectangle" fill="#323452" x="1" y="1" width="220" height="78" rx="4"></rect>
                    <rect id="Rectangle" stroke-opacity="0.04" stroke="#FFFFFF" x="0.5" y="0.5" width="221" height="79" rx="4.5"></rect>
                </g>
                <rect id="Rectangle" fill-opacity="0.651852054" fill="#FFFFFF" x="94" y="61" width="92" height="3" rx="1.5"></rect>
                <rect id="Rectangle" fill-opacity="0.354212194" fill="#FFFFFF" x="93" y="68" width="94" height="2" rx="1"></rect>
                <rect id="Rectangle" fill-opacity="0.354212194" fill="#FFFFFF" x="98" y="73" width="84" height="2" rx="1"></rect>
                <rect id="Rectangle" fill-opacity="0.610085227" fill="#FFFFFF" x="160" y="83" width="30" height="12" rx="3"></rect>
                <rect id="Rectangle" fill-opacity="0.354212194" fill="#FFFFFF" x="168" y="88" width="14" height="2" rx="1"></rect>
                <g id="Group" transform="translate(89.000000, 82.000000)">
                    <rect id="Rectangle" fill="#323452" x="1" y="1" width="66" height="12" rx="3"></rect>
                    <rect id="Rectangle" stroke-opacity="0.437773164" stroke="#FFFFFF" fill-opacity="0.105769231" fill="#FFFFFF" x="0.5" y="0.5" width="67" height="13" rx="3.5"></rect>
                </g>
                <path d="M133.084,44.424 L140,47.8819 L146.916,44.4239 C146.668,43.6002 145.904,43 145,43 L135,43 C134.096,43 133.332,43.6002 133.084,44.424 Z M147,46.6179 L140,50.1179 L133,46.618 L133,51 C133,52.1046 133.895,53 135,53 L145,53 C146.105,53 147,52.1046 147,51 L147,46.6179 Z" id="Shape" fill-opacity="0.354212194" fill="#FFFFFF"></path>
            </g>
        </g>
    </g>
</svg>