<?xml version="1.0" encoding="UTF-8"?>
<svg width="280px" height="140px" viewBox="0 0 280 140" version="1.1" xmlns="http://www.w3.org/2000/svg" xmlns:xlink="http://www.w3.org/1999/xlink">
    <!-- Generator: Sketch 63 (92445) - https://sketch.com -->
    <title>text</title>
    <desc>Created with Sketch.</desc>
    <g id="Page-1" stroke="none" stroke-width="1" fill="none" fill-rule="evenodd">
        <g id="Artboard" transform="translate(-479.000000, -1260.000000)">
            <g id="text" transform="translate(479.000000, 1260.000000)">
                <rect id="Rectangle" fill="#323452" x="0" y="0" width="280" height="140"></rect>
                <rect id="Rectangle" fill="#323452" x="0" y="0" width="280" height="140"></rect>
                <rect id="Rectangle" fill-opacity="0.354212194" fill="#FFFFFF" x="72" y="36" width="136" height="2" rx="1"></rect>
                <rect id="Rectangle" fill-opacity="0.354212194" fill="#FFFFFF" x="72" y="66" width="136" height="2" rx="1"></rect>
                <rect id="Rectangle" fill-opacity="0.354212194" fill="#FFFFFF" x="72" y="96" width="136" height="2" rx="1"></rect>
                <rect id="Rectangle" fill-opacity="0.354212194" fill="#FFFFFF" x="72" y="126" width="136" height="2" rx="1"></rect>
                <rect id="Rectangle" fill-opacity="0.354212194" fill="#FFFFFF" x="72" y="41" width="140" height="2" rx="1"></rect>
                <rect id="Rectangle" fill-opacity="0.354212194" fill="#FFFFFF" x="72" y="71" width="132" height="2" rx="1"></rect>
                <rect id="Rectangle" fill-opacity="0.354212194" fill="#FFFFFF" x="72" y="101" width="132" height="2" rx="1"></rect>
                <rect id="Rectangle" fill-opacity="0.354212194" fill="#FFFFFF" x="72" y="131" width="138" height="2" rx="1"></rect>
                <rect id="Rectangle" fill-opacity="0.354212194" fill="#FFFFFF" x="72" y="46" width="138" height="2" rx="1"></rect>
                <rect id="Rectangle" fill-opacity="0.354212194" fill="#FFFFFF" x="72" y="76" width="138" height="2" rx="1"></rect>
                <rect id="Rectangle" fill-opacity="0.354212194" fill="#FFFFFF" x="72" y="106" width="138" height="2" rx="1"></rect>
                <rect id="Rectangle" fill-opacity="0.354212194" fill="#FFFFFF" x="72" y="136" width="130" height="2" rx="1"></rect>
                <rect id="Rectangle" fill-opacity="0.354212194" fill="#FFFFFF" x="72" y="51" width="130" height="2" rx="1"></rect>
                <rect id="Rectangle" fill-opacity="0.354212194" fill="#FFFFFF" x="72" y="81" width="136" height="2" rx="1"></rect>
                <rect id="Rectangle" fill-opacity="0.354212194" fill="#FFFFFF" x="72" y="111" width="136" height="2" rx="1"></rect>
                <rect id="Rectangle" fill-opacity="0.354212194" fill="#FFFFFF" x="72" y="56" width="74" height="2" rx="1"></rect>
                <rect id="Rectangle" fill-opacity="0.354212194" fill="#FFFFFF" x="72" y="86" width="114" height="2" rx="1"></rect>
                <rect id="Rectangle" fill-opacity="0.354212194" fill="#FFFFFF" x="72" y="116" width="114" height="2" rx="1"></rect>
                <rect id="Rectangle" fill-opacity="0.651852054" fill="#FFFFFF" x="72" y="24" width="92" height="4" rx="2"></rect>
            </g>
        </g>
    </g>
</svg>