<?xml version="1.0" encoding="UTF-8"?>
<svg width="280px" height="140px" viewBox="0 0 280 140" version="1.1" xmlns="http://www.w3.org/2000/svg" xmlns:xlink="http://www.w3.org/1999/xlink">
    <!-- Generator: Sketch 63 (92445) - https://sketch.com -->
    <title>footer</title>
    <desc>Created with Sketch.</desc>
    <defs>
        <rect id="path-1" x="0" y="0" width="280" height="140"></rect>
    </defs>
    <g id="Page-1" stroke="none" stroke-width="1" fill="none" fill-rule="evenodd">
        <g id="Artboard" transform="translate(-462.000000, -561.000000)">
            <g id="footer" transform="translate(462.000000, 561.000000)">
                <rect id="Rectangle" fill="#323452" x="0" y="0" width="280" height="140"></rect>
                <rect id="Rectangle" fill="#323452" x="0" y="0" width="280" height="140"></rect>
                <g id="Clipped">
                    <mask id="mask-2" fill="white">
                        <use xlink:href="#path-1"></use>
                    </mask>
                    <g id="Rectangle"></g>
                    <g id="Group" mask="url(#mask-2)">
                        <g transform="translate(-1.000000, 43.000000)">
                            <g id="Group" stroke-width="1" fill="none">
                                <rect id="Rectangle" fill="#323452" x="1" y="1" width="280" height="96"></rect>
                                <rect id="Rectangle" stroke-opacity="0.04" stroke="#FFFFFF" x="0.5" y="0.5" width="281" height="97"></rect>
                            </g>
                            <rect id="Rectangle" fill-opacity="0.354212194" fill="#FFFFFF" x="21" y="21" width="18" height="2" rx="1"></rect>
                            <rect id="Rectangle" fill-opacity="0.354212194" fill="#FFFFFF" x="21" y="29" width="16" height="2" rx="1"></rect>
                            <rect id="Rectangle" fill-opacity="0.354212194" fill="#FFFFFF" x="21" y="37" width="18" height="2" rx="1"></rect>
                            <rect id="Rectangle" fill-opacity="0.354212194" fill="#FFFFFF" x="21" y="45" width="12" height="2" rx="1"></rect>
                            <rect id="Rectangle" fill-opacity="0.354212194" fill="#FFFFFF" x="21" y="53" width="16" height="2" rx="1"></rect>
                            <rect id="Rectangle" fill-opacity="0.354212194" fill="#FFFFFF" x="21" y="74" width="32" height="2" rx="1"></rect>
                            <rect id="Rectangle" fill-opacity="0.354212194" fill="#FFFFFF" x="61" y="21" width="18" height="2" rx="1"></rect>
                            <rect id="Rectangle" fill-opacity="0.354212194" fill="#FFFFFF" x="61" y="29" width="16" height="2" rx="1"></rect>
                            <rect id="Rectangle" fill-opacity="0.354212194" fill="#FFFFFF" x="61" y="37" width="18" height="2" rx="1"></rect>
                            <rect id="Rectangle" fill-opacity="0.354212194" fill="#FFFFFF" x="61" y="45" width="12" height="2" rx="1"></rect>
                            <rect id="Rectangle" fill-opacity="0.354212194" fill="#FFFFFF" x="61" y="53" width="16" height="2" rx="1"></rect>
                            <rect id="Rectangle" fill-opacity="0.354212194" fill="#FFFFFF" x="101" y="21" width="18" height="2" rx="1"></rect>
                            <rect id="Rectangle" fill-opacity="0.354212194" fill="#FFFFFF" x="101" y="29" width="16" height="2" rx="1"></rect>
                            <rect id="Rectangle" fill-opacity="0.354212194" fill="#FFFFFF" x="101" y="37" width="18" height="2" rx="1"></rect>
                            <rect id="Rectangle" fill-opacity="0.354212194" fill="#FFFFFF" x="101" y="45" width="12" height="2" rx="1"></rect>
                            <rect id="Rectangle" fill-opacity="0.354212194" fill="#FFFFFF" x="101" y="53" width="16" height="2" rx="1"></rect>
                            <rect id="Rectangle" fill-opacity="0.354212194" fill="#FFFFFF" x="141" y="21" width="18" height="2" rx="1"></rect>
                            <rect id="Rectangle" fill-opacity="0.354212194" fill="#FFFFFF" x="141" y="29" width="16" height="2" rx="1"></rect>
                            <rect id="Rectangle" fill-opacity="0.354212194" fill="#FFFFFF" x="141" y="37" width="18" height="2" rx="1"></rect>
                            <rect id="Rectangle" fill-opacity="0.354212194" fill="#FFFFFF" x="141" y="45" width="12" height="2" rx="1"></rect>
                            <rect id="Rectangle" fill-opacity="0.354212194" fill="#FFFFFF" x="141" y="53" width="16" height="2" rx="1"></rect>
                            <rect id="Rectangle" fill-opacity="0.370875219" fill="#FFFFFF" x="21" y="66" width="240" height="1"></rect>
                            <rect id="Rectangle" fill-opacity="0.354212194" fill="#FFFFFF" x="181" y="21" width="18" height="2" rx="1"></rect>
                            <rect id="Rectangle" fill-opacity="0.354212194" fill="#FFFFFF" x="181" y="29" width="74" height="2" rx="1"></rect>
                            <rect id="Rectangle" fill-opacity="0.354212194" fill="#FFFFFF" x="181" y="34" width="67" height="2" rx="1"></rect>
                            <g id="Group" stroke-width="1" fill="none" transform="translate(180.000000, 41.000000)">
                                <rect id="Rectangle" fill="#323452" x="1" y="1" width="53" height="8" rx="2"></rect>
                                <rect id="Rectangle" stroke-opacity="0.08" stroke="#FFFFFF" x="0.5" y="0.5" width="54" height="9" rx="2.5"></rect>
                            </g>
                            <path d="M237,44 C237,42.3431 238.343,41 240,41 L258,41 C259.657,41 261,42.3431 261,44 L261,48 C261,49.6569 259.657,51 258,51 L240,51 C238.343,51 237,49.6569 237,48 L237,44 Z" id="Path" fill-opacity="0.610085227" fill="#FFFFFF"></path>
                            <circle id="Oval" fill-opacity="0.354212194" fill="#FFFFFF" cx="222" cy="75" r="3"></circle>
                            <circle id="Oval" fill-opacity="0.354212194" fill="#FFFFFF" cx="234" cy="75" r="3"></circle>
                            <circle id="Oval" fill-opacity="0.354212194" fill="#FFFFFF" cx="246" cy="75" r="3"></circle>
                            <circle id="Oval" fill-opacity="0.354212194" fill="#FFFFFF" cx="258" cy="75" r="3"></circle>
                        </g>
                    </g>
                </g>
            </g>
        </g>
    </g>
</svg>