<svg xmlns="http://www.w3.org/2000/svg" viewBox="0 0 128 128" fill="none"><path d="M64 128C99.3 128 128 99.3 128 64C128 28.7 99.3 0 64 0C28.7 0 0 28.7 0 64C0 99.3 28.7 128 64 128Z" fill="url(#paint0_radial)"/><path d="M101.8 99.2H29.1C26.3 99.2 24 96.9 24 94.1V38.4001C24 35.6001 26.3 33.3 29.1 33.3H101.8C104.6 33.3 106.9 35.6001 106.9 38.4001V94.1C106.9 96.9 104.6 99.2 101.8 99.2Z" fill="white"/><path d="M106.9 49.5V94.1C106.9 96.9 104.6 99.2 101.8 99.2H29.1C26.3 99.2 24 96.9 24 94.1V49.5" stroke="#311D6C" stroke-width="2.105" stroke-miterlimit="10" stroke-linecap="round" stroke-linejoin="round"/><path d="M23.8999 43.2001V38.4001C23.8999 35.6001 26.1999 33.3 28.9999 33.3H101.7C104.5 33.3 106.8 35.6001 106.8 38.4001V43.2001" stroke="#311D6C" stroke-width="2.105" stroke-miterlimit="10" stroke-linecap="round" stroke-linejoin="round"/><path d="M59.8 77.2H33.2001C32.2001 77.2 31.3 76.4 31.3 75.3V54.9C31.3 53.9 32.1001 53 33.2001 53H59.8C60.8 53 61.7001 53.8 61.7001 54.9V75.3C61.7001 76.3 60.8 77.2 59.8 77.2Z" fill="#FFCBBD"/><path fill-rule="evenodd" clip-rule="evenodd" d="M44 96.3C43.5 96.3 43 95.8 43 95.3L44 96.3Z" fill="white"/><path d="M32.8 87.1001H49.5" stroke="#311D6C" stroke-width="2.105" stroke-miterlimit="10" stroke-linecap="round" stroke-linejoin="round"/><path d="M55.7 87.1001H60.5" stroke="#311D6C" stroke-width="2.105" stroke-miterlimit="10" stroke-linecap="round" stroke-linejoin="round"/><path d="M23.8999 43.2H106.9" stroke="#311D6C" stroke-width="2.105" stroke-miterlimit="10" stroke-linecap="round" stroke-linejoin="round"/><path d="M85.1001 77.1001C91.7275 77.1001 97.1001 71.7275 97.1001 65.1001C97.1001 58.4727 91.7275 53.1001 85.1001 53.1001C78.4727 53.1001 73.1001 58.4727 73.1001 65.1001C73.1001 71.7275 78.4727 77.1001 85.1001 77.1001Z" fill="#9FEBE5"/><path d="M97.1001 65.1001H85.1001C85.1001 58.5001 85.1001 53.1001 85.1001 53.1001C91.7001 53.1001 97.1001 58.5001 97.1001 65.1001Z" stroke="#311D6C" stroke-width="2.105" stroke-miterlimit="10" stroke-linecap="round" stroke-linejoin="round"/><path d="M33.2 72.7001C33.8 72.4001 43.9 62.0001 43.9 62.0001L51.7 67.6001L64.5 56.1001" stroke="#311D6C" stroke-width="2.105" stroke-miterlimit="10" stroke-linecap="round" stroke-linejoin="round"/><path d="M74.6001 87.1001H97.1001" stroke="#311D6C" stroke-width="2.105" stroke-miterlimit="10" stroke-linecap="round" stroke-linejoin="round"/><path d="M29.7999 39.4C30.4075 39.4 30.9 38.9075 30.9 38.2999C30.9 37.6924 30.4075 37.2 29.7999 37.2C29.1924 37.2 28.7 37.6924 28.7 38.2999C28.7 38.9075 29.1924 39.4 29.7999 39.4Z" fill="#311D6C"/><path d="M33.9999 39.4C34.6074 39.4 35.0999 38.9075 35.0999 38.2999C35.0999 37.6924 34.6074 37.2 33.9999 37.2C33.3924 37.2 32.8999 37.6924 32.8999 38.2999C32.8999 38.9075 33.3924 39.4 33.9999 39.4Z" fill="#311D6C"/><path d="M38.1999 39.4C38.8074 39.4 39.2999 38.9075 39.2999 38.2999C39.2999 37.6924 38.8074 37.2 38.1999 37.2C37.5923 37.2 37.0999 37.6924 37.0999 38.2999C37.0999 38.9075 37.5923 39.4 38.1999 39.4Z" fill="#311D6C"/><defs><radialGradient id="paint0_radial" cx="0" cy="0" r="1" gradientUnits="userSpaceOnUse" gradientTransform="translate(91.0053 72.6888) rotate(90) scale(128)"><stop stop-color="white"/><stop offset="1" stop-color="#F7F5F9"/></radialGradient></defs></svg>