<svg xmlns="http://www.w3.org/2000/svg" viewBox="0 0 128 128" fill="none"><path d="M64 128C99.3462 128 128 99.3462 128 64C128 28.6538 99.3462 0 64 0C28.6538 0 0 28.6538 0 64C0 99.3462 28.6538 128 64 128Z" fill="url(#paint0_radial)"/><path d="M83.8 87.4999C98.0489 87.4999 109.6 75.9489 109.6 61.6999C109.6 47.451 98.0489 35.8999 83.8 35.8999C69.5511 35.8999 58 47.451 58 61.6999C58 75.9489 69.5511 87.4999 83.8 87.4999Z" fill="#9FEBE5"/><path d="M82.4001 87.5999C82.0001 87.6999 102.5 101 102.5 101L105.3 101.5L108.1 100.1C108.1 100.1 109.1 98.7999 109.2 98.3999C109.3 97.9999 109.4 96.3999 109.2 95.8999C109 95.3999 108.5 93.6999 108.5 93.6999L106.3 91.9999L88.6001 80.3999C88.6001 80.3999 86.0001 86.5999 82.4001 87.5999Z" fill="white"/><path d="M85.8 30.9L71.7 106.6L67.4 100.8L61.5 104.4L57 98.7L50.9 102.5L46.4 96.7L40.4 100.5L35.8 94.9L29.6 98.7L25 93L18.9 96.9L18 96.4L24.4 65.4L29.8 36.9L33 21L37.2 26.7L43.6 23.1L47.7 28.7L54 25.4L58.7 30.5L64.7 27.1L69.2 32.4L75.4 29C75.4 29 79.9 34.4 80.3 34.3C80.7 34.2 85.8 30.9 85.8 30.9Z" fill="white"/><path d="M85.1 76L88.6 78.3C88.6 78.3 88.5999 85.4 80.9999 88.7L77.2 86.2" fill="white"/><path d="M85.1 76L88.6 78.3C88.6 78.3 88.5999 85.4 80.9999 88.7L77.2 86.2" stroke="#311D6C" stroke-width="1.879" stroke-miterlimit="10" stroke-linecap="round" stroke-linejoin="round"/><path d="M30.8 31.7L20.3 86.7" stroke="#311D6C" stroke-width="2.105" stroke-miterlimit="10" stroke-linecap="round"/><path d="M32.8999 21L37.2999 26.9L43.5999 23.1L47.9999 28.9L54.2999 25.2L58.5999 30.9L64.7999 27.1L69.1999 32.8L75.3999 29.1L79.8999 34.6L85.7999 30.9" stroke="#311D6C" stroke-width="2.105" stroke-miterlimit="10" stroke-linecap="round" stroke-linejoin="round"/><path d="M18.8999 96.9L24.9999 93L29.5999 98.7001L35.7999 94.9L40.3999 100.6L46.3999 96.8L50.7999 102.6L56.9999 98.8L61.3999 104.4L67.3999 100.8L71.6999 106.6L84.8999 37.3" stroke="#311D6C" stroke-width="2.105" stroke-miterlimit="10" stroke-linecap="round" stroke-linejoin="round"/><path d="M66.2 89.3999C76.4172 89.3999 84.7 81.1172 84.7 70.8999C84.7 60.6826 76.4172 52.3999 66.2 52.3999C55.9827 52.3999 47.7 60.6826 47.7 70.8999C47.7 81.1172 55.9827 89.3999 66.2 89.3999Z" fill="white" stroke="#311D6C" stroke-width="1.879" stroke-miterlimit="10" stroke-linecap="round"/><path d="M87.1001 90.8999L101.8 100.6" stroke="#311D6C" stroke-width="2.105" stroke-miterlimit="10" stroke-linecap="round" stroke-linejoin="round"/><path d="M92.3999 82.8L107.7 92.8" stroke="#311D6C" stroke-width="2.105" stroke-miterlimit="10" stroke-linecap="round" stroke-linejoin="round"/><path d="M107.7 92.8C110.3 94.9 110.1 98.2001 108.2 100.1C106.3 102 103.6 101.9 101.3 100.2" fill="white"/><path d="M107.7 92.8C110.3 94.9 110.1 98.2001 108.2 100.1C106.3 102 103.6 101.9 101.3 100.2" stroke="#311D6C" stroke-width="1.879" stroke-miterlimit="10" stroke-linecap="round"/><path d="M37.1001 41.7L59.4001 46" stroke="#311D6C" stroke-width="2.105" stroke-miterlimit="10" stroke-linecap="round"/><path d="M35.1001 55.6001L52.1001 58.8001" stroke="#311D6C" stroke-width="2.105" stroke-miterlimit="10" stroke-linecap="round"/><path d="M33.3 65.3L47.4 68" stroke="#311D6C" stroke-width="2.105" stroke-miterlimit="10" stroke-linecap="round"/><path d="M31.3 76.2L49.5 79.6" stroke="#311D6C" stroke-width="2.105" stroke-miterlimit="10" stroke-linecap="round"/><path d="M64.6001 47L67.2001 47.5" stroke="#311D6C" stroke-width="2.105" stroke-miterlimit="10" stroke-linecap="round"/><path d="M64.6 77.2C64.5 77.2 64.4 77.2 64.3 77.2L59.4 76.3C58.4 76.1 57.8 75.2 58 74.2C58.2 73.2 59.1 72.6 60.1 72.7L65 73.6C66 73.8 66.6 74.7 66.4 75.7C66.2 76.5 65.5 77.2 64.6 77.2Z" fill="#311D6C"/><path d="M73.6 68.2C73.5 68.2 73.4 68.2 73.3 68.2L68.4 67.3C67.4 67.1 66.8 66.2 67 65.2C67.2 64.2 68.1 63.6 69.1 63.7L74 64.6C75 64.8 75.6 65.7 75.4 66.7C75.2 67.5 74.5 68.2 73.6 68.2Z" fill="#311D6C"/><path d="M61.6999 72.5999C61.6999 65.4999 66.8999 59.5999 73.6999 58.3999C71.5999 57.1999 69.0999 56.3999 66.3999 56.3999C58.3999 56.3999 51.8999 62.8999 51.8999 70.8999C51.8999 78.8999 58.3999 85.3999 66.3999 85.3999C67.2999 85.3999 68.0999 85.2999 68.8999 85.1999C64.5999 82.5999 61.6999 77.9999 61.6999 72.5999Z" fill="#FFCBBD"/><defs><radialGradient id="paint0_radial" cx="0" cy="0" r="1" gradientUnits="userSpaceOnUse" gradientTransform="translate(90.9996 72.6404) rotate(90) scale(128)"><stop stop-color="white"/><stop offset="1" stop-color="#F7F5F9"/></radialGradient></defs></svg>