<svg xmlns="http://www.w3.org/2000/svg" viewBox="0 0 132 135" fill="none"><path d="M68.0002 133C103.346 133 132 104.346 132 69C132 33.6538 103.346 5 68.0002 5C32.654 5 4.00024 33.6538 4.00024 69C4.00024 104.346 32.654 133 68.0002 133Z" fill="url(#paint0_radial)"/><path d="M38.4043 47.8082C45.8072 47.8082 51.8084 41.807 51.8084 34.4041C51.8084 27.0012 45.8072 21 38.4043 21C31.0015 21 25.0002 27.0012 25.0002 34.4041C25.0002 41.807 31.0015 47.8082 38.4043 47.8082Z" fill="#9FEBE5"/><path d="M44.5168 38.9079C43.7662 39.6585 43.0155 40.1947 42.0504 40.6236C41.0853 41.0525 40.1202 41.267 39.1551 41.267C38.0828 41.267 37.0105 41.0525 36.0454 40.6236C35.0803 40.1947 34.3297 39.5513 33.6863 38.8006C33.0429 38.05 32.6139 37.1922 32.2922 36.1198H30.3621V35.0475H32.0778C32.0778 34.7258 32.0778 34.5113 32.0778 34.4041C32.0778 34.1896 32.0778 34.0824 32.0778 33.9752H30.3621V32.7956H32.2922C32.5067 31.8305 33.0429 30.8654 33.6863 30.1148C34.3297 29.3642 35.1875 28.7208 36.1526 28.2918C37.1177 27.8629 38.1901 27.6484 39.3696 27.6484C40.3347 27.6484 41.2998 27.8629 42.2649 28.1846C43.23 28.6135 43.9806 29.1497 44.624 29.7931L43.1228 31.7233C42.5866 31.1871 42.0504 30.7582 41.407 30.4365C40.7636 30.1148 40.1202 30.0076 39.4768 30.0076C38.5118 30.0076 37.6539 30.3293 36.796 30.8654C36.0454 31.4016 35.5092 32.1522 35.1875 33.0101H40.1202V34.1896H34.8658C34.8658 34.2969 34.8658 34.4041 34.8658 34.6186C34.8658 34.833 34.8658 35.1547 34.9731 35.3692H40.2275V36.5488H35.402C35.7237 37.2994 36.3671 37.9428 37.1177 38.479C37.8684 38.9079 38.7262 39.2296 39.5841 39.2296C40.2275 39.2296 40.8709 39.1223 41.5143 38.8006C42.1577 38.479 42.8011 38.1573 43.23 37.6211L44.5168 38.9079Z" fill="white"/><path d="M85.7235 21.4466C91.6458 21.4466 96.4468 16.6456 96.4468 10.7233C96.4468 4.80098 91.6458 0 85.7235 0C79.8012 0 75.0002 4.80098 75.0002 10.7233C75.0002 16.6456 79.8012 21.4466 85.7235 21.4466Z" fill="#9FEBE5"/><path d="M84.9722 8.57852C85.1866 8.79299 85.4011 9.00745 85.6156 9.22192C85.9373 9.43639 86.259 9.65085 86.7951 9.86531C87.4385 10.187 88.0819 10.5087 88.5108 10.8304C88.9398 11.1521 89.2615 11.4738 89.4759 12.01C89.6904 12.5461 89.7976 13.0823 89.6904 13.7257C89.476 14.5836 89.047 15.227 88.4036 15.6559C87.653 16.0848 86.7951 16.2993 85.83 16.1921L85.4011 18.3367L83.8998 18.015L84.3288 15.8704C83.5781 15.6559 82.9347 15.3342 82.2914 14.9053C81.648 14.4763 81.1118 14.0474 80.6829 13.404L81.8624 11.7955C82.2914 12.4389 82.8275 12.8678 83.4709 13.2968C84.1143 13.7257 84.6505 13.9402 85.2939 14.0474C85.83 14.1546 86.3662 14.1546 86.6879 13.9402C87.0096 13.8329 87.3313 13.5112 87.3313 13.0823C87.4385 12.7606 87.3313 12.5461 87.2241 12.2244C87.0096 12.01 86.7951 11.7955 86.5807 11.581C86.259 11.3666 85.9373 11.1521 85.4011 10.9376C84.7577 10.6159 84.1143 10.2942 83.6854 9.97255C83.2564 9.65085 82.9348 9.32915 82.7203 8.79299C82.5058 8.36406 82.3986 7.72066 82.5058 7.07726C82.613 6.2194 83.042 5.576 83.7926 5.14707C84.436 4.71814 85.2939 4.50368 86.3662 4.61091L86.6879 2.57349L88.1892 2.89518L87.7602 5.36154C88.2964 5.576 88.8326 5.79047 89.3687 6.11217C89.9049 6.43387 90.3338 6.75557 90.7627 7.07726L89.5832 8.68576C89.047 8.25682 88.6181 7.82789 87.9747 7.61343C87.4385 7.29173 86.9024 7.1845 86.4734 7.07726C85.9373 6.97003 85.6156 6.97003 85.2939 7.1845C84.9722 7.29173 84.7577 7.50619 84.7577 7.82789C84.7577 8.04236 84.7577 8.36406 84.9722 8.57852Z" fill="white"/><path d="M112.404 115.808C119.807 115.808 125.808 109.807 125.808 102.404C125.808 95.0012 119.807 89 112.404 89C105.001 89 99.0002 95.0012 99.0002 102.404C99.0002 109.807 105.001 115.808 112.404 115.808Z" fill="#9FEBE5"/><path d="M113.691 106.05L118.302 103.369L119.374 105.192L111.118 110.018L110.045 108.195L111.439 107.444L109.402 103.905L108.008 104.656L107.364 103.584L108.758 102.833L107.793 101.117C107.043 99.9377 106.828 98.7581 107.15 97.793C107.364 96.7207 108.115 95.8628 109.295 95.2195C109.938 94.7905 110.689 94.5761 111.332 94.4688C112.083 94.3616 112.833 94.4688 113.477 94.6833L113.584 96.9352C112.404 96.5063 111.332 96.6135 110.581 97.0424C110.045 97.3641 109.723 97.793 109.616 98.222C109.509 98.6509 109.616 99.1871 110.045 99.8305L111.01 101.439L113.906 99.7232L114.549 100.796L111.654 102.511L113.691 106.05Z" fill="white"/><path d="M24.5885 90.1767C24.5885 90.1767 28.9622 72.543 47.6161 64.7949C66.2701 57.0468 68.4838 63.0917 68.4838 63.0917L72.6543 69.1506L72.8652 76.6974L66.0805 83.7893L64.7389 91.5014C64.7389 91.5014 61.6747 100.982 51.9961 108.441L43.2823 114.109C43.2823 114.109 30.573 103.952 24.1934 91.1964" fill="white"/><path d="M112.061 70.9988L100.974 40.8797C100.248 38.7943 97.9289 37.7377 95.9491 38.4818L47.7136 56.1042C45.6282 56.8298 44.5716 59.1494 45.3156 61.1292L49.9176 73.4671C50.8225 72.645 52.0076 72.0892 53.505 72.2409C54.0884 72.0158 54.6718 71.7908 55.324 71.7954C56.2473 70.8676 57.6621 70.243 59.4581 70.5554C59.6694 70.5922 59.8807 70.6289 60.092 70.6657C60.3768 70.2799 60.7488 70.0181 61.1209 69.7563C62.0994 68.5115 63.6565 67.694 65.6638 68.0431C70.6292 68.9069 70.6381 75.1125 67.3446 77.1518C67.0598 77.5377 66.6693 77.9051 66.2972 78.1669C65.5852 79.1315 64.4874 79.8112 63.1645 79.9076C62.5076 80.5553 61.5522 81.0421 60.5646 81.088C60.2798 81.4738 59.871 81.9469 59.4989 82.2087C59.3749 82.296 59.3749 82.296 59.2508 82.3833C58.7547 82.7323 58.1714 82.9574 57.6064 83.0768C57.3216 83.4626 57.0368 83.8485 56.752 84.2343C56.6738 85.3091 56.3844 86.3472 55.7964 87.2245L55.7597 87.4358C55.7045 87.7527 55.6678 87.964 55.507 88.2626L56.6138 91.2851C57.3395 93.3705 59.6591 94.4271 61.6388 93.683L109.769 76.0422C111.749 75.2982 112.805 72.9786 112.061 70.9988Z" fill="#5D21D2"/><path d="M51.8735 101.018C51.6622 100.981 51.4693 100.839 51.382 100.715C50.9089 100.306 50.9135 99.6538 51.3224 99.1807C54.9467 95.2398 55.172 90.8164 55.2456 87.8904C55.287 87.0269 55.2916 86.3746 55.4019 85.7408C55.9165 82.7827 61.153 80.2106 62.2141 79.7422L62.3381 79.6549C62.5678 79.586 68.4336 77.7765 68.2225 72.733C68.1354 70.1056 67.3821 69.4303 67.0835 69.2696C66.6977 68.9848 66.22 69.2282 66.22 69.2282C66.1144 69.2098 66.096 69.3155 65.9903 69.2971C65.7607 69.366 64.2586 69.8666 56.0777 72.4706C43.9741 76.3514 40.3819 80.7333 40.3819 80.7333C39.9731 81.2064 39.3024 81.3074 38.8293 80.8986C38.3562 80.4898 38.2552 79.8191 38.664 79.346C38.8064 79.1531 42.5594 74.4727 55.4761 70.2979C60.3176 68.7456 62.7383 67.9694 64.1163 67.5561C64.6813 67.4367 65.035 67.2805 65.3887 67.1244C65.5127 67.0371 66.9091 66.5181 68.1906 67.2853C69.4721 68.0524 70.2529 69.8209 70.3217 72.554C70.5833 77.9328 65.7326 80.7896 62.9765 81.6163C60.836 82.6589 57.7721 84.6293 57.5516 85.897C57.4781 86.3196 57.4734 86.9719 57.4504 87.7298C57.2528 90.743 57.0229 95.8186 52.9713 100.338C52.5441 100.917 52.1904 101.073 51.8735 101.018Z" fill="#312769"/><path d="M24.4053 91.233C24.2997 91.2146 24.2997 91.2146 24.194 91.1962C23.5785 90.9803 23.3535 90.3969 23.5694 89.7814C31.5582 69.5113 43.5929 65.4009 44.1579 65.2815C44.7413 65.0564 45.3384 65.378 45.5635 65.9613C45.7885 66.5447 45.467 67.1418 44.8836 67.3669C44.7596 67.4541 33.2025 71.3212 25.7145 90.5899C25.4113 91.0814 24.9336 91.3248 24.4053 91.233Z" fill="#312769"/><path d="M51.8129 109.498C51.496 109.442 51.3031 109.3 51.1285 109.052C50.7795 108.556 50.8897 107.922 51.3858 107.573C51.3858 107.573 56.2779 103.853 59.3603 99.2731C59.6635 98.7817 60.3341 98.6806 60.8256 98.9838C61.317 99.287 61.4181 99.9576 61.1149 100.449C57.7477 105.414 52.8556 109.135 52.6076 109.309C52.3595 109.484 52.0242 109.534 51.8129 109.498Z" fill="#312769"/><path d="M93.8127 58.8992C93.7071 58.8808 93.6014 58.8624 93.5141 58.7384L88.5443 56.0235C88.0528 55.7203 87.8277 55.1369 88.0253 54.6271L90.6575 48.8809C90.8551 48.3711 91.5625 48.0588 92.0539 48.3619C92.5638 48.5595 92.8761 49.2669 92.5729 49.7583L90.3174 54.5904L94.3916 56.823C94.883 57.1262 95.0897 57.8152 94.7865 58.3067C94.8003 58.8533 94.3409 58.9911 93.8127 58.8992Z" fill="white"/><path d="M98.3274 61.0996C98.2218 61.0812 98.1161 61.0629 98.0105 61.0445C97.5006 60.8469 97.1883 60.1396 97.4915 59.6481L99.7471 54.816L95.6729 52.5834C95.1814 52.2802 94.9747 51.5912 95.2779 51.0998C95.5811 50.6083 96.2701 50.4016 96.7616 50.7048L101.731 53.4197C102.223 53.7229 102.448 54.3062 102.25 54.8161L99.6182 60.5623C99.2277 60.9297 98.75 61.1731 98.3274 61.0996Z" fill="white"/><path d="M66.4527 86.0307C66.0301 85.9572 65.7499 85.6908 65.5938 85.3371C65.3687 84.7537 65.6903 84.1566 66.2737 83.9316L83.5955 77.5844C84.1788 77.3593 84.7759 77.6809 85.001 78.2642C85.226 78.8476 84.9045 79.4447 84.3211 79.6698L66.9993 86.017C66.788 85.9802 66.664 86.0675 66.4527 86.0307Z" fill="white"/><path d="M78.9198 75.6824C78.4972 75.6089 78.2171 75.3424 78.0609 74.9887C77.8359 74.4054 78.1574 73.8082 78.7408 73.5832L84.308 71.6129C84.8914 71.3879 85.4885 71.7094 85.7135 72.2928C85.9386 72.8762 85.617 73.4733 85.0337 73.6983L79.4664 75.6686C79.3608 75.6502 79.1311 75.7191 78.9198 75.6824Z" fill="white"/><path d="M89.9076 72.5872C89.485 72.5136 89.2049 72.2472 89.0487 71.8935C88.8236 71.3101 89.1452 70.713 89.7286 70.488L95.2958 68.5177C95.8792 68.2927 96.4763 68.6142 96.7013 69.1976C96.9264 69.7809 96.6048 70.3781 96.0215 70.6031L90.4542 72.5734C90.2246 72.6423 90.1189 72.6239 89.9076 72.5872Z" fill="white"/><path d="M41.215 119.664C42.6285 118.063 42.7669 110.91 36.997 103.219C34.2639 99.5753 29.4649 94.386 24.1854 91.9109C19.6581 89.7884 17.686 91.4041 15.2723 93.2545C12.8586 95.1049 10.2066 96.8167 7.79286 98.6671C5.37915 100.517 0.0889347 103.777 5.24338 110.404C12.4102 119.617 23.2156 124.865 26.8317 126.34C30.4478 127.814 33.084 127.356 35.0562 125.74C37.0285 124.125 38.3881 122.867 41.215 119.664Z" fill="#FFCBBD"/><defs><radialGradient id="paint0_radial" cx="0" cy="0" r="1" gradientUnits="userSpaceOnUse" gradientTransform="translate(94.9999 77.6404) rotate(90) scale(128)"><stop stop-color="white"/><stop offset="1" stop-color="#F7F5F9"/></radialGradient></defs></svg>