<svg xmlns="http://www.w3.org/2000/svg" viewBox="0 0 128 128" fill="none"><path d="M64 128C99.3462 128 128 99.3462 128 64C128 28.6538 99.3462 0 64 0C28.6538 0 0 28.6538 0 64C0 99.3462 28.6538 128 64 128Z" fill="url(#paint0_radial)"/><path fill-rule="evenodd" clip-rule="evenodd" d="M44 96.2468C43.5 96.2468 43 95.7468 43 95.2468L44 96.2468Z" fill="white"/><path d="M44 96.2468C43.5 96.2468 43 95.7468 43 95.2468" stroke="#311D6C" stroke-width="1.879" stroke-miterlimit="10" stroke-linecap="round"/><path fill-rule="evenodd" clip-rule="evenodd" d="M44 27.2468H92.8C93.4 27.2468 93.8 27.7468 93.8 28.2468V98.2468" fill="white"/><path d="M44 27.2468H92.8C93.4 27.2468 93.8 27.7468 93.8 28.2468V98.2468" stroke="#311D6C" stroke-width="2.105" stroke-miterlimit="10" stroke-linecap="round"/><path fill-rule="evenodd" clip-rule="evenodd" d="M35 84.7468V33.2468C35 32.7468 35.5 32.2468 36 32.2468H87.8C88.4 32.2468 88.8 32.7468 88.8 33.2468V103.247C88.8 103.747 88.4 104.247 87.8 104.247H36C35.5 104.247 35 103.747 35 103.247V95.7468" fill="white"/><path d="M35 84.7468V33.2468C35 32.7468 35.5 32.2468 36 32.2468H87.8C88.4 32.2468 88.8 32.7468 88.8 33.2468V103.247C88.8 103.747 88.4 104.247 87.8 104.247H36C35.5 104.247 35 103.747 35 103.247V95.7468" stroke="#311D6C" stroke-width="2.105" stroke-miterlimit="10" stroke-linecap="round"/><path d="M55.2001 33.7469C53.0001 36.8469 48.8001 37.6469 45.7001 35.4469C42.6001 33.2469 41.8001 29.0469 44.0001 25.9469C46.2001 22.8469 50.4001 22.0469 53.5001 24.2469C54.3001 24.7469 54.9001 25.4469 55.3001 26.1469" stroke="#9FEBE5" stroke-width="2.105" stroke-miterlimit="10" stroke-linecap="round" stroke-linejoin="round"/><path d="M79.9001 33.7469C77.7001 36.8469 73.5001 37.6469 70.4001 35.4469C67.3001 33.2469 66.5001 29.0469 68.7001 25.9469C70.9001 22.8469 75.1001 22.0469 78.2001 24.2469C79.0001 24.7469 79.6001 25.4469 80.0001 26.1469" stroke="#9FEBE5" stroke-width="2.105" stroke-miterlimit="10" stroke-linecap="round" stroke-linejoin="round"/><path fill-rule="evenodd" clip-rule="evenodd" d="M56.4 61.7469H45.7C45.2 61.7469 44.7 61.3469 44.7 60.7469V50.0469C44.7 49.5469 45.2 49.0469 45.7 49.0469H56.4C56.9 49.0469 57.4 49.5469 57.4 50.0469V60.7469C57.4 61.2469 57 61.7469 56.4 61.7469Z" fill="#FFCBBD"/><path fill-rule="evenodd" clip-rule="evenodd" d="M56.4 80.9468H45.7C45.2 80.9468 44.7 80.5468 44.7 79.9468V69.2468C44.7 68.7468 45.2 68.2468 45.7 68.2468H56.4C56.9 68.2468 57.4 68.7468 57.4 69.2468V79.9468C57.4 80.5468 57 80.9468 56.4 80.9468Z" fill="#FFCBBD"/><path d="M47.5 53.647L52.3 58.547L59.7 51.147" stroke="#311D6C" stroke-width="2.105" stroke-miterlimit="10" stroke-linecap="round" stroke-linejoin="round"/><path d="M47.5 72.647L52.3 77.547L59.7 70.147" stroke="#311D6C" stroke-width="2.105" stroke-miterlimit="10" stroke-linecap="round" stroke-linejoin="round"/><path d="M64.6001 54.0469H78.9001" stroke="#311D6C" stroke-width="2.105" stroke-miterlimit="10" stroke-linecap="round" stroke-linejoin="round"/><path d="M45.6001 90.7468H78.9001" stroke="#311D6C" stroke-width="2.105" stroke-miterlimit="10" stroke-linecap="round" stroke-linejoin="round"/><path d="M64.6001 74.5469H78.9001" stroke="#311D6C" stroke-width="2.105" stroke-miterlimit="10" stroke-linecap="round" stroke-linejoin="round"/><defs><radialGradient id="paint0_radial" cx="0" cy="0" r="1" gradientUnits="userSpaceOnUse" gradientTransform="translate(90.9996 72.6404) rotate(90) scale(128)"><stop stop-color="white"/><stop offset="1" stop-color="#F7F5F9"/></radialGradient></defs></svg>